<?xml version="1.0" encoding="utf-8"?>
<!-- Generator: Adobe Illustrator 18.0.0, SVG Export Plug-In . SVG Version: 6.00 Build 0)  -->
<!DOCTYPE svg PUBLIC "-//W3C//DTD SVG 1.1//EN" "http://www.w3.org/Graphics/SVG/1.1/DTD/svg11.dtd">
<svg version="1.1" id="Layer_1" xmlns="http://www.w3.org/2000/svg" xmlns:xlink="http://www.w3.org/1999/xlink" x="0px" y="0px"
	 viewBox="0 0 327.7 254.1" enable-background="new 0 0 327.7 254.1" xml:space="preserve">
<ellipse fill="#C8CCCD" cx="164.4" cy="225.5" rx="28.3" ry="4.5"/>
<circle fill="#A9B8C6" cx="162.3" cy="58.5" r="23.2"/>
<path fill="#A9B8C6" d="M144.1,169.1c0,0,4.7,32.9,1.3,39c-3.4,6.1-4.8,7.6-3.8,12.3c1,4.7,2.8,6.1,7.3,6.3
	c4.4,0.3,11.1-3.6,12.7-7.4l0.5-50.2H144.1z"/>
<path fill="#A9B8C6" d="M182.7,169.1c0,0-4.7,32.9-1.3,39c3.4,6.1,4.8,7.6,3.8,12.3c-1,4.7-2.8,6.1-7.3,6.3
	c-4.4,0.3-11.1-3.6-12.7-7.4l-0.5-50.2H182.7z"/>
<g>
	<path fill="#A9B8C6" d="M218.3,90.4v75.8H109.5V90.4H218.3 M222.3,86.4H105.5v83.8h116.9V86.4L222.3,86.4z"/>
</g>
<path fill="#A9B8C6" d="M141.2,66.4h42.9c0,0-3,10-12.7,15.9c0,0-1.3,2,0,3.4S176,88,176,88h-25.4l3.5-2.5c0,0,1.5-2.1-0.5-3
	S141,70.6,141.2,66.4z"/>
<circle fill="#A9B8C6" cx="103.2" cy="116.8" r="10.4"/>
<circle fill="#A9B8C6" cx="224.2" cy="116.8" r="10.4"/>
<g>
	<g>
		<path fill="#A9B8C6" d="M19.9,104.7c10.9,0,19.8,8.9,19.8,19.8s-8.9,19.8-19.8,19.8s-19.8-8.9-19.8-19.8S9,104.7,19.9,104.7z
			 M19.9,142.4c9.8,0,17.8-8,17.8-17.8s-8-17.8-17.8-17.8s-17.8,8-17.8,17.8S10.1,142.4,19.9,142.4z"/>
	</g>
</g>
<line fill="#A9B8C6" stroke="#A9B8C6" stroke-miterlimit="10" x1="100.7" y1="208.2" x2="125.7" y2="173.6"/>
<line fill="#A9B8C6" stroke="#A9B8C6" stroke-miterlimit="10" x1="69" y1="164.5" x2="101.2" y2="146.2"/>
<line fill="#A9B8C6" stroke="#A9B8C6" stroke-miterlimit="10" x1="67.6" y1="80.9" x2="99.9" y2="99.3"/>
<line fill="#A9B8C6" stroke="#A9B8C6" stroke-miterlimit="10" x1="133.1" y1="77.2" x2="107.6" y2="41.5"/>
<line fill="#A9B8C6" stroke="#A9B8C6" stroke-miterlimit="10" x1="45.6" y1="125.9" x2="93.7" y2="125.9"/>
<g>
	<g>
		<g>
			<path fill="#A9B8C6" d="M237.8,11.6c0,0-1.8,0-3.1,1.2c-1.3,1.3-1.2,3-1.2,3l14,14l0.5-1.6l1.7-0.6l0.3-1.7l1.8-0.5L237.8,11.6z"
				/>
			<path fill="#A9B8C6" d="M238.2,29.9l-3-2.9l1.3-1.3l1.1,1.1c0.2,0.2,0.5,0.2,0.7,0c0.2-0.2,0.2-0.5,0-0.7l-1.1-1.1l1-1l0.9,0.9
				c0.2,0.2,0.5,0.2,0.7,0c0.2-0.2,0.2-0.5,0-0.7l-0.9-0.9l0.1-0.1l-1.3-1.3c0,0-3.7,3.7-4.2,4.3c-0.5,0.6-0.3,1.2-0.3,1.2
				s4.2,4.2,4.7,4.6c0.5,0.4,1-0.3,1-0.3l4.4-4.3l-1.3-1.2L238.2,29.9z"/>
			<path fill="#A9B8C6" d="M254,16.1c-0.4-0.5-4.6-4.7-4.6-4.7s-0.5-0.2-1.2,0.3c-0.6,0.5-4.3,4.2-4.3,4.2l1.3,1.3l0.1-0.1l0.9,0.9
				c0.2,0.2,0.5,0.2,0.7,0c0.2-0.2,0.2-0.5,0-0.7l-0.9-0.9l1-1l1.1,1.1c0.2,0.2,0.5,0.2,0.7,0c0.2-0.2,0.2-0.5,0-0.7l-1.1-1.1
				l1.3-1.3l2.9,3l-3.7,3.8l1.2,1.3l4.3-4.4C253.7,17.1,254.4,16.7,254,16.1z"/>
			<path fill="#A9B8C6" d="M252.5,28.2c0,0-1,0.2-1.6,0.8c-0.6,0.6-0.7,1.6-0.7,1.6s1.8,0.5,2.6,0.6s0.5-0.6,0.5-0.6L252.5,28.2z"/>
		</g>
		<g>
			<path fill="#A9B8C6" d="M243.7,41.5c-10.9,0-19.8-8.9-19.8-19.8s8.9-19.8,19.8-19.8s19.8,8.9,19.8,19.8S254.6,41.5,243.7,41.5z
				 M243.7,3.9c-9.8,0-17.8,8-17.8,17.8s8,17.8,17.8,17.8s17.8-8,17.8-17.8S253.5,3.9,243.7,3.9z"/>
		</g>
	</g>
	<g>
		<path fill="#A9B8C6" d="M230,49.4h-2.2v-4.9h2.2c1,0,1.6,0.5,1.6,1.3c0,0.4-0.2,0.8-0.5,1c0.4,0.2,0.7,0.5,0.7,1.1
			C231.7,48.9,231,49.4,230,49.4z M229.9,45.4h-1.2v0.9h1.3c0.4,0,0.6-0.2,0.6-0.5C230.6,45.6,230.4,45.4,229.9,45.4z M230,47.2
			h-1.3v1.3h1.3c0.5,0,0.7-0.3,0.7-0.6C230.7,47.4,230.5,47.2,230,47.2z"/>
		<path fill="#A9B8C6" d="M234.9,49.4l-0.9-1.8h-1v1.8h-1v-4.9h2.3c0.9,0,1.7,0.5,1.7,1.6c0,0.7-0.3,1.2-0.9,1.4l0.9,1.9H234.9z
			 M234.3,45.5H233v1.3h1.3c0.5,0,0.7-0.2,0.7-0.6C235,45.6,234.7,45.5,234.3,45.5z"/>
		<path fill="#A9B8C6" d="M239.5,49.4l-0.4-1.1h-1.8l-0.4,1.1h-1.1l1.9-4.9h1l1.9,4.9H239.5z M238.4,46.5c-0.1-0.3-0.2-0.6-0.2-0.8
			c0,0.2-0.1,0.5-0.2,0.8l-0.3,0.9h1.1L238.4,46.5z"/>
		<path fill="#A9B8C6" d="M243.9,49.4l-1.8-2.7c-0.1-0.2-0.3-0.4-0.3-0.6c0,0.2,0,0.8,0,1.1v2.2h-1v-4.9h0.9l1.7,2.6
			c0.1,0.2,0.3,0.4,0.3,0.6c0-0.2,0-0.8,0-1.1v-2.1h1v4.9H243.9z"/>
		<path fill="#A9B8C6" d="M246.7,49.4h-1.5v-4.9h1.5c1.4,0,2.4,0.7,2.4,2.5C249.3,48.7,248,49.4,246.7,49.4z M246.8,45.5h-0.5v3h0.5
			c1,0,1.5-0.6,1.5-1.5C248.2,46,247.8,45.5,246.8,45.5z"/>
		<path fill="#A9B8C6" d="M249.6,49.4v-4.9h1v4.9H249.6z"/>
		<path fill="#A9B8C6" d="M254.3,49.4l-1.8-2.7c-0.1-0.2-0.3-0.4-0.3-0.6c0,0.2,0,0.8,0,1.1v2.2h-1v-4.9h0.9l1.7,2.6
			c0.1,0.2,0.3,0.4,0.3,0.6c0-0.2,0-0.8,0-1.1v-2.1h1v4.9H254.3z"/>
		<path fill="#A9B8C6" d="M257.6,49.5c-1.3,0-2.1-1-2.1-2.5c0-1.5,0.9-2.5,2.2-2.5c1,0,1.5,0.5,1.9,1.2l-0.9,0.4
			c-0.2-0.4-0.4-0.6-0.9-0.6c-0.7,0-1.2,0.6-1.2,1.6c0,0.9,0.4,1.6,1.2,1.6c0.7,0,0.9-0.3,1-0.7h-0.8v-0.9h1.8v0.6
			C259.6,48.8,258.8,49.5,257.6,49.5z"/>
	</g>
</g>
<g>
	<g>
		<g>
			<rect x="90.3" y="16.4" fill="none" width="3" height="1.7"/>
		</g>
		<g>
			<path fill="none" d="M84.8,17.4c-2.8,0-5.1,2.3-5.1,5.1c0,2.8,2.3,5.1,5.1,5.1c2.8,0,5.1-2.3,5.1-5.1
				C89.9,19.7,87.7,17.4,84.8,17.4z M84.8,26.2c-2,0-3.7-1.7-3.7-3.7s1.7-3.7,3.7-3.7s3.7,1.7,3.7,3.7S86.9,26.2,84.8,26.2z"/>
		</g>
		<g>
			<path fill="#A9B8C6" d="M84.8,18.8c-2,0-3.7,1.7-3.7,3.7s1.7,3.7,3.7,3.7s3.7-1.7,3.7-3.7S86.9,18.8,84.8,18.8z"/>
		</g>
		<g>
			<path fill="#A9B8C6" d="M94.6,15.1h-4.2v-0.5c0-0.9-0.8-1.7-1.7-1.7h-2.3c-0.9,0-1.7,0.8-1.7,1.7v0.5h-7v-0.7h-2.3v0.7h-0.5
				c-0.8,0-1.4,0.6-1.4,1.4v11.3c0,0.8,0.6,1.4,1.4,1.4h19.6c0.8,0,1.4-0.6,1.4-1.4V16.5C96,15.7,95.4,15.1,94.6,15.1z M84.8,27.6
				c-2.8,0-5.1-2.3-5.1-5.1c0-2.8,2.3-5.1,5.1-5.1c2.8,0,5.1,2.3,5.1,5.1C89.9,25.3,87.7,27.6,84.8,27.6z M93.3,18.1h-3v-1.7h3V18.1
				z"/>
		</g>
	</g>
	<g>
		<g>
			<path fill="#A9B8C6" d="M84.8,40.9C73.9,40.9,65,32,65,21.1S73.9,1.2,84.8,1.2s19.8,8.9,19.8,19.8S95.8,40.9,84.8,40.9z
				 M84.8,3.3C75,3.3,67,11.2,67,21.1s8,17.8,17.8,17.8s17.8-8,17.8-17.8S94.7,3.3,84.8,3.3z"/>
		</g>
	</g>
	<g>
		<path fill="#A9B8C6" d="M70.3,48.6v-1.8c0-0.3,0-0.9,0-1.1c-0.1,0.2-0.2,0.5-0.3,0.8l-1,2.2l-1-2.2c-0.1-0.3-0.3-0.6-0.3-0.8
			c0,0.2,0,0.8,0,1.1v1.8h-1v-4.9h0.9l1,2.2c0.1,0.3,0.3,0.6,0.3,0.8c0.1-0.2,0.2-0.5,0.3-0.8l1-2.2h1v4.9H70.3z"/>
		<path fill="#A9B8C6" d="M73.8,48.7c-1.2,0-2-0.8-2-2.2v-2.8h1v2.7c0,0.8,0.4,1.3,1,1.3c0.6,0,1-0.5,1-1.3v-2.8h1v2.7
			C75.7,47.8,75,48.7,73.8,48.7z"/>
		<path fill="#A9B8C6" d="M76.3,48.6v-4.9h1v3.9h2.5v1H76.3z"/>
		<path fill="#A9B8C6" d="M81.1,44.6v3.9h-1v-3.9h-1.4v-1h3.8v1H81.1z"/>
		<path fill="#A9B8C6" d="M82.8,48.6v-4.9h1v4.9H82.8z"/>
		<path fill="#A9B8C6" d="M88,48.6v-1.8c0-0.3,0-0.9,0-1.1c-0.1,0.2-0.2,0.5-0.3,0.8l-1,2.2l-1-2.2c-0.1-0.3-0.3-0.6-0.3-0.8
			c0,0.2,0,0.8,0,1.1v1.8h-1v-4.9h0.9l1,2.2c0.1,0.3,0.3,0.6,0.3,0.8c0.1-0.2,0.2-0.5,0.3-0.8l1-2.2h1v4.9H88z"/>
		<path fill="#A9B8C6" d="M89.5,48.6v-4.9h3.4v1h-2.4v0.8h1.4v1h-1.4v1.2H93v1H89.5z"/>
		<path fill="#A9B8C6" d="M94.8,48.6h-1.5v-4.9h1.5c1.4,0,2.4,0.7,2.4,2.5C97.4,47.9,96.1,48.6,94.8,48.6z M94.9,44.6h-0.5v3h0.5
			c1,0,1.5-0.6,1.5-1.5C96.3,45.1,95.9,44.6,94.9,44.6z"/>
		<path fill="#A9B8C6" d="M97.7,48.6v-4.9h1v4.9H97.7z"/>
		<path fill="#A9B8C6" d="M102.6,48.6l-0.4-1.1h-1.8l-0.4,1.1h-1l1.9-4.9h1l1.9,4.9H102.6z M101.5,45.7c-0.1-0.3-0.2-0.6-0.2-0.8
			c0,0.2-0.1,0.5-0.2,0.8l-0.3,0.9h1.1L101.5,45.7z"/>
	</g>
</g>
<g>
	<g>
		<path fill="#A9B8C6" d="M290.8,74.6c-0.1,1.3-0.4,2.6-1.1,3.7c-0.4,0.6-0.5,1.3-0.9,2c-0.2,0.4-0.6,0.8-0.9,1.1
			c-0.9,0.8-1.7,1.7-2.7,2.4c-0.7,0.5-1.6,0.8-2.4,0.8c-1.2,0-2.6,0.4-3.7-0.5c0,0-0.1,0-0.2,0c-1.1,0.1-2.2,0.3-3.3,0.4
			c-0.6,0.1-1.4,0.1-1.9-0.1c-2.4-1.2-4.6-2.6-5.1-5.5c0-0.2-0.1-0.4-0.2-0.6c-0.7-1-1-2.2-0.9-3.5c0.3-2.4,0-4.9,1.6-6.9
			c0.1-0.2,0.2-0.4,0.4-0.5c1.5-1.2,2.7-2.7,4-4.1c1.5-1.5,3-1.7,5-0.8c0.3,0.1,0.8,0.1,1-0.1c1.3-0.9,2.6-0.9,4-0.1
			c0.4,0.3,0.8,0.5,1.1,0.9c1.4,1.5,2.8,2.9,4,4.5c0.5,0.7,0.8,1.6,1.1,2.5C290.2,71.7,290.5,73.2,290.8,74.6z M269.7,70.9
			c2.3-0.6,3.5,0.8,4.3,2.4c0.1,0.2,0,0.6-0.1,0.9c-0.3-0.1-0.6-0.2-0.8-0.4c-0.5-0.5-0.9-1.2-1.4-1.7c-0.6-0.6-1.8-0.4-2.1,0.3
			c-0.6,1.4-0.5,2.9,0,4.4c0.2,0.6,0.6,0.5,1.1,0.3c0.5-0.2,0.8-0.4,0.5-0.9c-0.2-0.5-0.5-1-0.6-1.5c-0.1-0.2,0.1-0.6,0.1-0.9
			c0.3,0.1,0.6,0.2,0.8,0.4c0.3,0.4,0.4,0.8,0.6,1.2c0.6,1.6,0.5,2-1.1,2.7c-0.6,0.3-0.7,0.6-0.5,1.1c0.7,2,2.5,2.8,4.2,3.6
			c0.3,0.1,0.7-0.1,1.1-0.1c-0.1-1,0.2-2.1-1.1-2.4c-0.1,0-0.3-0.5-0.3-0.6c0.2-0.2,0.5-0.5,0.7-0.4c0.6,0.2,0.9,0,1.3-0.4
			c0.1-0.1,0.6-0.2,0.7-0.1c0.1,0.1,0.2,0.6,0.1,0.7c-1,1,0,2.1-0.3,3.1c1.2,0.1,1.7-0.3,1.7-1.3c0-1,0-2.1,0-3.1
			c0-0.5-0.2-0.8-0.7-1c-1.2-0.8-2.2-0.9-3.1,0.3c-0.1,0.1-0.1,0.2-0.2,0.2c-0.2,0-0.4,0-0.6-0.2c-0.1-0.1-0.1-0.4-0.1-0.5
			c0.1-0.3,0.4-0.5,0.6-0.7c0.9-0.5,1.2-1.2,1.1-2.2c-0.1-0.5-0.3-1.5,0.6-1.5c0.8,0,0.4,0.9,0.5,1.4c0,1.4,0.4,1.8,1.8,2.1
			c0-2.2,0-4.4,0-6.7c-0.1-0.1-0.1-0.1-0.2-0.2c-0.7,0.5-1.3,1-2,1.4c-0.3,0.2-0.6,0.2-0.9,0.3c0-0.3,0-0.8,0.2-1
			c0.5-0.5,1-1,1.6-1.2c1.4-0.4,1.7-1.2,1.5-2.5c0-0.1,0-0.2,0-0.4c0.2-0.9-0.3-1.4-1-1.8c-0.8-0.4-1.7-0.6-2.4,0.1
			c-0.7,0.7-1.4,1.4-2,2.2c-0.5,0.6-0.2,1.2,0.4,1.7c0.4-0.4,0.8-0.7,1.2-1.1c0.4-0.4,0.7-0.8,1.1-1.1c0.2-0.1,0.6-0.1,0.9-0.1
			c0,0.3,0,0.7-0.1,0.8c-0.5,0.6-1,1.1-1.6,1.6c-1.5,1.4-2,1.3-3-0.5c0,0-0.1-0.1-0.2-0.1C270.8,68.5,270.1,69.5,269.7,70.9z
			 M287.8,78.4c-0.4-0.2-0.9-0.3-1.2-0.6c-0.3-0.3-0.8-0.9-0.7-1.2c0.2-0.8,0.6-1.7,1-2.4c0.1-0.2,0.5-0.2,0.7-0.3
			c0.1,0.3,0.2,0.6,0.1,0.9c-0.2,0.5-0.5,1-0.7,1.5c-0.2,0.6,0.2,0.8,0.6,1c0.5,0.2,0.7,0,0.9-0.4c0.4-1.3,0.5-2.6,0.1-3.9
			c-0.3-1.1-1.4-1.4-2.2-0.6c-0.5,0.5-0.8,1.1-1.2,1.6c-0.2,0.2-0.5,0.3-0.8,0.5c0-0.3-0.2-0.8-0.1-1c0.8-1.4,1.7-2.7,3.7-2.5
			c-0.1-1.3-0.8-2.1-1.5-2.8c-0.4-0.4-0.6-0.5-1.1-0.1c-1.4,1.1-3.6,0.3-4.1-1.4c-0.1-0.2,0-0.6,0.1-0.6c0.2-0.1,0.5-0.1,0.7,0.1
			c0.2,0.2,0.3,0.5,0.5,0.7c0.8,0.9,1.4,0.9,2.3,0.1c-0.6-1.1-1.4-2.2-2.6-2.8c-1.2-0.7-2.7,0.2-2.7,1.5c0,1.9,0,3.7,0,5.6
			c0,0.2,0.1,0.5,0.1,0.7c1.3-0.2,1.1-1.1,1.2-2c0-0.2,0.3-0.5,0.4-0.7c0.2,0.2,0.6,0.5,0.6,0.7c-0.1,1.1,0.2,1.9,1.1,2.4
			c0.2,0.1,0.1,0.6,0.2,0.8c-0.3,0-0.7,0.1-0.9-0.1c-0.8-1-1.5-0.5-2.3-0.1c-0.8,0.4-0.3,1.1-0.4,1.7c0,0.2,0.5,0.4,0.8,0.5
			c0.6,0.3,1.2,0.5,1.8,0.8c0.2,0.1,0.2,0.5,0.3,0.8c-0.3,0-0.6,0.1-0.9,0c-0.6-0.2-1.2-0.5-2-0.8c0,2.2,0,4.2,0,6.1
			c0,0.3,0.5,0.8,0.7,0.8c1,0.1,2.1,0,3.2-0.1c0.1,0,0.3-0.2,0.4-0.2c0.6-0.4,0.6-0.9,0.1-1.4c-0.6-0.6-1.2-0.9-2-0.8
			c-0.2,0-0.5-0.3-0.7-0.4c0.2-0.2,0.4-0.5,0.7-0.6c0.3-0.1,0.7-0.1,1.1-0.1c0-0.2,0-0.4,0.1-0.5c0.2-0.3,0.5-0.7,0.7-0.7
			c0.6,0.1,0.5,0.6,0.3,1c-0.1,0.4,0.7,1.7,1.1,1.9c0.1,0,0.3,0,0.4-0.1C286.7,80.2,287.5,79.5,287.8,78.4z"/>
		<g>
			<path fill="#A9B8C6" d="M279.2,53.5c10.9,0,19.8,8.9,19.8,19.8s-8.9,19.8-19.8,19.8s-19.8-8.9-19.8-19.8S268.2,53.5,279.2,53.5z
				 M279.2,91.1c9.8,0,17.8-8,17.8-17.8s-8-17.8-17.8-17.8s-17.8,8-17.8,17.8S269.3,91.1,279.2,91.1z"/>
		</g>
	</g>
	<g>
		<path fill="#A9B8C6" d="M265.4,101.1c-0.8,0-1.5-0.3-1.9-0.9l0.7-0.6c0.3,0.4,0.8,0.6,1.3,0.6c0.6,0,0.9-0.2,0.9-0.5
			c0-0.3-0.2-0.5-1.1-0.7c-0.9-0.2-1.5-0.5-1.5-1.5c0-0.9,0.8-1.4,1.8-1.4c0.8,0,1.3,0.3,1.8,0.8l-0.7,0.7c-0.3-0.3-0.7-0.5-1.1-0.5
			c-0.5,0-0.7,0.2-0.7,0.4c0,0.3,0.2,0.4,1,0.6c0.8,0.2,1.6,0.4,1.6,1.5C267.4,100.4,266.8,101.1,265.4,101.1z"/>
		<path fill="#A9B8C6" d="M269.6,97v3.9h-1V97h-1.4v-1h3.8v1H269.6z"/>
		<path fill="#A9B8C6" d="M274.1,101l-0.9-1.8h-1v1.8h-1v-4.9h2.3c0.9,0,1.7,0.5,1.7,1.6c0,0.7-0.3,1.2-0.9,1.4l0.9,1.9H274.1z
			 M273.5,97h-1.3v1.3h1.3c0.5,0,0.7-0.2,0.7-0.6C274.2,97.2,273.9,97,273.5,97z"/>
		<path fill="#A9B8C6" d="M278.7,101l-0.4-1.1h-1.8l-0.4,1.1h-1.1l1.9-4.9h1l1.9,4.9H278.7z M277.7,98.1c-0.1-0.3-0.2-0.6-0.2-0.8
			c0,0.2-0.1,0.5-0.2,0.8l-0.3,0.9h1.1L277.7,98.1z"/>
		<path fill="#A9B8C6" d="M281.4,97v3.9h-1V97H279v-1h3.8v1H281.4z"/>
		<path fill="#A9B8C6" d="M283,101v-4.9h3.4v1H284v0.8h1.4v1H284v1.2h2.5v1H283z"/>
		<path fill="#A9B8C6" d="M288.5,101.1c-1.3,0-2.1-1-2.1-2.5c0-1.5,0.9-2.5,2.2-2.5c1,0,1.5,0.5,1.9,1.2l-0.9,0.4
			c-0.2-0.4-0.4-0.6-0.9-0.6c-0.7,0-1.2,0.6-1.2,1.6c0,0.9,0.4,1.6,1.2,1.6c0.7,0,0.9-0.3,1-0.7h-0.8v-0.9h1.8v0.6
			C290.5,100.3,289.7,101.1,288.5,101.1z"/>
		<path fill="#A9B8C6" d="M292.9,99v1.9h-1v-1.9l-1.9-3h1.1l0.7,1.2c0.2,0.3,0.4,0.8,0.5,1c0.1-0.2,0.4-0.7,0.5-1l0.7-1.2h1.1
			L292.9,99z"/>
	</g>
</g>
<g>
	<g>
		<g>
			<g>
				<polygon fill="#A9B8C6" points="316.9,133.9 314.9,133.9 314.9,132.8 315.7,132.8 315.7,112.6 300.1,112.6 300.1,132.8 
					305.7,132.8 305.7,133.9 299,133.9 299,111.5 316.9,111.5 				"/>
			</g>
			<g>
				<path fill="#A9B8C6" d="M306.7,127.2c0,0-0.2-2,0.7-2.4c0.8-0.4,1.7,0,1.7,0s0.7-0.9,1.5-0.8c0.8,0.2,1.4,0.8,1.4,0.8
					s1.1-0.3,1.4,0.1c0.3,0.5,0.9,1.5,0.7,2.3c0,0,1.4,0.3,0.6,1.9l-0.4,0.7c0,0,0,2.3-0.6,2.4l2,4.4H314l-0.5,1.6l-2.4-4.9h-1.3
					l-1.2,3.4l-0.8-1.5l-1.2,0.4l0.8-3.3c0,0-1.6-1.9-1.1-2.5C306.3,129.8,304.9,127.4,306.7,127.2z"/>
			</g>
			<g>
				<line fill="#A9B8C6" x1="302.6" y1="115.9" x2="312.9" y2="115.9"/>
				<rect x="302.6" y="115.5" fill="#A9B8C6" width="10.3" height="0.8"/>
			</g>
			<g>
				<line fill="#A9B8C6" x1="302.6" y1="118.4" x2="312.9" y2="118.4"/>
				<rect x="302.6" y="118.1" fill="#A9B8C6" width="10.3" height="0.8"/>
			</g>
			<g>
				<line fill="#A9B8C6" x1="302.6" y1="121" x2="312.9" y2="121"/>
				<rect x="302.6" y="120.6" fill="#A9B8C6" width="10.3" height="0.8"/>
			</g>
		</g>
		<g>
			<path fill="#A9B8C6" d="M307.9,105.1c10.9,0,19.8,8.9,19.8,19.8s-8.9,19.8-19.8,19.8s-19.8-8.9-19.8-19.8S297,105.1,307.9,105.1z
				 M307.9,142.7c9.8,0,17.8-8,17.8-17.8s-8-17.8-17.8-17.8s-17.8,8-17.8,17.8S298.1,142.7,307.9,142.7z"/>
		</g>
	</g>
	<g>
		<path fill="#A9B8C6" d="M296.6,150.8h-1.1v1.7h-1v-4.9h2.1c0.9,0,1.7,0.5,1.7,1.6C298.4,150.3,297.6,150.8,296.6,150.8z
			 M296.7,148.6h-1.1v1.3h1.1c0.5,0,0.7-0.2,0.7-0.6C297.4,148.8,297.1,148.6,296.7,148.6z"/>
		<path fill="#A9B8C6" d="M300.5,152.6c-1.3,0-2.1-1-2.1-2.5c0-1.5,0.8-2.5,2.1-2.5s2.1,1,2.1,2.5
			C302.6,151.6,301.8,152.6,300.5,152.6z M300.5,148.6c-0.8,0-1.1,0.7-1.1,1.6c0,0.9,0.3,1.6,1.1,1.6c0.8,0,1.1-0.7,1.1-1.6
			C301.6,149.2,301.3,148.6,300.5,148.6z"/>
		<path fill="#A9B8C6" d="M302.9,152.6v-4.9h1v3.9h2.5v1H302.9z"/>
		<path fill="#A9B8C6" d="M306.6,152.6v-4.9h1v4.9H306.6z"/>
		<path fill="#A9B8C6" d="M311.1,149.1c-0.2-0.3-0.5-0.5-0.9-0.5c-0.7,0-1.2,0.6-1.2,1.6c0,0.9,0.4,1.6,1.2,1.6c0.4,0,0.7-0.2,1-0.6
			l0.8,0.5c-0.3,0.7-0.9,1.1-1.8,1.1c-1.3,0-2.1-1-2.1-2.5c0-1.5,0.9-2.5,2.2-2.5c0.9,0,1.5,0.4,1.8,1.1L311.1,149.1z"/>
		<path fill="#A9B8C6" d="M312.3,152.6v-4.9h1v4.9H312.3z"/>
		<path fill="#A9B8C6" d="M313.9,152.6v-4.9h3.4v1h-2.4v0.8h1.4v1h-1.4v1.2h2.5v1H313.9z"/>
		<path fill="#A9B8C6" d="M319.3,152.6c-0.8,0-1.5-0.3-1.9-0.9l0.7-0.6c0.3,0.4,0.8,0.6,1.3,0.6c0.6,0,0.9-0.2,0.9-0.5
			c0-0.3-0.2-0.5-1.1-0.7c-0.9-0.2-1.5-0.5-1.5-1.5c0-0.9,0.8-1.4,1.8-1.4c0.8,0,1.3,0.3,1.8,0.8l-0.7,0.7c-0.3-0.3-0.7-0.5-1.1-0.5
			c-0.5,0-0.7,0.2-0.7,0.4c0,0.3,0.2,0.4,1,0.6c0.8,0.2,1.6,0.4,1.6,1.5C321.3,152,320.7,152.6,319.3,152.6z"/>
	</g>
</g>
<g>
	<g>
		<g>
			<g>
				<path fill="#A9B8C6" d="M277.3,180.2h-0.2c-0.4,0-0.7-0.3-0.7-0.7v-6.3c0-0.4,0.3-0.7,0.7-0.7h0.2c0.4,0,0.7,0.3,0.7,0.7v6.3
					C278,179.9,277.7,180.2,277.3,180.2z"/>
			</g>
			<g>
				<path fill="#A9B8C6" d="M274.9,180.2h-0.2c-0.4,0-0.7-0.3-0.7-0.7v-5.1c0-0.4,0.3-0.7,0.7-0.7h0.2c0.4,0,0.7,0.3,0.7,0.7v5.1
					C275.6,179.9,275.3,180.2,274.9,180.2z"/>
			</g>
			<g>
				<path fill="#A9B8C6" d="M269.7,180.2h-0.2c-0.4,0-0.7-0.3-0.7-0.7v-2.8c0-0.4,0.3-0.7,0.7-0.7h0.2c0.4,0,0.7,0.3,0.7,0.7v2.8
					C270.4,179.9,270.1,180.2,269.7,180.2z"/>
			</g>
			<g>
				<path fill="#A9B8C6" d="M272.2,180.2H272c-0.4,0-0.7-0.3-0.7-0.7v-3.9c0-0.4,0.3-0.7,0.7-0.7h0.2c0.4,0,0.7,0.3,0.7,0.7v3.9
					C272.9,179.9,272.6,180.2,272.2,180.2z"/>
			</g>
			<g>
				<g>
					<rect x="267" y="168.1" fill="none" width="22" height="12.7"/>
				</g>
				<g>
					<path fill="#A9B8C6" d="M289.1,166.8h-22.3c-0.8,0-1.4,0.6-1.4,1.4v12.9c0,0.8,0.6,1.4,1.4,1.4h7.8v1.4h-2.5
						c-0.5,0-0.8,0.4-0.8,0.8v0.5c0,0.5,0.4,0.8,0.8,0.8h2.5v0h6.8v0h2.6c0.5,0,0.8-0.4,0.8-0.8v-0.5c0-0.5-0.4-0.8-0.8-0.8h-2.6
						v-1.4h7.7c0.8,0,1.4-0.6,1.4-1.4v-12.9C290.5,167.4,289.9,166.8,289.1,166.8z M289,180.7h-22v-12.7h22V180.7z"/>
				</g>
			</g>
			<g>
				<g>
					<path fill="#FFFFFF" d="M285.1,179c-1.8,0-3.3-1.5-3.3-3.3c0-1.8,1.5-3.3,3.3-3.3c1.8,0,3.3,1.5,3.3,3.3
						C288.4,177.5,286.9,179,285.1,179z M285.1,172.7c-1.7,0-3,1.4-3,3c0,1.7,1.4,3,3,3c1.7,0,3-1.4,3-3
						C288.2,174,286.8,172.7,285.1,172.7z"/>
				</g>
				<g>
					<path fill="#A9B8C6" d="M292.3,183.8l-4-5.2c0.7-0.8,1.2-1.8,1.2-3c0-2.4-2-4.4-4.4-4.4c-2.4,0-4.4,2-4.4,4.4
						c0,2.4,2,4.4,4.4,4.4c0.7,0,1.3-0.2,1.9-0.4l4,5.3c0.3,0.4,0.8,0.4,1.2,0.1C292.5,184.7,292.6,184.2,292.3,183.8z M282,175.7
						c0-1.7,1.4-3.1,3.1-3.1s3.1,1.4,3.1,3.1c0,1.7-1.4,3.1-3.1,3.1S282,177.4,282,175.7z"/>
					<path fill="#FFFFFF" d="M291.7,185.3L291.7,185.3c-0.3,0-0.6-0.1-0.8-0.4l-4-5.2c-0.6,0.3-1.2,0.4-1.9,0.4
						c-2.5,0-4.5-2-4.5-4.5c0-2.5,2-4.5,4.5-4.5s4.5,2,4.5,4.5c0,1.1-0.4,2.2-1.1,3l4,5.2c0.2,0.2,0.2,0.4,0.2,0.7
						c0,0.3-0.2,0.5-0.4,0.6C292.1,185.2,291.9,185.3,291.7,185.3z M287,179.4l4.1,5.3c0.1,0.2,0.3,0.3,0.6,0.3l0,0
						c0.2,0,0.3-0.1,0.4-0.1c0.1-0.1,0.2-0.3,0.3-0.5c0-0.2,0-0.4-0.1-0.5l-4.1-5.3l0.1-0.1c0.7-0.8,1.1-1.8,1.1-2.9
						c0-2.4-1.9-4.3-4.3-4.3s-4.3,1.9-4.3,4.3c0,2.4,1.9,4.3,4.3,4.3C285.7,179.9,286.3,179.8,287,179.4L287,179.4z M285.1,179
						c-1.8,0-3.3-1.5-3.3-3.3c0-1.8,1.5-3.3,3.3-3.3c1.8,0,3.3,1.5,3.3,3.3C288.4,177.5,286.9,179,285.1,179z M285.1,172.7
						c-1.7,0-3,1.4-3,3c0,1.7,1.4,3,3,3c1.7,0,3-1.4,3-3C288.2,174,286.8,172.7,285.1,172.7z"/>
				</g>
			</g>
		</g>
		<g>
			<path fill="#A9B8C6" d="M279,156.6c10.9,0,19.8,8.9,19.8,19.8s-8.9,19.8-19.8,19.8s-19.8-8.9-19.8-19.8S268.1,156.6,279,156.6z
				 M279,194.3c9.8,0,17.8-8,17.8-17.8s-8-17.8-17.8-17.8s-17.8,8-17.8,17.8S269.2,194.3,279,194.3z"/>
		</g>
	</g>
	<g>
		<path fill="#A9B8C6" d="M265.7,204.1l-0.4-1.1h-1.8l-0.4,1.1h-1l1.9-4.9h1l1.9,4.9H265.7z M264.7,201.2c-0.1-0.3-0.2-0.6-0.2-0.8
			c0,0.2-0.1,0.5-0.2,0.8l-0.3,0.9h1.1L264.7,201.2z"/>
		<path fill="#A9B8C6" d="M270.1,204.1l-1.8-2.7c-0.1-0.2-0.3-0.4-0.3-0.6c0,0.2,0,0.8,0,1.1v2.2h-1v-4.9h0.9l1.7,2.6
			c0.1,0.2,0.3,0.4,0.3,0.6c0-0.2,0-0.8,0-1.1v-2.1h1v4.9H270.1z"/>
		<path fill="#A9B8C6" d="M274.8,204.1l-0.4-1.1h-1.8l-0.4,1.1h-1l1.9-4.9h1l1.9,4.9H274.8z M273.8,201.2c-0.1-0.3-0.2-0.6-0.2-0.8
			c0,0.2-0.1,0.5-0.2,0.8l-0.3,0.9h1.1L273.8,201.2z"/>
		<path fill="#A9B8C6" d="M276.1,204.1v-4.9h1v3.9h2.5v1H276.1z"/>
		<path fill="#A9B8C6" d="M281.1,202.2v1.9h-1v-1.9l-1.9-3h1.1l0.7,1.2c0.2,0.3,0.4,0.8,0.5,1c0.1-0.2,0.4-0.7,0.5-1l0.7-1.2h1.1
			L281.1,202.2z"/>
		<path fill="#A9B8C6" d="M285.1,200.2v3.9h-1v-3.9h-1.4v-1h3.8v1H285.1z"/>
		<path fill="#A9B8C6" d="M286.8,204.1v-4.9h1v4.9H286.8z"/>
		<path fill="#A9B8C6" d="M291.2,200.7c-0.2-0.3-0.5-0.5-0.9-0.5c-0.7,0-1.2,0.6-1.2,1.6c0,0.9,0.4,1.6,1.2,1.6c0.4,0,0.7-0.2,1-0.6
			l0.8,0.5c-0.3,0.7-0.9,1.1-1.8,1.1c-1.3,0-2.1-1-2.1-2.5c0-1.5,0.9-2.5,2.2-2.5c0.9,0,1.5,0.4,1.8,1.1L291.2,200.7z"/>
		<path fill="#A9B8C6" d="M294,204.2c-0.8,0-1.5-0.3-1.9-0.9l0.7-0.6c0.3,0.4,0.8,0.6,1.3,0.6c0.6,0,0.9-0.2,0.9-0.5
			c0-0.3-0.2-0.5-1.1-0.7c-0.9-0.2-1.5-0.5-1.5-1.5c0-0.9,0.8-1.4,1.8-1.4c0.8,0,1.3,0.3,1.8,0.8l-0.7,0.7c-0.3-0.3-0.7-0.5-1.1-0.5
			c-0.5,0-0.7,0.2-0.7,0.4c0,0.3,0.2,0.4,1,0.6c0.8,0.2,1.6,0.4,1.6,1.5C295.9,203.6,295.3,204.2,294,204.2z"/>
	</g>
</g>
<g>
	<g>
		<polygon fill="#A9B8C6" points="233.4,233.8 238.4,229.4 238.9,229.9 238.9,238.5 233.4,238.5 		"/>
		<polygon fill="#A9B8C6" points="240.5,231.4 240.5,238.5 245.9,238.5 245.9,230.8 242.9,233.5 		"/>
		<polygon fill="#A9B8C6" points="247.6,229.2 247.6,238.5 253,238.5 253,225 252.7,224.5 		"/>
		<polygon fill="#A9B8C6" points="233.4,231 238.4,226.5 242.8,231 252.2,221.9 253.9,223.7 255.6,217.5 249.6,219.1 251,220.6 
			242.8,228.1 238.5,223.9 232.1,229.7 		"/>
	</g>
	<g>
		<path fill="#A9B8C6" d="M243.9,208.2c10.9,0,19.8,8.9,19.8,19.8s-8.9,19.8-19.8,19.8s-19.8-8.9-19.8-19.8S232.9,208.2,243.9,208.2
			z M243.9,245.8c9.8,0,17.8-8,17.8-17.8s-8-17.8-17.8-17.8s-17.8,8-17.8,17.8S234,245.8,243.9,245.8z"/>
	</g>
</g>
<g>
	<path fill="#A9B8C6" d="M234,249.8v3.9h-1v-3.9h-1.4v-1h3.8v1H234z"/>
	<path fill="#A9B8C6" d="M238.5,253.7l-0.9-1.8h-1v1.8h-1v-4.9h2.3c0.9,0,1.7,0.5,1.7,1.6c0,0.7-0.3,1.2-0.9,1.4l0.9,1.9H238.5z
		 M237.9,249.8h-1.3v1.3h1.3c0.5,0,0.7-0.2,0.7-0.6C238.6,249.9,238.4,249.8,237.9,249.8z"/>
	<path fill="#A9B8C6" d="M240,253.7v-4.9h3.4v1h-2.4v0.8h1.4v1h-1.4v1.2h2.5v1H240z"/>
	<path fill="#A9B8C6" d="M246.9,253.7l-1.8-2.7c-0.1-0.2-0.3-0.4-0.3-0.6c0,0.2,0,0.8,0,1.1v2.2h-1v-4.9h0.9l1.7,2.6
		c0.1,0.2,0.3,0.4,0.3,0.6c0-0.2,0-0.8,0-1.1v-2.1h1v4.9H246.9z"/>
	<path fill="#A9B8C6" d="M249.8,253.7h-1.5v-4.9h1.5c1.4,0,2.4,0.7,2.4,2.5C252.3,253,251.1,253.7,249.8,253.7z M249.8,249.8h-0.5v3
		h0.5c1,0,1.5-0.6,1.5-1.5C251.3,250.3,250.9,249.8,249.8,249.8z"/>
	<path fill="#A9B8C6" d="M254.2,253.8c-0.8,0-1.5-0.3-1.9-0.9l0.7-0.6c0.3,0.4,0.8,0.6,1.3,0.6c0.6,0,0.9-0.2,0.9-0.5
		c0-0.3-0.2-0.5-1.1-0.7c-0.9-0.2-1.5-0.5-1.5-1.5c0-0.9,0.8-1.4,1.8-1.4c0.8,0,1.3,0.3,1.8,0.8l-0.7,0.7c-0.3-0.3-0.7-0.5-1.1-0.5
		c-0.5,0-0.7,0.2-0.7,0.4c0,0.3,0.2,0.4,1,0.6c0.8,0.2,1.6,0.4,1.6,1.5C256.1,253.1,255.5,253.8,254.2,253.8z"/>
</g>
<g>
	<g>
		<path fill="#A9B8C6" d="M27.6,129.9L15.9,117c0,0-1.6-2.3-3.7-0.9c0,0-1.3-1.3-2.2-0.6c-0.9,0.8,0.5,2.1,0.5,2.1s-1.4,1.5,0.6,3.5
			S23.8,133,23.8,133s1.7,0.9,3.1,0S27.6,129.9,27.6,129.9z M20.9,127.7c-0.3,0.3-0.8,0.3-1.1,0l-8.1-8c-0.3-0.3-0.3-0.8,0-1.1
			l1.2-1.2c0.3-0.3,0.8-0.3,1.1,0l8.1,8c0.3,0.3,0.3,0.8,0,1.1L20.9,127.7z M26,131.5L26,131.5c-0.5,0.5-1.2,0.5-1.6,0.1l-1.8-1.8
			c-0.4-0.4-0.4-1.2,0-1.6l0.1-0.1c0.4-0.4,1.2-0.4,1.6,0l1.8,1.8C26.4,130.4,26.4,131.1,26,131.5z"/>
	</g>
	<g>
		<path fill="#A9B8C6" d="M27.4,134.4l2.3,1.3c0,0,0.7,0.2,0.3-0.5c-0.3-0.6-1.3-2.3-1.3-2.3S28.9,134.2,27.4,134.4z"/>
	</g>
	<g>
		<path fill="#A9B8C6" d="M10.1,123.7l5.8,3.8c0,0,2.5,1.4,0.6-0.4c-1.9-1.8-4.9-4.1-4.9-4.1l0.9-0.5l-1.4-1.4l-1.1,1.5
			C10,122.6,9.5,123.3,10.1,123.7z"/>
	</g>
</g>
<g>
	<g>
		<g>
			<path fill="none" d="M44.2,79.7C44.2,79.7,44.1,79.7,44.2,79.7c-0.3-0.3-0.8-0.2-1,0.1l-0.4,0.5c0,0.1-0.1,0.2-0.2,0.2l-0.2,0.2
				l-0.4,0.5c-0.3,0.3-0.2,0.8,0.1,1c0,0,0,0,0,0c0.3,0.3,0.8,0.2,1-0.1l1.2-1.4C44.5,80.5,44.5,80,44.2,79.7z"/>
		</g>
		<g>
			<path fill="none" d="M42.2,80c0.1-0.1,0.1-0.2,0.1-0.4c0-0.2-0.1-0.4-0.2-0.5c-0.1-0.1-0.3-0.2-0.5-0.2c-0.2,0-0.4,0.1-0.5,0.2
				l-0.5,0.5c0,0,0,0,0,0l-0.4,0.4c0,0,0,0,0,0l0,0c-0.3,0.3-0.3,0.8,0,1c0.3,0.3,0.8,0.3,1,0l0.8-0.8L42.2,80z"/>
		</g>
		<g>
			<path fill="none" d="M45.8,81.8c0-0.2-0.1-0.4-0.3-0.5c-0.1-0.1-0.3-0.2-0.5-0.2c-0.2,0-0.4,0.1-0.6,0.3l-0.6,0.8
				c-0.1,0.1-0.2,0.3-0.2,0.5c0,0.2,0.1,0.4,0.3,0.5c0.3,0.3,0.8,0.2,1-0.1l0.6-0.8C45.7,82.2,45.8,82,45.8,81.8z"/>
		</g>
		<g>
			<path fill="none" d="M37.2,75.7c0.6-1.3,1.3-3,1.4-5.1l-1.9-1c-0.5,1.6-1.7,5.8-2.5,7.5l1.9,0.6C36.4,77,36.8,76.3,37.2,75.7z"/>
		</g>
		<g>
			<path fill="none" d="M40.1,79.2c0.3-0.3,0.3-0.8,0-1C40,78,39.8,78,39.6,78c-0.2,0-0.4,0.1-0.5,0.2l-0.4,0.4
				c-0.3,0.3-0.3,0.8,0,1c0.3,0.3,0.8,0.3,1,0L40.1,79.2z"/>
		</g>
		<g>
			<path fill="none" d="M55.4,69.6l-1.8,1.2c0.2,0.8,0.8,3,1.9,5.2c0.6,1,1.1,1.7,1.4,2l2.1-1L55.4,69.6z"/>
		</g>
		<g>
			<path fill="none" d="M46.4,81.8c0,0.3-0.1,0.7-0.3,1l-0.4,0.5c0.5,0.4,1.4,0.8,2,0.5c0,0,0,0,0.1,0c0,0,0,0,0-0.1
				c0-0.1,0-0.5-0.8-1.4C46.7,82.1,46.5,81.9,46.4,81.8z"/>
		</g>
		<g>
			<path fill="none" d="M53.8,79.7L47.4,74h-1c-0.3,0.6-1.3,2.2-2.7,2.2c-0.4,0-0.7-0.1-1-0.3c0,0-0.1,0-0.1-0.1c0,0-0.4-0.4-0.4-1
				c0-0.5,0.2-1,0.7-1.5l0.4-1.5c0,0,0-0.1,0.1-0.1c0,0,0.3-0.5,0.8-0.9c-1.3,0.1-3.1,0.3-4.5,0.4c0,0.8-0.2,2.3-1.4,4.7
				c-0.5,1-0.9,1.8-1.3,2.2c0.3,0.1,0.8,0.1,1.4,0.1l0,0l0.3-0.3c0.2-0.3,0.6-0.4,1-0.4c0.3,0,0.7,0.1,0.9,0.4
				c0.2,0.2,0.3,0.5,0.4,0.7c0.2-0.1,0.4-0.2,0.7-0.2c0.3,0,0.7,0.1,0.9,0.4c0.2,0.2,0.3,0.4,0.4,0.6c0.2-0.2,0.5-0.3,0.8-0.3
				c0.3,0,0.6,0.1,0.8,0.3c0,0,0,0,0,0c0.4,0.3,0.5,0.8,0.4,1.3c0,0,0,0,0.1,0c0.3,0,0.6,0.1,0.8,0.3c0.1-0.1,0.3-0.1,0.4,0
				c0.4,0.4,0.7,0.7,1,1c1,0.9,2,1.5,2.3,1.2c0.2-0.2,0.3-0.3,0.3-0.4c0-0.4-0.4-0.9-1-1.5c-1.1-0.9-2.2-1.9-2.7-2.4
				c-0.1-0.1-0.1-0.3,0-0.4c0.1-0.1,0.3-0.1,0.4,0c1.1,0.9,2,1.7,2.6,2.3c1.2,0.9,2.2,1.6,2.7,1.4c0-0.3-0.3-1.4-4.1-4.8l0,0
				c-0.1-0.1-0.1-0.1-0.2-0.2l0.4-0.4c5.1,4.6,5.6,4.2,5.9,4l0,0c0.1-0.1,0.1-0.5,0-0.8C53.9,79.8,53.8,79.7,53.8,79.7z"/>
		</g>
		<g>
			<path fill="none" d="M51.4,71.6c-0.5,0-0.9-0.1-0.9-0.1c-0.1,0-0.2-0.1-0.2-0.1c0,0-0.9-0.8-3-1.1c-0.1,0-0.2,0-0.4,0
				c-1.6,0-2.7,1.4-2.9,1.8l-0.4,1.5c0,0.1-0.1,0.1-0.1,0.2c-0.7,0.7-0.5,1.2-0.4,1.3c0.2,0.1,0.4,0.1,0.5,0.1c1,0,1.8-1.4,2.1-1.9
				c0.1-0.2,0.2-0.3,0.4-0.3h1.5c0.1,0,0.2,0,0.3,0.1l6.3,5.6l1.4-1.1c-0.2-0.4-0.5-0.7-0.7-1.1c-0.8-1.3-1.6-3-2-5.2
				C52.4,71.5,52,71.6,51.4,71.6z"/>
		</g>
		<g>
			<path fill="#A9B8C6" d="M55.7,68.3l-3.1,2.1l0,0.1c-0.2,0.1-0.6,0.2-1.2,0.2c-0.3,0-0.5,0-0.6,0c-0.3-0.3-1.4-0.9-3.4-1.2
				c-0.2,0-0.3,0-0.5,0c-0.5,0-0.9,0.1-1.3,0.2c-0.5,0-3.9,0.4-6.2,0.5c0-0.1-0.1-0.2-0.2-0.2l-2.7-1.4c-0.1-0.1-0.3-0.1-0.4,0
				c-0.1,0.1-0.2,0.2-0.3,0.3c-0.8,2.9-2.2,7.5-2.8,8.2c-0.1,0.1-0.1,0.3-0.1,0.4c0,0.1,0.1,0.3,0.3,0.3l2.7,0.9
				c0.2,0.1,0.8,0.4,1.7,0.4c0,0,0.1,0,0.1,0c0,0.4,0.1,0.8,0.4,1.1c0.2,0.2,0.6,0.4,0.9,0.4c0,0,0.1,0,0.1,0c0,0.4,0.1,0.8,0.4,1.1
				c0.2,0.2,0.6,0.4,0.9,0.4c0.2,0,0.4,0,0.6-0.1c0,0.3,0.2,0.7,0.5,0.9c0,0,0,0,0,0c0.2,0.2,0.5,0.3,0.8,0.3c0.2,0,0.4-0.1,0.6-0.1
				c0.1,0.3,0.2,0.6,0.4,0.8c0.2,0.2,0.5,0.3,0.9,0.3c0.3,0,0.6-0.1,0.8-0.3c0.4,0.3,1.1,0.8,1.9,0.8c0.3,0,0.5-0.1,0.8-0.2
				c0.2-0.1,0.3-0.2,0.4-0.5c0-0.1,0-0.3,0-0.5c0.6,0.4,1.3,0.5,1.7,0.3c0.3-0.2,0.5-0.5,0.5-0.8c0-0.2,0-0.3-0.1-0.5
				c0.8,0.4,1.5,0.6,1.9,0.3c0,0,0,0,0,0c0,0,0.1-0.2,0.1-0.4c0-0.4-0.3-0.9-0.7-1.5c0.9,0.7,1.5,0.9,1.8,0.9c0.3,0,0.5-0.1,0.6-0.3
				l0,0c0.4-0.3,0.3-1,0.2-1.5l1.5-1.2c0.2,0.3,0.4,0.5,0.4,0.5l0.2,0.3l3.5-1.7L55.7,68.3z M36.6,69.6l1.9,1
				c-0.1,2-0.8,3.8-1.4,5.1c-0.3,0.6-0.7,1.3-1.2,2l-1.9-0.6C34.9,75.4,36.2,71.2,36.6,69.6z M38.6,79.7c-0.3-0.3-0.3-0.7,0-1
				l0.4-0.4c0.1-0.1,0.3-0.2,0.5-0.2c0.2,0,0.4,0.1,0.5,0.2c0.3,0.3,0.3,0.7,0,1l-0.4,0.5C39.4,79.9,38.9,79.9,38.6,79.7z
				 M40.1,81.1c-0.3-0.3-0.3-0.7,0-1l0,0c0,0,0,0,0,0l0.4-0.4c0,0,0,0,0,0l0.5-0.5c0.1-0.1,0.3-0.2,0.5-0.2c0.2,0,0.4,0.1,0.5,0.2
				c0.1,0.1,0.2,0.3,0.2,0.5c0,0.1,0,0.3-0.1,0.4l-0.3,0.3l-0.8,0.8C40.9,81.4,40.4,81.4,40.1,81.1z M42,82.2
				C42,82.2,42,82.2,42,82.2c-0.3-0.3-0.4-0.7-0.1-1l0.4-0.5l0.2-0.2c0.1-0.1,0.1-0.1,0.2-0.2l0.4-0.5c0.2-0.3,0.7-0.3,1-0.1
				c0,0,0,0,0,0c0.3,0.3,0.3,0.7,0.1,1l-1.2,1.4C42.8,82.4,42.3,82.5,42,82.2z M43.9,83.2c-0.1-0.1-0.2-0.3-0.3-0.5
				c0-0.2,0-0.4,0.2-0.5l0.6-0.8c0.1-0.2,0.3-0.3,0.6-0.3c0.2,0,0.3,0.1,0.5,0.2c0.1,0.1,0.2,0.3,0.3,0.5c0,0.2,0,0.4-0.2,0.5
				L45,83.1C44.7,83.4,44.2,83.4,43.9,83.2z M47.7,83.6C47.7,83.6,47.7,83.7,47.7,83.6C47.7,83.7,47.7,83.7,47.7,83.6
				c-0.7,0.5-1.6,0-2.1-0.4l0.4-0.5c0.2-0.3,0.3-0.6,0.3-1c0.2,0.1,0.3,0.3,0.5,0.5C47.7,83.2,47.7,83.5,47.7,83.6z M53.9,80.6
				L53.9,80.6c-0.3,0.2-0.8,0.6-5.9-3.9l-0.4,0.4c0.1,0.1,0.1,0.1,0.2,0.2l0,0c3.8,3.3,4.1,4.5,4.1,4.8c-0.4,0.1-1.4-0.5-2.7-1.4
				c-0.6-0.6-1.5-1.4-2.6-2.3c-0.1-0.1-0.3-0.1-0.4,0c-0.1,0.1-0.1,0.3,0,0.4c0.5,0.5,1.6,1.5,2.7,2.4c0.6,0.6,1,1.2,1,1.5
				c0,0.1,0,0.2-0.3,0.4c-0.3,0.2-1.3-0.4-2.3-1.2c-0.3-0.3-0.6-0.6-1-1c-0.1-0.1-0.3-0.1-0.4,0c-0.2-0.2-0.5-0.3-0.8-0.3
				c0,0,0,0-0.1,0c0.1-0.5-0.1-1-0.4-1.3c0,0,0,0,0,0C44.3,79.1,44,79,43.7,79c-0.3,0-0.6,0.1-0.8,0.3c-0.1-0.2-0.2-0.4-0.4-0.6
				c-0.2-0.2-0.6-0.4-0.9-0.4c-0.2,0-0.5,0.1-0.7,0.2c0-0.3-0.2-0.5-0.4-0.7c-0.2-0.2-0.6-0.4-0.9-0.4c-0.4,0-0.7,0.2-1,0.4
				l-0.3,0.3l0,0c-0.6,0.1-1.1,0-1.4-0.1c0.3-0.5,0.8-1.2,1.3-2.2c1.2-2.3,1.4-3.9,1.4-4.7c1.4-0.1,3.2-0.2,4.5-0.4
				c-0.5,0.5-0.8,0.9-0.8,0.9c0,0,0,0.1-0.1,0.1l-0.4,1.5c-0.5,0.5-0.7,1-0.7,1.5c0,0.6,0.4,1,0.4,1c0,0,0.1,0,0.1,0.1
				c0.3,0.2,0.7,0.3,1,0.3c1.4,0,2.4-1.6,2.7-2.2h1l6.4,5.7c0,0,0.1,0.1,0.1,0.1C54,80.1,54,80.5,53.9,80.6z M55.5,77.7l-1.4,1.1
				l-6.3-5.6c-0.1-0.1-0.2-0.1-0.3-0.1H46c-0.2,0-0.3,0.1-0.4,0.3c-0.2,0.5-1.1,1.9-2.1,1.9c-0.2,0-0.3,0-0.5-0.1
				c-0.1-0.1-0.3-0.6,0.4-1.3c0.1-0.1,0.1-0.1,0.1-0.2l0.4-1.5c0.2-0.3,1.3-1.8,2.9-1.8c0.1,0,0.2,0,0.4,0c2.1,0.3,3,1.1,3,1.1
				c0.1,0.1,0.1,0.1,0.2,0.1c0,0,0.4,0.1,0.9,0.1c0.6,0,1-0.1,1.4-0.2c0.5,2.1,1.3,3.9,2,5.2C55,76.9,55.2,77.3,55.5,77.7z M55.5,76
				c-1.1-2.1-1.7-4.4-1.9-5.2l1.8-1.2l3.6,7.4l-2.1,1C56.6,77.7,56.1,77,55.5,76z"/>
		</g>
		<g>
			<path fill="#A9B8C6" d="M40.7,67.8c0.1,0.1,0.2,0.2,0.4,0.2c0.1,0,0.2,0,0.2-0.1c0.2-0.1,0.3-0.4,0.2-0.6l-1.2-2
				c-0.1-0.2-0.4-0.3-0.6-0.2c-0.2,0.1-0.3,0.4-0.2,0.6L40.7,67.8z"/>
		</g>
		<g>
			<path fill="#A9B8C6" d="M50.7,67.9c0.1,0,0.2,0.1,0.2,0.1c0.1,0,0.3-0.1,0.4-0.2l1.3-2c0.1-0.2,0.1-0.5-0.1-0.6
				c-0.2-0.1-0.5-0.1-0.6,0.1l-1.3,2C50.5,67.5,50.5,67.8,50.7,67.9z"/>
		</g>
		<g>
			<path fill="#A9B8C6" d="M43.9,66.6c0,0.2,0.2,0.4,0.4,0.4c0,0,0,0,0.1,0c0.2,0,0.4-0.3,0.4-0.5l-0.5-3.2c0-0.2-0.3-0.4-0.5-0.4
				c-0.2,0-0.4,0.3-0.4,0.5L43.9,66.6z"/>
		</g>
		<g>
			<path fill="#A9B8C6" d="M47.5,67.3C47.6,67.3,47.6,67.3,47.5,67.3c0.3,0,0.5-0.1,0.5-0.4l0.7-3.7c0-0.2-0.1-0.5-0.4-0.5
				c-0.2,0-0.5,0.1-0.5,0.4l-0.7,3.7C47.1,67,47.3,67.2,47.5,67.3z"/>
		</g>
	</g>
	<g>
		<g>
			<path fill="#A9B8C6" d="M46.6,93.4c-10.9,0-19.8-8.9-19.8-19.8s8.9-19.8,19.8-19.8s19.8,8.9,19.8,19.8S57.5,93.4,46.6,93.4z
				 M46.6,55.7c-9.8,0-17.8,8-17.8,17.8s8,17.8,17.8,17.8s17.8-8,17.8-17.8S56.4,55.7,46.6,55.7z"/>
		</g>
	</g>
</g>
<g>
	<path fill="#A9B8C6" d="M11.6,152.1h-1l-0.6-2.5c-0.1-0.3-0.1-0.7-0.2-0.8c0,0.2-0.1,0.6-0.2,0.8l-0.6,2.5H8.2l-1-4.9h1l0.4,2.4
		c0,0.2,0.1,0.6,0.1,0.8c0-0.2,0.1-0.6,0.2-0.8l0.6-2.4h0.9l0.6,2.4c0.1,0.2,0.1,0.6,0.2,0.8c0-0.2,0.1-0.6,0.1-0.8l0.4-2.4h1
		L11.6,152.1z"/>
	<path fill="#A9B8C6" d="M15.7,152.1l-0.9-1.8h-1v1.8h-1v-4.9h2.3c0.9,0,1.7,0.5,1.7,1.6c0,0.7-0.3,1.2-0.9,1.4l0.9,1.9H15.7z
		 M15.1,148.1h-1.3v1.3h1.3c0.5,0,0.7-0.2,0.7-0.6C15.8,148.3,15.6,148.1,15.1,148.1z"/>
	<path fill="#A9B8C6" d="M17.3,152.1v-4.9h1v4.9H17.3z"/>
	<path fill="#A9B8C6" d="M20.9,148.1v3.9h-1v-3.9h-1.4v-1h3.8v1H20.9z"/>
	<path fill="#A9B8C6" d="M22.7,152.1v-4.9h1v4.9H22.7z"/>
	<path fill="#A9B8C6" d="M27.4,152.1l-1.8-2.7c-0.1-0.2-0.3-0.4-0.3-0.6c0,0.2,0,0.8,0,1.1v2.2h-1v-4.9h0.9l1.7,2.6
		c0.1,0.2,0.3,0.4,0.3,0.6c0-0.2,0-0.8,0-1.1v-2.1h1v4.9H27.4z"/>
	<path fill="#A9B8C6" d="M30.7,152.2c-1.3,0-2.1-1-2.1-2.5c0-1.5,0.9-2.5,2.2-2.5c1,0,1.5,0.5,1.9,1.2l-0.9,0.4
		c-0.2-0.4-0.4-0.6-0.9-0.6c-0.7,0-1.2,0.6-1.2,1.6c0,0.9,0.4,1.6,1.2,1.6c0.7,0,0.9-0.3,1-0.7h-0.8v-0.9h1.8v0.6
		C32.6,151.4,31.8,152.2,30.7,152.2z"/>
</g>
<g>
	<path fill="#A9B8C6" d="M24.6,97c-0.2-0.3-0.5-0.5-0.9-0.5c-0.7,0-1.2,0.6-1.2,1.6c0,0.9,0.4,1.6,1.2,1.6c0.4,0,0.7-0.2,1-0.6
		l0.8,0.5c-0.3,0.7-0.9,1.1-1.8,1.1c-1.3,0-2.1-1-2.1-2.5c0-1.5,0.9-2.5,2.2-2.5c0.9,0,1.5,0.4,1.8,1.1L24.6,97z"/>
	<path fill="#A9B8C6" d="M27.5,100.6c-1.3,0-2.1-1-2.1-2.5c0-1.5,0.8-2.5,2.1-2.5s2.1,1,2.1,2.5C29.6,99.5,28.8,100.6,27.5,100.6z
		 M27.5,96.5c-0.8,0-1.1,0.7-1.1,1.6c0,0.9,0.3,1.6,1.1,1.6c0.8,0,1.1-0.7,1.1-1.6C28.6,97.2,28.3,96.5,27.5,96.5z"/>
	<path fill="#A9B8C6" d="M29.9,100.5v-4.9h1v3.9h2.5v1H29.9z"/>
	<path fill="#A9B8C6" d="M33.6,100.5v-4.9h1v3.9H37v1H33.6z"/>
	<path fill="#A9B8C6" d="M40.5,100.5l-0.4-1.1h-1.8l-0.4,1.1h-1l1.9-4.9h1l1.9,4.9H40.5z M39.4,97.6c-0.1-0.3-0.2-0.6-0.2-0.8
		c0,0.2-0.1,0.5-0.2,0.8l-0.3,0.9h1.1L39.4,97.6z"/>
	<path fill="#A9B8C6" d="M44,100.5h-2.2v-4.9H44c1,0,1.6,0.5,1.6,1.3c0,0.4-0.2,0.8-0.5,1c0.4,0.2,0.7,0.5,0.7,1.1
		C45.7,99.9,45,100.5,44,100.5z M44,96.5h-1.2v0.9H44c0.4,0,0.6-0.2,0.6-0.5C44.6,96.6,44.4,96.5,44,96.5z M44,98.3h-1.3v1.3H44
		c0.5,0,0.7-0.3,0.7-0.6C44.7,98.5,44.5,98.3,44,98.3z"/>
	<path fill="#A9B8C6" d="M47.8,100.6c-1.3,0-2.1-1-2.1-2.5c0-1.5,0.8-2.5,2.1-2.5s2.1,1,2.1,2.5C50,99.5,49.2,100.6,47.8,100.6z
		 M47.8,96.5c-0.8,0-1.1,0.7-1.1,1.6c0,0.9,0.3,1.6,1.1,1.6c0.8,0,1.1-0.7,1.1-1.6C49,97.2,48.6,96.5,47.8,96.5z"/>
	<path fill="#A9B8C6" d="M53.1,100.5l-0.9-1.8h-1v1.8h-1v-4.9h2.3c0.9,0,1.7,0.5,1.7,1.6c0,0.7-0.3,1.2-0.9,1.4l0.9,1.9H53.1z
		 M52.5,96.5h-1.3v1.3h1.3c0.5,0,0.7-0.2,0.7-0.6C53.2,96.7,53,96.5,52.5,96.5z"/>
	<path fill="#A9B8C6" d="M57.7,100.5l-0.4-1.1h-1.8l-0.4,1.1h-1l1.9-4.9h1l1.9,4.9H57.7z M56.7,97.6c-0.1-0.3-0.2-0.6-0.2-0.8
		c0,0.2-0.1,0.5-0.2,0.8l-0.3,0.9H57L56.7,97.6z"/>
	<path fill="#A9B8C6" d="M60.4,96.5v3.9h-1v-3.9H58v-1h3.8v1H60.4z"/>
	<path fill="#A9B8C6" d="M62.1,100.5v-4.9h1v4.9H62.1z"/>
	<path fill="#A9B8C6" d="M66.1,100.5h-1l-1.7-4.9h1.1l0.9,2.8c0.1,0.3,0.2,0.6,0.2,0.8c0-0.2,0.1-0.5,0.2-0.8l0.9-2.8h1.1
		L66.1,100.5z"/>
	<path fill="#A9B8C6" d="M68.1,100.5v-4.9h3.4v1H69v0.8h1.4v1H69v1.2h2.5v1H68.1z"/>
</g>
<g>
	<g>
		<g>
			<g>
				<path fill="#A9B8C6" d="M91.8,238.1c-0.1,0-0.3-0.1-0.4-0.2l-3.5-3.4c-0.4-0.1-1.6-0.4-2.9-1.1c-2.1-1.2-3.2-2.9-3.2-4.9
					c0-0.1,0-2.7,1.9-4.6c1.3-1.4,3.2-2.1,5.6-2.1c0.1,0,0.1,0,0.2,0c1.7,0,3.1,0.3,4.3,0.8c1,0.5,1.8,1.1,2.4,1.9
					c1.2,1.5,1.2,3.2,1.2,3.5c0,0.5,0,1.7-0.8,3.1c-0.9,1.5-2.5,2.6-4.7,3.1l0.5,3.2c0,0.2-0.1,0.5-0.3,0.6
					C92,238.1,91.9,238.1,91.8,238.1z M89.5,223c-0.1,0-0.1,0-0.2,0c-2.7,0-4.6,1-5.6,2.8c-0.8,1.4-0.8,2.8-0.8,2.8
					c0,1.6,0.9,3,2.6,3.9c1.3,0.8,2.7,1,2.7,1c0.1,0,0.2,0.1,0.3,0.1L91,236l-0.3-2.1c0-0.3,0.2-0.6,0.4-0.6
					c3.4-0.7,5.1-2.4,5.1-5.2c0-0.2,0-1.5-1-2.8C94.2,223.7,92.2,223,89.5,223z"/>
			</g>
		</g>
		<g>
			<g>
				<path fill="#A9B8C6" d="M78,234.2c-0.1,0-0.2,0-0.3-0.1c-0.2-0.1-0.3-0.4-0.3-0.6l0.5-3c-0.7-0.2-1.7-0.6-2.7-1.2
					c-1.2-0.8-2.7-2.2-2.9-4.4c-0.2-1.8,0.2-3.4,1.3-4.7c1.3-1.6,3.6-2.6,6.3-2.9c2.7-0.2,4.6,0.8,5.7,1.7c1.2,1,2,2.3,2,2.3
					l-1.2,0.3c0,0-0.5-0.9-1.6-1.8c-1.4-1.1-3-1.6-4.8-1.5c-2.4,0.2-4.4,1.1-5.5,2.5c-0.9,1.1-1.2,2.4-1,3.8
					c0.2,1.8,1.4,2.9,2.4,3.6c1.2,0.8,2.4,1.1,2.6,1.1c0.2,0,0.3,0.1,0.5,0.2c0.1,0.1,0.2,0.3,0.1,0.5l-0.3,1.9l2.5-2.4l0.5,1.3
					l-3.4,3.2C78.3,234.1,78.1,234.2,78,234.2z"/>
			</g>
		</g>
		<g>
			<circle fill="#A9B8C6" cx="86.7" cy="228.7" r="0.8"/>
		</g>
		<g>
			<circle fill="#A9B8C6" cx="89.6" cy="228.7" r="0.8"/>
		</g>
		<g>
			<circle fill="#A9B8C6" cx="92.7" cy="228.7" r="0.8"/>
		</g>
	</g>
	<g>
		<g>
			<path fill="#A9B8C6" d="M84.8,207.9c10.9,0,19.8,8.9,19.8,19.8s-8.9,19.8-19.8,19.8S65,238.6,65,227.7S73.9,207.9,84.8,207.9z
				 M84.8,245.5c9.8,0,17.8-8,17.8-17.8s-8-17.8-17.8-17.8s-17.8,8-17.8,17.8S75,245.5,84.8,245.5z"/>
		</g>
	</g>
	<g>
		<path fill="#A9B8C6" d="M69.6,254v-4.9H73v1h-2.4v0.8H72v1h-1.4v1.2h2.5v1H69.6z"/>
		<path fill="#A9B8C6" d="M76.6,254l-1.8-2.7c-0.1-0.2-0.3-0.4-0.3-0.6c0,0.2,0,0.8,0,1.1v2.2h-1v-4.9h0.9l1.7,2.6
			c0.1,0.2,0.3,0.4,0.3,0.6c0-0.2,0-0.8,0-1.1v-2.1h1v4.9H76.6z"/>
		<path fill="#A9B8C6" d="M79.9,254.1c-1.3,0-2.1-1-2.1-2.5c0-1.5,0.9-2.5,2.2-2.5c1,0,1.5,0.5,1.9,1.2l-0.9,0.4
			c-0.2-0.4-0.4-0.6-0.9-0.6c-0.7,0-1.2,0.6-1.2,1.6c0,0.9,0.4,1.6,1.2,1.6c0.7,0,0.9-0.3,1-0.7h-0.8v-0.9h1.8v0.6
			C81.9,253.4,81,254.1,79.9,254.1z"/>
		<path fill="#A9B8C6" d="M85.3,254l-0.4-1.1h-1.8l-0.4,1.1h-1l1.9-4.9h1l1.9,4.9H85.3z M84.3,251.1c-0.1-0.3-0.2-0.6-0.2-0.8
			c0,0.2-0.1,0.5-0.2,0.8l-0.3,0.9h1.1L84.3,251.1z"/>
		<path fill="#A9B8C6" d="M88.3,254.1c-1.3,0-2.1-1-2.1-2.5c0-1.5,0.9-2.5,2.2-2.5c1,0,1.5,0.5,1.9,1.2l-0.9,0.4
			c-0.2-0.4-0.4-0.6-0.9-0.6c-0.7,0-1.2,0.6-1.2,1.6c0,0.9,0.4,1.6,1.2,1.6c0.7,0,0.9-0.3,1-0.7h-0.8v-0.9h1.8v0.6
			C90.3,253.4,89.5,254.1,88.3,254.1z"/>
		<path fill="#A9B8C6" d="M90.7,254v-4.9h1v4.9H90.7z"/>
		<path fill="#A9B8C6" d="M95.4,254l-1.8-2.7c-0.1-0.2-0.3-0.4-0.3-0.6c0,0.2,0,0.8,0,1.1v2.2h-1v-4.9h0.9l1.7,2.6
			c0.1,0.2,0.3,0.4,0.3,0.6c0-0.2,0-0.8,0-1.1v-2.1h1v4.9H95.4z"/>
		<path fill="#A9B8C6" d="M98.7,254.1c-1.3,0-2.1-1-2.1-2.5c0-1.5,0.9-2.5,2.2-2.5c1,0,1.5,0.5,1.9,1.2l-0.9,0.4
			c-0.2-0.4-0.4-0.6-0.9-0.6c-0.7,0-1.2,0.6-1.2,1.6c0,0.9,0.4,1.6,1.2,1.6c0.7,0,0.9-0.3,1-0.7h-0.8v-0.9h1.8v0.6
			C100.7,253.4,99.9,254.1,98.7,254.1z"/>
	</g>
</g>
<g>
	<g>
		<g>
			<path fill="#A9B8C6" d="M45.7,157.5c10.9,0,19.8,8.9,19.8,19.8s-8.9,19.8-19.8,19.8s-19.8-8.9-19.8-19.8S34.8,157.5,45.7,157.5z
				 M45.7,195.1c9.8,0,17.8-8,17.8-17.8s-8-17.8-17.8-17.8s-17.8,8-17.8,17.8S35.9,195.1,45.7,195.1z"/>
		</g>
	</g>
	<g>
		<path fill="#A9B8C6" d="M34.2,200.4c-0.2-0.3-0.5-0.5-0.9-0.5c-0.7,0-1.2,0.6-1.2,1.6c0,0.9,0.4,1.6,1.2,1.6c0.4,0,0.7-0.2,1-0.6
			l0.8,0.5c-0.3,0.7-0.9,1.1-1.8,1.1c-1.3,0-2.1-1-2.1-2.5c0-1.5,0.9-2.5,2.2-2.5c0.9,0,1.5,0.4,1.8,1.1L34.2,200.4z"/>
		<path fill="#A9B8C6" d="M38.2,203.9l-0.9-1.8h-1v1.8h-1V199h2.3c0.9,0,1.7,0.5,1.7,1.6c0,0.7-0.3,1.2-0.9,1.4l0.9,1.9H38.2z
			 M37.7,199.9h-1.3v1.3h1.3c0.5,0,0.7-0.2,0.7-0.6C38.4,200.1,38.1,199.9,37.7,199.9z"/>
		<path fill="#A9B8C6" d="M39.7,203.9V199h3.4v1h-2.4v0.8h1.4v1h-1.4v1.2h2.5v1H39.7z"/>
		<path fill="#A9B8C6" d="M46.8,203.9l-0.4-1.1h-1.8l-0.4,1.1h-1.1l1.9-4.9h1l1.9,4.9H46.8z M45.8,201c-0.1-0.3-0.2-0.6-0.2-0.8
			c0,0.2-0.1,0.5-0.2,0.8l-0.3,0.9h1.1L45.8,201z"/>
		<path fill="#A9B8C6" d="M49.5,199.9v3.9h-1v-3.9h-1.4v-1h3.8v1H49.5z"/>
		<path fill="#A9B8C6" d="M51.2,203.9V199h1v4.9H51.2z"/>
		<path fill="#A9B8C6" d="M55.2,203.9h-1l-1.7-4.9h1.1l0.9,2.8c0.1,0.3,0.2,0.6,0.2,0.8c0-0.2,0.1-0.5,0.2-0.8l0.9-2.8h1.1
			L55.2,203.9z"/>
		<path fill="#A9B8C6" d="M57.1,203.9V199h3.4v1h-2.4v0.8h1.4v1h-1.4v1.2h2.5v1H57.1z"/>
	</g>
	<g>
		<g>
			<g>
				<path fill="#A9B8C6" d="M49.2,185.9h-7.4c-0.4,0-0.7-0.3-0.7-0.7s0.3-0.7,0.7-0.7h7.4c0.4,0,0.7,0.3,0.7,0.7
					S49.6,185.9,49.2,185.9z"/>
			</g>
		</g>
		<g>
			<g>
				<path fill="#A9B8C6" d="M43,187.4c-0.3,0-0.6-0.3-0.7-0.6c0-0.4,0.2-0.7,0.6-0.7l5.2-0.5c0.4,0,0.7,0.2,0.7,0.6
					c0,0.4-0.2,0.7-0.6,0.7L43,187.4C43,187.4,43,187.4,43,187.4z"/>
			</g>
		</g>
		<g>
			<g>
				<path fill="#A9B8C6" d="M43,188.9c-0.3,0-0.6-0.3-0.7-0.6c0-0.4,0.2-0.7,0.6-0.7l5.2-0.5c0.4,0,0.7,0.2,0.7,0.6
					c0,0.4-0.2,0.7-0.6,0.7L43,188.9C43,188.9,43,188.9,43,188.9z"/>
			</g>
		</g>
		<g>
			<g>
				<path fill="#A9B8C6" d="M43,190.4c-0.3,0-0.6-0.3-0.7-0.6c0-0.4,0.2-0.7,0.6-0.7l5.2-0.5c0.4,0,0.7,0.2,0.7,0.6
					c0,0.4-0.2,0.7-0.6,0.7L43,190.4C43,190.4,43,190.4,43,190.4z"/>
			</g>
		</g>
		<g>
			<g>
				<path fill="#A9B8C6" d="M43.1,185.9C43.1,185.9,43.1,185.9,43.1,185.9c-0.4,0-0.7-0.4-0.7-0.7c0.1-1-0.2-1.8-0.4-2.5
					c-0.1-0.2-0.2-0.5-0.2-0.7c-0.1-0.3-0.5-1-2-2.8c-0.1-0.1-0.1-0.1-0.1-0.2c-0.4-0.5-2.1-2.9-1.1-6.3c1-3.1,3.8-5.3,6.9-5.3
					c3.1,0,5.6,1.9,7,5.2c1.4,3.4-1.1,6.7-2.4,8.4c-0.1,0.1-0.2,0.3-0.3,0.4c-1.1,1.4-0.9,3.8-0.9,3.8c0,0.4-0.3,0.7-0.6,0.7
					c-0.4,0-0.7-0.3-0.7-0.6c0-0.1-0.2-2.9,1.2-4.7c0.1-0.1,0.2-0.3,0.3-0.4c1.3-1.7,3.4-4.4,2.3-7.1c-1.2-2.9-3.2-4.4-5.8-4.4
					c-2.5,0-4.9,1.8-5.7,4.4c-0.9,2.7,0.6,4.7,0.9,5.1c0,0,0.1,0.1,0.1,0.2c1,1.3,2,2.6,2.2,3.3c0,0.2,0.1,0.4,0.2,0.6
					c0.3,0.8,0.6,1.8,0.5,3.1C43.7,185.7,43.5,185.9,43.1,185.9z"/>
			</g>
		</g>
		<g>
			<g>
				<path fill="#A9B8C6" d="M47,191.3h-2.7c-0.4,0-0.7-0.3-0.7-0.7s0.3-0.7,0.7-0.7H47c0.4,0,0.7,0.3,0.7,0.7S47.4,191.3,47,191.3z"
					/>
			</g>
		</g>
		<g>
			<g>
				<g>
					<path fill="#A9B8C6" d="M45.6,177.6c-0.4,0-0.7-0.3-0.7-0.7l-0.6-5.8c0-0.4,0.9-0.7,1.3-0.7c0.4,0,1.4,0.3,1.4,0.7l-0.7,5.8
						C46.2,177.4,45.9,177.6,45.6,177.6z"/>
				</g>
			</g>
		</g>
		<g>
			<g>
				<g>
					<path fill="#A9B8C6" d="M45.6,165.7c-0.1,0-0.2-0.1-0.2-0.2l-0.2-2c0-0.1,0.3-0.2,0.4-0.2s0.5,0.1,0.5,0.2l-0.2,2
						C45.8,165.6,45.7,165.7,45.6,165.7z"/>
				</g>
			</g>
		</g>
		<g>
			<g>
				<g>
					<path fill="#A9B8C6" d="M41.1,166.9c-0.1,0.1-0.2,0-0.3-0.1l-1.1-1.6c-0.1-0.1,0.2-0.3,0.3-0.4s0.5-0.1,0.5,0l0.7,1.8
						C41.3,166.7,41.2,166.8,41.1,166.9z"/>
				</g>
			</g>
		</g>
		<g>
			<g>
				<g>
					<path fill="#A9B8C6" d="M50.1,166.8c-0.1-0.1-0.1-0.2-0.1-0.3l0.9-1.7c0.1-0.1,0.4,0,0.5,0.1c0.1,0.1,0.3,0.3,0.3,0.4l-1.3,1.5
						C50.3,166.8,50.2,166.9,50.1,166.8z"/>
				</g>
			</g>
		</g>
		<g>
			<g>
				<g>
					<path fill="#A9B8C6" d="M53.4,170.2c-0.1-0.1,0-0.2,0.1-0.3l1.6-1.2c0.1-0.1,0.3,0.1,0.4,0.2c0.1,0.1,0.2,0.4,0.1,0.5l-1.8,0.8
						C53.6,170.3,53.4,170.3,53.4,170.2z"/>
				</g>
			</g>
		</g>
		<g>
			<g>
				<g>
					<path fill="#A9B8C6" d="M54.4,174.4c0-0.1,0.1-0.2,0.2-0.2l2-0.1c0.1,0,0.2,0.3,0.2,0.4c0,0.1-0.1,0.5-0.3,0.4l-1.9-0.4
						C54.5,174.6,54.4,174.5,54.4,174.4z"/>
				</g>
			</g>
		</g>
		<g>
			<g>
				<g>
					<path fill="#A9B8C6" d="M53.3,179c0.1-0.1,0.2-0.1,0.3-0.1l1.8,0.8c0.1,0.1,0.1,0.4,0,0.5c-0.1,0.1-0.3,0.4-0.4,0.3l-1.6-1.1
						C53.3,179.2,53.3,179.1,53.3,179z"/>
				</g>
			</g>
		</g>
		<g>
			<g>
				<circle fill="#A9B8C6" cx="45.6" cy="179.9" r="1.2"/>
			</g>
		</g>
		<g>
			<g>
				<g>
					<path fill="#A9B8C6" d="M38.1,170.2c0.1-0.1,0-0.2-0.1-0.3l-1.6-1.2c-0.1-0.1-0.3,0.1-0.4,0.2c-0.1,0.1-0.2,0.4-0.1,0.5
						l1.8,0.8C37.9,170.3,38,170.3,38.1,170.2z"/>
				</g>
			</g>
		</g>
		<g>
			<g>
				<g>
					<path fill="#A9B8C6" d="M37,174.4c0-0.1-0.1-0.2-0.2-0.2l-2-0.1c-0.1,0-0.2,0.3-0.2,0.4c0,0.1,0.1,0.5,0.3,0.4l1.9-0.4
						C36.9,174.6,37,174.5,37,174.4z"/>
				</g>
			</g>
		</g>
		<g>
			<g>
				<g>
					<path fill="#A9B8C6" d="M38.1,179c-0.1-0.1-0.2-0.1-0.3-0.1l-1.8,0.8c-0.1,0.1-0.1,0.4,0,0.5c0.1,0.1,0.3,0.4,0.4,0.3l1.6-1.1
						C38.1,179.2,38.2,179.1,38.1,179z"/>
				</g>
			</g>
		</g>
	</g>
</g>
<line fill="#A9B8C6" stroke="#A9B8C6" stroke-miterlimit="10" x1="225.3" y1="208.2" x2="200.3" y2="173.6"/>
<line fill="#A9B8C6" stroke="#A9B8C6" stroke-miterlimit="10" x1="257" y1="164.5" x2="224.8" y2="146.2"/>
<line fill="#A9B8C6" stroke="#A9B8C6" stroke-miterlimit="10" x1="258.4" y1="80.9" x2="226.1" y2="99.3"/>
<line fill="#A9B8C6" stroke="#A9B8C6" stroke-miterlimit="10" x1="192.9" y1="77.2" x2="218.4" y2="41.5"/>
<line fill="#A9B8C6" stroke="#A9B8C6" stroke-miterlimit="10" x1="280.4" y1="125.9" x2="232.2" y2="125.9"/>
<g>
	<g>
		<line fill="#A9B8C6" x1="209.2" y1="136.1" x2="118.6" y2="136.1"/>
		<rect x="118.6" y="135.6" fill="#A9B8C6" width="90.5" height="1"/>
	</g>
	<g>
		<g>
			<path fill="#A9B8C6" d="M122.2,117.5c-1.6,0-3-0.7-3.7-1.7l1.4-1.2c0.7,0.8,1.5,1.1,2.4,1.1c1.1,0,1.7-0.3,1.7-1
				c0-0.6-0.3-0.9-2.1-1.3c-1.8-0.4-3-1-3-2.8c0-1.7,1.5-2.8,3.4-2.8c1.5,0,2.6,0.6,3.5,1.5l-1.4,1.3c-0.6-0.6-1.3-1-2.2-1
				c-1,0-1.4,0.4-1.4,0.9c0,0.6,0.4,0.8,1.9,1.1c1.5,0.4,3.2,0.9,3.2,2.9C126,116.3,124.8,117.5,122.2,117.5z"/>
			<path fill="#A9B8C6" d="M130.9,117.5c-2.6,0-4.1-2-4.1-4.9c0-2.9,1.5-4.9,4.1-4.9c2.6,0,4.1,2,4.1,4.9
				C135,115.5,133.5,117.5,130.9,117.5z M130.9,109.6c-1.5,0-2.2,1.3-2.2,3c0,1.7,0.6,3,2.2,3c1.5,0,2.2-1.3,2.2-3
				C133,110.9,132.4,109.6,130.9,109.6z"/>
			<path fill="#A9B8C6" d="M141.7,110.6c-0.3-0.7-0.9-1-1.7-1c-1.4,0-2.2,1.3-2.2,3c0,1.7,0.8,3,2.3,3c0.9,0,1.4-0.4,1.9-1.2l1.6,1
				c-0.7,1.3-1.8,2.1-3.5,2.1c-2.5,0-4.2-1.9-4.2-4.9c0-2.9,1.7-4.9,4.2-4.9c1.8,0,2.9,0.9,3.5,2.1L141.7,110.6z"/>
			<path fill="#A9B8C6" d="M144.8,117.3v-9.5h1.9v9.5H144.8z"/>
			<path fill="#A9B8C6" d="M155,117.3l-0.7-2.1h-3.5l-0.7,2.1h-2l3.6-9.5h1.8l3.6,9.5H155z M152.9,111.7c-0.2-0.6-0.4-1.1-0.5-1.5
				c-0.1,0.4-0.3,0.9-0.5,1.5l-0.6,1.7h2.2L152.9,111.7z"/>
			<path fill="#A9B8C6" d="M158.1,117.3v-9.5h1.9v7.6h4.8v1.9H158.1z"/>
			<path fill="#A9B8C6" d="M176.1,117.3v-3.5c0-0.5,0-1.7,0-2.1c-0.1,0.4-0.4,1-0.7,1.6l-1.9,4.2l-1.9-4.2c-0.2-0.5-0.5-1.2-0.7-1.6
				c0,0.4,0,1.6,0,2.1v3.5h-1.9v-9.5h1.8l2,4.3c0.2,0.5,0.5,1.3,0.7,1.6c0.1-0.4,0.4-1,0.6-1.6l1.9-4.3h1.9v9.5H176.1z"/>
			<path fill="#A9B8C6" d="M179.8,117.3v-9.5h6.6v1.9h-4.7v1.6h2.7v1.8h-2.7v2.3h4.9v1.9H179.8z"/>
			<path fill="#A9B8C6" d="M190.8,117.3H188v-9.5h3c2.7,0,4.7,1.3,4.7,4.8C195.7,115.9,193.3,117.3,190.8,117.3z M190.9,109.7h-1
				v5.8h0.9c2,0,2.9-1.2,2.9-2.9C193.7,110.6,192.9,109.7,190.9,109.7z"/>
			<path fill="#A9B8C6" d="M197,117.3v-9.5h1.9v9.5H197z"/>
			<path fill="#A9B8C6" d="M207.2,117.3l-0.7-2.1H203l-0.7,2.1h-2l3.6-9.5h1.8l3.6,9.5H207.2z M205.2,111.7
				c-0.2-0.6-0.4-1.1-0.5-1.5c-0.1,0.4-0.3,0.9-0.5,1.5l-0.6,1.7h2.2L205.2,111.7z"/>
		</g>
		<g>
			<path fill="#A9B8C6" d="M127.5,130.9v-4.4c0-0.7,0-2.2,0-2.6c-0.2,0.4-0.5,1.3-0.8,2l-2.4,5.3l-2.4-5.3c-0.3-0.7-0.7-1.5-0.8-2
				c0,0.5,0,2,0,2.6v4.4h-2.3v-12h2.3l2.5,5.4c0.3,0.7,0.7,1.6,0.8,2c0.2-0.4,0.5-1.3,0.8-2l2.4-5.4h2.4v12H127.5z"/>
			<path fill="#A9B8C6" d="M140.1,130.9l-0.9-2.7h-4.4l-0.9,2.7h-2.6l4.6-12h2.3l4.6,12H140.1z M137.5,123.8
				c-0.2-0.7-0.5-1.4-0.6-1.9c-0.1,0.4-0.4,1.2-0.6,1.9l-0.8,2.2h2.7L137.5,123.8z"/>
			<path fill="#A9B8C6" d="M151.7,130.9l-4.4-6.5c-0.3-0.4-0.7-1-0.8-1.4c0,0.4,0,2,0,2.6v5.3h-2.4v-12h2.3l4.3,6.3
				c0.3,0.4,0.7,1,0.8,1.4c0-0.4,0-2,0-2.6v-5.1h2.4v12H151.7z"/>
			<path fill="#A9B8C6" d="M164,130.9l-0.9-2.7h-4.4l-0.9,2.7h-2.6l4.6-12h2.3l4.6,12H164z M161.5,123.8c-0.2-0.7-0.5-1.4-0.6-1.9
				c-0.1,0.4-0.4,1.2-0.6,1.9l-0.8,2.2h2.7L161.5,123.8z"/>
			<path fill="#A9B8C6" d="M172.2,131.1c-3.1,0-5.2-2.4-5.2-6.2c0-3.7,2.2-6.2,5.3-6.2c2.5,0,3.8,1.1,4.5,3l-2.3,0.9
				c-0.4-0.9-1-1.6-2.3-1.6c-1.8,0-2.8,1.6-2.8,3.8c0,2.2,1,3.8,2.8,3.8c1.6,0,2.2-0.8,2.3-1.8h-1.9v-2.2h4.3v1.6
				C177,129.4,175,131.1,172.2,131.1z"/>
			<path fill="#A9B8C6" d="M178.7,130.9v-12h8.3v2.3h-5.9v2.1h3.4v2.3h-3.4v2.9h6.2v2.3H178.7z"/>
			<path fill="#A9B8C6" d="M195.9,130.9l-2.1-4.3h-2.4v4.3H189v-12h5.6c2.3,0,4.1,1.3,4.1,3.8c0,1.8-0.8,2.9-2.3,3.5l2.3,4.7H195.9z
				 M194.5,121.3h-3.1v3.1h3.1c1.1,0,1.7-0.5,1.7-1.6C196.2,121.7,195.6,121.3,194.5,121.3z"/>
			<path fill="#A9B8C6" d="M204.4,131.1c-2,0-3.8-0.8-4.7-2.2l1.7-1.5c0.8,1,1.9,1.4,3.1,1.4c1.4,0,2.1-0.4,2.1-1.3
				c0-0.8-0.4-1.1-2.7-1.6c-2.2-0.5-3.8-1.2-3.8-3.6c0-2.2,1.9-3.5,4.3-3.5c1.9,0,3.2,0.7,4.4,1.9l-1.7,1.7
				c-0.8-0.8-1.6-1.2-2.7-1.2c-1.3,0-1.7,0.5-1.7,1.1c0,0.8,0.5,1,2.4,1.4c1.9,0.4,4,1.1,4,3.7C209.2,129.6,207.7,131.1,204.4,131.1
				z"/>
		</g>
	</g>
	<g>
		<path fill="#A9B8C6" d="M122.5,142.7c0-0.1-0.1-0.2-0.2-0.3c-0.1-0.1-0.2-0.2-0.3-0.2c-0.1-0.1-0.2-0.1-0.4-0.2
			c-0.1,0-0.3-0.1-0.4-0.1c-0.3,0-0.5,0.1-0.7,0.2c-0.2,0.1-0.3,0.3-0.3,0.5c0,0.1,0.1,0.3,0.2,0.4c0.1,0.1,0.3,0.2,0.4,0.3
			s0.4,0.2,0.6,0.2c0.2,0.1,0.5,0.2,0.7,0.2c0.2,0.1,0.5,0.2,0.7,0.3c0.2,0.1,0.4,0.3,0.6,0.4c0.2,0.2,0.3,0.4,0.4,0.6
			c0.1,0.2,0.2,0.5,0.2,0.9c0,0.4-0.1,0.7-0.2,1c-0.1,0.3-0.3,0.5-0.6,0.7c-0.2,0.2-0.5,0.3-0.8,0.4c-0.3,0.1-0.7,0.1-1.1,0.1
			c-0.3,0-0.7,0-1-0.1c-0.3-0.1-0.6-0.2-0.8-0.4c-0.2-0.2-0.5-0.4-0.6-0.6c-0.2-0.2-0.3-0.5-0.4-0.8l1.3-0.5
			c0.1,0.2,0.2,0.3,0.3,0.5c0.1,0.1,0.2,0.3,0.4,0.4c0.1,0.1,0.3,0.2,0.4,0.2s0.3,0.1,0.5,0.1c0.2,0,0.3,0,0.5-0.1
			c0.1,0,0.3-0.1,0.4-0.2c0.1-0.1,0.2-0.2,0.2-0.3c0.1-0.1,0.1-0.2,0.1-0.4c0-0.2-0.1-0.3-0.2-0.4c-0.1-0.1-0.3-0.2-0.4-0.3
			c-0.2-0.1-0.4-0.2-0.6-0.2c-0.2-0.1-0.5-0.2-0.7-0.2c-0.2-0.1-0.5-0.2-0.7-0.3c-0.2-0.1-0.4-0.2-0.6-0.4c-0.2-0.2-0.3-0.4-0.4-0.6
			c-0.1-0.2-0.2-0.5-0.2-0.8c0-0.3,0.1-0.5,0.2-0.8c0.1-0.2,0.3-0.5,0.5-0.6c0.2-0.2,0.5-0.3,0.8-0.4c0.3-0.1,0.7-0.2,1.1-0.2
			c0.3,0,0.6,0,0.9,0.1c0.3,0.1,0.5,0.2,0.7,0.4c0.2,0.2,0.4,0.3,0.5,0.5c0.1,0.2,0.2,0.4,0.3,0.7L122.5,142.7z"/>
		<path fill="#A9B8C6" d="M129.5,148.1l-1.9-3.5l-1.4,1.7v1.8h-1.4v-7.4h1.4v3.5l2.8-3.5h1.7l-2.1,2.6l2.6,4.7H129.5z"/>
		<path fill="#A9B8C6" d="M131.8,148.1v-7.4h1.4v7.4H131.8z"/>
		<path fill="#A9B8C6" d="M134.4,148.1v-7.4h1.4v6h3.5v1.4H134.4z"/>
		<path fill="#A9B8C6" d="M139.7,148.1v-7.4h1.4v6h3.5v1.4H139.7z"/>
		<path fill="#A9B8C6" d="M148.5,142.7c0-0.1-0.1-0.2-0.2-0.3c-0.1-0.1-0.2-0.2-0.3-0.2c-0.1-0.1-0.2-0.1-0.4-0.2
			c-0.1,0-0.3-0.1-0.4-0.1c-0.3,0-0.5,0.1-0.7,0.2c-0.2,0.1-0.3,0.3-0.3,0.5c0,0.1,0.1,0.3,0.2,0.4c0.1,0.1,0.3,0.2,0.4,0.3
			c0.2,0.1,0.4,0.2,0.6,0.2c0.2,0.1,0.5,0.2,0.7,0.2c0.2,0.1,0.5,0.2,0.7,0.3c0.2,0.1,0.4,0.3,0.6,0.4c0.2,0.2,0.3,0.4,0.4,0.6
			c0.1,0.2,0.2,0.5,0.2,0.9c0,0.4-0.1,0.7-0.2,1c-0.1,0.3-0.3,0.5-0.6,0.7c-0.2,0.2-0.5,0.3-0.8,0.4c-0.3,0.1-0.7,0.1-1.1,0.1
			c-0.3,0-0.7,0-1-0.1c-0.3-0.1-0.6-0.2-0.8-0.4c-0.2-0.2-0.5-0.4-0.6-0.6c-0.2-0.2-0.3-0.5-0.4-0.8l1.3-0.5
			c0.1,0.2,0.2,0.3,0.3,0.5c0.1,0.1,0.2,0.3,0.4,0.4c0.1,0.1,0.3,0.2,0.4,0.2s0.3,0.1,0.5,0.1c0.2,0,0.3,0,0.5-0.1
			c0.1,0,0.3-0.1,0.4-0.2c0.1-0.1,0.2-0.2,0.2-0.3c0.1-0.1,0.1-0.2,0.1-0.4c0-0.2-0.1-0.3-0.2-0.4c-0.1-0.1-0.3-0.2-0.4-0.3
			c-0.2-0.1-0.4-0.2-0.6-0.2c-0.2-0.1-0.5-0.2-0.7-0.2c-0.2-0.1-0.5-0.2-0.7-0.3c-0.2-0.1-0.4-0.2-0.6-0.4c-0.2-0.2-0.3-0.4-0.4-0.6
			c-0.1-0.2-0.2-0.5-0.2-0.8c0-0.3,0.1-0.5,0.2-0.8c0.1-0.2,0.3-0.5,0.5-0.6c0.2-0.2,0.5-0.3,0.8-0.4c0.3-0.1,0.7-0.2,1.1-0.2
			c0.3,0,0.6,0,0.9,0.1c0.3,0.1,0.5,0.2,0.7,0.4c0.2,0.2,0.4,0.3,0.5,0.5c0.1,0.2,0.2,0.4,0.3,0.7L148.5,142.7z"/>
		<path fill="#A9B8C6" d="M157.1,148.1l-0.6-0.7c-0.3,0.3-0.6,0.5-0.9,0.6c-0.3,0.1-0.7,0.2-1.2,0.2c-0.3,0-0.6-0.1-0.9-0.2
			c-0.3-0.1-0.5-0.2-0.7-0.4c-0.2-0.2-0.3-0.4-0.5-0.7c-0.1-0.3-0.2-0.6-0.2-0.9c0-0.3,0-0.5,0.1-0.7c0.1-0.2,0.2-0.4,0.3-0.6
			c0.1-0.2,0.3-0.3,0.5-0.5c0.2-0.1,0.4-0.3,0.6-0.4c-0.1-0.2-0.2-0.3-0.3-0.4c-0.1-0.1-0.2-0.3-0.2-0.4c-0.1-0.1-0.1-0.3-0.1-0.4
			c0-0.1,0-0.3,0-0.4c0-0.3,0-0.5,0.1-0.7c0.1-0.2,0.2-0.4,0.4-0.5c0.2-0.1,0.4-0.3,0.6-0.3c0.2-0.1,0.5-0.1,0.7-0.1
			c0.3,0,0.5,0,0.7,0.1c0.2,0.1,0.4,0.2,0.6,0.3c0.2,0.1,0.3,0.3,0.4,0.5c0.1,0.2,0.1,0.4,0.1,0.7c0,0.2,0,0.4-0.1,0.6
			c-0.1,0.2-0.1,0.3-0.3,0.5c-0.1,0.1-0.2,0.3-0.4,0.4c-0.1,0.1-0.3,0.2-0.5,0.3l0.8,1c0-0.1,0-0.2,0.1-0.3c0-0.1,0-0.2,0-0.4h1.3
			c0,0.2,0,0.3,0,0.5c0,0.2-0.1,0.3-0.1,0.5c0,0.2-0.1,0.3-0.1,0.5s-0.1,0.3-0.2,0.4l1.5,1.8H157.1z M154.5,146.9
			c0.2,0,0.4,0,0.6-0.1c0.2-0.1,0.4-0.2,0.5-0.4l-1.3-1.6c-0.3,0.2-0.5,0.3-0.7,0.5c-0.1,0.2-0.2,0.4-0.2,0.7c0,0.1,0,0.2,0.1,0.3
			c0,0.1,0.1,0.2,0.2,0.3c0.1,0.1,0.2,0.1,0.3,0.2C154.3,146.9,154.4,146.9,154.5,146.9z M154.3,142.3c0,0.2,0,0.3,0.1,0.5
			c0.1,0.2,0.2,0.3,0.4,0.5c0.2-0.1,0.3-0.2,0.4-0.4c0.1-0.2,0.2-0.3,0.2-0.6c0-0.1,0-0.2,0-0.3c0-0.1-0.1-0.2-0.1-0.2
			c-0.1-0.1-0.1-0.1-0.2-0.1c-0.1,0-0.1,0-0.2,0c-0.2,0-0.3,0.1-0.4,0.2C154.4,141.9,154.3,142.1,154.3,142.3z"/>
		<path fill="#A9B8C6" d="M163.9,148.2c-0.4,0-0.8-0.1-1.1-0.2c-0.3-0.1-0.6-0.2-0.8-0.4c-0.2-0.2-0.4-0.4-0.6-0.6
			c-0.2-0.2-0.3-0.5-0.4-0.8c-0.1-0.3-0.2-0.6-0.2-0.9c-0.1-0.3-0.1-0.6-0.1-0.9c0-0.3,0-0.6,0.1-0.9c0-0.3,0.1-0.6,0.2-0.9
			c0.1-0.3,0.2-0.5,0.4-0.8c0.2-0.2,0.4-0.5,0.6-0.6c0.2-0.2,0.5-0.3,0.8-0.4c0.3-0.1,0.7-0.2,1.1-0.2s0.8,0.1,1.1,0.2
			s0.6,0.2,0.8,0.4c0.2,0.2,0.4,0.4,0.6,0.6c0.2,0.2,0.3,0.5,0.4,0.8c0.1,0.3,0.2,0.6,0.2,0.9c0,0.3,0.1,0.6,0.1,0.9
			c0,0.3,0,0.5-0.1,0.8c0,0.3-0.1,0.5-0.2,0.8c-0.1,0.3-0.2,0.5-0.3,0.7c-0.1,0.2-0.3,0.4-0.5,0.6l0.5,0.7l-1.1,0.7l-0.5-0.8
			c-0.2,0-0.3,0.1-0.5,0.1C164.2,148.2,164.1,148.2,163.9,148.2z M163.9,146.9c0,0,0.1,0,0.1,0c0,0,0.1,0,0.1,0l-0.5-0.8l1.1-0.7
			l0.5,0.8c0.1-0.1,0.2-0.2,0.2-0.4c0.1-0.1,0.1-0.3,0.1-0.4c0-0.1,0.1-0.3,0.1-0.4c0-0.2,0-0.3,0-0.4c0-0.2,0-0.4,0-0.6
			c0-0.2-0.1-0.4-0.1-0.6s-0.1-0.3-0.2-0.5c-0.1-0.2-0.2-0.3-0.3-0.4c-0.1-0.1-0.3-0.2-0.5-0.3c-0.2-0.1-0.4-0.1-0.6-0.1
			c-0.2,0-0.4,0-0.6,0.1c-0.2,0.1-0.3,0.2-0.5,0.3c-0.1,0.1-0.2,0.3-0.3,0.4c-0.1,0.2-0.2,0.3-0.2,0.5c-0.1,0.2-0.1,0.4-0.1,0.6
			c0,0.2,0,0.4,0,0.5c0,0.3,0,0.6,0.1,0.9c0.1,0.3,0.2,0.6,0.3,0.8c0.1,0.2,0.3,0.4,0.5,0.6C163.2,146.8,163.5,146.9,163.9,146.9z"
			/>
		<path fill="#A9B8C6" d="M170.8,148.2c-0.3,0-0.5,0-0.7-0.1c-0.2,0-0.5-0.1-0.7-0.2c-0.2-0.1-0.4-0.2-0.6-0.4
			c-0.2-0.2-0.3-0.3-0.5-0.6c-0.1-0.2-0.2-0.5-0.3-0.8c-0.1-0.3-0.1-0.6-0.1-1v-4.5h1.4v4.5c0,0.3,0,0.6,0.1,0.8
			c0.1,0.2,0.2,0.4,0.3,0.5c0.1,0.1,0.3,0.2,0.5,0.3c0.2,0,0.4,0.1,0.6,0.1c0.2,0,0.4,0,0.6-0.1c0.2,0,0.4-0.1,0.5-0.3
			c0.1-0.1,0.2-0.3,0.3-0.5c0.1-0.2,0.1-0.5,0.1-0.8v-4.5h1.4v4.5c0,0.5-0.1,1-0.2,1.4c-0.2,0.4-0.4,0.7-0.7,0.9
			c-0.3,0.2-0.6,0.4-0.9,0.5C171.6,148.2,171.2,148.2,170.8,148.2z"/>
		<path fill="#A9B8C6" d="M179.8,148.1l-0.6-1.5h-2.8l-0.6,1.5h-1.5l2.8-7.4h1.4l2.8,7.4H179.8z M178,143.4c0-0.1-0.1-0.2-0.1-0.3
			c0-0.1-0.1-0.2-0.1-0.3c0,0.1-0.1,0.2-0.1,0.3c0,0.1-0.1,0.2-0.1,0.3l-0.7,1.9h1.9L178,143.4z"/>
		<path fill="#A9B8C6" d="M181.9,148.1v-7.4h1.4v6h3.5v1.4H181.9z"/>
		<path fill="#A9B8C6" d="M187.2,148.1v-7.4h1.4v7.4H187.2z"/>
		<path fill="#A9B8C6" d="M192.8,142.1v6h-1.4v-6h-2.1v-1.4h5.6v1.4H192.8z"/>
		<path fill="#A9B8C6" d="M195.6,148.1v-7.4h1.4v7.4H195.6z"/>
		<path fill="#A9B8C6" d="M198.2,148.1v-7.4h5v1.3h-3.6v1.5h2.1v1.3h-2.1v1.8h3.8v1.3H198.2z"/>
		<path fill="#A9B8C6" d="M207.7,142.7c0-0.1-0.1-0.2-0.2-0.3c-0.1-0.1-0.2-0.2-0.3-0.2c-0.1-0.1-0.2-0.1-0.4-0.2
			c-0.1,0-0.3-0.1-0.4-0.1c-0.3,0-0.5,0.1-0.7,0.2c-0.2,0.1-0.3,0.3-0.3,0.5c0,0.1,0.1,0.3,0.2,0.4c0.1,0.1,0.3,0.2,0.4,0.3
			s0.4,0.2,0.6,0.2c0.2,0.1,0.5,0.2,0.7,0.2c0.2,0.1,0.5,0.2,0.7,0.3c0.2,0.1,0.4,0.3,0.6,0.4c0.2,0.2,0.3,0.4,0.4,0.6
			c0.1,0.2,0.2,0.5,0.2,0.9c0,0.4-0.1,0.7-0.2,1c-0.1,0.3-0.3,0.5-0.6,0.7c-0.2,0.2-0.5,0.3-0.8,0.4c-0.3,0.1-0.7,0.1-1.1,0.1
			c-0.3,0-0.7,0-1-0.1c-0.3-0.1-0.6-0.2-0.8-0.4c-0.2-0.2-0.5-0.4-0.6-0.6c-0.2-0.2-0.3-0.5-0.4-0.8l1.3-0.5
			c0.1,0.2,0.2,0.3,0.3,0.5c0.1,0.1,0.2,0.3,0.4,0.4c0.1,0.1,0.3,0.2,0.4,0.2s0.3,0.1,0.5,0.1c0.2,0,0.3,0,0.5-0.1
			c0.1,0,0.3-0.1,0.4-0.2c0.1-0.1,0.2-0.2,0.2-0.3c0.1-0.1,0.1-0.2,0.1-0.4c0-0.2-0.1-0.3-0.2-0.4c-0.1-0.1-0.3-0.2-0.4-0.3
			c-0.2-0.1-0.4-0.2-0.6-0.2c-0.2-0.1-0.5-0.2-0.7-0.2c-0.2-0.1-0.5-0.2-0.7-0.3c-0.2-0.1-0.4-0.2-0.6-0.4c-0.2-0.2-0.3-0.4-0.4-0.6
			c-0.1-0.2-0.2-0.5-0.2-0.8c0-0.3,0.1-0.5,0.2-0.8c0.1-0.2,0.3-0.5,0.5-0.6c0.2-0.2,0.5-0.3,0.8-0.4c0.3-0.1,0.7-0.2,1.1-0.2
			c0.3,0,0.6,0,0.9,0.1c0.3,0.1,0.5,0.2,0.7,0.4c0.2,0.2,0.4,0.3,0.5,0.5c0.1,0.2,0.2,0.4,0.3,0.7L207.7,142.7z"/>
	</g>
</g>
<text transform="matrix(1 0 0 1 357.3507 173.6418)" font-family="'Overpass-Bold'" font-size="9.3085">SKILLS &amp; QUALITIES</text>
</svg>
