<?xml version="1.0" encoding="utf-8"?>
<!-- Generator: Adobe Illustrator 18.0.0, SVG Export Plug-In . SVG Version: 6.00 Build 0)  -->
<!DOCTYPE svg PUBLIC "-//W3C//DTD SVG 1.1//EN" "http://www.w3.org/Graphics/SVG/1.1/DTD/svg11.dtd">
<svg version="1.1" id="Layer_1" xmlns="http://www.w3.org/2000/svg" xmlns:xlink="http://www.w3.org/1999/xlink" x="0px" y="0px"
	 viewBox="0 0 335.1 288.2" enable-background="new 0 0 335.1 288.2" xml:space="preserve">
<ellipse fill="#C8CCCD" cx="171.8" cy="257.9" rx="28.3" ry="4.5"/>
<circle fill="#A9B8C6" cx="169.7" cy="90.9" r="23.2"/>
<path fill="#A9B8C6" d="M151.5,201.5c0,0,4.7,32.9,1.3,39c-3.4,6.1-4.8,7.6-3.8,12.3c1,4.7,2.8,6.1,7.3,6.3
	c4.4,0.3,11.1-3.6,12.7-7.4l0.5-50.2H151.5z"/>
<path fill="#A9B8C6" d="M190.1,201.5c0,0-4.7,32.9-1.3,39c3.4,6.1,4.8,7.6,3.8,12.3c-1,4.7-2.8,6.1-7.3,6.3
	c-4.4,0.3-11.1-3.6-12.7-7.4l-0.5-50.2H190.1z"/>
<g>
	<path fill="#A9B8C6" d="M225.7,122.8v75.8H116.9v-75.8H225.7 M229.7,118.8H112.9v83.8h116.9V118.8L229.7,118.8z"/>
</g>
<path fill="#A9B8C6" d="M148.6,98.8h42.9c0,0-3,10-12.7,15.9c0,0-1.3,2,0,3.4s4.5,2.4,4.5,2.4H158l3.5-2.5c0,0,1.5-2.1-0.5-3
	S148.4,103,148.6,98.8z"/>
<circle fill="#A9B8C6" cx="110.6" cy="149.3" r="10.4"/>
<circle fill="#A9B8C6" cx="227.6" cy="149.3" r="10.4"/>
<g>
	<g>
		<path fill="#A9B8C6" d="M27.1,137.1c10.9,0,19.8,8.9,19.8,19.8s-8.9,19.8-19.8,19.8S7.3,167.9,7.3,157S16.2,137.1,27.1,137.1z
			 M27.1,174.8c9.8,0,17.8-8,17.8-17.8s-8-17.8-17.8-17.8s-17.8,8-17.8,17.8S17.3,174.8,27.1,174.8z"/>
	</g>
</g>
<line fill="#A9B8C6" stroke="#A9B8C6" stroke-miterlimit="10" x1="108.1" y1="240.6" x2="133.1" y2="206.1"/>
<line fill="#A9B8C6" stroke="#A9B8C6" stroke-miterlimit="10" x1="76.4" y1="196.9" x2="108.6" y2="178.6"/>
<line fill="#A9B8C6" stroke="#A9B8C6" stroke-miterlimit="10" x1="75" y1="113.4" x2="107.3" y2="131.7"/>
<line fill="#A9B8C6" stroke="#A9B8C6" stroke-miterlimit="10" x1="140.5" y1="109.6" x2="115" y2="74"/>
<line fill="#A9B8C6" stroke="#A9B8C6" stroke-miterlimit="10" x1="53" y1="158.3" x2="101.1" y2="158.3"/>
<g>
	<g>
		<path fill="none" d="M24.7,163.1C24.7,163.1,24.7,163.1,24.7,163.1c-0.3-0.3-0.8-0.2-1,0.1l-0.4,0.5c0,0.1-0.1,0.2-0.2,0.2
			l-0.2,0.2l-0.4,0.5c-0.3,0.3-0.2,0.8,0.1,1c0,0,0,0,0,0c0.3,0.3,0.8,0.2,1-0.1l1.2-1.4C25,163.8,25,163.4,24.7,163.1z"/>
	</g>
	<g>
		<path fill="none" d="M22.7,163.4c0.1-0.1,0.1-0.2,0.1-0.4c0-0.2-0.1-0.4-0.2-0.5c-0.1-0.1-0.3-0.2-0.5-0.2c-0.2,0-0.4,0.1-0.5,0.2
			l-0.5,0.5c0,0,0,0,0,0l-0.4,0.4c0,0,0,0,0,0l0,0c-0.3,0.3-0.3,0.8,0,1c0.3,0.3,0.8,0.3,1,0l0.8-0.8L22.7,163.4z"/>
	</g>
	<g>
		<path fill="none" d="M26.3,165.2c0-0.2-0.1-0.4-0.3-0.5c-0.1-0.1-0.3-0.2-0.5-0.2c-0.2,0-0.4,0.1-0.6,0.3l-0.6,0.8
			c-0.1,0.1-0.2,0.3-0.2,0.5c0,0.2,0.1,0.4,0.3,0.5c0.3,0.3,0.8,0.2,1-0.1l0.6-0.8C26.3,165.6,26.3,165.4,26.3,165.2z"/>
	</g>
	<g>
		<path fill="none" d="M17.7,159.1c0.6-1.3,1.3-3,1.4-5.1l-1.9-1c-0.5,1.6-1.7,5.8-2.5,7.5l1.9,0.6C17,160.4,17.4,159.7,17.7,159.1z
			"/>
	</g>
	<g>
		<path fill="none" d="M20.7,162.6c0.3-0.3,0.3-0.8,0-1c-0.1-0.1-0.3-0.2-0.5-0.2c-0.2,0-0.4,0.1-0.5,0.2l-0.4,0.4
			c-0.3,0.3-0.3,0.8,0,1c0.3,0.3,0.8,0.3,1,0L20.7,162.6z"/>
	</g>
	<g>
		<path fill="none" d="M35.9,153l-1.8,1.2c0.2,0.8,0.8,3,1.9,5.2c0.6,1,1.1,1.7,1.4,2l2.1-1L35.9,153z"/>
	</g>
	<g>
		<path fill="none" d="M26.9,165.2c0,0.3-0.1,0.7-0.3,1l-0.4,0.5c0.5,0.4,1.4,0.8,2,0.5c0,0,0,0,0.1,0c0,0,0,0,0-0.1
			c0-0.1,0-0.5-0.8-1.4C27.2,165.5,27.1,165.3,26.9,165.2z"/>
	</g>
	<g>
		<path fill="none" d="M34.3,163.1l-6.4-5.7h-1c-0.3,0.6-1.3,2.2-2.7,2.2c-0.4,0-0.7-0.1-1-0.3c0,0-0.1,0-0.1-0.1c0,0-0.4-0.4-0.4-1
			c0-0.5,0.2-1,0.7-1.5l0.4-1.5c0,0,0-0.1,0.1-0.1c0,0,0.3-0.5,0.8-0.9c-1.3,0.1-3.1,0.3-4.5,0.4c0,0.8-0.2,2.3-1.4,4.7
			c-0.5,1-0.9,1.8-1.3,2.2c0.3,0.1,0.8,0.1,1.4,0.1l0,0l0.3-0.3c0.2-0.3,0.6-0.4,1-0.4c0.3,0,0.7,0.1,0.9,0.4
			c0.2,0.2,0.3,0.5,0.4,0.7c0.2-0.1,0.4-0.2,0.7-0.2c0.3,0,0.7,0.1,0.9,0.4c0.2,0.2,0.3,0.4,0.4,0.6c0.2-0.2,0.5-0.3,0.8-0.3
			c0.3,0,0.6,0.1,0.8,0.3c0,0,0,0,0,0c0.4,0.3,0.5,0.8,0.4,1.3c0,0,0,0,0.1,0c0.3,0,0.6,0.1,0.8,0.3c0.1-0.1,0.3-0.1,0.4,0
			c0.4,0.4,0.7,0.7,1,1c1,0.9,2,1.5,2.3,1.2c0.2-0.2,0.3-0.3,0.3-0.4c0-0.4-0.4-0.9-1-1.5c-1.1-0.9-2.2-1.9-2.7-2.4
			c-0.1-0.1-0.1-0.3,0-0.4c0.1-0.1,0.3-0.1,0.4,0c1.1,0.9,2,1.7,2.6,2.3c1.2,0.9,2.2,1.6,2.7,1.4c0-0.3-0.3-1.4-4.1-4.8l0,0
			c-0.1-0.1-0.1-0.1-0.2-0.2l0.4-0.4c5.1,4.6,5.6,4.2,5.9,4l0,0c0.1-0.1,0.1-0.5,0-0.8C34.4,163.2,34.4,163.1,34.3,163.1z"/>
	</g>
	<g>
		<path fill="none" d="M32,155c-0.5,0-0.9-0.1-0.9-0.1c-0.1,0-0.2-0.1-0.2-0.1c0,0-0.9-0.8-3-1.1c-0.1,0-0.2,0-0.4,0
			c-1.6,0-2.7,1.4-2.9,1.8l-0.4,1.5c0,0.1-0.1,0.1-0.1,0.2c-0.7,0.7-0.5,1.2-0.4,1.3c0.2,0.1,0.4,0.1,0.5,0.1c1,0,1.8-1.4,2.1-1.9
			c0.1-0.2,0.2-0.3,0.4-0.3h1.5c0.1,0,0.2,0,0.3,0.1l6.3,5.6l1.4-1.1c-0.2-0.4-0.5-0.7-0.7-1.1c-0.8-1.3-1.6-3-2-5.2
			C33,154.9,32.5,155,32,155z"/>
	</g>
	<g>
		<path fill="#A9B8C6" d="M36.3,151.7l-3.1,2.1l0,0.1c-0.2,0.1-0.6,0.2-1.2,0.2c-0.3,0-0.5,0-0.6,0c-0.3-0.3-1.4-0.9-3.4-1.2
			c-0.2,0-0.3,0-0.5,0c-0.5,0-0.9,0.1-1.3,0.2c-0.5,0-3.9,0.4-6.2,0.5c0-0.1-0.1-0.2-0.2-0.2l-2.7-1.4c-0.1-0.1-0.3-0.1-0.4,0
			c-0.1,0.1-0.2,0.2-0.3,0.3c-0.8,2.9-2.2,7.5-2.8,8.2c-0.1,0.1-0.1,0.3-0.1,0.4c0,0.1,0.1,0.3,0.3,0.3l2.7,0.9
			c0.2,0.1,0.8,0.4,1.7,0.4c0,0,0.1,0,0.1,0c0,0.4,0.1,0.8,0.4,1.1c0.2,0.2,0.6,0.4,0.9,0.4c0,0,0.1,0,0.1,0c0,0.4,0.1,0.8,0.4,1.1
			c0.2,0.2,0.6,0.4,0.9,0.4c0.2,0,0.4,0,0.6-0.1c0,0.3,0.2,0.7,0.5,0.9c0,0,0,0,0,0c0.2,0.2,0.5,0.3,0.8,0.3c0.2,0,0.4-0.1,0.6-0.1
			c0.1,0.3,0.2,0.6,0.4,0.8c0.2,0.2,0.5,0.3,0.9,0.3c0.3,0,0.6-0.1,0.8-0.3c0.4,0.3,1.1,0.8,1.9,0.8c0.3,0,0.5-0.1,0.8-0.2
			c0.2-0.1,0.3-0.2,0.4-0.5c0-0.1,0-0.3,0-0.5c0.6,0.4,1.3,0.5,1.7,0.3c0.3-0.2,0.5-0.5,0.5-0.8c0-0.2,0-0.3-0.1-0.5
			c0.8,0.4,1.5,0.6,1.9,0.3c0,0,0,0,0,0c0,0,0.1-0.2,0.1-0.4c0-0.4-0.3-0.9-0.7-1.5c0.9,0.7,1.5,0.9,1.8,0.9c0.3,0,0.5-0.1,0.6-0.3
			l0,0c0.4-0.3,0.3-1,0.2-1.5l1.5-1.2c0.2,0.3,0.4,0.5,0.4,0.5l0.2,0.3l3.5-1.7L36.3,151.7z M17.2,153l1.9,1c-0.1,2-0.8,3.8-1.4,5.1
			c-0.3,0.6-0.7,1.3-1.2,2l-1.9-0.6C15.5,158.8,16.7,154.6,17.2,153z M19.2,163.1c-0.3-0.3-0.3-0.7,0-1l0.4-0.4
			c0.1-0.1,0.3-0.2,0.5-0.2c0.2,0,0.4,0.1,0.5,0.2c0.3,0.3,0.3,0.7,0,1l-0.4,0.5C19.9,163.3,19.5,163.3,19.2,163.1z M20.6,164.5
			c-0.3-0.3-0.3-0.7,0-1l0,0c0,0,0,0,0,0l0.4-0.4c0,0,0,0,0,0l0.5-0.5c0.1-0.1,0.3-0.2,0.5-0.2c0.2,0,0.4,0.1,0.5,0.2
			c0.1,0.1,0.2,0.3,0.2,0.5c0,0.1,0,0.3-0.1,0.4l-0.3,0.3l-0.8,0.8C21.4,164.8,20.9,164.8,20.6,164.5z M22.6,165.6
			C22.6,165.6,22.6,165.6,22.6,165.6c-0.3-0.3-0.4-0.7-0.1-1l0.4-0.5l0.2-0.2c0.1-0.1,0.1-0.1,0.2-0.2l0.4-0.5
			c0.2-0.3,0.7-0.3,1-0.1c0,0,0,0,0,0c0.3,0.3,0.3,0.7,0.1,1l-1.2,1.4C23.4,165.8,22.9,165.9,22.6,165.6z M24.5,166.6
			c-0.1-0.1-0.2-0.3-0.3-0.5c0-0.2,0-0.4,0.2-0.5l0.6-0.8c0.1-0.2,0.3-0.3,0.6-0.3c0.2,0,0.3,0.1,0.5,0.2c0.1,0.1,0.2,0.3,0.3,0.5
			c0,0.2,0,0.4-0.2,0.5l-0.6,0.8C25.3,166.8,24.8,166.8,24.5,166.6z M28.3,167C28.3,167,28.3,167.1,28.3,167
			C28.2,167.1,28.2,167.1,28.3,167c-0.7,0.5-1.6,0-2.1-0.4l0.4-0.5c0.2-0.3,0.3-0.6,0.3-1c0.2,0.1,0.3,0.3,0.5,0.5
			C28.3,166.6,28.3,166.9,28.3,167z M34.4,164L34.4,164c-0.3,0.2-0.8,0.6-5.9-3.9l-0.4,0.4c0.1,0.1,0.1,0.1,0.2,0.2l0,0
			c3.8,3.3,4.1,4.5,4.1,4.8c-0.4,0.1-1.4-0.5-2.7-1.4c-0.6-0.6-1.5-1.4-2.6-2.3c-0.1-0.1-0.3-0.1-0.4,0c-0.1,0.1-0.1,0.3,0,0.4
			c0.5,0.5,1.6,1.5,2.7,2.4c0.6,0.6,1,1.2,1,1.5c0,0.1,0,0.2-0.3,0.4c-0.3,0.2-1.3-0.4-2.3-1.2c-0.3-0.3-0.6-0.6-1-1
			c-0.1-0.1-0.3-0.1-0.4,0c-0.2-0.2-0.5-0.3-0.8-0.3c0,0,0,0-0.1,0c0.1-0.5-0.1-1-0.4-1.3c0,0,0,0,0,0c-0.2-0.2-0.5-0.3-0.8-0.3
			c-0.3,0-0.6,0.1-0.8,0.3c-0.1-0.2-0.2-0.4-0.4-0.6c-0.2-0.2-0.6-0.4-0.9-0.4c-0.2,0-0.5,0.1-0.7,0.2c0-0.3-0.2-0.5-0.4-0.7
			c-0.2-0.2-0.6-0.4-0.9-0.4c-0.4,0-0.7,0.2-1,0.4l-0.3,0.3l0,0c-0.6,0.1-1.1,0-1.4-0.1c0.3-0.5,0.8-1.2,1.3-2.2
			c1.2-2.3,1.4-3.9,1.4-4.7c1.4-0.1,3.2-0.2,4.5-0.4c-0.5,0.5-0.8,0.9-0.8,0.9c0,0,0,0.1-0.1,0.1l-0.4,1.5c-0.5,0.5-0.7,1-0.7,1.5
			c0,0.6,0.4,1,0.4,1c0,0,0.1,0,0.1,0.1c0.3,0.2,0.7,0.3,1,0.3c1.4,0,2.4-1.6,2.7-2.2h1l6.4,5.7c0,0,0.1,0.1,0.1,0.1
			C34.5,163.5,34.6,163.9,34.4,164z M36,161.1l-1.4,1.1l-6.3-5.6c-0.1-0.1-0.2-0.1-0.3-0.1h-1.5c-0.2,0-0.3,0.1-0.4,0.3
			c-0.2,0.5-1.1,1.9-2.1,1.9c-0.2,0-0.3,0-0.5-0.1c-0.1-0.1-0.3-0.6,0.4-1.3c0.1-0.1,0.1-0.1,0.1-0.2l0.4-1.5
			c0.2-0.3,1.3-1.8,2.9-1.8c0.1,0,0.2,0,0.4,0c2.1,0.3,3,1.1,3,1.1c0.1,0.1,0.1,0.1,0.2,0.1c0,0,0.4,0.1,0.9,0.1
			c0.6,0,1-0.1,1.4-0.2c0.5,2.1,1.3,3.9,2,5.2C35.5,160.3,35.8,160.7,36,161.1z M36,159.4c-1.1-2.1-1.7-4.4-1.9-5.2l1.8-1.2l3.6,7.4
			l-2.1,1C37.1,161.1,36.6,160.4,36,159.4z"/>
	</g>
	<g>
		<path fill="#A9B8C6" d="M21.2,151.2c0.1,0.1,0.2,0.2,0.4,0.2c0.1,0,0.2,0,0.2-0.1c0.2-0.1,0.3-0.4,0.2-0.6l-1.2-2
			c-0.1-0.2-0.4-0.3-0.6-0.2c-0.2,0.1-0.3,0.4-0.2,0.6L21.2,151.2z"/>
	</g>
	<g>
		<path fill="#A9B8C6" d="M31.3,151.3c0.1,0,0.2,0.1,0.2,0.1c0.1,0,0.3-0.1,0.4-0.2l1.3-2c0.1-0.2,0.1-0.5-0.1-0.6
			c-0.2-0.1-0.5-0.1-0.6,0.1l-1.3,2C31,150.9,31.1,151.2,31.3,151.3z"/>
	</g>
	<g>
		<path fill="#A9B8C6" d="M24.5,150c0,0.2,0.2,0.4,0.4,0.4c0,0,0,0,0.1,0c0.2,0,0.4-0.3,0.4-0.5l-0.5-3.2c0-0.2-0.3-0.4-0.5-0.4
			c-0.2,0-0.4,0.3-0.4,0.5L24.5,150z"/>
	</g>
	<g>
		<path fill="#A9B8C6" d="M28.1,150.7C28.1,150.7,28.1,150.7,28.1,150.7c0.3,0,0.5-0.1,0.5-0.4l0.7-3.7c0-0.2-0.1-0.5-0.4-0.5
			c-0.2,0-0.5,0.1-0.5,0.4l-0.7,3.7C27.7,150.4,27.8,150.6,28.1,150.7z"/>
	</g>
</g>
<g>
	<g>
		<g>
			<path fill="#A9B8C6" d="M245.2,44c0,0-1.8,0-3.1,1.2c-1.3,1.3-1.2,3-1.2,3l14,14l0.5-1.6l1.7-0.6l0.3-1.7l1.8-0.5L245.2,44z"/>
			<path fill="#A9B8C6" d="M245.6,62.3l-3-2.9l1.3-1.3l1.1,1.1c0.2,0.2,0.5,0.2,0.7,0c0.2-0.2,0.2-0.5,0-0.7l-1.1-1.1l1-1l0.9,0.9
				c0.2,0.2,0.5,0.2,0.7,0c0.2-0.2,0.2-0.5,0-0.7l-0.9-0.9l0.1-0.1l-1.3-1.3c0,0-3.7,3.7-4.2,4.3c-0.5,0.6-0.3,1.2-0.3,1.2
				s4.2,4.2,4.7,4.6c0.5,0.4,1-0.3,1-0.3l4.4-4.3l-1.3-1.2L245.6,62.3z"/>
			<path fill="#A9B8C6" d="M261.4,48.6c-0.4-0.5-4.6-4.7-4.6-4.7s-0.5-0.2-1.2,0.3s-4.3,4.2-4.3,4.2l1.3,1.3l0.1-0.1l0.9,0.9
				c0.2,0.2,0.5,0.2,0.7,0c0.2-0.2,0.2-0.5,0-0.7l-0.9-0.9l1-1l1.1,1.1c0.2,0.2,0.5,0.2,0.7,0c0.2-0.2,0.2-0.5,0-0.7l-1.1-1.1
				l1.3-1.3l2.9,3l-3.7,3.8l1.2,1.3l4.3-4.4C261.1,49.5,261.8,49.1,261.4,48.6z"/>
			<path fill="#A9B8C6" d="M260,60.6c0,0-1,0.2-1.6,0.8c-0.6,0.6-0.7,1.6-0.7,1.6s1.8,0.5,2.6,0.6c0.8,0.2,0.5-0.6,0.5-0.6L260,60.6
				z"/>
		</g>
		<g>
			<path fill="#A9B8C6" d="M251.1,74c-10.9,0-19.8-8.9-19.8-19.8s8.9-19.8,19.8-19.8s19.8,8.9,19.8,19.8S262,74,251.1,74z
				 M251.1,36.3c-9.8,0-17.8,8-17.8,17.8s8,17.8,17.8,17.8s17.8-8,17.8-17.8S260.9,36.3,251.1,36.3z"/>
		</g>
	</g>
	<g>
		<path fill="#A9B8C6" d="M237.4,81.8h-2.2v-4.9h2.2c1,0,1.6,0.5,1.6,1.3c0,0.4-0.2,0.8-0.5,1c0.4,0.2,0.7,0.5,0.7,1.1
			C239.1,81.3,238.4,81.8,237.4,81.8z M237.4,77.8h-1.2v0.9h1.3c0.4,0,0.6-0.2,0.6-0.5C238,78,237.8,77.8,237.4,77.8z M237.4,79.6
			h-1.3v1.3h1.3c0.5,0,0.7-0.3,0.7-0.6C238.1,79.8,237.9,79.6,237.4,79.6z"/>
		<path fill="#A9B8C6" d="M242.3,81.8l-0.9-1.8h-1v1.8h-1v-4.9h2.3c0.9,0,1.7,0.5,1.7,1.6c0,0.7-0.3,1.2-0.9,1.4l0.9,1.9H242.3z
			 M241.7,77.9h-1.3v1.3h1.3c0.5,0,0.7-0.2,0.7-0.6C242.4,78.1,242.1,77.9,241.7,77.9z"/>
		<path fill="#A9B8C6" d="M246.9,81.8l-0.4-1.1h-1.8l-0.4,1.1h-1.1l1.9-4.9h1l1.9,4.9H246.9z M245.8,78.9c-0.1-0.3-0.2-0.6-0.2-0.8
			c0,0.2-0.1,0.5-0.2,0.8l-0.3,0.9h1.1L245.8,78.9z"/>
		<path fill="#A9B8C6" d="M251.3,81.8l-1.8-2.7c-0.1-0.2-0.3-0.4-0.3-0.6c0,0.2,0,0.8,0,1.1v2.2h-1v-4.9h0.9l1.7,2.6
			c0.1,0.2,0.3,0.4,0.3,0.6c0-0.2,0-0.8,0-1.1v-2.1h1v4.9H251.3z"/>
		<path fill="#A9B8C6" d="M254.2,81.8h-1.5v-4.9h1.5c1.4,0,2.4,0.7,2.4,2.5C256.7,81.1,255.4,81.8,254.2,81.8z M254.2,77.9h-0.5v3
			h0.5c1,0,1.5-0.6,1.5-1.5C255.7,78.4,255.2,77.9,254.2,77.9z"/>
		<path fill="#A9B8C6" d="M257,81.8v-4.9h1v4.9H257z"/>
		<path fill="#A9B8C6" d="M261.7,81.8l-1.8-2.7c-0.1-0.2-0.3-0.4-0.3-0.6c0,0.2,0,0.8,0,1.1v2.2h-1v-4.9h0.9l1.7,2.6
			c0.1,0.2,0.3,0.4,0.3,0.6c0-0.2,0-0.8,0-1.1v-2.1h1v4.9H261.7z"/>
		<path fill="#A9B8C6" d="M265,81.9c-1.3,0-2.1-1-2.1-2.5c0-1.5,0.9-2.5,2.2-2.5c1,0,1.5,0.5,1.9,1.2l-0.9,0.4
			c-0.2-0.4-0.4-0.6-0.9-0.6c-0.7,0-1.2,0.6-1.2,1.6c0,0.9,0.4,1.6,1.2,1.6c0.7,0,0.9-0.3,1-0.7h-0.8v-0.9h1.8v0.6
			C267,81.2,266.2,81.9,265,81.9z"/>
	</g>
</g>
<g>
	<g>
		<path fill="#A9B8C6" d="M90.6,25.9V7.3h-4.4V3.6c2.9-0.1,4.7-1.2,5.3-3.3h4.3v25.7H90.6z"/>
		<path fill="#A9B8C6" d="M107.8,26.3c-7,0-10.8-5.4-10.8-13.3s3.8-13.3,10.8-13.3s10.8,5.4,10.8,13.2S114.8,26.3,107.8,26.3z
			 M107.8,4.8c-3.9,0-5.5,3.6-5.5,8.2s1.7,8.3,5.6,8.3s5.6-3.6,5.6-8.2S111.7,4.8,107.8,4.8z"/>
	</g>
	<g>
		<path fill="#A9B8C6" d="M125.6,8.5c-1.4,0-2.6-0.6-3.3-1.5l1.2-1.1c0.6,0.7,1.3,1,2.2,1c1,0,1.5-0.3,1.5-0.9
			c0-0.5-0.3-0.8-1.9-1.1c-1.6-0.4-2.6-0.9-2.6-2.5c0-1.5,1.3-2.5,3-2.5c1.3,0,2.3,0.5,3.1,1.3l-1.2,1.2c-0.5-0.6-1.1-0.9-1.9-0.9
			c-0.9,0-1.2,0.4-1.2,0.8c0,0.5,0.4,0.7,1.7,1c1.3,0.3,2.8,0.8,2.8,2.6C129,7.5,127.9,8.5,125.6,8.5z"/>
		<path fill="#A9B8C6" d="M135.4,8.4l-2.3-4.1l-1.3,1.6v2.5h-1.7V0h1.7v2.4c0,0.3,0,1.1,0,1.3c0.1-0.2,0.4-0.6,0.7-0.9l2.4-2.9h2
			l-2.5,2.9l3.1,5.5H135.4z"/>
		<path fill="#A9B8C6" d="M138.3,8.4V0h1.7v8.4H138.3z"/>
		<path fill="#A9B8C6" d="M141.7,8.4V0h1.7v6.8h4.2v1.7H141.7z"/>
		<path fill="#A9B8C6" d="M148.5,8.4V0h1.7v6.8h4.2v1.7H148.5z"/>
		<path fill="#A9B8C6" d="M158.3,8.5c-1.4,0-2.6-0.6-3.3-1.5l1.2-1.1c0.6,0.7,1.3,1,2.2,1c1,0,1.5-0.3,1.5-0.9
			c0-0.5-0.3-0.8-1.9-1.1c-1.6-0.4-2.6-0.9-2.6-2.5c0-1.5,1.3-2.5,3-2.5c1.3,0,2.3,0.5,3.1,1.3l-1.2,1.2c-0.5-0.6-1.1-0.9-1.9-0.9
			c-0.9,0-1.2,0.4-1.2,0.8c0,0.5,0.4,0.7,1.7,1c1.3,0.3,2.8,0.8,2.8,2.6C161.6,7.5,160.6,8.5,158.3,8.5z"/>
		<path fill="#A9B8C6" d="M171.2,8.4l-0.7-1.9h-3.1l-0.7,1.9H165l3.2-8.4h1.6l3.2,8.4H171.2z M169.5,3.4c-0.2-0.5-0.3-1-0.4-1.3
			c-0.1,0.3-0.3,0.8-0.4,1.3l-0.5,1.5h1.9L169.5,3.4z"/>
		<path fill="#A9B8C6" d="M179.4,8.4l-3.1-4.6c-0.2-0.3-0.5-0.7-0.6-1c0,0.3,0,1.4,0,1.8v3.7h-1.7V0h1.6l3,4.4
			c0.2,0.3,0.5,0.7,0.6,1c0-0.3,0-1.4,0-1.8V0h1.7v8.4H179.4z"/>
		<path fill="#A9B8C6" d="M184.9,8.4h-2.5V0h2.6c2.4,0,4.2,1.1,4.2,4.2C189.3,7.2,187.1,8.4,184.9,8.4z M185,1.6h-0.9v5.1h0.8
			c1.8,0,2.6-1,2.6-2.6C187.5,2.5,186.8,1.6,185,1.6z"/>
		<path fill="#A9B8C6" d="M198.9,7.4l0.6,0.9l-1.3,0.8l-0.6-0.9c-0.4,0.2-0.8,0.2-1.3,0.2c-2.3,0-3.7-1.8-3.7-4.3
			c0-2.6,1.4-4.3,3.7-4.3c2.3,0,3.7,1.8,3.7,4.3C200.1,5.7,199.7,6.7,198.9,7.4z M196.4,1.5c-1.4,0-1.9,1.2-1.9,2.7
			c0,1.5,0.6,2.8,2,2.8c0.1,0,0.2,0,0.3,0l-0.6-0.8l1.3-0.8l0.5,0.8c0.3-0.5,0.3-1.1,0.3-1.9C198.4,2.7,197.8,1.5,196.4,1.5z"/>
		<path fill="#A9B8C6" d="M204.6,8.5c-2,0-3.4-1.4-3.4-3.8V0h1.7v4.7c0,1.3,0.6,2.2,1.7,2.2s1.7-0.8,1.7-2.2V0h1.7v4.7
			C208,7.1,206.7,8.5,204.6,8.5z"/>
		<path fill="#A9B8C6" d="M214.7,8.4L214,6.5h-3.1l-0.7,1.9h-1.8l3.2-8.4h1.6l3.2,8.4H214.7z M212.9,3.4c-0.2-0.5-0.3-1-0.4-1.3
			c-0.1,0.3-0.3,0.8-0.4,1.3l-0.5,1.5h1.9L212.9,3.4z"/>
		<path fill="#A9B8C6" d="M217.5,8.4V0h1.7v6.8h4.2v1.7H217.5z"/>
		<path fill="#A9B8C6" d="M224.5,8.4V0h1.7v8.4H224.5z"/>
		<path fill="#A9B8C6" d="M231.4,1.7v6.8h-1.7V1.7h-2.4V0h6.5v1.7H231.4z"/>
		<path fill="#A9B8C6" d="M234.9,8.4V0h1.7v8.4H234.9z"/>
		<path fill="#A9B8C6" d="M238.3,8.4V0h5.8v1.6H240v1.5h2.4v1.6H240v2h4.3v1.6H238.3z"/>
		<path fill="#A9B8C6" d="M248.2,8.5c-1.4,0-2.6-0.6-3.3-1.5l1.2-1.1c0.6,0.7,1.3,1,2.2,1c1,0,1.5-0.3,1.5-0.9
			c0-0.5-0.3-0.8-1.9-1.1c-1.6-0.4-2.6-0.9-2.6-2.5c0-1.5,1.3-2.5,3-2.5c1.3,0,2.3,0.5,3.1,1.3l-1.2,1.2c-0.5-0.6-1.1-0.9-1.9-0.9
			c-0.9,0-1.2,0.4-1.2,0.8c0,0.5,0.4,0.7,1.7,1c1.3,0.3,2.8,0.8,2.8,2.6C251.5,7.5,250.5,8.5,248.2,8.5z"/>
	</g>
	<g>
		<path fill="#A9B8C6" d="M125.3,14.4v2.7h4.3v2.8h-4.3v6h-2.9V11.6h10.2v2.8H125.3z"/>
		<path fill="#A9B8C6" d="M138.9,26.2c-3.9,0-6.2-3-6.2-7.4c0-4.4,2.3-7.4,6.2-7.4s6.2,3,6.2,7.4C145.2,23.1,142.8,26.2,138.9,26.2z
			 M138.9,14.2c-2.3,0-3.3,2-3.3,4.5c0,2.6,1,4.5,3.3,4.5s3.3-2,3.3-4.5C142.2,16.2,141.3,14.2,138.9,14.2z"/>
		<path fill="#A9B8C6" d="M155.4,25.9l-2.6-5.1h-2.9v5.1h-2.9V11.6h6.7c2.7,0,4.9,1.5,4.9,4.5c0,2.1-0.9,3.5-2.7,4.2l2.7,5.6H155.4z
			 M153.7,14.4h-3.7v3.7h3.7c1.3,0,2-0.6,2-1.9C155.7,14.9,154.9,14.4,153.7,14.4z"/>
		<path fill="#A9B8C6" d="M170.4,26.2c-2.4,0-4.5-1-5.6-2.6l2.1-1.8c1,1.2,2.3,1.6,3.7,1.6c1.7,0,2.5-0.5,2.5-1.6
			c0-0.9-0.5-1.3-3.2-1.9c-2.6-0.6-4.5-1.5-4.5-4.3c0-2.6,2.3-4.2,5.1-4.2c2.2,0,3.9,0.8,5.2,2.2l-2.1,2c-0.9-0.9-1.9-1.5-3.2-1.5
			c-1.5,0-2,0.7-2,1.3c0,0.9,0.6,1.2,2.9,1.7c2.3,0.5,4.8,1.3,4.8,4.4C176,24.3,174.3,26.2,170.4,26.2z"/>
		<path fill="#A9B8C6" d="M183.7,26.2c-3.5,0-5.8-2.3-5.8-6.5v-8h2.9v8c0,2.3,1.1,3.7,2.9,3.7s2.9-1.4,2.9-3.7v-8h2.9v8
			C189.5,23.8,187.3,26.2,183.7,26.2z"/>
		<path fill="#A9B8C6" d="M200.2,15.8c-0.5-1-1.3-1.6-2.6-1.6c-2.1,0-3.4,1.9-3.4,4.5c0,2.6,1.2,4.5,3.4,4.5c1.3,0,2-0.6,2.8-1.8
			l2.4,1.4c-1,2-2.7,3.2-5.3,3.2c-3.7,0-6.3-2.9-6.3-7.4c0-4.4,2.6-7.4,6.4-7.4c2.7,0,4.3,1.3,5.2,3.2L200.2,15.8z"/>
		<path fill="#A9B8C6" d="M212.4,15.8c-0.5-1-1.3-1.6-2.6-1.6c-2.1,0-3.4,1.9-3.4,4.5c0,2.6,1.2,4.5,3.4,4.5c1.3,0,2-0.6,2.8-1.8
			l2.4,1.4c-1,2-2.7,3.2-5.3,3.2c-3.7,0-6.3-2.9-6.3-7.4c0-4.4,2.6-7.4,6.4-7.4c2.7,0,4.3,1.3,5.2,3.2L212.4,15.8z"/>
		<path fill="#A9B8C6" d="M216.9,25.9V11.6h9.9v2.8h-7.1v2.5h4.1v2.8h-4.1v3.5h7.4v2.8H216.9z"/>
		<path fill="#A9B8C6" d="M233.7,26.2c-2.4,0-4.5-1-5.6-2.6l2.1-1.8c1,1.2,2.3,1.6,3.7,1.6c1.7,0,2.5-0.5,2.5-1.6
			c0-0.9-0.5-1.3-3.2-1.9c-2.6-0.6-4.5-1.5-4.5-4.3c0-2.6,2.3-4.2,5.1-4.2c2.2,0,3.9,0.8,5.2,2.2l-2.1,2c-0.9-0.9-1.9-1.5-3.2-1.5
			c-1.5,0-2,0.7-2,1.3c0,0.9,0.6,1.2,2.9,1.7c2.3,0.5,4.8,1.3,4.8,4.4C239.3,24.3,237.6,26.2,233.7,26.2z"/>
		<path fill="#A9B8C6" d="M245.9,26.2c-2.4,0-4.5-1-5.6-2.6l2.1-1.8c1,1.2,2.3,1.6,3.7,1.6c1.7,0,2.5-0.5,2.5-1.6
			c0-0.9-0.5-1.3-3.2-1.9c-2.6-0.6-4.5-1.5-4.5-4.3c0-2.6,2.3-4.2,5.1-4.2c2.2,0,3.9,0.8,5.2,2.2l-2.1,2c-0.9-0.9-1.9-1.5-3.2-1.5
			c-1.5,0-2,0.7-2,1.3c0,0.9,0.6,1.2,2.9,1.7c2.3,0.5,4.8,1.3,4.8,4.4C251.5,24.3,249.8,26.2,245.9,26.2z"/>
	</g>
</g>
<g>
	<g>
		<path fill="#A9B8C6" d="M132.6,159.8c-1.4,0-2.6-0.6-3.3-1.5l1.2-1.1c0.6,0.7,1.3,1,2.2,1c1,0,1.5-0.3,1.5-0.9
			c0-0.5-0.3-0.8-1.9-1.1c-1.6-0.4-2.6-0.9-2.6-2.5c0-1.5,1.3-2.5,3-2.5c1.3,0,2.3,0.5,3.1,1.3l-1.2,1.2c-0.5-0.6-1.1-0.9-1.9-0.9
			c-0.9,0-1.2,0.4-1.2,0.8c0,0.5,0.4,0.7,1.7,1c1.3,0.3,2.8,0.8,2.8,2.6C135.9,158.7,134.9,159.8,132.6,159.8z"/>
		<path fill="#A9B8C6" d="M140.2,159.8c-2.3,0-3.7-1.8-3.7-4.3c0-2.6,1.4-4.3,3.7-4.3c2.3,0,3.7,1.8,3.7,4.3
			C143.9,158,142.5,159.8,140.2,159.8z M140.2,152.8c-1.4,0-1.9,1.2-1.9,2.7s0.6,2.7,1.9,2.7c1.4,0,1.9-1.2,1.9-2.7
			S141.6,152.8,140.2,152.8z"/>
		<path fill="#A9B8C6" d="M149.8,153.7c-0.3-0.6-0.8-0.9-1.5-0.9c-1.3,0-2,1.1-2,2.7c0,1.5,0.7,2.7,2,2.7c0.8,0,1.2-0.3,1.6-1.1
			l1.4,0.8c-0.6,1.2-1.6,1.9-3.1,1.9c-2.2,0-3.7-1.7-3.7-4.3c0-2.6,1.5-4.3,3.7-4.3c1.6,0,2.5,0.8,3.1,1.9L149.8,153.7z"/>
		<path fill="#A9B8C6" d="M152.6,159.7v-8.4h1.7v8.4H152.6z"/>
		<path fill="#A9B8C6" d="M161.6,159.7l-0.7-1.9h-3.1l-0.7,1.9h-1.8l3.2-8.4h1.6l3.2,8.4H161.6z M159.8,154.7
			c-0.2-0.5-0.3-1-0.4-1.3c-0.1,0.3-0.3,0.8-0.4,1.3l-0.5,1.5h1.9L159.8,154.7z"/>
		<path fill="#A9B8C6" d="M164.4,159.7v-8.4h1.7v6.8h4.2v1.7H164.4z"/>
		<path fill="#A9B8C6" d="M180.3,159.7v-3.1c0-0.5,0-1.5,0-1.9c-0.1,0.3-0.4,0.9-0.6,1.4l-1.7,3.7l-1.7-3.7
			c-0.2-0.5-0.5-1.1-0.6-1.4c0,0.3,0,1.4,0,1.9v3.1h-1.6v-8.4h1.6l1.8,3.8c0.2,0.5,0.5,1.1,0.6,1.4c0.1-0.3,0.3-0.9,0.6-1.4l1.7-3.8
			h1.7v8.4H180.3z"/>
		<path fill="#A9B8C6" d="M183.6,159.7v-8.4h5.8v1.6h-4.2v1.5h2.4v1.6h-2.4v2h4.3v1.6H183.6z"/>
		<path fill="#A9B8C6" d="M193.3,159.7h-2.5v-8.4h2.6c2.4,0,4.2,1.1,4.2,4.2C197.6,158.4,195.5,159.7,193.3,159.7z M193.4,152.9
			h-0.9v5.1h0.8c1.8,0,2.6-1,2.6-2.6C195.9,153.8,195.1,152.9,193.4,152.9z"/>
		<path fill="#A9B8C6" d="M198.8,159.7v-8.4h1.7v8.4H198.8z"/>
		<path fill="#A9B8C6" d="M207.8,159.7l-0.7-1.9H204l-0.7,1.9h-1.8l3.2-8.4h1.6l3.2,8.4H207.8z M206,154.7c-0.2-0.5-0.3-1-0.4-1.3
			c-0.1,0.3-0.3,0.8-0.4,1.3l-0.5,1.5h1.9L206,154.7z"/>
	</g>
	<g>
		<path fill="#A9B8C6" d="M137.1,171.7v-3.9c0-0.6,0-1.9,0-2.3c-0.2,0.4-0.5,1.2-0.7,1.8l-2.2,4.7l-2.2-4.7
			c-0.3-0.6-0.6-1.4-0.7-1.8c0,0.4,0,1.8,0,2.3v3.9h-2.1v-10.6h2l2.2,4.8c0.3,0.6,0.6,1.4,0.7,1.8c0.1-0.4,0.4-1.2,0.7-1.8l2.1-4.8
			h2.1v10.6H137.1z"/>
		<path fill="#A9B8C6" d="M148.3,171.7l-0.8-2.4h-3.9l-0.8,2.4h-2.3l4.1-10.6h2.1l4,10.6H148.3z M146,165.4
			c-0.2-0.6-0.4-1.3-0.5-1.7c-0.1,0.4-0.3,1-0.5,1.7l-0.7,1.9h2.4L146,165.4z"/>
		<path fill="#A9B8C6" d="M158.5,171.7l-3.9-5.8c-0.3-0.4-0.6-0.9-0.7-1.2c0,0.4,0,1.7,0,2.3v4.7h-2.1v-10.6h2l3.8,5.6
			c0.3,0.4,0.6,0.9,0.7,1.2c0-0.4,0-1.7,0-2.3v-4.5h2.1v10.6H158.5z"/>
		<path fill="#A9B8C6" d="M169.5,171.7l-0.8-2.4h-3.9l-0.8,2.4h-2.3l4.1-10.6h2.1l4,10.6H169.5z M167.2,165.4
			c-0.2-0.6-0.4-1.3-0.5-1.7c-0.1,0.4-0.3,1-0.5,1.7l-0.7,1.9h2.4L167.2,165.4z"/>
		<path fill="#A9B8C6" d="M176.7,171.9c-2.8,0-4.6-2.1-4.6-5.5c0-3.2,1.9-5.5,4.7-5.5c2.2,0,3.3,1,4,2.7l-2,0.8
			c-0.4-0.8-0.9-1.4-2-1.4c-1.6,0-2.5,1.4-2.5,3.4c0,2,0.9,3.4,2.5,3.4c1.5,0,2-0.7,2.1-1.6h-1.7v-2h3.8v1.4
			C181,170.3,179.2,171.9,176.7,171.9z"/>
		<path fill="#A9B8C6" d="M182.5,171.7v-10.6h7.4v2.1h-5.2v1.8h3v2.1h-3v2.6h5.5v2.1H182.5z"/>
		<path fill="#A9B8C6" d="M197.7,171.7l-1.9-3.8h-2.1v3.8h-2.1v-10.6h4.9c2,0,3.7,1.1,3.7,3.4c0,1.6-0.7,2.6-2,3.1l2,4.1H197.7z
			 M196.5,163.2h-2.8v2.7h2.8c1,0,1.5-0.5,1.5-1.4C198,163.6,197.4,163.2,196.5,163.2z"/>
		<path fill="#A9B8C6" d="M205.2,171.9c-1.8,0-3.3-0.7-4.1-1.9l1.5-1.4c0.7,0.9,1.7,1.2,2.7,1.2c1.3,0,1.8-0.3,1.8-1.2
			c0-0.7-0.4-1-2.4-1.4c-2-0.5-3.3-1.1-3.3-3.2c0-1.9,1.7-3.1,3.8-3.1c1.7,0,2.9,0.6,3.9,1.7l-1.5,1.5c-0.7-0.7-1.4-1.1-2.4-1.1
			c-1.1,0-1.5,0.5-1.5,1c0,0.7,0.5,0.9,2.1,1.3c1.7,0.4,3.5,1,3.5,3.3C209.4,170.5,208.1,171.9,205.2,171.9z"/>
	</g>
</g>
<g>
	<g>
		<g>
			<rect x="97.7" y="48.8" fill="none" width="3" height="1.7"/>
		</g>
		<g>
			<path fill="none" d="M92.2,49.8c-2.8,0-5.1,2.3-5.1,5.1c0,2.8,2.3,5.1,5.1,5.1c2.8,0,5.1-2.3,5.1-5.1
				C97.3,52.1,95.1,49.8,92.2,49.8z M92.2,58.6c-2,0-3.7-1.7-3.7-3.7s1.7-3.7,3.7-3.7s3.7,1.7,3.7,3.7S94.3,58.6,92.2,58.6z"/>
		</g>
		<g>
			<path fill="#A9B8C6" d="M92.2,51.2c-2,0-3.7,1.7-3.7,3.7s1.7,3.7,3.7,3.7s3.7-1.7,3.7-3.7S94.3,51.2,92.2,51.2z"/>
		</g>
		<g>
			<path fill="#A9B8C6" d="M102,47.5h-4.2V47c0-0.9-0.8-1.7-1.7-1.7h-2.3c-0.9,0-1.7,0.8-1.7,1.7v0.5h-7v-0.7h-2.3v0.7h-0.5
				c-0.8,0-1.4,0.6-1.4,1.4v11.3c0,0.8,0.6,1.4,1.4,1.4H102c0.8,0,1.4-0.6,1.4-1.4V48.9C103.4,48.1,102.8,47.5,102,47.5z M92.2,60
				c-2.8,0-5.1-2.3-5.1-5.1c0-2.8,2.3-5.1,5.1-5.1c2.8,0,5.1,2.3,5.1,5.1C97.3,57.7,95.1,60,92.2,60z M100.7,50.5h-3v-1.7h3V50.5z"
				/>
		</g>
	</g>
	<g>
		<g>
			<path fill="#A9B8C6" d="M92.3,73.3c-10.9,0-19.8-8.9-19.8-19.8s8.9-19.8,19.8-19.8s19.8,8.9,19.8,19.8S103.2,73.3,92.3,73.3z
				 M92.3,35.7c-9.8,0-17.8,8-17.8,17.8s8,17.8,17.8,17.8s17.8-8,17.8-17.8S102.1,35.7,92.3,35.7z"/>
		</g>
	</g>
	<g>
		<path fill="#A9B8C6" d="M77.7,81v-1.8c0-0.3,0-0.9,0-1.1c-0.1,0.2-0.2,0.5-0.3,0.8l-1,2.2l-1-2.2c-0.1-0.3-0.3-0.6-0.3-0.8
			c0,0.2,0,0.8,0,1.1V81h-1v-4.9H75l1,2.2c0.1,0.3,0.3,0.6,0.3,0.8c0.1-0.2,0.2-0.5,0.3-0.8l1-2.2h1V81H77.7z"/>
		<path fill="#A9B8C6" d="M81.2,81.1c-1.2,0-2-0.8-2-2.2v-2.8h1v2.7c0,0.8,0.4,1.3,1,1.3c0.6,0,1-0.5,1-1.3v-2.8h1v2.7
			C83.2,80.3,82.4,81.1,81.2,81.1z"/>
		<path fill="#A9B8C6" d="M83.7,81v-4.9h1V80h2.5v1H83.7z"/>
		<path fill="#A9B8C6" d="M88.5,77.1V81h-1v-3.9h-1.4v-1h3.8v1H88.5z"/>
		<path fill="#A9B8C6" d="M90.2,81v-4.9h1V81H90.2z"/>
		<path fill="#A9B8C6" d="M95.4,81v-1.8c0-0.3,0-0.9,0-1.1c-0.1,0.2-0.2,0.5-0.3,0.8l-1,2.2l-1-2.2c-0.1-0.3-0.3-0.6-0.3-0.8
			c0,0.2,0,0.8,0,1.1V81h-1v-4.9h0.9l1,2.2c0.1,0.3,0.3,0.6,0.3,0.8c0.1-0.2,0.2-0.5,0.3-0.8l1-2.2h1V81H95.4z"/>
		<path fill="#A9B8C6" d="M96.9,81v-4.9h3.4v1h-2.4v0.8h1.4v1h-1.4V80h2.5v1H96.9z"/>
		<path fill="#A9B8C6" d="M102.3,81h-1.5v-4.9h1.5c1.4,0,2.4,0.7,2.4,2.5C104.8,80.3,103.5,81,102.3,81z M102.3,77h-0.5v3h0.5
			c1,0,1.5-0.6,1.5-1.5C103.8,77.5,103.3,77,102.3,77z"/>
		<path fill="#A9B8C6" d="M105.1,81v-4.9h1V81H105.1z"/>
		<path fill="#A9B8C6" d="M110,81l-0.4-1.1h-1.8l-0.4,1.1h-1l1.9-4.9h1l1.9,4.9H110z M108.9,78.1c-0.1-0.3-0.2-0.6-0.2-0.8
			c0,0.2-0.1,0.5-0.2,0.8l-0.3,0.9h1.1L108.9,78.1z"/>
	</g>
</g>
<g>
	<g>
		<path fill="#A9B8C6" d="M298.2,107c-0.1,1.3-0.4,2.6-1.1,3.7c-0.4,0.6-0.5,1.3-0.9,2c-0.2,0.4-0.6,0.8-0.9,1.1
			c-0.9,0.8-1.7,1.7-2.7,2.4c-0.7,0.5-1.6,0.8-2.4,0.8c-1.2,0-2.6,0.4-3.7-0.5c0,0-0.1,0-0.2,0c-1.1,0.1-2.2,0.3-3.3,0.4
			c-0.6,0.1-1.4,0.1-1.9-0.1c-2.4-1.2-4.6-2.6-5.1-5.5c0-0.2-0.1-0.4-0.2-0.6c-0.7-1-1-2.2-0.9-3.5c0.3-2.4,0-4.9,1.6-6.9
			c0.1-0.2,0.2-0.4,0.4-0.5c1.5-1.2,2.7-2.7,4-4.1c1.5-1.5,3-1.7,5-0.8c0.3,0.1,0.8,0.1,1-0.1c1.3-0.9,2.6-0.9,4-0.1
			c0.4,0.3,0.8,0.5,1.1,0.9c1.4,1.5,2.8,2.9,4,4.5c0.5,0.7,0.8,1.6,1.1,2.5C297.6,104.2,297.9,105.6,298.2,107z M277.1,103.4
			c2.3-0.6,3.5,0.8,4.3,2.4c0.1,0.2,0,0.6-0.1,0.9c-0.3-0.1-0.6-0.2-0.8-0.4c-0.5-0.5-0.9-1.2-1.4-1.7c-0.6-0.6-1.8-0.4-2.1,0.3
			c-0.6,1.4-0.5,2.9,0,4.4c0.2,0.6,0.6,0.5,1.1,0.3c0.5-0.2,0.8-0.4,0.5-0.9c-0.2-0.5-0.5-1-0.6-1.5c-0.1-0.2,0.1-0.6,0.1-0.9
			c0.3,0.1,0.6,0.2,0.8,0.4c0.3,0.4,0.4,0.8,0.6,1.2c0.6,1.6,0.5,2-1.1,2.7c-0.6,0.3-0.7,0.6-0.5,1.1c0.7,2,2.5,2.8,4.2,3.6
			c0.3,0.1,0.7-0.1,1.1-0.1c-0.1-1,0.2-2.1-1.1-2.4c-0.1,0-0.3-0.5-0.3-0.6c0.2-0.2,0.5-0.5,0.7-0.4c0.6,0.2,0.9,0,1.3-0.4
			c0.1-0.1,0.6-0.2,0.7-0.1c0.1,0.1,0.2,0.6,0.1,0.7c-1,1,0,2.1-0.3,3.1c1.2,0.1,1.7-0.3,1.7-1.3c0-1,0-2.1,0-3.1
			c0-0.5-0.2-0.8-0.7-1c-1.2-0.8-2.2-0.9-3.1,0.3c-0.1,0.1-0.1,0.2-0.2,0.2c-0.2,0-0.4,0-0.6-0.2c-0.1-0.1-0.1-0.4-0.1-0.5
			c0.1-0.3,0.4-0.5,0.6-0.7c0.9-0.5,1.2-1.2,1.1-2.2c-0.1-0.5-0.3-1.5,0.6-1.5c0.8,0,0.4,0.9,0.5,1.4c0,1.4,0.4,1.8,1.8,2.1
			c0-2.2,0-4.4,0-6.7c-0.1-0.1-0.1-0.1-0.2-0.2c-0.7,0.5-1.3,1-2,1.4c-0.3,0.2-0.6,0.2-0.9,0.3c0-0.3,0-0.8,0.2-1
			c0.5-0.5,1-1,1.6-1.2c1.4-0.4,1.7-1.2,1.5-2.5c0-0.1,0-0.2,0-0.4c0.2-0.9-0.3-1.4-1-1.8c-0.8-0.4-1.7-0.6-2.4,0.1
			c-0.7,0.7-1.4,1.4-2,2.2c-0.5,0.6-0.2,1.2,0.4,1.7c0.4-0.4,0.8-0.7,1.2-1.1c0.4-0.4,0.7-0.8,1.1-1.1c0.2-0.1,0.6-0.1,0.9-0.1
			c0,0.3,0,0.7-0.1,0.8c-0.5,0.6-1,1.1-1.6,1.6c-1.5,1.4-2,1.3-3-0.5c0,0-0.1-0.1-0.2-0.1C278.2,100.9,277.5,101.9,277.1,103.4z
			 M295.2,110.8c-0.4-0.2-0.9-0.3-1.2-0.6c-0.3-0.3-0.8-0.9-0.7-1.2c0.2-0.8,0.6-1.7,1-2.4c0.1-0.2,0.5-0.2,0.7-0.3
			c0.1,0.3,0.2,0.6,0.1,0.9c-0.2,0.5-0.5,1-0.7,1.5c-0.2,0.6,0.2,0.8,0.6,1c0.5,0.2,0.7,0,0.9-0.4c0.4-1.3,0.5-2.6,0.1-3.9
			c-0.3-1.1-1.4-1.4-2.2-0.6c-0.5,0.5-0.8,1.1-1.2,1.6c-0.2,0.2-0.5,0.3-0.8,0.5c0-0.3-0.2-0.8-0.1-1c0.8-1.4,1.7-2.7,3.7-2.5
			c-0.1-1.3-0.8-2.1-1.5-2.8c-0.4-0.4-0.6-0.5-1.1-0.1c-1.4,1.1-3.6,0.3-4.1-1.4c-0.1-0.2,0-0.6,0.1-0.6c0.2-0.1,0.5-0.1,0.7,0.1
			c0.2,0.2,0.3,0.5,0.5,0.7c0.8,0.9,1.4,0.9,2.3,0.1c-0.6-1.1-1.4-2.2-2.6-2.8c-1.2-0.7-2.7,0.2-2.7,1.5c0,1.9,0,3.7,0,5.6
			c0,0.2,0.1,0.5,0.1,0.7c1.3-0.2,1.1-1.1,1.2-2c0-0.2,0.3-0.5,0.4-0.7c0.2,0.2,0.6,0.5,0.6,0.7c-0.1,1.1,0.2,1.9,1.1,2.4
			c0.2,0.1,0.1,0.6,0.2,0.8c-0.3,0-0.7,0.1-0.9-0.1c-0.8-1-1.5-0.5-2.3-0.1c-0.8,0.4-0.3,1.1-0.4,1.7c0,0.2,0.5,0.4,0.8,0.5
			c0.6,0.3,1.2,0.5,1.8,0.8c0.2,0.1,0.2,0.5,0.3,0.8c-0.3,0-0.6,0.1-0.9,0c-0.6-0.2-1.2-0.5-2-0.8c0,2.2,0,4.2,0,6.1
			c0,0.3,0.5,0.8,0.7,0.8c1,0.1,2.1,0,3.2-0.1c0.1,0,0.3-0.2,0.4-0.2c0.6-0.4,0.6-0.9,0.1-1.4c-0.6-0.6-1.2-0.9-2-0.8
			c-0.2,0-0.5-0.3-0.7-0.4c0.2-0.2,0.4-0.5,0.7-0.6c0.3-0.1,0.7-0.1,1.1-0.1c0-0.2,0-0.4,0.1-0.5c0.2-0.3,0.5-0.7,0.7-0.7
			c0.6,0.1,0.5,0.6,0.3,1c-0.1,0.4,0.7,1.7,1.1,1.9c0.1,0,0.3,0,0.4-0.1C294.1,112.6,294.9,112,295.2,110.8z"/>
		<g>
			<path fill="#A9B8C6" d="M286.6,85.9c10.9,0,19.8,8.9,19.8,19.8s-8.9,19.8-19.8,19.8s-19.8-8.9-19.8-19.8S275.6,85.9,286.6,85.9z
				 M286.6,123.5c9.8,0,17.8-8,17.8-17.8s-8-17.8-17.8-17.8s-17.8,8-17.8,17.8S276.7,123.5,286.6,123.5z"/>
		</g>
	</g>
	<g>
		<path fill="#A9B8C6" d="M272.9,133.5c-0.8,0-1.5-0.3-1.9-0.9l0.7-0.6c0.3,0.4,0.8,0.6,1.3,0.6c0.6,0,0.9-0.2,0.9-0.5
			c0-0.3-0.2-0.5-1.1-0.7c-0.9-0.2-1.5-0.5-1.5-1.5c0-0.9,0.8-1.4,1.8-1.4c0.8,0,1.3,0.3,1.8,0.8l-0.7,0.7c-0.3-0.3-0.7-0.5-1.1-0.5
			c-0.5,0-0.7,0.2-0.7,0.4c0,0.3,0.2,0.4,1,0.6c0.8,0.2,1.6,0.4,1.6,1.5C274.8,132.8,274.2,133.5,272.9,133.5z"/>
		<path fill="#A9B8C6" d="M277,129.5v3.9h-1v-3.9h-1.4v-1h3.8v1H277z"/>
		<path fill="#A9B8C6" d="M281.5,133.4l-0.9-1.8h-1v1.8h-1v-4.9h2.3c0.9,0,1.7,0.5,1.7,1.6c0,0.7-0.3,1.2-0.9,1.4l0.9,1.9H281.5z
			 M280.9,129.4h-1.3v1.3h1.3c0.5,0,0.7-0.2,0.7-0.6C281.6,129.6,281.3,129.4,280.9,129.4z"/>
		<path fill="#A9B8C6" d="M286.1,133.4l-0.4-1.1h-1.8l-0.4,1.1h-1.1l1.9-4.9h1l1.9,4.9H286.1z M285.1,130.5
			c-0.1-0.3-0.2-0.6-0.2-0.8c0,0.2-0.1,0.5-0.2,0.8l-0.3,0.9h1.1L285.1,130.5z"/>
		<path fill="#A9B8C6" d="M288.8,129.5v3.9h-1v-3.9h-1.4v-1h3.8v1H288.8z"/>
		<path fill="#A9B8C6" d="M290.5,133.4v-4.9h3.4v1h-2.4v0.8h1.4v1h-1.4v1.2h2.5v1H290.5z"/>
		<path fill="#A9B8C6" d="M296,133.5c-1.3,0-2.1-1-2.1-2.5c0-1.5,0.9-2.5,2.2-2.5c1,0,1.5,0.5,1.9,1.2l-0.9,0.4
			c-0.2-0.4-0.4-0.6-0.9-0.6c-0.7,0-1.2,0.6-1.2,1.6c0,0.9,0.4,1.6,1.2,1.6c0.7,0,0.9-0.3,1-0.7h-0.8v-0.9h1.8v0.6
			C297.9,132.8,297.1,133.5,296,133.5z"/>
		<path fill="#A9B8C6" d="M300.3,131.5v1.9h-1v-1.9l-1.9-3h1.1l0.7,1.2c0.2,0.3,0.4,0.8,0.5,1c0.1-0.2,0.4-0.7,0.5-1l0.7-1.2h1.1
			L300.3,131.5z"/>
	</g>
</g>
<g>
	<g>
		<g>
			<g>
				<polygon fill="#A9B8C6" points="324.3,166.3 322.3,166.3 322.3,165.2 323.1,165.2 323.1,145.1 307.5,145.1 307.5,165.2 
					313.1,165.2 313.1,166.3 306.4,166.3 306.4,143.9 324.3,143.9 				"/>
			</g>
			<g>
				<path fill="#A9B8C6" d="M314.1,159.6c0,0-0.2-2,0.7-2.4c0.8-0.4,1.7,0,1.7,0s0.7-0.9,1.5-0.8c0.8,0.2,1.4,0.8,1.4,0.8
					s1.1-0.3,1.4,0.1s0.9,1.5,0.7,2.3c0,0,1.4,0.3,0.6,1.9l-0.4,0.7c0,0,0,2.3-0.6,2.4l2,4.4h-1.6l-0.5,1.6l-2.4-4.9h-1.3l-1.2,3.4
					l-0.8-1.5l-1.2,0.4l0.8-3.3c0,0-1.6-1.9-1.1-2.5C313.7,162.2,312.3,159.8,314.1,159.6z"/>
			</g>
			<g>
				<line fill="#A9B8C6" x1="310.1" y1="148.3" x2="320.3" y2="148.3"/>
				<rect x="310.1" y="147.9" fill="#A9B8C6" width="10.3" height="0.8"/>
			</g>
			<g>
				<line fill="#A9B8C6" x1="310.1" y1="150.9" x2="320.3" y2="150.9"/>
				<rect x="310.1" y="150.5" fill="#A9B8C6" width="10.3" height="0.8"/>
			</g>
			<g>
				<line fill="#A9B8C6" x1="310.1" y1="153.4" x2="320.3" y2="153.4"/>
				<rect x="310.1" y="153" fill="#A9B8C6" width="10.3" height="0.8"/>
			</g>
		</g>
		<g>
			<path fill="#A9B8C6" d="M315.3,137.5c10.9,0,19.8,8.9,19.8,19.8s-8.9,19.8-19.8,19.8s-19.8-8.9-19.8-19.8
				S304.4,137.5,315.3,137.5z M315.3,175.1c9.8,0,17.8-8,17.8-17.8s-8-17.8-17.8-17.8s-17.8,8-17.8,17.8S305.5,175.1,315.3,175.1z"
				/>
		</g>
	</g>
	<g>
		<path fill="#A9B8C6" d="M304,183.2H303v1.7h-1v-4.9h2.1c0.9,0,1.7,0.5,1.7,1.6C305.8,182.8,305.1,183.2,304,183.2z M304.1,181H303
			v1.3h1.1c0.5,0,0.7-0.2,0.7-0.6C304.8,181.2,304.5,181,304.1,181z"/>
		<path fill="#A9B8C6" d="M307.9,185c-1.3,0-2.1-1-2.1-2.5c0-1.5,0.8-2.5,2.1-2.5s2.1,1,2.1,2.5C310,184,309.2,185,307.9,185z
			 M307.9,181c-0.8,0-1.1,0.7-1.1,1.6c0,0.9,0.3,1.6,1.1,1.6c0.8,0,1.1-0.7,1.1-1.6C309,181.6,308.7,181,307.9,181z"/>
		<path fill="#A9B8C6" d="M310.3,185v-4.9h1v3.9h2.5v1H310.3z"/>
		<path fill="#A9B8C6" d="M314,185v-4.9h1v4.9H314z"/>
		<path fill="#A9B8C6" d="M318.5,181.5c-0.2-0.3-0.5-0.5-0.9-0.5c-0.7,0-1.2,0.6-1.2,1.6c0,0.9,0.4,1.6,1.2,1.6c0.4,0,0.7-0.2,1-0.6
			l0.8,0.5c-0.3,0.7-0.9,1.1-1.8,1.1c-1.3,0-2.1-1-2.1-2.5c0-1.5,0.9-2.5,2.2-2.5c0.9,0,1.5,0.4,1.8,1.1L318.5,181.5z"/>
		<path fill="#A9B8C6" d="M319.7,185v-4.9h1v4.9H319.7z"/>
		<path fill="#A9B8C6" d="M321.3,185v-4.9h3.4v1h-2.4v0.8h1.4v1h-1.4v1.2h2.5v1H321.3z"/>
		<path fill="#A9B8C6" d="M326.7,185c-0.8,0-1.5-0.3-1.9-0.9l0.7-0.6c0.3,0.4,0.8,0.6,1.3,0.6c0.6,0,0.9-0.2,0.9-0.5
			c0-0.3-0.2-0.5-1.1-0.7c-0.9-0.2-1.5-0.5-1.5-1.5c0-0.9,0.8-1.4,1.8-1.4c0.8,0,1.3,0.3,1.8,0.8l-0.7,0.7c-0.3-0.3-0.7-0.5-1.1-0.5
			c-0.5,0-0.7,0.2-0.7,0.4c0,0.3,0.2,0.4,1,0.6c0.8,0.2,1.6,0.4,1.6,1.5C328.7,184.4,328.1,185,326.7,185z"/>
	</g>
</g>
<g>
	<g>
		<g>
			<g>
				<path fill="#A9B8C6" d="M284.7,212.6h-0.2c-0.4,0-0.7-0.3-0.7-0.7v-6.3c0-0.4,0.3-0.7,0.7-0.7h0.2c0.4,0,0.7,0.3,0.7,0.7v6.3
					C285.4,212.3,285.1,212.6,284.7,212.6z"/>
			</g>
			<g>
				<path fill="#A9B8C6" d="M282.3,212.6h-0.2c-0.4,0-0.7-0.3-0.7-0.7v-5.1c0-0.4,0.3-0.7,0.7-0.7h0.2c0.4,0,0.7,0.3,0.7,0.7v5.1
					C283,212.3,282.7,212.6,282.3,212.6z"/>
			</g>
			<g>
				<path fill="#A9B8C6" d="M277.1,212.6h-0.2c-0.4,0-0.7-0.3-0.7-0.7v-2.8c0-0.4,0.3-0.7,0.7-0.7h0.2c0.4,0,0.7,0.3,0.7,0.7v2.8
					C277.8,212.3,277.5,212.6,277.1,212.6z"/>
			</g>
			<g>
				<path fill="#A9B8C6" d="M279.6,212.6h-0.2c-0.4,0-0.7-0.3-0.7-0.7v-3.9c0-0.4,0.3-0.7,0.7-0.7h0.2c0.4,0,0.7,0.3,0.7,0.7v3.9
					C280.4,212.3,280,212.6,279.6,212.6z"/>
			</g>
			<g>
				<g>
					<rect x="274.5" y="200.5" fill="none" width="22" height="12.7"/>
				</g>
				<g>
					<path fill="#A9B8C6" d="M296.5,199.2h-22.3c-0.8,0-1.4,0.6-1.4,1.4v12.9c0,0.8,0.6,1.4,1.4,1.4h7.8v1.4h-2.5
						c-0.5,0-0.8,0.4-0.8,0.8v0.5c0,0.5,0.4,0.8,0.8,0.8h2.5v0h6.8v0h2.6c0.5,0,0.8-0.4,0.8-0.8v-0.5c0-0.5-0.4-0.8-0.8-0.8h-2.6
						v-1.4h7.7c0.8,0,1.4-0.6,1.4-1.4v-12.9C297.9,199.8,297.3,199.2,296.5,199.2z M296.4,213.1h-22v-12.7h22V213.1z"/>
				</g>
			</g>
			<g>
				<g>
					<path fill="#FFFFFF" d="M292.6,211.4c-1.8,0-3.3-1.5-3.3-3.3c0-1.8,1.5-3.3,3.3-3.3c1.8,0,3.3,1.5,3.3,3.3
						C295.8,209.9,294.4,211.4,292.6,211.4z M292.6,205.1c-1.7,0-3,1.4-3,3c0,1.7,1.4,3,3,3c1.7,0,3-1.4,3-3
						C295.6,206.4,294.2,205.1,292.6,205.1z"/>
				</g>
				<g>
					<path fill="#A9B8C6" d="M299.7,216.2l-4-5.2c0.7-0.8,1.2-1.8,1.2-3c0-2.4-2-4.4-4.4-4.4c-2.4,0-4.4,2-4.4,4.4
						c0,2.4,2,4.4,4.4,4.4c0.7,0,1.3-0.2,1.9-0.4l4,5.3c0.3,0.4,0.8,0.4,1.2,0.1C300,217.1,300,216.6,299.7,216.2z M289.4,208.1
						c0-1.7,1.4-3.1,3.1-3.1s3.1,1.4,3.1,3.1c0,1.7-1.4,3.1-3.1,3.1S289.4,209.8,289.4,208.1z"/>
					<path fill="#FFFFFF" d="M299.1,217.7L299.1,217.7c-0.3,0-0.6-0.1-0.8-0.4l-4-5.2c-0.6,0.3-1.2,0.4-1.9,0.4
						c-2.5,0-4.5-2-4.5-4.5c0-2.5,2-4.5,4.5-4.5s4.5,2,4.5,4.5c0,1.1-0.4,2.2-1.1,3l4,5.2c0.2,0.2,0.2,0.4,0.2,0.7
						c0,0.3-0.2,0.5-0.4,0.6C299.5,217.6,299.3,217.7,299.1,217.7z M294.4,211.8l4.1,5.3c0.1,0.2,0.3,0.3,0.6,0.3l0,0
						c0.2,0,0.3-0.1,0.4-0.1c0.1-0.1,0.2-0.3,0.3-0.5c0-0.2,0-0.4-0.1-0.5l-4.1-5.3l0.1-0.1c0.7-0.8,1.1-1.8,1.1-2.9
						c0-2.4-1.9-4.3-4.3-4.3s-4.3,1.9-4.3,4.3c0,2.4,1.9,4.3,4.3,4.3C293.1,212.3,293.7,212.2,294.4,211.8L294.4,211.8z
						 M292.6,211.4c-1.8,0-3.3-1.5-3.3-3.3c0-1.8,1.5-3.3,3.3-3.3c1.8,0,3.3,1.5,3.3,3.3C295.8,209.9,294.4,211.4,292.6,211.4z
						 M292.6,205.1c-1.7,0-3,1.4-3,3c0,1.7,1.4,3,3,3c1.7,0,3-1.4,3-3C295.6,206.4,294.2,205.1,292.6,205.1z"/>
				</g>
			</g>
		</g>
		<g>
			<path fill="#A9B8C6" d="M286.4,189c10.9,0,19.8,8.9,19.8,19.8s-8.9,19.8-19.8,19.8s-19.8-8.9-19.8-19.8S275.5,189,286.4,189z
				 M286.4,226.7c9.8,0,17.8-8,17.8-17.8s-8-17.8-17.8-17.8s-17.8,8-17.8,17.8S276.6,226.7,286.4,226.7z"/>
		</g>
	</g>
	<g>
		<path fill="#A9B8C6" d="M273.1,236.5l-0.4-1.1h-1.8l-0.4,1.1h-1l1.9-4.9h1l1.9,4.9H273.1z M272.1,233.6c-0.1-0.3-0.2-0.6-0.2-0.8
			c0,0.2-0.1,0.5-0.2,0.8l-0.3,0.9h1.1L272.1,233.6z"/>
		<path fill="#A9B8C6" d="M277.5,236.5l-1.8-2.7c-0.1-0.2-0.3-0.4-0.3-0.6c0,0.2,0,0.8,0,1.1v2.2h-1v-4.9h0.9l1.7,2.6
			c0.1,0.2,0.3,0.4,0.3,0.6c0-0.2,0-0.8,0-1.1v-2.1h1v4.9H277.5z"/>
		<path fill="#A9B8C6" d="M282.2,236.5l-0.4-1.1H280l-0.4,1.1h-1l1.9-4.9h1l1.9,4.9H282.2z M281.2,233.6c-0.1-0.3-0.2-0.6-0.2-0.8
			c0,0.2-0.1,0.5-0.2,0.8l-0.3,0.9h1.1L281.2,233.6z"/>
		<path fill="#A9B8C6" d="M283.5,236.5v-4.9h1v3.9h2.5v1H283.5z"/>
		<path fill="#A9B8C6" d="M288.5,234.6v1.9h-1v-1.9l-1.9-3h1.1l0.7,1.2c0.2,0.3,0.4,0.8,0.5,1c0.1-0.2,0.4-0.7,0.5-1l0.7-1.2h1.1
			L288.5,234.6z"/>
		<path fill="#A9B8C6" d="M292.5,232.6v3.9h-1v-3.9h-1.4v-1h3.8v1H292.5z"/>
		<path fill="#A9B8C6" d="M294.2,236.5v-4.9h1v4.9H294.2z"/>
		<path fill="#A9B8C6" d="M298.6,233.1c-0.2-0.3-0.5-0.5-0.9-0.5c-0.7,0-1.2,0.6-1.2,1.6c0,0.9,0.4,1.6,1.2,1.6c0.4,0,0.7-0.2,1-0.6
			l0.8,0.5c-0.3,0.7-0.9,1.1-1.8,1.1c-1.3,0-2.1-1-2.1-2.5c0-1.5,0.9-2.5,2.2-2.5c0.9,0,1.5,0.4,1.8,1.1L298.6,233.1z"/>
		<path fill="#A9B8C6" d="M301.4,236.6c-0.8,0-1.5-0.3-1.9-0.9l0.7-0.6c0.3,0.4,0.8,0.6,1.3,0.6c0.6,0,0.9-0.2,0.9-0.5
			c0-0.3-0.2-0.5-1.1-0.7c-0.9-0.2-1.5-0.5-1.5-1.5c0-0.9,0.8-1.4,1.8-1.4c0.8,0,1.3,0.3,1.8,0.8l-0.7,0.7c-0.3-0.3-0.7-0.5-1.1-0.5
			c-0.5,0-0.7,0.2-0.7,0.4c0,0.3,0.2,0.4,1,0.6c0.8,0.2,1.6,0.4,1.6,1.5C303.3,236,302.7,236.6,301.4,236.6z"/>
	</g>
</g>
<g>
	<g>
		<g>
			<polygon fill="#A9B8C6" points="240.8,266.2 245.8,261.8 246.3,262.3 246.3,270.9 240.8,270.9 			"/>
			<polygon fill="#A9B8C6" points="247.9,263.8 247.9,270.9 253.3,270.9 253.3,263.2 250.3,265.9 			"/>
			<polygon fill="#A9B8C6" points="255,261.6 255,270.9 260.4,270.9 260.4,257.5 260.1,256.9 			"/>
			<polygon fill="#A9B8C6" points="240.8,263.4 245.8,259 250.2,263.4 259.7,254.4 261.3,256.1 263,249.9 257,251.5 258.4,253 
				250.2,260.5 246,256.3 239.5,262.1 			"/>
		</g>
		<g>
			<path fill="#A9B8C6" d="M251.3,240.6c10.9,0,19.8,8.9,19.8,19.8c0,10.9-8.9,19.8-19.8,19.8c-10.9,0-19.8-8.9-19.8-19.8
				C231.5,249.5,240.4,240.6,251.3,240.6z M251.3,278.2c9.8,0,17.8-8,17.8-17.8c0-9.8-8-17.8-17.8-17.8c-9.8,0-17.8,8-17.8,17.8
				C233.5,270.3,241.5,278.2,251.3,278.2z"/>
		</g>
	</g>
	<g>
		<path fill="#A9B8C6" d="M241.4,284.2v3.9h-1v-3.9H239v-1h3.8v1H241.4z"/>
		<path fill="#A9B8C6" d="M245.9,288.1l-0.9-1.8h-1v1.8h-1v-4.9h2.3c0.9,0,1.7,0.5,1.7,1.6c0,0.7-0.3,1.2-0.9,1.4l0.9,1.9H245.9z
			 M245.3,284.2h-1.3v1.3h1.3c0.5,0,0.7-0.2,0.7-0.6C246,284.4,245.8,284.2,245.3,284.2z"/>
		<path fill="#A9B8C6" d="M247.4,288.1v-4.9h3.4v1h-2.4v0.8h1.4v1h-1.4v1.2h2.5v1H247.4z"/>
		<path fill="#A9B8C6" d="M254.3,288.1l-1.8-2.7c-0.1-0.2-0.3-0.4-0.3-0.6c0,0.2,0,0.8,0,1.1v2.2h-1v-4.9h0.9l1.7,2.6
			c0.1,0.2,0.3,0.4,0.3,0.6c0-0.2,0-0.8,0-1.1v-2.1h1v4.9H254.3z"/>
		<path fill="#A9B8C6" d="M257.2,288.1h-1.5v-4.9h1.5c1.4,0,2.4,0.7,2.4,2.5C259.7,287.4,258.5,288.1,257.2,288.1z M257.2,284.2
			h-0.5v3h0.5c1,0,1.5-0.6,1.5-1.5C258.7,284.7,258.3,284.2,257.2,284.2z"/>
		<path fill="#A9B8C6" d="M261.6,288.2c-0.8,0-1.5-0.3-1.9-0.9l0.7-0.6c0.3,0.4,0.8,0.6,1.3,0.6c0.6,0,0.9-0.2,0.9-0.5
			c0-0.3-0.2-0.5-1.1-0.7c-0.9-0.2-1.5-0.5-1.5-1.5c0-0.9,0.8-1.4,1.8-1.4c0.8,0,1.3,0.3,1.8,0.8l-0.7,0.7c-0.3-0.3-0.7-0.5-1.1-0.5
			c-0.5,0-0.7,0.2-0.7,0.4c0,0.3,0.2,0.4,1,0.6c0.8,0.2,1.6,0.4,1.6,1.5C263.5,287.6,262.9,288.2,261.6,288.2z"/>
	</g>
</g>
<g>
	<g>
		<g>
			<path fill="#A9B8C6" d="M62,110.4L50.3,97.5c0,0-1.6-2.3-3.7-0.9c0,0-1.3-1.3-2.2-0.6c-0.9,0.8,0.5,2.1,0.5,2.1s-1.4,1.5,0.6,3.5
				s12.8,11.9,12.8,11.9s1.7,0.9,3.1,0C62.7,112.5,62,110.4,62,110.4z M55.3,108.1c-0.3,0.3-0.8,0.3-1.1,0l-8.1-8
				c-0.3-0.3-0.3-0.8,0-1.1l1.2-1.2c0.3-0.3,0.8-0.3,1.1,0l8.1,8c0.3,0.3,0.3,0.8,0,1.1L55.3,108.1z M60.4,111.9L60.4,111.9
				c-0.5,0.5-1.2,0.5-1.6,0.1l-1.8-1.8c-0.4-0.4-0.4-1.2,0-1.6l0.1-0.1c0.4-0.4,1.2-0.4,1.6,0l1.8,1.8
				C60.8,110.8,60.8,111.5,60.4,111.9z"/>
		</g>
		<g>
			<path fill="#A9B8C6" d="M61.8,114.9l2.3,1.3c0,0,0.7,0.2,0.3-0.5c-0.3-0.6-1.3-2.3-1.3-2.3S63.3,114.6,61.8,114.9z"/>
		</g>
		<g>
			<path fill="#A9B8C6" d="M44.5,104.1l5.8,3.8c0,0,2.5,1.4,0.6-0.4c-1.9-1.8-4.9-4.1-4.9-4.1l0.9-0.5l-1.4-1.4l-1.1,1.5
				C44.3,103,43.8,103.7,44.5,104.1z"/>
		</g>
	</g>
	<g>
		<g>
			<path fill="#A9B8C6" d="M54.3,125.8c-10.9,0-19.8-8.9-19.8-19.8s8.9-19.8,19.8-19.8s19.8,8.9,19.8,19.8S65.2,125.8,54.3,125.8z
				 M54.3,88.2c-9.8,0-17.8,8-17.8,17.8s8,17.8,17.8,17.8s17.8-8,17.8-17.8S64.1,88.2,54.3,88.2z"/>
		</g>
	</g>
	<g>
		<path fill="#A9B8C6" d="M46.1,133h-1l-0.6-2.5c-0.1-0.3-0.1-0.7-0.2-0.8c0,0.2-0.1,0.6-0.2,0.8l-0.6,2.5h-0.9l-1-4.9h1l0.4,2.4
			c0,0.2,0.1,0.6,0.1,0.8c0-0.2,0.1-0.6,0.2-0.8l0.6-2.4h0.9l0.6,2.4c0.1,0.2,0.1,0.6,0.2,0.8c0-0.2,0.1-0.6,0.1-0.8l0.4-2.4h1
			L46.1,133z"/>
		<path fill="#A9B8C6" d="M50.3,133l-0.9-1.8h-1v1.8h-1v-4.9h2.3c0.9,0,1.7,0.5,1.7,1.6c0,0.7-0.3,1.2-0.9,1.4l0.9,1.9H50.3z
			 M49.7,129h-1.3v1.3h1.3c0.5,0,0.7-0.2,0.7-0.6C50.4,129.2,50.1,129,49.7,129z"/>
		<path fill="#A9B8C6" d="M51.8,133v-4.9h1v4.9H51.8z"/>
		<path fill="#A9B8C6" d="M55.5,129v3.9h-1V129h-1.4v-1h3.8v1H55.5z"/>
		<path fill="#A9B8C6" d="M57.2,133v-4.9h1v4.9H57.2z"/>
		<path fill="#A9B8C6" d="M61.9,133l-1.8-2.7c-0.1-0.2-0.3-0.4-0.3-0.6c0,0.2,0,0.8,0,1.1v2.2h-1v-4.9h0.9l1.7,2.6
			c0.1,0.2,0.3,0.4,0.3,0.6c0-0.2,0-0.8,0-1.1v-2.1h1v4.9H61.9z"/>
		<path fill="#A9B8C6" d="M65.2,133c-1.3,0-2.1-1-2.1-2.5c0-1.5,0.9-2.5,2.2-2.5c1,0,1.5,0.5,1.9,1.2l-0.9,0.4
			c-0.2-0.4-0.4-0.6-0.9-0.6c-0.7,0-1.2,0.6-1.2,1.6c0,0.9,0.4,1.6,1.2,1.6c0.7,0,0.9-0.3,1-0.7h-0.8v-0.9h1.8v0.6
			C67.2,132.3,66.4,133,65.2,133z"/>
	</g>
</g>
<g>
	<path fill="#A9B8C6" d="M5.3,180.6c-0.2-0.3-0.5-0.5-0.9-0.5c-0.7,0-1.2,0.6-1.2,1.6c0,0.9,0.4,1.6,1.2,1.6c0.4,0,0.7-0.2,1-0.6
		l0.8,0.5c-0.3,0.7-0.9,1.1-1.8,1.1c-1.3,0-2.1-1-2.1-2.5c0-1.5,0.9-2.5,2.2-2.5c0.9,0,1.5,0.4,1.8,1.1L5.3,180.6z"/>
	<path fill="#A9B8C6" d="M8.2,184.2c-1.3,0-2.1-1-2.1-2.5c0-1.5,0.8-2.5,2.1-2.5s2.1,1,2.1,2.5C10.4,183.1,9.6,184.2,8.2,184.2z
		 M8.2,180.1c-0.8,0-1.1,0.7-1.1,1.6c0,0.9,0.3,1.6,1.1,1.6c0.8,0,1.1-0.7,1.1-1.6C9.3,180.8,9,180.1,8.2,180.1z"/>
	<path fill="#A9B8C6" d="M10.6,184.1v-4.9h1v3.9h2.5v1H10.6z"/>
	<path fill="#A9B8C6" d="M14.3,184.1v-4.9h1v3.9h2.5v1H14.3z"/>
	<path fill="#A9B8C6" d="M21.2,184.1l-0.4-1.1H19l-0.4,1.1h-1l1.9-4.9h1l1.9,4.9H21.2z M20.2,181.2c-0.1-0.3-0.2-0.6-0.2-0.8
		c0,0.2-0.1,0.5-0.2,0.8l-0.3,0.9h1.1L20.2,181.2z"/>
	<path fill="#A9B8C6" d="M24.7,184.1h-2.2v-4.9h2.2c1,0,1.6,0.5,1.6,1.3c0,0.4-0.2,0.8-0.5,1c0.4,0.2,0.7,0.5,0.7,1.1
		C26.5,183.6,25.8,184.1,24.7,184.1z M24.7,180.1h-1.2v0.9h1.3c0.4,0,0.6-0.2,0.6-0.5C25.3,180.3,25.1,180.1,24.7,180.1z
		 M24.7,181.9h-1.3v1.3h1.3c0.5,0,0.7-0.3,0.7-0.6C25.4,182.1,25.2,181.9,24.7,181.9z"/>
	<path fill="#A9B8C6" d="M28.6,184.2c-1.3,0-2.1-1-2.1-2.5c0-1.5,0.8-2.5,2.1-2.5s2.1,1,2.1,2.5C30.7,183.1,29.9,184.2,28.6,184.2z
		 M28.6,180.1c-0.8,0-1.1,0.7-1.1,1.6c0,0.9,0.3,1.6,1.1,1.6c0.8,0,1.1-0.7,1.1-1.6C29.7,180.8,29.4,180.1,28.6,180.1z"/>
	<path fill="#A9B8C6" d="M33.8,184.1l-0.9-1.8h-1v1.8h-1v-4.9h2.3c0.9,0,1.7,0.5,1.7,1.6c0,0.7-0.3,1.2-0.9,1.4l0.9,1.9H33.8z
		 M33.3,180.2H32v1.3h1.3c0.5,0,0.7-0.2,0.7-0.6C34,180.3,33.7,180.2,33.3,180.2z"/>
	<path fill="#A9B8C6" d="M38.5,184.1l-0.4-1.1h-1.8l-0.4,1.1h-1l1.9-4.9h1l1.9,4.9H38.5z M37.4,181.2c-0.1-0.3-0.2-0.6-0.2-0.8
		c0,0.2-0.1,0.5-0.2,0.8l-0.3,0.9h1.1L37.4,181.2z"/>
	<path fill="#A9B8C6" d="M41.1,180.2v3.9h-1v-3.9h-1.4v-1h3.8v1H41.1z"/>
	<path fill="#A9B8C6" d="M42.9,184.1v-4.9h1v4.9H42.9z"/>
	<path fill="#A9B8C6" d="M46.8,184.1h-1l-1.7-4.9h1.1l0.9,2.8c0.1,0.3,0.2,0.6,0.2,0.8c0-0.2,0.1-0.5,0.2-0.8l0.9-2.8h1.1
		L46.8,184.1z"/>
	<path fill="#A9B8C6" d="M48.8,184.1v-4.9h3.4v1h-2.4v0.8h1.4v1h-1.4v1.2h2.5v1H48.8z"/>
</g>
<g>
	<g>
		<g>
			<g>
				<path fill="#A9B8C6" d="M99.2,270.5c-0.1,0-0.3-0.1-0.4-0.2l-3.5-3.4c-0.4-0.1-1.6-0.4-2.9-1.1c-2.1-1.2-3.2-2.9-3.2-4.9
					c0-0.1,0-2.7,1.9-4.6c1.3-1.4,3.2-2.1,5.6-2.1c0.1,0,0.1,0,0.2,0c1.7,0,3.1,0.3,4.3,0.8c1,0.5,1.8,1.1,2.4,1.9
					c1.2,1.5,1.2,3.2,1.2,3.5c0,0.5,0,1.7-0.8,3.1c-0.9,1.5-2.5,2.6-4.7,3.1l0.5,3.2c0,0.2-0.1,0.5-0.3,0.6
					C99.4,270.5,99.3,270.5,99.2,270.5z M96.9,255.4c-0.1,0-0.1,0-0.2,0c-2.7,0-4.6,1-5.6,2.8c-0.8,1.4-0.8,2.8-0.8,2.8
					c0,1.6,0.9,3,2.6,3.9c1.3,0.8,2.7,1,2.7,1c0.1,0,0.2,0.1,0.3,0.1l2.5,2.4l-0.3-2.1c0-0.3,0.2-0.6,0.4-0.6
					c3.4-0.7,5.1-2.4,5.1-5.2c0-0.2,0-1.5-1-2.8C101.6,256.1,99.6,255.4,96.9,255.4z"/>
			</g>
		</g>
		<g>
			<g>
				<path fill="#A9B8C6" d="M85.4,266.6c-0.1,0-0.2,0-0.3-0.1c-0.2-0.1-0.3-0.4-0.3-0.6l0.5-3c-0.7-0.2-1.7-0.6-2.7-1.2
					c-1.2-0.8-2.7-2.2-2.9-4.4c-0.2-1.8,0.2-3.4,1.3-4.7c1.3-1.6,3.6-2.6,6.3-2.9c2.7-0.2,4.6,0.8,5.7,1.7c1.2,1,2,2.3,2,2.3
					l-1.2,0.3c0,0-0.5-0.9-1.6-1.8c-1.4-1.1-3-1.6-4.8-1.5c-2.4,0.2-4.4,1.1-5.5,2.5c-0.9,1.1-1.2,2.4-1,3.8
					c0.2,1.8,1.4,2.9,2.4,3.6c1.2,0.8,2.4,1.1,2.6,1.1c0.2,0,0.3,0.1,0.5,0.2c0.1,0.1,0.2,0.3,0.1,0.5l-0.3,1.9l2.5-2.4l0.5,1.3
					l-3.4,3.2C85.7,266.5,85.5,266.6,85.4,266.6z"/>
			</g>
		</g>
		<g>
			<circle fill="#A9B8C6" cx="94.1" cy="261.1" r="0.8"/>
		</g>
		<g>
			<circle fill="#A9B8C6" cx="97" cy="261.1" r="0.8"/>
		</g>
		<g>
			<circle fill="#A9B8C6" cx="100.1" cy="261.1" r="0.8"/>
		</g>
	</g>
	<g>
		<g>
			<path fill="#A9B8C6" d="M92.3,240.3c10.9,0,19.8,8.9,19.8,19.8c0,10.9-8.9,19.8-19.8,19.8s-19.8-8.9-19.8-19.8
				C72.4,249.2,81.3,240.3,92.3,240.3z M92.3,277.9c9.8,0,17.8-8,17.8-17.8c0-9.8-8-17.8-17.8-17.8s-17.8,8-17.8,17.8
				C74.4,269.9,82.4,277.9,92.3,277.9z"/>
		</g>
	</g>
	<g>
		<path fill="#A9B8C6" d="M77,286.4v-4.9h3.4v1H78v0.8h1.4v1H78v1.2h2.5v1H77z"/>
		<path fill="#A9B8C6" d="M84,286.4l-1.8-2.7c-0.1-0.2-0.3-0.4-0.3-0.6c0,0.2,0,0.8,0,1.1v2.2h-1v-4.9h0.9l1.7,2.6
			c0.1,0.2,0.3,0.4,0.3,0.6c0-0.2,0-0.8,0-1.1v-2.1h1v4.9H84z"/>
		<path fill="#A9B8C6" d="M87.3,286.5c-1.3,0-2.1-1-2.1-2.5c0-1.5,0.9-2.5,2.2-2.5c1,0,1.5,0.5,1.9,1.2l-0.9,0.4
			c-0.2-0.4-0.4-0.6-0.9-0.6c-0.7,0-1.2,0.6-1.2,1.6c0,0.9,0.4,1.6,1.2,1.6c0.7,0,0.9-0.3,1-0.7h-0.8v-0.9h1.8v0.6
			C89.3,285.8,88.4,286.5,87.3,286.5z"/>
		<path fill="#A9B8C6" d="M92.7,286.4l-0.4-1.1h-1.8l-0.4,1.1h-1l1.9-4.9h1l1.9,4.9H92.7z M91.7,283.5c-0.1-0.3-0.2-0.6-0.2-0.8
			c0,0.2-0.1,0.5-0.2,0.8l-0.3,0.9H92L91.7,283.5z"/>
		<path fill="#A9B8C6" d="M95.7,286.5c-1.3,0-2.1-1-2.1-2.5c0-1.5,0.9-2.5,2.2-2.5c1,0,1.5,0.5,1.9,1.2l-0.9,0.4
			c-0.2-0.4-0.4-0.6-0.9-0.6c-0.7,0-1.2,0.6-1.2,1.6c0,0.9,0.4,1.6,1.2,1.6c0.7,0,0.9-0.3,1-0.7H96v-0.9h1.8v0.6
			C97.7,285.8,96.9,286.5,95.7,286.5z"/>
		<path fill="#A9B8C6" d="M98.1,286.4v-4.9h1v4.9H98.1z"/>
		<path fill="#A9B8C6" d="M102.8,286.4l-1.8-2.7c-0.1-0.2-0.3-0.4-0.3-0.6c0,0.2,0,0.8,0,1.1v2.2h-1v-4.9h0.9l1.7,2.6
			c0.1,0.2,0.3,0.4,0.3,0.6c0-0.2,0-0.8,0-1.1v-2.1h1v4.9H102.8z"/>
		<path fill="#A9B8C6" d="M106.1,286.5c-1.3,0-2.1-1-2.1-2.5c0-1.5,0.9-2.5,2.2-2.5c1,0,1.5,0.5,1.9,1.2l-0.9,0.4
			c-0.2-0.4-0.4-0.6-0.9-0.6c-0.7,0-1.2,0.6-1.2,1.6c0,0.9,0.4,1.6,1.2,1.6c0.7,0,0.9-0.3,1-0.7h-0.8v-0.9h1.8v0.6
			C108.1,285.8,107.3,286.5,106.1,286.5z"/>
	</g>
</g>
<g>
</g>
<g>
	<g>
		<g>
			<path fill="#A9B8C6" d="M53.1,189.9c10.9,0,19.8,8.9,19.8,19.8s-8.9,19.8-19.8,19.8s-19.8-8.9-19.8-19.8S42.2,189.9,53.1,189.9z
				 M53.1,227.5c9.8,0,17.8-8,17.8-17.8s-8-17.8-17.8-17.8s-17.8,8-17.8,17.8S43.3,227.5,53.1,227.5z"/>
		</g>
	</g>
	<g>
		<path fill="#A9B8C6" d="M41.6,232.8c-0.2-0.3-0.5-0.5-0.9-0.5c-0.7,0-1.2,0.6-1.2,1.6c0,0.9,0.4,1.6,1.2,1.6c0.4,0,0.7-0.2,1-0.6
			l0.8,0.5c-0.3,0.7-0.9,1.1-1.8,1.1c-1.3,0-2.1-1-2.1-2.5c0-1.5,0.9-2.5,2.2-2.5c0.9,0,1.5,0.4,1.8,1.1L41.6,232.8z"/>
		<path fill="#A9B8C6" d="M45.6,236.3l-0.9-1.8h-1v1.8h-1v-4.9h2.3c0.9,0,1.7,0.5,1.7,1.6c0,0.7-0.3,1.2-0.9,1.4l0.9,1.9H45.6z
			 M45.1,232.3h-1.3v1.3h1.3c0.5,0,0.7-0.2,0.7-0.6C45.8,232.5,45.5,232.3,45.1,232.3z"/>
		<path fill="#A9B8C6" d="M47.1,236.3v-4.9h3.4v1h-2.4v0.8h1.4v1h-1.4v1.2h2.5v1H47.1z"/>
		<path fill="#A9B8C6" d="M54.2,236.3l-0.4-1.1H52l-0.4,1.1h-1.1l1.9-4.9h1l1.9,4.9H54.2z M53.2,233.4c-0.1-0.3-0.2-0.6-0.2-0.8
			c0,0.2-0.1,0.5-0.2,0.8l-0.3,0.9h1.1L53.2,233.4z"/>
		<path fill="#A9B8C6" d="M56.9,232.4v3.9h-1v-3.9h-1.4v-1h3.8v1H56.9z"/>
		<path fill="#A9B8C6" d="M58.6,236.3v-4.9h1v4.9H58.6z"/>
		<path fill="#A9B8C6" d="M62.6,236.3h-1l-1.7-4.9H61l0.9,2.8c0.1,0.3,0.2,0.6,0.2,0.8c0-0.2,0.1-0.5,0.2-0.8l0.9-2.8h1.1
			L62.6,236.3z"/>
		<path fill="#A9B8C6" d="M64.5,236.3v-4.9h3.4v1h-2.4v0.8h1.4v1h-1.4v1.2H68v1H64.5z"/>
	</g>
	<g>
		<g>
			<g>
				<path fill="#A9B8C6" d="M56.7,218.3h-7.4c-0.4,0-0.7-0.3-0.7-0.7s0.3-0.7,0.7-0.7h7.4c0.4,0,0.7,0.3,0.7,0.7
					S57,218.3,56.7,218.3z"/>
			</g>
		</g>
		<g>
			<g>
				<path fill="#A9B8C6" d="M50.4,219.8c-0.3,0-0.6-0.3-0.7-0.6c0-0.4,0.2-0.7,0.6-0.7l5.2-0.5c0.4,0,0.7,0.2,0.7,0.6
					c0,0.4-0.2,0.7-0.6,0.7L50.4,219.8C50.4,219.8,50.4,219.8,50.4,219.8z"/>
			</g>
		</g>
		<g>
			<g>
				<path fill="#A9B8C6" d="M50.4,221.3c-0.3,0-0.6-0.3-0.7-0.6c0-0.4,0.2-0.7,0.6-0.7l5.2-0.5c0.4,0,0.7,0.2,0.7,0.6
					c0,0.4-0.2,0.7-0.6,0.7L50.4,221.3C50.4,221.3,50.4,221.3,50.4,221.3z"/>
			</g>
		</g>
		<g>
			<g>
				<path fill="#A9B8C6" d="M50.4,222.8c-0.3,0-0.6-0.3-0.7-0.6c0-0.4,0.2-0.7,0.6-0.7l5.2-0.5c0.4,0,0.7,0.2,0.7,0.6
					c0,0.4-0.2,0.7-0.6,0.7L50.4,222.8C50.4,222.8,50.4,222.8,50.4,222.8z"/>
			</g>
		</g>
		<g>
			<g>
				<path fill="#A9B8C6" d="M50.5,218.3C50.5,218.3,50.5,218.3,50.5,218.3c-0.4,0-0.7-0.4-0.7-0.7c0.1-1-0.2-1.8-0.4-2.5
					c-0.1-0.2-0.2-0.5-0.2-0.7c-0.1-0.3-0.5-1-2-2.8c-0.1-0.1-0.1-0.1-0.1-0.2c-0.4-0.5-2.1-2.9-1.1-6.3c1-3.1,3.8-5.3,6.9-5.3
					c3.1,0,5.6,1.9,7,5.2c1.4,3.4-1.1,6.7-2.4,8.4c-0.1,0.1-0.2,0.3-0.3,0.4c-1.1,1.4-0.9,3.8-0.9,3.8c0,0.4-0.3,0.7-0.6,0.7
					c-0.4,0-0.7-0.3-0.7-0.6c0-0.1-0.2-2.9,1.2-4.7c0.1-0.1,0.2-0.3,0.3-0.4c1.3-1.7,3.4-4.4,2.3-7.1c-1.2-2.9-3.2-4.4-5.8-4.4
					c-2.5,0-4.9,1.8-5.7,4.4c-0.9,2.7,0.6,4.7,0.9,5.1c0,0,0.1,0.1,0.1,0.2c1,1.3,2,2.6,2.2,3.3c0,0.2,0.1,0.4,0.2,0.6
					c0.3,0.8,0.6,1.8,0.5,3.1C51.1,218.1,50.9,218.3,50.5,218.3z"/>
			</g>
		</g>
		<g>
			<g>
				<path fill="#A9B8C6" d="M54.4,223.8h-2.7c-0.4,0-0.7-0.3-0.7-0.7s0.3-0.7,0.7-0.7h2.7c0.4,0,0.7,0.3,0.7,0.7
					S54.8,223.8,54.4,223.8z"/>
			</g>
		</g>
		<g>
			<g>
				<g>
					<path fill="#A9B8C6" d="M53,210.1c-0.4,0-0.7-0.3-0.7-0.7l-0.6-5.8c0-0.4,0.9-0.7,1.3-0.7c0.4,0,1.4,0.3,1.4,0.7l-0.7,5.8
						C53.6,209.8,53.3,210.1,53,210.1z"/>
				</g>
			</g>
		</g>
		<g>
			<g>
				<g>
					<path fill="#A9B8C6" d="M53,198.1c-0.1,0-0.2-0.1-0.2-0.2l-0.2-2c0-0.1,0.3-0.2,0.4-0.2s0.5,0.1,0.5,0.2l-0.2,2
						C53.2,198,53.1,198.1,53,198.1z"/>
				</g>
			</g>
		</g>
		<g>
			<g>
				<g>
					<path fill="#A9B8C6" d="M48.5,199.3c-0.1,0.1-0.2,0-0.3-0.1l-1.1-1.6c-0.1-0.1,0.2-0.3,0.3-0.4s0.5-0.1,0.5,0l0.7,1.8
						C48.7,199.1,48.7,199.2,48.5,199.3z"/>
				</g>
			</g>
		</g>
		<g>
			<g>
				<g>
					<path fill="#A9B8C6" d="M57.5,199.2c-0.1-0.1-0.1-0.2-0.1-0.3l0.9-1.7c0.1-0.1,0.4,0,0.5,0.1c0.1,0.1,0.3,0.3,0.3,0.4l-1.3,1.5
						C57.7,199.3,57.6,199.3,57.5,199.2z"/>
				</g>
			</g>
		</g>
		<g>
			<g>
				<g>
					<path fill="#A9B8C6" d="M60.8,202.6c-0.1-0.1,0-0.2,0.1-0.3l1.6-1.2c0.1-0.1,0.3,0.1,0.4,0.2c0.1,0.1,0.2,0.4,0.1,0.5l-1.8,0.8
						C61,202.7,60.8,202.7,60.8,202.6z"/>
				</g>
			</g>
		</g>
		<g>
			<g>
				<g>
					<path fill="#A9B8C6" d="M61.8,206.8c0-0.1,0.1-0.2,0.2-0.2l2-0.1c0.1,0,0.2,0.3,0.2,0.4c0,0.1-0.1,0.5-0.3,0.4L62,207
						C61.9,207,61.8,206.9,61.8,206.8z"/>
				</g>
			</g>
		</g>
		<g>
			<g>
				<g>
					<path fill="#A9B8C6" d="M60.7,211.4c0.1-0.1,0.2-0.1,0.3-0.1l1.8,0.8c0.1,0.1,0.1,0.4,0,0.5c-0.1,0.1-0.3,0.4-0.4,0.3l-1.6-1.1
						C60.7,211.6,60.7,211.5,60.7,211.4z"/>
				</g>
			</g>
		</g>
		<g>
			<g>
				<circle fill="#A9B8C6" cx="53" cy="212.3" r="1.2"/>
			</g>
		</g>
		<g>
			<g>
				<g>
					<path fill="#A9B8C6" d="M45.5,202.6c0.1-0.1,0-0.2-0.1-0.3l-1.6-1.2c-0.1-0.1-0.3,0.1-0.4,0.2c-0.1,0.1-0.2,0.4-0.1,0.5
						l1.8,0.8C45.3,202.7,45.4,202.7,45.5,202.6z"/>
				</g>
			</g>
		</g>
		<g>
			<g>
				<g>
					<path fill="#A9B8C6" d="M44.4,206.8c0-0.1-0.1-0.2-0.2-0.2l-2-0.1c-0.1,0-0.2,0.3-0.2,0.4c0,0.1,0.1,0.5,0.3,0.4l1.9-0.4
						C44.3,207,44.4,206.9,44.4,206.8z"/>
				</g>
			</g>
		</g>
		<g>
			<g>
				<g>
					<path fill="#A9B8C6" d="M45.5,211.4c-0.1-0.1-0.2-0.1-0.3-0.1l-1.8,0.8c-0.1,0.1-0.1,0.4,0,0.5c0.1,0.1,0.3,0.4,0.4,0.3
						l1.6-1.1C45.5,211.6,45.6,211.5,45.5,211.4z"/>
				</g>
			</g>
		</g>
	</g>
</g>
<line fill="#A9B8C6" stroke="#A9B8C6" stroke-miterlimit="10" x1="232.7" y1="240.6" x2="207.7" y2="206.1"/>
<line fill="#A9B8C6" stroke="#A9B8C6" stroke-miterlimit="10" x1="264.4" y1="196.9" x2="232.2" y2="178.6"/>
<line fill="#A9B8C6" stroke="#A9B8C6" stroke-miterlimit="10" x1="265.8" y1="113.4" x2="233.5" y2="131.7"/>
<line fill="#A9B8C6" stroke="#A9B8C6" stroke-miterlimit="10" x1="200.3" y1="109.6" x2="225.8" y2="74"/>
<line fill="#A9B8C6" stroke="#A9B8C6" stroke-miterlimit="10" x1="287.8" y1="158.3" x2="239.7" y2="158.3"/>
</svg>
