<?xml version="1.0" encoding="utf-8"?>
<!-- Generator: Adobe Illustrator 18.0.0, SVG Export Plug-In . SVG Version: 6.00 Build 0)  -->
<!DOCTYPE svg PUBLIC "-//W3C//DTD SVG 1.1//EN" "http://www.w3.org/Graphics/SVG/1.1/DTD/svg11.dtd">
<svg version="1.1" id="Layer_1" xmlns="http://www.w3.org/2000/svg" xmlns:xlink="http://www.w3.org/1999/xlink" x="0px" y="0px"
	 viewBox="0 0 419.6 374.2" enable-background="new 0 0 419.6 374.2" xml:space="preserve">
<g>
	<rect x="0" y="0" fill="#3C5A99" width="419.6" height="132.1"/>
	<rect x="0.3" y="132.1" fill="#FFFFFF" stroke="#D2D2D2" stroke-width="0.5" stroke-miterlimit="10" width="419" height="242.1"/>
	<line fill="none" stroke="#D2D2D2" stroke-miterlimit="10" x1="0.4" y1="326.1" x2="418.8" y2="326.1"/>
	<g>
		<path d="M18.2,218.7l4.1,10.5h0.1l4.1-10.5h2.2v12.9H27v-5.1l0.2-5.3l0,0l-4.2,10.4h-1.2l-4.2-10.4l0,0l0.2,5.2v5.1h-1.8v-12.9
			H18.2z"/>
		<path d="M34.5,228.1l0.3,1.2h0.1l2.4-7.3h1.9l-4,11.1c-0.2,0.6-0.6,1.2-1,1.7c-0.5,0.5-1.1,0.7-1.8,0.7c-0.1,0-0.3,0-0.5,0
			c-0.2,0-0.4-0.1-0.5-0.1l0.2-1.4c0,0,0.1,0,0.3,0c0.2,0,0.4,0,0.5,0c0.4,0,0.7-0.2,0.9-0.5c0.2-0.3,0.4-0.7,0.6-1.1l0.4-1
			l-3.6-9.4h2L34.5,228.1z"/>
		<path d="M52.6,228.4c0-0.6-0.2-1.1-0.7-1.5c-0.4-0.4-1.2-0.7-2.4-1c-1.4-0.3-2.4-0.8-3.2-1.4c-0.8-0.6-1.2-1.4-1.2-2.4
			c0-1,0.4-1.9,1.2-2.5c0.8-0.7,1.9-1,3.2-1c1.4,0,2.5,0.4,3.4,1.2c0.8,0.8,1.2,1.7,1.2,2.7l0,0.1h-1.7c0-0.8-0.3-1.4-0.8-1.8
			c-0.5-0.5-1.2-0.7-2.2-0.7c-0.9,0-1.5,0.2-2,0.6c-0.5,0.4-0.7,0.9-0.7,1.5c0,0.6,0.3,1,0.8,1.4c0.5,0.4,1.3,0.7,2.5,1
			c1.4,0.3,2.4,0.8,3.1,1.5s1.1,1.5,1.1,2.4c0,1-0.4,1.9-1.3,2.5s-2,1-3.3,1c-1.3,0-2.4-0.4-3.4-1.1c-1-0.7-1.5-1.6-1.4-2.8l0-0.1
			h1.7c0,0.8,0.3,1.5,0.9,1.9c0.6,0.4,1.4,0.6,2.3,0.6c0.9,0,1.6-0.2,2.1-0.6C52.4,229.5,52.6,229,52.6,228.4z"/>
		<path d="M56.2,226.7c0-1.4,0.4-2.6,1.2-3.5c0.8-0.9,1.8-1.4,3.1-1.4c1.3,0,2.4,0.5,3.2,1.4c0.8,0.9,1.2,2.1,1.2,3.5v0.2
			c0,1.4-0.4,2.6-1.2,3.5c-0.8,0.9-1.8,1.4-3.1,1.4s-2.4-0.5-3.2-1.4c-0.8-0.9-1.2-2.1-1.2-3.5V226.7z M58,226.9
			c0,1,0.2,1.9,0.6,2.5c0.4,0.7,1.1,1,1.9,1c0.8,0,1.5-0.3,1.9-1c0.4-0.7,0.6-1.5,0.6-2.5v-0.2c0-1-0.2-1.8-0.7-2.5
			c-0.4-0.7-1.1-1-1.9-1c-0.8,0-1.5,0.3-1.9,1c-0.4,0.7-0.6,1.5-0.6,2.5V226.9z"/>
		<path d="M68.9,231.6h-1.8v-13.9h1.8V231.6z"/>
		<path d="M71.1,227c0-1.5,0.3-2.8,1-3.7c0.7-0.9,1.6-1.4,2.8-1.4c0.6,0,1.1,0.1,1.5,0.3c0.4,0.2,0.8,0.5,1.1,0.9v-5.3h1.8v13.9
			h-1.4l-0.2-1.2c-0.3,0.5-0.7,0.8-1.2,1s-1,0.3-1.6,0.3c-1.2,0-2.1-0.4-2.8-1.3c-0.7-0.8-1-2-1-3.4V227z M72.9,227.2
			c0,1,0.2,1.7,0.6,2.3c0.4,0.6,1,0.9,1.8,0.9c0.5,0,1-0.1,1.3-0.4c0.4-0.2,0.6-0.6,0.9-1v-4.5c-0.2-0.4-0.5-0.7-0.9-0.9
			c-0.4-0.2-0.8-0.4-1.3-0.4c-0.8,0-1.5,0.3-1.9,1c-0.4,0.7-0.6,1.6-0.6,2.7V227.2z"/>
		<path d="M83.8,219.5H82v-1.8h1.8V219.5z M83.8,231.6H82V222h1.8V231.6z"/>
		<path d="M90.5,231.8c-1.3,0-2.4-0.4-3.2-1.3c-0.8-0.9-1.2-2-1.2-3.5v-0.4c0-1.4,0.4-2.5,1.2-3.4c0.8-0.9,1.8-1.4,2.9-1.4
			c1.3,0,2.3,0.4,2.9,1.2c0.7,0.8,1,1.8,1,3.1v1.1h-6.2l0,0c0,0.9,0.3,1.7,0.7,2.3c0.5,0.6,1.1,0.9,1.9,0.9c0.6,0,1.1-0.1,1.6-0.3
			c0.4-0.2,0.8-0.4,1.2-0.7l0.7,1.1c-0.3,0.3-0.8,0.6-1.4,0.8C91.9,231.7,91.3,231.8,90.5,231.8z M90.2,223.2
			c-0.6,0-1.1,0.2-1.5,0.7c-0.4,0.5-0.7,1.1-0.8,1.9l0,0h4.4v-0.2c0-0.7-0.2-1.3-0.6-1.7C91.5,223.4,90.9,223.2,90.2,223.2z"/>
		<path d="M100.6,223.6l-0.9-0.1c-0.5,0-0.9,0.1-1.2,0.3c-0.3,0.2-0.6,0.5-0.7,0.9v6.9h-1.8V222h1.6l0.2,1.4c0.3-0.5,0.6-0.9,1-1.2
			c0.4-0.3,0.9-0.4,1.4-0.4c0.1,0,0.3,0,0.4,0c0.1,0,0.2,0,0.3,0.1L100.6,223.6z"/>
		<path d="M108.8,219.5H107v-1.8h1.8V219.5z M108.8,231.6H107V222h1.8V231.6z"/>
		<path d="M117,229.1c0-0.4-0.1-0.7-0.4-1c-0.3-0.2-0.8-0.5-1.7-0.6c-1.2-0.3-2-0.6-2.6-1c-0.6-0.4-0.9-1-0.9-1.8c0-0.8,0.3-1.4,1-2
			s1.5-0.8,2.6-0.8c1.1,0,2,0.3,2.7,0.9c0.7,0.6,1,1.3,0.9,2.1l0,0.1h-1.7c0-0.4-0.2-0.8-0.5-1.1c-0.4-0.3-0.8-0.5-1.4-0.5
			c-0.6,0-1.1,0.1-1.4,0.4c-0.3,0.3-0.5,0.6-0.5,1c0,0.4,0.1,0.7,0.4,0.9c0.3,0.2,0.8,0.4,1.6,0.6c1.2,0.3,2.1,0.6,2.7,1.1
			c0.6,0.4,0.9,1,0.9,1.8c0,0.9-0.3,1.5-1,2.1c-0.7,0.5-1.6,0.8-2.7,0.8c-1.2,0-2.2-0.3-2.9-0.9c-0.7-0.6-1-1.3-1-2.2l0-0.1h1.7
			c0,0.6,0.3,1.1,0.7,1.4c0.4,0.3,0.9,0.4,1.5,0.4c0.6,0,1.1-0.1,1.5-0.4C116.9,229.8,117,229.5,117,229.1z"/>
		<path d="M127.4,219.5h-1.8v-1.8h1.8V219.5z M127.4,231.6h-1.8V222h1.8V231.6z"/>
		<path d="M131.6,222l0.1,1.4c0.3-0.5,0.7-0.9,1.2-1.2c0.5-0.3,1-0.4,1.6-0.4c1,0,1.8,0.3,2.4,0.9c0.6,0.6,0.9,1.5,0.9,2.8v6.1h-1.8
			v-6c0-0.8-0.2-1.4-0.5-1.8c-0.3-0.4-0.8-0.5-1.5-0.5c-0.5,0-0.9,0.1-1.3,0.4c-0.4,0.2-0.7,0.6-0.9,1v7h-1.8V222H131.6z"/>
		<path d="M147.2,219.7v2.3h1.8v1.3h-1.8v5.8c0,0.5,0.1,0.8,0.3,1c0.2,0.2,0.4,0.3,0.7,0.3c0.1,0,0.2,0,0.3,0c0.1,0,0.2-0.1,0.3-0.1
			l0.2,1.2c-0.1,0.1-0.3,0.2-0.6,0.3c-0.3,0.1-0.5,0.1-0.8,0.1c-0.7,0-1.3-0.2-1.7-0.6c-0.4-0.4-0.6-1.1-0.6-2v-5.8H144V222h1.5
			v-2.3H147.2z"/>
		<path d="M153,223.3c0.3-0.5,0.7-0.8,1.2-1.1c0.5-0.3,1-0.4,1.6-0.4c1,0,1.8,0.3,2.4,0.9c0.6,0.6,0.9,1.6,0.9,2.8v6h-1.8v-6
			c0-0.8-0.2-1.4-0.5-1.8c-0.3-0.4-0.8-0.6-1.5-0.6c-0.5,0-0.9,0.1-1.3,0.3c-0.4,0.2-0.7,0.5-1,0.9v7.1h-1.8v-13.9h1.8V223.3z"/>
		<path d="M165.6,231.8c-1.3,0-2.4-0.4-3.2-1.3c-0.8-0.9-1.2-2-1.2-3.5v-0.4c0-1.4,0.4-2.5,1.2-3.4c0.8-0.9,1.8-1.4,2.9-1.4
			c1.3,0,2.3,0.4,2.9,1.2c0.7,0.8,1,1.8,1,3.1v1.1H163l0,0c0,0.9,0.3,1.7,0.7,2.3s1.1,0.9,1.9,0.9c0.6,0,1.1-0.1,1.6-0.3
			s0.8-0.4,1.2-0.7l0.7,1.1c-0.3,0.3-0.8,0.6-1.4,0.8C167,231.7,166.4,231.8,165.6,231.8z M165.3,223.2c-0.6,0-1.1,0.2-1.5,0.7
			c-0.4,0.5-0.7,1.1-0.8,1.9l0,0h4.4v-0.2c0-0.7-0.2-1.3-0.6-1.7C166.6,223.4,166,223.2,165.3,223.2z"/>
		<path d="M183.4,222.1c0,0.7-0.2,1.3-0.6,1.8c-0.4,0.5-0.9,0.9-1.5,1.1c0.7,0.3,1.3,0.7,1.8,1.2c0.4,0.6,0.7,1.2,0.7,1.9
			c0,1.2-0.4,2.1-1.2,2.7c-0.8,0.6-1.8,0.9-3,0.9c-1.3,0-2.3-0.3-3.1-0.9c-0.8-0.6-1.2-1.5-1.2-2.7c0-0.7,0.2-1.4,0.7-1.9
			c0.4-0.6,1-1,1.8-1.2c-0.6-0.2-1.2-0.6-1.5-1.1c-0.4-0.5-0.6-1.1-0.6-1.8c0-1.1,0.4-2,1.1-2.6c0.7-0.6,1.6-0.9,2.8-0.9
			c1.1,0,2.1,0.3,2.8,0.9C183.1,220,183.4,220.9,183.4,222.1z M182,228.1c0-0.7-0.2-1.3-0.7-1.7c-0.5-0.5-1.1-0.7-1.8-0.7
			c-0.7,0-1.3,0.2-1.8,0.7c-0.5,0.5-0.7,1-0.7,1.7c0,0.7,0.2,1.3,0.7,1.7s1,0.6,1.8,0.6c0.7,0,1.3-0.2,1.8-0.6
			C181.8,229.4,182,228.8,182,228.1z M181.7,222.1c0-0.6-0.2-1.2-0.6-1.6c-0.4-0.4-0.9-0.6-1.5-0.6c-0.6,0-1.1,0.2-1.5,0.6
			c-0.4,0.4-0.6,0.9-0.6,1.6c0,0.7,0.2,1.2,0.6,1.6c0.4,0.4,0.9,0.6,1.5,0.6c0.6,0,1.1-0.2,1.5-0.6
			C181.5,223.3,181.7,222.8,181.7,222.1z"/>
		<path d="M194.1,231.6h-8.4v-1.2l4.2-4.7c0.8-0.8,1.3-1.5,1.5-2c0.3-0.5,0.4-1,0.4-1.5c0-0.6-0.2-1.2-0.6-1.6
			c-0.4-0.4-0.9-0.7-1.5-0.7c-0.9,0-1.6,0.2-2,0.7c-0.4,0.5-0.6,1.1-0.6,1.9h-1.7l0-0.1c0-1.1,0.3-2,1.1-2.8
			c0.8-0.8,1.8-1.1,3.2-1.1c1.2,0,2.1,0.3,2.8,1c0.7,0.7,1,1.5,1,2.6c0,0.7-0.2,1.4-0.6,2.1c-0.4,0.7-1,1.5-1.8,2.3l-3.4,3.7l0,0
			h6.2V231.6z"/>
		<path d="M197.8,222l0.1,1.4c0.3-0.5,0.7-0.9,1.2-1.2c0.5-0.3,1-0.4,1.6-0.4c1,0,1.8,0.3,2.4,0.9c0.6,0.6,0.9,1.5,0.9,2.8v6.1h-1.8
			v-6c0-0.8-0.2-1.4-0.5-1.8c-0.3-0.4-0.8-0.5-1.5-0.5c-0.5,0-0.9,0.1-1.3,0.4c-0.4,0.2-0.7,0.6-0.9,1v7h-1.8V222H197.8z"/>
		<path d="M206.2,227c0-1.5,0.3-2.8,1-3.7c0.7-0.9,1.6-1.4,2.8-1.4c0.6,0,1.1,0.1,1.5,0.3c0.4,0.2,0.8,0.5,1.1,0.9v-5.3h1.8v13.9
			h-1.4l-0.2-1.2c-0.3,0.5-0.7,0.8-1.2,1c-0.5,0.2-1,0.3-1.6,0.3c-1.2,0-2.1-0.4-2.8-1.3c-0.7-0.8-1-2-1-3.4V227z M207.9,227.2
			c0,1,0.2,1.7,0.6,2.3c0.4,0.6,1,0.9,1.8,0.9c0.5,0,1-0.1,1.3-0.4s0.6-0.6,0.9-1v-4.5c-0.2-0.4-0.5-0.7-0.9-0.9
			c-0.4-0.2-0.8-0.4-1.3-0.4c-0.8,0-1.5,0.3-1.9,1c-0.4,0.7-0.6,1.6-0.6,2.7V227.2z"/>
		<path d="M228.8,228.3h-5.4l-1.2,3.3h-1.8l5-12.9h1.5l4.9,12.9H230L228.8,228.3z M223.9,226.8h4.4l-2.1-5.9H226L223.9,226.8z"/>
		<path d="M235.1,219.5h-1.8v-1.8h1.8V219.5z M235.1,231.6h-1.8V222h1.8V231.6z"/>
		<path d="M242.3,223.6l-0.9-0.1c-0.5,0-0.9,0.1-1.2,0.3s-0.6,0.5-0.7,0.9v6.9h-1.8V222h1.6l0.2,1.4c0.3-0.5,0.6-0.9,1-1.2
			c0.4-0.3,0.9-0.4,1.4-0.4c0.1,0,0.3,0,0.4,0c0.1,0,0.2,0,0.3,0.1L242.3,223.6z"/>
		<path d="M252.2,227.2c0,1.4-0.3,2.5-1,3.4c-0.7,0.9-1.6,1.3-2.8,1.3c-0.6,0-1.2-0.1-1.7-0.4c-0.5-0.2-0.9-0.6-1.2-1.1l-0.2,1.3
			H244v-13.9h1.8v5.4c0.3-0.4,0.7-0.8,1.1-1c0.4-0.2,1-0.3,1.6-0.3c1.2,0,2.1,0.5,2.8,1.4c0.7,0.9,1,2.2,1,3.7V227.2z M250.5,227
			c0-1.1-0.2-2-0.6-2.7c-0.4-0.7-1-1-1.9-1c-0.5,0-1,0.1-1.4,0.4c-0.4,0.3-0.7,0.6-0.9,1.1v4.2c0.2,0.5,0.5,0.8,0.9,1.1
			c0.4,0.3,0.8,0.4,1.4,0.4c0.8,0,1.4-0.3,1.8-0.9c0.4-0.6,0.6-1.4,0.6-2.3V227z"/>
		<path d="M254,226.7c0-1.4,0.4-2.6,1.2-3.5c0.8-0.9,1.8-1.4,3.1-1.4c1.3,0,2.4,0.5,3.2,1.4c0.8,0.9,1.2,2.1,1.2,3.5v0.2
			c0,1.4-0.4,2.6-1.2,3.5c-0.8,0.9-1.8,1.4-3.1,1.4s-2.4-0.5-3.2-1.4c-0.8-0.9-1.2-2.1-1.2-3.5V226.7z M255.7,226.9
			c0,1,0.2,1.9,0.6,2.5c0.4,0.7,1.1,1,1.9,1c0.8,0,1.5-0.3,1.9-1c0.4-0.7,0.6-1.5,0.6-2.5v-0.2c0-1-0.2-1.8-0.7-2.5
			c-0.4-0.7-1.1-1-1.9-1c-0.8,0-1.5,0.3-1.9,1c-0.4,0.7-0.6,1.5-0.6,2.5V226.9z"/>
		<path d="M269.3,223.6l-0.9-0.1c-0.5,0-0.9,0.1-1.2,0.3s-0.6,0.5-0.7,0.9v6.9h-1.8V222h1.6l0.2,1.4c0.3-0.5,0.6-0.9,1-1.2
			c0.4-0.3,0.9-0.4,1.4-0.4c0.1,0,0.3,0,0.4,0c0.1,0,0.2,0,0.3,0.1L269.3,223.6z"/>
		<path d="M272.5,222l0.1,1.4c0.3-0.5,0.7-0.9,1.2-1.2c0.5-0.3,1-0.4,1.6-0.4c1,0,1.8,0.3,2.4,0.9c0.6,0.6,0.9,1.5,0.9,2.8v6.1H277
			v-6c0-0.8-0.2-1.4-0.5-1.8c-0.3-0.4-0.8-0.5-1.5-0.5c-0.5,0-0.9,0.1-1.3,0.4c-0.4,0.2-0.7,0.6-0.9,1v7H271V222H272.5z"/>
		<path d="M285.3,231.8c-1.3,0-2.4-0.4-3.2-1.3c-0.8-0.9-1.2-2-1.2-3.5v-0.4c0-1.4,0.4-2.5,1.2-3.4c0.8-0.9,1.8-1.4,2.9-1.4
			c1.3,0,2.3,0.4,2.9,1.2c0.7,0.8,1,1.8,1,3.1v1.1h-6.2l0,0c0,0.9,0.3,1.7,0.7,2.3c0.5,0.6,1.1,0.9,1.9,0.9c0.6,0,1.1-0.1,1.6-0.3
			s0.8-0.4,1.2-0.7l0.7,1.1c-0.3,0.3-0.8,0.6-1.4,0.8C286.8,231.7,286.1,231.8,285.3,231.8z M285,223.2c-0.6,0-1.1,0.2-1.5,0.7
			c-0.4,0.5-0.7,1.1-0.8,1.9l0,0h4.4v-0.2c0-0.7-0.2-1.3-0.6-1.7C286.3,223.4,285.7,223.2,285,223.2z"/>
		<path d="M301.4,231.6c-0.1-0.3-0.1-0.5-0.1-0.8c0-0.2-0.1-0.4-0.1-0.7c-0.3,0.5-0.8,0.8-1.3,1.2c-0.5,0.3-1.1,0.5-1.7,0.5
			c-1,0-1.8-0.3-2.3-0.8s-0.8-1.2-0.8-2.1c0-0.9,0.4-1.6,1.1-2.2c0.7-0.5,1.8-0.8,3-0.8h1.9v-1c0-0.6-0.2-1-0.5-1.3
			c-0.3-0.3-0.8-0.5-1.5-0.5c-0.6,0-1,0.1-1.4,0.4c-0.4,0.3-0.5,0.6-0.5,1h-1.7l0-0.1c0-0.7,0.3-1.3,1-1.9c0.7-0.6,1.6-0.9,2.7-0.9
			c1.1,0,2,0.3,2.6,0.8s1,1.4,1,2.4v4.6c0,0.3,0,0.7,0.1,1c0,0.3,0.1,0.6,0.2,0.9H301.4z M298.4,230.3c0.6,0,1.2-0.2,1.7-0.5
			c0.5-0.3,0.8-0.7,1-1.1v-1.6h-2c-0.7,0-1.3,0.2-1.7,0.5c-0.4,0.4-0.6,0.8-0.6,1.2c0,0.4,0.1,0.8,0.4,1
			C297.5,230.2,297.9,230.3,298.4,230.3z"/>
		<path d="M307.8,219.7v2.3h1.8v1.3h-1.8v5.8c0,0.5,0.1,0.8,0.3,1c0.2,0.2,0.4,0.3,0.7,0.3c0.1,0,0.2,0,0.3,0c0.1,0,0.2-0.1,0.3-0.1
			l0.2,1.2c-0.1,0.1-0.3,0.2-0.6,0.3c-0.3,0.1-0.5,0.1-0.8,0.1c-0.7,0-1.3-0.2-1.7-0.6c-0.4-0.4-0.6-1.1-0.6-2v-5.8h-1.5V222h1.5
			v-2.3H307.8z"/>
		<path d="M316.6,231.6v-12.9h4.2c1.4,0,2.4,0.3,3.2,0.9c0.8,0.6,1.1,1.5,1.1,2.6c0,0.6-0.2,1.1-0.6,1.5s-0.9,0.8-1.4,1
			c0.8,0.2,1.4,0.5,1.8,1.1s0.7,1.3,0.7,2.1c0,1.2-0.4,2.1-1.2,2.7c-0.8,0.6-1.8,0.9-3.1,0.9H316.6z M318.3,224.2h2.8
			c0.7,0,1.2-0.2,1.6-0.5c0.4-0.4,0.6-0.9,0.6-1.5c0-0.7-0.2-1.2-0.7-1.6c-0.4-0.3-1.1-0.5-1.9-0.5h-2.5V224.2z M318.3,225.6v4.7h3
			c0.8,0,1.4-0.2,1.9-0.6c0.4-0.4,0.7-0.9,0.7-1.7c0-0.8-0.2-1.3-0.6-1.8c-0.4-0.4-0.9-0.6-1.7-0.6H318.3z"/>
		<path d="M333.8,231.6c-0.1-0.3-0.1-0.5-0.1-0.8c0-0.2-0.1-0.4-0.1-0.7c-0.3,0.5-0.8,0.8-1.3,1.2c-0.5,0.3-1.1,0.5-1.7,0.5
			c-1,0-1.8-0.3-2.3-0.8c-0.5-0.5-0.8-1.2-0.8-2.1c0-0.9,0.4-1.6,1.1-2.2c0.7-0.5,1.8-0.8,3-0.8h1.9v-1c0-0.6-0.2-1-0.5-1.3
			c-0.3-0.3-0.8-0.5-1.5-0.5c-0.6,0-1,0.1-1.4,0.4c-0.4,0.3-0.5,0.6-0.5,1h-1.7l0-0.1c0-0.7,0.3-1.3,1-1.9c0.7-0.6,1.6-0.9,2.7-0.9
			c1.1,0,2,0.3,2.6,0.8s1,1.4,1,2.4v4.6c0,0.3,0,0.7,0.1,1c0,0.3,0.1,0.6,0.2,0.9H333.8z M330.9,230.3c0.6,0,1.2-0.2,1.7-0.5
			c0.5-0.3,0.8-0.7,1-1.1v-1.6h-2c-0.7,0-1.3,0.2-1.7,0.5c-0.4,0.4-0.6,0.8-0.6,1.2c0,0.4,0.1,0.8,0.4,1
			C330,230.2,330.4,230.3,330.9,230.3z"/>
		<path d="M337.5,227c0-1.5,0.3-2.8,1-3.7c0.7-0.9,1.6-1.4,2.8-1.4c0.6,0,1.1,0.1,1.6,0.4c0.5,0.2,0.8,0.6,1.2,1.1l0.2-1.3h1.4v9.7
			c0,1.2-0.4,2.2-1.1,2.8c-0.7,0.7-1.8,1-3.1,1c-0.5,0-1-0.1-1.5-0.2c-0.5-0.1-1-0.3-1.4-0.5l0.4-1.4c0.3,0.2,0.7,0.3,1.1,0.4
			c0.4,0.1,0.9,0.2,1.3,0.2c0.9,0,1.5-0.2,1.9-0.6c0.4-0.4,0.6-1,0.6-1.8v-1.1c-0.3,0.4-0.7,0.7-1.1,0.9c-0.4,0.2-0.9,0.3-1.5,0.3
			c-1.2,0-2.1-0.4-2.8-1.3c-0.7-0.9-1-2-1-3.4V227z M339.3,227.2c0,1,0.2,1.7,0.6,2.3c0.4,0.6,1,0.9,1.9,0.9c0.5,0,1-0.1,1.3-0.4
			c0.4-0.2,0.6-0.6,0.9-1v-4.4c-0.2-0.4-0.5-0.7-0.9-1c-0.4-0.2-0.8-0.4-1.3-0.4c-0.8,0-1.5,0.3-1.9,1c-0.4,0.7-0.6,1.6-0.6,2.7
			V227.2z"/>
		<path d="M352.8,223.6l-0.9-0.1c-0.5,0-0.9,0.1-1.2,0.3s-0.6,0.5-0.7,0.9v6.9h-1.8V222h1.6l0.2,1.4c0.3-0.5,0.6-0.9,1-1.2
			c0.4-0.3,0.9-0.4,1.4-0.4c0.1,0,0.3,0,0.4,0c0.1,0,0.2,0,0.3,0.1L352.8,223.6z"/>
		<path d="M360.4,231.6c-0.1-0.3-0.1-0.5-0.1-0.8c0-0.2-0.1-0.4-0.1-0.7c-0.3,0.5-0.8,0.8-1.3,1.2c-0.5,0.3-1.1,0.5-1.7,0.5
			c-1,0-1.8-0.3-2.3-0.8c-0.5-0.5-0.8-1.2-0.8-2.1c0-0.9,0.4-1.6,1.1-2.2c0.7-0.5,1.8-0.8,3-0.8h1.9v-1c0-0.6-0.2-1-0.5-1.3
			c-0.3-0.3-0.8-0.5-1.5-0.5c-0.6,0-1,0.1-1.4,0.4c-0.4,0.3-0.5,0.6-0.5,1h-1.7l0-0.1c0-0.7,0.3-1.3,1-1.9c0.7-0.6,1.6-0.9,2.7-0.9
			c1.1,0,2,0.3,2.6,0.8s1,1.4,1,2.4v4.6c0,0.3,0,0.7,0.1,1c0,0.3,0.1,0.6,0.2,0.9H360.4z M357.5,230.3c0.6,0,1.2-0.2,1.7-0.5
			c0.5-0.3,0.8-0.7,1-1.1v-1.6h-2c-0.7,0-1.3,0.2-1.7,0.5c-0.4,0.4-0.6,0.8-0.6,1.2c0,0.4,0.1,0.8,0.4,1
			C356.6,230.2,357,230.3,357.5,230.3z"/>
		<path d="M366.1,222l0.1,1.3c0.3-0.5,0.7-0.8,1.2-1.1c0.5-0.3,1-0.4,1.7-0.4c0.6,0,1.2,0.1,1.6,0.4c0.5,0.3,0.8,0.7,1,1.3
			c0.3-0.5,0.7-1,1.2-1.3s1.1-0.5,1.7-0.5c1,0,1.8,0.3,2.3,1c0.6,0.7,0.9,1.7,0.9,3v5.8h-1.8v-5.8c0-0.9-0.2-1.6-0.5-2
			c-0.3-0.4-0.8-0.6-1.5-0.6c-0.6,0-1.1,0.2-1.5,0.6c-0.4,0.4-0.6,0.9-0.7,1.6v0.1v6.1h-1.8v-5.8c0-0.9-0.2-1.6-0.5-2
			c-0.3-0.4-0.8-0.6-1.4-0.6c-0.5,0-1,0.1-1.3,0.3c-0.3,0.2-0.6,0.5-0.8,0.9v7.1h-1.8V222H366.1z"/>
		<path d="M22.9,250.1h-5.4l-1.2,3.3h-1.8l5-12.9H21l4.9,12.9h-1.8L22.9,250.1z M18.1,248.7h4.4l-2.1-5.9h-0.1L18.1,248.7z"/>
		<path d="M29.3,241.4h-1.8v-1.8h1.8V241.4z M29.3,253.5h-1.8v-9.6h1.8V253.5z"/>
		<path d="M36.5,245.4l-0.9-0.1c-0.5,0-0.9,0.1-1.2,0.3c-0.3,0.2-0.6,0.5-0.7,0.9v6.9H32v-9.6h1.6l0.2,1.4c0.3-0.5,0.6-0.9,1-1.2
			s0.9-0.4,1.4-0.4c0.1,0,0.3,0,0.4,0c0.1,0,0.2,0,0.3,0.1L36.5,245.4z"/>
		<path d="M50.7,247.7h-5.9v5.7h-1.8v-12.9h8.6v1.4h-6.8v4.5h5.9V247.7z"/>
		<path d="M55.2,241.4h-1.8v-1.8h1.8V241.4z M55.2,253.5h-1.8v-9.6h1.8V253.5z"/>
		<path d="M61.9,253.7c-1.3,0-2.4-0.4-3.2-1.3c-0.8-0.9-1.2-2-1.2-3.5v-0.4c0-1.4,0.4-2.5,1.2-3.4c0.8-0.9,1.8-1.4,2.9-1.4
			c1.3,0,2.3,0.4,2.9,1.2c0.7,0.8,1,1.8,1,3.1v1.1h-6.2l0,0c0,0.9,0.3,1.7,0.7,2.3c0.5,0.6,1.1,0.9,1.9,0.9c0.6,0,1.1-0.1,1.6-0.3
			c0.4-0.2,0.8-0.4,1.2-0.7l0.7,1.1c-0.3,0.3-0.8,0.6-1.4,0.8C63.4,253.5,62.7,253.7,61.9,253.7z M61.6,245.1
			c-0.6,0-1.1,0.2-1.5,0.7c-0.4,0.5-0.7,1.1-0.8,1.9l0,0h4.4v-0.2c0-0.7-0.2-1.3-0.6-1.7C62.9,245.3,62.4,245.1,61.6,245.1z"/>
		<path d="M69.4,253.5h-1.8v-13.9h1.8V253.5z"/>
		<path d="M71.7,248.8c0-1.5,0.3-2.8,1-3.7c0.7-0.9,1.6-1.4,2.8-1.4c0.6,0,1.1,0.1,1.5,0.3c0.4,0.2,0.8,0.5,1.1,0.9v-5.3h1.8v13.9
			h-1.4l-0.2-1.2c-0.3,0.5-0.7,0.8-1.2,1c-0.5,0.2-1,0.3-1.6,0.3c-1.2,0-2.1-0.4-2.8-1.3c-0.7-0.8-1-2-1-3.4V248.8z M73.5,249
			c0,1,0.2,1.7,0.6,2.3c0.4,0.6,1,0.9,1.8,0.9c0.5,0,1-0.1,1.3-0.4c0.4-0.2,0.6-0.6,0.9-1v-4.5c-0.2-0.4-0.5-0.7-0.9-0.9
			c-0.4-0.2-0.8-0.4-1.3-0.4c-0.8,0-1.5,0.3-1.9,1c-0.4,0.7-0.6,1.6-0.6,2.7V249z"/>
		<path d="M84,253l-1.3,2.7h-1l0.6-2.8v-1.4H84V253z"/>
		<path d="M97.9,250.1h-5.4l-1.2,3.3h-1.8l5-12.9H96l4.9,12.9h-1.8L97.9,250.1z M93.1,248.7h4.4l-2.1-5.9h-0.1L93.1,248.7z"/>
		<path d="M103.1,253.5v-8.3h-1.5v-1.3h1.5v-1.2c0-1,0.3-1.8,0.8-2.4c0.5-0.6,1.3-0.8,2.2-0.8c0.2,0,0.4,0,0.6,0
			c0.2,0,0.4,0.1,0.7,0.1l-0.2,1.3c-0.1,0-0.2,0-0.4-0.1c-0.2,0-0.3,0-0.5,0c-0.5,0-0.9,0.2-1.1,0.5c-0.2,0.3-0.4,0.7-0.4,1.3v1.2h2
			v1.3h-2v8.3H103.1z"/>
		<path d="M108.1,248.8c0-1.5,0.3-2.8,1-3.7c0.7-0.9,1.6-1.4,2.8-1.4c0.6,0,1.1,0.1,1.6,0.4c0.5,0.2,0.8,0.6,1.2,1.1l0.2-1.3h1.4
			v9.7c0,1.2-0.4,2.2-1.1,2.8c-0.7,0.7-1.8,1-3.1,1c-0.5,0-1-0.1-1.5-0.2c-0.5-0.1-1-0.3-1.4-0.5l0.4-1.4c0.3,0.2,0.7,0.3,1.1,0.4
			c0.4,0.1,0.9,0.2,1.3,0.2c0.9,0,1.5-0.2,1.9-0.6c0.4-0.4,0.6-1,0.6-1.8v-1.1c-0.3,0.4-0.7,0.7-1.1,0.9c-0.4,0.2-0.9,0.3-1.5,0.3
			c-1.2,0-2.1-0.4-2.8-1.3c-0.7-0.9-1-2-1-3.4V248.8z M109.8,249c0,1,0.2,1.7,0.6,2.3c0.4,0.6,1,0.9,1.9,0.9c0.5,0,1-0.1,1.3-0.4
			c0.4-0.2,0.6-0.6,0.9-1v-4.4c-0.2-0.4-0.5-0.7-0.9-1c-0.4-0.2-0.8-0.4-1.3-0.4c-0.8,0-1.5,0.3-1.9,1c-0.4,0.7-0.6,1.6-0.6,2.7V249
			z"/>
		<path d="M120.5,245.1c0.3-0.5,0.7-0.8,1.2-1.1c0.5-0.3,1-0.4,1.6-0.4c1,0,1.8,0.3,2.4,0.9c0.6,0.6,0.9,1.6,0.9,2.8v6h-1.8v-6
			c0-0.8-0.2-1.4-0.5-1.8c-0.3-0.4-0.8-0.6-1.5-0.6c-0.5,0-0.9,0.1-1.3,0.3c-0.4,0.2-0.7,0.5-1,0.9v7.1h-1.8v-13.9h1.8V245.1z"/>
		<path d="M135,253.5c-0.1-0.3-0.1-0.5-0.1-0.8c0-0.2-0.1-0.4-0.1-0.7c-0.3,0.5-0.8,0.8-1.3,1.2c-0.5,0.3-1.1,0.5-1.7,0.5
			c-1,0-1.8-0.3-2.3-0.8c-0.5-0.5-0.8-1.2-0.8-2.1c0-0.9,0.4-1.6,1.1-2.2c0.7-0.5,1.8-0.8,3-0.8h1.9v-1c0-0.6-0.2-1-0.5-1.3
			c-0.3-0.3-0.8-0.5-1.5-0.5c-0.6,0-1,0.1-1.4,0.4c-0.4,0.3-0.5,0.6-0.5,1h-1.7l0-0.1c0-0.7,0.3-1.3,1-1.9c0.7-0.6,1.6-0.9,2.7-0.9
			c1.1,0,2,0.3,2.6,0.8c0.7,0.6,1,1.4,1,2.4v4.6c0,0.3,0,0.7,0.1,1c0,0.3,0.1,0.6,0.2,0.9H135z M132.1,252.2c0.6,0,1.2-0.2,1.7-0.5
			c0.5-0.3,0.8-0.7,1-1.1V249h-2c-0.7,0-1.3,0.2-1.7,0.5c-0.4,0.4-0.6,0.8-0.6,1.2c0,0.4,0.1,0.8,0.4,1
			C131.2,252.1,131.6,252.2,132.1,252.2z"/>
		<path d="M140.7,243.9l0.1,1.4c0.3-0.5,0.7-0.9,1.2-1.2c0.5-0.3,1-0.4,1.6-0.4c1,0,1.8,0.3,2.4,0.9c0.6,0.6,0.9,1.5,0.9,2.8v6.1
			h-1.8v-6c0-0.8-0.2-1.4-0.5-1.8c-0.3-0.4-0.8-0.5-1.5-0.5c-0.5,0-0.9,0.1-1.3,0.4c-0.4,0.2-0.7,0.6-0.9,1v7h-1.8v-9.6H140.7z"/>
		<path d="M151.4,241.4h-1.8v-1.8h1.8V241.4z M151.4,253.5h-1.8v-9.6h1.8V253.5z"/>
		<path d="M159.7,250.9c0-0.4-0.1-0.7-0.4-1c-0.3-0.2-0.8-0.5-1.7-0.6c-1.2-0.3-2-0.6-2.6-1c-0.6-0.4-0.9-1-0.9-1.8
			c0-0.8,0.3-1.4,1-2c0.7-0.5,1.5-0.8,2.6-0.8c1.1,0,2,0.3,2.7,0.9c0.7,0.6,1,1.3,0.9,2.1l0,0.1h-1.7c0-0.4-0.2-0.8-0.5-1.1
			c-0.4-0.3-0.8-0.5-1.4-0.5c-0.6,0-1.1,0.1-1.4,0.4c-0.3,0.3-0.5,0.6-0.5,1c0,0.4,0.1,0.7,0.4,0.9c0.3,0.2,0.8,0.4,1.6,0.6
			c1.2,0.3,2.1,0.6,2.7,1.1c0.6,0.4,0.9,1,0.9,1.8c0,0.9-0.3,1.5-1,2.1c-0.7,0.5-1.6,0.8-2.7,0.8c-1.2,0-2.2-0.3-2.9-0.9
			c-0.7-0.6-1-1.3-1-2.2l0-0.1h1.7c0,0.6,0.3,1.1,0.7,1.4c0.4,0.3,0.9,0.4,1.5,0.4c0.6,0,1.1-0.1,1.5-0.4
			C159.5,251.7,159.7,251.3,159.7,250.9z"/>
		<path d="M165.9,241.5v2.3h1.8v1.3h-1.8v5.8c0,0.5,0.1,0.8,0.3,1c0.2,0.2,0.4,0.3,0.7,0.3c0.1,0,0.2,0,0.3,0c0.1,0,0.2-0.1,0.3-0.1
			l0.2,1.2c-0.1,0.1-0.3,0.2-0.6,0.3c-0.3,0.1-0.5,0.1-0.8,0.1c-0.7,0-1.3-0.2-1.7-0.6c-0.4-0.4-0.6-1.1-0.6-2v-5.8h-1.5v-1.3h1.5
			v-2.3H165.9z"/>
		<path d="M175.8,253.5c-0.1-0.3-0.1-0.5-0.1-0.8c0-0.2-0.1-0.4-0.1-0.7c-0.3,0.5-0.8,0.8-1.3,1.2s-1.1,0.5-1.7,0.5
			c-1,0-1.8-0.3-2.3-0.8s-0.8-1.2-0.8-2.1c0-0.9,0.4-1.6,1.1-2.2c0.7-0.5,1.8-0.8,3-0.8h1.9v-1c0-0.6-0.2-1-0.5-1.3
			c-0.3-0.3-0.8-0.5-1.5-0.5c-0.6,0-1,0.1-1.4,0.4c-0.4,0.3-0.5,0.6-0.5,1H170l0-0.1c0-0.7,0.3-1.3,1-1.9c0.7-0.6,1.6-0.9,2.7-0.9
			c1.1,0,2,0.3,2.6,0.8c0.7,0.6,1,1.4,1,2.4v4.6c0,0.3,0,0.7,0.1,1c0,0.3,0.1,0.6,0.2,0.9H175.8z M172.9,252.2
			c0.6,0,1.2-0.2,1.7-0.5c0.5-0.3,0.8-0.7,1-1.1V249h-2c-0.7,0-1.3,0.2-1.7,0.5c-0.4,0.4-0.6,0.8-0.6,1.2c0,0.4,0.1,0.8,0.4,1
			C172,252.1,172.4,252.2,172.9,252.2z"/>
		<path d="M181.4,243.9l0.1,1.4c0.3-0.5,0.7-0.9,1.2-1.2c0.5-0.3,1-0.4,1.6-0.4c1,0,1.8,0.3,2.4,0.9c0.6,0.6,0.9,1.5,0.9,2.8v6.1
			h-1.8v-6c0-0.8-0.2-1.4-0.5-1.8c-0.3-0.4-0.8-0.5-1.5-0.5c-0.5,0-0.9,0.1-1.3,0.4c-0.4,0.2-0.7,0.6-0.9,1v7h-1.8v-9.6H181.4z"/>
		<path d="M192.1,253.5h-1.8v-1.8h1.8V253.5z"/>
	</g>
	<g>
		<path fill="#8A909D" d="M220.7,302.3H214v-1l3.4-3.7c0.6-0.7,1-1.2,1.2-1.6c0.2-0.4,0.3-0.8,0.3-1.2c0-0.5-0.1-0.9-0.4-1.3
			c-0.3-0.3-0.7-0.5-1.2-0.5c-0.7,0-1.2,0.2-1.6,0.5c-0.3,0.4-0.5,0.9-0.5,1.5h-1.3l0,0c0-0.9,0.3-1.6,0.9-2.2
			c0.6-0.6,1.5-0.9,2.5-0.9c0.9,0,1.7,0.3,2.2,0.8c0.5,0.5,0.8,1.2,0.8,2.1c0,0.6-0.2,1.1-0.5,1.7c-0.3,0.6-0.8,1.2-1.4,1.8
			l-2.7,2.9l0,0h4.9V302.3z"/>
		<path fill="#8A909D" d="M227.7,298.9h1.4v1.1h-1.4v2.4h-1.4V300h-4.6v-0.8l4.5-7.1h1.5V298.9z M223.2,298.9h3.1v-4.8l0,0l-0.1,0.4
			L223.2,298.9z"/>
		<path fill="#8A909D" d="M236.9,302.3h-6.6v-1l3.4-3.7c0.6-0.7,1-1.2,1.2-1.6s0.3-0.8,0.3-1.2c0-0.5-0.1-0.9-0.4-1.3
			c-0.3-0.3-0.7-0.5-1.2-0.5c-0.7,0-1.2,0.2-1.6,0.5c-0.3,0.4-0.5,0.9-0.5,1.5h-1.3l0,0c0-0.9,0.3-1.6,0.9-2.2
			c0.6-0.6,1.5-0.9,2.5-0.9c0.9,0,1.7,0.3,2.2,0.8c0.5,0.5,0.8,1.2,0.8,2.1c0,0.6-0.2,1.1-0.5,1.7c-0.3,0.6-0.8,1.2-1.4,1.8
			l-2.7,2.9l0,0h4.9V302.3z"/>
		<path fill="#8A909D" d="M249.6,299.1L249.6,299.1c0,1-0.3,1.8-1,2.5c-0.7,0.6-1.6,1-2.7,1c-1.2,0-2.1-0.4-2.8-1.2
			c-0.7-0.8-1.1-1.9-1.1-3.1v-1.8c0-1.3,0.4-2.3,1.1-3.1c0.7-0.8,1.7-1.2,2.8-1.2s2.1,0.3,2.8,0.9c0.7,0.6,1,1.4,1,2.5l0,0h-1.3
			c0-0.7-0.2-1.3-0.6-1.7c-0.4-0.4-1-0.6-1.8-0.6c-0.8,0-1.4,0.3-1.8,0.9c-0.5,0.6-0.7,1.4-0.7,2.3v1.8c0,0.9,0.2,1.7,0.7,2.3
			c0.5,0.6,1.1,0.9,1.8,0.9c0.8,0,1.4-0.2,1.8-0.6c0.4-0.4,0.6-1,0.6-1.7H249.6z"/>
		<path fill="#8A909D" d="M250.9,298.5c0-1.1,0.3-2.1,0.9-2.8c0.6-0.7,1.4-1.1,2.5-1.1c1.1,0,1.9,0.4,2.5,1.1
			c0.6,0.7,0.9,1.7,0.9,2.8v0.2c0,1.1-0.3,2.1-0.9,2.8c-0.6,0.7-1.4,1.1-2.5,1.1c-1,0-1.9-0.4-2.5-1.1c-0.6-0.7-0.9-1.7-0.9-2.8
			V298.5z M252.3,298.6c0,0.8,0.2,1.5,0.5,2s0.8,0.8,1.5,0.8c0.7,0,1.2-0.3,1.5-0.8c0.3-0.5,0.5-1.2,0.5-2v-0.2c0-0.8-0.2-1.5-0.5-2
			c-0.3-0.5-0.8-0.8-1.5-0.8c-0.7,0-1.2,0.3-1.5,0.8s-0.5,1.2-0.5,2V298.6z"/>
		<path fill="#8A909D" d="M260.7,294.7l0.1,1c0.2-0.4,0.6-0.6,0.9-0.8c0.4-0.2,0.8-0.3,1.3-0.3s0.9,0.1,1.3,0.4
			c0.4,0.2,0.6,0.6,0.8,1.1c0.2-0.4,0.6-0.8,0.9-1s0.9-0.4,1.4-0.4c0.8,0,1.4,0.3,1.8,0.8c0.5,0.5,0.7,1.3,0.7,2.4v4.6h-1.4v-4.6
			c0-0.7-0.1-1.3-0.4-1.6c-0.3-0.3-0.6-0.5-1.2-0.5c-0.5,0-0.9,0.2-1.1,0.5c-0.3,0.3-0.5,0.7-0.5,1.2v0.1v4.8H264v-4.6
			c0-0.7-0.1-1.2-0.4-1.6c-0.3-0.3-0.6-0.5-1.1-0.5c-0.4,0-0.8,0.1-1,0.3c-0.3,0.2-0.5,0.4-0.6,0.7v5.6h-1.4v-7.6H260.7z"/>
		<path fill="#8A909D" d="M273.2,294.7l0.1,1c0.2-0.4,0.6-0.6,0.9-0.8c0.4-0.2,0.8-0.3,1.3-0.3s0.9,0.1,1.3,0.4
			c0.4,0.2,0.6,0.6,0.8,1.1c0.2-0.4,0.6-0.8,0.9-1s0.9-0.4,1.4-0.4c0.8,0,1.4,0.3,1.8,0.8c0.5,0.5,0.7,1.3,0.7,2.4v4.6h-1.4v-4.6
			c0-0.7-0.1-1.3-0.4-1.6c-0.3-0.3-0.6-0.5-1.2-0.5c-0.5,0-0.9,0.2-1.1,0.5c-0.3,0.3-0.5,0.7-0.5,1.2v0.1v4.8h-1.4v-4.6
			c0-0.7-0.1-1.2-0.4-1.6c-0.3-0.3-0.6-0.5-1.1-0.5c-0.4,0-0.8,0.1-1,0.3c-0.3,0.2-0.5,0.4-0.6,0.7v5.6H272v-7.6H273.2z"/>
		<path fill="#8A909D" d="M287.8,302.5c-1.1,0-1.9-0.4-2.5-1.1c-0.6-0.7-0.9-1.6-0.9-2.7v-0.3c0-1.1,0.3-2,1-2.7s1.4-1.1,2.3-1.1
			c1,0,1.8,0.3,2.3,0.9c0.5,0.6,0.8,1.4,0.8,2.5v0.9h-4.9l0,0c0,0.7,0.2,1.3,0.6,1.8c0.4,0.5,0.9,0.7,1.5,0.7c0.5,0,0.9-0.1,1.2-0.2
			c0.4-0.1,0.7-0.3,0.9-0.6l0.5,0.9c-0.3,0.3-0.6,0.5-1.1,0.7C288.9,302.4,288.4,302.5,287.8,302.5z M287.5,295.7
			c-0.5,0-0.9,0.2-1.2,0.6c-0.3,0.4-0.5,0.9-0.6,1.5l0,0h3.5v-0.2c0-0.5-0.1-1-0.4-1.4S288.1,295.7,287.5,295.7z"/>
		<path fill="#8A909D" d="M293.5,294.7l0.1,1.1c0.3-0.4,0.6-0.7,1-0.9s0.8-0.3,1.3-0.3c0.8,0,1.5,0.2,1.9,0.7
			c0.5,0.5,0.7,1.2,0.7,2.2v4.8H297v-4.8c0-0.7-0.1-1.1-0.4-1.4c-0.3-0.3-0.7-0.4-1.2-0.4c-0.4,0-0.8,0.1-1.1,0.3
			c-0.3,0.2-0.6,0.5-0.7,0.8v5.6h-1.4v-7.6H293.5z"/>
		<path fill="#8A909D" d="M302.2,292.9v1.8h1.4v1h-1.4v4.6c0,0.4,0.1,0.6,0.2,0.8c0.1,0.1,0.3,0.2,0.6,0.2c0.1,0,0.2,0,0.3,0
			c0.1,0,0.2,0,0.3-0.1l0.2,0.9c-0.1,0.1-0.3,0.2-0.5,0.2s-0.4,0.1-0.6,0.1c-0.6,0-1-0.2-1.3-0.5c-0.3-0.3-0.5-0.9-0.5-1.6v-4.6
			h-1.2v-1h1.2v-1.8H302.2z"/>
		<path fill="#8A909D" d="M309.8,300.3c0-0.3-0.1-0.6-0.3-0.8c-0.2-0.2-0.7-0.4-1.3-0.5c-0.9-0.2-1.6-0.5-2.1-0.8
			c-0.5-0.3-0.7-0.8-0.7-1.4c0-0.6,0.3-1.1,0.8-1.6c0.5-0.4,1.2-0.7,2.1-0.7c0.9,0,1.6,0.2,2.1,0.7c0.5,0.5,0.8,1,0.7,1.7l0,0h-1.3
			c0-0.3-0.1-0.6-0.4-0.9c-0.3-0.3-0.6-0.4-1.1-0.4c-0.5,0-0.9,0.1-1.1,0.3c-0.2,0.2-0.4,0.5-0.4,0.8c0,0.3,0.1,0.5,0.3,0.7
			c0.2,0.2,0.6,0.3,1.3,0.5c1,0.2,1.7,0.5,2.1,0.8c0.5,0.4,0.7,0.8,0.7,1.4c0,0.7-0.3,1.2-0.8,1.6c-0.5,0.4-1.3,0.6-2.1,0.6
			c-1,0-1.7-0.2-2.3-0.7c-0.6-0.5-0.8-1.1-0.8-1.7l0,0h1.3c0,0.5,0.2,0.8,0.5,1.1c0.3,0.2,0.7,0.3,1.2,0.3c0.5,0,0.9-0.1,1.2-0.3
			C309.7,300.9,309.8,300.6,309.8,300.3z"/>
	</g>
	<g>
		<path fill="#D2D2D2" d="M86,184.3c0-0.5-0.2-0.9-0.6-1.3c-0.4-0.3-1.1-0.6-2-0.9c-1.2-0.3-2.1-0.7-2.8-1.2c-0.7-0.5-1-1.2-1-2.1
			c0-0.9,0.4-1.6,1.1-2.2c0.7-0.6,1.6-0.9,2.8-0.9c1.2,0,2.2,0.3,2.9,1c0.7,0.7,1.1,1.4,1,2.3l0,0h-1.4c0-0.7-0.2-1.2-0.6-1.6
			c-0.4-0.4-1.1-0.6-1.9-0.6c-0.8,0-1.3,0.2-1.7,0.5c-0.4,0.3-0.6,0.8-0.6,1.3c0,0.5,0.2,0.9,0.7,1.2c0.4,0.3,1.1,0.6,2.1,0.9
			c1.2,0.3,2.1,0.7,2.7,1.3c0.6,0.6,0.9,1.3,0.9,2.1c0,0.9-0.4,1.6-1.1,2.2c-0.7,0.5-1.7,0.8-2.9,0.8c-1.1,0-2.1-0.3-3-0.9
			c-0.9-0.6-1.3-1.4-1.2-2.4l0,0h1.4c0,0.7,0.3,1.3,0.8,1.6c0.5,0.4,1.2,0.6,2,0.6c0.8,0,1.4-0.2,1.8-0.5
			C85.7,185.3,86,184.8,86,184.3z"/>
		<path fill="#D2D2D2" d="M96.5,183.3c0,1.2-0.3,2.2-0.9,2.9c-0.6,0.7-1.4,1.1-2.4,1.1c-0.5,0-1-0.1-1.3-0.3c-0.4-0.2-0.7-0.4-1-0.8
			v4.1h-1.5v-11.5h1.2l0.2,1.1c0.3-0.4,0.6-0.7,1-0.9s0.9-0.3,1.4-0.3c1,0,1.8,0.4,2.4,1.2c0.6,0.8,0.9,1.9,0.9,3.2V183.3z
			 M94.9,183.1c0-0.9-0.2-1.7-0.6-2.3c-0.4-0.6-0.9-0.9-1.6-0.9c-0.4,0-0.8,0.1-1.1,0.3c-0.3,0.2-0.6,0.5-0.7,0.8v4
			c0.2,0.3,0.4,0.6,0.7,0.8c0.3,0.2,0.7,0.3,1.1,0.3c0.7,0,1.3-0.3,1.6-0.8c0.4-0.5,0.6-1.2,0.6-2V183.1z"/>
		<path fill="#D2D2D2" d="M98,182.9c0-1.2,0.3-2.2,1-3c0.7-0.8,1.6-1.2,2.7-1.2c1.2,0,2.1,0.4,2.7,1.2c0.7,0.8,1,1.8,1,3v0.2
			c0,1.2-0.3,2.3-1,3c-0.7,0.8-1.6,1.2-2.7,1.2c-1.1,0-2.1-0.4-2.7-1.2s-1-1.8-1-3V182.9z M99.5,183c0,0.9,0.2,1.6,0.6,2.2
			c0.4,0.6,0.9,0.9,1.7,0.9c0.7,0,1.3-0.3,1.6-0.9c0.4-0.6,0.6-1.3,0.6-2.2v-0.2c0-0.9-0.2-1.6-0.6-2.2c-0.4-0.6-0.9-0.9-1.7-0.9
			c-0.7,0-1.3,0.3-1.6,0.9c-0.4,0.6-0.6,1.3-0.6,2.2V183z"/>
		<path fill="#D2D2D2" d="M108.6,178.8l0.1,1.2c0.3-0.4,0.6-0.8,1-1c0.4-0.2,0.9-0.4,1.4-0.4c0.9,0,1.6,0.3,2.1,0.8
			c0.5,0.5,0.7,1.3,0.7,2.4v5.2h-1.5v-5.2c0-0.7-0.1-1.3-0.4-1.6s-0.7-0.5-1.3-0.5c-0.4,0-0.8,0.1-1.2,0.3s-0.6,0.5-0.8,0.9v6.1
			h-1.5v-8.3H108.6z"/>
		<path fill="#D2D2D2" d="M121,184.9c0-0.3-0.1-0.6-0.4-0.8c-0.3-0.2-0.7-0.4-1.4-0.6c-1-0.2-1.8-0.5-2.3-0.9
			c-0.5-0.4-0.8-0.9-0.8-1.5c0-0.7,0.3-1.2,0.9-1.7c0.6-0.5,1.3-0.7,2.2-0.7c1,0,1.7,0.2,2.3,0.7s0.8,1.1,0.8,1.8l0,0h-1.4
			c0-0.4-0.2-0.7-0.5-1c-0.3-0.3-0.7-0.4-1.2-0.4c-0.5,0-0.9,0.1-1.2,0.4c-0.3,0.2-0.4,0.5-0.4,0.9c0,0.3,0.1,0.6,0.3,0.8
			s0.7,0.4,1.4,0.5c1,0.2,1.8,0.5,2.3,0.9c0.5,0.4,0.8,0.9,0.8,1.6c0,0.7-0.3,1.3-0.9,1.8c-0.6,0.5-1.4,0.7-2.3,0.7
			c-1.1,0-1.9-0.3-2.5-0.8c-0.6-0.5-0.9-1.2-0.9-1.9l0,0h1.4c0,0.5,0.2,0.9,0.6,1.2c0.4,0.2,0.8,0.4,1.3,0.4c0.5,0,1-0.1,1.3-0.3
			S121,185.2,121,184.9z"/>
		<path fill="#D2D2D2" d="M124,182.9c0-1.2,0.3-2.2,1-3c0.7-0.8,1.6-1.2,2.7-1.2c1.2,0,2.1,0.4,2.7,1.2c0.7,0.8,1,1.8,1,3v0.2
			c0,1.2-0.3,2.3-1,3c-0.7,0.8-1.6,1.2-2.7,1.2c-1.1,0-2.1-0.4-2.7-1.2s-1-1.8-1-3V182.9z M125.5,183c0,0.9,0.2,1.6,0.6,2.2
			c0.4,0.6,0.9,0.9,1.7,0.9c0.7,0,1.3-0.3,1.6-0.9c0.4-0.6,0.6-1.3,0.6-2.2v-0.2c0-0.9-0.2-1.6-0.6-2.2c-0.4-0.6-0.9-0.9-1.7-0.9
			c-0.7,0-1.3,0.3-1.6,0.9c-0.4,0.6-0.6,1.3-0.6,2.2V183z"/>
		<path fill="#D2D2D2" d="M137.2,180.1l-0.8,0c-0.4,0-0.7,0.1-1,0.3c-0.3,0.2-0.5,0.5-0.6,0.8v5.9h-1.5v-8.3h1.4l0.1,1.2
			c0.2-0.4,0.5-0.8,0.9-1c0.3-0.2,0.7-0.4,1.2-0.4c0.1,0,0.2,0,0.3,0c0.1,0,0.2,0,0.3,0.1L137.2,180.1z"/>
		<path fill="#D2D2D2" d="M142,187.3c-1.2,0-2.1-0.4-2.8-1.2c-0.7-0.8-1-1.8-1-3v-0.3c0-1.2,0.4-2.2,1.1-2.9
			c0.7-0.8,1.5-1.2,2.5-1.2c1.1,0,2,0.3,2.5,1c0.6,0.7,0.9,1.6,0.9,2.7v0.9h-5.4l0,0c0,0.8,0.2,1.5,0.6,2c0.4,0.5,0.9,0.8,1.6,0.8
			c0.5,0,1-0.1,1.3-0.2s0.7-0.3,1-0.6l0.6,1c-0.3,0.3-0.7,0.5-1.2,0.7C143.3,187.2,142.7,187.3,142,187.3z M141.8,179.8
			c-0.5,0-0.9,0.2-1.3,0.6c-0.4,0.4-0.6,1-0.7,1.6l0,0h3.8v-0.2c0-0.6-0.2-1.1-0.5-1.5C142.9,180,142.4,179.8,141.8,179.8z"/>
		<path fill="#D2D2D2" d="M146.5,183.1c0-1.3,0.3-2.4,0.9-3.2s1.4-1.2,2.4-1.2c0.5,0,0.9,0.1,1.3,0.3c0.4,0.2,0.7,0.4,1,0.8v-4.6
			h1.5v12h-1.2l-0.2-1c-0.3,0.4-0.6,0.7-1,0.9c-0.4,0.2-0.9,0.3-1.4,0.3c-1,0-1.8-0.4-2.4-1.1c-0.6-0.7-0.9-1.7-0.9-2.9V183.1z
			 M148,183.3c0,0.8,0.2,1.5,0.5,2s0.9,0.8,1.6,0.8c0.5,0,0.8-0.1,1.1-0.3s0.6-0.5,0.8-0.9V181c-0.2-0.3-0.4-0.6-0.8-0.8
			c-0.3-0.2-0.7-0.3-1.1-0.3c-0.7,0-1.3,0.3-1.6,0.9s-0.5,1.4-0.5,2.3V183.3z"/>
	</g>
	<g>
		<path fill="#8A909D" d="M50.9,302.3h-6.6v-1l3.4-3.7c0.6-0.7,1-1.2,1.2-1.6s0.3-0.8,0.3-1.2c0-0.5-0.1-0.9-0.4-1.3
			c-0.3-0.3-0.7-0.5-1.2-0.5c-0.7,0-1.2,0.2-1.6,0.5c-0.3,0.4-0.5,0.9-0.5,1.5h-1.3l0,0c0-0.9,0.3-1.6,0.9-2.2
			c0.6-0.6,1.5-0.9,2.5-0.9c0.9,0,1.7,0.3,2.2,0.8c0.5,0.5,0.8,1.2,0.8,2.1c0,0.6-0.2,1.1-0.5,1.7c-0.3,0.6-0.8,1.2-1.4,1.8
			l-2.7,2.9l0,0h4.9V302.3z"/>
		<path fill="#8A909D" d="M57.9,298.9h1.4v1.1h-1.4v2.4h-1.4V300H52v-0.8l4.5-7.1h1.5V298.9z M53.4,298.9h3.1v-4.8l0,0l-0.1,0.4
			L53.4,298.9z"/>
		<path fill="#8A909D" d="M67.2,302.3h-6.6v-1l3.4-3.7c0.6-0.7,1-1.2,1.2-1.6s0.3-0.8,0.3-1.2c0-0.5-0.1-0.9-0.4-1.3
			s-0.7-0.5-1.2-0.5c-0.7,0-1.2,0.2-1.6,0.5c-0.3,0.4-0.5,0.9-0.5,1.5h-1.3l0,0c0-0.9,0.3-1.6,0.9-2.2c0.6-0.6,1.5-0.9,2.5-0.9
			c0.9,0,1.7,0.3,2.2,0.8c0.5,0.5,0.8,1.2,0.8,2.1c0,0.6-0.2,1.1-0.5,1.7c-0.3,0.6-0.8,1.2-1.4,1.8l-2.7,2.9l0,0h4.9V302.3z"/>
	</g>
	<g>
		<path fill="#8A909D" d="M336.6,302.3H330v-1l3.4-3.7c0.6-0.7,1-1.2,1.2-1.6s0.3-0.8,0.3-1.2c0-0.5-0.1-0.9-0.4-1.3
			c-0.3-0.3-0.7-0.5-1.2-0.5c-0.7,0-1.2,0.2-1.6,0.5c-0.3,0.4-0.5,0.9-0.5,1.5h-1.3l0,0c0-0.9,0.3-1.6,0.9-2.2
			c0.6-0.6,1.5-0.9,2.5-0.9c0.9,0,1.7,0.3,2.2,0.8c0.5,0.5,0.8,1.2,0.8,2.1c0,0.6-0.2,1.1-0.5,1.7c-0.3,0.6-0.8,1.2-1.4,1.8
			l-2.7,2.9l0,0h4.9V302.3z"/>
		<path fill="#8A909D" d="M343.6,298.9h1.4v1.1h-1.4v2.4h-1.4V300h-4.6v-0.8l4.5-7.1h1.5V298.9z M339.1,298.9h3.1v-4.8l0,0l-0.1,0.4
			L339.1,298.9z"/>
		<path fill="#8A909D" d="M352.8,302.3h-6.6v-1l3.4-3.7c0.6-0.7,1-1.2,1.2-1.6c0.2-0.4,0.3-0.8,0.3-1.2c0-0.5-0.1-0.9-0.4-1.3
			c-0.3-0.3-0.7-0.5-1.2-0.5c-0.7,0-1.2,0.2-1.6,0.5c-0.3,0.4-0.5,0.9-0.5,1.5h-1.3l0,0c0-0.9,0.3-1.6,0.9-2.2
			c0.6-0.6,1.5-0.9,2.5-0.9c0.9,0,1.7,0.3,2.2,0.8c0.5,0.5,0.8,1.2,0.8,2.1c0,0.6-0.2,1.1-0.5,1.7c-0.3,0.6-0.8,1.2-1.4,1.8
			l-2.7,2.9l0,0h4.9V302.3z"/>
		<path fill="#8A909D" d="M363.9,299.8c0-0.5-0.2-0.9-0.5-1.2c-0.4-0.3-1-0.6-1.9-0.8c-1.1-0.3-1.9-0.6-2.5-1.1
			c-0.6-0.5-0.9-1.1-0.9-1.9c0-0.8,0.3-1.5,1-2c0.7-0.5,1.5-0.8,2.5-0.8c1.1,0,2,0.3,2.7,0.9s1,1.3,1,2.1l0,0h-1.3
			c0-0.6-0.2-1.1-0.6-1.5c-0.4-0.4-1-0.6-1.7-0.6c-0.7,0-1.2,0.2-1.6,0.5c-0.4,0.3-0.6,0.7-0.6,1.2c0,0.4,0.2,0.8,0.6,1.1
			c0.4,0.3,1,0.6,1.9,0.8c1.1,0.3,1.9,0.7,2.5,1.2c0.6,0.5,0.8,1.2,0.8,1.9c0,0.8-0.3,1.5-1,2c-0.7,0.5-1.6,0.8-2.6,0.8
			c-1,0-1.9-0.3-2.7-0.8c-0.8-0.6-1.2-1.3-1.1-2.2l0,0h1.3c0,0.7,0.2,1.2,0.7,1.5c0.5,0.3,1.1,0.5,1.8,0.5c0.7,0,1.3-0.1,1.7-0.4
			C363.7,300.7,363.9,300.3,363.9,299.8z"/>
		<path fill="#8A909D" d="M368.4,295.8c0.3-0.4,0.6-0.6,1-0.9c0.4-0.2,0.8-0.3,1.3-0.3c0.8,0,1.4,0.2,1.9,0.7
			c0.5,0.5,0.7,1.2,0.7,2.3v4.8h-1.4v-4.8c0-0.6-0.1-1.1-0.4-1.4s-0.7-0.5-1.2-0.5c-0.4,0-0.7,0.1-1,0.3c-0.3,0.2-0.6,0.4-0.8,0.7
			v5.6H367v-11h1.4V295.8z"/>
		<path fill="#8A909D" d="M379.9,302.3c0-0.2-0.1-0.4-0.1-0.6c0-0.2,0-0.4,0-0.5c-0.3,0.4-0.6,0.7-1,0.9c-0.4,0.2-0.9,0.4-1.3,0.4
			c-0.8,0-1.4-0.2-1.8-0.6c-0.4-0.4-0.6-1-0.6-1.7c0-0.7,0.3-1.3,0.9-1.7c0.6-0.4,1.4-0.6,2.4-0.6h1.5v-0.8c0-0.4-0.1-0.8-0.4-1.1
			c-0.3-0.3-0.7-0.4-1.2-0.4c-0.4,0-0.8,0.1-1.1,0.3c-0.3,0.2-0.4,0.5-0.4,0.8h-1.3l0,0c0-0.6,0.2-1.1,0.8-1.5
			c0.6-0.5,1.3-0.7,2.1-0.7c0.9,0,1.6,0.2,2.1,0.7c0.5,0.4,0.8,1.1,0.8,1.9v3.7c0,0.3,0,0.5,0,0.8c0,0.3,0.1,0.5,0.2,0.7H379.9z
			 M377.6,301.3c0.5,0,1-0.1,1.4-0.4c0.4-0.3,0.7-0.6,0.8-0.9v-1.2h-1.6c-0.6,0-1,0.1-1.3,0.4c-0.3,0.3-0.5,0.6-0.5,1
			c0,0.3,0.1,0.6,0.3,0.8C376.9,301.2,377.2,301.3,377.6,301.3z"/>
		<path fill="#8A909D" d="M386.7,296l-0.7,0c-0.4,0-0.7,0.1-0.9,0.3c-0.3,0.2-0.4,0.4-0.6,0.7v5.4h-1.4v-7.6h1.2l0.1,1.1
			c0.2-0.4,0.5-0.7,0.8-0.9c0.3-0.2,0.7-0.3,1.1-0.3c0.1,0,0.2,0,0.3,0c0.1,0,0.2,0,0.2,0.1L386.7,296z"/>
		<path fill="#8A909D" d="M391.1,302.5c-1.1,0-1.9-0.4-2.5-1.1c-0.6-0.7-0.9-1.6-0.9-2.7v-0.3c0-1.1,0.3-2,1-2.7
			c0.6-0.7,1.4-1.1,2.3-1.1c1,0,1.8,0.3,2.3,0.9c0.5,0.6,0.8,1.4,0.8,2.5v0.9h-4.9l0,0c0,0.7,0.2,1.3,0.6,1.8
			c0.4,0.5,0.9,0.7,1.5,0.7c0.5,0,0.9-0.1,1.2-0.2c0.4-0.1,0.7-0.3,0.9-0.6l0.5,0.9c-0.3,0.3-0.6,0.5-1.1,0.7
			C392.3,302.4,391.7,302.5,391.1,302.5z M390.9,295.7c-0.5,0-0.9,0.2-1.2,0.6c-0.3,0.4-0.5,0.9-0.6,1.5l0,0h3.5v-0.2
			c0-0.5-0.1-1-0.4-1.4C391.9,295.9,391.5,295.7,390.9,295.7z"/>
		<path fill="#8A909D" d="M400,300.3c0-0.3-0.1-0.6-0.3-0.8c-0.2-0.2-0.7-0.4-1.3-0.5c-0.9-0.2-1.6-0.5-2.1-0.8
			c-0.5-0.3-0.7-0.8-0.7-1.4c0-0.6,0.3-1.1,0.8-1.6c0.5-0.4,1.2-0.7,2.1-0.7c0.9,0,1.6,0.2,2.1,0.7c0.5,0.5,0.8,1,0.7,1.7l0,0h-1.3
			c0-0.3-0.1-0.6-0.4-0.9c-0.3-0.3-0.6-0.4-1.1-0.4c-0.5,0-0.9,0.1-1.1,0.3c-0.2,0.2-0.4,0.5-0.4,0.8c0,0.3,0.1,0.5,0.3,0.7
			c0.2,0.2,0.6,0.3,1.3,0.5c1,0.2,1.7,0.5,2.1,0.8c0.5,0.4,0.7,0.8,0.7,1.4c0,0.7-0.3,1.2-0.8,1.6c-0.5,0.4-1.3,0.6-2.1,0.6
			c-1,0-1.7-0.2-2.3-0.7s-0.8-1.1-0.8-1.7l0,0h1.3c0,0.5,0.2,0.8,0.5,1.1c0.3,0.2,0.7,0.3,1.2,0.3c0.5,0,0.9-0.1,1.2-0.3
			C399.8,300.9,400,300.6,400,300.3z"/>
	</g>
	<g>
		<path d="M79.7,162.7v-12.9h4.4c1.6,0,2.9,0.5,3.9,1.5c1,1,1.5,2.3,1.5,3.9v2.1c0,1.6-0.5,2.9-1.5,3.9c-1,1-2.3,1.5-3.9,1.5H79.7z
			 M82.3,151.8v8.9H84c0.9,0,1.7-0.3,2.2-0.9c0.5-0.6,0.8-1.4,0.8-2.5v-2.2c0-1-0.3-1.8-0.8-2.4c-0.5-0.6-1.3-0.9-2.2-0.9H82.3z"/>
		<path d="M97.8,162.7c-0.1-0.2-0.2-0.5-0.2-0.7c-0.1-0.2-0.1-0.5-0.1-0.7c-0.3,0.5-0.6,0.9-1.1,1.2c-0.4,0.3-1,0.5-1.6,0.5
			c-1,0-1.8-0.3-2.3-0.8c-0.5-0.5-0.8-1.2-0.8-2.1c0-0.9,0.4-1.7,1.1-2.2c0.7-0.5,1.8-0.8,3.2-0.8h1.4v-0.8c0-0.5-0.1-0.8-0.4-1.1
			s-0.6-0.4-1.1-0.4c-0.4,0-0.7,0.1-1,0.3s-0.3,0.5-0.3,0.8l-2.5,0l0-0.1c0-0.8,0.3-1.5,1.1-2.1c0.7-0.6,1.7-0.9,2.9-0.9
			c1.1,0,2.1,0.3,2.8,0.9c0.7,0.6,1.1,1.4,1.1,2.5v4c0,0.5,0,0.9,0.1,1.3c0.1,0.4,0.2,0.8,0.3,1.2H97.8z M95.4,161
			c0.5,0,0.9-0.1,1.2-0.3c0.4-0.2,0.6-0.5,0.7-0.8v-1.4h-1.4c-0.6,0-1,0.1-1.3,0.4c-0.3,0.3-0.4,0.6-0.4,1c0,0.3,0.1,0.6,0.3,0.8
			C94.7,160.9,95,161,95.4,161z"/>
		<path d="M105,153.1l0.1,1.4c0.3-0.5,0.7-0.9,1.2-1.1c0.5-0.3,1-0.4,1.6-0.4c1,0,1.7,0.3,2.3,0.9c0.5,0.6,0.8,1.6,0.8,2.9v6h-2.6
			v-6c0-0.6-0.1-1.1-0.4-1.4c-0.3-0.3-0.7-0.4-1.2-0.4c-0.3,0-0.7,0.1-0.9,0.2c-0.3,0.1-0.5,0.3-0.7,0.6v7h-2.6v-9.6H105z"/>
		<path d="M113.2,158c0-1.5,0.3-2.7,1-3.7c0.7-0.9,1.6-1.4,2.8-1.4c0.5,0,1,0.1,1.4,0.4c0.4,0.2,0.8,0.6,1,1l0.2-1.2h2.2v9.6
			c0,1.3-0.4,2.2-1.2,2.9c-0.8,0.7-2,1-3.4,1c-0.5,0-1-0.1-1.5-0.2c-0.5-0.1-1-0.3-1.5-0.5l0.5-1.9c0.4,0.2,0.8,0.3,1.2,0.4
			c0.4,0.1,0.9,0.1,1.3,0.1c0.7,0,1.2-0.1,1.6-0.4c0.3-0.3,0.5-0.8,0.5-1.4v-0.9c-0.3,0.4-0.6,0.6-1,0.8c-0.4,0.2-0.8,0.3-1.3,0.3
			c-1.2,0-2.1-0.4-2.8-1.3c-0.7-0.9-1-2-1-3.4V158z M115.8,158.2c0,0.8,0.1,1.5,0.4,2c0.3,0.5,0.7,0.7,1.4,0.7c0.4,0,0.7-0.1,1-0.2
			c0.3-0.1,0.5-0.4,0.7-0.6v-4.2c-0.2-0.3-0.4-0.5-0.7-0.7c-0.3-0.2-0.6-0.2-1-0.2c-0.6,0-1.1,0.3-1.4,0.8c-0.3,0.6-0.4,1.3-0.4,2.2
			V158.2z"/>
		<path d="M128.8,162.9c-1.4,0-2.5-0.4-3.3-1.3c-0.8-0.9-1.2-2-1.2-3.4v-0.4c0-1.4,0.4-2.6,1.2-3.5s1.8-1.4,3.2-1.4
			c1.3,0,2.3,0.4,3,1.2c0.7,0.8,1.1,1.8,1.1,3.2v1.4h-5.7l0,0.1c0,0.6,0.3,1.2,0.6,1.6c0.4,0.4,0.9,0.6,1.5,0.6
			c0.6,0,1.1-0.1,1.4-0.2c0.4-0.1,0.8-0.3,1.2-0.5l0.7,1.6c-0.4,0.3-0.9,0.6-1.5,0.8C130.3,162.8,129.6,162.9,128.8,162.9z
			 M128.6,154.9c-0.5,0-0.9,0.2-1.1,0.6c-0.3,0.4-0.5,0.8-0.5,1.4l0,0h3.2v-0.2c0-0.6-0.1-1-0.4-1.3
			C129.5,155.1,129.1,154.9,128.6,154.9z"/>
		<path d="M140,155.3l-1,0c-0.4,0-0.7,0.1-0.9,0.2c-0.2,0.2-0.4,0.4-0.6,0.7v6.5h-2.6v-9.6h2.4l0.1,1.4c0.2-0.5,0.5-0.9,0.9-1.2
			c0.4-0.3,0.8-0.4,1.2-0.4c0.1,0,0.3,0,0.4,0c0.1,0,0.2,0,0.3,0.1L140,155.3z"/>
		<path d="M141.6,157.8c0-1.4,0.4-2.6,1.2-3.5c0.8-0.9,1.9-1.4,3.3-1.4c1.4,0,2.5,0.5,3.3,1.4c0.8,0.9,1.2,2.1,1.2,3.5v0.2
			c0,1.4-0.4,2.6-1.2,3.5c-0.8,0.9-1.9,1.4-3.3,1.4c-1.4,0-2.5-0.5-3.3-1.4c-0.8-0.9-1.2-2.1-1.2-3.5V157.8z M144.2,158
			c0,0.9,0.2,1.6,0.5,2.1c0.3,0.5,0.8,0.8,1.5,0.8c0.7,0,1.2-0.3,1.5-0.8c0.3-0.5,0.5-1.2,0.5-2.1v-0.2c0-0.9-0.2-1.5-0.5-2.1
			c-0.3-0.5-0.8-0.8-1.5-0.8c-0.7,0-1.2,0.3-1.5,0.8c-0.3,0.5-0.5,1.2-0.5,2.1V158z"/>
		<path d="M158.8,161.3c-0.3,0.5-0.7,0.9-1.1,1.2c-0.5,0.3-1,0.4-1.6,0.4c-1,0-1.8-0.3-2.4-1c-0.6-0.6-0.9-1.7-0.9-3v-5.8h2.6v5.8
			c0,0.7,0.1,1.2,0.4,1.5c0.2,0.3,0.6,0.5,1,0.5c0.4,0,0.8-0.1,1.1-0.2c0.3-0.1,0.5-0.3,0.7-0.6v-7h2.6v9.6h-2.2L158.8,161.3z"/>
		<path d="M169.2,160.1c0-0.3-0.1-0.5-0.4-0.7c-0.3-0.2-0.8-0.4-1.5-0.6c-1.1-0.2-2-0.6-2.6-1c-0.6-0.5-0.9-1.1-0.9-1.9
			c0-0.8,0.3-1.5,1-2.1c0.7-0.6,1.6-0.9,2.8-0.9c1.2,0,2.2,0.3,2.9,0.9c0.7,0.6,1.1,1.3,1,2.2l0,0.1h-2.5c0-0.4-0.1-0.7-0.4-0.9
			s-0.6-0.4-1.1-0.4c-0.4,0-0.8,0.1-1,0.3c-0.2,0.2-0.4,0.5-0.4,0.8c0,0.3,0.1,0.5,0.4,0.7c0.3,0.2,0.8,0.4,1.5,0.5
			c1.2,0.2,2.1,0.6,2.6,1c0.6,0.5,0.9,1.1,0.9,1.9c0,0.9-0.4,1.6-1.1,2.1c-0.7,0.5-1.7,0.8-2.9,0.8c-1.3,0-2.3-0.3-3-1
			c-0.7-0.6-1.1-1.4-1.1-2.2l0-0.1h2.4c0,0.5,0.2,0.9,0.5,1.1c0.3,0.2,0.7,0.3,1.3,0.3c0.5,0,0.8-0.1,1.1-0.3
			C169,160.6,169.2,160.4,169.2,160.1z"/>
		<path d="M182.1,158v4.7h-2.6v-12.9h5.2c1.5,0,2.7,0.4,3.5,1.1c0.9,0.8,1.3,1.8,1.3,3c0,1.2-0.4,2.2-1.3,3c-0.9,0.8-2,1.1-3.5,1.1
			H182.1z M182.1,156h2.6c0.7,0,1.3-0.2,1.6-0.6c0.4-0.4,0.6-0.9,0.6-1.5c0-0.6-0.2-1.1-0.6-1.5c-0.4-0.4-0.9-0.6-1.6-0.6h-2.6V156z
			"/>
		<path d="M191.3,157.8c0-1.4,0.4-2.6,1.2-3.5c0.8-0.9,1.9-1.4,3.3-1.4c1.4,0,2.5,0.5,3.3,1.4c0.8,0.9,1.2,2.1,1.2,3.5v0.2
			c0,1.4-0.4,2.6-1.2,3.5c-0.8,0.9-1.9,1.4-3.3,1.4c-1.4,0-2.5-0.5-3.3-1.4c-0.8-0.9-1.2-2.1-1.2-3.5V157.8z M193.9,158
			c0,0.9,0.2,1.6,0.5,2.1c0.3,0.5,0.8,0.8,1.5,0.8c0.7,0,1.2-0.3,1.5-0.8c0.3-0.5,0.5-1.2,0.5-2.1v-0.2c0-0.9-0.2-1.5-0.5-2.1
			c-0.3-0.5-0.8-0.8-1.5-0.8c-0.7,0-1.2,0.3-1.5,0.8c-0.3,0.5-0.5,1.2-0.5,2.1V158z"/>
		<path d="M207.9,160.1c0-0.3-0.1-0.5-0.4-0.7c-0.3-0.2-0.8-0.4-1.5-0.6c-1.1-0.2-2-0.6-2.6-1c-0.6-0.5-0.9-1.1-0.9-1.9
			c0-0.8,0.3-1.5,1-2.1c0.7-0.6,1.6-0.9,2.8-0.9c1.2,0,2.2,0.3,2.9,0.9c0.7,0.6,1.1,1.3,1,2.2l0,0.1h-2.5c0-0.4-0.1-0.7-0.4-0.9
			c-0.2-0.2-0.6-0.4-1.1-0.4c-0.4,0-0.8,0.1-1,0.3c-0.2,0.2-0.4,0.5-0.4,0.8c0,0.3,0.1,0.5,0.4,0.7c0.3,0.2,0.8,0.4,1.5,0.5
			c1.2,0.2,2.1,0.6,2.6,1c0.6,0.5,0.9,1.1,0.9,1.9c0,0.9-0.4,1.6-1.1,2.1c-0.7,0.5-1.7,0.8-2.9,0.8c-1.3,0-2.3-0.3-3-1
			c-0.7-0.6-1.1-1.4-1.1-2.2l0-0.1h2.4c0,0.5,0.2,0.9,0.5,1.1c0.3,0.2,0.7,0.3,1.3,0.3c0.5,0,0.8-0.1,1.1-0.3
			C207.8,160.6,207.9,160.4,207.9,160.1z"/>
		<path d="M215.9,150.7v2.4h1.6v1.8h-1.6v4.9c0,0.4,0.1,0.6,0.2,0.8c0.2,0.2,0.4,0.2,0.6,0.2c0.1,0,0.3,0,0.4,0c0.1,0,0.2,0,0.3-0.1
			l0.2,1.9c-0.3,0.1-0.5,0.2-0.8,0.2c-0.2,0-0.5,0.1-0.8,0.1c-0.9,0-1.6-0.2-2.1-0.7c-0.5-0.5-0.7-1.3-0.7-2.3v-4.9h-1.4v-1.8h1.4
			v-2.4H215.9z"/>
	</g>
	<rect x="14.4" y="144.8" fill="#3C5A99" width="54.4" height="53.8"/>
	<g>
		<g>
			<ellipse fill="#FFFFFF" cx="41.6" cy="171.6" rx="22.3" ry="22.3"/>
			<ellipse fill="none" stroke="#3C5A99" stroke-miterlimit="10" cx="41.6" cy="171.6" rx="22.3" ry="22.3"/>
		</g>
		<g>
			<path fill="#3C5A99" d="M41.3,152.8c-10.4,0-18.9,8.5-18.9,18.9s8.5,18.9,18.9,18.9s18.9-8.5,18.9-18.9S51.8,152.8,41.3,152.8z
				 M41.3,153.4c10.1,0,18.3,8.2,18.3,18.3c0,4.7-1.8,8.9-4.7,12.2l-7.7-3c0,0-1.5-0.6-1.6-2.1c0-0.2-0.1-0.3-0.3-0.3h-0.8
				c0.6-0.7,1.4-1.7,1.4-2.2c0-0.5,0.1-1.2,0.1-1.4c0-0.1,0.1-0.2,0.2-0.1c0.1,0,0.2,0,0.3-0.1c0.1-0.1,1.8-1.7,1.2-4
				c0-0.1-0.1-0.3-0.2-0.4c-0.1-0.1-0.3-0.2-0.6-0.1c0-0.3,0.1-0.8,0.3-1.5c0.4-1.1,0.6-3.1,0-3.7c-0.1-0.1-0.3-0.3-0.5-0.5
				c-0.5-0.6-1.1-1.3-2-2c-1.3-0.9-2.5-1.3-4.5-1.3c-1.9,0-2.4,0.4-2.9,1.1c-0.4,0.2-2.4,1.5-2.7,2.6c-0.3,1.1,0.7,4.5,0.9,5.2
				c0,0.1-0.1,0.2-0.1,0.2c-0.5,0.1-0.7,0.2-0.8,0.7c-0.1,0.5-0.1,1.4,0,1.8c0.1,0.5,0.5,1.7,1.4,2.1c0.1,0,0.2,0.2,0.2,0.3
				c0,0.8,0,1.4,0.2,1.6c0.1,0.2,0.9,1.3,1.2,1.8H37c-0.1,0-0.2,0-0.2,0.1c-0.1,0.1-0.1,0.1-0.1,0.2c0,0.3,0,1-0.4,1.2
				c-0.5,0.3-5.8,2.3-8.8,3.5c-2.8-3.2-4.5-7.4-4.5-12C23.1,161.7,31.3,153.4,41.3,153.4z M41.3,190c-5.3,0-10.1-2.3-13.4-5.9
				c1.7-0.7,8-3.1,8.6-3.4c0.6-0.3,0.7-1.1,0.7-1.5h1c0.1,0,0.2-0.1,0.3-0.2c0-0.1,0-0.2,0-0.3l-0.1-0.2c-0.1-0.1-1.3-1.8-1.4-2
				c0-0.1-0.1-0.3-0.1-1.3c0-0.5-0.5-0.8-0.6-0.9c0,0,0,0,0,0c-0.6-0.2-1-1.2-1.1-1.6c-0.1-0.5-0.1-1.2,0-1.5
				c0.1-0.3,0.1-0.3,0.3-0.3c0.6-0.1,0.7-0.7,0.7-0.8c0,0,0-0.1,0-0.1c-0.3-1.1-1.1-4.1-0.9-5c0.2-0.8,1.8-1.9,2.4-2.3
				c0,0,0.1,0,0.1-0.1l0,0c0.4-0.5,0.7-0.9,2.5-0.9c1.9,0,3,0.3,4.2,1.1c0.9,0.6,1.5,1.4,1.9,1.9c0.2,0.2,0.3,0.4,0.5,0.5
				c0.3,0.3,0.3,1.9-0.1,3.1c-0.4,1.2-0.4,2-0.4,2.1c0,0.1,0,0.2,0.1,0.2c0.1,0.1,0.2,0.1,0.2,0.1c0.3-0.1,0.4,0,0.4,0c0,0,0,0,0,0
				c0.4,1.7-0.6,3-1,3.3c-0.3,0-0.6,0.2-0.8,0.5c0,0,0,0.1,0,0.1c0,0-0.1,1-0.1,1.6c0,0.3-0.8,1.3-1.7,2.3c-0.1,0.1-0.1,0.2-0.1,0.3
				c0,0.1,0.2,0.2,0.3,0.2h1.2c0.3,1.7,1.9,2.3,1.9,2.4l7.5,2.9C51.2,187.9,46.5,190,41.3,190z"/>
		</g>
	</g>
	<g>
		<path fill="#FFFFFF" d="M154.1,30h4.2c0.7,0,1.4,0.1,1.9,0.2c0.6,0.2,1.1,0.4,1.5,0.7c0.4,0.3,0.8,0.6,1.1,1
			c0.3,0.4,0.6,0.8,0.8,1.3c0.2,0.5,0.4,0.9,0.4,1.4c0.1,0.5,0.1,1,0.1,1.5c0,0.5,0,1-0.1,1.4c-0.1,0.5-0.2,1-0.4,1.4
			c-0.2,0.5-0.4,0.9-0.8,1.3c-0.3,0.4-0.7,0.8-1.1,1.1c-0.5,0.3-1,0.5-1.6,0.7c-0.6,0.2-1.3,0.3-2,0.3h-4.1V30z M158.5,40.1
			c0.6,0,1.1-0.1,1.5-0.4c0.4-0.2,0.8-0.5,1-0.9c0.3-0.4,0.4-0.8,0.6-1.3c0.1-0.5,0.2-0.9,0.2-1.4c0-0.5-0.1-1-0.2-1.4
			c-0.1-0.5-0.3-0.9-0.6-1.3c-0.2-0.4-0.6-0.7-1-0.9c-0.4-0.2-0.9-0.3-1.4-0.3h-2.2v7.8H158.5z"/>
		<path fill="#FFFFFF" d="M174.4,42.3l-1-2.6h-4.8l-0.9,2.6h-2.6l4.7-12.3h2.3l4.7,12.3H174.4z M171.5,34.4
			c-0.1-0.1-0.1-0.3-0.2-0.5c-0.1-0.2-0.1-0.4-0.2-0.6c0,0.2-0.1,0.4-0.2,0.6c-0.1,0.2-0.1,0.4-0.2,0.5l-1.2,3.2h3.2L171.5,34.4z"/>
		<path fill="#FFFFFF" d="M187,42.3l-4.9-7.2c-0.1-0.1-0.2-0.3-0.3-0.4c-0.1-0.2-0.2-0.3-0.2-0.5c0,0.1,0,0.3,0,0.5
			c0,0.2,0,0.3,0,0.5v7.2h-2.4V30h2.2l4.8,7.1c0.1,0.1,0.2,0.3,0.3,0.4c0.1,0.2,0.2,0.3,0.3,0.5c0-0.2,0-0.3,0-0.5
			c0-0.2,0-0.3,0-0.4V30h2.4v12.3H187z"/>
		<path fill="#FFFFFF" d="M197.2,42.6c-0.6,0-1.2-0.1-1.7-0.2c-0.5-0.2-1-0.4-1.4-0.7c-0.4-0.3-0.7-0.6-1-1
			c-0.3-0.4-0.5-0.8-0.7-1.3c-0.2-0.5-0.3-1-0.4-1.5c-0.1-0.5-0.1-1.1-0.1-1.6c0-0.5,0-1,0.1-1.5c0.1-0.5,0.2-1,0.4-1.5
			c0.2-0.5,0.4-0.9,0.7-1.3c0.3-0.4,0.6-0.8,1.1-1.1c0.4-0.3,0.9-0.5,1.4-0.7c0.5-0.2,1.1-0.3,1.7-0.3c0.6,0,1.1,0.1,1.6,0.2
			c0.5,0.1,0.9,0.3,1.2,0.6c0.4,0.2,0.7,0.5,0.9,0.8c0.3,0.3,0.5,0.6,0.7,1l-2.1,1.2c-0.1-0.2-0.3-0.4-0.4-0.6
			c-0.2-0.2-0.3-0.4-0.5-0.5c-0.2-0.1-0.4-0.3-0.6-0.3c-0.2-0.1-0.5-0.1-0.7-0.1c-0.4,0-0.7,0.1-1,0.2c-0.3,0.1-0.5,0.3-0.8,0.5
			c-0.2,0.2-0.4,0.4-0.6,0.7c-0.1,0.3-0.3,0.6-0.4,0.9c-0.1,0.3-0.2,0.6-0.2,0.9c0,0.3-0.1,0.6-0.1,0.9c0,0.5,0.1,1,0.2,1.5
			c0.1,0.5,0.3,0.9,0.5,1.3c0.2,0.4,0.5,0.7,0.9,0.9c0.4,0.2,0.8,0.3,1.4,0.3c0.3,0,0.6-0.1,0.8-0.2c0.3-0.1,0.5-0.2,0.7-0.4
			c0.2-0.2,0.3-0.4,0.5-0.6c0.1-0.2,0.2-0.5,0.2-0.8v-0.1h-2.1v-2.3h4.5v1.8c0,0.8-0.1,1.5-0.4,2.1c-0.2,0.6-0.6,1.1-1,1.5
			c-0.4,0.4-0.9,0.7-1.5,0.9C198.5,42.5,197.9,42.6,197.2,42.6z"/>
		<path fill="#FFFFFF" d="M204.5,42.3V30h8.4v2.3h-6v2.6h3.6v2.3h-3.6v3h6.4v2.3H204.5z"/>
		<path fill="#FFFFFF" d="M215.8,42.3V30h5.7c0.8,0,1.4,0.1,2,0.3c0.5,0.2,0.9,0.5,1.3,0.9c0.3,0.4,0.6,0.8,0.7,1.2
			c0.1,0.5,0.2,1,0.2,1.5c0,0.3-0.1,0.7-0.2,1.1c-0.1,0.4-0.3,0.7-0.5,1c-0.2,0.3-0.5,0.6-0.7,0.9c-0.3,0.3-0.6,0.5-1,0.6l2.4,4.9
			H223l-2.3-4.6h-2.5v4.6H215.8z M221.6,35.5c0.3,0,0.6,0,0.8-0.1c0.2-0.1,0.4-0.2,0.5-0.4c0.1-0.1,0.2-0.3,0.3-0.5
			c0.1-0.2,0.1-0.4,0.1-0.6c0-0.2,0-0.4-0.1-0.6c0-0.2-0.1-0.4-0.3-0.5c-0.1-0.2-0.3-0.3-0.5-0.4c-0.2-0.1-0.5-0.1-0.8-0.1h-3.4v3.2
			H221.6z"/>
		<path fill="#FFFFFF" d="M233.4,42.6c-0.7,0-1.3-0.1-1.8-0.3c-0.5-0.2-1-0.4-1.4-0.7s-0.8-0.7-1-1.1c-0.3-0.4-0.5-0.9-0.7-1.3
			c-0.2-0.5-0.3-1-0.4-1.5c-0.1-0.5-0.1-1-0.1-1.5c0-0.5,0-1,0.1-1.5c0.1-0.5,0.2-1,0.4-1.5c0.2-0.5,0.4-0.9,0.7-1.3
			c0.3-0.4,0.6-0.8,1-1.1s0.9-0.5,1.4-0.7c0.5-0.2,1.1-0.3,1.8-0.3c0.7,0,1.3,0.1,1.8,0.3c0.5,0.2,1,0.4,1.4,0.7
			c0.4,0.3,0.7,0.7,1,1.1c0.3,0.4,0.5,0.9,0.7,1.3c0.2,0.5,0.3,1,0.4,1.5c0.1,0.5,0.1,1,0.1,1.5c0,0.5,0,1-0.1,1.5
			c-0.1,0.5-0.2,1-0.4,1.5c-0.2,0.5-0.4,0.9-0.7,1.3c-0.3,0.4-0.6,0.8-1,1.1c-0.4,0.3-0.9,0.5-1.4,0.7
			C234.7,42.5,234.1,42.6,233.4,42.6z M233.4,40.3c0.6,0,1-0.1,1.4-0.4c0.4-0.3,0.7-0.6,0.9-1c0.2-0.4,0.4-0.8,0.5-1.3
			c0.1-0.5,0.2-0.9,0.2-1.4c0-0.3,0-0.6-0.1-1c0-0.3-0.1-0.6-0.2-0.9c-0.1-0.3-0.2-0.6-0.4-0.9c-0.2-0.3-0.3-0.5-0.6-0.7
			c-0.2-0.2-0.5-0.4-0.8-0.5c-0.3-0.1-0.6-0.2-1-0.2c-0.4,0-0.7,0.1-1,0.2c-0.3,0.1-0.5,0.3-0.8,0.5c-0.2,0.2-0.4,0.4-0.6,0.7
			c-0.2,0.3-0.3,0.6-0.4,0.9c-0.1,0.3-0.2,0.6-0.2,0.9c0,0.3-0.1,0.6-0.1,0.9c0,0.5,0.1,0.9,0.2,1.4c0.1,0.5,0.3,0.9,0.5,1.3
			c0.2,0.4,0.5,0.7,0.9,1C232.4,40.1,232.8,40.3,233.4,40.3z"/>
		<path fill="#FFFFFF" d="M246.4,42.6c-0.4,0-0.8,0-1.2-0.1c-0.4-0.1-0.8-0.2-1.2-0.3c-0.4-0.2-0.7-0.4-1-0.6
			c-0.3-0.3-0.6-0.6-0.8-0.9c-0.2-0.4-0.4-0.8-0.5-1.3c-0.1-0.5-0.2-1-0.2-1.7V30h2.4v7.6c0,0.5,0.1,0.9,0.2,1.3
			c0.1,0.3,0.3,0.6,0.5,0.8c0.2,0.2,0.5,0.3,0.8,0.4c0.3,0.1,0.7,0.1,1.1,0.1c0.4,0,0.8,0,1.1-0.1s0.6-0.2,0.8-0.4
			c0.2-0.2,0.4-0.5,0.5-0.8c0.1-0.3,0.2-0.8,0.2-1.3V30h2.4v7.6c0,0.9-0.1,1.7-0.4,2.3c-0.3,0.6-0.6,1.1-1.1,1.5
			c-0.5,0.4-1,0.7-1.6,0.8C247.7,42.5,247.1,42.6,246.4,42.6z"/>
		<path fill="#FFFFFF" d="M260.4,33.4c-0.1-0.2-0.2-0.4-0.3-0.5c-0.1-0.2-0.3-0.3-0.5-0.4c-0.2-0.1-0.4-0.2-0.6-0.3
			c-0.2-0.1-0.5-0.1-0.8-0.1c-0.5,0-0.9,0.1-1.2,0.3c-0.3,0.2-0.4,0.5-0.4,0.9c0,0.2,0.1,0.5,0.3,0.6c0.2,0.2,0.4,0.3,0.7,0.5
			c0.3,0.1,0.6,0.3,1,0.4c0.4,0.1,0.8,0.3,1.2,0.4c0.4,0.1,0.8,0.3,1.2,0.5c0.4,0.2,0.7,0.4,1,0.7c0.3,0.3,0.5,0.6,0.7,1
			c0.2,0.4,0.3,0.9,0.3,1.4c0,0.6-0.1,1.1-0.3,1.6c-0.2,0.5-0.5,0.9-0.9,1.2c-0.4,0.3-0.9,0.6-1.4,0.7c-0.5,0.2-1.1,0.2-1.8,0.2
			c-0.6,0-1.1-0.1-1.6-0.2c-0.5-0.2-1-0.4-1.4-0.7s-0.8-0.6-1.1-1.1c-0.3-0.4-0.5-0.9-0.7-1.4l2.2-0.8c0.1,0.3,0.3,0.5,0.5,0.8
			c0.2,0.2,0.4,0.4,0.6,0.6c0.2,0.2,0.5,0.3,0.7,0.4c0.3,0.1,0.6,0.1,0.9,0.1c0.3,0,0.6,0,0.8-0.1c0.2-0.1,0.5-0.2,0.6-0.3
			c0.2-0.1,0.3-0.3,0.4-0.5c0.1-0.2,0.1-0.4,0.1-0.6c0-0.3-0.1-0.5-0.3-0.8c-0.2-0.2-0.4-0.4-0.7-0.5c-0.3-0.2-0.6-0.3-1-0.4
			c-0.4-0.1-0.8-0.3-1.2-0.4c-0.4-0.1-0.8-0.3-1.2-0.5c-0.4-0.2-0.7-0.4-1-0.7c-0.3-0.3-0.5-0.6-0.7-1c-0.2-0.4-0.3-0.8-0.3-1.4
			c0-0.5,0.1-0.9,0.3-1.3c0.2-0.4,0.5-0.8,0.8-1.1c0.4-0.3,0.8-0.6,1.3-0.7c0.5-0.2,1.1-0.3,1.8-0.3c0.6,0,1.1,0.1,1.5,0.2
			c0.5,0.1,0.8,0.3,1.2,0.6c0.3,0.3,0.6,0.6,0.9,0.9c0.2,0.3,0.4,0.7,0.5,1.1L260.4,33.4z"/>
		<path fill="#FFFFFF" d="M154.2,75.4v-30h12.9c1.9,0,3.5,0.3,4.8,0.8c1.3,0.6,2.3,1.3,3.2,2.2c0.8,0.9,1.4,1.9,1.7,3
			s0.5,2.3,0.5,3.4c0,0.7-0.1,1.5-0.3,2.2c-0.2,0.7-0.4,1.5-0.8,2.2c-0.3,0.7-0.8,1.4-1.3,2c-0.5,0.6-1.2,1.2-2,1.6
			c-0.8,0.5-1.6,0.8-2.6,1.1c-1,0.3-2.1,0.4-3.3,0.4H160v11H154.2z M167.3,58.9c0.7,0,1.4-0.1,1.9-0.4s0.9-0.5,1.2-0.9
			c0.3-0.4,0.5-0.8,0.7-1.3c0.1-0.5,0.2-0.9,0.2-1.4c0-0.4-0.1-0.9-0.2-1.3c-0.1-0.5-0.3-0.9-0.6-1.3c-0.3-0.4-0.7-0.7-1.2-1
			c-0.5-0.3-1.2-0.4-1.9-0.4H160v7.9H167.3z"/>
		<path fill="#FFFFFF" d="M195,75.9c-1.6,0-3.1-0.2-4.3-0.6c-1.3-0.4-2.4-1-3.4-1.7c-1-0.7-1.8-1.6-2.5-2.6c-0.7-1-1.3-2.1-1.7-3.2
			c-0.4-1.2-0.8-2.3-1-3.6c-0.2-1.2-0.3-2.5-0.3-3.7c0-1.2,0.1-2.5,0.3-3.7c0.2-1.2,0.5-2.4,1-3.6c0.4-1.1,1-2.2,1.7-3.2
			c0.7-1,1.5-1.9,2.5-2.6c1-0.7,2.1-1.3,3.4-1.7c1.3-0.4,2.7-0.6,4.3-0.6c1.6,0,3.1,0.2,4.3,0.6c1.3,0.4,2.4,1,3.4,1.7
			c1,0.7,1.8,1.6,2.5,2.6c0.7,1,1.3,2.1,1.7,3.2c0.4,1.2,0.8,2.3,1,3.6c0.2,1.2,0.3,2.5,0.3,3.7c0,1.2-0.1,2.5-0.3,3.7
			c-0.2,1.2-0.5,2.4-1,3.6c-0.4,1.2-1,2.2-1.7,3.2c-0.7,1-1.5,1.9-2.5,2.6c-1,0.7-2.1,1.3-3.4,1.7C198.1,75.7,196.6,75.9,195,75.9z
			 M195,70.4c1.3,0,2.5-0.3,3.4-0.9c0.9-0.6,1.7-1.4,2.2-2.4c0.6-1,1-2,1.2-3.2c0.3-1.2,0.4-2.3,0.4-3.4c0-0.8-0.1-1.5-0.2-2.3
			c-0.1-0.8-0.3-1.5-0.5-2.3c-0.2-0.7-0.5-1.4-0.9-2.1c-0.4-0.6-0.8-1.2-1.4-1.7c-0.5-0.5-1.1-0.9-1.8-1.1c-0.7-0.3-1.5-0.4-2.4-0.4
			c-0.9,0-1.7,0.1-2.4,0.4c-0.7,0.3-1.3,0.7-1.9,1.2c-0.5,0.5-1,1.1-1.4,1.7c-0.4,0.7-0.7,1.4-0.9,2.1c-0.2,0.7-0.4,1.5-0.5,2.3
			c-0.1,0.8-0.2,1.5-0.2,2.2c0,1.1,0.1,2.3,0.4,3.5c0.3,1.2,0.7,2.2,1.2,3.2c0.6,1,1.3,1.7,2.2,2.3C192.5,70.1,193.7,70.4,195,70.4z
			"/>
		<path fill="#FFFFFF" d="M229.2,53.6c-0.2-0.4-0.4-0.9-0.7-1.3c-0.3-0.4-0.7-0.7-1.1-1c-0.4-0.3-0.9-0.5-1.5-0.7
			c-0.6-0.2-1.2-0.2-1.8-0.2c-1.3,0-2.2,0.3-2.9,0.8c-0.7,0.5-1.1,1.2-1.1,2.1c0,0.6,0.2,1.1,0.7,1.5c0.4,0.4,1,0.8,1.8,1.1
			c0.7,0.3,1.5,0.6,2.5,0.9c0.9,0.3,1.9,0.6,2.9,1c1,0.4,1.9,0.8,2.9,1.3c0.9,0.5,1.8,1.1,2.5,1.8c0.7,0.7,1.3,1.5,1.8,2.5
			c0.4,1,0.7,2.1,0.7,3.5c0,1.5-0.3,2.8-0.8,3.9c-0.6,1.1-1.3,2.1-2.3,2.9c-1,0.8-2.1,1.4-3.4,1.8c-1.3,0.4-2.8,0.6-4.3,0.6
			c-1.4,0-2.7-0.2-4-0.6c-1.2-0.4-2.3-0.9-3.3-1.6c-1-0.7-1.9-1.6-2.6-2.6c-0.7-1-1.3-2.2-1.8-3.4l5.3-2c0.3,0.7,0.7,1.3,1.2,1.9
			c0.5,0.6,1,1.1,1.5,1.5c0.6,0.4,1.2,0.7,1.8,1c0.6,0.2,1.3,0.3,2.1,0.3c0.7,0,1.4-0.1,2-0.2c0.6-0.2,1.1-0.4,1.5-0.7
			c0.4-0.3,0.8-0.7,1-1.1s0.3-1,0.3-1.6c0-0.7-0.2-1.3-0.7-1.8c-0.4-0.5-1-0.9-1.8-1.3c-0.7-0.4-1.6-0.7-2.5-1
			c-0.9-0.3-1.9-0.6-2.8-1c-1-0.3-1.9-0.7-2.8-1.2c-0.9-0.4-1.8-1-2.5-1.7c-0.7-0.7-1.3-1.4-1.8-2.4c-0.4-0.9-0.7-2-0.7-3.3
			c0-1.1,0.2-2.2,0.7-3.2c0.5-1,1.1-1.9,2-2.6c0.9-0.8,1.9-1.3,3.2-1.8c1.3-0.4,2.7-0.7,4.3-0.7c1.4,0,2.6,0.2,3.7,0.5
			c1.1,0.3,2.1,0.8,2.9,1.5c0.8,0.6,1.5,1.4,2.1,2.2c0.6,0.8,1,1.8,1.3,2.8L229.2,53.6z"/>
		<path fill="#FFFFFF" d="M254.4,51v24.4h-5.8V51h-8.6v-5.6H263V51H254.4z"/>
		<path fill="#FFFFFF" d="M215.5,89.9c0,0,0.8-4.9-0.8-9.5c0,0-0.6-1.1,0.2-1.2h3.1c0,0,0.7,0.4,0.9,0.7c0.2,0.4,1.5,3.4,0.8,10
			c0,0-0.4,1.2-1.3,1.2c-1,0-2.4-0.1-2.4-0.1S215.1,90.9,215.5,89.9z"/>
		<path fill="#FFFFFF" d="M203.6,94.1c0,0-0.5,1.4-0.8,2.2s-1.2,3.3,0.2,5c1.4,1.6,2.6,1,3,0.2c0,0,0.2-0.9,0.2-1.2
			s-0.4-0.9,0.8-2.4c1.3-1.5,1.1-1.8,2.3-2.8c1.2-1,2.3-2.4,2.5-3c0,0,0.8-1,1-0.9c0.2,0,1-0.1,1.5-1.6c0.4-1.5,0.1-7.4-1.4-9
			s-8.8-2.3-10.1-1.9c-1.3,0.3-3.3,0.7-3.2,2.8c0,0-1.4,1.3-1.5,2.5c-0.1,1.2,0.2,1.4,0.2,2.2c0,0.8-1.8,0.9-0.2,3.4
			c0,0,0.2,0.1,0.1,1.2s1,1.7,1.7,2.1c0.8,0.4,2.9,0.5,3.5,0.2C203.2,93,203.8,92.8,203.6,94.1z"/>
		<g>
			<polygon fill="#FFFFFF" points="199.4,85.7 141.8,85.7 141.8,34.6 151.2,34.6 151.2,35.6 142.7,35.6 142.7,84.7 199.4,84.7 			
				"/>
		</g>
		<g>
			<polygon fill="#FFFFFF" points="275.8,85.7 218.6,85.7 218.6,84.7 274.9,84.7 274.9,35.6 266.4,35.6 266.4,34.6 275.8,34.6 			
				"/>
		</g>
	</g>
	<rect x="0.4" y="326.1" fill="#EEF1F4" width="418.9" height="48.1"/>
	<g>
		<line fill="none" stroke="#D2D2D2" stroke-width="0.5" stroke-miterlimit="10" x1="141" y1="364" x2="141" y2="335.5"/>
		<line fill="none" stroke="#D2D2D2" stroke-width="0.5" stroke-miterlimit="10" x1="279.2" y1="364" x2="279.2" y2="335.5"/>
		<g>
			<path fill="#5E5F60" d="M198.6,349.7L198.6,349.7c0,1.1-0.3,2-1.1,2.7c-0.8,0.7-1.8,1.1-3,1.1c-1.3,0-2.3-0.4-3.1-1.3
				c-0.8-0.9-1.2-2-1.2-3.4v-2c0-1.4,0.4-2.5,1.2-3.4c0.8-0.9,1.8-1.3,3.1-1.3c1.3,0,2.3,0.3,3,1c0.7,0.7,1.1,1.6,1.1,2.7l0,0h-1.4
				c0-0.8-0.2-1.4-0.7-1.9s-1.1-0.7-1.9-0.7c-0.8,0-1.5,0.3-2,1c-0.5,0.7-0.8,1.5-0.8,2.5v2c0,1,0.3,1.9,0.8,2.5c0.5,0.7,1.2,1,2,1
				c0.8,0,1.5-0.2,1.9-0.7s0.7-1.1,0.7-1.9H198.6z"/>
			<path fill="#5E5F60" d="M200,349.1c0-1.2,0.3-2.2,1-3c0.7-0.8,1.6-1.2,2.7-1.2c1.2,0,2.1,0.4,2.7,1.2c0.7,0.8,1,1.8,1,3v0.2
				c0,1.2-0.3,2.3-1,3s-1.6,1.2-2.7,1.2c-1.1,0-2.1-0.4-2.7-1.2c-0.7-0.8-1-1.8-1-3V349.1z M201.5,349.2c0,0.9,0.2,1.6,0.6,2.2
				c0.4,0.6,0.9,0.9,1.7,0.9c0.7,0,1.3-0.3,1.6-0.9c0.4-0.6,0.6-1.3,0.6-2.2v-0.2c0-0.9-0.2-1.6-0.6-2.2c-0.4-0.6-0.9-0.9-1.7-0.9
				c-0.7,0-1.3,0.3-1.6,0.9c-0.4,0.6-0.6,1.3-0.6,2.2V349.2z"/>
			<path fill="#5E5F60" d="M210.7,345l0.1,1.1c0.3-0.4,0.6-0.7,1-0.9s0.9-0.3,1.5-0.3c0.6,0,1,0.1,1.4,0.4c0.4,0.3,0.7,0.6,0.9,1.2
				c0.3-0.5,0.6-0.8,1-1.1c0.4-0.3,0.9-0.4,1.5-0.4c0.8,0,1.5,0.3,2,0.9s0.7,1.5,0.7,2.6v5h-1.5v-5c0-0.8-0.1-1.4-0.4-1.7
				c-0.3-0.3-0.7-0.5-1.3-0.5c-0.5,0-0.9,0.2-1.3,0.5c-0.3,0.4-0.5,0.8-0.6,1.4v0.1v5.3h-1.5v-5c0-0.8-0.1-1.3-0.4-1.7
				c-0.3-0.4-0.7-0.5-1.2-0.5c-0.5,0-0.8,0.1-1.1,0.3s-0.5,0.5-0.7,0.8v6.1h-1.5V345H210.7z"/>
			<path fill="#5E5F60" d="M224.4,345l0.1,1.1c0.3-0.4,0.6-0.7,1-0.9s0.9-0.3,1.5-0.3c0.6,0,1,0.1,1.4,0.4c0.4,0.3,0.7,0.6,0.9,1.2
				c0.3-0.5,0.6-0.8,1-1.1s0.9-0.4,1.5-0.4c0.8,0,1.5,0.3,2,0.9s0.7,1.5,0.7,2.6v5h-1.5v-5c0-0.8-0.1-1.4-0.4-1.7
				c-0.3-0.3-0.7-0.5-1.3-0.5c-0.5,0-0.9,0.2-1.3,0.5c-0.3,0.4-0.5,0.8-0.6,1.4v0.1v5.3h-1.5v-5c0-0.8-0.1-1.3-0.4-1.7
				c-0.3-0.4-0.7-0.5-1.2-0.5c-0.5,0-0.8,0.1-1.1,0.3s-0.5,0.5-0.7,0.8v6.1H223V345H224.4z"/>
			<path fill="#5E5F60" d="M240.2,353.4c-1.2,0-2.1-0.4-2.8-1.2s-1-1.8-1-3V349c0-1.2,0.4-2.2,1.1-3s1.5-1.2,2.5-1.2
				c1.1,0,2,0.3,2.5,1s0.9,1.6,0.9,2.7v0.9H238l0,0c0,0.8,0.2,1.5,0.6,2s0.9,0.8,1.6,0.8c0.5,0,1-0.1,1.3-0.2s0.7-0.3,1-0.6l0.6,1
				c-0.3,0.3-0.7,0.5-1.2,0.7C241.5,353.3,240.9,353.4,240.2,353.4z M240,346c-0.5,0-0.9,0.2-1.3,0.6c-0.4,0.4-0.6,1-0.7,1.6l0,0
				h3.8v-0.2c0-0.6-0.2-1.1-0.5-1.5C241.1,346.2,240.6,346,240,346z"/>
			<path fill="#5E5F60" d="M246.4,345l0.1,1.2c0.3-0.4,0.6-0.8,1-1c0.4-0.2,0.9-0.4,1.4-0.4c0.9,0,1.6,0.3,2.1,0.8s0.7,1.3,0.7,2.4
				v5.2h-1.5v-5.2c0-0.7-0.1-1.3-0.4-1.6c-0.3-0.3-0.7-0.5-1.3-0.5c-0.4,0-0.8,0.1-1.2,0.3c-0.3,0.2-0.6,0.5-0.8,0.9v6.1h-1.5V345
				H246.4z"/>
			<path fill="#5E5F60" d="M256,343v2h1.6v1.1H256v5c0,0.4,0.1,0.7,0.2,0.8s0.4,0.2,0.6,0.2c0.1,0,0.2,0,0.3,0c0.1,0,0.2,0,0.3-0.1
				l0.2,1c-0.1,0.1-0.3,0.2-0.5,0.2s-0.4,0.1-0.7,0.1c-0.6,0-1.1-0.2-1.5-0.6c-0.4-0.4-0.5-1-0.5-1.7v-5h-1.3V345h1.3v-2H256z"/>
		</g>
		<g>
			<path fill="#5E5F60" d="M347.8,350.5c0-0.5-0.2-0.9-0.6-1.3c-0.4-0.3-1.1-0.6-2-0.9c-1.2-0.3-2.1-0.7-2.8-1.2
				c-0.7-0.5-1-1.2-1-2.1c0-0.9,0.4-1.6,1.1-2.2c0.7-0.6,1.6-0.9,2.8-0.9c1.2,0,2.2,0.3,2.9,1c0.7,0.7,1.1,1.4,1,2.3l0,0h-1.4
				c0-0.7-0.2-1.2-0.6-1.6c-0.4-0.4-1.1-0.6-1.9-0.6c-0.8,0-1.3,0.2-1.7,0.5c-0.4,0.3-0.6,0.8-0.6,1.3c0,0.5,0.2,0.9,0.7,1.2
				s1.1,0.6,2.1,0.9c1.2,0.3,2.1,0.7,2.7,1.3s0.9,1.3,0.9,2.1c0,0.9-0.4,1.6-1.1,2.2s-1.7,0.8-2.9,0.8c-1.1,0-2.1-0.3-3-0.9
				c-0.9-0.6-1.3-1.4-1.2-2.4l0,0h1.4c0,0.7,0.3,1.3,0.8,1.6c0.5,0.4,1.2,0.6,2,0.6c0.8,0,1.4-0.2,1.8-0.5
				C347.6,351.5,347.8,351,347.8,350.5z"/>
			<path fill="#5E5F60" d="M352.7,346.1c0.3-0.4,0.6-0.7,1.1-0.9c0.4-0.2,0.9-0.3,1.4-0.3c0.9,0,1.6,0.3,2.1,0.8
				c0.5,0.5,0.7,1.4,0.7,2.5v5.2h-1.5v-5.2c0-0.7-0.1-1.2-0.4-1.5c-0.3-0.3-0.7-0.5-1.3-0.5c-0.4,0-0.8,0.1-1.1,0.3
				c-0.3,0.2-0.6,0.5-0.8,0.8v6.1h-1.5v-12h1.5V346.1z"/>
			<path fill="#5E5F60" d="M365.3,353.3c-0.1-0.3-0.1-0.5-0.1-0.7c0-0.2,0-0.4,0-0.6c-0.3,0.4-0.6,0.7-1.1,1
				c-0.5,0.3-0.9,0.4-1.5,0.4c-0.9,0-1.5-0.2-2-0.7c-0.5-0.4-0.7-1.1-0.7-1.8c0-0.8,0.3-1.4,1-1.9c0.6-0.4,1.5-0.7,2.6-0.7h1.6v-0.8
				c0-0.5-0.1-0.9-0.4-1.2s-0.7-0.4-1.3-0.4c-0.5,0-0.9,0.1-1.2,0.4c-0.3,0.2-0.5,0.5-0.5,0.9h-1.4l0,0c0-0.6,0.3-1.2,0.9-1.7
				c0.6-0.5,1.4-0.8,2.3-0.8c0.9,0,1.7,0.2,2.3,0.7c0.6,0.5,0.9,1.2,0.9,2.1v4c0,0.3,0,0.6,0,0.9c0,0.3,0.1,0.5,0.2,0.8H365.3z
				 M362.8,352.2c0.5,0,1-0.1,1.5-0.4c0.4-0.3,0.7-0.6,0.9-1v-1.3h-1.7c-0.6,0-1.1,0.2-1.5,0.5c-0.4,0.3-0.5,0.7-0.5,1.1
				c0,0.4,0.1,0.7,0.3,0.9C362,352.1,362.3,352.2,362.8,352.2z"/>
			<path fill="#5E5F60" d="M372.7,346.3l-0.8,0c-0.4,0-0.7,0.1-1,0.3s-0.5,0.5-0.6,0.8v5.9h-1.5V345h1.4l0.1,1.2
				c0.2-0.4,0.5-0.8,0.9-1c0.3-0.2,0.7-0.4,1.2-0.4c0.1,0,0.2,0,0.3,0c0.1,0,0.2,0,0.3,0.1L372.7,346.3z"/>
			<path fill="#5E5F60" d="M377.5,353.4c-1.2,0-2.1-0.4-2.8-1.2c-0.7-0.8-1-1.8-1-3V349c0-1.2,0.4-2.2,1.1-3
				c0.7-0.8,1.5-1.2,2.5-1.2c1.1,0,2,0.3,2.5,1c0.6,0.7,0.9,1.6,0.9,2.7v0.9h-5.4l0,0c0,0.8,0.2,1.5,0.6,2c0.4,0.5,0.9,0.8,1.6,0.8
				c0.5,0,1-0.1,1.3-0.2c0.4-0.1,0.7-0.3,1-0.6l0.6,1c-0.3,0.3-0.7,0.5-1.2,0.7C378.8,353.3,378.2,353.4,377.5,353.4z M377.3,346
				c-0.5,0-0.9,0.2-1.3,0.6c-0.4,0.4-0.6,1-0.7,1.6l0,0h3.8v-0.2c0-0.6-0.2-1.1-0.5-1.5C378.3,346.2,377.9,346,377.3,346z"/>
		</g>
		<g>
			<path fill="#5E5F60" d="M73.5,352.1h5.3v1.2H72v-11.2h1.5V352.1z"/>
			<path fill="#5E5F60" d="M81.8,342.9h-1.5v-1.5h1.5V342.9z M81.8,353.3h-1.5V345h1.5V353.3z"/>
			<path fill="#5E5F60" d="M86.7,349.4h-1v3.8h-1.5v-12h1.5v6.9h1l2.3-3.3h1.8l-2.8,3.8l3.2,4.5h-1.8L86.7,349.4z"/>
			<path fill="#5E5F60" d="M95.5,353.4c-1.2,0-2.1-0.4-2.8-1.2s-1-1.8-1-3V349c0-1.2,0.4-2.2,1.1-3s1.5-1.2,2.5-1.2
				c1.1,0,2,0.3,2.5,1s0.9,1.6,0.9,2.7v0.9h-5.4l0,0c0,0.8,0.2,1.5,0.6,2c0.4,0.5,0.9,0.8,1.6,0.8c0.5,0,1-0.1,1.3-0.2
				c0.4-0.1,0.7-0.3,1-0.6l0.6,1c-0.3,0.3-0.7,0.5-1.2,0.7C96.8,353.3,96.2,353.4,95.5,353.4z M95.3,346c-0.5,0-0.9,0.2-1.3,0.6
				c-0.4,0.4-0.6,1-0.7,1.6l0,0h3.8v-0.2c0-0.6-0.2-1.1-0.5-1.5C96.4,346.2,95.9,346,95.3,346z"/>
		</g>
		<polyline fill="#9A9DA2" points="163.4,353.3 163.4,357.9 168.6,353.3 174.9,353.3 174.9,342.2 160.5,342.2 160.5,353.3 
			163.4,353.3 		"/>
		<path fill="#9A9DA2" d="M311.8,356.6c0,0,0.2-9.8,8.7-10v-4.4l8.9,7.2l-8.8,7.2v-4.4C320.6,352.2,315.7,349.6,311.8,356.6z"/>
		<g>
			<rect x="41.6" y="347.1" fill="#9A9DA2" width="4.5" height="9.2"/>
			<path fill="#9A9DA2" d="M49.9,341.3c0,0-0.4,4-2.2,4.9v10h7.4c0,0,2.2-1,1.3-4.6c0,0,2.4-1.2,2.3-3.9c-0.1-2.7-6.5-2.1-6.5-2.1
				s1.3-1.6,1-4.4c-0.3-2.7-2.1-2.2-2.1-2.2S49.2,339.5,49.9,341.3z"/>
		</g>
	</g>
	<g>
		<circle fill="#FED971" cx="30" cy="298" r="8.8"/>
		<g>
			<ellipse fill="#252C38" cx="29.6" cy="301.9" rx="3.3" ry="3.8"/>
			
				<ellipse transform="matrix(0.9592 0.2829 -0.2829 0.9592 84.7307 4.8275)" fill="#252C38" cx="25.6" cy="295.8" rx="1.5" ry="2.2"/>
			
				<ellipse transform="matrix(-0.9947 0.1027 -0.1027 -0.9947 98.9787 586.5422)" fill="#252C38" cx="34.4" cy="295.8" rx="1.5" ry="2.2"/>
			<g>
				<path fill="#252C38" d="M25,292.5l-0.9-0.1c0,0,0.2-1.2,1.2-1.7c0.8-0.4,1.8-0.4,3,0.1l-0.3,0.9c-0.9-0.4-1.7-0.4-2.2-0.1
					C25.2,291.7,25,292.4,25,292.5z"/>
			</g>
			<g>
				<path fill="#252C38" d="M35,292.5l0.9-0.1c0,0-0.2-1.2-1.2-1.7c-0.8-0.4-1.8-0.4-3,0.1l0.3,0.9c0.9-0.4,1.7-0.4,2.2-0.1
					C34.8,291.7,35,292.4,35,292.5z"/>
			</g>
		</g>
	</g>
</g>
</svg>
