<?xml version="1.0" encoding="utf-8"?>
<!-- Generator: Adobe Illustrator 18.0.0, SVG Export Plug-In . SVG Version: 6.00 Build 0)  -->
<!DOCTYPE svg PUBLIC "-//W3C//DTD SVG 1.1//EN" "http://www.w3.org/Graphics/SVG/1.1/DTD/svg11.dtd">
<svg version="1.1" id="Layer_1" xmlns="http://www.w3.org/2000/svg" xmlns:xlink="http://www.w3.org/1999/xlink" x="0px" y="0px"
	 viewBox="0 0 419.6 374.2" enable-background="new 0 0 419.6 374.2" xml:space="preserve">
<g>
	<rect x="0" y="0" fill="#3C5A99" width="419.6" height="132.1"/>
	<rect x="0.2" y="132" fill="#FFFFFF" stroke="#D2D2D2" stroke-width="0.5" stroke-miterlimit="10" width="419.1" height="242.2"/>
	<line fill="none" stroke="#D2D2D2" stroke-miterlimit="10" x1="0.3" y1="326.1" x2="418.9" y2="326.1"/>
	<g>
		<path d="M18.1,218.7l4.1,10.5h0.1l4.1-10.5h2.2v12.9h-1.8v-5.1l0.2-5.3l0,0l-4.2,10.4h-1.2l-4.2-10.4l0,0l0.2,5.2v5.1h-1.8v-12.9
			H18.1z"/>
		<path d="M34.4,228.1l0.3,1.2h0.1l2.4-7.3h1.9l-4,11.1c-0.2,0.6-0.6,1.2-1,1.7c-0.5,0.5-1.1,0.7-1.8,0.7c-0.1,0-0.3,0-0.5,0
			c-0.2,0-0.4-0.1-0.5-0.1l0.2-1.4c0,0,0.1,0,0.3,0c0.2,0,0.4,0,0.5,0c0.4,0,0.7-0.2,0.9-0.5c0.2-0.3,0.4-0.7,0.6-1.1l0.4-1
			l-3.6-9.4h2L34.4,228.1z"/>
		<path d="M52.6,228.4c0-0.6-0.2-1.1-0.7-1.5c-0.4-0.4-1.2-0.7-2.4-1c-1.4-0.3-2.4-0.8-3.2-1.4c-0.8-0.6-1.2-1.4-1.2-2.4
			c0-1,0.4-1.9,1.2-2.5c0.8-0.7,1.9-1,3.2-1c1.4,0,2.5,0.4,3.4,1.2c0.8,0.8,1.2,1.7,1.2,2.7l0,0.1h-1.7c0-0.8-0.3-1.4-0.8-1.8
			c-0.5-0.5-1.2-0.7-2.2-0.7c-0.9,0-1.5,0.2-2,0.6c-0.5,0.4-0.7,0.9-0.7,1.5c0,0.6,0.3,1,0.8,1.4s1.3,0.7,2.5,1
			c1.4,0.3,2.4,0.8,3.1,1.5c0.7,0.7,1.1,1.5,1.1,2.4c0,1-0.4,1.9-1.3,2.5c-0.9,0.6-2,1-3.3,1c-1.3,0-2.4-0.4-3.4-1.1
			c-1-0.7-1.5-1.6-1.4-2.8l0-0.1h1.7c0,0.8,0.3,1.5,0.9,1.9c0.6,0.4,1.4,0.6,2.3,0.6c0.9,0,1.6-0.2,2.1-0.6
			C52.3,229.5,52.6,229,52.6,228.4z"/>
		<path d="M56.1,226.7c0-1.4,0.4-2.6,1.2-3.5c0.8-0.9,1.8-1.4,3.1-1.4c1.3,0,2.4,0.5,3.2,1.4c0.8,0.9,1.2,2.1,1.2,3.5v0.2
			c0,1.4-0.4,2.6-1.2,3.5c-0.8,0.9-1.8,1.4-3.1,1.4s-2.4-0.5-3.2-1.4c-0.8-0.9-1.2-2.1-1.2-3.5V226.7z M57.9,226.9
			c0,1,0.2,1.9,0.6,2.5c0.4,0.7,1.1,1,1.9,1c0.8,0,1.5-0.3,1.9-1c0.4-0.7,0.6-1.5,0.6-2.5v-0.2c0-1-0.2-1.8-0.7-2.5
			c-0.4-0.7-1.1-1-1.9-1c-0.8,0-1.5,0.3-1.9,1c-0.4,0.7-0.6,1.5-0.6,2.5V226.9z"/>
		<path d="M68.8,231.6H67v-13.9h1.8V231.6z"/>
		<path d="M71.1,227c0-1.5,0.3-2.8,1-3.7c0.7-0.9,1.6-1.4,2.8-1.4c0.6,0,1.1,0.1,1.5,0.3c0.4,0.2,0.8,0.5,1.1,0.9v-5.3h1.8v13.9
			h-1.4l-0.2-1.2c-0.3,0.5-0.7,0.8-1.2,1s-1,0.3-1.6,0.3c-1.2,0-2.1-0.4-2.8-1.3c-0.7-0.8-1-2-1-3.4V227z M72.8,227.2
			c0,1,0.2,1.7,0.6,2.3c0.4,0.6,1,0.9,1.8,0.9c0.5,0,1-0.1,1.3-0.4s0.6-0.6,0.9-1v-4.5c-0.2-0.4-0.5-0.7-0.9-0.9
			c-0.4-0.2-0.8-0.4-1.3-0.4c-0.8,0-1.5,0.3-1.9,1c-0.4,0.7-0.6,1.6-0.6,2.7V227.2z"/>
		<path d="M83.7,219.5H82v-1.8h1.8V219.5z M83.7,231.6H82V222h1.8V231.6z"/>
		<path d="M90.4,231.8c-1.3,0-2.4-0.4-3.2-1.3c-0.8-0.9-1.2-2-1.2-3.5v-0.4c0-1.4,0.4-2.5,1.2-3.4c0.8-0.9,1.8-1.4,2.9-1.4
			c1.3,0,2.3,0.4,2.9,1.2c0.7,0.8,1,1.8,1,3.1v1.1h-6.2l0,0c0,0.9,0.3,1.7,0.7,2.3c0.5,0.6,1.1,0.9,1.9,0.9c0.6,0,1.1-0.1,1.6-0.3
			c0.4-0.2,0.8-0.4,1.2-0.7l0.7,1.1c-0.3,0.3-0.8,0.6-1.4,0.8C91.9,231.7,91.2,231.8,90.4,231.8z M90.1,223.2
			c-0.6,0-1.1,0.2-1.5,0.7c-0.4,0.5-0.7,1.1-0.8,1.9l0,0h4.4v-0.2c0-0.7-0.2-1.3-0.6-1.7C91.4,223.4,90.9,223.2,90.1,223.2z"/>
		<path d="M100.6,223.5l-0.9-0.1c-0.5,0-0.9,0.1-1.2,0.3c-0.3,0.2-0.6,0.5-0.7,0.9v6.9H96V222h1.6l0.2,1.4c0.3-0.5,0.6-0.9,1-1.2
			c0.4-0.3,0.9-0.4,1.4-0.4c0.1,0,0.3,0,0.4,0c0.1,0,0.2,0,0.3,0.1L100.6,223.5z"/>
		<path d="M108.7,219.5h-1.8v-1.8h1.8V219.5z M108.7,231.6h-1.8V222h1.8V231.6z"/>
		<path d="M117,229.1c0-0.4-0.1-0.7-0.4-1c-0.3-0.2-0.8-0.5-1.7-0.6c-1.2-0.3-2-0.6-2.6-1c-0.6-0.4-0.9-1-0.9-1.8c0-0.8,0.3-1.4,1-2
			s1.5-0.8,2.6-0.8c1.1,0,2,0.3,2.7,0.9c0.7,0.6,1,1.3,0.9,2.1l0,0.1h-1.7c0-0.4-0.2-0.8-0.5-1.1c-0.4-0.3-0.8-0.5-1.4-0.5
			c-0.6,0-1.1,0.1-1.4,0.4c-0.3,0.3-0.5,0.6-0.5,1c0,0.4,0.1,0.7,0.4,0.9c0.3,0.2,0.8,0.4,1.6,0.6c1.2,0.3,2.1,0.6,2.7,1.1
			c0.6,0.4,0.9,1,0.9,1.8c0,0.9-0.3,1.5-1,2.1c-0.7,0.5-1.6,0.8-2.7,0.8c-1.2,0-2.2-0.3-2.9-0.9c-0.7-0.6-1-1.3-1-2.2l0-0.1h1.7
			c0,0.6,0.3,1.1,0.7,1.4c0.4,0.3,0.9,0.4,1.5,0.4c0.6,0,1.1-0.1,1.5-0.4C116.8,229.8,117,229.5,117,229.1z"/>
		<path d="M125,227c0-1.5,0.3-2.8,1-3.7c0.7-0.9,1.6-1.4,2.8-1.4c0.6,0,1.1,0.1,1.5,0.3c0.4,0.2,0.8,0.5,1.1,0.9v-5.3h1.8v13.9h-1.4
			l-0.2-1.2c-0.3,0.5-0.7,0.8-1.2,1c-0.5,0.2-1,0.3-1.6,0.3c-1.2,0-2.1-0.4-2.8-1.3c-0.7-0.8-1-2-1-3.4V227z M126.8,227.2
			c0,1,0.2,1.7,0.6,2.3c0.4,0.6,1,0.9,1.8,0.9c0.5,0,1-0.1,1.3-0.4c0.4-0.2,0.6-0.6,0.9-1v-4.5c-0.2-0.4-0.5-0.7-0.9-0.9
			c-0.4-0.2-0.8-0.4-1.3-0.4c-0.8,0-1.5,0.3-1.9,1c-0.4,0.7-0.6,1.6-0.6,2.7V227.2z"/>
		<path d="M139.8,231.8c-1.3,0-2.4-0.4-3.2-1.3c-0.8-0.9-1.2-2-1.2-3.5v-0.4c0-1.4,0.4-2.5,1.2-3.4c0.8-0.9,1.8-1.4,2.9-1.4
			c1.3,0,2.3,0.4,2.9,1.2c0.7,0.8,1,1.8,1,3.1v1.1h-6.2l0,0c0,0.9,0.3,1.7,0.7,2.3c0.5,0.6,1.1,0.9,1.9,0.9c0.6,0,1.1-0.1,1.6-0.3
			c0.4-0.2,0.8-0.4,1.2-0.7l0.7,1.1c-0.3,0.3-0.8,0.6-1.4,0.8C141.3,231.7,140.6,231.8,139.8,231.8z M139.5,223.2
			c-0.6,0-1.1,0.2-1.5,0.7c-0.4,0.5-0.7,1.1-0.8,1.9l0,0h4.4v-0.2c0-0.7-0.2-1.3-0.6-1.7C140.8,223.4,140.2,223.2,139.5,223.2z"/>
		<path d="M153.6,227.2c0,1.4-0.3,2.5-1,3.4c-0.7,0.9-1.6,1.3-2.7,1.3c-0.6,0-1.1-0.1-1.6-0.3c-0.4-0.2-0.8-0.5-1.1-0.9v4.7h-1.8
			V222h1.3l0.3,1.2c0.3-0.5,0.7-0.8,1.2-1.1c0.5-0.2,1-0.4,1.6-0.4c1.2,0,2.1,0.5,2.8,1.4c0.7,0.9,1,2.2,1,3.7V227.2z M151.9,227
			c0-1.1-0.2-2-0.6-2.7c-0.4-0.7-1.1-1.1-1.9-1.1c-0.5,0-0.9,0.1-1.3,0.3c-0.4,0.2-0.6,0.5-0.9,0.9v4.6c0.2,0.4,0.5,0.7,0.9,0.9
			c0.4,0.2,0.8,0.3,1.3,0.3c0.8,0,1.5-0.3,1.9-0.9c0.4-0.6,0.6-1.4,0.6-2.3V227z"/>
		<path d="M157.7,231.6h-1.8v-13.9h1.8V231.6z"/>
		<path d="M159.9,226.7c0-1.4,0.4-2.6,1.2-3.5c0.8-0.9,1.8-1.4,3.1-1.4c1.3,0,2.4,0.5,3.2,1.4c0.8,0.9,1.2,2.1,1.2,3.5v0.2
			c0,1.4-0.4,2.6-1.2,3.5c-0.8,0.9-1.8,1.4-3.1,1.4s-2.4-0.5-3.2-1.4s-1.2-2.1-1.2-3.5V226.7z M161.7,226.9c0,1,0.2,1.9,0.6,2.5
			c0.4,0.7,1.1,1,1.9,1c0.8,0,1.5-0.3,1.9-1c0.4-0.7,0.6-1.5,0.6-2.5v-0.2c0-1-0.2-1.8-0.7-2.5c-0.4-0.7-1.1-1-1.9-1
			c-0.8,0-1.5,0.3-1.9,1c-0.4,0.7-0.6,1.5-0.6,2.5V226.9z"/>
		<path d="M173.5,228.1l0.3,1.2h0.1l2.4-7.3h1.9l-4,11.1c-0.2,0.6-0.6,1.2-1,1.7c-0.5,0.5-1.1,0.7-1.8,0.7c-0.1,0-0.3,0-0.5,0
			c-0.2,0-0.4-0.1-0.5-0.1l0.2-1.4c0,0,0.1,0,0.3,0c0.2,0,0.4,0,0.5,0c0.4,0,0.7-0.2,0.9-0.5c0.2-0.3,0.4-0.7,0.6-1.1l0.4-1
			l-3.6-9.4h2L173.5,228.1z"/>
		<path d="M183.6,231.8c-1.3,0-2.4-0.4-3.2-1.3c-0.8-0.9-1.2-2-1.2-3.5v-0.4c0-1.4,0.4-2.5,1.2-3.4c0.8-0.9,1.8-1.4,2.9-1.4
			c1.3,0,2.3,0.4,2.9,1.2c0.7,0.8,1,1.8,1,3.1v1.1H181l0,0c0,0.9,0.3,1.7,0.7,2.3c0.5,0.6,1.1,0.9,1.9,0.9c0.6,0,1.1-0.1,1.6-0.3
			c0.4-0.2,0.8-0.4,1.2-0.7l0.7,1.1c-0.3,0.3-0.8,0.6-1.4,0.8C185.1,231.7,184.4,231.8,183.6,231.8z M183.3,223.2
			c-0.6,0-1.1,0.2-1.5,0.7c-0.4,0.5-0.7,1.1-0.8,1.9l0,0h4.4v-0.2c0-0.7-0.2-1.3-0.6-1.7C184.6,223.4,184.1,223.2,183.3,223.2z"/>
		<path d="M188.8,227c0-1.5,0.3-2.8,1-3.7c0.7-0.9,1.6-1.4,2.8-1.4c0.6,0,1.1,0.1,1.5,0.3c0.4,0.2,0.8,0.5,1.1,0.9v-5.3h1.8v13.9
			h-1.4l-0.2-1.2c-0.3,0.5-0.7,0.8-1.2,1c-0.5,0.2-1,0.3-1.6,0.3c-1.2,0-2.1-0.4-2.8-1.3c-0.7-0.8-1-2-1-3.4V227z M190.6,227.2
			c0,1,0.2,1.7,0.6,2.3c0.4,0.6,1,0.9,1.8,0.9c0.5,0,1-0.1,1.3-0.4c0.4-0.2,0.6-0.6,0.9-1v-4.5c-0.2-0.4-0.5-0.7-0.9-0.9
			c-0.4-0.2-0.8-0.4-1.3-0.4c-0.8,0-1.5,0.3-1.9,1c-0.4,0.7-0.6,1.6-0.6,2.7V227.2z"/>
		<path d="M206.4,219.7v2.3h1.8v1.3h-1.8v5.8c0,0.5,0.1,0.8,0.3,1c0.2,0.2,0.4,0.3,0.7,0.3c0.1,0,0.2,0,0.3,0c0.1,0,0.2-0.1,0.3-0.1
			l0.2,1.2c-0.1,0.1-0.3,0.2-0.6,0.3c-0.3,0.1-0.5,0.1-0.8,0.1c-0.7,0-1.3-0.2-1.7-0.6c-0.4-0.4-0.6-1.1-0.6-2v-5.8h-1.5V222h1.5
			v-2.3H206.4z"/>
		<path d="M210,226.7c0-1.4,0.4-2.6,1.2-3.5c0.8-0.9,1.8-1.4,3.1-1.4c1.3,0,2.4,0.5,3.2,1.4c0.8,0.9,1.2,2.1,1.2,3.5v0.2
			c0,1.4-0.4,2.6-1.2,3.5c-0.8,0.9-1.8,1.4-3.1,1.4c-1.3,0-2.4-0.5-3.2-1.4s-1.2-2.1-1.2-3.5V226.7z M211.7,226.9
			c0,1,0.2,1.9,0.6,2.5c0.4,0.7,1.1,1,1.9,1c0.8,0,1.5-0.3,1.9-1c0.4-0.7,0.6-1.5,0.6-2.5v-0.2c0-1-0.2-1.8-0.7-2.5
			c-0.4-0.7-1.1-1-1.9-1c-0.8,0-1.5,0.3-1.9,1c-0.4,0.7-0.6,1.5-0.6,2.5V226.9z"/>
		<path d="M232.6,228.3h-5.4l-1.2,3.3h-1.8l5-12.9h1.5l4.9,12.9h-1.8L232.6,228.3z M227.7,226.8h4.4l-2.1-5.9h-0.1L227.7,226.8z"/>
		<path d="M237.8,231.6v-8.3h-1.5V222h1.5v-1.2c0-1,0.3-1.8,0.8-2.4c0.5-0.6,1.3-0.8,2.2-0.8c0.2,0,0.4,0,0.6,0
			c0.2,0,0.4,0.1,0.7,0.1l-0.2,1.3c-0.1,0-0.2,0-0.4-0.1c-0.2,0-0.3,0-0.5,0c-0.5,0-0.9,0.2-1.1,0.5c-0.2,0.3-0.4,0.7-0.4,1.3v1.2h2
			v1.3h-2v8.3H237.8z"/>
		<path d="M242.8,227c0-1.5,0.3-2.8,1-3.7c0.7-0.9,1.6-1.4,2.8-1.4c0.6,0,1.1,0.1,1.6,0.4c0.5,0.2,0.8,0.6,1.2,1.1l0.2-1.3h1.4v9.7
			c0,1.2-0.4,2.2-1.1,2.8c-0.7,0.7-1.8,1-3.1,1c-0.5,0-1-0.1-1.5-0.2c-0.5-0.1-1-0.3-1.4-0.5l0.4-1.4c0.3,0.2,0.7,0.3,1.1,0.4
			c0.4,0.1,0.9,0.2,1.3,0.2c0.9,0,1.5-0.2,1.9-0.6c0.4-0.4,0.6-1,0.6-1.8v-1.1c-0.3,0.4-0.7,0.7-1.1,0.9c-0.4,0.2-0.9,0.3-1.5,0.3
			c-1.2,0-2.1-0.4-2.8-1.3c-0.7-0.9-1-2-1-3.4V227z M244.5,227.2c0,1,0.2,1.7,0.6,2.3c0.4,0.6,1,0.9,1.9,0.9c0.5,0,1-0.1,1.3-0.4
			c0.4-0.2,0.6-0.6,0.9-1v-4.4c-0.2-0.4-0.5-0.7-0.9-1c-0.4-0.2-0.8-0.4-1.3-0.4c-0.8,0-1.5,0.3-1.9,1c-0.4,0.7-0.6,1.6-0.6,2.7
			V227.2z"/>
		<path d="M255.2,223.3c0.3-0.5,0.7-0.8,1.2-1.1c0.5-0.3,1-0.4,1.6-0.4c1,0,1.8,0.3,2.4,0.9c0.6,0.6,0.9,1.6,0.9,2.8v6h-1.8v-6
			c0-0.8-0.2-1.4-0.5-1.8s-0.8-0.6-1.5-0.6c-0.5,0-0.9,0.1-1.3,0.3c-0.4,0.2-0.7,0.5-1,0.9v7.1h-1.8v-13.9h1.8V223.3z"/>
		<path d="M269.7,231.6c-0.1-0.3-0.1-0.5-0.1-0.8c0-0.2-0.1-0.4-0.1-0.7c-0.3,0.5-0.8,0.8-1.3,1.2c-0.5,0.3-1.1,0.5-1.7,0.5
			c-1,0-1.8-0.3-2.3-0.8c-0.5-0.5-0.8-1.2-0.8-2.1c0-0.9,0.4-1.6,1.1-2.2c0.7-0.5,1.8-0.8,3-0.8h1.9v-1c0-0.6-0.2-1-0.5-1.3
			c-0.3-0.3-0.8-0.5-1.5-0.5c-0.6,0-1,0.1-1.4,0.4c-0.4,0.3-0.5,0.6-0.5,1H264l0-0.1c0-0.7,0.3-1.3,1-1.9c0.7-0.6,1.6-0.9,2.7-0.9
			c1.1,0,2,0.3,2.6,0.8c0.7,0.6,1,1.4,1,2.4v4.6c0,0.3,0,0.7,0.1,1c0,0.3,0.1,0.6,0.2,0.9H269.7z M266.8,230.3
			c0.6,0,1.2-0.2,1.7-0.5c0.5-0.3,0.8-0.7,1-1.1v-1.6h-2c-0.7,0-1.3,0.2-1.7,0.5c-0.4,0.4-0.6,0.8-0.6,1.2c0,0.4,0.1,0.8,0.4,1
			C265.9,230.2,266.3,230.3,266.8,230.3z"/>
		<path d="M275.4,222l0.1,1.4c0.3-0.5,0.7-0.9,1.2-1.2c0.5-0.3,1-0.4,1.6-0.4c1,0,1.8,0.3,2.4,0.9c0.6,0.6,0.9,1.5,0.9,2.8v6.1h-1.8
			v-6c0-0.8-0.2-1.4-0.5-1.8c-0.3-0.4-0.8-0.5-1.5-0.5c-0.5,0-0.9,0.1-1.3,0.4c-0.4,0.2-0.7,0.6-0.9,1v7h-1.8V222H275.4z"/>
		<path d="M286.1,219.5h-1.8v-1.8h1.8V219.5z M286.1,231.6h-1.8V222h1.8V231.6z"/>
		<path d="M294.4,229.1c0-0.4-0.1-0.7-0.4-1c-0.3-0.2-0.8-0.5-1.7-0.6c-1.2-0.3-2-0.6-2.6-1c-0.6-0.4-0.9-1-0.9-1.8
			c0-0.8,0.3-1.4,1-2s1.5-0.8,2.6-0.8c1.1,0,2,0.3,2.7,0.9c0.7,0.6,1,1.3,0.9,2.1l0,0.1h-1.7c0-0.4-0.2-0.8-0.5-1.1
			c-0.4-0.3-0.8-0.5-1.4-0.5c-0.6,0-1.1,0.1-1.4,0.4c-0.3,0.3-0.5,0.6-0.5,1c0,0.4,0.1,0.7,0.4,0.9c0.3,0.2,0.8,0.4,1.6,0.6
			c1.2,0.3,2.1,0.6,2.7,1.1c0.6,0.4,0.9,1,0.9,1.8c0,0.9-0.3,1.5-1,2.1c-0.7,0.5-1.6,0.8-2.7,0.8c-1.2,0-2.2-0.3-2.9-0.9
			c-0.7-0.6-1-1.3-1-2.2l0-0.1h1.7c0,0.6,0.3,1.1,0.7,1.4c0.4,0.3,0.9,0.4,1.5,0.4c0.6,0,1.1-0.1,1.5-0.4
			C294.2,229.8,294.4,229.5,294.4,229.1z"/>
		<path d="M300.6,219.7v2.3h1.8v1.3h-1.8v5.8c0,0.5,0.1,0.8,0.3,1c0.2,0.2,0.4,0.3,0.7,0.3c0.1,0,0.2,0,0.3,0c0.1,0,0.2-0.1,0.3-0.1
			l0.2,1.2c-0.1,0.1-0.3,0.2-0.6,0.3c-0.3,0.1-0.5,0.1-0.8,0.1c-0.7,0-1.3-0.2-1.7-0.6s-0.6-1.1-0.6-2v-5.8h-1.5V222h1.5v-2.3H300.6
			z"/>
		<path d="M310.5,231.6c-0.1-0.3-0.1-0.5-0.1-0.8c0-0.2-0.1-0.4-0.1-0.7c-0.3,0.5-0.8,0.8-1.3,1.2c-0.5,0.3-1.1,0.5-1.7,0.5
			c-1,0-1.8-0.3-2.3-0.8c-0.5-0.5-0.8-1.2-0.8-2.1c0-0.9,0.4-1.6,1.1-2.2c0.7-0.5,1.8-0.8,3-0.8h1.9v-1c0-0.6-0.2-1-0.5-1.3
			c-0.3-0.3-0.8-0.5-1.5-0.5c-0.6,0-1,0.1-1.4,0.4c-0.4,0.3-0.5,0.6-0.5,1h-1.7l0-0.1c0-0.7,0.3-1.3,1-1.9c0.7-0.6,1.6-0.9,2.7-0.9
			c1.1,0,2,0.3,2.6,0.8c0.7,0.6,1,1.4,1,2.4v4.6c0,0.3,0,0.7,0.1,1c0,0.3,0.1,0.6,0.2,0.9H310.5z M307.6,230.3
			c0.6,0,1.2-0.2,1.7-0.5c0.5-0.3,0.8-0.7,1-1.1v-1.6h-2c-0.7,0-1.3,0.2-1.7,0.5c-0.4,0.4-0.6,0.8-0.6,1.2c0,0.4,0.1,0.8,0.4,1
			C306.7,230.2,307.1,230.3,307.6,230.3z"/>
		<path d="M316.2,222l0.1,1.4c0.3-0.5,0.7-0.9,1.2-1.2c0.5-0.3,1-0.4,1.6-0.4c1,0,1.8,0.3,2.4,0.9c0.6,0.6,0.9,1.5,0.9,2.8v6.1h-1.8
			v-6c0-0.8-0.2-1.4-0.5-1.8c-0.3-0.4-0.8-0.5-1.5-0.5c-0.5,0-0.9,0.1-1.3,0.4c-0.4,0.2-0.7,0.6-0.9,1v7h-1.8V222H316.2z"/>
		<path d="M326.9,231.6h-1.8v-1.8h1.8V231.6z"/>
	</g>
	<g>
		<g>
			<path fill="#8A909D" d="M220.7,302.3H214v-1l3.4-3.7c0.6-0.7,1-1.2,1.2-1.6c0.2-0.4,0.3-0.8,0.3-1.2c0-0.5-0.1-0.9-0.4-1.3
				c-0.3-0.3-0.7-0.5-1.2-0.5c-0.7,0-1.2,0.2-1.6,0.5c-0.3,0.4-0.5,0.9-0.5,1.5h-1.3l0,0c0-0.9,0.3-1.6,0.9-2.2
				c0.6-0.6,1.5-0.9,2.5-0.9c0.9,0,1.7,0.3,2.2,0.8c0.5,0.5,0.8,1.2,0.8,2.1c0,0.6-0.2,1.1-0.5,1.7c-0.3,0.6-0.8,1.2-1.4,1.8
				l-2.7,2.9l0,0h4.9V302.3z"/>
			<path fill="#8A909D" d="M227.7,298.9h1.4v1.1h-1.4v2.4h-1.4V300h-4.6v-0.8l4.5-7.1h1.5V298.9z M223.2,298.9h3.1v-4.8l0,0
				l-0.1,0.4L223.2,298.9z"/>
			<path fill="#8A909D" d="M236.9,302.3h-6.6v-1l3.4-3.7c0.6-0.7,1-1.2,1.2-1.6c0.2-0.4,0.3-0.8,0.3-1.2c0-0.5-0.1-0.9-0.4-1.3
				c-0.3-0.3-0.7-0.5-1.2-0.5c-0.7,0-1.2,0.2-1.6,0.5c-0.3,0.4-0.5,0.9-0.5,1.5h-1.3l0,0c0-0.9,0.3-1.6,0.9-2.2
				c0.6-0.6,1.5-0.9,2.5-0.9c0.9,0,1.7,0.3,2.2,0.8c0.5,0.5,0.8,1.2,0.8,2.1c0,0.6-0.2,1.1-0.5,1.7c-0.3,0.6-0.8,1.2-1.4,1.8
				l-2.7,2.9l0,0h4.9V302.3z"/>
			<path fill="#8A909D" d="M249.6,299.1L249.6,299.1c0,1-0.3,1.8-1,2.5c-0.7,0.6-1.6,1-2.8,1c-1.2,0-2.1-0.4-2.8-1.2
				s-1.1-1.9-1.1-3.1v-1.8c0-1.3,0.4-2.3,1.1-3.1c0.7-0.8,1.7-1.2,2.8-1.2s2.1,0.3,2.8,0.9c0.7,0.6,1,1.4,1,2.5l0,0h-1.3
				c0-0.7-0.2-1.3-0.6-1.7c-0.4-0.4-1-0.6-1.8-0.6c-0.8,0-1.4,0.3-1.8,0.9c-0.5,0.6-0.7,1.4-0.7,2.3v1.8c0,0.9,0.2,1.7,0.7,2.3
				c0.5,0.6,1.1,0.9,1.8,0.9c0.8,0,1.4-0.2,1.8-0.6c0.4-0.4,0.6-1,0.6-1.7H249.6z"/>
			<path fill="#8A909D" d="M250.9,298.5c0-1.1,0.3-2.1,0.9-2.8c0.6-0.7,1.4-1.1,2.5-1.1c1.1,0,1.9,0.4,2.5,1.1
				c0.6,0.7,0.9,1.7,0.9,2.8v0.2c0,1.1-0.3,2.1-0.9,2.8c-0.6,0.7-1.4,1.1-2.5,1.1s-1.9-0.4-2.5-1.1c-0.6-0.7-0.9-1.7-0.9-2.8V298.5z
				 M252.3,298.6c0,0.8,0.2,1.5,0.5,2c0.3,0.5,0.8,0.8,1.5,0.8c0.7,0,1.2-0.3,1.5-0.8c0.3-0.5,0.5-1.2,0.5-2v-0.2
				c0-0.8-0.2-1.5-0.5-2c-0.3-0.5-0.8-0.8-1.5-0.8c-0.7,0-1.2,0.3-1.5,0.8s-0.5,1.2-0.5,2V298.6z"/>
			<path fill="#8A909D" d="M260.7,294.7l0.1,1c0.2-0.4,0.6-0.6,0.9-0.8c0.4-0.2,0.8-0.3,1.3-0.3c0.5,0,0.9,0.1,1.3,0.4
				c0.4,0.2,0.6,0.6,0.8,1.1c0.2-0.4,0.6-0.8,1-1c0.4-0.3,0.9-0.4,1.4-0.4c0.8,0,1.4,0.3,1.8,0.8c0.5,0.5,0.7,1.3,0.7,2.4v4.6h-1.4
				v-4.6c0-0.7-0.1-1.3-0.4-1.6c-0.3-0.3-0.6-0.5-1.2-0.5c-0.5,0-0.9,0.2-1.1,0.5c-0.3,0.3-0.5,0.7-0.5,1.2v0.1v4.8H264v-4.6
				c0-0.7-0.1-1.2-0.4-1.6c-0.3-0.3-0.6-0.5-1.1-0.5c-0.4,0-0.8,0.1-1,0.3c-0.3,0.2-0.5,0.4-0.6,0.7v5.6h-1.4v-7.6H260.7z"/>
			<path fill="#8A909D" d="M273.3,294.7l0.1,1c0.2-0.4,0.6-0.6,0.9-0.8c0.4-0.2,0.8-0.3,1.3-0.3s0.9,0.1,1.3,0.4
				c0.4,0.2,0.6,0.6,0.8,1.1c0.2-0.4,0.6-0.8,1-1c0.4-0.3,0.9-0.4,1.4-0.4c0.8,0,1.4,0.3,1.8,0.8c0.5,0.5,0.7,1.3,0.7,2.4v4.6h-1.4
				v-4.6c0-0.7-0.1-1.3-0.4-1.6c-0.3-0.3-0.6-0.5-1.2-0.5c-0.5,0-0.9,0.2-1.1,0.5s-0.5,0.7-0.5,1.2v0.1v4.8h-1.4v-4.6
				c0-0.7-0.1-1.2-0.4-1.6c-0.3-0.3-0.6-0.5-1.1-0.5c-0.4,0-0.8,0.1-1,0.3c-0.3,0.2-0.5,0.4-0.6,0.7v5.6H272v-7.6H273.3z"/>
			<path fill="#8A909D" d="M287.8,302.5c-1.1,0-1.9-0.4-2.5-1.1c-0.6-0.7-0.9-1.6-0.9-2.7v-0.3c0-1.1,0.3-2,1-2.7
				c0.6-0.7,1.4-1.1,2.3-1.1c1,0,1.8,0.3,2.3,0.9c0.5,0.6,0.8,1.4,0.8,2.5v0.9h-4.9l0,0c0,0.7,0.2,1.3,0.6,1.8
				c0.4,0.5,0.9,0.7,1.5,0.7c0.5,0,0.9-0.1,1.2-0.2c0.4-0.1,0.7-0.3,0.9-0.6l0.5,0.9c-0.3,0.3-0.6,0.5-1.1,0.7
				C289,302.4,288.4,302.5,287.8,302.5z M287.6,295.7c-0.5,0-0.9,0.2-1.2,0.6c-0.3,0.4-0.5,0.9-0.6,1.5l0,0h3.5v-0.2
				c0-0.5-0.1-1-0.4-1.4C288.6,295.9,288.1,295.7,287.6,295.7z"/>
			<path fill="#8A909D" d="M293.5,294.7l0.1,1.1c0.3-0.4,0.6-0.7,1-0.9c0.4-0.2,0.8-0.3,1.3-0.3c0.8,0,1.5,0.2,1.9,0.7
				c0.5,0.5,0.7,1.2,0.7,2.2v4.8H297v-4.8c0-0.7-0.1-1.1-0.4-1.4c-0.3-0.3-0.7-0.4-1.2-0.4c-0.4,0-0.8,0.1-1.1,0.3
				c-0.3,0.2-0.6,0.5-0.7,0.8v5.6h-1.4v-7.6H293.5z"/>
			<path fill="#8A909D" d="M302.3,292.9v1.8h1.4v1h-1.4v4.6c0,0.4,0.1,0.6,0.2,0.8c0.1,0.1,0.3,0.2,0.6,0.2c0.1,0,0.2,0,0.3,0
				c0.1,0,0.2,0,0.3-0.1l0.2,0.9c-0.1,0.1-0.3,0.2-0.5,0.2c-0.2,0.1-0.4,0.1-0.6,0.1c-0.6,0-1-0.2-1.3-0.5c-0.3-0.3-0.5-0.9-0.5-1.6
				v-4.6h-1.2v-1h1.2v-1.8H302.3z"/>
			<path fill="#8A909D" d="M309.8,300.3c0-0.3-0.1-0.6-0.3-0.8c-0.2-0.2-0.7-0.4-1.3-0.5c-0.9-0.2-1.6-0.5-2.1-0.8
				c-0.5-0.3-0.7-0.8-0.7-1.4c0-0.6,0.3-1.1,0.8-1.6c0.5-0.4,1.2-0.7,2.1-0.7c0.9,0,1.6,0.2,2.1,0.7c0.5,0.5,0.8,1,0.7,1.7l0,0h-1.3
				c0-0.3-0.1-0.6-0.4-0.9c-0.3-0.3-0.6-0.4-1.1-0.4c-0.5,0-0.9,0.1-1.1,0.3c-0.2,0.2-0.4,0.5-0.4,0.8c0,0.3,0.1,0.5,0.3,0.7
				c0.2,0.2,0.6,0.3,1.3,0.5c1,0.2,1.7,0.5,2.1,0.8c0.5,0.4,0.7,0.8,0.7,1.4c0,0.7-0.3,1.2-0.8,1.6c-0.5,0.4-1.3,0.6-2.1,0.6
				c-1,0-1.7-0.2-2.3-0.7s-0.8-1.1-0.8-1.7l0,0h1.3c0,0.5,0.2,0.8,0.6,1.1c0.3,0.2,0.7,0.3,1.2,0.3c0.5,0,0.9-0.1,1.2-0.3
				C309.7,300.9,309.8,300.6,309.8,300.3z"/>
		</g>
	</g>
	<g>
		<g>
			<path fill="#D2D2D2" d="M85.9,184.3c0-0.5-0.2-0.9-0.6-1.3c-0.4-0.3-1.1-0.6-2-0.9c-1.2-0.3-2.1-0.7-2.8-1.2
				c-0.7-0.5-1-1.2-1-2.1c0-0.9,0.4-1.6,1.1-2.2c0.7-0.6,1.6-0.9,2.8-0.9c1.2,0,2.2,0.3,2.9,1s1.1,1.4,1,2.3l0,0h-1.4
				c0-0.7-0.2-1.2-0.6-1.6c-0.4-0.4-1.1-0.6-1.9-0.6c-0.8,0-1.3,0.2-1.7,0.5s-0.6,0.8-0.6,1.3c0,0.5,0.2,0.9,0.7,1.2
				c0.4,0.3,1.1,0.6,2.1,0.9c1.2,0.3,2.1,0.7,2.7,1.3c0.6,0.6,0.9,1.3,0.9,2.1c0,0.9-0.4,1.6-1.1,2.2c-0.7,0.5-1.7,0.8-2.9,0.8
				c-1.1,0-2.1-0.3-3-0.9c-0.9-0.6-1.3-1.4-1.2-2.4l0,0h1.4c0,0.7,0.3,1.3,0.8,1.6c0.5,0.4,1.2,0.6,2,0.6c0.8,0,1.4-0.2,1.8-0.5
				C85.7,185.3,85.9,184.8,85.9,184.3z"/>
			<path fill="#D2D2D2" d="M96.4,183.3c0,1.2-0.3,2.2-0.9,2.9s-1.4,1.1-2.4,1.1c-0.5,0-1-0.1-1.3-0.3s-0.7-0.4-1-0.8v4.1h-1.5v-11.5
				h1.2l0.2,1.1c0.3-0.4,0.6-0.7,1-0.9c0.4-0.2,0.9-0.3,1.4-0.3c1,0,1.8,0.4,2.4,1.2c0.6,0.8,0.9,1.9,0.9,3.2V183.3z M94.9,183.1
				c0-0.9-0.2-1.7-0.6-2.3c-0.4-0.6-0.9-0.9-1.6-0.9c-0.4,0-0.8,0.1-1.1,0.3c-0.3,0.2-0.6,0.5-0.7,0.8v4c0.2,0.3,0.4,0.6,0.7,0.8
				c0.3,0.2,0.7,0.3,1.1,0.3c0.7,0,1.3-0.3,1.6-0.8c0.4-0.5,0.6-1.2,0.6-2V183.1z"/>
			<path fill="#D2D2D2" d="M97.9,182.9c0-1.2,0.3-2.2,1-3s1.6-1.2,2.7-1.2c1.2,0,2.1,0.4,2.7,1.2c0.7,0.8,1,1.8,1,3v0.2
				c0,1.2-0.3,2.3-1,3s-1.6,1.2-2.7,1.2c-1.1,0-2.1-0.4-2.7-1.2c-0.7-0.8-1-1.8-1-3V182.9z M99.4,183c0,0.9,0.2,1.6,0.6,2.2
				c0.4,0.6,0.9,0.9,1.7,0.9c0.7,0,1.3-0.3,1.6-0.9c0.4-0.6,0.6-1.3,0.6-2.2v-0.2c0-0.9-0.2-1.6-0.6-2.2c-0.4-0.6-0.9-0.9-1.7-0.9
				c-0.7,0-1.3,0.3-1.6,0.9c-0.4,0.6-0.6,1.3-0.6,2.2V183z"/>
			<path fill="#D2D2D2" d="M108.5,178.8l0.1,1.2c0.3-0.4,0.6-0.8,1-1c0.4-0.2,0.9-0.4,1.4-0.4c0.9,0,1.6,0.3,2.1,0.8
				c0.5,0.5,0.7,1.3,0.7,2.4v5.2h-1.5v-5.2c0-0.7-0.1-1.3-0.4-1.6c-0.3-0.3-0.7-0.5-1.3-0.5c-0.4,0-0.8,0.1-1.2,0.3
				c-0.3,0.2-0.6,0.5-0.8,0.9v6.1h-1.5v-8.3H108.5z"/>
			<path fill="#D2D2D2" d="M120.9,184.9c0-0.3-0.1-0.6-0.4-0.8s-0.7-0.4-1.4-0.6c-1-0.2-1.8-0.5-2.3-0.9c-0.5-0.4-0.8-0.9-0.8-1.5
				c0-0.7,0.3-1.2,0.9-1.7c0.6-0.5,1.3-0.7,2.2-0.7c1,0,1.7,0.2,2.3,0.7c0.6,0.5,0.8,1.1,0.8,1.8l0,0h-1.4c0-0.4-0.2-0.7-0.5-1
				c-0.3-0.3-0.7-0.4-1.2-0.4c-0.5,0-0.9,0.1-1.2,0.4c-0.3,0.2-0.4,0.5-0.4,0.9c0,0.3,0.1,0.6,0.3,0.8c0.2,0.2,0.7,0.4,1.4,0.5
				c1,0.2,1.8,0.5,2.3,0.9c0.5,0.4,0.8,0.9,0.8,1.6c0,0.7-0.3,1.3-0.9,1.8c-0.6,0.5-1.4,0.7-2.3,0.7c-1.1,0-1.9-0.3-2.5-0.8
				c-0.6-0.5-0.9-1.2-0.9-1.9l0,0h1.4c0,0.5,0.2,0.9,0.6,1.2c0.4,0.2,0.8,0.4,1.3,0.4c0.5,0,1-0.1,1.3-0.3
				C120.8,185.5,120.9,185.2,120.9,184.9z"/>
			<path fill="#D2D2D2" d="M124,182.9c0-1.2,0.3-2.2,1-3s1.6-1.2,2.7-1.2c1.2,0,2.1,0.4,2.7,1.2c0.7,0.8,1,1.8,1,3v0.2
				c0,1.2-0.3,2.3-1,3c-0.7,0.8-1.6,1.2-2.7,1.2c-1.1,0-2.1-0.4-2.7-1.2c-0.7-0.8-1-1.8-1-3V182.9z M125.5,183
				c0,0.9,0.2,1.6,0.6,2.2c0.4,0.6,0.9,0.9,1.7,0.9c0.7,0,1.3-0.3,1.6-0.9c0.4-0.6,0.6-1.3,0.6-2.2v-0.2c0-0.9-0.2-1.6-0.6-2.2
				c-0.4-0.6-0.9-0.9-1.7-0.9c-0.7,0-1.3,0.3-1.6,0.9c-0.4,0.6-0.6,1.3-0.6,2.2V183z"/>
			<path fill="#D2D2D2" d="M137.2,180.1l-0.8,0c-0.4,0-0.7,0.1-1,0.3c-0.3,0.2-0.5,0.5-0.6,0.8v5.9h-1.5v-8.3h1.4l0.1,1.2
				c0.2-0.4,0.5-0.8,0.9-1c0.3-0.2,0.7-0.4,1.2-0.4c0.1,0,0.2,0,0.3,0s0.2,0,0.3,0.1L137.2,180.1z"/>
			<path fill="#D2D2D2" d="M142,187.3c-1.2,0-2.1-0.4-2.8-1.2c-0.7-0.8-1-1.8-1-3v-0.3c0-1.2,0.4-2.2,1.1-2.9
				c0.7-0.8,1.5-1.2,2.5-1.2c1.1,0,2,0.3,2.5,1c0.6,0.7,0.9,1.6,0.9,2.7v0.9h-5.4l0,0c0,0.8,0.2,1.5,0.6,2c0.4,0.5,0.9,0.8,1.6,0.8
				c0.5,0,1-0.1,1.3-0.2c0.4-0.1,0.7-0.3,1-0.6l0.6,1c-0.3,0.3-0.7,0.5-1.2,0.7C143.2,187.2,142.7,187.3,142,187.3z M141.7,179.8
				c-0.5,0-0.9,0.2-1.3,0.6c-0.4,0.4-0.6,1-0.7,1.6l0,0h3.8v-0.2c0-0.6-0.2-1.1-0.5-1.5C142.8,180,142.4,179.8,141.7,179.8z"/>
			<path fill="#D2D2D2" d="M146.5,183.1c0-1.3,0.3-2.4,0.9-3.2c0.6-0.8,1.4-1.2,2.4-1.2c0.5,0,0.9,0.1,1.3,0.3
				c0.4,0.2,0.7,0.4,1,0.8v-4.6h1.5v12h-1.2l-0.2-1c-0.3,0.4-0.6,0.7-1,0.9s-0.9,0.3-1.4,0.3c-1,0-1.8-0.4-2.4-1.1
				c-0.6-0.7-0.9-1.7-0.9-2.9V183.1z M148,183.3c0,0.8,0.2,1.5,0.5,2c0.3,0.5,0.9,0.8,1.6,0.8c0.5,0,0.8-0.1,1.1-0.3
				c0.3-0.2,0.6-0.5,0.8-0.9V181c-0.2-0.3-0.4-0.6-0.8-0.8c-0.3-0.2-0.7-0.3-1.1-0.3c-0.7,0-1.3,0.3-1.6,0.9
				c-0.3,0.6-0.5,1.4-0.5,2.3V183.3z"/>
		</g>
	</g>
	<g>
		<g>
			<path fill="#8A909D" d="M50.9,302.3h-6.6v-1l3.4-3.7c0.6-0.7,1-1.2,1.2-1.6c0.2-0.4,0.3-0.8,0.3-1.2c0-0.5-0.1-0.9-0.4-1.3
				c-0.3-0.3-0.7-0.5-1.2-0.5c-0.7,0-1.2,0.2-1.6,0.5c-0.3,0.4-0.5,0.9-0.5,1.5h-1.3l0,0c0-0.9,0.3-1.6,0.9-2.2
				c0.6-0.6,1.5-0.9,2.5-0.9c0.9,0,1.7,0.3,2.2,0.8s0.8,1.2,0.8,2.1c0,0.6-0.2,1.1-0.5,1.7c-0.3,0.6-0.8,1.2-1.4,1.8l-2.7,2.9l0,0
				h4.9V302.3z"/>
			<path fill="#8A909D" d="M57.9,298.9h1.4v1.1h-1.4v2.4h-1.4V300h-4.6v-0.8l4.5-7.1h1.5V298.9z M53.4,298.9h3.1v-4.8l0,0l-0.1,0.4
				L53.4,298.9z"/>
			<path fill="#8A909D" d="M67.1,302.3h-6.6v-1l3.4-3.7c0.6-0.7,1-1.2,1.2-1.6c0.2-0.4,0.3-0.8,0.3-1.2c0-0.5-0.1-0.9-0.4-1.3
				c-0.3-0.3-0.7-0.5-1.2-0.5c-0.7,0-1.2,0.2-1.6,0.5c-0.3,0.4-0.5,0.9-0.5,1.5h-1.3l0,0c0-0.9,0.3-1.6,0.9-2.2
				c0.6-0.6,1.5-0.9,2.5-0.9c0.9,0,1.7,0.3,2.2,0.8s0.8,1.2,0.8,2.1c0,0.6-0.2,1.1-0.5,1.7c-0.3,0.6-0.8,1.2-1.4,1.8l-2.7,2.9l0,0
				h4.9V302.3z"/>
		</g>
	</g>
	<g>
		<g>
			<path fill="#8A909D" d="M336.7,302.3H330v-1l3.4-3.7c0.6-0.7,1-1.2,1.2-1.6c0.2-0.4,0.3-0.8,0.3-1.2c0-0.5-0.1-0.9-0.4-1.3
				c-0.3-0.3-0.7-0.5-1.2-0.5c-0.7,0-1.2,0.2-1.6,0.5c-0.3,0.4-0.5,0.9-0.5,1.5h-1.3l0,0c0-0.9,0.3-1.6,0.9-2.2
				c0.6-0.6,1.5-0.9,2.5-0.9c0.9,0,1.7,0.3,2.2,0.8s0.8,1.2,0.8,2.1c0,0.6-0.2,1.1-0.5,1.7c-0.3,0.6-0.8,1.2-1.4,1.8l-2.7,2.9l0,0
				h4.9V302.3z"/>
			<path fill="#8A909D" d="M343.7,298.9h1.4v1.1h-1.4v2.4h-1.4V300h-4.6v-0.8l4.5-7.1h1.5V298.9z M339.2,298.9h3.1v-4.8l0,0
				l-0.1,0.4L339.2,298.9z"/>
			<path fill="#8A909D" d="M352.9,302.3h-6.6v-1l3.4-3.7c0.6-0.7,1-1.2,1.2-1.6c0.2-0.4,0.3-0.8,0.3-1.2c0-0.5-0.1-0.9-0.4-1.3
				c-0.3-0.3-0.7-0.5-1.2-0.5c-0.7,0-1.2,0.2-1.6,0.5c-0.3,0.4-0.5,0.9-0.5,1.5h-1.3l0,0c0-0.9,0.3-1.6,0.9-2.2
				c0.6-0.6,1.5-0.9,2.5-0.9c0.9,0,1.7,0.3,2.2,0.8c0.5,0.5,0.8,1.2,0.8,2.1c0,0.6-0.2,1.1-0.5,1.7c-0.3,0.6-0.8,1.2-1.4,1.8
				l-2.7,2.9l0,0h4.9V302.3z"/>
			<path fill="#8A909D" d="M363.9,299.8c0-0.5-0.2-0.9-0.5-1.2c-0.4-0.3-1-0.6-1.9-0.8c-1.1-0.3-1.9-0.6-2.5-1.1
				c-0.6-0.5-0.9-1.1-0.9-1.9c0-0.8,0.3-1.5,1-2c0.7-0.5,1.5-0.8,2.5-0.8c1.1,0,2,0.3,2.7,0.9c0.7,0.6,1,1.3,1,2.1l0,0h-1.3
				c0-0.6-0.2-1.1-0.6-1.5c-0.4-0.4-1-0.6-1.7-0.6c-0.7,0-1.2,0.2-1.6,0.5c-0.4,0.3-0.6,0.7-0.6,1.2c0,0.4,0.2,0.8,0.6,1.1
				c0.4,0.3,1,0.6,1.9,0.8c1.1,0.3,1.9,0.7,2.5,1.2s0.8,1.2,0.8,1.9c0,0.8-0.3,1.5-1,2c-0.7,0.5-1.6,0.8-2.6,0.8
				c-1,0-1.9-0.3-2.7-0.8c-0.8-0.6-1.2-1.3-1.1-2.2l0,0h1.3c0,0.7,0.2,1.2,0.7,1.5c0.5,0.3,1.1,0.5,1.8,0.5c0.7,0,1.3-0.1,1.7-0.4
				C363.7,300.7,363.9,300.3,363.9,299.8z"/>
			<path fill="#8A909D" d="M368.5,295.7c0.3-0.4,0.6-0.6,1-0.9c0.4-0.2,0.8-0.3,1.3-0.3c0.8,0,1.4,0.2,1.9,0.7
				c0.5,0.5,0.7,1.2,0.7,2.3v4.8h-1.4v-4.8c0-0.6-0.1-1.1-0.4-1.4c-0.3-0.3-0.7-0.5-1.2-0.5c-0.4,0-0.7,0.1-1,0.3s-0.6,0.4-0.8,0.7
				v5.6h-1.4v-11h1.4V295.7z"/>
			<path fill="#8A909D" d="M380,302.3c0-0.2-0.1-0.4-0.1-0.6c0-0.2,0-0.4,0-0.5c-0.3,0.4-0.6,0.7-1,0.9c-0.4,0.2-0.9,0.4-1.3,0.4
				c-0.8,0-1.4-0.2-1.8-0.6c-0.4-0.4-0.6-1-0.6-1.7c0-0.7,0.3-1.3,0.9-1.7c0.6-0.4,1.4-0.6,2.4-0.6h1.5v-0.8c0-0.4-0.1-0.8-0.4-1.1
				c-0.3-0.3-0.7-0.4-1.2-0.4c-0.4,0-0.8,0.1-1.1,0.3c-0.3,0.2-0.4,0.5-0.4,0.8h-1.3l0,0c0-0.6,0.2-1.1,0.8-1.5s1.3-0.7,2.1-0.7
				c0.9,0,1.6,0.2,2.1,0.7c0.5,0.4,0.8,1.1,0.8,1.9v3.7c0,0.3,0,0.5,0,0.8s0.1,0.5,0.2,0.7H380z M377.7,301.3c0.5,0,1-0.1,1.4-0.4
				c0.4-0.3,0.7-0.6,0.8-0.9v-1.2h-1.6c-0.6,0-1,0.1-1.3,0.4c-0.3,0.3-0.5,0.6-0.5,1c0,0.3,0.1,0.6,0.3,0.8
				C376.9,301.2,377.2,301.3,377.7,301.3z"/>
			<path fill="#8A909D" d="M386.8,296l-0.7,0c-0.4,0-0.7,0.1-0.9,0.3c-0.3,0.2-0.4,0.4-0.6,0.7v5.4h-1.4v-7.6h1.2l0.1,1.1
				c0.2-0.4,0.5-0.7,0.8-0.9c0.3-0.2,0.7-0.3,1.1-0.3c0.1,0,0.2,0,0.3,0c0.1,0,0.2,0,0.2,0.1L386.8,296z"/>
			<path fill="#8A909D" d="M391.2,302.5c-1.1,0-1.9-0.4-2.5-1.1c-0.6-0.7-0.9-1.6-0.9-2.7v-0.3c0-1.1,0.3-2,1-2.7
				c0.6-0.7,1.4-1.1,2.3-1.1c1,0,1.8,0.3,2.3,0.9c0.5,0.6,0.8,1.4,0.8,2.5v0.9h-4.9l0,0c0,0.7,0.2,1.3,0.6,1.8
				c0.4,0.5,0.9,0.7,1.5,0.7c0.5,0,0.9-0.1,1.2-0.2c0.4-0.1,0.7-0.3,0.9-0.6l0.5,0.9c-0.3,0.3-0.6,0.5-1.1,0.7
				C392.3,302.4,391.8,302.5,391.2,302.5z M391,295.7c-0.5,0-0.9,0.2-1.2,0.6c-0.3,0.4-0.5,0.9-0.6,1.5l0,0h3.5v-0.2
				c0-0.5-0.1-1-0.4-1.4C392,295.9,391.5,295.7,391,295.7z"/>
			<path fill="#8A909D" d="M400,300.3c0-0.3-0.1-0.6-0.3-0.8c-0.2-0.2-0.7-0.4-1.3-0.5c-0.9-0.2-1.6-0.5-2.1-0.8
				c-0.5-0.3-0.7-0.8-0.7-1.4c0-0.6,0.3-1.1,0.8-1.6c0.5-0.4,1.2-0.7,2.1-0.7c0.9,0,1.6,0.2,2.1,0.7c0.5,0.5,0.8,1,0.7,1.7l0,0H400
				c0-0.3-0.1-0.6-0.4-0.9c-0.3-0.3-0.6-0.4-1.1-0.4c-0.5,0-0.9,0.1-1.1,0.3c-0.2,0.2-0.4,0.5-0.4,0.8c0,0.3,0.1,0.5,0.3,0.7
				c0.2,0.2,0.6,0.3,1.3,0.5c1,0.2,1.7,0.5,2.1,0.8c0.5,0.4,0.7,0.8,0.7,1.4c0,0.7-0.3,1.2-0.8,1.6s-1.3,0.6-2.1,0.6
				c-1,0-1.7-0.2-2.3-0.7c-0.6-0.5-0.8-1.1-0.8-1.7l0,0h1.3c0,0.5,0.2,0.8,0.6,1.1c0.3,0.2,0.7,0.3,1.2,0.3c0.5,0,0.9-0.1,1.2-0.3
				C399.9,300.9,400,300.6,400,300.3z"/>
		</g>
	</g>
	<g>
		<path d="M86.6,159.3c0-0.5-0.2-0.9-0.5-1.2c-0.4-0.3-1-0.6-1.9-0.9c-1.5-0.4-2.7-1-3.5-1.6c-0.8-0.6-1.2-1.4-1.2-2.5
			c0-1.1,0.5-1.9,1.4-2.6c0.9-0.7,2.1-1,3.5-1c1.4,0,2.6,0.4,3.5,1.1c0.9,0.8,1.3,1.7,1.3,2.8l0,0.1h-2.5c0-0.6-0.2-1.1-0.6-1.5
			c-0.4-0.4-1-0.6-1.7-0.6c-0.7,0-1.2,0.2-1.6,0.5c-0.4,0.3-0.6,0.7-0.6,1.2c0,0.4,0.2,0.8,0.6,1.1s1.1,0.6,2.1,0.9
			c1.4,0.4,2.5,0.9,3.2,1.6c0.7,0.7,1.1,1.5,1.1,2.6c0,1.1-0.4,2-1.3,2.6c-0.9,0.6-2,1-3.5,1c-1.4,0-2.6-0.4-3.7-1.1
			c-1-0.7-1.6-1.7-1.5-3.1l0-0.1h2.5c0,0.8,0.2,1.3,0.7,1.7c0.5,0.4,1.1,0.5,2,0.5c0.7,0,1.2-0.1,1.6-0.4
			C86.4,160.2,86.6,159.8,86.6,159.3z"/>
		<path d="M97.3,162.7c-0.1-0.2-0.2-0.5-0.2-0.7c-0.1-0.2-0.1-0.5-0.1-0.7c-0.3,0.5-0.6,0.9-1.1,1.2c-0.4,0.3-1,0.5-1.6,0.5
			c-1,0-1.8-0.3-2.3-0.8c-0.5-0.5-0.8-1.2-0.8-2.1c0-0.9,0.4-1.7,1.1-2.2c0.7-0.5,1.8-0.8,3.2-0.8h1.4v-0.8c0-0.5-0.1-0.8-0.4-1.1
			c-0.2-0.3-0.6-0.4-1.1-0.4c-0.4,0-0.7,0.1-1,0.3c-0.2,0.2-0.3,0.5-0.3,0.8l-2.5,0l0-0.1c0-0.8,0.3-1.5,1.1-2.1s1.7-0.9,2.9-0.9
			c1.1,0,2.1,0.3,2.8,0.9c0.7,0.6,1.1,1.4,1.1,2.5v4c0,0.5,0,0.9,0.1,1.3c0.1,0.4,0.2,0.8,0.3,1.2H97.3z M94.9,161
			c0.5,0,0.9-0.1,1.2-0.3c0.4-0.2,0.6-0.5,0.7-0.8v-1.4h-1.4c-0.6,0-1,0.1-1.3,0.4c-0.3,0.3-0.4,0.6-0.4,1c0,0.3,0.1,0.6,0.3,0.8
			C94.3,160.9,94.6,161,94.9,161z"/>
		<path d="M102.8,162.7v-7.8h-1.4v-1.8h1.4V152c0-1.1,0.3-1.9,0.9-2.5c0.6-0.6,1.5-0.9,2.6-0.9c0.2,0,0.4,0,0.7,0
			c0.2,0,0.5,0.1,0.8,0.1l-0.2,1.9c-0.1,0-0.3,0-0.4-0.1c-0.1,0-0.3,0-0.5,0c-0.4,0-0.7,0.1-1,0.3c-0.2,0.2-0.3,0.6-0.3,1v1.1h1.9
			v1.8h-1.9v7.8H102.8z"/>
		<path d="M113.6,162.9c-1.4,0-2.5-0.4-3.3-1.3c-0.8-0.9-1.2-2-1.2-3.4v-0.4c0-1.4,0.4-2.6,1.2-3.5c0.8-0.9,1.8-1.4,3.2-1.4
			c1.3,0,2.3,0.4,3,1.2c0.7,0.8,1.1,1.8,1.1,3.2v1.4h-5.7l0,0.1c0,0.6,0.3,1.2,0.6,1.6c0.4,0.4,0.9,0.6,1.5,0.6
			c0.6,0,1.1-0.1,1.4-0.2c0.4-0.1,0.8-0.3,1.2-0.5l0.7,1.6c-0.4,0.3-0.9,0.6-1.5,0.8C115.1,162.8,114.4,162.9,113.6,162.9z
			 M113.4,154.9c-0.5,0-0.9,0.2-1.1,0.6c-0.3,0.4-0.5,0.8-0.5,1.4l0,0h3.2v-0.2c0-0.6-0.1-1-0.4-1.3
			C114.3,155.1,113.9,154.9,113.4,154.9z"/>
		<path d="M124.8,155.3l-1,0c-0.4,0-0.7,0.1-1,0.2c-0.2,0.2-0.4,0.4-0.6,0.7v6.5h-2.6v-9.6h2.4l0.1,1.4c0.2-0.5,0.5-0.9,0.9-1.2
			c0.4-0.3,0.8-0.4,1.2-0.4c0.1,0,0.3,0,0.4,0c0.1,0,0.2,0,0.3,0.1L124.8,155.3z"/>
		<path d="M134.9,158v4.7h-2.6v-12.9h5.2c1.5,0,2.7,0.4,3.5,1.1c0.9,0.8,1.3,1.8,1.3,3c0,1.2-0.4,2.2-1.3,3c-0.9,0.8-2,1.1-3.5,1.1
			H134.9z M134.9,156h2.6c0.7,0,1.3-0.2,1.6-0.6c0.4-0.4,0.6-0.9,0.6-1.5c0-0.6-0.2-1.1-0.6-1.5c-0.4-0.4-0.9-0.6-1.6-0.6h-2.6V156z
			"/>
		<path d="M144.1,157.8c0-1.4,0.4-2.6,1.2-3.5c0.8-0.9,1.9-1.4,3.3-1.4c1.4,0,2.5,0.5,3.3,1.4c0.8,0.9,1.2,2.1,1.2,3.5v0.2
			c0,1.4-0.4,2.6-1.2,3.5c-0.8,0.9-1.9,1.4-3.3,1.4c-1.4,0-2.5-0.5-3.3-1.4c-0.8-0.9-1.2-2.1-1.2-3.5V157.8z M146.7,158
			c0,0.9,0.2,1.6,0.5,2.1c0.3,0.5,0.8,0.8,1.5,0.8c0.7,0,1.2-0.3,1.5-0.8c0.3-0.5,0.5-1.2,0.5-2.1v-0.2c0-0.9-0.2-1.5-0.5-2.1
			c-0.3-0.5-0.8-0.8-1.5-0.8c-0.7,0-1.2,0.3-1.5,0.8c-0.3,0.5-0.5,1.2-0.5,2.1V158z"/>
		<path d="M160.7,160.1c0-0.3-0.1-0.5-0.4-0.7c-0.3-0.2-0.8-0.4-1.5-0.6c-1.1-0.2-2-0.6-2.6-1c-0.6-0.5-0.9-1.1-0.9-1.9
			c0-0.8,0.3-1.5,1-2.1c0.7-0.6,1.6-0.9,2.8-0.9c1.2,0,2.2,0.3,2.9,0.9c0.7,0.6,1.1,1.3,1,2.2l0,0.1h-2.5c0-0.4-0.1-0.7-0.4-0.9
			c-0.2-0.2-0.6-0.4-1.1-0.4c-0.4,0-0.8,0.1-1,0.3c-0.2,0.2-0.4,0.5-0.4,0.8c0,0.3,0.1,0.5,0.4,0.7c0.3,0.2,0.8,0.4,1.5,0.5
			c1.2,0.2,2.1,0.6,2.6,1c0.6,0.5,0.9,1.1,0.9,1.9c0,0.9-0.4,1.6-1.1,2.1c-0.7,0.5-1.7,0.8-2.9,0.8c-1.3,0-2.3-0.3-3-1
			c-0.7-0.6-1.1-1.4-1.1-2.2l0-0.1h2.4c0,0.5,0.2,0.9,0.5,1.1c0.3,0.2,0.7,0.3,1.3,0.3c0.5,0,0.8-0.1,1.1-0.3
			C160.6,160.6,160.7,160.4,160.7,160.1z"/>
		<path d="M168.7,150.7v2.4h1.6v1.8h-1.6v4.9c0,0.4,0.1,0.6,0.2,0.8c0.2,0.2,0.4,0.2,0.6,0.2c0.1,0,0.3,0,0.4,0c0.1,0,0.2,0,0.3-0.1
			l0.2,1.9c-0.3,0.1-0.5,0.2-0.8,0.2c-0.2,0-0.5,0.1-0.8,0.1c-0.9,0-1.6-0.2-2.1-0.7c-0.5-0.5-0.7-1.3-0.7-2.3v-4.9h-1.4v-1.8h1.4
			v-2.4H168.7z"/>
	</g>
	<g>
		<rect x="14.3" y="144.8" fill="#3C5A99" width="54.4" height="53.8"/>
		<g>
			<circle fill="#FFFFFF" stroke="#3C5A99" stroke-miterlimit="10" cx="41.5" cy="171.6" r="22.3"/>
			<path fill="#3C5A99" d="M41.3,152.8c-10.4,0-18.9,8.5-18.9,18.9c0,10.4,8.5,18.9,18.9,18.9s18.9-8.5,18.9-18.9
				C60.2,161.3,51.7,152.8,41.3,152.8z M41.3,153.4c10.1,0,18.3,8.2,18.3,18.3c0,4.7-1.8,8.9-4.7,12.2l-7.7-3c0,0-1.5-0.6-1.6-2.1
				c0-0.2-0.1-0.3-0.3-0.3h-0.8c0.6-0.7,1.4-1.7,1.4-2.2c0-0.5,0.1-1.2,0.1-1.4c0-0.1,0.1-0.2,0.2-0.1c0.1,0,0.2,0,0.3-0.1
				c0.1-0.1,1.8-1.7,1.2-4c0-0.1-0.1-0.3-0.2-0.4c-0.1-0.1-0.3-0.2-0.6-0.1c0-0.3,0.1-0.8,0.3-1.5c0.4-1.1,0.6-3.1,0-3.7
				c-0.1-0.1-0.3-0.3-0.5-0.5c-0.5-0.6-1.1-1.3-2-2c-1.3-0.9-2.5-1.3-4.5-1.3c-1.9,0-2.4,0.4-2.9,1.1c-0.4,0.2-2.4,1.5-2.7,2.6
				c-0.3,1.1,0.7,4.5,0.9,5.2c0,0.1-0.1,0.2-0.1,0.2c-0.5,0.1-0.7,0.2-0.8,0.7c-0.1,0.5-0.1,1.4,0,1.8c0.1,0.5,0.5,1.7,1.4,2.1
				c0.1,0,0.2,0.2,0.2,0.3c0,0.8,0,1.4,0.2,1.6c0.1,0.2,0.9,1.3,1.2,1.8h-0.7c-0.1,0-0.2,0-0.2,0.1c-0.1,0.1-0.1,0.1-0.1,0.2
				c0,0.3,0,1-0.4,1.2c-0.5,0.3-5.8,2.3-8.8,3.5c-2.8-3.2-4.5-7.4-4.5-12C23,161.6,31.2,153.4,41.3,153.4z M41.3,190
				c-5.3,0-10.1-2.3-13.4-5.9c1.7-0.7,8-3.1,8.6-3.4c0.6-0.3,0.7-1.1,0.7-1.5h1c0.1,0,0.2-0.1,0.3-0.2c0-0.1,0-0.2,0-0.3l-0.1-0.2
				c-0.1-0.1-1.3-1.8-1.4-2c0-0.1-0.1-0.3-0.1-1.3c0-0.5-0.5-0.8-0.6-0.9c0,0,0,0,0,0c-0.6-0.2-1-1.2-1.1-1.6
				c-0.1-0.5-0.1-1.2,0-1.5c0.1-0.3,0.1-0.3,0.3-0.3c0.6-0.1,0.7-0.7,0.7-0.8c0,0,0-0.1,0-0.1c-0.3-1.1-1.1-4.1-0.9-5
				c0.2-0.8,1.8-1.9,2.4-2.3c0,0,0.1,0,0.1-0.1l0,0c0.4-0.5,0.7-0.9,2.5-0.9c1.9,0,3,0.3,4.2,1.1c0.9,0.6,1.5,1.4,1.9,1.9
				c0.2,0.2,0.3,0.4,0.5,0.5c0.3,0.3,0.3,1.9-0.1,3.1c-0.4,1.2-0.4,2-0.4,2.1c0,0.1,0,0.2,0.1,0.2c0.1,0.1,0.2,0.1,0.2,0.1
				c0.3-0.1,0.4,0,0.4,0c0,0,0,0,0,0c0.4,1.7-0.6,3-1,3.3c-0.3,0-0.6,0.2-0.8,0.5c0,0,0,0.1,0,0.1c0,0-0.1,1-0.1,1.6
				c0,0.3-0.8,1.3-1.7,2.3c-0.1,0.1-0.1,0.2-0.1,0.3c0,0.1,0.2,0.2,0.3,0.2H45c0.3,1.7,1.9,2.3,1.9,2.4l7.5,2.9
				C51.1,187.9,46.4,190,41.3,190z"/>
		</g>
	</g>
	<rect x="0.3" y="326.1" fill="#EEF1F4" width="419.1" height="48.1"/>
	<g>
		<line fill="none" stroke="#D2D2D2" stroke-width="0.5" stroke-miterlimit="10" x1="140.9" y1="364" x2="140.9" y2="335.5"/>
		<line fill="none" stroke="#D2D2D2" stroke-width="0.5" stroke-miterlimit="10" x1="279.3" y1="364" x2="279.3" y2="335.5"/>
		<g>
			<path fill="#5E5F60" d="M198.6,349.7L198.6,349.7c0,1.1-0.3,2-1.1,2.7s-1.8,1.1-3,1.1c-1.3,0-2.3-0.4-3.1-1.3
				c-0.8-0.9-1.2-2-1.2-3.4v-2c0-1.4,0.4-2.5,1.2-3.4c0.8-0.9,1.8-1.3,3.1-1.3s2.3,0.3,3,1c0.7,0.7,1.1,1.6,1.1,2.7l0,0h-1.5
				c0-0.8-0.2-1.4-0.7-1.9s-1.1-0.7-1.9-0.7c-0.8,0-1.5,0.3-2,1c-0.5,0.7-0.8,1.5-0.8,2.5v2c0,1,0.3,1.9,0.8,2.5c0.5,0.7,1.2,1,2,1
				c0.8,0,1.5-0.2,1.9-0.7c0.5-0.5,0.7-1.1,0.7-1.9H198.6z"/>
			<path fill="#5E5F60" d="M200,349.1c0-1.2,0.3-2.2,1-3c0.7-0.8,1.6-1.2,2.7-1.2c1.2,0,2.1,0.4,2.7,1.2c0.7,0.8,1,1.8,1,3v0.2
				c0,1.2-0.3,2.3-1,3c-0.7,0.8-1.6,1.2-2.7,1.2c-1.1,0-2.1-0.4-2.7-1.2s-1-1.8-1-3V349.1z M201.5,349.2c0,0.9,0.2,1.6,0.6,2.2
				c0.4,0.6,0.9,0.9,1.7,0.9c0.7,0,1.3-0.3,1.6-0.9c0.4-0.6,0.6-1.3,0.6-2.2v-0.2c0-0.9-0.2-1.6-0.6-2.2c-0.4-0.6-0.9-0.9-1.7-0.9
				c-0.7,0-1.3,0.3-1.6,0.9c-0.4,0.6-0.6,1.3-0.6,2.2V349.2z"/>
			<path fill="#5E5F60" d="M210.7,345l0.1,1.1c0.3-0.4,0.6-0.7,1-0.9c0.4-0.2,0.9-0.3,1.5-0.3s1,0.1,1.4,0.4
				c0.4,0.3,0.7,0.6,0.9,1.2c0.3-0.5,0.6-0.8,1-1.1c0.4-0.3,0.9-0.4,1.5-0.4c0.8,0,1.5,0.3,2,0.9s0.7,1.5,0.7,2.6v5h-1.5v-5
				c0-0.8-0.1-1.4-0.4-1.7s-0.7-0.5-1.3-0.5c-0.5,0-0.9,0.2-1.3,0.5c-0.3,0.4-0.5,0.8-0.6,1.4v0.1v5.3h-1.5v-5
				c0-0.8-0.1-1.3-0.4-1.7c-0.3-0.4-0.7-0.5-1.2-0.5c-0.5,0-0.8,0.1-1.1,0.3c-0.3,0.2-0.5,0.5-0.7,0.8v6.1h-1.5V345H210.7z"/>
			<path fill="#5E5F60" d="M224.4,345l0.1,1.1c0.3-0.4,0.6-0.7,1-0.9c0.4-0.2,0.9-0.3,1.5-0.3c0.6,0,1,0.1,1.4,0.4
				c0.4,0.3,0.7,0.6,0.9,1.2c0.3-0.5,0.6-0.8,1-1.1c0.4-0.3,0.9-0.4,1.5-0.4c0.8,0,1.5,0.3,2,0.9s0.7,1.5,0.7,2.6v5h-1.5v-5
				c0-0.8-0.1-1.4-0.4-1.7s-0.7-0.5-1.3-0.5c-0.5,0-0.9,0.2-1.3,0.5c-0.3,0.4-0.5,0.8-0.6,1.4v0.1v5.3h-1.5v-5
				c0-0.8-0.1-1.3-0.4-1.7c-0.3-0.4-0.7-0.5-1.2-0.5c-0.5,0-0.8,0.1-1.1,0.3c-0.3,0.2-0.5,0.5-0.7,0.8v6.1H223V345H224.4z"/>
			<path fill="#5E5F60" d="M240.2,353.4c-1.2,0-2.1-0.4-2.8-1.2s-1-1.8-1-3V349c0-1.2,0.4-2.2,1.1-3c0.7-0.8,1.5-1.2,2.5-1.2
				c1.1,0,2,0.3,2.5,1c0.6,0.7,0.9,1.6,0.9,2.7v0.9H238l0,0c0,0.8,0.2,1.5,0.6,2c0.4,0.5,0.9,0.8,1.6,0.8c0.5,0,1-0.1,1.3-0.2
				s0.7-0.3,1-0.6l0.6,1c-0.3,0.3-0.7,0.5-1.2,0.7C241.5,353.3,240.9,353.4,240.2,353.4z M240,346c-0.5,0-0.9,0.2-1.3,0.6
				c-0.4,0.4-0.6,1-0.7,1.6l0,0h3.8v-0.2c0-0.6-0.2-1.1-0.5-1.5C241.1,346.2,240.6,346,240,346z"/>
			<path fill="#5E5F60" d="M246.4,345l0.1,1.2c0.3-0.4,0.6-0.8,1-1c0.4-0.2,0.9-0.4,1.4-0.4c0.9,0,1.6,0.3,2.1,0.8
				c0.5,0.5,0.7,1.3,0.7,2.4v5.2h-1.5v-5.2c0-0.7-0.1-1.3-0.4-1.6c-0.3-0.3-0.7-0.5-1.3-0.5c-0.4,0-0.8,0.1-1.2,0.3
				c-0.3,0.2-0.6,0.5-0.8,0.9v6.1h-1.5V345H246.4z"/>
			<path fill="#5E5F60" d="M256,343v2h1.6v1.1H256v5c0,0.4,0.1,0.7,0.2,0.8s0.4,0.2,0.6,0.2c0.1,0,0.2,0,0.3,0s0.2,0,0.3-0.1l0.2,1
				c-0.1,0.1-0.3,0.2-0.5,0.2c-0.2,0.1-0.4,0.1-0.7,0.1c-0.6,0-1.1-0.2-1.5-0.6s-0.5-1-0.5-1.7v-5h-1.3V345h1.3v-2H256z"/>
		</g>
		<g>
			<path fill="#5E5F60" d="M347.9,350.5c0-0.5-0.2-0.9-0.6-1.3c-0.4-0.3-1.1-0.6-2-0.9c-1.2-0.3-2.1-0.7-2.8-1.2
				c-0.7-0.5-1-1.2-1-2.1c0-0.9,0.4-1.6,1.1-2.2c0.7-0.6,1.6-0.9,2.8-0.9c1.2,0,2.2,0.3,2.9,1c0.7,0.7,1.1,1.4,1,2.3l0,0h-1.4
				c0-0.7-0.2-1.2-0.6-1.6s-1.1-0.6-1.9-0.6c-0.8,0-1.3,0.2-1.7,0.5c-0.4,0.3-0.6,0.8-0.6,1.3c0,0.5,0.2,0.9,0.7,1.2
				s1.1,0.6,2.1,0.9c1.2,0.3,2.1,0.7,2.7,1.3c0.6,0.6,0.9,1.3,0.9,2.1c0,0.9-0.4,1.6-1.1,2.2c-0.7,0.5-1.7,0.8-2.9,0.8
				c-1.1,0-2.1-0.3-3-0.9c-0.9-0.6-1.3-1.4-1.2-2.4l0,0h1.4c0,0.7,0.3,1.3,0.8,1.6c0.5,0.4,1.2,0.6,2,0.6c0.8,0,1.4-0.2,1.8-0.5
				C347.6,351.5,347.9,351,347.9,350.5z"/>
			<path fill="#5E5F60" d="M352.8,346.1c0.3-0.4,0.6-0.7,1.1-0.9s0.9-0.3,1.4-0.3c0.9,0,1.6,0.3,2.1,0.8c0.5,0.5,0.7,1.4,0.7,2.5
				v5.2h-1.5v-5.2c0-0.7-0.1-1.2-0.4-1.5s-0.7-0.5-1.3-0.5c-0.4,0-0.8,0.1-1.1,0.3s-0.6,0.5-0.8,0.8v6.1h-1.5v-12h1.5V346.1z"/>
			<path fill="#5E5F60" d="M365.3,353.3c-0.1-0.3-0.1-0.5-0.1-0.7s0-0.4,0-0.6c-0.3,0.4-0.6,0.7-1.1,1c-0.5,0.3-0.9,0.4-1.5,0.4
				c-0.9,0-1.5-0.2-2-0.7c-0.5-0.4-0.7-1.1-0.7-1.8c0-0.8,0.3-1.4,1-1.9c0.6-0.4,1.5-0.7,2.6-0.7h1.6v-0.8c0-0.5-0.1-0.9-0.4-1.2
				c-0.3-0.3-0.7-0.4-1.3-0.4c-0.5,0-0.9,0.1-1.2,0.4c-0.3,0.2-0.5,0.5-0.5,0.9h-1.4l0,0c0-0.6,0.3-1.2,0.9-1.7
				c0.6-0.5,1.4-0.8,2.3-0.8c0.9,0,1.7,0.2,2.3,0.7c0.6,0.5,0.9,1.2,0.9,2.1v4c0,0.3,0,0.6,0,0.9s0.1,0.5,0.2,0.8H365.3z
				 M362.8,352.2c0.5,0,1-0.1,1.5-0.4c0.4-0.3,0.7-0.6,0.9-1v-1.3h-1.7c-0.6,0-1.1,0.2-1.5,0.5s-0.5,0.7-0.5,1.1
				c0,0.4,0.1,0.7,0.3,0.9C362,352.1,362.4,352.2,362.8,352.2z"/>
			<path fill="#5E5F60" d="M372.8,346.3l-0.8,0c-0.4,0-0.7,0.1-1,0.3c-0.3,0.2-0.5,0.5-0.6,0.8v5.9h-1.5V345h1.4l0.1,1.2
				c0.2-0.4,0.5-0.8,0.9-1c0.3-0.2,0.7-0.4,1.2-0.4c0.1,0,0.2,0,0.3,0c0.1,0,0.2,0,0.3,0.1L372.8,346.3z"/>
			<path fill="#5E5F60" d="M377.5,353.4c-1.2,0-2.1-0.4-2.8-1.2s-1-1.8-1-3V349c0-1.2,0.4-2.2,1.1-3s1.5-1.2,2.5-1.2
				c1.1,0,2,0.3,2.5,1c0.6,0.7,0.9,1.6,0.9,2.7v0.9h-5.4l0,0c0,0.8,0.2,1.5,0.6,2c0.4,0.5,0.9,0.8,1.6,0.8c0.5,0,1-0.1,1.3-0.2
				s0.7-0.3,1-0.6l0.6,1c-0.3,0.3-0.7,0.5-1.2,0.7C378.8,353.3,378.2,353.4,377.5,353.4z M377.3,346c-0.5,0-0.9,0.2-1.3,0.6
				c-0.4,0.4-0.6,1-0.7,1.6l0,0h3.8v-0.2c0-0.6-0.2-1.1-0.5-1.5C378.4,346.2,377.9,346,377.3,346z"/>
		</g>
		<g>
			<path fill="#5E5F60" d="M73.5,352.1h5.3v1.2h-6.8v-11.2h1.5V352.1z"/>
			<path fill="#5E5F60" d="M81.8,342.9h-1.5v-1.5h1.5V342.9z M81.8,353.3h-1.5V345h1.5V353.3z"/>
			<path fill="#5E5F60" d="M86.6,349.4h-1v3.8h-1.5v-12h1.5v6.9h1l2.3-3.3h1.8l-2.8,3.8l3.2,4.5h-1.8L86.6,349.4z"/>
			<path fill="#5E5F60" d="M95.5,353.4c-1.2,0-2.1-0.4-2.8-1.2s-1-1.8-1-3V349c0-1.2,0.4-2.2,1.1-3c0.7-0.8,1.5-1.2,2.5-1.2
				c1.1,0,2,0.3,2.5,1c0.6,0.7,0.9,1.6,0.9,2.7v0.9h-5.4l0,0c0,0.8,0.2,1.5,0.6,2c0.4,0.5,0.9,0.8,1.6,0.8c0.5,0,1-0.1,1.3-0.2
				s0.7-0.3,1-0.6l0.6,1c-0.3,0.3-0.7,0.5-1.2,0.7C96.7,353.3,96.2,353.4,95.5,353.4z M95.2,346c-0.5,0-0.9,0.2-1.3,0.6
				c-0.4,0.4-0.6,1-0.7,1.6l0,0h3.8v-0.2c0-0.6-0.2-1.1-0.5-1.5C96.3,346.2,95.9,346,95.2,346z"/>
		</g>
		<polyline fill="#9A9DA2" points="163.3,353.3 163.3,357.9 168.6,353.3 174.9,353.3 174.9,342.2 160.5,342.2 160.5,353.3 
			163.3,353.3 		"/>
		<path fill="#9A9DA2" d="M311.8,356.6c0,0,0.2-9.8,8.7-10v-4.4l9,7.2l-8.8,7.2v-4.4C320.6,352.2,315.7,349.6,311.8,356.6z"/>
		<g>
			<rect x="41.5" y="347.1" fill="#9A9DA2" width="4.5" height="9.2"/>
			<path fill="#9A9DA2" d="M49.8,341.3c0,0-0.4,4-2.2,4.9v10h7.4c0,0,2.2-1,1.3-4.6c0,0,2.4-1.2,2.3-3.9c-0.1-2.7-6.5-2.1-6.5-2.1
				s1.3-1.6,1-4.4c-0.3-2.7-2.1-2.2-2.1-2.2S49.2,339.5,49.8,341.3z"/>
		</g>
	</g>
	<g>
		<circle fill="#FED971" cx="29.9" cy="298" r="8.8"/>
		<g>
			<ellipse fill="#252C38" cx="29.5" cy="301.9" rx="3.3" ry="3.8"/>
			
				<ellipse transform="matrix(0.9592 0.2828 -0.2828 0.9592 84.6954 4.8463)" fill="#252C38" cx="25.6" cy="295.8" rx="1.5" ry="2.2"/>
			
				<ellipse transform="matrix(-0.9947 0.1026 -0.1026 -0.9947 98.7965 586.5486)" fill="#252C38" cx="34.3" cy="295.8" rx="1.5" ry="2.2"/>
			<g>
				<path fill="#252C38" d="M24.9,292.5l-0.9-0.1c0,0,0.2-1.2,1.2-1.7c0.8-0.4,1.8-0.4,3,0.1l-0.3,0.9c-0.9-0.4-1.7-0.4-2.2-0.1
					C25.1,291.7,24.9,292.4,24.9,292.5z"/>
			</g>
			<g>
				<path fill="#252C38" d="M34.9,292.5l0.9-0.1c0,0-0.2-1.2-1.2-1.7c-0.8-0.4-1.8-0.4-3,0.1l0.3,0.9c0.9-0.4,1.7-0.4,2.2-0.1
					C34.8,291.7,34.9,292.4,34.9,292.5z"/>
			</g>
		</g>
	</g>
	<g>
		<path fill="#FFFFFF" d="M155,85.8v-30h12.9c1.9,0,3.5,0.3,4.8,0.8c1.3,0.6,2.3,1.3,3.2,2.2c0.8,0.9,1.4,1.9,1.7,3s0.5,2.3,0.5,3.4
			c0,0.7-0.1,1.5-0.3,2.2c-0.2,0.7-0.4,1.5-0.8,2.2c-0.3,0.7-0.8,1.4-1.3,2c-0.5,0.6-1.2,1.2-2,1.6c-0.8,0.5-1.6,0.8-2.6,1.1
			c-1,0.3-2.1,0.4-3.3,0.4h-7.1v11H155z M168.1,69.3c0.7,0,1.4-0.1,1.9-0.4c0.5-0.2,0.9-0.5,1.2-0.9c0.3-0.4,0.5-0.8,0.7-1.3
			c0.1-0.5,0.2-0.9,0.2-1.4c0-0.4-0.1-0.9-0.2-1.3c-0.1-0.5-0.3-0.9-0.6-1.3c-0.3-0.4-0.7-0.7-1.2-1c-0.5-0.3-1.2-0.4-1.9-0.4h-7.3
			v7.9H168.1z"/>
		<path fill="#FFFFFF" d="M195.8,86.4c-1.6,0-3.1-0.2-4.3-0.6c-1.3-0.4-2.4-1-3.4-1.7c-1-0.7-1.8-1.6-2.5-2.6
			c-0.7-1-1.3-2.1-1.7-3.2c-0.4-1.2-0.8-2.3-1-3.6c-0.2-1.2-0.3-2.5-0.3-3.7c0-1.2,0.1-2.5,0.3-3.7c0.2-1.2,0.5-2.4,1-3.6
			c0.4-1.1,1-2.2,1.7-3.2c0.7-1,1.5-1.9,2.5-2.6c1-0.7,2.1-1.3,3.4-1.7c1.3-0.4,2.7-0.6,4.3-0.6c1.6,0,3.1,0.2,4.3,0.6
			c1.3,0.4,2.4,1,3.4,1.7c1,0.7,1.8,1.6,2.5,2.6c0.7,1,1.3,2.1,1.7,3.2c0.4,1.2,0.8,2.3,1,3.6c0.2,1.2,0.3,2.5,0.3,3.7
			c0,1.2-0.1,2.5-0.3,3.7c-0.2,1.2-0.5,2.4-1,3.6c-0.4,1.2-1,2.2-1.7,3.2c-0.7,1-1.5,1.9-2.5,2.6c-1,0.7-2.1,1.3-3.4,1.7
			C198.8,86.2,197.4,86.4,195.8,86.4z M195.8,80.8c1.3,0,2.5-0.3,3.4-0.9c0.9-0.6,1.7-1.4,2.2-2.4c0.6-1,1-2,1.2-3.2
			c0.3-1.2,0.4-2.3,0.4-3.4c0-0.8-0.1-1.5-0.2-2.3c-0.1-0.8-0.3-1.5-0.5-2.3c-0.2-0.7-0.5-1.4-0.9-2.1c-0.4-0.6-0.8-1.2-1.4-1.7
			c-0.5-0.5-1.1-0.9-1.9-1.1c-0.7-0.3-1.5-0.4-2.4-0.4c-0.9,0-1.7,0.1-2.4,0.4c-0.7,0.3-1.3,0.7-1.9,1.2c-0.5,0.5-1,1.1-1.4,1.7
			c-0.4,0.7-0.7,1.4-0.9,2.1c-0.2,0.7-0.4,1.5-0.5,2.3c-0.1,0.8-0.2,1.5-0.2,2.2c0,1.1,0.1,2.3,0.4,3.5c0.3,1.2,0.7,2.2,1.2,3.2
			c0.6,1,1.3,1.7,2.2,2.3C193.3,80.5,194.4,80.8,195.8,80.8z"/>
		<path fill="#FFFFFF" d="M230,64c-0.2-0.4-0.4-0.9-0.7-1.3c-0.3-0.4-0.7-0.7-1.1-1c-0.4-0.3-0.9-0.5-1.5-0.7
			c-0.6-0.2-1.2-0.2-1.8-0.2c-1.3,0-2.2,0.3-2.9,0.8c-0.7,0.5-1.1,1.2-1.1,2.1c0,0.6,0.2,1.1,0.7,1.5c0.4,0.4,1,0.8,1.8,1.1
			c0.7,0.3,1.6,0.6,2.5,0.9c0.9,0.3,1.9,0.6,2.9,1c1,0.4,1.9,0.8,2.9,1.3c0.9,0.5,1.8,1.1,2.5,1.8c0.7,0.7,1.3,1.5,1.8,2.5
			c0.4,1,0.7,2.1,0.7,3.5c0,1.5-0.3,2.8-0.8,3.9c-0.6,1.1-1.3,2.1-2.3,2.9c-1,0.8-2.1,1.4-3.4,1.8c-1.3,0.4-2.8,0.6-4.3,0.6
			c-1.4,0-2.7-0.2-4-0.6c-1.2-0.4-2.3-0.9-3.3-1.6c-1-0.7-1.9-1.6-2.6-2.6c-0.7-1-1.3-2.2-1.8-3.4l5.3-2c0.3,0.7,0.7,1.3,1.2,1.9
			c0.5,0.6,1,1.1,1.5,1.5c0.6,0.4,1.2,0.7,1.8,1c0.6,0.2,1.3,0.3,2.1,0.3c0.7,0,1.4-0.1,2-0.2c0.6-0.2,1.1-0.4,1.5-0.7
			c0.4-0.3,0.8-0.7,1-1.1c0.2-0.5,0.3-1,0.3-1.6c0-0.7-0.2-1.3-0.7-1.8c-0.4-0.5-1-0.9-1.8-1.3c-0.7-0.4-1.6-0.7-2.5-1
			c-0.9-0.3-1.9-0.6-2.8-1c-1-0.3-1.9-0.7-2.8-1.2c-0.9-0.4-1.8-1-2.5-1.7c-0.7-0.7-1.3-1.4-1.8-2.4c-0.4-0.9-0.7-2-0.7-3.3
			c0-1.1,0.2-2.2,0.7-3.2c0.5-1,1.1-1.9,2-2.6c0.9-0.8,1.9-1.3,3.2-1.8c1.3-0.4,2.7-0.7,4.3-0.7c1.4,0,2.6,0.2,3.7,0.5
			c1.1,0.3,2.1,0.8,2.9,1.5c0.8,0.6,1.5,1.4,2.1,2.2c0.6,0.8,1,1.8,1.3,2.8L230,64z"/>
		<path fill="#FFFFFF" d="M255.2,61.4v24.4h-5.8V61.4h-8.6v-5.6h22.9v5.6H255.2z"/>
		<path fill="#FFFFFF" d="M202.4,94.8c0,0-0.8,4.9,0.8,9.5c0,0,0.6,1.1-0.2,1.2h-3.1c0,0-0.7-0.4-0.9-0.7c-0.2-0.4-1.5-3.4-0.8-10
			c0,0,0.4-1.2,1.3-1.2c1,0,2.4,0.1,2.4,0.1S202.8,93.9,202.4,94.8z"/>
		<path fill="#FFFFFF" d="M214.4,90.6c0,0,0.5-1.4,0.8-2.2s1.2-3.3-0.2-5c-1.4-1.6-2.6-1-3-0.2c0,0-0.2,0.9-0.2,1.2s0.4,0.9-0.8,2.4
			c-1.3,1.5-1.1,1.8-2.3,2.8s-2.3,2.4-2.5,3c0,0-0.8,1-1,0.9c-0.2,0-1,0.1-1.5,1.6c-0.4,1.5-0.1,7.4,1.4,9c1.5,1.6,8.8,2.3,10.1,1.9
			c1.3-0.3,3.3-0.7,3.2-2.8c0,0,1.4-1.3,1.5-2.5c0.1-1.2-0.2-1.4-0.2-2.2s1.8-0.9,0.2-3.4c0,0-0.2-0.1-0.1-1.2s-1-1.7-1.7-2.1
			c-0.8-0.4-2.9-0.5-3.5-0.2C214.8,91.8,214.1,92,214.4,90.6z"/>
		<g>
			<polygon fill="#FFFFFF" points="200.2,96.1 142.5,96.1 142.5,38.5 151.9,38.5 151.9,39.5 143.5,39.5 143.5,95.2 200.2,95.2 			
				"/>
		</g>
		<g>
			<polygon fill="#FFFFFF" points="276.6,96.1 219.4,96.1 219.4,95.2 275.7,95.2 275.7,39.5 267.2,39.5 267.2,38.5 276.6,38.5 			
				"/>
		</g>
		<g>
			<path fill="#FFFFFF" d="M166.5,35.4c-0.1-0.4-0.3-0.7-0.6-1c-0.2-0.3-0.5-0.6-0.9-0.8s-0.7-0.4-1.2-0.5c-0.4-0.1-0.9-0.2-1.5-0.2
				c-1,0-1.8,0.2-2.3,0.6c-0.6,0.4-0.8,1-0.8,1.7c0,0.5,0.2,0.9,0.5,1.2c0.4,0.3,0.8,0.6,1.4,0.9c0.6,0.3,1.2,0.5,2,0.7
				c0.7,0.2,1.5,0.5,2.3,0.8s1.5,0.6,2.3,1c0.7,0.4,1.4,0.9,2,1.4c0.6,0.6,1,1.2,1.4,2c0.4,0.8,0.5,1.7,0.5,2.8
				c0,1.2-0.2,2.2-0.7,3.1c-0.4,0.9-1.1,1.7-1.8,2.3c-0.8,0.6-1.7,1.1-2.7,1.4c-1.1,0.3-2.2,0.5-3.4,0.5c-1.1,0-2.2-0.2-3.2-0.5
				s-1.9-0.7-2.7-1.3c-0.8-0.6-1.5-1.3-2.1-2.1c-0.6-0.8-1.1-1.7-1.4-2.7l4.2-1.6c0.3,0.6,0.6,1.1,0.9,1.5c0.4,0.5,0.8,0.9,1.2,1.2
				c0.4,0.3,0.9,0.6,1.4,0.8c0.5,0.2,1.1,0.3,1.7,0.3c0.6,0,1.1-0.1,1.6-0.2c0.5-0.1,0.9-0.3,1.2-0.6s0.6-0.5,0.8-0.9
				s0.3-0.8,0.3-1.3c0-0.6-0.2-1.1-0.5-1.5s-0.8-0.7-1.4-1s-1.2-0.6-2-0.8c-0.7-0.2-1.5-0.5-2.3-0.8c-0.8-0.3-1.5-0.6-2.3-0.9
				s-1.4-0.8-2-1.3c-0.6-0.5-1-1.2-1.4-1.9c-0.4-0.7-0.5-1.6-0.5-2.7c0-0.9,0.2-1.8,0.5-2.5c0.4-0.8,0.9-1.5,1.6-2.1
				c0.7-0.6,1.5-1.1,2.5-1.4s2.1-0.5,3.4-0.5c1.1,0,2.1,0.1,2.9,0.4c0.9,0.3,1.6,0.7,2.3,1.2c0.7,0.5,1.2,1.1,1.7,1.8
				c0.5,0.7,0.8,1.4,1,2.2L166.5,35.4z"/>
			<path fill="#FFFFFF" d="M192.8,52.9l-1.9-5h-9.2l-1.8,5h-5l9.2-24h4.5l9.2,24H192.8z M187.1,37.5c-0.1-0.3-0.3-0.6-0.4-1
				c-0.1-0.4-0.3-0.8-0.4-1.1c-0.1,0.3-0.2,0.7-0.4,1.1c-0.1,0.4-0.3,0.7-0.4,1l-2.4,6.2h6.2L187.1,37.5z"/>
			<path fill="#FFFFFF" d="M202.1,52.9v-24h16.1v4.4h-11.4v5h7.3v4.4h-7.3v10.2H202.1z"/>
			<path fill="#FFFFFF" d="M222.5,52.9v-24h16.4v4.4h-11.7v5h6.9v4.4h-6.9v5.8h12.4v4.4H222.5z"/>
			<path fill="#FFFFFF" d="M244.5,52.9v-24h11.1c1.5,0,2.8,0.2,3.8,0.6c1,0.4,1.8,1,2.5,1.7c0.6,0.7,1.1,1.5,1.3,2.4
				c0.3,0.9,0.4,1.8,0.4,2.8c0,0.7-0.1,1.4-0.3,2.1c-0.2,0.7-0.5,1.4-0.9,2c-0.4,0.6-0.9,1.2-1.5,1.7c-0.6,0.5-1.3,0.9-2,1.2
				l4.6,9.5h-5.2l-4.5-8.9h-4.8v8.9H244.5z M255.7,39.6c0.6,0,1.1-0.1,1.5-0.3c0.4-0.2,0.7-0.4,1-0.7c0.2-0.3,0.4-0.6,0.5-1
				s0.2-0.8,0.2-1.2c0-0.4,0-0.8-0.1-1.1s-0.3-0.7-0.5-1c-0.2-0.3-0.6-0.5-1-0.7c-0.4-0.2-0.9-0.3-1.5-0.3h-6.6v6.2H255.7z"/>
		</g>
	</g>
</g>
</svg>
