<?xml version="1.0" encoding="utf-8"?>
<!-- Generator: Adobe Illustrator 18.0.0, SVG Export Plug-In . SVG Version: 6.00 Build 0)  -->
<!DOCTYPE svg PUBLIC "-//W3C//DTD SVG 1.1//EN" "http://www.w3.org/Graphics/SVG/1.1/DTD/svg11.dtd">
<svg version="1.1" id="Layer_1" xmlns="http://www.w3.org/2000/svg" xmlns:xlink="http://www.w3.org/1999/xlink" x="0px" y="0px"
	 viewBox="1.3 40.4 719.7 639.6" enable-background="new 1.3 40.4 719.7 639.6" xml:space="preserve">
<g>
	<g>
		<g>
			<path fill="#A9B8C6" d="M96.2,217.9c-5.7,0-10.9-0.8-15.5-2.4c-4.6-1.6-8.5-3.8-11.8-6.8c-3.2-2.9-5.7-6.4-7.4-10.5
				c-1.7-4.1-2.6-8.5-2.6-13.4c0-6,1.6-11.2,4.7-15.4c3.1-4.2,7.3-7.6,12.5-10c-1.7-0.9-3.4-2-4.9-3.3c-1.6-1.3-2.9-2.9-4.2-4.7
				c-1.2-1.8-2.2-3.8-2.9-6c-0.7-2.2-1.1-4.7-1.1-7.4c0-4,0.7-7.8,2.3-11.1c1.6-3.4,3.7-6.2,6.5-8.7c2.9-2.5,6.3-4.3,10.4-5.6
				c4.1-1.3,8.7-2,14-2c5.1,0,9.8,0.7,13.9,2c4.1,1.3,7.6,3.2,10.5,5.6c2.9,2.5,5.1,5.3,6.6,8.7c1.6,3.4,2.3,7,2.3,11.1
				c0,2.6-0.3,5-1.1,7.2c-0.7,2.2-1.7,4.2-2.9,6c-1.2,1.8-2.6,3.4-4.2,4.7c-1.6,1.3-3.2,2.5-4.9,3.4c2.6,1.2,5,2.6,7.1,4.3
				c2.1,1.7,3.9,3.6,5.5,5.7c1.6,2.1,2.7,4.5,3.5,7.1c0.8,2.6,1.2,5.4,1.2,8.4c0,4.9-0.9,9.4-2.6,13.4c-1.7,4-4.2,7.5-7.4,10.5
				c-3.3,2.9-7.2,5.1-11.9,6.8C106.9,217.2,101.9,217.9,96.2,217.9z M96.2,199.9c2.5,0,4.9-0.4,7-1.1c2.1-0.7,4-1.9,5.6-3.2
				c1.6-1.4,2.8-3,3.6-4.8c0.9-1.9,1.3-3.8,1.3-6c0-2.3-0.4-4.3-1.3-6.2c-0.9-1.9-2-3.5-3.6-4.9c-1.6-1.4-3.4-2.5-5.6-3.2
				c-2.1-0.7-4.5-1.1-7-1.1c-2.6,0-5,0.4-7.1,1.1s-3.9,1.8-5.5,3.2c-1.5,1.4-2.6,3-3.4,4.9s-1.2,3.9-1.2,6.2c0,2.2,0.4,4.2,1.2,6
				c0.8,1.9,2,3.4,3.4,4.8c1.5,1.4,3.3,2.5,5.5,3.2C91.3,199.5,93.7,199.9,96.2,199.9z M96.2,150.9c2,0,3.8-0.3,5.6-0.9
				c1.6-0.6,3.1-1.4,4.2-2.4s2.1-2.2,2.8-3.6c0.7-1.4,1-2.9,1-4.6c0-1.6-0.3-2.9-1-4.3c-0.7-1.3-1.6-2.5-2.8-3.4
				c-1.1-1-2.6-1.7-4.2-2.3s-3.5-0.8-5.6-0.8c-2,0-3.9,0.2-5.6,0.8c-1.6,0.6-3,1.3-4.2,2.3c-1.1,1-2,2.1-2.6,3.4
				c-0.6,1.3-0.9,2.8-0.9,4.3c0,1.6,0.3,3.2,0.9,4.6s1.5,2.6,2.6,3.6s2.5,1.8,4.2,2.4C92.3,150.6,94.1,150.9,96.2,150.9z"/>
		</g>
		<g>
			<path fill="#A9B8C6" d="M176,217.9c-4.4,0-8.5-0.6-12.3-1.7c-3.8-1.1-7.2-2.8-10.3-4.9c-3.1-2.1-5.8-4.7-8.1-7.7
				c-2.4-3-4.2-6.3-5.8-10.1l18.1-7.3c1.1,2.3,2.5,4.2,3.9,5.9c1.5,1.6,3,2.9,4.7,3.9c1.6,1,3.4,1.7,5.1,2.1
				c1.8,0.4,3.6,0.7,5.4,0.7c2.3,0,4.4-0.3,6.3-0.9c1.9-0.6,3.5-1.5,5-2.6c1.4-1.1,2.5-2.5,3.3-4.2c0.7-1.6,1.1-3.5,1.1-5.6
				c0-2-0.3-3.8-0.9-5.4s-1.6-3.1-2.9-4.3c-1.3-1.2-2.9-2.2-5-2.9s-4.4-1.1-7.2-1.1h-10.1v-19h10.1c3.8,0,6.8-1.1,9-3.1
				c2.3-2,3.4-4.8,3.4-8.4c0-1.6-0.2-3.2-0.8-4.6c-0.6-1.4-1.4-2.6-2.5-3.7c-1.1-1.1-2.4-1.9-4-2.5c-1.6-0.6-3.4-0.9-5.5-0.9
				c-1.8,0-3.5,0.2-5,0.7c-1.5,0.5-2.9,1.1-4.1,2c-1.2,0.8-2.4,1.9-3.4,3c-1,1.1-1.9,2.4-2.6,3.8l-18.1-6.9c1.5-3.2,3.4-6.1,5.5-8.8
				c2.2-2.6,4.7-4.9,7.4-6.8c2.8-1.9,6-3.4,9.3-4.3c3.4-1,7.1-1.6,11.1-1.6c4.8,0,9.2,0.7,13.2,2.2c4,1.5,7.4,3.5,10.2,6
				c2.9,2.5,5.1,5.6,6.6,9.1c1.6,3.5,2.4,7.3,2.4,11.4c0,5-1.1,9.3-3.4,13.2c-2.3,3.8-5.3,6.8-9.2,9c2.2,0.9,4.3,2,6.2,3.6
				c2,1.6,3.7,3.3,5.1,5.3c1.5,2,2.6,4.3,3.4,6.9c0.8,2.5,1.2,5.2,1.2,8.2c0,5.1-0.9,9.7-2.6,13.7c-1.8,4-4.2,7.4-7.4,10.1
				c-3.2,2.8-7,4.8-11.4,6.3C186.3,217.2,181.3,217.9,176,217.9z"/>
		</g>
		<g>
			<path fill="#A9B8C6" d="M242.5,164.9c-4.6,0-8.5-0.8-11.7-2.5s-5.8-3.8-7.8-6.3c-2-2.6-3.4-5.5-4.3-8.7c-0.9-3.2-1.3-6.4-1.3-9.6
				c0-2,0.2-4,0.6-6.1s1-4.2,1.9-6.2c0.8-2,1.9-3.9,3.2-5.7c1.3-1.8,2.9-3.4,4.7-4.7c1.9-1.3,4-2.5,6.5-3.2c2.5-0.8,5.1-1.2,8.3-1.2
				c4.6,0,8.5,0.8,11.7,2.5c3.2,1.6,5.8,3.8,7.8,6.3c2,2.6,3.4,5.5,4.3,8.7c0.9,3.2,1.3,6.5,1.3,9.6c0,2.9-0.4,6-1.3,9.2
				c-0.9,3.2-2.3,6.1-4.2,8.7c-2,2.6-4.6,4.8-7.8,6.5C251.1,164.1,247.1,164.9,242.5,164.9z M247.4,217.9h-19l70.5-107.1h19
				L247.4,217.9z M242.5,148.9c1.5,0,2.8-0.3,3.8-0.9c1.1-0.6,2-1.4,2.7-2.5c0.7-1,1.2-2.2,1.6-3.5c0.3-1.3,0.5-2.7,0.5-4.2
				c0-3.4-0.7-6-2.1-8.1c-1.4-2-3.6-3.1-6.5-3.1c-1.5,0-2.8,0.3-3.8,0.9c-1.1,0.6-2,1.4-2.6,2.5c-0.7,1-1.2,2.2-1.6,3.5
				c-0.3,1.4-0.5,2.8-0.5,4.2c0,3.3,0.7,6,2.1,8C237.4,147.9,239.6,148.9,242.5,148.9z M303.7,217.9c-4.7,0-8.5-0.8-11.8-2.5
				c-3.2-1.6-5.8-3.8-7.8-6.3c-2-2.6-3.4-5.5-4.3-8.7c-0.9-3.2-1.3-6.5-1.3-9.6c0-2,0.2-4,0.6-6.1c0.4-2.1,1-4.2,1.9-6.2
				c0.8-2,1.9-3.9,3.2-5.7c1.3-1.8,2.9-3.4,4.7-4.7s4-2.5,6.5-3.2c2.5-0.8,5.1-1.2,8.3-1.2c4.6,0,8.5,0.8,11.7,2.5s5.8,3.8,7.8,6.3
				c2,2.6,3.4,5.5,4.3,8.7c0.9,3.2,1.3,6.5,1.3,9.6c0,3-0.4,6-1.3,9.2s-2.3,6.1-4.2,8.7c-2,2.6-4.6,4.8-7.8,6.5
				C312.4,217.1,308.4,217.9,303.7,217.9z M303.7,201.9c1.5,0,2.8-0.3,3.8-0.9c1.1-0.6,2-1.4,2.7-2.5c0.7-1,1.2-2.2,1.6-3.5
				c0.3-1.3,0.5-2.7,0.5-4.2c0-3.3-0.7-6-2.1-8c-1.4-2-3.6-3.1-6.5-3.1c-1.5,0-2.8,0.3-3.8,0.9c-1.1,0.6-2,1.4-2.7,2.5
				c-0.7,1-1.2,2.2-1.6,3.5c-0.3,1.4-0.5,2.8-0.5,4.2c0,3.3,0.7,6,2,8C298.5,200.8,300.7,201.9,303.7,201.9z"/>
		</g>
	</g>
</g>
<g>
	<polygon fill="#A9B8C6" points="721,611.6 1.5,611.6 1.5,59.7 161,59.7 161,61.7 3.5,61.7 3.5,609.6 719,609.6 719,61.7 
		560.8,61.7 560.8,59.7 721,59.7 	"/>
</g>
<g>
	<g>
		<g>
			<path fill="#A9B8C6" d="M207.3,41h10.2c1.8,0,3.4,0.2,4.7,0.6c1.4,0.4,2.7,1,3.8,1.6c1.1,0.7,2,1.6,2.8,2.5c0.7,1,1.4,2,1.9,3.1
				c0.5,1.1,0.9,2.3,1.1,3.5c0.2,1.2,0.3,2.5,0.3,3.8c0,1.1-0.1,2.4-0.3,3.5c-0.2,1.2-0.6,2.4-1.1,3.5c-0.5,1.1-1.1,2.2-1.9,3.2
				s-1.7,1.9-2.8,2.6c-1.1,0.7-2.4,1.3-3.8,1.7c-1.5,0.4-3.1,0.7-5,0.7h-10.1V41H207.3z M218.1,65.8c1.5,0,2.8-0.3,3.8-0.9
				c1.1-0.6,1.9-1.3,2.5-2.3c0.7-0.9,1.1-2,1.4-3.1s0.4-2.3,0.4-3.4c0-1.2-0.2-2.4-0.4-3.5c-0.3-1.1-0.7-2.2-1.4-3.1
				c-0.7-0.9-1.4-1.6-2.4-2.2c-1-0.6-2.1-0.8-3.4-0.8h-5.4v19.3C213.3,65.8,218.1,65.8,218.1,65.8z"/>
		</g>
		<g>
			<path fill="#A9B8C6" d="M236,71.4V41h5.9v30.4H236z"/>
		</g>
		<g>
			<path fill="#A9B8C6" d="M246.6,41h10.2c1.8,0,3.4,0.2,4.7,0.6c1.4,0.4,2.7,1,3.8,1.6c1.1,0.7,2,1.6,2.8,2.5c0.7,1,1.4,2,1.9,3.1
				c0.5,1.1,0.9,2.3,1.1,3.5c0.2,1.2,0.3,2.5,0.3,3.8c0,1.1-0.1,2.4-0.3,3.5c-0.2,1.2-0.6,2.4-1.1,3.5s-1.1,2.2-1.9,3.2
				c-0.7,1-1.7,1.9-2.8,2.6c-1.1,0.7-2.4,1.3-3.8,1.7c-1.5,0.4-3.1,0.7-5,0.7h-10.1V41H246.6z M257.4,65.8c1.5,0,2.8-0.3,3.8-0.9
				c1.1-0.6,1.9-1.3,2.5-2.3c0.7-0.9,1.1-2,1.4-3.1c0.2-1.1,0.4-2.3,0.4-3.4c0-1.2-0.2-2.4-0.4-3.5c-0.3-1.1-0.7-2.2-1.4-3.1
				c-0.7-0.9-1.4-1.6-2.4-2.2c-1-0.6-2.1-0.8-3.4-0.8h-5.4v19.3C252.5,65.8,257.4,65.8,257.4,65.8z"/>
		</g>
		<g>
			<path fill="#A9B8C6" d="M290.4,71.4V59.5L279.2,41h6.6l7.5,12.4l7.4-12.4h6.6l-11.3,18.6v11.9H290.4z"/>
		</g>
		<g>
			<path fill="#A9B8C6" d="M319.3,72c-1.6,0-3.1-0.2-4.4-0.7c-1.3-0.4-2.5-1-3.4-1.8c-1-0.7-1.9-1.6-2.5-2.6c-0.7-1-1.3-2.1-1.7-3.3
				s-0.7-2.4-1-3.7c-0.2-1.2-0.3-2.5-0.3-3.8s0.1-2.5,0.3-3.8c0.2-1.2,0.5-2.5,1-3.7c0.4-1.1,1-2.3,1.7-3.3c0.7-1,1.6-1.9,2.5-2.6
				s2.1-1.3,3.4-1.8c1.3-0.4,2.8-0.7,4.4-0.7c1.6,0,3.1,0.2,4.4,0.7s2.5,1,3.4,1.8s1.8,1.6,2.5,2.6c0.7,1,1.3,2.1,1.7,3.3
				c0.4,1.1,0.7,2.4,1,3.7c0.2,1.2,0.3,2.5,0.3,3.8s-0.1,2.5-0.3,3.8c-0.2,1.2-0.5,2.5-1,3.7c-0.4,1.1-1,2.3-1.7,3.3
				c-0.7,1-1.6,1.9-2.5,2.6c-1,0.7-2.1,1.3-3.4,1.8C322.4,71.8,320.9,72,319.3,72z M319.3,66.2c1.4,0,2.5-0.3,3.4-1
				c0.9-0.7,1.6-1.5,2.2-2.5c0.6-1,1-2,1.2-3.3c0.2-1.1,0.4-2.3,0.4-3.4c0-0.8-0.1-1.6-0.2-2.4s-0.2-1.6-0.5-2.3s-0.6-1.5-0.9-2.1
				c-0.4-0.7-0.8-1.2-1.4-1.7c-0.6-0.5-1.1-0.9-1.9-1.1c-0.7-0.2-1.6-0.4-2.5-0.4s-1.7,0.2-2.5,0.4c-0.7,0.3-1.3,0.7-1.9,1.2
				c-0.6,0.5-1,1.1-1.4,1.7c-0.4,0.7-0.7,1.4-0.9,2.1s-0.4,1.5-0.5,2.3c-0.1,0.8-0.2,1.6-0.2,2.3c0,1.1,0.2,2.4,0.4,3.5
				c0.2,1.2,0.7,2.3,1.2,3.3s1.3,1.8,2.3,2.4C316.8,66,317.9,66.2,319.3,66.2z"/>
		</g>
		<g>
			<path fill="#A9B8C6" d="M348.1,72c-1.1,0-2-0.1-3-0.2s-2-0.5-2.9-0.8s-1.7-0.9-2.5-1.6c-0.7-0.7-1.5-1.4-2-2.3
				c-0.6-0.9-1-2-1.3-3.1c-0.3-1.1-0.5-2.5-0.5-4.1V41h5.9v18.7c0,1.2,0.2,2.3,0.4,3.1c0.3,0.8,0.7,1.5,1.2,2c0.6,0.5,1.2,0.8,2,1.1
				s1.7,0.3,2.7,0.3c1,0,1.9-0.1,2.6-0.3c0.8-0.2,1.5-0.6,2-1.1c0.6-0.5,1-1.1,1.3-2c0.3-0.8,0.4-1.9,0.4-3.1V41h5.9v18.7
				c0,2.3-0.3,4.2-1,5.7c-0.7,1.6-1.6,2.8-2.7,3.8c-1.1,1-2.5,1.6-3.9,2C351.3,71.7,349.7,72,348.1,72z"/>
		</g>
		<g>
			<path fill="#A9B8C6" d="M390.7,71.4l-7.8-14.5l-5.6,6.9v7.6h-5.9V41h5.9v14.5l11.5-14.5h6.9l-8.8,10.9l10.7,19.5
				C397.6,71.4,390.7,71.4,390.7,71.4z"/>
		</g>
		<g>
			<path fill="#A9B8C6" d="M418.9,71.4l-12-17.7c-0.2-0.3-0.4-0.7-0.7-1.1s-0.4-0.8-0.6-1.2c0.1,0.3,0.1,0.7,0.1,1.1s0,0.8,0,1.1
				v17.7H400V41h5.5l11.8,17.5c0.2,0.2,0.4,0.7,0.7,1.1s0.5,0.8,0.7,1.2c-0.1-0.4-0.1-0.8-0.1-1.2s0-0.7,0-1.1V41h5.8v30.4H418.9z"
				/>
		</g>
		<g>
			<path fill="#A9B8C6" d="M441,72c-1.6,0-3.1-0.2-4.4-0.7c-1.3-0.4-2.5-1-3.4-1.8c-1-0.7-1.9-1.6-2.5-2.6c-0.7-1-1.3-2.1-1.7-3.3
				c-0.4-1.1-0.7-2.4-1-3.7c-0.2-1.3-0.3-2.5-0.3-3.8s0.1-2.5,0.3-3.8c0.2-1.2,0.5-2.5,1-3.7c0.5-1.2,1-2.3,1.7-3.3
				c0.7-1,1.6-1.9,2.5-2.6c1-0.7,2.1-1.3,3.4-1.8c1.3-0.4,2.8-0.7,4.4-0.7c1.6,0,3.1,0.2,4.4,0.7c1.3,0.4,2.5,1,3.4,1.8
				c1,0.7,1.8,1.6,2.5,2.6c0.7,1,1.3,2.1,1.7,3.3c0.4,1.1,0.7,2.4,1,3.7c0.2,1.2,0.3,2.5,0.3,3.8s-0.1,2.5-0.3,3.8
				c-0.2,1.2-0.5,2.5-1,3.7c-0.4,1.1-1,2.3-1.7,3.3c-0.7,1-1.6,1.9-2.5,2.6c-1,0.7-2.1,1.3-3.4,1.8C444.1,71.7,442.6,72,441,72z
				 M441,66.2c1.4,0,2.5-0.3,3.4-1c0.9-0.7,1.6-1.5,2.2-2.5c0.6-1,1-2,1.2-3.3c0.2-1.1,0.4-2.3,0.4-3.4c0-0.8-0.1-1.6-0.2-2.4
				c-0.1-0.8-0.2-1.6-0.5-2.3c-0.2-0.7-0.6-1.5-0.9-2.1c-0.4-0.7-0.8-1.2-1.4-1.7c-0.6-0.5-1.1-0.9-1.9-1.1
				c-0.7-0.2-1.6-0.4-2.5-0.4s-1.7,0.2-2.5,0.4c-0.7,0.3-1.3,0.7-1.9,1.2c-0.6,0.5-1,1.1-1.4,1.7c-0.4,0.7-0.7,1.4-0.9,2.1
				c-0.2,0.7-0.4,1.5-0.5,2.3c-0.1,0.8-0.2,1.6-0.2,2.3c0,1.1,0.2,2.4,0.4,3.5c0.2,1.2,0.7,2.3,1.2,3.3s1.3,1.8,2.3,2.4
				C438.5,66,439.7,66.2,441,66.2z"/>
		</g>
		<g>
			<path fill="#A9B8C6" d="M489.9,41l-6.5,30.4h-5.5l-4.7-17.9c-0.2-0.5-0.2-0.9-0.2-1.3c-0.1-0.4-0.1-0.7-0.2-1
				c-0.1,0.3-0.1,0.7-0.2,1c-0.1,0.4-0.2,0.8-0.2,1.2l-4.5,17.9h-5.5l-6.5-30.4h6l3.4,17.1c0.1,0.5,0.2,1,0.2,1.3s0.1,0.7,0.2,1
				c0.1-0.3,0.1-0.7,0.2-1c0.1-0.3,0.2-0.8,0.2-1.3l4.2-17.1h5.1l4.2,17.1c0.2,0.6,0.2,1,0.3,1.3c0.1,0.3,0.1,0.7,0.2,1
				c0.1-0.3,0.1-0.7,0.2-1c0.1-0.3,0.2-0.7,0.2-1.3l3.4-17H489.9z"/>
		</g>
		<g>
			<path fill="#A9B8C6" d="M503,63.2v-1.6c0-1.3,0.2-2.5,0.5-3.4c0.3-0.9,0.8-1.7,1.3-2.4c0.5-0.7,1.1-1.2,1.6-1.7s1.1-1,1.6-1.4
				c0.5-0.5,1-1,1.3-1.5c0.3-0.5,0.5-1.1,0.5-1.9c0-1-0.3-1.8-1-2.5c-0.7-0.7-1.6-1-2.8-1c-1.5,0-2.5,0.4-3.4,1.3
				c-0.7,0.9-1.1,2.1-1.1,3.8H496c0-1.7,0.2-3.2,0.7-4.5c0.5-1.3,1.2-2.4,2.1-3.3c0.9-0.9,2-1.6,3.2-2c1.2-0.5,2.6-0.7,4.1-0.7
				c1.6,0,2.9,0.2,4.1,0.7c1.1,0.5,2.1,1.1,2.9,1.9c0.8,0.8,1.4,1.7,1.8,2.8c0.4,1.1,0.7,2.2,0.7,3.5c0,0.9-0.1,1.6-0.3,2.4
				c-0.2,0.7-0.5,1.3-0.8,1.8s-0.7,1-1.1,1.4s-0.8,0.8-1.3,1.2c-0.4,0.4-0.9,0.7-1.3,1.1c-0.4,0.3-0.8,0.7-1.1,1.2
				c-0.3,0.4-0.6,0.9-0.8,1.4c-0.2,0.5-0.3,1.1-0.3,1.8v1.6L503,63.2L503,63.2z M505.9,72c-0.5,0-1-0.1-1.5-0.2s-0.8-0.4-1.1-0.7
				c-0.3-0.3-0.6-0.7-0.7-1.1c-0.2-0.4-0.2-0.9-0.2-1.4c0-0.5,0.1-1,0.2-1.4c0.2-0.4,0.4-0.8,0.7-1.1c0.3-0.3,0.7-0.6,1.1-0.7
				c0.4-0.2,0.9-0.2,1.5-0.2c0.5,0,1,0.1,1.5,0.2c0.4,0.2,0.8,0.4,1.1,0.7c0.3,0.3,0.6,0.7,0.8,1.1c0.2,0.4,0.3,0.9,0.3,1.4
				c0,0.5-0.1,1-0.3,1.4c-0.2,0.4-0.5,0.8-0.8,1.1c-0.3,0.3-0.7,0.6-1.1,0.7C506.9,71.9,506.4,72,505.9,72z"/>
		</g>
	</g>
</g>
<g>
	<path fill="#A9B8C6" d="M693.4,235.3H28.7V92.7h664.6V235.3z M30.7,233.3h660.6V94.7H30.7V233.3z"/>
</g>
<g>
	<g>
		<g>
			<path fill="#A9B8C6" d="M105.7,381v-20.7H51.6v-12.7l53-70.1h20.8v64.3h12.6v18.6h-12.6v20.8L105.7,381L105.7,381z M105.7,341.8
				v-38l-28.1,38H105.7z"/>
		</g>
		<g>
			<path fill="#A9B8C6" d="M156.7,381v-76.7h-15.9v-15.9c2.5,0,4.7-0.2,6.9-0.6c2.1-0.3,4-1,5.7-1.9c1.7-0.9,3.2-2,4.4-3.4
				c1.2-1.4,2.2-3.2,2.9-5.3h15.9v103.5h-19.9V381z"/>
		</g>
		<g>
			<path fill="#A9B8C6" d="M218,329.9c-4.6,0-8.5-0.8-11.7-2.5c-3.2-1.6-5.8-3.8-7.8-6.3c-2-2.6-3.4-5.5-4.3-8.7
				c-0.9-3.2-1.3-6.4-1.3-9.6c0-2,0.2-4,0.6-6.1c0.4-2.1,1-4.2,1.9-6.2c0.8-2,1.9-3.9,3.2-5.7c1.3-1.8,2.9-3.4,4.7-4.7
				c1.9-1.3,4-2.5,6.5-3.2c2.5-0.8,5.1-1.2,8.3-1.2c4.6,0,8.5,0.8,11.7,2.5c3.2,1.6,5.8,3.8,7.8,6.3c2,2.6,3.4,5.5,4.3,8.7
				c0.9,3.2,1.3,6.5,1.3,9.6c0,2.9-0.4,6-1.3,9.2c-0.9,3.2-2.3,6.1-4.2,8.7c-2,2.6-4.6,4.8-7.8,6.5C226.6,329,222.6,329.9,218,329.9
				z M222.9,382.8h-19l70.5-107.1h19L222.9,382.8z M218,313.9c1.5,0,2.8-0.3,3.8-0.9c1.1-0.6,2-1.4,2.7-2.5c0.7-1,1.2-2.2,1.6-3.5
				c0.3-1.3,0.5-2.7,0.5-4.2c0-3.4-0.7-6-2.1-8.1c-1.4-2-3.6-3.1-6.5-3.1c-1.5,0-2.8,0.3-3.8,0.9c-1.1,0.6-2,1.4-2.6,2.5
				c-0.7,1-1.2,2.2-1.6,3.5c-0.3,1.4-0.5,2.8-0.5,4.2c0,3.3,0.7,6,2.1,8C213,312.9,215.1,313.9,218,313.9z M279.3,382.8
				c-4.7,0-8.5-0.8-11.8-2.5c-3.2-1.6-5.8-3.8-7.8-6.3c-2-2.6-3.4-5.5-4.3-8.7c-0.9-3.2-1.3-6.5-1.3-9.6c0-2,0.2-4,0.6-6.1
				c0.4-2.1,1-4.2,1.9-6.2c0.8-2,1.9-3.9,3.2-5.7c1.3-1.8,2.9-3.4,4.7-4.7c1.9-1.3,4-2.5,6.5-3.2c2.5-0.8,5.1-1.2,8.3-1.2
				c4.6,0,8.5,0.8,11.7,2.5c3.2,1.6,5.8,3.8,7.8,6.3c2,2.6,3.4,5.5,4.3,8.7c0.9,3.2,1.3,6.5,1.3,9.6c0,3-0.4,6-1.3,9.2
				s-2.3,6.1-4.2,8.7c-2,2.6-4.6,4.8-7.8,6.5C287.8,382,283.9,382.8,279.3,382.8z M279.3,366.8c1.5,0,2.8-0.3,3.8-0.9
				c1.1-0.6,2-1.4,2.7-2.5c0.7-1,1.2-2.2,1.6-3.5c0.3-1.3,0.5-2.7,0.5-4.2c0-3.3-0.7-6-2.1-8c-1.4-2-3.6-3.1-6.5-3.1
				c-1.5,0-2.8,0.3-3.8,0.9s-2,1.4-2.7,2.5c-0.7,1-1.2,2.2-1.6,3.5c-0.3,1.4-0.5,2.8-0.5,4.2c0,3.3,0.7,6,2,8
				C274.1,365.8,276.2,366.8,279.3,366.8z"/>
		</g>
	</g>
</g>
<g>
	<path fill="#A9B8C6" d="M693.4,400.2H28.7V257.6h664.6V400.2z M30.7,398.2h660.6V259.6H30.7V398.2z"/>
</g>
<g>
	<g>
		<g>
			<path fill="#A9B8C6" d="M375.3,469.9c-1.5,0-2.8-0.2-4-0.6s-2.2-0.9-3.1-1.6s-1.6-1.5-2.3-2.4c-0.7-0.9-1.1-1.9-1.6-2.9
				c-0.4-1.1-0.7-2.1-0.9-3.3c-0.2-1.1-0.2-2.3-0.2-3.4c0-1.1,0.1-2.3,0.2-3.4c0.2-1.1,0.5-2.2,0.9-3.3c0.4-1.1,0.9-2,1.6-2.9
				c0.7-0.9,1.4-1.7,2.3-2.4c0.9-0.7,2-1.2,3.1-1.6c1.1-0.3,2.5-0.6,4-0.6c1.5,0,2.8,0.2,4,0.6c1.2,0.4,2.2,0.9,3.1,1.6
				c0.9,0.7,1.6,1.5,2.3,2.4c0.7,0.9,1.1,1.9,1.6,2.9s0.7,2.1,0.9,3.3c0.2,1.1,0.2,2.3,0.2,3.4s-0.1,2.3-0.2,3.4
				c-0.2,1.1-0.5,2.2-0.9,3.3c-0.4,1.1-0.9,2-1.6,2.9c-0.7,0.9-1.4,1.7-2.3,2.4s-2,1.2-3.1,1.6C378.1,469.6,376.8,469.9,375.3,469.9
				z M375.3,464.8c1.2,0,2.3-0.3,3.1-0.9c0.8-0.6,1.6-1.3,2-2.2s0.9-1.9,1.1-2.9c0.2-1.1,0.3-2.1,0.3-3.1c0-0.7-0.1-1.4-0.2-2.1
				c-0.1-0.7-0.2-1.4-0.5-2.1c-0.2-0.7-0.5-1.3-0.8-1.9c-0.3-0.6-0.7-1.1-1.2-1.6s-1.1-0.8-1.7-1.1c-0.7-0.2-1.4-0.4-2.2-0.4
				s-1.6,0.2-2.2,0.4c-0.7,0.2-1.2,0.7-1.7,1.1s-0.9,1-1.2,1.6c-0.3,0.6-0.7,1.2-0.8,1.9c-0.2,0.7-0.4,1.4-0.5,2
				c-0.1,0.7-0.2,1.4-0.2,2c0,1.1,0.1,2.1,0.3,3.2c0.2,1.1,0.6,2,1.1,2.9s1.2,1.6,2,2.1C373,464.3,374.1,464.8,375.3,464.8z"/>
		</g>
		<g>
			<path fill="#A9B8C6" d="M393.4,469.4v-27.5h18.4v5.1h-13.1v5.8h8.3v5h-8.3v11.7L393.4,469.4L393.4,469.4z"/>
		</g>
		<g>
			<path fill="#A9B8C6" d="M444.2,469.4l-2.1-5.7h-10.6l-2.1,5.7h-5.7l10.5-27.5h5.1l10.5,27.5H444.2z M437.6,451.7
				c-0.2-0.3-0.3-0.7-0.5-1.2s-0.3-0.9-0.4-1.3c-0.1,0.4-0.2,0.8-0.4,1.3s-0.3,0.8-0.5,1.2l-2.7,7.1h7.1L437.6,451.7z"/>
		</g>
		<g>
			<path fill="#A9B8C6" d="M475.1,469.4v-14.1c0-0.2,0-0.3,0-0.6c0-0.2,0-0.4,0-0.7c0-0.2,0-0.4,0-0.6s0-0.3,0-0.4
				c-0.2,0.4-0.2,0.8-0.4,1.1c-0.2,0.3-0.2,0.7-0.4,1l-6.7,14.6l-6.7-14.6c-0.2-0.3-0.2-0.7-0.4-1c-0.2-0.3-0.2-0.7-0.4-1.1
				c0,0.1,0,0.2,0,0.4s0,0.4,0,0.6c0,0.2,0,0.4,0,0.7c0,0.2,0,0.4,0,0.6v14.1h-5.3v-27.5h5.4l6.8,15.1c0.2,0.3,0.2,0.7,0.4,1
				c0.2,0.3,0.2,0.6,0.3,0.9c0.1-0.3,0.2-0.7,0.3-0.9c0.1-0.2,0.2-0.7,0.4-1l6.9-15.1h5.1v27.5H475.1z"/>
		</g>
		<g>
			<path fill="#A9B8C6" d="M487.4,469.4v-27.5h18.7v5.1h-13.5v5.8h7.9v5h-7.9v6.6h14.3v5H487.4z"/>
		</g>
		<g>
			<path fill="#A9B8C6" d="M512.7,469.4v-27.5h12.7c1.7,0,3.2,0.2,4.3,0.7c1.1,0.5,2.1,1.1,2.9,1.9c0.7,0.7,1.2,1.7,1.6,2.8
				c0.3,1.1,0.5,2.1,0.5,3.3c0,0.8-0.1,1.6-0.3,2.4c-0.2,0.8-0.6,1.6-1,2.3c-0.4,0.7-1,1.4-1.6,2c-0.7,0.6-1.5,1.1-2.3,1.4l5.3,11
				h-6l-5.1-10.2h-5.6v10.2h-5.4V469.4z M525.5,454.1c0.7,0,1.2-0.1,1.7-0.3c0.5-0.2,0.8-0.5,1.1-0.8s0.5-0.7,0.6-1.1
				c0.1-0.4,0.2-0.9,0.2-1.4c0-0.4-0.1-0.9-0.2-1.3c-0.1-0.4-0.3-0.8-0.6-1.1c-0.2-0.3-0.7-0.6-1.1-0.8c-0.4-0.2-1.1-0.3-1.8-0.3
				H518v7.2L525.5,454.1L525.5,454.1z"/>
		</g>
		<g>
			<path fill="#A9B8C6" d="M540.9,469.4v-27.5h5.3v27.5H540.9z"/>
		</g>
		<g>
			<path fill="#A9B8C6" d="M564,469.9c-1.5,0-2.7-0.2-3.8-0.6s-2.1-0.9-2.9-1.6c-0.8-0.7-1.6-1.5-2.2-2.4s-1.1-1.9-1.5-2.9
				c-0.4-1.1-0.7-2.1-0.8-3.3c-0.2-1.1-0.2-2.3-0.2-3.4c0-1.1,0.1-2.1,0.2-3.2c0.2-1.1,0.5-2.2,0.8-3.2s0.9-2,1.5-2.9
				c0.6-0.9,1.3-1.7,2.2-2.5c0.9-0.7,1.8-1.2,2.9-1.6s2.4-0.7,3.8-0.7c1.3,0,2.5,0.2,3.6,0.6c1.1,0.4,2,0.8,2.9,1.4s1.5,1.2,2,2
				c0.6,0.7,1,1.5,1.3,2.3l-4.7,2.1c-0.3-0.5-0.7-1-1-1.4s-0.7-0.7-1.1-1.1s-0.8-0.5-1.3-0.7c-0.5-0.2-1-0.2-1.6-0.2
				c-0.7,0-1.5,0.2-2,0.4c-0.6,0.2-1.1,0.7-1.6,1.1s-0.8,1-1.1,1.6c-0.3,0.6-0.6,1.2-0.7,1.9c-0.2,0.7-0.3,1.4-0.4,2
				c-0.1,0.7-0.2,1.4-0.2,2c0,1.1,0.1,2.1,0.3,3.2c0.2,1.1,0.6,2,1.1,2.9c0.5,0.9,1.1,1.6,1.9,2.1c0.7,0.6,1.7,0.8,2.8,0.8
				c0.6,0,1.1-0.1,1.6-0.2c0.5-0.2,0.9-0.4,1.3-0.7c0.4-0.3,0.8-0.7,1.1-1.1c0.3-0.5,0.7-0.9,1-1.5l4.9,1.9c-0.4,1-1,2-1.6,2.8
				c-0.6,0.8-1.3,1.6-2.1,2.1c-0.8,0.6-1.7,1.1-2.8,1.4C566.4,469.6,565.2,469.9,564,469.9z"/>
		</g>
		<g>
			<path fill="#A9B8C6" d="M597.7,469.4l-2.1-5.7H585l-2.1,5.7h-5.7l10.5-27.5h5.1l10.5,27.5H597.7z M591.2,451.7
				c-0.2-0.3-0.3-0.7-0.5-1.2c-0.2-0.5-0.3-0.9-0.4-1.3c-0.1,0.4-0.2,0.8-0.4,1.3c-0.2,0.5-0.3,0.8-0.5,1.2l-2.7,7.1h7.1
				L591.2,451.7z"/>
		</g>
		<g>
			<path fill="#A9B8C6" d="M625.6,469.4l-10.9-16c-0.2-0.2-0.4-0.6-0.6-1s-0.4-0.7-0.6-1.1c0,0.3,0.1,0.7,0.1,1.1s0,0.7,0,1.1v16
				h-5.2V442h5l10.6,15.9c0.2,0.2,0.3,0.6,0.6,1c0.2,0.4,0.4,0.7,0.6,1.1c0-0.4-0.1-0.7-0.1-1.1s0-0.7,0-1V442h5.2v27.5L625.6,469.4
				L625.6,469.4z"/>
		</g>
		<g>
			<path fill="#A9B8C6" d="M650.5,449.4c-0.2-0.4-0.4-0.8-0.7-1.1s-0.7-0.7-1-0.9c-0.3-0.2-0.8-0.5-1.3-0.7
				c-0.5-0.2-1.1-0.2-1.7-0.2c-1.1,0-2,0.2-2.7,0.7c-0.7,0.4-1,1.1-1,2c0,0.6,0.2,1,0.7,1.4s1,0.7,1.6,1c0.7,0.2,1.4,0.6,2.3,0.8
				c0.9,0.2,1.7,0.6,2.6,0.9c0.9,0.3,1.8,0.7,2.6,1.1s1.6,1,2.3,1.6c0.7,0.7,1.2,1.4,1.6,2.3c0.4,0.9,0.7,2,0.7,3.2
				c0,1.3-0.2,2.5-0.7,3.6c-0.5,1.1-1.2,1.9-2.1,2.6c-0.9,0.7-2,1.2-3.2,1.6c-1.2,0.4-2.5,0.6-3.9,0.6c-1.3,0-2.5-0.2-3.6-0.5
				c-1.1-0.3-2.1-0.8-3-1.5c-0.9-0.7-1.7-1.5-2.4-2.4c-0.7-0.9-1.2-2-1.6-3.1l4.8-1.8c0.3,0.7,0.7,1.2,1.1,1.7s0.9,1,1.4,1.4
				c0.5,0.4,1.1,0.7,1.6,0.9s1.2,0.3,1.9,0.3c0.7,0,1.3-0.1,1.8-0.2c0.5-0.2,1-0.3,1.4-0.7c0.4-0.3,0.7-0.7,0.9-1.1s0.3-0.9,0.3-1.5
				c0-0.7-0.2-1.2-0.7-1.7c-0.4-0.5-1-0.8-1.6-1.2c-0.7-0.4-1.4-0.7-2.3-0.9c-0.9-0.2-1.7-0.6-2.6-0.9c-0.9-0.3-1.7-0.7-2.6-1.1
				c-0.9-0.4-1.6-0.9-2.3-1.6c-0.7-0.7-1.2-1.3-1.6-2.1c-0.4-0.8-0.7-1.9-0.7-3.1c0-1.1,0.2-2,0.7-2.9c0.4-0.9,1-1.7,1.8-2.4
				c0.8-0.7,1.8-1.2,2.9-1.6c1.1-0.4,2.5-0.6,3.9-0.6c1.2,0,2.4,0.2,3.4,0.5s1.9,0.7,2.6,1.3c0.7,0.6,1.4,1.2,2,2s0.9,1.6,1.2,2.5
				L650.5,449.4z"/>
		</g>
	</g>
</g>
<g>
	<g>
		<g>
			<path fill="#A9B8C6" d="M377.1,512.3c-1.6,0-3-0.2-4.3-0.7s-2.5-1-3.4-1.7c-1-0.7-1.9-1.6-2.6-2.6c-0.7-1-1.3-2.1-1.8-3.3
				c-0.5-1.1-0.8-2.5-1.1-3.8c-0.2-1.3-0.3-2.6-0.3-4c0-1.2,0.1-2.5,0.3-3.8c0.2-1.2,0.6-2.5,1.1-3.7c0.5-1.1,1.1-2.3,1.9-3.4
				c0.7-1.1,1.6-2,2.6-2.7c1-0.7,2.1-1.4,3.4-1.8c1.3-0.4,2.7-0.7,4.2-0.7c1.5,0,2.8,0.2,3.9,0.6c1.1,0.4,2.1,0.9,3,1.5
				c0.9,0.6,1.6,1.3,2.3,2.1c0.7,0.8,1.2,1.6,1.8,2.5l-5.2,3c-0.3-0.5-0.7-1-1.1-1.5c-0.4-0.5-0.8-0.9-1.3-1.2
				c-0.5-0.3-1-0.7-1.6-0.8c-0.6-0.2-1.1-0.3-1.9-0.3c-1,0-1.8,0.2-2.5,0.4c-0.7,0.2-1.4,0.7-2,1.2c-0.6,0.5-1,1.1-1.4,1.8
				c-0.4,0.7-0.7,1.4-0.9,2.1c-0.2,0.7-0.4,1.6-0.5,2.4c-0.1,0.8-0.2,1.6-0.2,2.3c0,1.3,0.2,2.6,0.4,3.8c0.2,1.2,0.7,2.3,1.3,3.3
				s1.4,1.7,2.3,2.3s2,0.9,3.4,0.9c0.7,0,1.5-0.2,2.1-0.4c0.7-0.2,1.2-0.7,1.7-1.1c0.5-0.5,0.9-1,1.1-1.6c0.2-0.7,0.4-1.3,0.4-2
				v-0.2h-5.2v-5.6h11.4v4.6c0,2-0.3,3.8-0.9,5.2c-0.6,1.6-1.4,2.8-2.5,3.8c-1.1,1.1-2.2,1.8-3.6,2.4
				C380.2,512,378.6,512.3,377.1,512.3z"/>
		</g>
		<g>
			<path fill="#A9B8C6" d="M395.1,511.8v-30.9h21.1v5.6h-15.1v6.5h8.9v5.6h-8.9v7.4h16v5.6L395.1,511.8L395.1,511.8z"/>
		</g>
		<g>
			<path fill="#A9B8C6" d="M436.3,486.6v25.2h-6v-25.2h-8.8v-5.7h23.6v5.7H436.3z"/>
		</g>
		<g>
			<path fill="#A9B8C6" d="M480.6,511.8l-12.3-18c-0.2-0.3-0.4-0.7-0.7-1.1c-0.2-0.5-0.4-0.8-0.7-1.2c0.1,0.3,0.1,0.7,0.1,1.1
				s0,0.8,0,1.1v18h-6v-30.9h5.6l11.9,17.8c0.2,0.3,0.4,0.7,0.7,1.1c0.2,0.4,0.5,0.8,0.7,1.2c-0.1-0.4-0.1-0.8-0.1-1.2s0-0.8,0-1.1
				v-17.8h5.9v30.9L480.6,511.8L480.6,511.8z"/>
		</g>
		<g>
			<path fill="#A9B8C6" d="M493.9,511.8v-30.9H515v5.6h-15.1v6.5h8.9v5.6h-8.9v7.4h16v5.6L493.9,511.8L493.9,511.8z"/>
		</g>
		<g>
			<path fill="#A9B8C6" d="M554.8,480.8l-6.7,30.9h-5.6l-4.7-18.2c-0.2-0.5-0.2-0.9-0.2-1.3c-0.1-0.4-0.1-0.7-0.2-1.1
				c-0.1,0.3-0.1,0.7-0.2,1.1s-0.2,0.8-0.2,1.2l-4.6,18.2H527l-6.6-30.9h6.1l3.4,17.4c0.1,0.6,0.2,1,0.2,1.3s0.1,0.7,0.2,1
				c0.1-0.3,0.1-0.7,0.2-1c0.1-0.3,0.2-0.8,0.2-1.3l4.2-17.3h5.1l4.3,17.3c0.2,0.6,0.2,1,0.3,1.3c0.1,0.3,0.1,0.7,0.2,1
				c0.1-0.3,0.1-0.7,0.2-1c0.1-0.3,0.2-0.8,0.2-1.3l3.4-17.4L554.8,480.8L554.8,480.8z"/>
		</g>
		<g>
			<path fill="#A9B8C6" d="M575.6,489.2c-0.2-0.5-0.4-0.9-0.7-1.3c-0.3-0.4-0.7-0.7-1.1-1.1c-0.4-0.3-1-0.5-1.5-0.7
				c-0.6-0.2-1.2-0.2-1.9-0.2c-1.3,0-2.3,0.2-3,0.7c-0.7,0.5-1.1,1.2-1.1,2.2c0,0.7,0.2,1.1,0.7,1.6c0.5,0.4,1.1,0.8,1.8,1.1
				c0.7,0.3,1.6,0.7,2.5,1c0.9,0.3,2,0.7,2.9,1c1,0.3,2,0.8,2.9,1.3c1,0.5,1.8,1.1,2.5,1.8c0.7,0.7,1.4,1.6,1.8,2.6
				c0.5,1,0.7,2.2,0.7,3.6c0,1.5-0.3,2.9-0.9,4c-0.6,1.1-1.4,2.1-2.4,2.9s-2.2,1.4-3.5,1.8c-1.4,0.4-2.9,0.7-4.4,0.7
				c-1.5,0-2.8-0.2-4.1-0.6c-1.2-0.4-2.4-1-3.4-1.7c-1.1-0.7-2-1.6-2.7-2.7c-0.7-1.1-1.4-2.2-1.8-3.5l5.4-2c0.3,0.7,0.7,1.4,1.2,2
				s1,1.1,1.6,1.6c0.6,0.4,1.2,0.7,1.9,1c0.7,0.2,1.4,0.3,2.1,0.3c0.7,0,1.4-0.1,2-0.2c0.7-0.2,1.1-0.4,1.6-0.7s0.7-0.7,1-1.1
				c0.2-0.5,0.3-1,0.3-1.6c0-0.7-0.2-1.4-0.7-1.9c-0.5-0.5-1.1-1-1.8-1.3c-0.7-0.4-1.6-0.7-2.5-1.1c-0.9-0.3-2-0.7-2.9-1
				c-1-0.3-2-0.7-2.9-1.2s-1.8-1.1-2.5-1.7c-0.7-0.7-1.4-1.5-1.8-2.5c-0.5-1-0.7-2.1-0.7-3.4c0-1.1,0.2-2.3,0.7-3.3s1.1-2,2-2.7
				c0.9-0.7,2-1.4,3.3-1.9c1.3-0.5,2.8-0.7,4.4-0.7c1.4,0,2.6,0.2,3.8,0.6c1.1,0.4,2.1,0.9,3,1.5c0.9,0.6,1.6,1.4,2.2,2.3
				c0.6,0.9,1.1,1.8,1.3,2.9L575.6,489.2z"/>
		</g>
		<g>
			<path fill="#A9B8C6" d="M611.5,512.3c-1.6,0-3.2-0.2-4.5-0.7c-1.3-0.4-2.5-1.1-3.5-1.8c-1-0.7-1.9-1.6-2.6-2.7s-1.3-2.1-1.7-3.4
				c-0.5-1.1-0.8-2.5-1-3.7c-0.2-1.3-0.3-2.5-0.3-3.8c0-1.2,0.1-2.5,0.3-3.8c0.2-1.3,0.6-2.5,1-3.7c0.5-1.1,1.1-2.3,1.7-3.4
				c0.7-1.1,1.6-1.9,2.6-2.7c1-0.7,2.2-1.4,3.5-1.8c1.3-0.4,2.8-0.7,4.5-0.7c1.6,0,3.2,0.2,4.5,0.7c1.3,0.4,2.5,1.1,3.5,1.8
				c1,0.7,1.9,1.6,2.6,2.7c0.7,1.1,1.3,2.1,1.7,3.4c0.5,1.2,0.8,2.5,1,3.7c0.2,1.3,0.3,2.5,0.3,3.8c0,1.3-0.1,2.5-0.3,3.8
				c-0.2,1.3-0.6,2.5-1,3.7c-0.5,1.2-1.1,2.3-1.7,3.4c-0.7,1.1-1.6,1.9-2.6,2.7c-1,0.7-2.2,1.4-3.5,1.8
				C614.6,512,613.1,512.3,611.5,512.3z M611.5,506.6c1.4,0,2.5-0.3,3.5-1c1-0.7,1.7-1.5,2.3-2.5c0.6-1,1-2.1,1.2-3.3
				c0.2-1.1,0.4-2.4,0.4-3.5c0-0.8-0.1-1.6-0.2-2.4c-0.1-0.8-0.2-1.6-0.5-2.4c-0.2-0.7-0.6-1.5-1-2.1c-0.4-0.7-0.8-1.2-1.4-1.7
				c-0.6-0.5-1.1-0.9-1.9-1.1c-0.7-0.2-1.6-0.4-2.5-0.4c-0.9,0-1.8,0.2-2.5,0.5c-0.7,0.3-1.4,0.7-1.9,1.2c-0.6,0.5-1.1,1.1-1.4,1.8
				s-0.7,1.4-1,2.1c-0.2,0.7-0.4,1.6-0.5,2.3c-0.1,0.7-0.2,1.6-0.2,2.3c0,1.1,0.2,2.4,0.4,3.6c0.2,1.2,0.7,2.3,1.2,3.3
				s1.3,1.8,2.3,2.5C608.9,506.2,610.1,506.6,611.5,506.6z"/>
		</g>
		<g>
			<path fill="#A9B8C6" d="M651.2,511.8l-12.3-18c-0.2-0.3-0.4-0.7-0.7-1.1c-0.2-0.5-0.4-0.8-0.7-1.2c0.1,0.3,0.1,0.7,0.1,1.1
				s0,0.8,0,1.1v18h-6v-30.9h5.6l11.9,17.8c0.2,0.3,0.4,0.7,0.7,1.1c0.2,0.4,0.5,0.8,0.7,1.2c-0.1-0.4-0.1-0.8-0.1-1.2s0-0.8,0-1.1
				v-17.8h5.9v30.9L651.2,511.8L651.2,511.8z"/>
		</g>
	</g>
</g>
<g>
	<g>
		<g>
			<path fill="#A9B8C6" d="M378.3,528.7c-0.2-0.4-0.4-0.8-0.7-1.2c-0.3-0.4-0.7-0.7-1.1-1s-0.9-0.5-1.4-0.7
				c-0.6-0.2-1.1-0.2-1.8-0.2c-1.2,0-2.2,0.2-2.9,0.7c-0.7,0.5-1.1,1.1-1.1,2c0,0.6,0.2,1.1,0.7,1.5c0.4,0.4,1,0.7,1.7,1.1
				c0.7,0.3,1.5,0.7,2.5,0.9c0.9,0.2,1.8,0.6,2.8,1c1,0.3,1.9,0.7,2.8,1.2s1.7,1.1,2.5,1.7c0.7,0.7,1.3,1.5,1.7,2.5s0.7,2,0.7,3.4
				c0,1.4-0.2,2.7-0.8,3.8c-0.6,1.1-1.3,2-2.2,2.8c-1,0.7-2,1.3-3.4,1.7c-1.3,0.4-2.7,0.6-4.2,0.6c-1.4,0-2.6-0.2-3.8-0.6
				c-1.2-0.4-2.3-0.9-3.3-1.6c-1-0.7-1.8-1.6-2.5-2.5c-0.7-1-1.3-2.1-1.7-3.4l5.1-1.9c0.3,0.7,0.7,1.3,1.1,1.9
				c0.4,0.6,0.9,1.1,1.5,1.5c0.6,0.4,1.1,0.7,1.8,0.9c0.7,0.2,1.3,0.3,2,0.3s1.3-0.1,2-0.2c0.6-0.2,1.1-0.4,1.5-0.7
				c0.4-0.3,0.7-0.7,1-1.1c0.2-0.4,0.3-1,0.3-1.6c0-0.7-0.2-1.3-0.7-1.8c-0.4-0.5-1-0.9-1.7-1.2c-0.7-0.3-1.5-0.7-2.5-1
				c-0.9-0.3-1.8-0.6-2.8-0.9c-1-0.3-1.9-0.7-2.8-1.1s-1.7-1-2.5-1.6c-0.7-0.7-1.3-1.4-1.7-2.3c-0.4-0.9-0.7-2-0.7-3.3
				c0-1.1,0.2-2.1,0.7-3.1s1.1-1.8,2-2.5c0.9-0.7,1.9-1.3,3.1-1.7s2.6-0.7,4.2-0.7c1.3,0,2.5,0.2,3.6,0.5c1.1,0.3,2,0.8,2.8,1.4
				c0.7,0.6,1.5,1.3,2,2.1s1,1.7,1.2,2.7L378.3,528.7z"/>
		</g>
		<g>
			<path fill="#A9B8C6" d="M402.7,550.5c-1.6,0-3-0.2-4.2-0.7c-1.2-0.4-2.4-1-3.3-1.7c-1-0.7-1.8-1.6-2.5-2.5c-0.7-1-1.2-2-1.6-3.1
				c-0.4-1.1-0.7-2.3-0.9-3.5c-0.2-1.2-0.3-2.5-0.3-3.6c0-1.2,0.1-2.4,0.3-3.6c0.2-1.2,0.5-2.4,0.9-3.5c0.4-1.1,1-2.1,1.6-3.1
				c0.7-1,1.5-1.8,2.5-2.5s2-1.3,3.3-1.7c1.2-0.4,2.7-0.7,4.2-0.7s2.9,0.2,4.2,0.7c1.2,0.4,2.4,1,3.3,1.7c1,0.7,1.8,1.6,2.5,2.5
				c0.7,1,1.2,2,1.6,3.1c0.4,1.1,0.7,2.3,0.9,3.5c0.2,1.2,0.3,2.5,0.3,3.6c0,1.2-0.1,2.5-0.3,3.6c-0.2,1.2-0.5,2.4-0.9,3.5
				c-0.4,1.1-1,2.1-1.6,3.1c-0.7,1-1.5,1.8-2.5,2.5c-1,0.7-2,1.3-3.3,1.7C405.6,550.3,404.2,550.5,402.7,550.5z M402.7,545.1
				c1.3,0,2.4-0.3,3.3-0.9c0.9-0.6,1.6-1.4,2.1-2.4c0.6-1,1-2,1.2-3.1c0.2-1.1,0.3-2.2,0.3-3.3c0-0.7-0.1-1.5-0.2-2.3
				c-0.1-0.7-0.2-1.5-0.5-2.2c-0.2-0.7-0.5-1.4-0.9-2c-0.3-0.7-0.8-1.1-1.3-1.6c-0.5-0.5-1.1-0.8-1.8-1.1c-0.7-0.2-1.5-0.4-2.4-0.4
				s-1.6,0.2-2.4,0.4c-0.7,0.2-1.3,0.7-1.8,1.1s-1,1.1-1.3,1.7c-0.3,0.7-0.7,1.3-0.9,2s-0.4,1.5-0.5,2.2s-0.2,1.5-0.2,2.2
				c0,1.1,0.1,2.2,0.3,3.4c0.2,1.1,0.7,2.2,1.2,3.1c0.6,0.9,1.3,1.7,2.2,2.3C400.2,544.7,401.4,545.1,402.7,545.1z"/>
		</g>
		<g>
			<path fill="#A9B8C6" d="M433.1,550.5c-1.6,0-2.9-0.2-4.1-0.6c-1.2-0.4-2.2-1-3.2-1.7c-0.9-0.7-1.7-1.6-2.3-2.5
				c-0.7-1-1.1-2-1.6-3.1c-0.4-1.1-0.7-2.3-0.9-3.5c-0.2-1.2-0.2-2.5-0.2-3.6s0.1-2.3,0.2-3.4s0.5-2.3,0.9-3.4
				c0.4-1.1,0.9-2.1,1.6-3.2c0.7-1,1.4-1.9,2.3-2.6s2-1.3,3.1-1.8c1.2-0.4,2.5-0.7,4.1-0.7c1.4,0,2.7,0.2,3.8,0.6
				c1.1,0.4,2.1,0.9,3,1.5c0.9,0.7,1.6,1.3,2.2,2.1c0.6,0.8,1.1,1.6,1.4,2.4l-5.1,2.3c-0.3-0.6-0.7-1.1-1.1-1.5
				c-0.3-0.4-0.7-0.8-1.1-1.1c-0.4-0.3-0.9-0.5-1.4-0.7c-0.5-0.2-1.1-0.2-1.7-0.2c-0.8,0-1.6,0.2-2.2,0.4c-0.7,0.2-1.2,0.7-1.6,1.1
				c-0.5,0.5-0.9,1.1-1.2,1.6c-0.3,0.6-0.6,1.3-0.8,2c-0.2,0.7-0.3,1.5-0.4,2.2c-0.1,0.7-0.2,1.5-0.2,2.2c0,1.1,0.1,2.3,0.3,3.4
				c0.2,1.1,0.7,2.2,1.1,3.1c0.5,0.9,1.1,1.6,2,2.3c0.8,0.6,1.8,0.9,2.9,0.9c0.6,0,1.1-0.1,1.6-0.2c0.5-0.2,1-0.4,1.4-0.7
				c0.4-0.3,0.8-0.7,1.2-1.1c0.4-0.5,0.7-1,1.1-1.6l5.1,2c-0.5,1.1-1,2-1.6,2.9c-0.7,0.9-1.4,1.6-2.3,2.3c-0.9,0.7-1.8,1.1-2.9,1.5
				C435.7,550.3,434.5,550.5,433.1,550.5z"/>
		</g>
		<g>
			<path fill="#A9B8C6" d="M449.7,550v-29.2h5.6V550H449.7z"/>
		</g>
		<g>
			<path fill="#A9B8C6" d="M482.6,550l-2.3-6h-11.2l-2.2,6h-6l11.2-29.2h5.5l11.2,29.2H482.6z M475.6,531.3
				c-0.2-0.3-0.3-0.7-0.5-1.2c-0.2-0.5-0.3-1-0.4-1.4c-0.1,0.4-0.2,0.9-0.4,1.4c-0.2,0.5-0.3,0.9-0.5,1.2l-2.9,7.6h7.6L475.6,531.3z
				"/>
		</g>
		<g>
			<path fill="#A9B8C6" d="M493.9,550v-29.2h5.6v23.8h14.1v5.4H493.9L493.9,550z"/>
		</g>
		<g>
			<path fill="#A9B8C6" d="M549,550v-15c0-0.2,0-0.3,0-0.6c0-0.2,0-0.4,0-0.7c0-0.2,0-0.4,0-0.7c0-0.2,0-0.3,0-0.4
				c-0.2,0.5-0.3,0.9-0.4,1.2c-0.2,0.3-0.3,0.7-0.4,1.1l-7.1,15.5l-7.1-15.5c-0.2-0.3-0.3-0.7-0.4-1.1c-0.2-0.3-0.3-0.8-0.4-1.2
				c0,0.1,0,0.2,0,0.4s0,0.4,0,0.7c0,0.2,0,0.4,0,0.7c0,0.2,0,0.4,0,0.6v15h-5.6v-29.2h5.7l7.2,16.1c0.2,0.3,0.2,0.7,0.4,1
				c0.2,0.3,0.2,0.7,0.3,1c0.1-0.3,0.2-0.7,0.3-1c0.1-0.3,0.2-0.7,0.4-1l7.3-16.1h5.4V550H549z"/>
		</g>
		<g>
			<path fill="#A9B8C6" d="M562.2,550v-29.2h19.9v5.3h-14.3v6.1h8.4v5.3h-8.4v7H583v5.3L562.2,550L562.2,550z"/>
		</g>
		<g>
			<path fill="#A9B8C6" d="M589,520.8h9.9c1.7,0,3.2,0.2,4.6,0.6c1.4,0.4,2.5,0.9,3.6,1.6c1.1,0.7,2,1.5,2.7,2.5
				c0.7,0.9,1.4,2,1.9,3s0.8,2.2,1.1,3.4c0.2,1.2,0.3,2.4,0.3,3.6c0,1.1-0.1,2.3-0.3,3.4s-0.6,2.3-1,3.4c-0.5,1.1-1.1,2.1-1.8,3
				c-0.7,1-1.6,1.8-2.7,2.5c-1.1,0.7-2.3,1.3-3.7,1.7s-3,0.6-4.8,0.6h-9.6L589,520.8L589,520.8z M599.4,544.7c1.5,0,2.7-0.2,3.7-0.8
				s1.8-1.3,2.4-2.2s1.1-1.9,1.3-2.9c0.2-1.1,0.4-2.2,0.4-3.3c0-1.1-0.2-2.3-0.4-3.4c-0.2-1.1-0.7-2.1-1.3-2.9
				c-0.6-0.9-1.4-1.6-2.3-2.1c-0.9-0.6-2-0.8-3.3-0.8h-5.1v18.5L599.4,544.7L599.4,544.7z"/>
		</g>
		<g>
			<path fill="#A9B8C6" d="M619.6,550v-29.2h5.6V550H619.6z"/>
		</g>
		<g>
			<path fill="#A9B8C6" d="M652.6,550l-2.3-6h-11.2l-2.2,6h-6l11.2-29.2h5.5l11.2,29.2H652.6z M645.6,531.3
				c-0.2-0.3-0.3-0.7-0.5-1.2c-0.2-0.5-0.3-1-0.4-1.4c-0.1,0.4-0.2,0.9-0.4,1.4s-0.3,0.9-0.5,1.2l-2.9,7.6h7.6L645.6,531.3z"/>
		</g>
	</g>
</g>
<g>
	<g>
		<g>
			<path fill="#A9B8C6" d="M96.7,548.3c-6.2,0-11.7-1.1-16.3-3.1c-4.7-2-8.7-4.8-11.9-8.4c-3.2-3.6-5.6-7.8-7.1-12.7
				c-1.6-4.9-2.4-10.1-2.4-15.8c0-8.4,1.1-16.3,3.4-23.7s5.9-14.1,10.9-19.9c4.9-5.9,11.2-10.9,18.9-15c7.7-4.1,16.8-6.9,27.5-8.7
				v19c-3.8,0.6-7.6,1.5-11.4,2.8c-3.8,1.2-7.3,2.9-10.5,5c-3.3,2.1-6.2,4.7-8.8,7.6c-2.6,3-4.7,6.5-6.1,10.5
				c1.8-1.4,4.2-2.6,7.1-3.6c2.9-1,6.2-1.6,9.9-1.6c4.9,0,9.5,0.8,13.6,2.5c4.2,1.6,7.8,3.9,10.7,6.9c3,3,5.3,6.5,7,10.7
				s2.5,8.7,2.5,13.8c0,5-0.9,9.6-2.7,13.6c-1.8,4.1-4.3,7.7-7.6,10.5c-3.3,2.9-7.2,5.2-11.7,6.9
				C107.1,547.5,102.1,548.3,96.7,548.3z M96.7,529.4c2.5,0,4.7-0.3,6.8-1c2-0.7,3.8-1.6,5.4-2.9c1.6-1.2,2.7-2.8,3.6-4.6
				c0.9-1.8,1.3-3.8,1.3-6.2c0-2.4-0.4-4.5-1.3-6.3c-0.9-1.9-2-3.4-3.6-4.7c-1.6-1.3-3.4-2.3-5.4-2.9c-2-0.7-4.3-1-6.8-1
				s-4.7,0.3-6.9,1c-2.1,0.7-3.9,1.6-5.4,2.9c-1.6,1.3-2.7,2.9-3.6,4.7s-1.3,3.9-1.3,6.2c0,2.3,0.4,4.3,1.3,6.2
				c0.9,1.8,2,3.4,3.6,4.6s3.4,2.2,5.4,2.9C91.9,529,94.2,529.4,96.7,529.4z"/>
		</g>
		<g>
			<path fill="#A9B8C6" d="M139.6,546.5c0-7.7,1-14.5,2.9-20.4s4.5-11.2,7.8-15.8c3.3-4.6,7.1-8.6,11.5-12c4.4-3.4,9.1-6.5,14-9.2
				c1.9-1,3.7-2,5.5-3.2s3.4-2.4,4.7-3.7s2.5-2.9,3.4-4.5c0.8-1.6,1.2-3.4,1.2-5.5c0-3.8-1.2-6.8-3.7-8.9c-2.5-2.1-5.7-3.2-9.8-3.2
				c-4.3,0-8,1.1-10.9,3.1c-2.9,2-5.3,4.9-7,8.6l-17.8-8.2c1.5-3.4,3.4-6.6,5.9-9.3c2.4-2.8,5.1-5.1,8.2-7.1s6.4-3.4,10-4.5
				s7.4-1.6,11.4-1.6c5.3,0,10.1,0.8,14.3,2.4c4.2,1.6,7.8,3.8,10.6,6.5c2.9,2.8,5.1,6,6.6,9.7c1.6,3.8,2.3,7.8,2.3,12
				c0,4.7-0.7,8.8-2,12.2c-1.3,3.4-3.1,6.5-5.4,9c-2.3,2.6-5.1,5-8.3,7c-3.2,2.1-6.8,4.2-10.6,6.3c-5.4,3-9.9,6.1-13.4,9.5
				c-3.6,3.4-6,7.1-7.4,11.4h48.1v19.2h-71.8V546.5z"/>
		</g>
		<g>
			<path fill="#A9B8C6" d="M242.1,495.4c-4.6,0-8.5-0.8-11.7-2.5c-3.2-1.6-5.8-3.8-7.8-6.3c-2-2.6-3.4-5.5-4.3-8.7
				c-0.9-3.2-1.3-6.4-1.3-9.6c0-2,0.2-4,0.6-6.1s1-4.2,1.9-6.2c0.8-2,1.9-3.9,3.2-5.7c1.3-1.8,2.9-3.4,4.7-4.7
				c1.9-1.3,4-2.5,6.5-3.2c2.5-0.8,5.1-1.2,8.3-1.2c4.6,0,8.5,0.8,11.7,2.5c3.2,1.6,5.8,3.8,7.8,6.3c2,2.6,3.4,5.5,4.3,8.7
				c0.9,3.2,1.3,6.5,1.3,9.6c0,2.9-0.4,6-1.3,9.2c-0.9,3.2-2.3,6.1-4.2,8.7c-2,2.6-4.6,4.8-7.8,6.5
				C250.7,494.5,246.8,495.4,242.1,495.4z M247.1,548.3h-19l70.5-107.1h19L247.1,548.3z M242.1,479.4c1.5,0,2.8-0.3,3.8-0.9
				c1.1-0.6,2-1.4,2.7-2.5c0.7-1,1.2-2.2,1.6-3.5c0.3-1.3,0.5-2.7,0.5-4.2c0-3.4-0.7-6-2.1-8.1c-1.4-2-3.6-3.1-6.5-3.1
				c-1.5,0-2.8,0.3-3.8,0.9c-1.1,0.6-2,1.4-2.6,2.5c-0.7,1-1.2,2.2-1.6,3.5c-0.3,1.3-0.5,2.8-0.5,4.2c0,3.3,0.7,6,2.1,8
				C237.1,478.2,239.2,479.4,242.1,479.4z M303.4,548.3c-4.7,0-8.5-0.8-11.8-2.5c-3.2-1.6-5.8-3.8-7.8-6.3c-2-2.5-3.4-5.5-4.3-8.7
				c-0.9-3.2-1.3-6.5-1.3-9.6c0-2,0.2-4,0.6-6.1c0.4-2.1,1-4.2,1.9-6.2c0.8-2,1.9-3.9,3.2-5.7c1.3-1.8,2.9-3.4,4.7-4.7
				c1.9-1.3,4-2.5,6.5-3.2c2.5-0.8,5.1-1.2,8.3-1.2c4.6,0,8.5,0.8,11.7,2.5c3.2,1.6,5.8,3.8,7.8,6.3c2,2.6,3.4,5.5,4.3,8.7
				c0.9,3.2,1.3,6.5,1.3,9.6c0,3-0.4,6-1.3,9.2c-0.9,3.2-2.3,6.1-4.2,8.7c-2,2.6-4.6,4.8-7.8,6.5C311.9,547.5,308,548.3,303.4,548.3
				z M303.4,532.3c1.5,0,2.8-0.3,3.8-0.9c1.1-0.6,2-1.4,2.7-2.5c0.7-1,1.2-2.2,1.6-3.5c0.3-1.3,0.5-2.7,0.5-4.2c0-3.3-0.7-6-2.1-8
				s-3.6-3.1-6.5-3.1c-1.5,0-2.8,0.3-3.8,0.9c-1.1,0.6-2,1.4-2.7,2.5c-0.7,1-1.2,2.2-1.6,3.5c-0.3,1.4-0.5,2.8-0.5,4.2
				c0,3.3,0.7,6,2,8C298.2,531.3,300.3,532.3,303.4,532.3z"/>
		</g>
	</g>
</g>
<g>
	<path fill="#A9B8C6" d="M693.4,565.7H28.7V423.1h664.6V565.7z M30.7,563.7h660.6V425.1H30.7V563.7z"/>
</g>
<g>
	<g>
		<path fill="#A9B8C6" d="M429.3,610.7c0-30.6-34.1-55.5-76.2-55.5S277,580,277,610.7s34.1,55.5,76.2,55.5c11.6,0,22.6-1.9,32.4-5.3
			l0,0l21.6,19.1l4.7-34l0,0C422.8,636.4,429.3,624.1,429.3,610.7z"/>
	</g>
	<g>
		<circle fill="#FFFFFF" cx="315.3" cy="610.6" r="11.9"/>
	</g>
	<g>
		<circle fill="#FFFFFF" cx="353.1" cy="610.6" r="11.9"/>
	</g>
	<g>
		<circle fill="#FFFFFF" cx="391.5" cy="610.6" r="11.9"/>
	</g>
</g>
<g>
</g>
<g>
</g>
<g>
	<path fill="#A9B8C6" d="M372.7,136.1c-1.2,0-2.3-0.2-3.3-0.5c-1-0.3-1.8-0.8-2.6-1.3c-0.7-0.6-1.4-1.2-1.9-2
		c-0.5-0.8-1-1.6-1.3-2.4s-0.6-1.8-0.7-2.7s-0.2-1.9-0.2-2.8c0-0.9,0.1-1.9,0.2-2.8s0.4-1.9,0.7-2.7c0.3-0.9,0.8-1.7,1.3-2.4
		c0.5-0.8,1.2-1.4,1.9-2c0.7-0.6,1.6-1,2.6-1.3c1-0.3,2.1-0.5,3.3-0.5s2.3,0.2,3.3,0.5c1,0.3,1.8,0.8,2.6,1.3s1.4,1.2,1.9,2
		c0.5,0.8,1,1.6,1.3,2.4c0.3,0.9,0.6,1.8,0.7,2.7s0.2,1.9,0.2,2.8c0,0.9-0.1,1.9-0.2,2.8s-0.4,1.9-0.7,2.7s-0.8,1.7-1.3,2.4
		c-0.5,0.8-1.2,1.4-1.9,2s-1.6,1-2.6,1.3C375,135.9,373.9,136.1,372.7,136.1z M372.7,131.9c1,0,1.9-0.2,2.6-0.7
		c0.7-0.5,1.3-1.1,1.7-1.8c0.4-0.7,0.7-1.6,0.9-2.4c0.2-0.9,0.3-1.7,0.3-2.6c0-0.6,0-1.2-0.1-1.8c-0.1-0.6-0.2-1.2-0.4-1.7
		c-0.2-0.6-0.4-1.1-0.7-1.6c-0.3-0.5-0.6-0.9-1-1.3c-0.4-0.4-0.9-0.7-1.4-0.9c-0.5-0.2-1.1-0.3-1.8-0.3c-0.7,0-1.3,0.1-1.8,0.3
		c-0.5,0.2-1,0.5-1.4,0.9c-0.4,0.4-0.8,0.8-1,1.3c-0.3,0.5-0.5,1-0.7,1.6c-0.2,0.6-0.3,1.1-0.4,1.7c-0.1,0.6-0.1,1.1-0.1,1.7
		c0,0.9,0.1,1.7,0.3,2.6s0.5,1.7,0.9,2.4c0.4,0.7,1,1.3,1.7,1.8C370.8,131.6,371.6,131.9,372.7,131.9z"/>
	<path fill="#A9B8C6" d="M385.3,135.7v-22.7h15.2v4.2h-10.9v4.8h6.9v4.2h-6.9v9.6H385.3z"/>
	<path fill="#A9B8C6" d="M422.5,135.7l-1.8-4.7h-8.8l-1.7,4.7h-4.7l8.7-22.7h4.3l8.7,22.7H422.5z M417,121.1c-0.1-0.3-0.2-0.6-0.4-1
		c-0.1-0.4-0.2-0.7-0.3-1.1c-0.1,0.3-0.2,0.7-0.3,1.1c-0.1,0.4-0.3,0.7-0.4,1l-2.3,5.9h5.9L417,121.1z"/>
	<path fill="#A9B8C6" d="M445.6,135.7V124c0-0.1,0-0.3,0-0.4c0-0.2,0-0.3,0-0.5c0-0.2,0-0.3,0-0.5c0-0.1,0-0.3,0-0.3
		c-0.1,0.4-0.2,0.7-0.3,1s-0.2,0.6-0.3,0.8l-5.5,12.1l-5.6-12.1c-0.1-0.3-0.2-0.5-0.3-0.8s-0.2-0.6-0.3-1c0,0.1,0,0.2,0,0.3
		c0,0.1,0,0.3,0,0.5c0,0.2,0,0.3,0,0.5c0,0.2,0,0.3,0,0.4v11.7h-4.4v-22.7h4.5l5.6,12.5c0.1,0.3,0.2,0.5,0.3,0.8
		c0.1,0.2,0.2,0.5,0.3,0.8c0.1-0.3,0.2-0.5,0.3-0.8c0.1-0.2,0.2-0.5,0.3-0.8l5.7-12.5h4.2v22.7H445.6z"/>
	<path fill="#A9B8C6" d="M453.3,135.7v-22.7h15.5v4.2h-11.1v4.8h6.6v4.2h-6.6v5.5h11.8v4.2H453.3z"/>
	<path fill="#A9B8C6" d="M471.8,135.7v-22.7h10.6c1.4,0,2.6,0.2,3.6,0.6s1.7,0.9,2.3,1.6c0.6,0.7,1,1.4,1.3,2.3
		c0.3,0.9,0.4,1.8,0.4,2.7c0,0.6-0.1,1.3-0.3,2c-0.2,0.7-0.5,1.3-0.8,1.9s-0.8,1.1-1.4,1.6c-0.5,0.5-1.2,0.9-1.9,1.1l4.4,9.1h-4.9
		l-4.3-8.5h-4.6v8.5H471.8z M482.5,123.1c0.6,0,1-0.1,1.4-0.2c0.4-0.2,0.7-0.4,0.9-0.7c0.2-0.3,0.4-0.6,0.5-1
		c0.1-0.4,0.2-0.7,0.2-1.1c0-0.4,0-0.7-0.1-1.1c-0.1-0.4-0.2-0.7-0.5-1c-0.2-0.3-0.5-0.5-0.9-0.7c-0.4-0.2-0.9-0.3-1.5-0.3h-6.2v5.9
		H482.5z"/>
	<path fill="#A9B8C6" d="M492.8,135.7v-22.7h4.4v22.7H492.8z"/>
	<path fill="#A9B8C6" d="M509.5,136.1c-1.2,0-2.2-0.2-3.2-0.5c-0.9-0.3-1.8-0.8-2.5-1.3c-0.7-0.6-1.3-1.2-1.8-2
		c-0.5-0.8-0.9-1.6-1.2-2.4c-0.3-0.9-0.5-1.8-0.7-2.7c-0.1-0.9-0.2-1.9-0.2-2.8c0-0.9,0.1-1.8,0.2-2.7c0.1-0.9,0.4-1.8,0.7-2.7
		c0.3-0.9,0.7-1.7,1.2-2.5c0.5-0.8,1.1-1.4,1.8-2c0.7-0.6,1.5-1,2.5-1.4s2-0.5,3.2-0.5c1.1,0,2.1,0.1,3,0.4c0.9,0.3,1.7,0.7,2.3,1.2
		c0.7,0.5,1.3,1,1.7,1.6c0.5,0.6,0.8,1.2,1.1,1.9l-3.9,1.8c-0.3-0.4-0.6-0.8-0.8-1.1c-0.3-0.3-0.6-0.6-0.9-0.8s-0.7-0.4-1.1-0.5
		s-0.8-0.2-1.3-0.2c-0.6,0-1.2,0.1-1.7,0.3c-0.5,0.2-0.9,0.5-1.3,0.9c-0.4,0.4-0.7,0.8-0.9,1.3c-0.3,0.5-0.5,1-0.6,1.6
		c-0.2,0.6-0.3,1.1-0.3,1.7c-0.1,0.6-0.1,1.2-0.1,1.7c0,0.9,0.1,1.8,0.3,2.7c0.2,0.9,0.5,1.7,0.9,2.4c0.4,0.7,0.9,1.3,1.5,1.8
		c0.6,0.4,1.4,0.7,2.3,0.7c0.5,0,0.9-0.1,1.3-0.2c0.4-0.1,0.8-0.3,1.1-0.6s0.6-0.6,0.9-0.9c0.3-0.4,0.6-0.8,0.8-1.2l4,1.5
		c-0.4,0.8-0.8,1.6-1.3,2.3c-0.5,0.7-1.1,1.3-1.8,1.8s-1.4,0.9-2.3,1.2C511.4,135.9,510.5,136.1,509.5,136.1z"/>
	<path fill="#A9B8C6" d="M535,135.7l-1.8-4.7h-8.8l-1.7,4.7H518l8.7-22.7h4.3l8.7,22.7H535z M529.6,121.1c-0.1-0.3-0.2-0.6-0.4-1
		c-0.1-0.4-0.2-0.7-0.3-1.1c-0.1,0.3-0.2,0.7-0.3,1.1c-0.1,0.4-0.3,0.7-0.4,1l-2.3,5.9h5.9L529.6,121.1z"/>
	<path fill="#A9B8C6" d="M555.6,135.7l-9-13.3c-0.1-0.2-0.3-0.5-0.5-0.8c-0.2-0.3-0.3-0.6-0.5-0.9c0,0.2,0.1,0.5,0.1,0.9
		s0,0.6,0,0.9v13.3h-4.4v-22.7h4.1l8.8,13.1c0.1,0.2,0.3,0.5,0.5,0.8c0.2,0.3,0.3,0.6,0.5,0.9c0-0.3-0.1-0.6-0.1-0.9s0-0.6,0-0.8
		v-13.1h4.3v22.7H555.6z"/>
	<path fill="#A9B8C6" d="M573.9,119.1c-0.1-0.3-0.3-0.7-0.6-1c-0.2-0.3-0.5-0.6-0.8-0.8c-0.3-0.2-0.7-0.4-1.1-0.5
		c-0.4-0.1-0.9-0.2-1.4-0.2c-1,0-1.7,0.2-2.2,0.6s-0.8,0.9-0.8,1.6c0,0.5,0.2,0.8,0.5,1.1c0.3,0.3,0.8,0.6,1.3,0.8s1.2,0.5,1.9,0.7
		s1.4,0.5,2.2,0.7c0.7,0.3,1.5,0.6,2.2,1c0.7,0.4,1.3,0.8,1.9,1.3c0.5,0.5,1,1.2,1.3,1.9c0.3,0.7,0.5,1.6,0.5,2.6
		c0,1.1-0.2,2.1-0.6,3c-0.4,0.9-1,1.6-1.7,2.2c-0.7,0.6-1.6,1-2.6,1.3s-2.1,0.5-3.3,0.5c-1.1,0-2.1-0.1-3-0.4
		c-0.9-0.3-1.8-0.7-2.5-1.2c-0.8-0.5-1.4-1.2-2-2s-1-1.6-1.3-2.6l4-1.5c0.2,0.5,0.5,1,0.9,1.5c0.3,0.4,0.7,0.8,1.2,1.1
		s0.9,0.6,1.4,0.7c0.5,0.2,1,0.3,1.6,0.3c0.5,0,1-0.1,1.5-0.2c0.5-0.1,0.8-0.3,1.2-0.5c0.3-0.2,0.6-0.5,0.7-0.9
		c0.2-0.3,0.3-0.7,0.3-1.2c0-0.5-0.2-1-0.5-1.4c-0.3-0.4-0.8-0.7-1.3-1c-0.5-0.3-1.2-0.5-1.9-0.8c-0.7-0.2-1.4-0.5-2.2-0.7
		s-1.5-0.5-2.2-0.9c-0.7-0.3-1.3-0.8-1.9-1.3s-1-1.1-1.3-1.8c-0.3-0.7-0.5-1.5-0.5-2.5c0-0.9,0.2-1.7,0.5-2.4c0.3-0.8,0.8-1.4,1.5-2
		c0.7-0.6,1.5-1,2.4-1.4c1-0.3,2-0.5,3.3-0.5c1,0,2,0.1,2.8,0.4c0.8,0.3,1.6,0.6,2.2,1.1c0.6,0.5,1.2,1,1.6,1.7
		c0.4,0.6,0.8,1.3,1,2.1L573.9,119.1z"/>
	<path fill="#A9B8C6" d="M600.1,135.7v-9.6h-9.5v9.6h-4.4v-22.7h4.4v9h9.5v-9h4.4v22.7H600.1z"/>
	<path fill="#A9B8C6" d="M623.1,135.7l-1.8-4.7h-8.8l-1.7,4.7h-4.7l8.7-22.7h4.3l8.7,22.7H623.1z M617.7,121.1
		c-0.1-0.3-0.2-0.6-0.4-1c-0.1-0.4-0.2-0.7-0.3-1.1c-0.1,0.3-0.2,0.7-0.3,1.1c-0.1,0.4-0.3,0.7-0.4,1L614,127h5.9L617.7,121.1z"/>
	<path fill="#A9B8C6" d="M637.1,135.7h-4.2l-8.1-22.7h4.7l5,14.9c0.1,0.2,0.2,0.5,0.2,0.8s0.2,0.5,0.2,0.8c0.1-0.2,0.1-0.5,0.2-0.8
		c0.1-0.3,0.2-0.5,0.2-0.8l5-14.9h4.7L637.1,135.7z"/>
	<path fill="#A9B8C6" d="M646.9,135.7v-22.7h15.5v4.2h-11.1v4.8h6.6v4.2h-6.6v5.5h11.8v4.2H646.9z"/>
</g>
<g>
	<path fill="#A9B8C6" d="M384.9,177.2l-2.3-6.1h-11.4l-2.3,6.1h-6.1l11.3-29.5h5.6l11.3,29.5H384.9z M377.9,158.3
		c-0.2-0.4-0.3-0.8-0.5-1.3c-0.2-0.5-0.3-1-0.4-1.4c-0.1,0.4-0.3,0.9-0.4,1.4c-0.2,0.5-0.3,0.9-0.5,1.3l-2.9,7.7h7.7L377.9,158.3z"
		/>
	<path fill="#A9B8C6" d="M413.9,155.8c-0.2-0.4-0.4-0.9-0.7-1.2c-0.3-0.4-0.7-0.7-1.1-1c-0.4-0.3-0.9-0.5-1.4-0.7s-1.1-0.2-1.8-0.2
		c-1.2,0-2.2,0.2-2.9,0.7c-0.7,0.5-1,1.2-1,2.1c0,0.6,0.2,1.1,0.7,1.5c0.4,0.4,1,0.8,1.7,1.1c0.7,0.3,1.5,0.6,2.4,0.9s1.8,0.6,2.8,1
		c1,0.3,1.9,0.8,2.8,1.2c0.9,0.5,1.7,1.1,2.4,1.7c0.7,0.7,1.3,1.5,1.7,2.5c0.4,1,0.7,2.1,0.7,3.4c0,1.4-0.3,2.7-0.8,3.8
		s-1.3,2.1-2.3,2.8c-1,0.8-2.1,1.4-3.4,1.7c-1.3,0.4-2.7,0.6-4.2,0.6c-1.4,0-2.7-0.2-3.9-0.6c-1.2-0.4-2.3-0.9-3.3-1.6
		c-1-0.7-1.8-1.6-2.6-2.6c-0.7-1-1.3-2.1-1.7-3.4l5.2-1.9c0.3,0.7,0.7,1.3,1.1,1.9c0.4,0.6,0.9,1.1,1.5,1.5s1.1,0.7,1.8,0.9
		c0.6,0.2,1.3,0.3,2,0.3c0.7,0,1.4-0.1,1.9-0.2s1.1-0.4,1.5-0.7c0.4-0.3,0.7-0.7,1-1.1c0.2-0.4,0.3-1,0.3-1.6c0-0.7-0.2-1.3-0.7-1.8
		c-0.4-0.5-1-0.9-1.7-1.3c-0.7-0.4-1.5-0.7-2.4-1s-1.8-0.6-2.8-0.9c-1-0.3-1.9-0.7-2.8-1.2s-1.7-1-2.4-1.6c-0.7-0.6-1.3-1.4-1.7-2.3
		c-0.4-0.9-0.7-2-0.7-3.3c0-1.1,0.2-2.2,0.7-3.1c0.4-1,1.1-1.8,1.9-2.6c0.9-0.7,1.9-1.3,3.1-1.8s2.6-0.6,4.2-0.6
		c1.3,0,2.5,0.2,3.6,0.5c1.1,0.3,2,0.8,2.9,1.4c0.8,0.6,1.5,1.3,2.1,2.2c0.6,0.8,1,1.7,1.3,2.7L413.9,155.8z"/>
	<path fill="#A9B8C6" d="M435.3,177.8c-1.6,0-3-0.2-4.3-0.6c-1.3-0.4-2.4-1-3.3-1.7c-1-0.7-1.8-1.6-2.5-2.6c-0.7-1-1.2-2-1.7-3.2
		c-0.4-1.1-0.7-2.3-0.9-3.5c-0.2-1.2-0.3-2.5-0.3-3.7c0-1.2,0.1-2.4,0.3-3.7c0.2-1.2,0.5-2.4,0.9-3.5c0.4-1.1,1-2.2,1.7-3.2
		c0.7-1,1.5-1.8,2.5-2.6c1-0.7,2.1-1.3,3.3-1.7c1.3-0.4,2.7-0.6,4.3-0.6c1.6,0,3,0.2,4.3,0.6c1.3,0.4,2.4,1,3.3,1.7s1.8,1.6,2.5,2.6
		c0.7,1,1.2,2,1.7,3.2c0.4,1.1,0.7,2.3,0.9,3.5s0.3,2.4,0.3,3.7c0,1.2-0.1,2.4-0.3,3.7c-0.2,1.2-0.5,2.4-0.9,3.5
		c-0.4,1.1-1,2.2-1.7,3.2c-0.7,1-1.5,1.8-2.5,2.6c-1,0.7-2.1,1.3-3.3,1.7C438.3,177.6,436.9,177.8,435.3,177.8z M435.3,172.3
		c1.3,0,2.4-0.3,3.3-0.9c0.9-0.6,1.6-1.4,2.2-2.4c0.6-1,1-2,1.2-3.2c0.2-1.1,0.4-2.3,0.4-3.3c0-0.8-0.1-1.5-0.2-2.3
		c-0.1-0.8-0.3-1.5-0.5-2.2c-0.2-0.7-0.5-1.4-0.9-2c-0.4-0.6-0.8-1.2-1.3-1.7s-1.1-0.8-1.8-1.1c-0.7-0.3-1.5-0.4-2.4-0.4
		c-0.9,0-1.7,0.1-2.4,0.4c-0.7,0.3-1.3,0.7-1.8,1.2c-0.5,0.5-1,1.1-1.3,1.7c-0.4,0.6-0.7,1.3-0.9,2.1c-0.2,0.7-0.4,1.5-0.5,2.2
		c-0.1,0.8-0.2,1.5-0.2,2.2c0,1.1,0.1,2.3,0.4,3.4c0.2,1.2,0.6,2.2,1.2,3.1c0.6,0.9,1.3,1.7,2.2,2.3S434,172.3,435.3,172.3z"/>
	<path fill="#A9B8C6" d="M463,177.7c-1.5,0-2.9-0.2-4.1-0.6s-2.3-1-3.2-1.7c-0.9-0.7-1.7-1.6-2.3-2.6c-0.6-1-1.2-2-1.6-3.2
		c-0.4-1.1-0.7-2.3-0.9-3.5c-0.2-1.2-0.3-2.4-0.3-3.7c0-1.1,0.1-2.3,0.3-3.5c0.2-1.2,0.5-2.3,0.9-3.5c0.4-1.1,0.9-2.2,1.6-3.2
		c0.7-1,1.4-1.9,2.3-2.6s2-1.4,3.2-1.8s2.6-0.7,4.1-0.7c1.4,0,2.7,0.2,3.8,0.6c1.2,0.4,2.2,0.9,3,1.5c0.9,0.6,1.6,1.3,2.2,2.1
		c0.6,0.8,1.1,1.6,1.4,2.4l-5.1,2.3c-0.4-0.5-0.7-1-1.1-1.5s-0.8-0.8-1.2-1.1c-0.4-0.3-0.9-0.5-1.4-0.7c-0.5-0.2-1.1-0.2-1.7-0.2
		c-0.8,0-1.6,0.1-2.2,0.4s-1.2,0.7-1.7,1.1c-0.5,0.5-0.9,1-1.2,1.7c-0.3,0.6-0.6,1.3-0.8,2c-0.2,0.7-0.4,1.5-0.4,2.2
		c-0.1,0.8-0.1,1.5-0.1,2.2c0,1.2,0.1,2.3,0.4,3.5s0.6,2.2,1.2,3.1c0.5,0.9,1.2,1.7,2,2.3s1.8,0.9,3,0.9c0.6,0,1.2-0.1,1.7-0.3
		c0.5-0.2,1-0.4,1.4-0.8c0.4-0.3,0.8-0.7,1.2-1.2c0.4-0.5,0.7-1,1.1-1.5l5.2,2c-0.5,1.1-1,2.1-1.7,3c-0.7,0.9-1.4,1.7-2.3,2.3
		c-0.9,0.6-1.9,1.1-3,1.5C465.5,177.5,464.3,177.7,463,177.7z"/>
	<path fill="#A9B8C6" d="M476.5,177.2v-29.5h5.7v29.5H476.5z"/>
	<path fill="#A9B8C6" d="M506.7,177.2l-2.3-6.1H493l-2.3,6.1h-6.1l11.3-29.5h5.6l11.3,29.5H506.7z M499.6,158.3
		c-0.2-0.4-0.3-0.8-0.5-1.3c-0.2-0.5-0.3-1-0.4-1.4c-0.1,0.4-0.3,0.9-0.4,1.4c-0.2,0.5-0.3,0.9-0.5,1.3l-2.9,7.7h7.7L499.6,158.3z"
		/>
	<path fill="#A9B8C6" d="M515,177.2v-29.5h5.7v24h14.2v5.5H515z"/>
	<path fill="#A9B8C6" d="M564.4,177.2v-15.2c0-0.2,0-0.4,0-0.6c0-0.2,0-0.4,0-0.7c0-0.2,0-0.4,0-0.6c0-0.2,0-0.3,0-0.5
		c-0.2,0.5-0.3,0.9-0.4,1.3c-0.1,0.4-0.3,0.7-0.4,1.1l-7.2,15.7l-7.2-15.7c-0.2-0.3-0.3-0.7-0.4-1.1c-0.1-0.4-0.3-0.8-0.4-1.3
		c0,0.1,0,0.3,0,0.5c0,0.2,0,0.4,0,0.6c0,0.2,0,0.4,0,0.7c0,0.2,0,0.4,0,0.6v15.2h-5.7v-29.5h5.8l7.2,16.3c0.2,0.4,0.3,0.7,0.4,1
		c0.1,0.3,0.2,0.7,0.3,1c0.1-0.3,0.2-0.7,0.4-1c0.1-0.3,0.3-0.7,0.4-1l7.4-16.3h5.4v29.5H564.4z"/>
	<path fill="#A9B8C6" d="M574.5,177.2v-29.5h20.1v5.4h-14.4v6.2h8.5v5.4h-8.5v7.1h15.3v5.4H574.5z"/>
	<path fill="#A9B8C6" d="M598.4,147.7h10c1.7,0,3.3,0.2,4.6,0.6c1.4,0.4,2.6,0.9,3.7,1.6c1.1,0.7,2,1.5,2.7,2.4c0.8,0.9,1.4,2,1.9,3
		c0.5,1.1,0.8,2.2,1.1,3.4c0.2,1.2,0.3,2.4,0.3,3.6c0,1.1-0.1,2.3-0.3,3.4c-0.2,1.2-0.6,2.3-1,3.4c-0.5,1.1-1.1,2.1-1.8,3.1
		c-0.7,1-1.7,1.8-2.7,2.5c-1.1,0.7-2.3,1.3-3.7,1.7s-3,0.6-4.8,0.6h-9.8V147.7z M608.9,171.9c1.5,0,2.7-0.3,3.7-0.9
		c1-0.6,1.8-1.3,2.4-2.2s1.1-1.9,1.3-3c0.3-1.1,0.4-2.2,0.4-3.3c0-1.2-0.1-2.3-0.4-3.4c-0.3-1.1-0.7-2.1-1.3-3s-1.4-1.6-2.3-2.1
		c-0.9-0.5-2.1-0.8-3.3-0.8h-5.2v18.7H608.9z"/>
	<path fill="#A9B8C6" d="M626.3,177.2v-29.5h5.7v29.5H626.3z"/>
	<path fill="#A9B8C6" d="M656.4,177.2l-2.3-6.1h-11.4l-2.3,6.1h-6.1l11.3-29.5h5.6l11.3,29.5H656.4z M649.4,158.3
		c-0.2-0.4-0.3-0.8-0.5-1.3c-0.2-0.5-0.3-1-0.4-1.4c-0.1,0.4-0.3,0.9-0.4,1.4c-0.2,0.5-0.3,0.9-0.5,1.3l-2.9,7.7h7.7L649.4,158.3z"
		/>
</g>
<g>
	<path fill="#A9B8C6" d="M383,215.5l-2.2-5.8h-10.8l-2.1,5.8h-5.8l10.7-27.9h5.3l10.7,27.9H383z M376.4,197.6
		c-0.1-0.3-0.3-0.7-0.5-1.2c-0.2-0.5-0.3-0.9-0.4-1.3c-0.1,0.4-0.2,0.8-0.4,1.3c-0.2,0.5-0.3,0.9-0.5,1.2l-2.8,7.3h7.3L376.4,197.6z
		"/>
	<path fill="#A9B8C6" d="M399.6,215.9c-1.5,0-2.7-0.2-3.9-0.6c-1.1-0.4-2.1-0.9-3-1.6c-0.9-0.7-1.6-1.5-2.2-2.4s-1.1-1.9-1.5-3
		c-0.4-1.1-0.7-2.2-0.8-3.3c-0.2-1.2-0.3-2.3-0.3-3.5c0-1.1,0.1-2.2,0.3-3.3s0.5-2.2,0.8-3.3c0.4-1.1,0.9-2.1,1.5-3
		c0.6-0.9,1.4-1.8,2.2-2.5c0.9-0.7,1.9-1.3,3-1.7c1.1-0.4,2.4-0.6,3.9-0.6c1.3,0,2.5,0.2,3.6,0.5s2,0.8,2.9,1.4
		c0.8,0.6,1.5,1.3,2.1,2c0.6,0.8,1,1.5,1.3,2.3l-4.8,2.2c-0.3-0.5-0.7-1-1-1.4c-0.4-0.4-0.7-0.8-1.1-1c-0.4-0.3-0.8-0.5-1.3-0.6
		s-1-0.2-1.6-0.2c-0.8,0-1.5,0.1-2.1,0.4c-0.6,0.3-1.1,0.6-1.6,1.1c-0.5,0.5-0.8,1-1.1,1.6c-0.3,0.6-0.6,1.3-0.8,1.9
		c-0.2,0.7-0.3,1.4-0.4,2.1c-0.1,0.7-0.1,1.4-0.1,2.1c0,1.1,0.1,2.2,0.3,3.3c0.2,1.1,0.6,2.1,1.1,3c0.5,0.9,1.1,1.6,1.9,2.1
		c0.8,0.6,1.7,0.8,2.8,0.8c0.6,0,1.1-0.1,1.6-0.3c0.5-0.2,0.9-0.4,1.3-0.7c0.4-0.3,0.8-0.7,1.1-1.1c0.4-0.4,0.7-0.9,1-1.5l4.9,1.9
		c-0.4,1-1,2-1.6,2.8c-0.6,0.8-1.3,1.6-2.2,2.2c-0.8,0.6-1.8,1.1-2.8,1.4C402,215.8,400.9,215.9,399.6,215.9z"/>
	<path fill="#A9B8C6" d="M422.9,215.9c-1.5,0-2.7-0.2-3.9-0.6c-1.1-0.4-2.1-0.9-3-1.6c-0.9-0.7-1.6-1.5-2.2-2.4s-1.1-1.9-1.5-3
		c-0.4-1.1-0.7-2.2-0.8-3.3c-0.2-1.2-0.3-2.3-0.3-3.5c0-1.1,0.1-2.2,0.3-3.3s0.5-2.2,0.8-3.3c0.4-1.1,0.9-2.1,1.5-3
		c0.6-0.9,1.4-1.8,2.2-2.5c0.9-0.7,1.9-1.3,3-1.7c1.1-0.4,2.4-0.6,3.9-0.6c1.3,0,2.5,0.2,3.6,0.5s2,0.8,2.9,1.4
		c0.8,0.6,1.5,1.3,2.1,2c0.6,0.8,1,1.5,1.3,2.3l-4.8,2.2c-0.3-0.5-0.7-1-1-1.4c-0.4-0.4-0.7-0.8-1.1-1c-0.4-0.3-0.8-0.5-1.3-0.6
		s-1-0.2-1.6-0.2c-0.8,0-1.5,0.1-2.1,0.4c-0.6,0.3-1.1,0.6-1.6,1.1c-0.5,0.5-0.8,1-1.1,1.6c-0.3,0.6-0.6,1.3-0.8,1.9
		c-0.2,0.7-0.3,1.4-0.4,2.1c-0.1,0.7-0.1,1.4-0.1,2.1c0,1.1,0.1,2.2,0.3,3.3c0.2,1.1,0.6,2.1,1.1,3c0.5,0.9,1.1,1.6,1.9,2.1
		c0.8,0.6,1.7,0.8,2.8,0.8c0.6,0,1.1-0.1,1.6-0.3c0.5-0.2,0.9-0.4,1.3-0.7c0.4-0.3,0.8-0.7,1.1-1.1c0.4-0.4,0.7-0.9,1-1.5l4.9,1.9
		c-0.4,1-1,2-1.6,2.8c-0.6,0.8-1.3,1.6-2.2,2.2c-0.8,0.6-1.8,1.1-2.8,1.4C425.3,215.8,424.2,215.9,422.9,215.9z"/>
	<path fill="#A9B8C6" d="M446.8,216c-1.5,0-2.9-0.2-4-0.6c-1.2-0.4-2.2-0.9-3.2-1.6s-1.7-1.5-2.3-2.4c-0.6-0.9-1.2-1.9-1.6-3
		c-0.4-1.1-0.7-2.2-0.9-3.3c-0.2-1.2-0.3-2.3-0.3-3.5c0-1.1,0.1-2.3,0.3-3.5c0.2-1.2,0.5-2.3,0.9-3.3c0.4-1.1,0.9-2.1,1.6-3
		c0.6-0.9,1.4-1.7,2.3-2.4s2-1.2,3.2-1.6c1.2-0.4,2.5-0.6,4-0.6s2.8,0.2,4,0.6c1.2,0.4,2.2,0.9,3.1,1.6c0.9,0.7,1.7,1.5,2.3,2.4
		c0.6,0.9,1.2,1.9,1.6,3c0.4,1.1,0.7,2.2,0.9,3.3c0.2,1.2,0.3,2.3,0.3,3.5c0,1.2-0.1,2.3-0.3,3.5c-0.2,1.2-0.5,2.3-0.9,3.3
		c-0.4,1.1-0.9,2.1-1.6,3c-0.6,0.9-1.4,1.7-2.3,2.4c-0.9,0.7-2,1.2-3.1,1.6C449.7,215.8,448.3,216,446.8,216z M446.8,210.8
		c1.2,0,2.3-0.3,3.1-0.9c0.8-0.6,1.5-1.3,2.1-2.2c0.5-0.9,0.9-1.9,1.1-3c0.2-1.1,0.4-2.1,0.4-3.1c0-0.7,0-1.4-0.1-2.2
		c-0.1-0.7-0.3-1.4-0.5-2.1c-0.2-0.7-0.5-1.3-0.9-1.9c-0.3-0.6-0.8-1.1-1.3-1.6c-0.5-0.4-1.1-0.8-1.7-1.1c-0.7-0.3-1.4-0.4-2.2-0.4
		c-0.8,0-1.6,0.1-2.2,0.4c-0.7,0.3-1.2,0.6-1.7,1.1c-0.5,0.5-0.9,1-1.3,1.6c-0.4,0.6-0.6,1.3-0.9,1.9s-0.4,1.4-0.5,2.1
		c-0.1,0.7-0.1,1.4-0.1,2.1c0,1.1,0.1,2.1,0.3,3.2c0.2,1.1,0.6,2.1,1.1,3c0.5,0.9,1.2,1.6,2.1,2.2
		C444.5,210.5,445.6,210.8,446.8,210.8z"/>
	<path fill="#A9B8C6" d="M473.3,216c-0.9,0-1.9-0.1-2.8-0.2s-1.8-0.4-2.6-0.8c-0.8-0.4-1.6-0.8-2.3-1.4c-0.7-0.6-1.3-1.3-1.8-2.1
		s-0.9-1.8-1.2-2.9c-0.3-1.1-0.4-2.3-0.4-3.7v-17.2h5.4v17.2c0,1.2,0.1,2.1,0.4,2.9c0.3,0.8,0.7,1.4,1.2,1.8c0.5,0.5,1.1,0.8,1.8,1
		c0.7,0.2,1.5,0.3,2.5,0.3c0.9,0,1.7-0.1,2.4-0.3s1.3-0.5,1.8-1c0.5-0.5,0.9-1.1,1.2-1.8c0.3-0.8,0.4-1.7,0.4-2.9v-17.2h5.4v17.2
		c0,2.1-0.3,3.8-0.9,5.2c-0.6,1.4-1.5,2.6-2.5,3.4c-1,0.9-2.2,1.5-3.6,1.9C476.2,215.8,474.8,216,473.3,216z"/>
	<path fill="#A9B8C6" d="M506,215.5l-11.1-16.3c-0.2-0.3-0.4-0.6-0.6-1s-0.4-0.8-0.6-1.1c0,0.3,0.1,0.6,0.1,1c0,0.4,0,0.8,0,1.1
		v16.3h-5.3v-27.9h5.1l10.8,16.1c0.2,0.3,0.4,0.6,0.6,1c0.2,0.4,0.4,0.8,0.6,1.1c0-0.4-0.1-0.8-0.1-1.1s0-0.7,0-1v-16.1h5.3v27.9
		H506z"/>
	<path fill="#A9B8C6" d="M526.5,192.8v22.7h-5.4v-22.7h-8v-5.2h21.3v5.2H526.5z"/>
	<path fill="#A9B8C6" d="M543.2,215.5v-27.9h5.4v27.9H543.2z"/>
	<path fill="#A9B8C6" d="M570.4,215.5l-11.1-16.3c-0.2-0.3-0.4-0.6-0.6-1s-0.4-0.8-0.6-1.1c0,0.3,0.1,0.6,0.1,1c0,0.4,0,0.8,0,1.1
		v16.3H553v-27.9h5.1l10.8,16.1c0.2,0.3,0.4,0.6,0.6,1c0.2,0.4,0.4,0.8,0.6,1.1c0-0.4-0.1-0.8-0.1-1.1s0-0.7,0-1v-16.1h5.3v27.9
		H570.4z"/>
	<path fill="#A9B8C6" d="M584.6,215.5c0-2.1,0.3-3.9,0.8-5.5c0.5-1.6,1.2-3,2.1-4.2c0.9-1.2,1.9-2.3,3.1-3.2
		c1.2-0.9,2.4-1.8,3.8-2.5c0.5-0.3,1-0.6,1.5-0.9s0.9-0.6,1.3-1c0.4-0.4,0.7-0.8,0.9-1.2c0.2-0.4,0.3-0.9,0.3-1.5c0-1-0.3-1.8-1-2.4
		c-0.7-0.6-1.5-0.9-2.6-0.9c-1.2,0-2.1,0.3-2.9,0.8s-1.4,1.3-1.9,2.3l-4.8-2.2c0.4-0.9,0.9-1.8,1.6-2.5c0.6-0.7,1.4-1.4,2.2-1.9
		c0.8-0.5,1.7-0.9,2.7-1.2s2-0.4,3.1-0.4c1.4,0,2.7,0.2,3.9,0.6s2.1,1,2.9,1.8c0.8,0.7,1.4,1.6,1.8,2.6s0.6,2.1,0.6,3.2
		c0,1.3-0.2,2.4-0.5,3.3c-0.4,0.9-0.8,1.7-1.5,2.4c-0.6,0.7-1.4,1.3-2.2,1.9s-1.8,1.1-2.9,1.7c-1.5,0.8-2.7,1.7-3.6,2.6
		c-1,0.9-1.6,1.9-2,3.1h12.9v5.2H584.6z"/>
	<path fill="#A9B8C6" d="M616.9,216c-1.3,0-2.5-0.2-3.5-0.6s-1.9-0.9-2.7-1.6c-0.8-0.7-1.4-1.5-1.9-2.4c-0.5-0.9-0.9-1.9-1.2-3
		c-0.3-1.1-0.5-2.2-0.7-3.3s-0.2-2.3-0.2-3.4c0-1.1,0.1-2.3,0.2-3.5c0.1-1.2,0.4-2.3,0.7-3.3c0.3-1.1,0.7-2.1,1.2-3
		c0.5-0.9,1.2-1.7,1.9-2.4c0.8-0.7,1.7-1.2,2.7-1.6s2.2-0.6,3.5-0.6c1.3,0,2.5,0.2,3.5,0.6c1,0.4,1.9,0.9,2.7,1.6
		c0.8,0.7,1.4,1.5,1.9,2.4c0.5,0.9,0.9,1.9,1.2,3c0.3,1.1,0.5,2.2,0.7,3.3c0.1,1.2,0.2,2.3,0.2,3.5c0,1.1-0.1,2.3-0.2,3.4
		c-0.1,1.2-0.4,2.3-0.7,3.3c-0.3,1.1-0.7,2.1-1.2,3c-0.5,0.9-1.2,1.7-1.9,2.4c-0.8,0.7-1.7,1.2-2.7,1.6S618.2,216,616.9,216z
		 M616.9,210.9c0.9,0,1.7-0.3,2.4-0.8s1.1-1.2,1.5-2.1c0.4-0.9,0.6-1.9,0.8-3s0.2-2.3,0.2-3.4s-0.1-2.3-0.2-3.4
		c-0.2-1.1-0.4-2.1-0.8-3c-0.4-0.9-0.9-1.6-1.5-2.1s-1.4-0.8-2.4-0.8c-0.9,0-1.7,0.3-2.4,0.8s-1.1,1.2-1.5,2.1
		c-0.4,0.9-0.6,1.9-0.8,3c-0.2,1.1-0.2,2.3-0.2,3.4s0.1,2.3,0.2,3.4s0.4,2.1,0.8,3c0.4,0.9,0.9,1.6,1.5,2.1S615.9,210.9,616.9,210.9
		z"/>
	<path fill="#A9B8C6" d="M632.8,215.5v-20.6h-4.3v-4.3c0.7,0,1.3,0,1.8-0.1c0.6-0.1,1.1-0.3,1.5-0.5s0.9-0.5,1.2-0.9
		c0.3-0.4,0.6-0.9,0.8-1.4h4.3v27.9H632.8z"/>
	<path fill="#A9B8C6" d="M653.5,216c-1.7,0-3.1-0.3-4.4-0.8c-1.3-0.6-2.3-1.3-3.2-2.3c-0.9-1-1.5-2.1-1.9-3.4s-0.6-2.7-0.6-4.2
		c0-2.3,0.3-4.4,0.9-6.4c0.6-2,1.6-3.8,2.9-5.4c1.3-1.6,3-2.9,5.1-4c2.1-1.1,4.5-1.9,7.4-2.3v5.1c-1,0.2-2,0.4-3.1,0.7
		c-1,0.3-2,0.8-2.8,1.4c-0.9,0.6-1.7,1.2-2.4,2.1c-0.7,0.8-1.3,1.7-1.7,2.8c0.5-0.4,1.1-0.7,1.9-1c0.8-0.3,1.7-0.4,2.7-0.4
		c1.3,0,2.5,0.2,3.7,0.7c1.1,0.4,2.1,1.1,2.9,1.9c0.8,0.8,1.4,1.8,1.9,2.9c0.5,1.1,0.7,2.4,0.7,3.7c0,1.3-0.2,2.6-0.7,3.7
		s-1.2,2.1-2.1,2.8c-0.9,0.8-1.9,1.4-3.2,1.8C656.3,215.8,655,216,653.5,216z M653.5,210.9c0.7,0,1.3-0.1,1.8-0.3
		c0.6-0.2,1-0.4,1.4-0.8c0.4-0.3,0.7-0.7,1-1.2c0.2-0.5,0.4-1,0.4-1.7c0-0.6-0.1-1.2-0.4-1.7c-0.2-0.5-0.6-0.9-1-1.3
		c-0.4-0.3-0.9-0.6-1.4-0.8c-0.6-0.2-1.2-0.3-1.8-0.3s-1.3,0.1-1.8,0.3c-0.6,0.2-1,0.4-1.5,0.8c-0.4,0.4-0.7,0.8-1,1.3
		c-0.2,0.5-0.4,1.1-0.4,1.7c0,0.6,0.1,1.2,0.4,1.7c0.2,0.5,0.6,0.9,1,1.2c0.4,0.3,0.9,0.6,1.5,0.8
		C652.2,210.8,652.8,210.9,653.5,210.9z"/>
</g>
<g>
	<path fill="#A9B8C6" d="M373.5,299.8c-1.3,0-2.5-0.2-3.5-0.5c-1-0.3-2-0.8-2.8-1.4c-0.8-0.6-1.5-1.3-2-2.1c-0.6-0.8-1-1.7-1.4-2.6
		c-0.4-0.9-0.6-1.9-0.8-2.9c-0.2-1-0.2-2-0.2-3c0-1,0.1-2,0.2-3s0.4-2,0.8-2.9c0.4-0.9,0.8-1.8,1.4-2.6c0.6-0.8,1.2-1.5,2-2.1
		c0.8-0.6,1.7-1.1,2.8-1.4c1-0.3,2.2-0.5,3.5-0.5c1.3,0,2.5,0.2,3.5,0.5c1,0.3,1.9,0.8,2.7,1.4c0.8,0.6,1.5,1.3,2,2.1
		c0.6,0.8,1,1.7,1.4,2.6c0.4,0.9,0.6,1.9,0.8,2.9c0.2,1,0.2,2,0.2,3c0,1-0.1,2-0.2,3c-0.2,1-0.4,2-0.8,2.9c-0.4,0.9-0.8,1.8-1.4,2.6
		c-0.6,0.8-1.2,1.5-2,2.1c-0.8,0.6-1.7,1.1-2.7,1.4C376,299.6,374.8,299.8,373.5,299.8z M373.5,295.2c1.1,0,2-0.3,2.7-0.8
		c0.7-0.5,1.3-1.2,1.8-2c0.5-0.8,0.8-1.7,1-2.6c0.2-0.9,0.3-1.9,0.3-2.7c0-0.6,0-1.3-0.1-1.9c-0.1-0.6-0.2-1.3-0.4-1.8
		s-0.4-1.2-0.7-1.7c-0.3-0.5-0.7-1-1.1-1.4c-0.4-0.4-0.9-0.7-1.5-0.9c-0.6-0.2-1.2-0.3-1.9-0.3c-0.7,0-1.4,0.1-2,0.4
		c-0.6,0.2-1.1,0.6-1.5,1c-0.4,0.4-0.8,0.9-1.1,1.4c-0.3,0.5-0.6,1.1-0.7,1.7c-0.2,0.6-0.3,1.2-0.4,1.8s-0.1,1.2-0.1,1.8
		c0,0.9,0.1,1.9,0.3,2.8c0.2,1,0.5,1.8,1,2.6s1.1,1.4,1.8,1.9C371.5,295,372.4,295.2,373.5,295.2z"/>
	<path fill="#A9B8C6" d="M387,299.3V275h16.3v4.5h-11.6v5.1h7.4v4.4h-7.4v10.3H387z"/>
	<path fill="#A9B8C6" d="M426.7,299.3l-1.9-5h-9.4l-1.9,5h-5l9.3-24.3h4.6l9.3,24.3H426.7z M420.9,283.7c-0.1-0.3-0.3-0.6-0.4-1.1
		c-0.1-0.4-0.3-0.8-0.4-1.1c-0.1,0.4-0.2,0.7-0.4,1.1c-0.1,0.4-0.3,0.8-0.4,1.1L417,290h6.3L420.9,283.7z"/>
	<path fill="#A9B8C6" d="M451.4,299.3v-12.5c0-0.1,0-0.3,0-0.5c0-0.2,0-0.4,0-0.6c0-0.2,0-0.4,0-0.5s0-0.3,0-0.4
		c-0.1,0.4-0.2,0.7-0.4,1c-0.1,0.3-0.2,0.6-0.4,0.9l-5.9,12.9l-5.9-12.9c-0.1-0.3-0.2-0.6-0.4-0.9c-0.1-0.3-0.2-0.7-0.4-1
		c0,0.1,0,0.2,0,0.4c0,0.2,0,0.3,0,0.5s0,0.4,0,0.6c0,0.2,0,0.3,0,0.5v12.5h-4.7V275h4.8l6,13.4c0.1,0.3,0.2,0.6,0.3,0.8
		s0.2,0.5,0.3,0.8c0.1-0.3,0.2-0.6,0.3-0.8c0.1-0.3,0.2-0.5,0.3-0.8l6.1-13.4h4.5v24.3H451.4z"/>
	<path fill="#A9B8C6" d="M459.8,299.3V275h16.6v4.5h-11.9v5.1h7v4.4h-7v5.9h12.6v4.4H459.8z"/>
	<path fill="#A9B8C6" d="M479.5,299.3V275h11.3c1.5,0,2.8,0.2,3.9,0.6c1,0.4,1.9,1,2.5,1.7s1.1,1.5,1.4,2.4s0.4,1.9,0.4,2.9
		c0,0.7-0.1,1.4-0.3,2.1c-0.2,0.7-0.5,1.4-0.9,2c-0.4,0.6-0.9,1.2-1.5,1.7c-0.6,0.5-1.3,0.9-2.1,1.2l4.7,9.7h-5.3l-4.5-9.1h-4.9v9.1
		H479.5z M490.9,285.8c0.6,0,1.1-0.1,1.5-0.3c0.4-0.2,0.7-0.4,1-0.7c0.2-0.3,0.4-0.6,0.5-1c0.1-0.4,0.2-0.8,0.2-1.2
		c0-0.4,0-0.8-0.1-1.1c-0.1-0.4-0.3-0.7-0.5-1c-0.2-0.3-0.6-0.5-1-0.7c-0.4-0.2-0.9-0.3-1.6-0.3h-6.7v6.3H490.9z"/>
	<path fill="#A9B8C6" d="M501.9,299.3V275h4.7v24.3H501.9z"/>
	<path fill="#A9B8C6" d="M519.8,299.7c-1.3,0-2.4-0.2-3.4-0.5s-1.9-0.8-2.6-1.4c-0.8-0.6-1.4-1.3-1.9-2.1c-0.5-0.8-1-1.7-1.3-2.6
		c-0.3-0.9-0.6-1.9-0.7-2.9c-0.2-1-0.2-2-0.2-3c0-0.9,0.1-1.9,0.2-2.9c0.2-1,0.4-1.9,0.7-2.9c0.3-0.9,0.8-1.8,1.3-2.6
		c0.5-0.8,1.2-1.5,1.9-2.2c0.8-0.6,1.6-1.1,2.6-1.5s2.1-0.5,3.4-0.5c1.2,0,2.2,0.2,3.2,0.5c1,0.3,1.8,0.7,2.5,1.2
		c0.7,0.5,1.3,1.1,1.8,1.8c0.5,0.7,0.9,1.3,1.2,2l-4.2,1.9c-0.3-0.5-0.6-0.9-0.9-1.2c-0.3-0.4-0.6-0.7-1-0.9
		c-0.4-0.2-0.7-0.4-1.2-0.6c-0.4-0.1-0.9-0.2-1.4-0.2c-0.7,0-1.3,0.1-1.8,0.3c-0.5,0.2-1,0.5-1.4,0.9c-0.4,0.4-0.7,0.9-1,1.4
		c-0.3,0.5-0.5,1.1-0.7,1.7c-0.2,0.6-0.3,1.2-0.4,1.8c-0.1,0.6-0.1,1.2-0.1,1.8c0,0.9,0.1,1.9,0.3,2.8c0.2,0.9,0.5,1.8,0.9,2.6
		s1,1.4,1.7,1.9c0.7,0.5,1.5,0.7,2.4,0.7c0.5,0,1-0.1,1.4-0.2s0.8-0.4,1.2-0.6s0.7-0.6,1-1c0.3-0.4,0.6-0.8,0.9-1.3l4.3,1.6
		c-0.4,0.9-0.8,1.7-1.4,2.5s-1.2,1.4-1.9,1.9s-1.5,0.9-2.4,1.2C521.9,299.6,520.9,299.7,519.8,299.7z"/>
	<path fill="#A9B8C6" d="M547.1,299.3l-1.9-5h-9.4l-1.9,5h-5l9.3-24.3h4.6l9.3,24.3H547.1z M541.3,283.7c-0.1-0.3-0.3-0.6-0.4-1.1
		c-0.1-0.4-0.3-0.8-0.4-1.1c-0.1,0.4-0.2,0.7-0.4,1.1c-0.1,0.4-0.3,0.8-0.4,1.1l-2.4,6.3h6.3L541.3,283.7z"/>
	<path fill="#A9B8C6" d="M569.1,299.3l-9.7-14.2c-0.2-0.2-0.3-0.5-0.5-0.9c-0.2-0.3-0.3-0.7-0.5-1c0,0.3,0.1,0.6,0.1,0.9
		c0,0.4,0,0.7,0,0.9v14.2h-4.7V275h4.4l9.4,14c0.1,0.2,0.3,0.5,0.5,0.8s0.4,0.7,0.5,1c0-0.3-0.1-0.7-0.1-1c0-0.3,0-0.6,0-0.8v-14
		h4.6v24.3H569.1z"/>
	<path fill="#A9B8C6" d="M588.6,281.6c-0.1-0.4-0.3-0.7-0.6-1c-0.2-0.3-0.5-0.6-0.9-0.8c-0.3-0.2-0.7-0.4-1.2-0.5
		c-0.4-0.1-0.9-0.2-1.5-0.2c-1,0-1.8,0.2-2.4,0.6c-0.6,0.4-0.9,1-0.9,1.7c0,0.5,0.2,0.9,0.5,1.2c0.4,0.3,0.8,0.6,1.4,0.9
		c0.6,0.3,1.3,0.5,2,0.8s1.5,0.5,2.3,0.8c0.8,0.3,1.6,0.6,2.3,1s1.4,0.9,2,1.4c0.6,0.6,1.1,1.3,1.4,2c0.4,0.8,0.5,1.7,0.5,2.8
		c0,1.2-0.2,2.2-0.7,3.2s-1.1,1.7-1.9,2.3c-0.8,0.6-1.7,1.1-2.8,1.4s-2.2,0.5-3.5,0.5c-1.1,0-2.2-0.2-3.2-0.5s-1.9-0.8-2.7-1.3
		s-1.5-1.3-2.1-2.1c-0.6-0.8-1.1-1.8-1.4-2.8l4.3-1.6c0.3,0.6,0.6,1.1,0.9,1.6c0.4,0.5,0.8,0.9,1.2,1.2c0.5,0.3,0.9,0.6,1.5,0.8
		c0.5,0.2,1.1,0.3,1.7,0.3c0.6,0,1.1-0.1,1.6-0.2c0.5-0.1,0.9-0.3,1.2-0.6c0.3-0.2,0.6-0.6,0.8-0.9c0.2-0.4,0.3-0.8,0.3-1.3
		c0-0.6-0.2-1.1-0.5-1.5c-0.4-0.4-0.8-0.8-1.4-1.1c-0.6-0.3-1.3-0.6-2-0.8s-1.5-0.5-2.3-0.8c-0.8-0.3-1.6-0.6-2.3-0.9
		c-0.8-0.4-1.4-0.8-2-1.3c-0.6-0.5-1.1-1.2-1.4-1.9c-0.4-0.7-0.5-1.7-0.5-2.7c0-0.9,0.2-1.8,0.6-2.6c0.4-0.8,0.9-1.5,1.6-2.1
		c0.7-0.6,1.6-1.1,2.6-1.5s2.2-0.5,3.5-0.5c1.1,0,2.1,0.1,3,0.4c0.9,0.3,1.7,0.7,2.3,1.2c0.7,0.5,1.3,1.1,1.7,1.8
		c0.5,0.7,0.8,1.4,1.1,2.2L588.6,281.6z"/>
	<path fill="#A9B8C6" d="M613.5,281.6c-0.1-0.4-0.3-0.7-0.6-1c-0.2-0.3-0.5-0.6-0.9-0.8c-0.3-0.2-0.7-0.4-1.2-0.5
		c-0.4-0.1-0.9-0.2-1.5-0.2c-1,0-1.8,0.2-2.4,0.6c-0.6,0.4-0.9,1-0.9,1.7c0,0.5,0.2,0.9,0.5,1.2c0.4,0.3,0.8,0.6,1.4,0.9
		c0.6,0.3,1.3,0.5,2,0.8s1.5,0.5,2.3,0.8c0.8,0.3,1.6,0.6,2.3,1s1.4,0.9,2,1.4c0.6,0.6,1.1,1.3,1.4,2c0.4,0.8,0.5,1.7,0.5,2.8
		c0,1.2-0.2,2.2-0.7,3.2s-1.1,1.7-1.9,2.3c-0.8,0.6-1.7,1.1-2.8,1.4s-2.2,0.5-3.5,0.5c-1.1,0-2.2-0.2-3.2-0.5s-1.9-0.8-2.7-1.3
		s-1.5-1.3-2.1-2.1c-0.6-0.8-1.1-1.8-1.4-2.8l4.3-1.6c0.3,0.6,0.6,1.1,0.9,1.6c0.4,0.5,0.8,0.9,1.2,1.2c0.5,0.3,0.9,0.6,1.5,0.8
		c0.5,0.2,1.1,0.3,1.7,0.3c0.6,0,1.1-0.1,1.6-0.2c0.5-0.1,0.9-0.3,1.2-0.6c0.3-0.2,0.6-0.6,0.8-0.9c0.2-0.4,0.3-0.8,0.3-1.3
		c0-0.6-0.2-1.1-0.5-1.5c-0.4-0.4-0.8-0.8-1.4-1.1c-0.6-0.3-1.3-0.6-2-0.8s-1.5-0.5-2.3-0.8c-0.8-0.3-1.6-0.6-2.3-0.9
		c-0.8-0.4-1.4-0.8-2-1.3c-0.6-0.5-1.1-1.2-1.4-1.9c-0.4-0.7-0.5-1.7-0.5-2.7c0-0.9,0.2-1.8,0.6-2.6c0.4-0.8,0.9-1.5,1.6-2.1
		c0.7-0.6,1.6-1.1,2.6-1.5s2.2-0.5,3.5-0.5c1.1,0,2.1,0.1,3,0.4c0.9,0.3,1.7,0.7,2.3,1.2c0.7,0.5,1.3,1.1,1.7,1.8
		c0.5,0.7,0.8,1.4,1.1,2.2L613.5,281.6z"/>
	<path fill="#A9B8C6" d="M637.6,299.3l-1.9-5h-9.4l-1.9,5h-5l9.3-24.3h4.6l9.3,24.3H637.6z M631.8,283.7c-0.1-0.3-0.3-0.6-0.4-1.1
		c-0.1-0.4-0.3-0.8-0.4-1.1c-0.1,0.4-0.2,0.7-0.4,1.1c-0.1,0.4-0.3,0.8-0.4,1.1l-2.4,6.3h6.3L631.8,283.7z"/>
	<path fill="#A9B8C6" d="M648,299.3v-9.5l-9-14.8h5.3l6,9.9l6-9.9h5.3l-9,14.8v9.5H648z"/>
</g>
<g>
	<path fill="#A9B8C6" d="M362.6,333.8v-31.5h6.1v31.5H362.6z"/>
	<path fill="#A9B8C6" d="M395.6,333.8L383,315.4c-0.2-0.3-0.4-0.7-0.7-1.1c-0.2-0.4-0.5-0.9-0.6-1.2c0,0.3,0.1,0.7,0.1,1.2
		c0,0.5,0,0.8,0,1.2v18.4h-6v-31.5h5.7l12.2,18.2c0.2,0.3,0.4,0.7,0.7,1.1s0.5,0.9,0.7,1.3c0-0.4-0.1-0.9-0.1-1.3c0-0.4,0-0.8,0-1.1
		v-18.2h6v31.5H395.6z"/>
	<path fill="#A9B8C6" d="M423,310.9c-0.2-0.5-0.4-0.9-0.8-1.3s-0.7-0.8-1.2-1.1c-0.4-0.3-1-0.5-1.5-0.7c-0.6-0.2-1.2-0.3-1.9-0.3
		c-1.3,0-2.3,0.3-3.1,0.8c-0.7,0.5-1.1,1.3-1.1,2.2c0,0.6,0.2,1.2,0.7,1.6c0.5,0.4,1.1,0.8,1.8,1.2c0.8,0.3,1.6,0.7,2.6,1
		c1,0.3,2,0.6,3,1s2,0.8,3,1.3c1,0.5,1.8,1.1,2.6,1.9c0.8,0.7,1.4,1.6,1.8,2.6s0.7,2.2,0.7,3.7c0,1.5-0.3,2.9-0.9,4.1
		c-0.6,1.2-1.4,2.2-2.4,3c-1,0.8-2.2,1.4-3.6,1.9c-1.4,0.4-2.9,0.6-4.5,0.6c-1.5,0-2.9-0.2-4.2-0.6c-1.3-0.4-2.5-1-3.5-1.7
		c-1-0.7-2-1.7-2.7-2.7c-0.8-1.1-1.4-2.3-1.8-3.6l5.5-2.1c0.3,0.7,0.7,1.4,1.2,2c0.5,0.6,1,1.1,1.6,1.6c0.6,0.4,1.2,0.8,1.9,1
		c0.7,0.2,1.4,0.4,2.2,0.4c0.8,0,1.5-0.1,2.1-0.2c0.6-0.2,1.2-0.4,1.6-0.7c0.4-0.3,0.8-0.7,1-1.2c0.2-0.5,0.4-1,0.4-1.7
		c0-0.8-0.2-1.4-0.7-1.9c-0.5-0.5-1.1-1-1.8-1.4s-1.6-0.7-2.6-1.1c-1-0.3-2-0.6-3-1c-1-0.4-2-0.8-3-1.2c-1-0.5-1.8-1-2.6-1.7
		s-1.4-1.5-1.8-2.5c-0.5-1-0.7-2.1-0.7-3.5c0-1.2,0.2-2.3,0.7-3.4c0.5-1,1.2-2,2.1-2.8s2-1.4,3.3-1.9s2.8-0.7,4.5-0.7
		c1.4,0,2.7,0.2,3.9,0.5c1.2,0.4,2.2,0.9,3,1.5c0.9,0.7,1.6,1.4,2.2,2.3c0.6,0.9,1.1,1.9,1.4,2.9L423,310.9z"/>
	<path fill="#A9B8C6" d="M448.4,308.2v25.6h-6.1v-25.6h-9v-5.9h24.1v5.9H448.4z"/>
	<path fill="#A9B8C6" d="M462.6,333.8v-31.5h6.1v31.5H462.6z"/>
	<path fill="#A9B8C6" d="M488.9,308.2v25.6h-6.1v-25.6h-9v-5.9h24.1v5.9H488.9z"/>
	<path fill="#A9B8C6" d="M515.4,334.4c-1.1,0-2.1-0.1-3.2-0.3c-1-0.2-2-0.5-3-0.9c-0.9-0.4-1.8-0.9-2.6-1.6
		c-0.8-0.7-1.5-1.4-2.1-2.4s-1-2-1.4-3.3c-0.3-1.2-0.5-2.6-0.5-4.2v-19.4h6.1v19.4c0,1.3,0.2,2.4,0.5,3.3c0.3,0.9,0.7,1.6,1.3,2.1
		c0.6,0.5,1.3,0.9,2.1,1.1s1.7,0.3,2.8,0.3c1,0,1.9-0.1,2.7-0.3c0.8-0.2,1.5-0.6,2.1-1.1c0.6-0.5,1-1.2,1.3-2.1
		c0.3-0.9,0.5-2,0.5-3.3v-19.4h6.1v19.4c0,2.3-0.4,4.3-1.1,5.9c-0.7,1.6-1.6,2.9-2.8,3.9s-2.5,1.7-4.1,2.1S517,334.4,515.4,334.4z"
		/>
	<path fill="#A9B8C6" d="M547.8,308.2v25.6h-6.1v-25.6h-9v-5.9h24.1v5.9H547.8z"/>
	<path fill="#A9B8C6" d="M562,333.8v-31.5h6.1v31.5H562z"/>
	<path fill="#A9B8C6" d="M588.1,334.4c-1.7,0-3.2-0.2-4.6-0.7c-1.3-0.4-2.5-1.1-3.6-1.8s-1.9-1.7-2.6-2.7c-0.7-1-1.3-2.2-1.8-3.4
		c-0.5-1.2-0.8-2.5-1-3.8c-0.2-1.3-0.3-2.6-0.3-3.9c0-1.3,0.1-2.6,0.3-3.9c0.2-1.3,0.5-2.6,1-3.8c0.5-1.2,1.1-2.3,1.8-3.4
		c0.7-1,1.6-2,2.6-2.7c1-0.8,2.2-1.4,3.6-1.8c1.3-0.4,2.9-0.7,4.6-0.7c1.7,0,3.2,0.2,4.6,0.7s2.5,1.1,3.5,1.8c1,0.8,1.9,1.7,2.6,2.7
		c0.7,1,1.3,2.2,1.8,3.4c0.5,1.2,0.8,2.5,1,3.8c0.2,1.3,0.3,2.6,0.3,3.9c0,1.3-0.1,2.6-0.3,3.9c-0.2,1.3-0.5,2.6-1,3.8
		c-0.5,1.2-1.1,2.3-1.8,3.4c-0.7,1-1.6,2-2.6,2.7s-2.2,1.4-3.5,1.8C591.3,334.1,589.8,334.4,588.1,334.4z M588.1,328.5
		c1.4,0,2.6-0.3,3.5-1c1-0.7,1.7-1.5,2.3-2.5c0.6-1,1-2.1,1.3-3.4s0.4-2.4,0.4-3.5c0-0.8-0.1-1.6-0.2-2.5c-0.1-0.8-0.3-1.6-0.5-2.4
		c-0.3-0.8-0.6-1.5-1-2.2c-0.4-0.7-0.9-1.3-1.4-1.8c-0.6-0.5-1.2-0.9-1.9-1.2c-0.7-0.3-1.6-0.4-2.5-0.4c-1,0-1.8,0.2-2.5,0.5
		c-0.7,0.3-1.4,0.7-2,1.2c-0.6,0.5-1,1.1-1.4,1.8c-0.4,0.7-0.7,1.4-1,2.2c-0.3,0.8-0.4,1.6-0.5,2.4c-0.1,0.8-0.2,1.6-0.2,2.4
		c0,1.2,0.1,2.4,0.4,3.7c0.3,1.2,0.7,2.4,1.3,3.4s1.4,1.8,2.3,2.5C585.5,328.2,586.7,328.5,588.1,328.5z"/>
	<path fill="#A9B8C6" d="M627.5,333.8L615,315.4c-0.2-0.3-0.4-0.7-0.7-1.1c-0.2-0.4-0.5-0.9-0.6-1.2c0,0.3,0.1,0.7,0.1,1.2
		c0,0.5,0,0.8,0,1.2v18.4h-6v-31.5h5.7l12.2,18.2c0.2,0.3,0.4,0.7,0.7,1.1s0.5,0.9,0.7,1.3c0-0.4-0.1-0.9-0.1-1.3c0-0.4,0-0.8,0-1.1
		v-18.2h6v31.5H627.5z"/>
	<path fill="#A9B8C6" d="M655,310.9c-0.2-0.5-0.4-0.9-0.8-1.3s-0.7-0.8-1.2-1.1c-0.4-0.3-1-0.5-1.5-0.7c-0.6-0.2-1.2-0.3-1.9-0.3
		c-1.3,0-2.3,0.3-3.1,0.8c-0.7,0.5-1.1,1.3-1.1,2.2c0,0.6,0.2,1.2,0.7,1.6c0.5,0.4,1.1,0.8,1.8,1.2c0.8,0.3,1.6,0.7,2.6,1
		c1,0.3,2,0.6,3,1s2,0.8,3,1.3c1,0.5,1.8,1.1,2.6,1.9c0.8,0.7,1.4,1.6,1.8,2.6s0.7,2.2,0.7,3.7c0,1.5-0.3,2.9-0.9,4.1
		c-0.6,1.2-1.4,2.2-2.4,3c-1,0.8-2.2,1.4-3.6,1.9c-1.4,0.4-2.9,0.6-4.5,0.6c-1.5,0-2.9-0.2-4.2-0.6c-1.3-0.4-2.5-1-3.5-1.7
		c-1-0.7-2-1.7-2.7-2.7c-0.8-1.1-1.4-2.3-1.8-3.6l5.5-2.1c0.3,0.7,0.7,1.4,1.2,2c0.5,0.6,1,1.1,1.6,1.6c0.6,0.4,1.2,0.8,1.9,1
		c0.7,0.2,1.4,0.4,2.2,0.4c0.8,0,1.5-0.1,2.1-0.2c0.6-0.2,1.2-0.4,1.6-0.7c0.4-0.3,0.8-0.7,1-1.2c0.2-0.5,0.4-1,0.4-1.7
		c0-0.8-0.2-1.4-0.7-1.9c-0.5-0.5-1.1-1-1.8-1.4s-1.6-0.7-2.6-1.1c-1-0.3-2-0.6-3-1c-1-0.4-2-0.8-3-1.2c-1-0.5-1.8-1-2.6-1.7
		s-1.4-1.5-1.8-2.5c-0.5-1-0.7-2.1-0.7-3.5c0-1.2,0.2-2.3,0.7-3.4c0.5-1,1.2-2,2.1-2.8s2-1.4,3.3-1.9s2.8-0.7,4.5-0.7
		c1.4,0,2.7,0.2,3.9,0.5c1.2,0.4,2.2,0.9,3,1.5c0.9,0.7,1.6,1.4,2.2,2.3c0.6,0.9,1.1,1.9,1.4,2.9L655,310.9z"/>
</g>
<g>
	<path fill="#A9B8C6" d="M380.7,382.8v-11.9c0-0.1,0-0.3,0-0.5c0-0.2,0-0.3,0-0.5c0-0.2,0-0.3,0-0.5c0-0.2,0-0.3,0-0.4
		c-0.1,0.4-0.2,0.7-0.3,1c-0.1,0.3-0.2,0.6-0.3,0.8l-5.6,12.3l-5.6-12.3c-0.1-0.3-0.2-0.5-0.3-0.8s-0.2-0.6-0.3-1c0,0.1,0,0.2,0,0.4
		c0,0.2,0,0.3,0,0.5c0,0.2,0,0.4,0,0.5c0,0.2,0,0.3,0,0.5v11.9h-4.5v-23.1h4.5l5.7,12.8c0.1,0.3,0.2,0.5,0.3,0.8
		c0.1,0.3,0.2,0.5,0.3,0.8c0.1-0.3,0.2-0.5,0.3-0.8c0.1-0.3,0.2-0.5,0.3-0.8l5.8-12.8h4.3v23.1H380.7z"/>
	<path fill="#A9B8C6" d="M392,382.8v-23.1h15.8v4.2h-11.3v4.9h6.7v4.2h-6.7v5.6h12v4.2H392z"/>
	<path fill="#A9B8C6" d="M414.1,359.7h7.8c1.3,0,2.6,0.2,3.6,0.5c1.1,0.3,2,0.7,2.9,1.3c0.8,0.5,1.5,1.2,2.1,1.9
		c0.6,0.7,1.1,1.5,1.5,2.4c0.4,0.9,0.7,1.8,0.8,2.7c0.2,0.9,0.3,1.9,0.3,2.8c0,0.9-0.1,1.8-0.3,2.7c-0.2,0.9-0.4,1.8-0.8,2.7
		c-0.4,0.9-0.8,1.7-1.4,2.4c-0.6,0.8-1.3,1.4-2.1,2c-0.8,0.6-1.8,1-2.9,1.3c-1.1,0.3-2.4,0.5-3.8,0.5h-7.7V359.7z M422.3,378.6
		c1.2,0,2.1-0.2,2.9-0.7s1.4-1,1.9-1.7c0.5-0.7,0.8-1.5,1-2.4c0.2-0.9,0.3-1.7,0.3-2.6c0-0.9-0.1-1.8-0.3-2.7
		c-0.2-0.9-0.6-1.7-1-2.3c-0.5-0.7-1.1-1.2-1.8-1.7c-0.7-0.4-1.6-0.6-2.6-0.6h-4.1v14.7H422.3z"/>
	<path fill="#A9B8C6" d="M439.3,382.8v-23.1h4.5v23.1H439.3z"/>
	<path fill="#A9B8C6" d="M466.3,382.8l-1.8-4.8h-8.9l-1.8,4.8H449l8.9-23.1h4.4l8.9,23.1H466.3z M460.8,368c-0.1-0.3-0.2-0.6-0.4-1
		c-0.1-0.4-0.3-0.7-0.3-1.1c-0.1,0.3-0.2,0.7-0.3,1.1c-0.1,0.4-0.3,0.7-0.4,1l-2.3,6h6L460.8,368z"/>
	<path fill="#A9B8C6" d="M484.7,382.8v-23.1h9.9c1.5,0,2.7,0.2,3.7,0.6c1,0.4,1.8,1,2.4,1.7s1.1,1.5,1.3,2.3
		c0.3,0.9,0.4,1.8,0.4,2.6c0,0.6-0.1,1.1-0.2,1.7c-0.1,0.6-0.3,1.1-0.6,1.7s-0.6,1.1-1,1.5c-0.4,0.5-0.9,0.9-1.5,1.3
		c-0.6,0.4-1.3,0.6-2,0.8c-0.8,0.2-1.6,0.3-2.5,0.3h-5.5v8.5H484.7z M494.8,370.1c0.6,0,1-0.1,1.4-0.3c0.4-0.2,0.7-0.4,0.9-0.7
		c0.2-0.3,0.4-0.6,0.5-1c0.1-0.4,0.2-0.7,0.2-1.1c0-0.3,0-0.7-0.1-1c-0.1-0.4-0.3-0.7-0.5-1c-0.2-0.3-0.5-0.5-0.9-0.7
		c-0.4-0.2-0.9-0.3-1.5-0.3h-5.6v6.1H494.8z"/>
	<path fill="#A9B8C6" d="M507.7,382.8v-23.1h10.7c1.5,0,2.7,0.2,3.7,0.6c1,0.4,1.8,0.9,2.4,1.6s1,1.4,1.3,2.3
		c0.3,0.9,0.4,1.8,0.4,2.7c0,0.7-0.1,1.3-0.3,2c-0.2,0.7-0.5,1.3-0.8,1.9c-0.4,0.6-0.8,1.1-1.4,1.6c-0.6,0.5-1.2,0.9-2,1.1l4.5,9.2
		h-5l-4.3-8.6h-4.7v8.6H507.7z M518.5,370c0.6,0,1-0.1,1.4-0.3c0.4-0.2,0.7-0.4,0.9-0.7c0.2-0.3,0.4-0.6,0.5-1
		c0.1-0.4,0.2-0.7,0.2-1.1c0-0.4,0-0.7-0.1-1.1c-0.1-0.4-0.3-0.7-0.5-1c-0.2-0.3-0.5-0.5-0.9-0.7c-0.4-0.2-0.9-0.3-1.5-0.3h-6.3v6
		H518.5z"/>
	<path fill="#A9B8C6" d="M532.1,382.8v-23.1h15.8v4.2h-11.3v4.9h6.7v4.2h-6.7v5.6h12v4.2H532.1z"/>
	<path fill="#A9B8C6" d="M565.4,366c-0.1-0.3-0.3-0.7-0.6-1s-0.5-0.6-0.8-0.8c-0.3-0.2-0.7-0.4-1.1-0.5c-0.4-0.1-0.9-0.2-1.4-0.2
		c-1,0-1.7,0.2-2.3,0.6c-0.5,0.4-0.8,0.9-0.8,1.6c0,0.5,0.2,0.8,0.5,1.2c0.3,0.3,0.8,0.6,1.4,0.8c0.6,0.3,1.2,0.5,1.9,0.7
		c0.7,0.2,1.4,0.5,2.2,0.8s1.5,0.6,2.2,1s1.4,0.8,1.9,1.4c0.6,0.5,1,1.2,1.4,1.9c0.3,0.7,0.5,1.6,0.5,2.7c0,1.1-0.2,2.1-0.6,3
		c-0.4,0.9-1,1.6-1.8,2.2s-1.6,1.1-2.7,1.4s-2.1,0.5-3.3,0.5c-1.1,0-2.1-0.1-3-0.4c-0.9-0.3-1.8-0.7-2.6-1.3c-0.8-0.5-1.4-1.2-2-2
		c-0.6-0.8-1-1.7-1.4-2.6l4.1-1.5c0.2,0.5,0.5,1,0.9,1.5c0.3,0.4,0.7,0.8,1.2,1.1c0.4,0.3,0.9,0.6,1.4,0.7s1,0.3,1.6,0.3
		c0.6,0,1.1-0.1,1.5-0.2s0.8-0.3,1.2-0.5s0.6-0.5,0.8-0.9c0.2-0.3,0.3-0.8,0.3-1.2c0-0.6-0.2-1-0.5-1.4c-0.3-0.4-0.8-0.7-1.4-1
		c-0.6-0.3-1.2-0.5-1.9-0.8c-0.7-0.2-1.4-0.5-2.2-0.7c-0.7-0.3-1.5-0.6-2.2-0.9c-0.7-0.3-1.4-0.8-1.9-1.3c-0.6-0.5-1-1.1-1.4-1.8
		c-0.3-0.7-0.5-1.6-0.5-2.6c0-0.9,0.2-1.7,0.5-2.5c0.3-0.8,0.9-1.4,1.5-2c0.7-0.6,1.5-1,2.5-1.4c1-0.3,2.1-0.5,3.3-0.5
		c1,0,2,0.1,2.8,0.4c0.8,0.3,1.6,0.6,2.2,1.1c0.6,0.5,1.2,1,1.6,1.7c0.4,0.7,0.8,1.4,1,2.1L565.4,366z"/>
	<path fill="#A9B8C6" d="M576.2,382.8v-23.1H592v4.2h-11.3v4.9h6.7v4.2h-6.7v5.6h12v4.2H576.2z"/>
	<path fill="#A9B8C6" d="M612.8,382.8l-9.2-13.5c-0.2-0.2-0.3-0.5-0.5-0.8c-0.2-0.3-0.3-0.6-0.5-0.9c0,0.2,0.1,0.5,0.1,0.9
		c0,0.3,0,0.6,0,0.9v13.5h-4.4v-23.1h4.2l9,13.3c0.1,0.2,0.3,0.5,0.5,0.8c0.2,0.3,0.3,0.6,0.5,0.9c0-0.3-0.1-0.6-0.1-0.9
		c0-0.3,0-0.6,0-0.8v-13.3h4.4v23.1H612.8z"/>
	<path fill="#A9B8C6" d="M632.5,383.2c-1.2,0-2.3-0.2-3.2-0.5c-0.9-0.3-1.8-0.8-2.5-1.3c-0.7-0.6-1.3-1.2-1.8-2
		c-0.5-0.8-0.9-1.6-1.2-2.5c-0.3-0.9-0.5-1.8-0.7-2.8s-0.2-1.9-0.2-2.9c0-0.9,0.1-1.8,0.2-2.7c0.2-0.9,0.4-1.8,0.7-2.7
		c0.3-0.9,0.7-1.7,1.2-2.5c0.5-0.8,1.1-1.5,1.8-2.1c0.7-0.6,1.5-1.1,2.5-1.4c0.9-0.3,2-0.5,3.2-0.5c1.1,0,2.1,0.2,3,0.5
		c0.9,0.3,1.7,0.7,2.4,1.2c0.7,0.5,1.3,1,1.8,1.7c0.5,0.6,0.8,1.3,1.1,1.9l-4,1.8c-0.3-0.4-0.6-0.8-0.9-1.2
		c-0.3-0.3-0.6-0.6-0.9-0.9c-0.3-0.2-0.7-0.4-1.1-0.5c-0.4-0.1-0.9-0.2-1.4-0.2c-0.6,0-1.2,0.1-1.7,0.3c-0.5,0.2-0.9,0.5-1.3,0.9
		c-0.4,0.4-0.7,0.8-1,1.3c-0.3,0.5-0.5,1-0.6,1.6c-0.2,0.6-0.3,1.1-0.3,1.7c-0.1,0.6-0.1,1.2-0.1,1.7c0,0.9,0.1,1.8,0.3,2.7
		s0.5,1.7,0.9,2.5c0.4,0.7,0.9,1.3,1.6,1.8c0.6,0.5,1.4,0.7,2.3,0.7c0.5,0,0.9-0.1,1.3-0.2c0.4-0.1,0.8-0.3,1.1-0.6
		c0.3-0.3,0.7-0.6,1-0.9c0.3-0.4,0.6-0.8,0.8-1.2l4.1,1.5c-0.4,0.8-0.8,1.6-1.3,2.3s-1.1,1.3-1.8,1.8s-1.5,0.9-2.3,1.2
		C634.5,383.1,633.5,383.2,632.5,383.2z"/>
	<path fill="#A9B8C6" d="M646.3,382.8v-23.1h15.8v4.2h-11.3v4.9h6.7v4.2h-6.7v5.6h12v4.2H646.3z"/>
</g>
<g>
</g>
<g>
</g>
<g>
	<path fill="#A9B8C6" d="M375.4,356.9l-7.9-11.6c-0.1-0.2-0.3-0.4-0.4-0.7c-0.2-0.3-0.3-0.5-0.4-0.8c0,0.2,0,0.5,0.1,0.8
		c0,0.3,0,0.5,0,0.8v11.6h-3.8v-20h3.6l7.7,11.5c0.1,0.2,0.3,0.4,0.4,0.7c0.2,0.3,0.3,0.5,0.4,0.8c0-0.3,0-0.5-0.1-0.8
		c0-0.3,0-0.5,0-0.7V337h3.8v20H375.4z"/>
	<path fill="#A9B8C6" d="M381.8,356.9v-20h13.6v3.7h-9.8v4.2h5.7v3.6h-5.7v4.8H396v3.6H381.8z"/>
	<path fill="#A9B8C6" d="M398,356.9v-20h13.6v3.7h-9.8v4.2h5.7v3.6h-5.7v4.8h10.4v3.6H398z"/>
	<path fill="#A9B8C6" d="M414.2,337h6.7c1.2,0,2.2,0.1,3.1,0.4c0.9,0.3,1.8,0.6,2.5,1.1s1.3,1,1.8,1.6c0.5,0.6,0.9,1.3,1.3,2.1
		c0.3,0.7,0.6,1.5,0.7,2.3c0.2,0.8,0.2,1.6,0.2,2.4c0,0.8-0.1,1.5-0.2,2.3c-0.1,0.8-0.4,1.6-0.7,2.3c-0.3,0.7-0.7,1.4-1.2,2.1
		s-1.1,1.2-1.9,1.7c-0.7,0.5-1.6,0.9-2.5,1.1c-1,0.3-2,0.4-3.3,0.4h-6.6V337z M421.3,353.3c1,0,1.8-0.2,2.5-0.6
		c0.7-0.4,1.2-0.9,1.6-1.5c0.4-0.6,0.7-1.3,0.9-2s0.3-1.5,0.3-2.2c0-0.8-0.1-1.5-0.3-2.3c-0.2-0.8-0.5-1.4-0.9-2s-0.9-1.1-1.6-1.4
		s-1.4-0.5-2.3-0.5h-3.5v12.7H421.3z"/>
	<path fill="#A9B8C6" d="M450.7,356.9l-1.5-4.1h-7.7l-1.5,4.1h-4.1l7.6-20h3.8l7.6,20H450.7z M445.9,344.1c-0.1-0.2-0.2-0.5-0.3-0.9
		s-0.2-0.6-0.3-0.9c-0.1,0.3-0.2,0.6-0.3,0.9c-0.1,0.3-0.2,0.6-0.3,0.9l-2,5.2h5.2L445.9,344.1z"/>
	<path fill="#A9B8C6" d="M470.3,342.4c-0.1-0.3-0.3-0.6-0.5-0.8s-0.4-0.5-0.7-0.7c-0.3-0.2-0.6-0.3-1-0.4c-0.4-0.1-0.8-0.2-1.2-0.2
		c-0.8,0-1.5,0.2-2,0.5s-0.7,0.8-0.7,1.4c0,0.4,0.1,0.7,0.4,1c0.3,0.3,0.7,0.5,1.2,0.7c0.5,0.2,1,0.4,1.6,0.6s1.3,0.4,1.9,0.6
		c0.6,0.2,1.3,0.5,1.9,0.8c0.6,0.3,1.2,0.7,1.6,1.2c0.5,0.5,0.9,1,1.2,1.7c0.3,0.6,0.4,1.4,0.4,2.3c0,1-0.2,1.8-0.6,2.6
		s-0.9,1.4-1.5,1.9c-0.6,0.5-1.4,0.9-2.3,1.2c-0.9,0.3-1.8,0.4-2.9,0.4c-0.9,0-1.8-0.1-2.6-0.4c-0.8-0.3-1.6-0.6-2.2-1.1
		c-0.7-0.5-1.2-1-1.7-1.7c-0.5-0.7-0.9-1.4-1.2-2.3l3.5-1.3c0.2,0.5,0.5,0.9,0.8,1.3c0.3,0.4,0.6,0.7,1,1c0.4,0.3,0.8,0.5,1.2,0.6
		c0.4,0.2,0.9,0.2,1.4,0.2c0.5,0,0.9-0.1,1.3-0.2c0.4-0.1,0.7-0.3,1-0.5s0.5-0.5,0.7-0.8c0.2-0.3,0.2-0.7,0.2-1.1
		c0-0.5-0.1-0.9-0.4-1.2c-0.3-0.3-0.7-0.6-1.2-0.9c-0.5-0.2-1-0.5-1.6-0.7c-0.6-0.2-1.2-0.4-1.9-0.6c-0.6-0.2-1.3-0.5-1.9-0.8
		s-1.2-0.7-1.6-1.1s-0.9-1-1.2-1.6c-0.3-0.6-0.4-1.4-0.4-2.2c0-0.8,0.2-1.5,0.5-2.1c0.3-0.7,0.7-1.2,1.3-1.7s1.3-0.9,2.1-1.2
		c0.8-0.3,1.8-0.4,2.9-0.4c0.9,0,1.7,0.1,2.4,0.3s1.4,0.6,1.9,1c0.6,0.4,1,0.9,1.4,1.5c0.4,0.6,0.7,1.2,0.9,1.8L470.3,342.4z"/>
	<path fill="#A9B8C6" d="M484.9,340.7v16.2h-3.8v-16.2h-5.7V337h15.3v3.7H484.9z"/>
	<path fill="#A9B8C6" d="M492.3,356.9v-20h9.3c1.3,0,2.3,0.2,3.2,0.5c0.8,0.3,1.5,0.8,2.1,1.4s0.9,1.2,1.1,2s0.3,1.5,0.3,2.4
		c0,0.6-0.1,1.1-0.2,1.7c-0.2,0.6-0.4,1.1-0.7,1.6c-0.3,0.5-0.7,1-1.2,1.4c-0.5,0.4-1,0.7-1.7,1l3.9,7.9H504l-3.7-7.4h-4v7.4H492.3z
		 M501.7,345.9c0.5,0,0.9-0.1,1.2-0.2s0.6-0.3,0.8-0.6s0.3-0.5,0.4-0.8c0.1-0.3,0.1-0.6,0.1-1c0-0.3,0-0.6-0.1-0.9
		c-0.1-0.3-0.2-0.6-0.4-0.8c-0.2-0.2-0.5-0.4-0.8-0.6s-0.8-0.2-1.3-0.2h-5.5v5.2H501.7z"/>
	<path fill="#A9B8C6" d="M518.7,357.3c-1.1,0-2-0.1-2.9-0.4c-0.9-0.3-1.6-0.7-2.3-1.2s-1.2-1.1-1.7-1.7c-0.5-0.7-0.8-1.4-1.1-2.1
		c-0.3-0.8-0.5-1.6-0.6-2.4c-0.1-0.8-0.2-1.7-0.2-2.5c0-0.8,0.1-1.6,0.2-2.5c0.1-0.8,0.3-1.6,0.6-2.4c0.3-0.8,0.7-1.5,1.1-2.1
		c0.5-0.7,1-1.2,1.7-1.7c0.7-0.5,1.4-0.9,2.3-1.2c0.9-0.3,1.8-0.4,2.9-0.4s2,0.1,2.9,0.4c0.8,0.3,1.6,0.7,2.2,1.2
		c0.6,0.5,1.2,1.1,1.7,1.7c0.5,0.7,0.8,1.4,1.1,2.1c0.3,0.8,0.5,1.6,0.6,2.4c0.1,0.8,0.2,1.7,0.2,2.5c0,0.8-0.1,1.7-0.2,2.5
		c-0.1,0.8-0.3,1.6-0.6,2.4c-0.3,0.8-0.7,1.5-1.1,2.1c-0.5,0.7-1,1.2-1.7,1.7s-1.4,0.9-2.2,1.2C520.7,357.2,519.7,357.3,518.7,357.3
		z M518.7,353.6c0.9,0,1.6-0.2,2.2-0.6c0.6-0.4,1.1-1,1.5-1.6s0.6-1.4,0.8-2.1c0.2-0.8,0.3-1.5,0.3-2.2c0-0.5,0-1-0.1-1.6
		c-0.1-0.5-0.2-1-0.3-1.5c-0.2-0.5-0.4-0.9-0.6-1.4c-0.3-0.4-0.6-0.8-0.9-1.1c-0.4-0.3-0.8-0.6-1.2-0.8c-0.5-0.2-1-0.3-1.6-0.3
		c-0.6,0-1.1,0.1-1.6,0.3s-0.9,0.5-1.2,0.8c-0.4,0.3-0.7,0.7-0.9,1.1c-0.3,0.4-0.5,0.9-0.6,1.4c-0.2,0.5-0.3,1-0.3,1.5
		s-0.1,1-0.1,1.5c0,0.8,0.1,1.5,0.3,2.3c0.2,0.8,0.4,1.5,0.8,2.1c0.4,0.6,0.9,1.2,1.5,1.6C517,353.4,517.8,353.6,518.7,353.6z"/>
	<path fill="#A9B8C6" d="M542.2,356.9l-7.9-11.6c-0.1-0.2-0.3-0.4-0.4-0.7c-0.2-0.3-0.3-0.5-0.4-0.8c0,0.2,0,0.5,0.1,0.8
		c0,0.3,0,0.5,0,0.8v11.6h-3.8v-20h3.6l7.7,11.5c0.1,0.2,0.3,0.4,0.4,0.7c0.2,0.3,0.3,0.5,0.4,0.8c0-0.3,0-0.5-0.1-0.8
		c0-0.3,0-0.5,0-0.7V337h3.8v20H542.2z"/>
	<path fill="#A9B8C6" d="M556.7,357.3c-1,0-2-0.1-2.8-0.4s-1.6-0.6-2.2-1.1c-0.6-0.5-1.2-1-1.7-1.7c-0.5-0.7-0.9-1.4-1.2-2.1
		c-0.3-0.8-0.5-1.6-0.7-2.4c-0.1-0.8-0.2-1.7-0.2-2.6c0-0.8,0.1-1.6,0.2-2.4c0.2-0.8,0.4-1.6,0.7-2.4c0.3-0.8,0.7-1.5,1.2-2.1
		c0.5-0.7,1-1.2,1.7-1.7c0.7-0.5,1.4-0.9,2.2-1.2c0.8-0.3,1.7-0.4,2.7-0.4c1,0,1.8,0.1,2.6,0.4c0.7,0.2,1.4,0.6,2,1
		c0.6,0.4,1.1,0.8,1.5,1.4c0.4,0.5,0.8,1,1.1,1.6l-3.4,1.9c-0.2-0.3-0.5-0.7-0.7-1c-0.3-0.3-0.5-0.6-0.8-0.8s-0.6-0.4-1-0.5
		c-0.4-0.1-0.8-0.2-1.2-0.2c-0.6,0-1.2,0.1-1.6,0.3c-0.5,0.2-0.9,0.5-1.2,0.8c-0.4,0.3-0.7,0.7-0.9,1.1c-0.2,0.4-0.4,0.9-0.6,1.4
		c-0.1,0.5-0.3,1-0.3,1.5c-0.1,0.5-0.1,1-0.1,1.5c0,0.8,0.1,1.7,0.3,2.5c0.2,0.8,0.5,1.5,0.8,2.1c0.4,0.6,0.9,1.1,1.5,1.5
		s1.3,0.6,2.2,0.6c0.5,0,0.9-0.1,1.4-0.3c0.4-0.2,0.8-0.4,1.1-0.7c0.3-0.3,0.6-0.6,0.7-1s0.3-0.8,0.3-1.3v-0.2h-3.4v-3.7h7.3v2.9
		c0,1.3-0.2,2.4-0.6,3.4c-0.4,1-0.9,1.8-1.6,2.5c-0.7,0.7-1.4,1.2-2.3,1.5C558.7,357.1,557.7,357.3,556.7,357.3z"/>
	<path fill="#A9B8C6" d="M580.2,342.4c-0.1-0.3-0.3-0.6-0.5-0.8s-0.4-0.5-0.7-0.7c-0.3-0.2-0.6-0.3-1-0.4c-0.4-0.1-0.8-0.2-1.2-0.2
		c-0.8,0-1.5,0.2-2,0.5s-0.7,0.8-0.7,1.4c0,0.4,0.1,0.7,0.4,1c0.3,0.3,0.7,0.5,1.2,0.7c0.5,0.2,1,0.4,1.6,0.6s1.3,0.4,1.9,0.6
		c0.6,0.2,1.3,0.5,1.9,0.8c0.6,0.3,1.2,0.7,1.6,1.2c0.5,0.5,0.9,1,1.2,1.7c0.3,0.6,0.4,1.4,0.4,2.3c0,1-0.2,1.8-0.6,2.6
		s-0.9,1.4-1.5,1.9c-0.6,0.5-1.4,0.9-2.3,1.2c-0.9,0.3-1.8,0.4-2.9,0.4c-0.9,0-1.8-0.1-2.6-0.4c-0.8-0.3-1.6-0.6-2.2-1.1
		c-0.7-0.5-1.2-1-1.7-1.7c-0.5-0.7-0.9-1.4-1.2-2.3l3.5-1.3c0.2,0.5,0.5,0.9,0.8,1.3c0.3,0.4,0.6,0.7,1,1c0.4,0.3,0.8,0.5,1.2,0.6
		c0.4,0.2,0.9,0.2,1.4,0.2c0.5,0,0.9-0.1,1.3-0.2c0.4-0.1,0.7-0.3,1-0.5s0.5-0.5,0.7-0.8c0.2-0.3,0.2-0.7,0.2-1.1
		c0-0.5-0.1-0.9-0.4-1.2c-0.3-0.3-0.7-0.6-1.2-0.9c-0.5-0.2-1-0.5-1.6-0.7c-0.6-0.2-1.2-0.4-1.9-0.6c-0.6-0.2-1.3-0.5-1.9-0.8
		s-1.2-0.7-1.6-1.1s-0.9-1-1.2-1.6c-0.3-0.6-0.4-1.4-0.4-2.2c0-0.8,0.2-1.5,0.5-2.1c0.3-0.7,0.7-1.2,1.3-1.7s1.3-0.9,2.1-1.2
		c0.8-0.3,1.8-0.4,2.9-0.4c0.9,0,1.7,0.1,2.4,0.3s1.4,0.6,1.9,1c0.6,0.4,1,0.9,1.4,1.5c0.4,0.6,0.7,1.2,0.9,1.8L580.2,342.4z"/>
	<path fill="#A9B8C6" d="M594.7,357.3c-1.1,0-2-0.1-2.9-0.4c-0.9-0.3-1.6-0.7-2.3-1.2s-1.2-1.1-1.7-1.7c-0.5-0.7-0.8-1.4-1.1-2.1
		c-0.3-0.8-0.5-1.6-0.6-2.4c-0.1-0.8-0.2-1.7-0.2-2.5c0-0.8,0.1-1.6,0.2-2.5c0.1-0.8,0.3-1.6,0.6-2.4c0.3-0.8,0.7-1.5,1.1-2.1
		c0.5-0.7,1-1.2,1.7-1.7c0.7-0.5,1.4-0.9,2.3-1.2c0.9-0.3,1.8-0.4,2.9-0.4s2,0.1,2.9,0.4c0.8,0.3,1.6,0.7,2.2,1.2
		c0.6,0.5,1.2,1.1,1.7,1.7c0.5,0.7,0.8,1.4,1.1,2.1c0.3,0.8,0.5,1.6,0.6,2.4c0.1,0.8,0.2,1.7,0.2,2.5c0,0.8-0.1,1.7-0.2,2.5
		c-0.1,0.8-0.3,1.6-0.6,2.4c-0.3,0.8-0.7,1.5-1.1,2.1c-0.5,0.7-1,1.2-1.7,1.7s-1.4,0.9-2.2,1.2C596.7,357.2,595.8,357.3,594.7,357.3
		z M594.7,353.6c0.9,0,1.6-0.2,2.2-0.6c0.6-0.4,1.1-1,1.5-1.6s0.6-1.4,0.8-2.1c0.2-0.8,0.3-1.5,0.3-2.2c0-0.5,0-1-0.1-1.6
		c-0.1-0.5-0.2-1-0.3-1.5c-0.2-0.5-0.4-0.9-0.6-1.4c-0.3-0.4-0.6-0.8-0.9-1.1c-0.4-0.3-0.8-0.6-1.2-0.8c-0.5-0.2-1-0.3-1.6-0.3
		c-0.6,0-1.1,0.1-1.6,0.3s-0.9,0.5-1.2,0.8c-0.4,0.3-0.7,0.7-0.9,1.1c-0.3,0.4-0.5,0.9-0.6,1.4c-0.2,0.5-0.3,1-0.3,1.5
		s-0.1,1-0.1,1.5c0,0.8,0.1,1.5,0.3,2.3c0.2,0.8,0.4,1.5,0.8,2.1c0.4,0.6,0.9,1.2,1.5,1.6C593,353.4,593.8,353.6,594.7,353.6z"/>
	<path fill="#A9B8C6" d="M613.4,357.3c-1,0-2-0.1-2.8-0.4s-1.5-0.7-2.2-1.2c-0.6-0.5-1.2-1.1-1.6-1.7c-0.4-0.7-0.8-1.4-1.1-2.1
		c-0.3-0.8-0.5-1.6-0.6-2.4c-0.1-0.8-0.2-1.7-0.2-2.5c0-0.8,0.1-1.5,0.2-2.3c0.1-0.8,0.3-1.6,0.6-2.3c0.3-0.8,0.6-1.5,1.1-2.2
		s1-1.3,1.6-1.8c0.6-0.5,1.3-0.9,2.1-1.2c0.8-0.3,1.7-0.4,2.8-0.4c1,0,1.8,0.1,2.6,0.4c0.8,0.3,1.5,0.6,2.1,1
		c0.6,0.4,1.1,0.9,1.5,1.4c0.4,0.5,0.7,1.1,1,1.6l-3.5,1.6c-0.2-0.4-0.5-0.7-0.7-1c-0.3-0.3-0.5-0.5-0.8-0.7c-0.3-0.2-0.6-0.4-1-0.5
		c-0.3-0.1-0.7-0.2-1.2-0.2c-0.6,0-1.1,0.1-1.5,0.3c-0.4,0.2-0.8,0.4-1.1,0.8c-0.3,0.3-0.6,0.7-0.8,1.1s-0.4,0.9-0.5,1.4
		c-0.1,0.5-0.2,1-0.3,1.5c-0.1,0.5-0.1,1-0.1,1.5c0,0.8,0.1,1.6,0.3,2.3s0.4,1.5,0.8,2.1s0.8,1.1,1.4,1.5c0.6,0.4,1.2,0.6,2,0.6
		c0.4,0,0.8-0.1,1.1-0.2c0.3-0.1,0.7-0.3,1-0.5c0.3-0.2,0.6-0.5,0.8-0.8c0.3-0.3,0.5-0.7,0.7-1l3.5,1.3c-0.3,0.7-0.7,1.4-1.1,2
		c-0.4,0.6-1,1.1-1.6,1.6c-0.6,0.4-1.3,0.8-2,1C615.1,357.1,614.3,357.3,613.4,357.3z"/>
	<path fill="#A9B8C6" d="M622.6,356.9v-20h3.8v20H622.6z"/>
	<path fill="#A9B8C6" d="M642.9,356.9l-1.5-4.1h-7.7l-1.5,4.1H628l7.6-20h3.8l7.6,20H642.9z M638.2,344.1c-0.1-0.2-0.2-0.5-0.3-0.9
		s-0.2-0.6-0.3-0.9c-0.1,0.3-0.2,0.6-0.3,0.9c-0.1,0.3-0.2,0.6-0.3,0.9l-2,5.2h5.2L638.2,344.1z"/>
	<path fill="#A9B8C6" d="M648.6,356.9v-20h3.9v16.3h9.6v3.7H648.6z"/>
</g>
</svg>
