<?xml version="1.0" encoding="utf-8"?>
<!-- Generator: Adobe Illustrator 18.0.0, SVG Export Plug-In . SVG Version: 6.00 Build 0)  -->
<!DOCTYPE svg PUBLIC "-//W3C//DTD SVG 1.1//EN" "http://www.w3.org/Graphics/SVG/1.1/DTD/svg11.dtd">
<svg version="1.1" id="Layer_1" xmlns="http://www.w3.org/2000/svg" xmlns:xlink="http://www.w3.org/1999/xlink" x="0px" y="0px"
	 viewBox="0 0 744.8 466.1" enable-background="new 0 0 744.8 466.1" xml:space="preserve">
<polyline fill="none" stroke="#A9B8C6" stroke-width="2" stroke-miterlimit="10" points="166.2,29.7 2.8,29.7 2.8,409.9 
	742.2,409.9 742.2,29.7 578.2,29.7 "/>
<g>
	<path fill="#A9B8C6" d="M186.7,5.6h12.5c2.2,0,4.1,0.2,5.8,0.7c1.7,0.5,3.3,1.2,4.6,2c1.3,0.9,2.5,1.9,3.4,3.1s1.7,2.5,2.3,3.8
		c0.6,1.4,1.1,2.8,1.3,4.3s0.4,3,0.4,4.6c0,1.4-0.1,2.9-0.4,4.3c-0.3,1.5-0.7,2.9-1.3,4.3c-0.6,1.4-1.4,2.7-2.3,3.9
		c-0.9,1.2-2.1,2.3-3.4,3.2c-1.4,0.9-2.9,1.6-4.7,2.1s-3.8,0.8-6.1,0.8h-12.3V5.6z M199.9,35.9c1.8,0,3.4-0.4,4.7-1.1
		c1.3-0.7,2.3-1.6,3.1-2.8c0.8-1.1,1.3-2.4,1.7-3.8c0.3-1.4,0.5-2.8,0.5-4.1c0-1.5-0.2-2.9-0.5-4.3c-0.4-1.4-0.9-2.7-1.7-3.8
		c-0.8-1.1-1.7-2-2.9-2.7c-1.2-0.7-2.6-1-4.2-1h-6.6v23.6H199.9z"/>
	<path fill="#A9B8C6" d="M221.7,42.7V5.6h7.2v37.2H221.7z"/>
	<path fill="#A9B8C6" d="M234.7,5.6h12.5c2.2,0,4.1,0.2,5.8,0.7c1.7,0.5,3.3,1.2,4.6,2c1.3,0.9,2.5,1.9,3.4,3.1s1.7,2.5,2.3,3.8
		c0.6,1.4,1.1,2.8,1.3,4.3c0.3,1.5,0.4,3,0.4,4.6c0,1.4-0.1,2.9-0.4,4.3c-0.3,1.5-0.7,2.9-1.3,4.3c-0.6,1.4-1.4,2.7-2.3,3.9
		c-0.9,1.2-2.1,2.3-3.4,3.2s-2.9,1.6-4.7,2.1s-3.8,0.8-6.1,0.8h-12.3V5.6z M247.9,35.9c1.8,0,3.4-0.4,4.7-1.1s2.3-1.6,3.1-2.8
		c0.8-1.1,1.3-2.4,1.7-3.8s0.5-2.8,0.5-4.1c0-1.5-0.2-2.9-0.5-4.3c-0.4-1.4-0.9-2.7-1.7-3.8s-1.7-2-2.9-2.7c-1.2-0.7-2.6-1-4.2-1
		h-6.6v23.6H247.9z"/>
	<path fill="#A9B8C6" d="M288.3,42.7V28.2L274.5,5.6h8.1l9.2,15.2L301,5.6h8.1l-13.8,22.7v14.5H288.3z"/>
	<path fill="#A9B8C6" d="M323.7,43.4c-2,0-3.8-0.3-5.4-0.8c-1.6-0.5-3-1.2-4.2-2.2c-1.2-0.9-2.3-2-3.1-3.2c-0.9-1.2-1.6-2.6-2.1-4
		c-0.5-1.4-0.9-2.9-1.2-4.5s-0.4-3.1-0.4-4.6c0-1.5,0.1-3.1,0.4-4.6c0.3-1.5,0.6-3,1.2-4.5s1.2-2.8,2.1-4c0.9-1.2,1.9-2.3,3.1-3.2
		s2.6-1.6,4.2-2.2c1.6-0.5,3.4-0.8,5.4-0.8s3.8,0.3,5.4,0.8c1.6,0.5,3,1.2,4.2,2.2c1.2,0.9,2.2,2,3.1,3.2s1.6,2.6,2.1,4
		s0.9,2.9,1.2,4.5c0.3,1.5,0.4,3.1,0.4,4.6c0,1.5-0.1,3.1-0.4,4.6c-0.3,1.5-0.6,3-1.2,4.5c-0.5,1.4-1.2,2.8-2.1,4
		c-0.9,1.2-1.9,2.3-3.1,3.2c-1.2,0.9-2.6,1.6-4.2,2.2C327.5,43.1,325.7,43.4,323.7,43.4z M323.7,36.4c1.7,0,3.1-0.4,4.2-1.2
		c1.1-0.8,2-1.8,2.7-3c0.7-1.2,1.2-2.5,1.5-4c0.3-1.4,0.5-2.8,0.5-4.2c0-1-0.1-1.9-0.2-2.9c-0.1-1-0.3-1.9-0.6-2.8s-0.7-1.8-1.1-2.6
		c-0.5-0.8-1-1.5-1.7-2.1c-0.7-0.6-1.4-1.1-2.3-1.4c-0.9-0.3-1.9-0.5-3-0.5c-1.1,0-2.1,0.2-3,0.5c-0.9,0.4-1.6,0.9-2.3,1.5
		c-0.7,0.6-1.2,1.3-1.7,2.1c-0.5,0.8-0.8,1.7-1.1,2.6c-0.3,0.9-0.5,1.8-0.6,2.8s-0.2,1.9-0.2,2.8c0,1.4,0.2,2.9,0.5,4.3
		c0.3,1.5,0.8,2.8,1.5,4c0.7,1.2,1.6,2.2,2.8,2.9C320.6,36.1,322,36.4,323.7,36.4z"/>
	<path fill="#A9B8C6" d="M359,43.4c-1.3,0-2.5-0.1-3.7-0.3c-1.2-0.2-2.4-0.6-3.5-1s-2.1-1.1-3.1-1.9c-0.9-0.8-1.8-1.7-2.4-2.8
		c-0.7-1.1-1.2-2.4-1.6-3.8s-0.6-3.1-0.6-5V5.6h7.2v22.9c0,1.5,0.2,2.8,0.5,3.8c0.4,1,0.9,1.8,1.5,2.4c0.7,0.6,1.5,1,2.5,1.3
		c1,0.3,2.1,0.4,3.3,0.4c1.2,0,2.3-0.1,3.2-0.4c1-0.3,1.8-0.7,2.5-1.3c0.7-0.6,1.2-1.4,1.6-2.4c0.4-1,0.5-2.3,0.5-3.8V5.6h7.2v22.9
		c0,2.8-0.4,5.1-1.2,7s-1.9,3.4-3.3,4.6s-3,2-4.8,2.5C362.8,43.1,360.9,43.4,359,43.4z"/>
	<path fill="#A9B8C6" d="M411.1,42.7l-9.6-17.8l-6.9,8.5v9.3h-7.2V5.6h7.2v17.7l14.1-17.7h8.5l-10.8,13.3l13.1,23.8H411.1z"/>
	<path fill="#A9B8C6" d="M445.6,42.7l-14.7-21.7c-0.2-0.4-0.5-0.8-0.8-1.3s-0.5-1-0.7-1.5c0.1,0.4,0.1,0.9,0.1,1.4c0,0.5,0,1,0,1.4
		v21.7h-7.1V5.6h6.7L443.5,27c0.2,0.3,0.5,0.8,0.8,1.3c0.3,0.5,0.6,1,0.8,1.5c-0.1-0.5-0.1-1-0.1-1.5c0-0.5,0-0.9,0-1.3V5.6h7.1
		v37.2H445.6z"/>
	<path fill="#A9B8C6" d="M472.6,43.4c-2,0-3.8-0.3-5.4-0.8c-1.6-0.5-3-1.2-4.2-2.2c-1.2-0.9-2.3-2-3.1-3.2c-0.9-1.2-1.6-2.6-2.1-4
		c-0.5-1.4-0.9-2.9-1.2-4.5c-0.3-1.5-0.4-3.1-0.4-4.6c0-1.5,0.1-3.1,0.4-4.6c0.3-1.5,0.6-3,1.2-4.5c0.5-1.4,1.2-2.8,2.1-4
		c0.9-1.2,1.9-2.3,3.1-3.2c1.2-0.9,2.6-1.6,4.2-2.2c1.6-0.5,3.4-0.8,5.4-0.8s3.8,0.3,5.4,0.8s3,1.2,4.2,2.2s2.2,2,3.1,3.2
		c0.9,1.2,1.6,2.6,2.1,4c0.5,1.4,0.9,2.9,1.2,4.5c0.3,1.5,0.4,3.1,0.4,4.6c0,1.5-0.1,3.1-0.4,4.6c-0.3,1.5-0.6,3-1.2,4.5
		c-0.5,1.4-1.2,2.8-2.1,4c-0.9,1.2-1.9,2.3-3.1,3.2c-1.2,0.9-2.6,1.6-4.2,2.2S474.6,43.4,472.6,43.4z M472.6,36.4
		c1.7,0,3.1-0.4,4.2-1.2s2-1.8,2.7-3c0.7-1.2,1.2-2.5,1.5-4c0.3-1.4,0.5-2.8,0.5-4.2c0-1-0.1-1.9-0.2-2.9c-0.1-1-0.3-1.9-0.6-2.8
		c-0.3-0.9-0.7-1.8-1.1-2.6c-0.5-0.8-1-1.5-1.7-2.1c-0.7-0.6-1.4-1.1-2.3-1.4s-1.9-0.5-3-0.5c-1.1,0-2.1,0.2-3,0.5
		c-0.9,0.4-1.6,0.9-2.3,1.5c-0.7,0.6-1.2,1.3-1.7,2.1c-0.5,0.8-0.8,1.7-1.1,2.6c-0.3,0.9-0.5,1.8-0.6,2.8c-0.1,1-0.2,1.9-0.2,2.8
		c0,1.4,0.2,2.9,0.5,4.3c0.3,1.5,0.8,2.8,1.5,4c0.7,1.2,1.6,2.2,2.8,2.9C469.5,36.1,470.9,36.4,472.6,36.4z"/>
	<path fill="#A9B8C6" d="M532.3,5.6l-8,37.2h-6.7L512,20.8c-0.2-0.6-0.3-1.1-0.3-1.6c-0.1-0.5-0.1-0.9-0.2-1.2
		c-0.1,0.4-0.1,0.8-0.2,1.2c-0.1,0.5-0.2,1-0.3,1.5l-5.5,21.9h-6.7l-8-37.2h7.4l4.1,20.9c0.1,0.6,0.2,1.2,0.3,1.6s0.1,0.8,0.2,1.2
		c0.1-0.4,0.1-0.8,0.2-1.2c0.1-0.4,0.2-1,0.3-1.6l5.1-20.9h6.2l5.2,20.9c0.2,0.7,0.3,1.2,0.4,1.6c0.1,0.4,0.1,0.8,0.2,1.2
		c0.1-0.4,0.1-0.8,0.2-1.2s0.2-0.9,0.3-1.6L525,5.6H532.3z"/>
	<path fill="#A9B8C6" d="M548.5,32.7v-1.9c0-1.6,0.2-3,0.6-4.1c0.4-1.1,1-2.1,1.6-2.9c0.6-0.8,1.3-1.5,2-2.1s1.4-1.2,2-1.7
		s1.2-1.2,1.6-1.8c0.4-0.6,0.6-1.4,0.6-2.3c0-1.2-0.4-2.2-1.2-3c-0.8-0.8-1.9-1.2-3.4-1.2c-1.8,0-3.1,0.5-4.1,1.6
		c-0.9,1.1-1.4,2.6-1.4,4.6H540c0-2.1,0.3-3.9,0.9-5.5s1.5-2.9,2.6-4c1.1-1.1,2.4-1.9,3.9-2.5c1.5-0.6,3.2-0.9,5-0.9
		c1.9,0,3.5,0.3,5,0.8S560,7.1,561,8c1,1,1.7,2.1,2.2,3.4c0.5,1.3,0.8,2.7,0.8,4.3c0,1.1-0.1,2-0.4,2.9c-0.2,0.8-0.6,1.6-1,2.2
		c-0.4,0.6-0.9,1.2-1.4,1.7c-0.5,0.5-1,1-1.6,1.5c-0.5,0.5-1.1,0.9-1.6,1.4s-1,0.9-1.4,1.5c-0.4,0.5-0.7,1.1-1,1.7
		c-0.2,0.6-0.4,1.4-0.4,2.2v1.9H548.5z M552,43.4c-0.6,0-1.2-0.1-1.8-0.3c-0.5-0.2-1-0.5-1.4-0.9s-0.7-0.9-0.9-1.4s-0.3-1.1-0.3-1.7
		c0-0.6,0.1-1.2,0.3-1.7c0.2-0.5,0.5-1,0.9-1.4s0.9-0.7,1.4-0.9c0.5-0.2,1.1-0.3,1.8-0.3c0.6,0,1.2,0.1,1.8,0.3
		c0.5,0.2,1,0.5,1.4,0.9s0.7,0.9,1,1.4c0.2,0.5,0.3,1.1,0.3,1.7c0,0.6-0.1,1.2-0.3,1.7s-0.6,1-1,1.4s-0.9,0.7-1.4,0.9
		C553.2,43.3,552.6,43.4,552,43.4z"/>
</g>
<path fill="#A9B8C6" d="M61,141.5V89.3h24.2c3.3,0,6.1,0.5,8.3,1.4c2.2,0.9,4,2.1,5.4,3.6c1.4,1.5,2.3,3.2,2.9,5.2
	c0.6,2,0.9,4,0.9,6.2c0,1.5-0.2,3-0.6,4.5c-0.4,1.5-1.1,3-1.9,4.3c-0.8,1.4-1.9,2.6-3.2,3.7c-1.3,1.1-2.7,2-4.4,2.6l10.1,20.8H91.4
	L81.6,122H71.1v19.5H61z M85.4,112.5c1.3,0,2.4-0.2,3.2-0.6c0.9-0.4,1.6-0.9,2.1-1.5c0.5-0.6,0.9-1.4,1.1-2.2
	c0.2-0.8,0.3-1.7,0.3-2.6c0-0.8-0.1-1.6-0.3-2.5c-0.2-0.8-0.6-1.5-1.1-2.2c-0.5-0.6-1.2-1.2-2.1-1.5c-0.9-0.4-2-0.6-3.4-0.6H71.1
	v13.6H85.4z"/>
<path fill="#A9B8C6" d="M135.4,142.4c-2.8,0-5.3-0.4-7.6-1.1s-4.2-1.7-5.9-3c-1.7-1.3-3.2-2.8-4.4-4.5c-1.2-1.7-2.2-3.6-3-5.6
	c-0.8-2-1.3-4.1-1.7-6.3c-0.4-2.2-0.5-4.3-0.5-6.5c0-2.1,0.2-4.3,0.5-6.5c0.4-2.2,0.9-4.3,1.7-6.3c0.8-2,1.8-3.9,3-5.6
	c1.2-1.7,2.7-3.2,4.4-4.5c1.7-1.3,3.7-2.3,5.9-3c2.2-0.7,4.8-1.1,7.6-1.1c2.8,0,5.3,0.4,7.6,1.1c2.2,0.7,4.2,1.7,5.9,3
	c1.7,1.3,3.2,2.8,4.4,4.5c1.2,1.7,2.2,3.6,3,5.6c0.8,2,1.3,4.1,1.7,6.3c0.4,2.2,0.5,4.3,0.5,6.5c0,2.2-0.2,4.3-0.5,6.5
	c-0.4,2.2-0.9,4.3-1.7,6.3c-0.8,2-1.8,3.9-3,5.6c-1.2,1.7-2.7,3.2-4.4,4.5c-1.7,1.3-3.7,2.3-5.9,3S138.2,142.4,135.4,142.4z
	 M135.4,132.7c2.3,0,4.3-0.5,5.9-1.6c1.6-1.1,2.9-2.5,3.9-4.2c1-1.7,1.7-3.6,2.1-5.6c0.4-2,0.7-4,0.7-5.9c0-1.3-0.1-2.7-0.3-4.1
	c-0.2-1.4-0.5-2.7-0.9-4c-0.4-1.3-0.9-2.5-1.6-3.6c-0.7-1.1-1.4-2.1-2.4-2.9c-0.9-0.8-2-1.5-3.2-2c-1.2-0.5-2.6-0.7-4.2-0.7
	c-1.6,0-3,0.3-4.2,0.8c-1.2,0.5-2.3,1.2-3.2,2.1c-0.9,0.9-1.7,1.9-2.4,3c-0.7,1.1-1.2,2.4-1.6,3.6c-0.4,1.3-0.7,2.6-0.9,3.9
	c-0.2,1.3-0.3,2.6-0.3,3.9c0,2,0.2,4,0.7,6.1c0.4,2,1.1,3.9,2.1,5.6c1,1.7,2.3,3,3.9,4.1C131.1,132.2,133.1,132.7,135.4,132.7z"/>
<path fill="#A9B8C6" d="M208.3,141.5v-26.8c0-0.3,0-0.6,0-1c0-0.4,0-0.8,0-1.2c0-0.4,0-0.8,0-1.1c0-0.3,0-0.6,0.1-0.8
	c-0.3,0.8-0.5,1.6-0.8,2.2c-0.3,0.7-0.5,1.3-0.8,1.9l-12.7,27.7l-12.7-27.7c-0.3-0.6-0.5-1.2-0.8-1.9c-0.3-0.7-0.5-1.4-0.8-2.2
	c0,0.2,0,0.5,0.1,0.8c0,0.3,0,0.7,0,1.1c0,0.4,0,0.8,0,1.2c0,0.4,0,0.7,0,1v26.8h-10.1V89.3h10.2l12.8,28.8c0.3,0.6,0.5,1.2,0.7,1.8
	c0.2,0.6,0.4,1.2,0.6,1.8c0.2-0.6,0.4-1.2,0.6-1.8c0.2-0.6,0.5-1.2,0.7-1.8l13-28.8h9.6v52.2H208.3z"/>
<path fill="#A9B8C6" d="M266.8,141.5l-4-10.8h-20.1l-4,10.8h-10.8l20-52.2h9.8l20,52.2H266.8z M254.4,107.9
	c-0.3-0.6-0.6-1.4-0.9-2.3s-0.6-1.7-0.8-2.4c-0.2,0.8-0.4,1.6-0.8,2.4c-0.3,0.9-0.6,1.6-0.9,2.3l-5.2,13.6h13.6L254.4,107.9z"/>
<path fill="#A9B8C6" d="M319.7,141.5L299,111.1c-0.3-0.5-0.7-1.1-1.1-1.9c-0.4-0.7-0.7-1.4-1-2.1c0.1,0.6,0.1,1.2,0.2,2
	c0,0.8,0.1,1.4,0.1,2v30.4h-10V89.3h9.5l20.2,30.1c0.3,0.5,0.7,1.1,1.1,1.8s0.8,1.4,1.1,2.1c-0.1-0.7-0.1-1.4-0.2-2.1
	c0-0.7-0.1-1.3-0.1-1.8V89.3h10v52.2H319.7z"/>
<path fill="#A9B8C6" d="M362.1,142.3c-2.7,0-5.1-0.4-7.3-1.1c-2.1-0.7-4-1.7-5.6-3c-1.6-1.3-3-2.8-4.1-4.5c-1.1-1.7-2.1-3.6-2.8-5.6
	c-0.7-2-1.2-4.1-1.6-6.2c-0.3-2.2-0.5-4.3-0.5-6.5c0-2,0.2-4,0.5-6.1c0.3-2.1,0.9-4.1,1.6-6.1c0.7-2,1.6-3.9,2.8-5.6
	c1.2-1.8,2.5-3.3,4.1-4.7c1.6-1.3,3.5-2.4,5.6-3.2c2.1-0.8,4.5-1.2,7.2-1.2c2.5,0,4.8,0.3,6.8,1c2,0.7,3.8,1.6,5.4,2.7
	c1.6,1.1,2.9,2.4,3.9,3.8c1.1,1.4,1.9,2.8,2.5,4.3l-9,4.1c-0.6-1-1.3-1.8-1.9-2.6c-0.7-0.8-1.4-1.4-2.1-1.9
	c-0.8-0.5-1.6-0.9-2.5-1.2c-0.9-0.3-1.9-0.4-3.1-0.4c-1.5,0-2.8,0.2-3.9,0.7c-1.1,0.5-2.1,1.2-3,2c-0.8,0.8-1.6,1.8-2.1,3
	s-1.1,2.3-1.4,3.6c-0.4,1.3-0.6,2.6-0.8,3.9c-0.2,1.3-0.2,2.7-0.2,3.9c0,2,0.2,4.1,0.7,6.1c0.4,2,1.1,3.9,2,5.5c0.9,1.6,2.1,3,3.5,4
	c1.4,1,3.2,1.5,5.2,1.5c1.1,0,2.1-0.2,2.9-0.5s1.7-0.8,2.5-1.4c0.8-0.6,1.5-1.3,2.1-2.1c0.7-0.8,1.3-1.7,1.9-2.7l9.2,3.5
	c-0.8,1.9-1.8,3.7-3,5.3c-1.2,1.6-2.5,2.9-4.1,4.1c-1.5,1.1-3.3,2-5.2,2.6C366.6,142,364.5,142.3,362.1,142.3z"/>
<path fill="#A9B8C6" d="M391.3,141.5V89.3h35.6v9.6h-25.6v11h15v9.5h-15V132h27.1v9.5H391.3z"/>
<path fill="#A9B8C6" d="M481.5,103.5c-0.3-0.8-0.7-1.5-1.3-2.2c-0.5-0.7-1.2-1.3-1.9-1.8c-0.7-0.5-1.6-0.9-2.5-1.2
	c-1-0.3-2-0.4-3.2-0.4c-2.2,0-3.9,0.4-5.1,1.3c-1.2,0.9-1.8,2.1-1.8,3.7c0,1,0.4,1.9,1.2,2.6c0.8,0.7,1.8,1.3,3.1,1.9
	c1.3,0.6,2.7,1.1,4.3,1.6c1.6,0.5,3.3,1.1,5,1.7c1.7,0.6,3.4,1.3,5,2.2c1.6,0.8,3.1,1.9,4.3,3.1c1.3,1.2,2.3,2.7,3.1,4.4
	c0.8,1.7,1.2,3.7,1.2,6.1c0,2.5-0.5,4.8-1.5,6.8c-1,2-2.3,3.6-4,5c-1.7,1.4-3.7,2.4-6,3.1c-2.3,0.7-4.8,1.1-7.5,1.1
	c-2.5,0-4.7-0.3-6.9-1c-2.1-0.7-4.1-1.6-5.8-2.9c-1.7-1.2-3.2-2.7-4.5-4.5c-1.3-1.8-2.3-3.8-3.1-6l9.2-3.4c0.6,1.2,1.2,2.3,2,3.3
	c0.8,1,1.7,1.9,2.6,2.6c1,0.7,2,1.3,3.1,1.7c1.1,0.4,2.3,0.6,3.6,0.6c1.3,0,2.4-0.1,3.4-0.4c1-0.3,1.9-0.7,2.7-1.2
	c0.7-0.5,1.3-1.2,1.7-2c0.4-0.8,0.6-1.7,0.6-2.7c0-1.3-0.4-2.3-1.2-3.2c-0.8-0.9-1.8-1.6-3.1-2.3c-1.3-0.6-2.7-1.2-4.3-1.7
	c-1.6-0.5-3.3-1.1-5-1.7c-1.7-0.6-3.3-1.3-5-2c-1.6-0.8-3.1-1.7-4.3-2.9c-1.3-1.1-2.3-2.5-3.1-4.1c-0.8-1.6-1.2-3.5-1.2-5.8
	c0-2,0.4-3.8,1.2-5.6c0.8-1.7,1.9-3.3,3.4-4.6c1.5-1.3,3.3-2.3,5.5-3.1c2.2-0.8,4.7-1.1,7.5-1.1c2.4,0,4.5,0.3,6.4,0.9
	c1.9,0.6,3.6,1.4,5,2.5c1.5,1.1,2.7,2.4,3.7,3.8c1,1.5,1.7,3.1,2.3,4.8L481.5,103.5z"/>
<path fill="#A9B8C6" d="M523.8,142.3c-2.7,0-5.1-0.4-7.3-1.1c-2.1-0.7-4-1.7-5.6-3c-1.6-1.3-3-2.8-4.1-4.5c-1.1-1.7-2.1-3.6-2.8-5.6
	c-0.7-2-1.2-4.1-1.6-6.2c-0.3-2.2-0.5-4.3-0.5-6.5c0-2,0.2-4,0.5-6.1c0.3-2.1,0.9-4.1,1.6-6.1c0.7-2,1.6-3.9,2.8-5.6
	c1.2-1.8,2.5-3.3,4.1-4.7c1.6-1.3,3.5-2.4,5.6-3.2c2.1-0.8,4.5-1.2,7.2-1.2c2.5,0,4.8,0.3,6.8,1c2,0.7,3.8,1.6,5.4,2.7
	c1.6,1.1,2.9,2.4,3.9,3.8c1.1,1.4,1.9,2.8,2.5,4.3l-9,4.1c-0.6-1-1.3-1.8-1.9-2.6c-0.7-0.8-1.4-1.4-2.1-1.9
	c-0.8-0.5-1.6-0.9-2.5-1.2c-0.9-0.3-1.9-0.4-3.1-0.4c-1.5,0-2.8,0.2-3.9,0.7c-1.1,0.5-2.1,1.2-3,2c-0.8,0.8-1.6,1.8-2.1,3
	c-0.6,1.1-1.1,2.3-1.4,3.6s-0.6,2.6-0.8,3.9c-0.2,1.3-0.2,2.7-0.2,3.9c0,2,0.2,4.1,0.7,6.1s1.1,3.9,2,5.5c0.9,1.6,2.1,3,3.5,4
	c1.4,1,3.2,1.5,5.2,1.5c1.1,0,2.1-0.2,2.9-0.5s1.7-0.8,2.5-1.4c0.8-0.6,1.5-1.3,2.1-2.1c0.7-0.8,1.3-1.7,1.9-2.7l9.2,3.5
	c-0.8,1.9-1.8,3.7-3,5.3c-1.2,1.6-2.5,2.9-4.1,4.1c-1.5,1.1-3.3,2-5.2,2.6C528.3,142,526.2,142.3,523.8,142.3z"/>
<path fill="#A9B8C6" d="M588.1,141.5l-4-10.8h-20.1l-4,10.8h-10.8l20-52.2h9.8l20,52.2H588.1z M575.6,107.9
	c-0.3-0.6-0.6-1.4-0.9-2.3s-0.6-1.7-0.8-2.4c-0.2,0.8-0.4,1.6-0.8,2.4c-0.3,0.9-0.6,1.6-0.9,2.3l-5.2,13.6h13.6L575.6,107.9z"/>
<path fill="#A9B8C6" d="M646.7,141.5v-26.8c0-0.3,0-0.6,0-1c0-0.4,0-0.8,0-1.2c0-0.4,0-0.8,0-1.1c0-0.3,0-0.6,0.1-0.8
	c-0.3,0.8-0.5,1.6-0.8,2.2c-0.3,0.7-0.5,1.3-0.8,1.9l-12.7,27.7l-12.7-27.7c-0.3-0.6-0.5-1.2-0.8-1.9c-0.3-0.7-0.5-1.4-0.8-2.2
	c0,0.2,0,0.5,0.1,0.8c0,0.3,0,0.7,0,1.1c0,0.4,0,0.8,0,1.2c0,0.4,0,0.7,0,1v26.8h-10.1V89.3h10.2l12.8,28.8c0.3,0.6,0.5,1.2,0.7,1.8
	c0.2,0.6,0.4,1.2,0.6,1.8c0.2-0.6,0.4-1.2,0.6-1.8c0.2-0.6,0.5-1.2,0.7-1.8l13-28.8h9.6v52.2H646.7z"/>
<path fill="#A9B8C6" d="M695.2,103.5c-0.3-0.8-0.7-1.5-1.3-2.2c-0.5-0.7-1.2-1.3-1.9-1.8c-0.7-0.5-1.6-0.9-2.5-1.2
	c-1-0.3-2-0.4-3.2-0.4c-2.2,0-3.9,0.4-5.1,1.3c-1.2,0.9-1.8,2.1-1.8,3.7c0,1,0.4,1.9,1.2,2.6c0.8,0.7,1.8,1.3,3.1,1.9
	c1.3,0.6,2.7,1.1,4.3,1.6c1.6,0.5,3.3,1.1,5,1.7c1.7,0.6,3.4,1.3,5,2.2c1.6,0.8,3.1,1.9,4.3,3.1c1.3,1.2,2.3,2.7,3.1,4.4
	c0.8,1.7,1.2,3.7,1.2,6.1c0,2.5-0.5,4.8-1.5,6.8c-1,2-2.3,3.6-4,5c-1.7,1.4-3.7,2.4-6,3.1c-2.3,0.7-4.8,1.1-7.5,1.1
	c-2.5,0-4.7-0.3-6.9-1c-2.1-0.7-4.1-1.6-5.8-2.9c-1.7-1.2-3.2-2.7-4.5-4.5c-1.3-1.8-2.3-3.8-3.1-6l9.2-3.4c0.6,1.2,1.2,2.3,2,3.3
	c0.8,1,1.7,1.9,2.6,2.6c1,0.7,2,1.3,3.1,1.7c1.1,0.4,2.3,0.6,3.6,0.6c1.3,0,2.4-0.1,3.4-0.4c1-0.3,1.9-0.7,2.7-1.2
	c0.7-0.5,1.3-1.2,1.7-2c0.4-0.8,0.6-1.7,0.6-2.7c0-1.3-0.4-2.3-1.2-3.2c-0.8-0.9-1.8-1.6-3.1-2.3c-1.3-0.6-2.7-1.2-4.3-1.7
	c-1.6-0.5-3.3-1.1-5-1.7c-1.7-0.6-3.3-1.3-5-2c-1.6-0.8-3.1-1.7-4.3-2.9c-1.3-1.1-2.3-2.5-3.1-4.1c-0.8-1.6-1.2-3.5-1.2-5.8
	c0-2,0.4-3.8,1.2-5.6c0.8-1.7,1.9-3.3,3.4-4.6c1.5-1.3,3.3-2.3,5.5-3.1c2.2-0.8,4.7-1.1,7.5-1.1c2.4,0,4.5,0.3,6.4,0.9
	c1.9,0.6,3.6,1.4,5,2.5c1.5,1.1,2.7,2.4,3.7,3.8c1,1.5,1.7,3.1,2.3,4.8L695.2,103.5z"/>
<path fill="#A9B8C6" d="M60.8,310.6v-80.5h37.4c5.1,0,9.3,0.7,12.8,2.1c3.4,1.4,6.2,3.3,8.3,5.6c2.1,2.3,3.6,5,4.5,8
	c0.9,3,1.3,6.2,1.3,9.5c0,2.3-0.3,4.6-1,6.9c-0.7,2.3-1.6,4.6-2.9,6.6c-1.3,2.1-2.9,4-4.9,5.7c-1.9,1.7-4.2,3-6.8,4l15.6,32h-17.5
	l-15-30H76.4v30H60.8z M98.4,265.8c2,0,3.6-0.3,5-0.9c1.3-0.6,2.4-1.4,3.3-2.3c0.8-1,1.4-2.1,1.8-3.4c0.4-1.3,0.5-2.6,0.5-4
	c0-1.3-0.2-2.5-0.5-3.8c-0.3-1.3-0.9-2.4-1.7-3.4c-0.8-1-1.9-1.8-3.2-2.4c-1.4-0.6-3.1-0.9-5.2-0.9H76.4v21H98.4z"/>
<path fill="#A9B8C6" d="M142.9,310.6v-80.5h54.9v14.8h-39.4v16.9h23.2v14.7h-23.2v19.4h41.8v14.7H142.9z"/>
<path fill="#A9B8C6" d="M216.9,310.6v-80.5h34.5c5.1,0,9.4,0.7,12.9,2.2c3.5,1.5,6.3,3.4,8.5,5.8c2.2,2.4,3.7,5.1,4.7,8.2
	c1,3,1.4,6.1,1.4,9.2c0,1.9-0.2,3.9-0.7,5.9c-0.4,2-1.1,3.9-2.1,5.8c-0.9,1.9-2.1,3.7-3.6,5.3c-1.5,1.6-3.2,3.1-5.2,4.3
	c-2,1.3-4.4,2.2-7,2.9c-2.6,0.7-5.6,1.1-8.8,1.1h-19v29.6H216.9z M252.1,266.2c2,0,3.6-0.3,5-1c1.3-0.6,2.4-1.5,3.3-2.5
	c0.8-1,1.4-2.2,1.8-3.4c0.4-1.3,0.6-2.5,0.6-3.8c0-1.2-0.2-2.4-0.5-3.6c-0.3-1.3-0.9-2.4-1.7-3.5c-0.8-1-1.9-1.9-3.3-2.6
	c-1.4-0.7-3.1-1-5.2-1h-19.6v21.3H252.1z"/>
<path fill="#A9B8C6" d="M326.4,312c-4.3,0-8.2-0.6-11.7-1.7c-3.4-1.1-6.5-2.7-9.1-4.7c-2.6-2-4.9-4.3-6.8-7
	c-1.9-2.7-3.4-5.6-4.6-8.6c-1.2-3.1-2-6.3-2.6-9.7c-0.5-3.3-0.8-6.7-0.8-10c0-3.3,0.3-6.6,0.8-10c0.5-3.3,1.4-6.6,2.6-9.7
	c1.2-3.1,2.7-6,4.6-8.6c1.9-2.7,4.1-5,6.8-7c2.6-2,5.7-3.5,9.1-4.7c3.4-1.1,7.3-1.7,11.7-1.7c4.3,0,8.2,0.6,11.6,1.7
	c3.4,1.1,6.4,2.7,9.1,4.7c2.6,2,4.9,4.3,6.7,7c1.9,2.7,3.4,5.6,4.6,8.6c1.2,3.1,2,6.3,2.6,9.7c0.5,3.3,0.8,6.7,0.8,10
	c0,3.3-0.3,6.7-0.8,10c-0.5,3.3-1.4,6.6-2.6,9.7c-1.2,3.1-2.7,6-4.6,8.6c-1.9,2.7-4.1,5-6.7,7c-2.6,2-5.6,3.5-9.1,4.7
	C334.7,311.4,330.8,312,326.4,312z M326.4,297c3.6,0,6.6-0.8,9.1-2.5c2.5-1.7,4.4-3.8,5.9-6.5c1.5-2.6,2.6-5.5,3.3-8.6
	c0.7-3.1,1-6.1,1-9.1c0-2.1-0.1-4.1-0.4-6.3c-0.3-2.1-0.7-4.2-1.4-6.1c-0.6-2-1.5-3.8-2.5-5.6c-1-1.7-2.2-3.3-3.6-4.5
	c-1.4-1.3-3.1-2.3-5-3.1c-1.9-0.7-4-1.1-6.4-1.1c-2.4,0-4.6,0.4-6.5,1.2c-1.9,0.8-3.6,1.8-5,3.2c-1.4,1.3-2.7,2.9-3.7,4.6
	c-1,1.8-1.8,3.6-2.5,5.6c-0.6,2-1.1,4-1.4,6.1c-0.3,2.1-0.4,4.1-0.4,6c0,3.1,0.3,6.2,1,9.3c0.7,3.2,1.8,6,3.3,8.6
	c1.5,2.6,3.5,4.7,6,6.3C319.8,296.2,322.8,297,326.4,297z"/>
<path fill="#A9B8C6" d="M379.6,310.6v-80.5H417c5.1,0,9.3,0.7,12.8,2.1c3.4,1.4,6.2,3.3,8.3,5.6c2.1,2.3,3.6,5,4.5,8
	c0.9,3,1.3,6.2,1.3,9.5c0,2.3-0.3,4.6-1,6.9c-0.7,2.3-1.6,4.6-2.9,6.6c-1.3,2.1-2.9,4-4.9,5.7c-1.9,1.7-4.2,3-6.8,4l15.6,32h-17.5
	l-15-30h-16.2v30H379.6z M417.2,265.8c2,0,3.6-0.3,5-0.9c1.3-0.6,2.4-1.4,3.3-2.3c0.8-1,1.4-2.1,1.8-3.4c0.4-1.3,0.5-2.6,0.5-4
	c0-1.3-0.2-2.5-0.5-3.8c-0.3-1.3-0.9-2.4-1.7-3.4c-0.8-1-1.9-1.8-3.2-2.4c-1.4-0.6-3.1-0.9-5.2-0.9h-22.1v21H417.2z"/>
<path fill="#A9B8C6" d="M495,245.1v65.5h-15.5v-65.5h-23v-15H518v15H495z"/>
<path fill="#A9B8C6" d="M533.5,310.6v-80.5h54.9v14.8h-39.4v16.9h23.2v14.7h-23.2v19.4h41.8v14.7H533.5z"/>
<path fill="#A9B8C6" d="M607.6,230.1h27.2c4.7,0,8.9,0.5,12.6,1.6c3.7,1.1,7.1,2.5,10,4.4c2.9,1.9,5.4,4.1,7.4,6.6
	c2.1,2.6,3.7,5.3,5.1,8.3c1.3,3,2.3,6.1,2.9,9.4s0.9,6.6,0.9,9.9c0,3.1-0.3,6.2-0.9,9.4c-0.6,3.2-1.5,6.3-2.8,9.3
	c-1.3,3-2.9,5.8-5,8.4c-2,2.6-4.5,4.9-7.5,6.9c-2.9,2-6.3,3.5-10.2,4.6c-3.9,1.1-8.2,1.7-13.2,1.7h-26.7V230.1z M636.1,295.9
	c4,0,7.4-0.8,10.1-2.3c2.7-1.6,4.9-3.6,6.6-6c1.7-2.4,2.9-5.2,3.6-8.2c0.7-3,1.1-6,1.1-9c0-3.1-0.4-6.2-1.2-9.3
	c-0.8-3-2-5.8-3.6-8.2c-1.6-2.4-3.7-4.3-6.3-5.8c-2.6-1.5-5.6-2.2-9.1-2.2h-14.3v51H636.1z"/>
<path fill="#A9B8C6" d="M694.9,312c-1.4,0-2.7-0.2-3.8-0.7c-1.2-0.5-2.2-1.2-3.1-2c-0.9-0.8-1.5-1.8-2-3c-0.5-1.2-0.7-2.4-0.7-3.7
	c0-1.3,0.2-2.6,0.7-3.8c0.5-1.2,1.2-2.2,2-3c0.9-0.9,1.9-1.5,3.1-2c1.2-0.5,2.5-0.7,3.8-0.7s2.7,0.2,3.8,0.7c1.2,0.5,2.2,1.2,3.1,2
	c0.9,0.9,1.6,1.9,2.1,3c0.5,1.2,0.8,2.4,0.8,3.8c0,1.3-0.3,2.5-0.8,3.7c-0.5,1.2-1.2,2.2-2.1,3c-0.9,0.8-1.9,1.5-3.1,2
	C697.6,311.7,696.3,312,694.9,312z"/>
<path fill="#A9B8C6" d="M86.3,204.6l-2.6-7h-13l-2.6,7h-7l13-33.8h6.4l13,33.8H86.3z M78.2,182.9c-0.2-0.4-0.4-0.9-0.6-1.5
	c-0.2-0.6-0.4-1.1-0.5-1.6c-0.1,0.5-0.3,1-0.5,1.6c-0.2,0.6-0.4,1.1-0.6,1.5l-3.4,8.8h8.8L78.2,182.9z"/>
<path fill="#A9B8C6" d="M99.4,204.6v-33.8h15.7c2.1,0,3.9,0.3,5.4,0.9c1.4,0.6,2.6,1.4,3.5,2.3c0.9,1,1.5,2.1,1.9,3.4
	c0.4,1.3,0.6,2.6,0.6,4c0,1-0.1,1.9-0.4,2.9s-0.7,1.9-1.2,2.8c-0.6,0.9-1.2,1.7-2.1,2.4c-0.8,0.7-1.8,1.3-2.9,1.7l6.6,13.5h-7.3
	l-6.3-12.6H106v12.6H99.4z M115.2,185.8c0.8,0,1.5-0.1,2.1-0.4c0.6-0.2,1-0.6,1.4-1c0.3-0.4,0.6-0.9,0.7-1.4
	c0.1-0.5,0.2-1.1,0.2-1.7c0-0.5-0.1-1.1-0.2-1.6c-0.1-0.5-0.4-1-0.7-1.4c-0.3-0.4-0.8-0.8-1.4-1s-1.3-0.4-2.2-0.4H106v8.8H115.2z"/>
<path fill="#A9B8C6" d="M133.9,204.6v-33.8H157v6.2h-16.6v7.1h9.7v6.2h-9.7v8.2h17.6v6.2H133.9z"/>
<path fill="#A9B8C6" d="M190.2,177.1v27.5h-6.5v-27.5H174v-6.3h25.9v6.3H190.2z"/>
<path fill="#A9B8C6" d="M227.1,204.6v-14.3h-14.2v14.3h-6.5v-33.8h6.5v13.4h14.2v-13.4h6.5v33.8H227.1z"/>
<path fill="#A9B8C6" d="M242.3,204.6v-33.8h23.1v6.2h-16.6v7.1h9.7v6.2h-9.7v8.2h17.6v6.2H242.3z"/>
<path fill="#A9B8C6" d="M309.4,204.6v-17.4c0-0.2,0-0.4,0-0.7c0-0.2,0-0.5,0-0.8c0-0.3,0-0.5,0-0.7c0-0.2,0-0.4,0-0.5
	c-0.2,0.5-0.3,1-0.5,1.4c-0.2,0.4-0.3,0.8-0.5,1.2l-8.2,18l-8.3-18c-0.2-0.4-0.3-0.8-0.5-1.2c-0.2-0.4-0.3-0.9-0.5-1.4
	c0,0.1,0,0.3,0,0.5c0,0.2,0,0.5,0,0.7c0,0.3,0,0.5,0,0.8c0,0.3,0,0.5,0,0.7v17.4h-6.5v-33.8h6.6l8.3,18.7c0.2,0.4,0.3,0.8,0.5,1.2
	c0.1,0.4,0.3,0.7,0.4,1.1c0.1-0.4,0.3-0.8,0.4-1.1c0.1-0.4,0.3-0.8,0.5-1.2l8.4-18.7h6.2v33.8H309.4z"/>
<path fill="#A9B8C6" d="M338.3,205.2c-1.8,0-3.5-0.2-4.9-0.7c-1.4-0.5-2.7-1.1-3.8-2c-1.1-0.8-2.1-1.8-2.8-2.9
	c-0.8-1.1-1.4-2.3-1.9-3.6c-0.5-1.3-0.9-2.7-1.1-4.1c-0.2-1.4-0.3-2.8-0.3-4.2c0-1.4,0.1-2.8,0.3-4.2c0.2-1.4,0.6-2.8,1.1-4.1
	c0.5-1.3,1.1-2.5,1.9-3.6c0.8-1.1,1.7-2.1,2.8-2.9s2.4-1.5,3.8-2c1.4-0.5,3.1-0.7,4.9-0.7c1.8,0,3.5,0.2,4.9,0.7
	c1.4,0.5,2.7,1.1,3.8,2c1.1,0.8,2,1.8,2.8,2.9c0.8,1.1,1.4,2.3,1.9,3.6c0.5,1.3,0.9,2.7,1.1,4.1c0.2,1.4,0.3,2.8,0.3,4.2
	c0,1.4-0.1,2.8-0.3,4.2c-0.2,1.4-0.6,2.8-1.1,4.1c-0.5,1.3-1.1,2.5-1.9,3.6c-0.8,1.1-1.7,2.1-2.8,2.9c-1.1,0.8-2.4,1.5-3.8,2
	C341.8,205,340.2,205.2,338.3,205.2z M338.3,198.9c1.5,0,2.8-0.4,3.8-1.1c1-0.7,1.9-1.6,2.5-2.7c0.6-1.1,1.1-2.3,1.4-3.6
	c0.3-1.3,0.4-2.6,0.4-3.8c0-0.9-0.1-1.7-0.2-2.6c-0.1-0.9-0.3-1.7-0.6-2.6c-0.3-0.8-0.6-1.6-1-2.3c-0.4-0.7-0.9-1.4-1.5-1.9
	c-0.6-0.5-1.3-1-2.1-1.3c-0.8-0.3-1.7-0.5-2.7-0.5c-1,0-1.9,0.2-2.7,0.5c-0.8,0.3-1.5,0.8-2.1,1.3c-0.6,0.6-1.1,1.2-1.5,1.9
	c-0.4,0.7-0.8,1.5-1,2.4s-0.5,1.7-0.6,2.5c-0.1,0.9-0.2,1.7-0.2,2.5c0,1.3,0.1,2.6,0.4,3.9c0.3,1.3,0.7,2.5,1.4,3.6
	c0.6,1.1,1.5,2,2.5,2.6C335.5,198.6,336.8,198.9,338.3,198.9z"/>
<path fill="#A9B8C6" d="M376.9,180c-0.2-0.5-0.5-1-0.8-1.4s-0.8-0.8-1.2-1.1c-0.5-0.3-1-0.6-1.7-0.8c-0.6-0.2-1.3-0.3-2.1-0.3
	c-1.4,0-2.5,0.3-3.3,0.9c-0.8,0.6-1.2,1.4-1.2,2.4c0,0.7,0.3,1.2,0.8,1.7c0.5,0.5,1.2,0.9,2,1.2s1.7,0.7,2.8,1.1
	c1,0.3,2.1,0.7,3.2,1.1c1.1,0.4,2.2,0.9,3.2,1.4c1,0.5,2,1.2,2.8,2c0.8,0.8,1.5,1.7,2,2.8c0.5,1.1,0.8,2.4,0.8,3.9
	c0,1.7-0.3,3.1-0.9,4.4c-0.6,1.3-1.5,2.4-2.6,3.2c-1.1,0.9-2.4,1.6-3.9,2c-1.5,0.5-3.1,0.7-4.8,0.7c-1.6,0-3.1-0.2-4.5-0.6
	c-1.4-0.4-2.6-1.1-3.8-1.9c-1.1-0.8-2.1-1.8-2.9-2.9c-0.8-1.1-1.5-2.4-2-3.9l5.9-2.2c0.4,0.8,0.8,1.5,1.3,2.2
	c0.5,0.7,1.1,1.2,1.7,1.7c0.6,0.5,1.3,0.8,2,1.1c0.7,0.3,1.5,0.4,2.3,0.4c0.8,0,1.6-0.1,2.2-0.3c0.7-0.2,1.2-0.4,1.7-0.8
	c0.5-0.3,0.8-0.8,1.1-1.3c0.3-0.5,0.4-1.1,0.4-1.8c0-0.8-0.3-1.5-0.8-2.1c-0.5-0.6-1.2-1-2-1.5c-0.8-0.4-1.8-0.8-2.8-1.1
	c-1-0.3-2.1-0.7-3.2-1.1c-1.1-0.4-2.2-0.8-3.2-1.3c-1-0.5-2-1.1-2.8-1.9c-0.8-0.7-1.5-1.6-2-2.7c-0.5-1-0.8-2.3-0.8-3.8
	c0-1.3,0.3-2.5,0.8-3.6s1.3-2.1,2.2-3c1-0.8,2.2-1.5,3.6-2c1.4-0.5,3-0.7,4.9-0.7c1.5,0,2.9,0.2,4.1,0.6c1.2,0.4,2.3,0.9,3.3,1.6
	c0.9,0.7,1.7,1.5,2.4,2.5c0.6,1,1.1,2,1.5,3.1L376.9,180z"/>
<path fill="#A9B8C6" d="M405.4,177.1v27.5h-6.5v-27.5h-9.7v-6.3h25.9v6.3H405.4z"/>
<path fill="#A9B8C6" d="M445.7,205.2c-1.8,0-3.3-0.2-4.7-0.7c-1.4-0.5-2.6-1.1-3.7-2s-2-1.8-2.7-2.9c-0.7-1.1-1.3-2.3-1.8-3.6
	c-0.5-1.3-0.8-2.6-1-4c-0.2-1.4-0.3-2.8-0.3-4.2c0-1.3,0.1-2.6,0.3-4c0.2-1.4,0.6-2.7,1-4c0.5-1.3,1.1-2.5,1.8-3.7
	c0.7-1.1,1.6-2.2,2.7-3c1-0.9,2.3-1.6,3.6-2.1c1.4-0.5,2.9-0.8,4.7-0.8c1.6,0,3.1,0.2,4.4,0.7c1.3,0.4,2.5,1,3.5,1.7
	c1,0.7,1.9,1.5,2.6,2.4c0.7,0.9,1.2,1.8,1.6,2.8l-5.9,2.7c-0.4-0.6-0.8-1.2-1.3-1.7c-0.4-0.5-0.9-0.9-1.4-1.3
	c-0.5-0.3-1-0.6-1.6-0.8c-0.6-0.2-1.3-0.3-2-0.3c-0.9,0-1.8,0.2-2.5,0.5c-0.7,0.3-1.4,0.8-1.9,1.3c-0.6,0.6-1,1.2-1.4,1.9
	c-0.4,0.7-0.7,1.5-0.9,2.3c-0.2,0.8-0.4,1.7-0.5,2.5c-0.1,0.9-0.2,1.7-0.2,2.5c0,1.3,0.1,2.6,0.4,4c0.3,1.3,0.7,2.5,1.3,3.6
	c0.6,1.1,1.4,1.9,2.3,2.6c0.9,0.7,2.1,1,3.4,1c0.7,0,1.3-0.1,1.9-0.3c0.6-0.2,1.1-0.5,1.6-0.9c0.5-0.4,1-0.8,1.4-1.4
	c0.4-0.5,0.8-1.1,1.2-1.8l6,2.3c-0.5,1.2-1.2,2.4-1.9,3.4c-0.8,1-1.6,1.9-2.6,2.6c-1,0.7-2.1,1.3-3.4,1.7
	C448.6,205,447.2,205.2,445.7,205.2z"/>
<path fill="#A9B8C6" d="M478.4,205.2c-1.8,0-3.5-0.2-4.9-0.7c-1.4-0.5-2.7-1.1-3.8-2c-1.1-0.8-2.1-1.8-2.8-2.9
	c-0.8-1.1-1.4-2.3-1.9-3.6c-0.5-1.3-0.9-2.7-1.1-4.1c-0.2-1.4-0.3-2.8-0.3-4.2c0-1.4,0.1-2.8,0.3-4.2c0.2-1.4,0.6-2.8,1.1-4.1
	c0.5-1.3,1.1-2.5,1.9-3.6c0.8-1.1,1.7-2.1,2.8-2.9s2.4-1.5,3.8-2c1.4-0.5,3.1-0.7,4.9-0.7c1.8,0,3.5,0.2,4.9,0.7
	c1.4,0.5,2.7,1.1,3.8,2c1.1,0.8,2,1.8,2.8,2.9c0.8,1.1,1.4,2.3,1.9,3.6c0.5,1.3,0.9,2.7,1.1,4.1c0.2,1.4,0.3,2.8,0.3,4.2
	c0,1.4-0.1,2.8-0.3,4.2c-0.2,1.4-0.6,2.8-1.1,4.1c-0.5,1.3-1.1,2.5-1.9,3.6c-0.8,1.1-1.7,2.1-2.8,2.9c-1.1,0.8-2.4,1.5-3.8,2
	C481.8,205,480.2,205.2,478.4,205.2z M478.4,198.9c1.5,0,2.8-0.4,3.8-1.1c1-0.7,1.9-1.6,2.5-2.7c0.6-1.1,1.1-2.3,1.4-3.6
	c0.3-1.3,0.4-2.6,0.4-3.8c0-0.9-0.1-1.7-0.2-2.6c-0.1-0.9-0.3-1.7-0.6-2.6c-0.3-0.8-0.6-1.6-1-2.3c-0.4-0.7-0.9-1.4-1.5-1.9
	c-0.6-0.5-1.3-1-2.1-1.3c-0.8-0.3-1.7-0.5-2.7-0.5c-1,0-1.9,0.2-2.7,0.5c-0.8,0.3-1.5,0.8-2.1,1.3c-0.6,0.6-1.1,1.2-1.5,1.9
	c-0.4,0.7-0.8,1.5-1,2.4s-0.5,1.7-0.6,2.5c-0.1,0.9-0.2,1.7-0.2,2.5c0,1.3,0.1,2.6,0.4,3.9c0.3,1.3,0.7,2.5,1.4,3.6
	c0.6,1.1,1.5,2,2.5,2.6C475.5,198.6,476.8,198.9,478.4,198.9z"/>
<path fill="#A9B8C6" d="M525.6,204.6v-17.4c0-0.2,0-0.4,0-0.7c0-0.2,0-0.5,0-0.8c0-0.3,0-0.5,0-0.7c0-0.2,0-0.4,0-0.5
	c-0.2,0.5-0.3,1-0.5,1.4c-0.2,0.4-0.3,0.8-0.5,1.2l-8.2,18l-8.3-18c-0.2-0.4-0.3-0.8-0.5-1.2c-0.2-0.4-0.3-0.9-0.5-1.4
	c0,0.1,0,0.3,0,0.5c0,0.2,0,0.5,0,0.7c0,0.3,0,0.5,0,0.8c0,0.3,0,0.5,0,0.7v17.4h-6.5v-33.8h6.6l8.3,18.7c0.2,0.4,0.3,0.8,0.5,1.2
	c0.1,0.4,0.3,0.7,0.4,1.1c0.1-0.4,0.3-0.8,0.4-1.1c0.1-0.4,0.3-0.8,0.5-1.2l8.4-18.7h6.2v33.8H525.6z"/>
<path fill="#A9B8C6" d="M565.6,204.6v-17.4c0-0.2,0-0.4,0-0.7c0-0.2,0-0.5,0-0.8c0-0.3,0-0.5,0-0.7c0-0.2,0-0.4,0-0.5
	c-0.2,0.5-0.3,1-0.5,1.4c-0.2,0.4-0.3,0.8-0.5,1.2l-8.2,18l-8.3-18c-0.2-0.4-0.3-0.8-0.5-1.2c-0.2-0.4-0.3-0.9-0.5-1.4
	c0,0.1,0,0.3,0,0.5c0,0.2,0,0.5,0,0.7c0,0.3,0,0.5,0,0.8c0,0.3,0,0.5,0,0.7v17.4h-6.5v-33.8h6.6l8.3,18.7c0.2,0.4,0.3,0.8,0.5,1.2
	c0.1,0.4,0.3,0.7,0.4,1.1c0.1-0.4,0.3-0.8,0.4-1.1c0.1-0.4,0.3-0.8,0.5-1.2l8.4-18.7h6.2v33.8H565.6z"/>
<path fill="#A9B8C6" d="M594.6,205.2c-1.8,0-3.5-0.2-4.9-0.7c-1.4-0.5-2.7-1.1-3.8-2c-1.1-0.8-2.1-1.8-2.8-2.9
	c-0.8-1.1-1.4-2.3-1.9-3.6c-0.5-1.3-0.9-2.7-1.1-4.1c-0.2-1.4-0.3-2.8-0.3-4.2c0-1.4,0.1-2.8,0.3-4.2c0.2-1.4,0.6-2.8,1.1-4.1
	c0.5-1.3,1.1-2.5,1.9-3.6c0.8-1.1,1.7-2.1,2.8-2.9c1.1-0.8,2.4-1.5,3.8-2c1.4-0.5,3.1-0.7,4.9-0.7c1.8,0,3.5,0.2,4.9,0.7
	s2.7,1.1,3.8,2c1.1,0.8,2,1.8,2.8,2.9c0.8,1.1,1.4,2.3,1.9,3.6c0.5,1.3,0.9,2.7,1.1,4.1c0.2,1.4,0.3,2.8,0.3,4.2
	c0,1.4-0.1,2.8-0.3,4.2c-0.2,1.4-0.6,2.8-1.1,4.1c-0.5,1.3-1.1,2.5-1.9,3.6c-0.8,1.1-1.7,2.1-2.8,2.9c-1.1,0.8-2.4,1.5-3.8,2
	C598.1,205,596.4,205.2,594.6,205.2z M594.6,198.9c1.5,0,2.8-0.4,3.8-1.1c1-0.7,1.9-1.6,2.5-2.7c0.6-1.1,1.1-2.3,1.4-3.6
	c0.3-1.3,0.4-2.6,0.4-3.8c0-0.9-0.1-1.7-0.2-2.6c-0.1-0.9-0.3-1.7-0.6-2.6c-0.3-0.8-0.6-1.6-1-2.3c-0.4-0.7-0.9-1.4-1.5-1.9
	c-0.6-0.5-1.3-1-2.1-1.3c-0.8-0.3-1.7-0.5-2.7-0.5c-1,0-1.9,0.2-2.7,0.5c-0.8,0.3-1.5,0.8-2.1,1.3c-0.6,0.6-1.1,1.2-1.5,1.9
	c-0.4,0.7-0.8,1.5-1,2.4c-0.3,0.8-0.5,1.7-0.6,2.5c-0.1,0.9-0.2,1.7-0.2,2.5c0,1.3,0.1,2.6,0.4,3.9c0.3,1.3,0.7,2.5,1.4,3.6
	c0.6,1.1,1.5,2,2.5,2.6C591.8,198.6,593.1,198.9,594.6,198.9z"/>
<path fill="#A9B8C6" d="M638.1,204.6l-13.4-19.7c-0.2-0.3-0.5-0.7-0.7-1.2c-0.3-0.5-0.5-0.9-0.7-1.3c0,0.4,0.1,0.8,0.1,1.3
	c0,0.5,0,0.9,0,1.3v19.7H617v-33.8h6.1l13.1,19.5c0.2,0.3,0.4,0.7,0.7,1.2s0.5,0.9,0.7,1.4c0-0.5-0.1-0.9-0.1-1.4c0-0.5,0-0.9,0-1.2
	v-19.5h6.5v33.8H638.1z"/>
<path fill="#A9B8C6" d="M652.6,204.6v-33.8h6.5v27.6h16.3v6.3H652.6z"/>
<path fill="#A9B8C6" d="M686.3,204.6v-13.2l-12.5-20.6h7.4l8.4,13.8l8.4-13.8h7.4l-12.5,20.6v13.2H686.3z"/>
<path fill="#A9B8C6" d="M371.3,367.7c8.3-4.1,15.1-9,22.6-10.7c27.4-6.3,49,18.5,39.9,46.2c-2.7,8.2-7.9,16.3-13.9,22.5
	c-12.9,13.1-26.8,25.2-41,36.9c-2.6,2.2-10.2,1.9-13-0.3c-13.9-11.3-28-22.7-39.8-36c-7.4-8.4-13.3-19.6-15.9-30.5
	c-3.4-14.2,2.2-27.3,15.6-35c13-7.4,26.2-6.5,38.7,1.9C366.8,364.3,369.1,366.1,371.3,367.7z"/>
</svg>
