<?xml version="1.0" encoding="utf-8"?>
<!-- Generator: Adobe Illustrator 18.0.0, SVG Export Plug-In . SVG Version: 6.00 Build 0)  -->
<!DOCTYPE svg PUBLIC "-//W3C//DTD SVG 1.1//EN" "http://www.w3.org/Graphics/SVG/1.1/DTD/svg11.dtd">
<svg version="1.1" id="Layer_1" xmlns="http://www.w3.org/2000/svg" xmlns:xlink="http://www.w3.org/1999/xlink" x="0px" y="0px"
	 viewBox="0 0 407 517" enable-background="new 0 0 407 517" xml:space="preserve">
<g>
	<g>
		<polyline fill="none" stroke="#C82039" stroke-width="2" stroke-miterlimit="10" points="397.6,510 397.6,514 393.6,514 		"/>
		
			<line fill="none" stroke="#C82039" stroke-width="2" stroke-miterlimit="10" stroke-dasharray="8.0894,8.0894" x1="385.5" y1="514" x2="17.4" y2="514"/>
		<polyline fill="none" stroke="#C82039" stroke-width="2" stroke-miterlimit="10" points="13.4,514 9.4,514 9.4,510 		"/>
		
			<line fill="none" stroke="#C82039" stroke-width="2" stroke-miterlimit="10" stroke-dasharray="7.9844,7.9844" x1="9.4" y1="502" x2="9.4" y2="74.8"/>
		<polyline fill="none" stroke="#C82039" stroke-width="2" stroke-miterlimit="10" points="9.4,70.8 9.4,66.8 13.4,66.8 		"/>
		
			<line fill="none" stroke="#C82039" stroke-width="2" stroke-miterlimit="10" stroke-dasharray="8.0894,8.0894" x1="21.5" y1="66.8" x2="389.6" y2="66.8"/>
		<polyline fill="none" stroke="#C82039" stroke-width="2" stroke-miterlimit="10" points="393.6,66.8 397.6,66.8 397.6,70.8 		"/>
		
			<line fill="none" stroke="#C82039" stroke-width="2" stroke-miterlimit="10" stroke-dasharray="7.9844,7.9844" x1="397.6" y1="78.8" x2="397.6" y2="506"/>
	</g>
</g>
<rect x="54.1" y="147.2" fill="none" width="317.5" height="347"/>
<text transform="matrix(1 0 0 1 54.1232 158.0616)"><tspan x="0" y="0" font-family="'Overpass-Light'" font-size="15.008">Copyrighted media.</tspan><tspan x="0" y="38" font-family="'Overpass-Light'" font-size="15.008">Details about your assigned unit’s mission or </tspan><tspan x="0" y="57" font-family="'Overpass-Light'" font-size="15.008">security procedures.</tspan><tspan x="0" y="95" font-family="'Overpass-Light'" font-size="15.008">Locations and times of your unit deployments.</tspan><tspan x="0" y="133" font-family="'Overpass-Light'" font-size="15.008">Information about KIA or MIA individuals before </tspan><tspan x="0" y="152" font-family="'Overpass-Light'" font-size="15.008">the next of kin is notified and the information is </tspan><tspan x="0" y="171" font-family="'Overpass-Light'" font-size="15.008">released by the </tspan><tspan x="105" y="171" fill="none" font-family="'Overpass-Reg'" font-size="15.008">DOD</tspan><tspan x="136.7" y="171" fill="none" font-family="'Overpass-Light'" font-size="15.008">.</tspan><tspan x="140.1" y="171" font-family="'Overpass-Light'" font-size="15.008"> </tspan><tspan x="0" y="209" font-family="'Overpass-Light'" font-size="15.008">Images of damaged equipment and gear.</tspan><tspan x="0" y="247" font-family="'Overpass-Light'" font-size="15.008">Personnel</tspan><tspan x="66.9" y="247" font-family="'Overpass-Light'" font-size="15.008" letter-spacing="8"> </tspan><tspan x="78.5" y="247" font-family="'Overpass-Light'" font-size="15.008">transactions</tspan><tspan x="160.9" y="247" font-family="'Overpass-Light'" font-size="15.008" letter-spacing="8"> </tspan><tspan x="172.5" y="247" font-family="'Overpass-Light'" font-size="15.008">that</tspan><tspan x="199.7" y="247" font-family="'Overpass-Light'" font-size="15.008" letter-spacing="8"> </tspan><tspan x="211.3" y="247" font-family="'Overpass-Light'" font-size="15.008">occur</tspan><tspan x="248.2" y="247" font-family="'Overpass-Light'" font-size="15.008" letter-spacing="8"> </tspan><tspan x="259.8" y="247" font-family="'Overpass-Light'" font-size="15.008">in</tspan><tspan x="272" y="247" font-family="'Overpass-Light'" font-size="15.008" letter-spacing="8"> </tspan><tspan x="283.6" y="247" font-family="'Overpass-Light'" font-size="15.008">large </tspan><tspan x="0" y="266" font-family="'Overpass-Light'" font-size="15.008">numbers</tspan><tspan x="58.6" y="266" font-family="'Overpass-Light'" font-size="15.008" letter-spacing="10"> </tspan><tspan x="72.2" y="266" font-family="'Overpass-Light'" font-size="15.008">(e.g.,</tspan><tspan x="103.9" y="266" font-family="'Overpass-Light'" font-size="15.008" letter-spacing="10"> </tspan><tspan x="117.5" y="266" font-family="'Overpass-Light'" font-size="15.008">pay</tspan><tspan x="141.5" y="266" font-family="'Overpass-Light'" font-size="15.008" letter-spacing="10"> </tspan><tspan x="155.1" y="266" font-family="'Overpass-Light'" font-size="15.008">information,</tspan><tspan x="236" y="266" font-family="'Overpass-Light'" font-size="15.008" letter-spacing="10"> </tspan><tspan x="249.7" y="266" font-family="'Overpass-Light'" font-size="15.008">power</tspan><tspan x="290.7" y="266" font-family="'Overpass-Light'" font-size="15.008" letter-spacing="10"> </tspan><tspan x="304.3" y="266" font-family="'Overpass-Light'" font-size="15.008">of </tspan><tspan x="0" y="285" font-family="'Overpass-Light'" font-size="15.008">attorney, wills, or deployment information)</tspan><tspan x="0" y="323" font-family="'Overpass-Light'" font-size="15.008">Trends in unit morale or personnel problems.</tspan></text>
<circle cx="38.5" cy="152.9" r="2.1"/>
<circle cx="38.5" cy="191.6" r="2.1"/>
<circle cx="38.5" cy="248.2" r="2.1"/>
<circle cx="38.5" cy="286.9" r="2.1"/>
<circle cx="38.5" cy="362.9" r="2.1"/>
<circle cx="38.5" cy="400.8" r="2.1"/>
<circle cx="38.5" cy="472.4" r="2.1"/>
<polygon fill="#C82039" points="163.5,9.2 247.8,9.2 247.4,127.9 205.7,116.6 163.5,127.9 "/>
<circle fill="none" stroke="#F7F7F7" stroke-width="3" stroke-miterlimit="10" cx="205.7" cy="60.6" r="32.7"/>
<polygon fill="#A01D21" points="163.5,127.9 163.5,124.4 205.7,112.6 247.4,124.4 247.4,127.9 205.7,116.6 "/>
<text transform="matrix(1 0 0 1 176.9973 66.8147)" fill="#F7F7F7" font-family="'Overpass-Bold'" font-size="15.008">DON’TS</text>
</svg>
