<?xml version="1.0" encoding="utf-8"?>
<!-- Generator: Adobe Illustrator 18.0.0, SVG Export Plug-In . SVG Version: 6.00 Build 0)  -->
<!DOCTYPE svg PUBLIC "-//W3C//DTD SVG 1.1//EN" "http://www.w3.org/Graphics/SVG/1.1/DTD/svg11.dtd">
<svg version="1.1" id="Layer_1" xmlns="http://www.w3.org/2000/svg" xmlns:xlink="http://www.w3.org/1999/xlink" x="0px" y="0px"
	 viewBox="0 0 407 517" enable-background="new 0 0 407 517" xml:space="preserve">
<g>
	<g>
		<polyline fill="none" stroke="#3BB54A" stroke-width="2" stroke-miterlimit="10" points="399.6,505.8 399.6,509.8 395.6,509.8 		
			"/>
		
			<line fill="none" stroke="#3BB54A" stroke-width="2" stroke-miterlimit="10" stroke-dasharray="8.0894,8.0894" x1="387.5" y1="509.8" x2="19.4" y2="509.8"/>
		<polyline fill="none" stroke="#3BB54A" stroke-width="2" stroke-miterlimit="10" points="15.4,509.8 11.4,509.8 11.4,505.8 		"/>
		
			<line fill="none" stroke="#3BB54A" stroke-width="2" stroke-miterlimit="10" stroke-dasharray="7.9844,7.9844" x1="11.4" y1="497.8" x2="11.4" y2="70.7"/>
		<polyline fill="none" stroke="#3BB54A" stroke-width="2" stroke-miterlimit="10" points="11.4,66.7 11.4,62.7 15.4,62.7 		"/>
		
			<line fill="none" stroke="#3BB54A" stroke-width="2" stroke-miterlimit="10" stroke-dasharray="8.0894,8.0894" x1="23.5" y1="62.7" x2="391.5" y2="62.7"/>
		<polyline fill="none" stroke="#3BB54A" stroke-width="2" stroke-miterlimit="10" points="395.6,62.7 399.6,62.7 399.6,66.7 		"/>
		
			<line fill="none" stroke="#3BB54A" stroke-width="2" stroke-miterlimit="10" stroke-dasharray="7.9844,7.9844" x1="399.6" y1="74.7" x2="399.6" y2="501.8"/>
	</g>
</g>
<rect x="45.8" y="143.1" fill="none" width="336.1" height="281.8"/>
<text transform="matrix(1 0 0 1 45.8131 153.9371)"><tspan x="0" y="0" font-family="'Overpass-Light'" font-size="15.008">Talk</tspan><tspan x="28" y="0" font-family="'Overpass-Light'" font-size="15.008" letter-spacing="2"> </tspan><tspan x="34.4" y="0" font-family="'Overpass-Light'" font-size="15.008">to</tspan><tspan x="48.1" y="0" font-family="'Overpass-Light'" font-size="15.008" letter-spacing="2"> </tspan><tspan x="54.5" y="0" font-family="'Overpass-Light'" font-size="15.008">your</tspan><tspan x="84.6" y="0" font-family="'Overpass-Light'" font-size="15.008" letter-spacing="2"> </tspan><tspan x="90.9" y="0" font-family="'Overpass-Light'" font-size="15.008">Family</tspan><tspan x="135.2" y="0" font-family="'Overpass-Light'" font-size="15.008" letter-spacing="2"> </tspan><tspan x="141.6" y="0" font-family="'Overpass-Light'" font-size="15.008">about</tspan><tspan x="180" y="0" font-family="'Overpass-Light'" font-size="15.008" letter-spacing="2"> </tspan><tspan x="186.3" y="0" font-family="'Overpass-Light'" font-size="15.008">OPSEC,</tspan><tspan x="237.4" y="0" font-family="'Overpass-Light'" font-size="15.008" letter-spacing="2"> </tspan><tspan x="243.8" y="0" font-family="'Overpass-Light'" font-size="15.008">so</tspan><tspan x="258.9" y="0" font-family="'Overpass-Light'" font-size="15.008" letter-spacing="2"> </tspan><tspan x="265.3" y="0" font-family="'Overpass-Light'" font-size="15.008">they</tspan><tspan x="294.8" y="0" font-family="'Overpass-Light'" font-size="15.008" letter-spacing="2"> </tspan><tspan x="301.2" y="0" font-family="'Overpass-Light'" font-size="15.008">know </tspan><tspan x="0" y="19" font-family="'Overpass-Light'" font-size="15.008">what can and cannot be psoted.</tspan><tspan x="0" y="57" font-family="'Overpass-Light'" font-size="15.008">Turn</tspan><tspan x="31.2" y="57" font-family="'Overpass-Light'" font-size="15.008" letter-spacing="8"> </tspan><tspan x="42.9" y="57" font-family="'Overpass-Light'" font-size="15.008">off</tspan><tspan x="61" y="57" font-family="'Overpass-Light'" font-size="15.008" letter-spacing="8"> </tspan><tspan x="72.7" y="57" font-family="'Overpass-Light'" font-size="15.008">geotagging</tspan><tspan x="148.3" y="57" font-family="'Overpass-Light'" font-size="15.008" letter-spacing="8"> </tspan><tspan x="159.9" y="57" font-family="'Overpass-Light'" font-size="15.008">and</tspan><tspan x="184.6" y="57" font-family="'Overpass-Light'" font-size="15.008" letter-spacing="8"> </tspan><tspan x="196.3" y="57" font-family="'Overpass-Light'" font-size="15.008">locatio-based</tspan><tspan x="286.5" y="57" font-family="'Overpass-Light'" font-size="15.008" letter-spacing="8"> </tspan><tspan x="298.2" y="57" font-family="'Overpass-Light'" font-size="15.008">social </tspan><tspan x="0" y="76" font-family="'Overpass-Light'" font-size="15.008">networking on phones and digital cameras.</tspan><tspan x="0" y="114" font-family="'Overpass-Light'" font-size="15.008">Maximize</tspan><tspan x="63" y="114" font-family="'Overpass-Light'" font-size="15.008"> </tspan><tspan x="65.9" y="114" font-family="'Overpass-Light'" font-size="15.008">your</tspan><tspan x="96" y="114" font-family="'Overpass-Light'" font-size="15.008"> </tspan><tspan x="98.9" y="114" font-family="'Overpass-Light'" font-size="15.008">security</tspan><tspan x="152.2" y="114" font-family="'Overpass-Light'" font-size="15.008"> </tspan><tspan x="155.1" y="114" font-family="'Overpass-Light'" font-size="15.008">settings</tspan><tspan x="208.6" y="114" font-family="'Overpass-Light'" font-size="15.008"> </tspan><tspan x="211.5" y="114" font-family="'Overpass-Light'" font-size="15.008">on</tspan><tspan x="228.1" y="114" font-family="'Overpass-Light'" font-size="15.008"> </tspan><tspan x="231" y="114" font-family="'Overpass-Light'" font-size="15.008">social</tspan><tspan x="268.9" y="114" font-family="'Overpass-Light'" font-size="15.008"> </tspan><tspan x="271.8" y="114" font-family="'Overpass-Light'" font-size="15.008">platforms </tspan><tspan x="0" y="133" font-family="'Overpass-Light'" font-size="15.008">and include two-step verification, if available.</tspan><tspan x="0" y="171" font-family="'Overpass-Light'" font-size="15.008">Closely</tspan><tspan x="48.2" y="171" font-family="'Overpass-Light'" font-size="15.008" letter-spacing="1"> </tspan><tspan x="53.2" y="171" font-family="'Overpass-Light'" font-size="15.008">review</tspan><tspan x="96.8" y="171" font-family="'Overpass-Light'" font-size="15.008" letter-spacing="1"> </tspan><tspan x="101.7" y="171" font-family="'Overpass-Light'" font-size="15.008">photos</tspan><tspan x="147.5" y="171" font-family="'Overpass-Light'" font-size="15.008" letter-spacing="1"> </tspan><tspan x="152.5" y="171" font-family="'Overpass-Light'" font-size="15.008">or</tspan><tspan x="166.5" y="171" font-family="'Overpass-Light'" font-size="15.008" letter-spacing="1"> </tspan><tspan x="171.5" y="171" font-family="'Overpass-Light'" font-size="15.008">videos</tspan><tspan x="214.3" y="171" font-family="'Overpass-Light'" font-size="15.008" letter-spacing="1"> </tspan><tspan x="219.3" y="171" font-family="'Overpass-Light'" font-size="15.008">before</tspan><tspan x="262.6" y="171" font-family="'Overpass-Light'" font-size="15.008" letter-spacing="1"> </tspan><tspan x="267.5" y="171" font-family="'Overpass-Light'" font-size="15.008">posting</tspan><tspan x="317.4" y="171" font-family="'Overpass-Light'" font-size="15.008" letter-spacing="1"> </tspan><tspan x="322.3" y="171" font-family="'Overpass-Light'" font-size="15.008">to </tspan><tspan x="0" y="190" font-family="'Overpass-Light'" font-size="15.008">ensure</tspan><tspan x="45.4" y="190" font-family="'Overpass-Light'" font-size="15.008" letter-spacing="4"> </tspan><tspan x="53.7" y="190" font-family="'Overpass-Light'" font-size="15.008">sensitive</tspan><tspan x="112.6" y="190" font-family="'Overpass-Light'" font-size="15.008" letter-spacing="4"> </tspan><tspan x="120.9" y="190" font-family="'Overpass-Light'" font-size="15.008">or</tspan><tspan x="134.9" y="190" font-family="'Overpass-Light'" font-size="15.008" letter-spacing="4"> </tspan><tspan x="143.2" y="190" font-family="'Overpass-Light'" font-size="15.008">personal</tspan><tspan x="200.7" y="190" font-family="'Overpass-Light'" font-size="15.008" letter-spacing="4"> </tspan><tspan x="209" y="190" font-family="'Overpass-Light'" font-size="15.008">information</tspan><tspan x="286.6" y="190" font-family="'Overpass-Light'" font-size="15.008" letter-spacing="4"> </tspan><tspan x="294.9" y="190" font-family="'Overpass-Light'" font-size="15.008">is</tspan><tspan x="305.6" y="190" font-family="'Overpass-Light'" font-size="15.008" letter-spacing="4"> </tspan><tspan x="313.9" y="190" font-family="'Overpass-Light'" font-size="15.008">not </tspan><tspan x="0" y="209" font-family="'Overpass-Light'" font-size="15.008">released</tspan><tspan x="56.7" y="209" font-family="'Overpass-Light'" font-size="15.008" letter-spacing="1"> </tspan><tspan x="61.5" y="209" font-family="'Overpass-Light'" font-size="15.008">(e.g.,</tspan><tspan x="93.2" y="209" font-family="'Overpass-Light'" font-size="15.008" letter-spacing="1"> </tspan><tspan x="98.1" y="209" font-family="'Overpass-Light'" font-size="15.008">troop</tspan><tspan x="134.3" y="209" font-family="'Overpass-Light'" font-size="15.008" letter-spacing="1"> </tspan><tspan x="139.2" y="209" font-family="'Overpass-Light'" font-size="15.008">locations,</tspan><tspan x="202.6" y="209" font-family="'Overpass-Light'" font-size="15.008" letter-spacing="1"> </tspan><tspan x="207.4" y="209" font-family="'Overpass-Light'" font-size="15.008">equipment,</tspan><tspan x="282.5" y="209" font-family="'Overpass-Light'" font-size="15.008" letter-spacing="1"> </tspan><tspan x="287.3" y="209" font-family="'Overpass-Light'" font-size="15.008">tactical </tspan><tspan x="0" y="228" font-family="'Overpass-Light'" font-size="15.008">unit details, and numbers of personnel).</tspan></text>
<circle cx="33.6" cy="148.8" r="2.1"/>
<circle cx="33.6" cy="207.6" r="2.1"/>
<circle cx="33.6" cy="263.6" r="2.1"/>
<circle cx="33.6" cy="320.8" r="2.1"/>
<g>
	<polygon fill="#3BB54A" points="158.8,5.1 243.1,5.1 242.7,123.8 201,112.4 158.8,123.8 	"/>
	<circle fill="none" stroke="#F7F7F7" stroke-width="3" stroke-miterlimit="10" cx="201" cy="56.4" r="32.7"/>
	<g>
		<g>
			<path fill="#FFFFFF" d="M189.1,66.4h-6.2V45.7h6.5c5.9,0,10.3,2.8,10.3,10.3C199.7,63.3,194.4,66.4,189.1,66.4z M189.3,49.7h-2.2
				v12.6h2c4.3,0,6.3-2.5,6.3-6.3C195.4,51.8,193.6,49.7,189.3,49.7z"/>
			<path fill="#FFFFFF" d="M211.7,66.7c-5.6,0-9-4.4-9-10.7s3.3-10.7,9-10.7c5.6,0,9,4.4,9,10.7S217.4,66.7,211.7,66.7z M211.7,49.5
				c-3.3,0-4.7,2.9-4.7,6.6c0,3.7,1.4,6.6,4.7,6.6c3.3,0,4.7-2.9,4.7-6.6C216.4,52.3,215.1,49.5,211.7,49.5z"/>
		</g>
	</g>
	<polygon fill="#169045" points="158.8,123.8 158.8,120.3 201,108.4 242.7,120.3 242.7,123.8 201,112.4 	"/>
</g>
</svg>
