<?xml version="1.0" encoding="utf-8"?>
<!-- Generator: Adobe Illustrator 18.0.0, SVG Export Plug-In . SVG Version: 6.00 Build 0)  -->
<!DOCTYPE svg PUBLIC "-//W3C//DTD SVG 1.1//EN" "http://www.w3.org/Graphics/SVG/1.1/DTD/svg11.dtd">
<svg version="1.1" id="Layer_1" xmlns="http://www.w3.org/2000/svg" xmlns:xlink="http://www.w3.org/1999/xlink" x="0px" y="0px"
	 viewBox="0 0 754 375" enable-background="new 0 0 754 375" xml:space="preserve">
<g>
	<rect x="9.7" y="9.2" fill="#FFC627" width="736.7" height="351.7"/>
	<rect x="9.7" y="355.8" fill="#E4A224" width="736.7" height="5.6"/>
	<g>
		<path fill="none" stroke="#E4A224" stroke-width="1.5" stroke-miterlimit="10" d="M222.2,249.6c0,0-0.6,3.9,0.7,7.5
			c0,0,0.4,0.8-0.2,1h-2.5c0,0-0.6-0.3-0.7-0.6c-0.1-0.3-1.2-2.7-0.6-7.9c0,0,0.3-0.9,1.1-1c0.8,0,1.9,0.1,1.9,0.1
			S222.6,248.8,222.2,249.6z"/>
		<path fill="none" stroke="#E4A224" stroke-width="1.5" stroke-miterlimit="10" d="M231.7,246.3c0,0,0.4-1.1,0.6-1.8
			c0.3-0.6,1-2.6-0.2-3.9s-2.1-0.8-2.4-0.2c0,0-0.1,0.7-0.1,0.9s0.4,0.7-0.6,1.9c-1,1.2-0.9,1.4-1.8,2.2c-0.9,0.8-1.9,1.9-2,2.4
			c0,0-0.7,0.8-0.8,0.7s-0.8,0.1-1.2,1.3c-0.3,1.2-0.1,5.9,1.1,7.1c1.2,1.2,7,1.8,8,1.5c1.1-0.3,2.6-0.5,2.6-2.2c0,0,1.1-1,1.2-2
			c0.1-0.9-0.2-1.1-0.2-1.7c0-0.6,1.4-0.7,0.2-2.7c0,0-0.2-0.1-0.1-1c0.1-0.9-0.8-1.3-1.4-1.6c-0.6-0.3-2.3-0.4-2.8-0.1
			C232,247.2,231.5,247.3,231.7,246.3z"/>
	</g>
	<g>
		<path fill="none" stroke="#E4A224" stroke-width="1.5" stroke-miterlimit="10" d="M252.5,219.4c0,0-0.6,3.9,0.7,7.5
			c0,0,0.4,0.8-0.2,1h-2.5c0,0-0.6-0.3-0.7-0.6c-0.1-0.3-1.2-2.7-0.6-7.9c0,0,0.3-0.9,1.1-1c0.8,0,1.9,0.1,1.9,0.1
			S252.8,218.6,252.5,219.4z"/>
		<path fill="none" stroke="#E4A224" stroke-width="1.5" stroke-miterlimit="10" d="M262,216c0,0,0.4-1.1,0.6-1.8s1-2.6-0.2-3.9
			s-2.1-0.8-2.4-0.2c0,0-0.1,0.7-0.1,0.9c0,0.2,0.4,0.7-0.6,1.9c-1,1.2-0.9,1.4-1.8,2.2s-1.9,1.9-2,2.4c0,0-0.7,0.8-0.8,0.7
			c-0.2,0-0.8,0.1-1.2,1.3s-0.1,5.9,1.1,7.1c1.2,1.2,7,1.8,8,1.5s2.6-0.5,2.6-2.2c0,0,1.1-1,1.2-2s-0.2-1.1-0.2-1.7
			c0-0.6,1.4-0.7,0.2-2.7c0,0-0.2-0.1-0.1-1c0.1-0.9-0.8-1.3-1.4-1.6s-2.3-0.4-2.8-0.1C262.3,217,261.8,217.1,262,216z"/>
	</g>
	<g>
		<path fill="none" stroke="#E4A224" stroke-width="1.5" stroke-miterlimit="10" d="M229.1,184.6c0,0-0.6,3.9,0.7,7.5
			c0,0,0.4,0.8-0.2,1h-2.5c0,0-0.6-0.3-0.7-0.6c-0.1-0.3-1.2-2.7-0.6-7.9c0,0,0.3-0.9,1.1-1s1.9,0.1,1.9,0.1
			S229.4,183.9,229.1,184.6z"/>
		<path fill="none" stroke="#E4A224" stroke-width="1.5" stroke-miterlimit="10" d="M238.6,181.3c0,0,0.4-1.1,0.6-1.8
			c0.3-0.6,1-2.6-0.2-3.9s-2.1-0.8-2.4-0.2c0,0-0.1,0.7-0.1,0.9c0,0.2,0.4,0.7-0.6,1.9c-1,1.2-0.9,1.4-1.8,2.2s-1.9,1.9-2,2.4
			c0,0-0.7,0.8-0.8,0.7c-0.2,0-0.8,0.1-1.2,1.3s-0.1,5.9,1.1,7.1c1.2,1.2,7,1.8,8,1.5s2.6-0.5,2.6-2.2c0,0,1.1-1,1.2-2
			c0.1-0.9-0.2-1.1-0.2-1.7c0-0.6,1.4-0.7,0.2-2.7c0,0-0.2-0.1-0.1-1c0.1-0.9-0.8-1.3-1.4-1.6c-0.6-0.3-2.3-0.4-2.8-0.1
			C238.9,182.2,238.4,182.4,238.6,181.3z"/>
	</g>
	<g>
		<path fill="none" stroke="#E4A224" stroke-width="1.5" stroke-miterlimit="10" d="M229.1,116.9c0,0-0.6,3.9,0.7,7.5
			c0,0,0.4,0.8-0.2,1h-2.5c0,0-0.6-0.3-0.7-0.6c-0.1-0.3-1.2-2.7-0.6-7.9c0,0,0.3-0.9,1.1-1c0.8,0,1.9,0.1,1.9,0.1
			S229.4,116.1,229.1,116.9z"/>
		<path fill="none" stroke="#E4A224" stroke-width="1.5" stroke-miterlimit="10" d="M238.6,113.6c0,0,0.4-1.1,0.6-1.8
			c0.3-0.6,1-2.6-0.2-3.9s-2.1-0.8-2.4-0.2c0,0-0.1,0.7-0.1,0.9s0.4,0.7-0.6,1.9c-1,1.2-0.9,1.4-1.8,2.2s-1.9,1.9-2,2.4
			c0,0-0.7,0.8-0.8,0.7s-0.8,0.1-1.2,1.3c-0.3,1.2-0.1,5.9,1.1,7.1s7,1.8,8,1.5c1.1-0.3,2.6-0.5,2.6-2.2c0,0,1.1-1,1.2-2
			c0.1-0.9-0.2-1.1-0.2-1.7c0-0.6,1.4-0.7,0.2-2.7c0,0-0.2-0.1-0.1-1c0.1-0.9-0.8-1.3-1.4-1.6c-0.6-0.3-2.3-0.4-2.8-0.1
			C238.9,114.5,238.4,114.6,238.6,113.6z"/>
	</g>
	<g>
		<path fill="none" stroke="#E4A224" stroke-width="1.5" stroke-miterlimit="10" d="M277.4,194.1c0,0-0.6,3.9,0.7,7.5
			c0,0,0.4,0.8-0.2,1h-2.5c0,0-0.6-0.3-0.7-0.6c-0.1-0.3-1.2-2.7-0.6-7.9c0,0,0.3-0.9,1.1-1c0.8,0,1.9,0.1,1.9,0.1
			S277.7,193.3,277.4,194.1z"/>
		<path fill="none" stroke="#E4A224" stroke-width="1.5" stroke-miterlimit="10" d="M286.9,190.7c0,0,0.4-1.1,0.6-1.8
			c0.3-0.6,1-2.6-0.2-3.9c-1.1-1.3-2.1-0.8-2.4-0.2c0,0-0.1,0.7-0.1,0.9s0.4,0.7-0.6,1.9s-0.9,1.4-1.8,2.2c-0.9,0.8-1.9,1.9-2,2.4
			c0,0-0.7,0.8-0.8,0.7c-0.2,0-0.8,0.1-1.2,1.3c-0.3,1.2-0.1,5.9,1.1,7.1c1.2,1.2,7,1.8,8,1.5s2.6-0.5,2.6-2.2c0,0,1.1-1,1.2-2
			c0.1-0.9-0.2-1.1-0.2-1.7c0-0.6,1.4-0.7,0.2-2.7c0,0-0.2-0.1-0.1-1s-0.8-1.3-1.4-1.6s-2.3-0.4-2.8-0.1
			C287.2,191.6,286.7,191.8,286.9,190.7z"/>
	</g>
	<g>
		<path fill="none" stroke="#E4A224" stroke-width="1.5" stroke-miterlimit="10" d="M677.7,188.7c0,0,0.6-3.9-0.7-7.5
			c0,0-0.4-0.8,0.2-1h2.5c0,0,0.6,0.3,0.7,0.6c0.1,0.3,1.2,2.7,0.6,7.9c0,0-0.3,0.9-1.1,1c-0.8,0-1.9-0.1-1.9-0.1
			S677.4,189.4,677.7,188.7z"/>
		<path fill="none" stroke="#E4A224" stroke-width="1.5" stroke-miterlimit="10" d="M668.2,192c0,0-0.4,1.1-0.6,1.8
			c-0.3,0.6-1,2.6,0.2,3.9s2.1,0.8,2.4,0.2c0,0,0.1-0.7,0.1-0.9s-0.4-0.7,0.6-1.9c1-1.2,0.9-1.4,1.8-2.2s1.9-1.9,2-2.4
			c0,0,0.7-0.8,0.8-0.7s0.8-0.1,1.2-1.3c0.3-1.2,0.1-5.9-1.1-7.1c-1.2-1.2-7-1.8-8-1.5s-2.6,0.5-2.6,2.2c0,0-1.1,1-1.2,2
			s0.2,1.1,0.2,1.7c0,0.6-1.4,0.7-0.2,2.7c0,0,0.2,0.1,0.1,1c-0.1,0.9,0.8,1.3,1.4,1.6c0.6,0.3,2.3,0.4,2.8,0.1
			C667.9,191.1,668.4,191,668.2,192z"/>
	</g>
	<g>
		<path fill="none" stroke="#E4A224" stroke-width="1.5" stroke-miterlimit="10" d="M523.1,120.2c0,0,0.6-3.9-0.7-7.5
			c0,0-0.4-0.8,0.2-1h2.5c0,0,0.6,0.3,0.7,0.6c0.1,0.3,1.2,2.7,0.6,7.9c0,0-0.3,0.9-1.1,1c-0.8,0-1.9-0.1-1.9-0.1
			S522.7,121,523.1,120.2z"/>
		<path fill="none" stroke="#E4A224" stroke-width="1.5" stroke-miterlimit="10" d="M513.6,123.6c0,0-0.4,1.1-0.6,1.8
			c-0.3,0.6-1,2.6,0.2,3.9c1.1,1.3,2.1,0.8,2.4,0.2c0,0,0.1-0.7,0.1-0.9s-0.4-0.7,0.6-1.9c1-1.2,0.9-1.4,1.8-2.2
			c0.9-0.8,1.9-1.9,2-2.4c0,0,0.7-0.8,0.8-0.7c0.2,0,0.8-0.1,1.2-1.3c0.3-1.2,0.1-5.9-1.1-7.1c-1.2-1.2-7-1.8-8-1.5
			c-1.1,0.3-2.6,0.5-2.6,2.2c0,0-1.1,1-1.2,2s0.2,1.1,0.2,1.7c0,0.6-1.4,0.7-0.2,2.7c0,0,0.2,0.1,0.1,1c-0.1,0.9,0.8,1.3,1.4,1.6
			c0.6,0.3,2.3,0.4,2.8,0.1C513.3,122.7,513.8,122.5,513.6,123.6z"/>
	</g>
	<g>
		<path fill="none" stroke="#E4A224" stroke-width="1.5" stroke-miterlimit="10" d="M514,219.9c0,0,0.6-3.9-0.7-7.5
			c0,0-0.4-0.8,0.2-1h2.5c0,0,0.6,0.3,0.7,0.6c0.1,0.3,1.2,2.7,0.6,7.9c0,0-0.3,0.9-1.1,1c-0.8,0-1.9-0.1-1.9-0.1
			S513.7,220.7,514,219.9z"/>
		<path fill="none" stroke="#E4A224" stroke-width="1.5" stroke-miterlimit="10" d="M504.6,223.3c0,0-0.4,1.1-0.6,1.8
			s-1,2.6,0.2,3.9s2.1,0.8,2.4,0.2c0,0,0.1-0.7,0.1-0.9c0-0.2-0.4-0.7,0.6-1.9c1-1.2,0.9-1.4,1.8-2.2s1.9-1.9,2-2.4
			c0,0,0.7-0.8,0.8-0.7c0.2,0,0.8-0.1,1.2-1.3c0.3-1.2,0.1-5.9-1.1-7.1c-1.2-1.2-7-1.8-8-1.5c-1.1,0.3-2.6,0.5-2.6,2.2
			c0,0-1.1,1-1.2,2s0.2,1.1,0.2,1.7c0,0.6-1.4,0.7-0.2,2.7c0,0,0.2,0.1,0.1,1c-0.1,0.9,0.8,1.3,1.4,1.6s2.3,0.4,2.8,0.1
			C504.2,222.4,504.8,222.2,504.6,223.3z"/>
	</g>
	<g>
		<path fill="none" stroke="#E4A224" stroke-width="1.5" stroke-miterlimit="10" d="M492.7,253.1c0,0,0.6-3.9-0.7-7.5
			c0,0-0.4-0.8,0.2-1h2.5c0,0,0.6,0.3,0.7,0.6c0.1,0.3,1.2,2.7,0.6,7.9c0,0-0.3,0.9-1.1,1c-0.8,0-1.9-0.1-1.9-0.1
			S492.3,253.8,492.7,253.1z"/>
		<path fill="none" stroke="#E4A224" stroke-width="1.5" stroke-miterlimit="10" d="M483.2,256.4c0,0-0.4,1.1-0.6,1.8
			c-0.3,0.6-1,2.6,0.2,3.9c1.1,1.3,2.1,0.8,2.4,0.2c0,0,0.1-0.7,0.1-0.9s-0.4-0.7,0.6-1.9s0.9-1.4,1.8-2.2c0.9-0.8,1.9-1.9,2-2.4
			c0,0,0.7-0.8,0.8-0.7c0.2,0,0.8-0.1,1.2-1.3c0.3-1.2,0.1-5.9-1.1-7.1c-1.2-1.2-7-1.8-8-1.5s-2.6,0.5-2.6,2.2c0,0-1.1,1-1.2,2
			s0.2,1.1,0.2,1.7c0,0.6-1.4,0.7-0.2,2.7c0,0,0.2,0.1,0.1,1c-0.1,0.9,0.8,1.3,1.4,1.6s2.3,0.4,2.8,0.1
			C482.9,255.5,483.4,255.3,483.2,256.4z"/>
	</g>
	<g>
		<path fill="none" stroke="#E4A224" stroke-width="1.5" stroke-miterlimit="10" d="M544.4,257.2c0,0,0.6-3.9-0.7-7.5
			c0,0-0.4-0.8,0.2-1h2.5c0,0,0.6,0.3,0.7,0.6c0.1,0.3,1.2,2.7,0.6,7.9c0,0-0.3,0.9-1.1,1c-0.8,0-1.9-0.1-1.9-0.1
			S544.1,258,544.4,257.2z"/>
		<path fill="none" stroke="#E4A224" stroke-width="1.5" stroke-miterlimit="10" d="M535,260.6c0,0-0.4,1.1-0.6,1.8
			c-0.3,0.6-1,2.6,0.2,3.9s2.1,0.8,2.4,0.2c0,0,0.1-0.7,0.1-0.9s-0.4-0.7,0.6-1.9s0.9-1.4,1.8-2.2c0.9-0.8,1.9-1.9,2-2.4
			c0,0,0.7-0.8,0.8-0.7s0.8-0.1,1.2-1.3c0.3-1.2,0.1-5.9-1.1-7.1c-1.2-1.2-7-1.8-8-1.5s-2.6,0.5-2.6,2.2c0,0-1.1,1-1.2,2
			s0.2,1.1,0.2,1.7c0,0.6-1.4,0.7-0.2,2.7c0,0,0.2,0.1,0.1,1c-0.1,0.9,0.8,1.3,1.4,1.6c0.6,0.3,2.3,0.4,2.8,0.1
			C534.6,259.7,535.2,259.5,535,260.6z"/>
	</g>
	<g>
		<path fill="none" stroke="#E4A224" stroke-width="1.5" stroke-miterlimit="10" d="M566.1,219.9c0,0,0.6-3.9-0.7-7.5
			c0,0-0.4-0.8,0.2-1h2.5c0,0,0.6,0.3,0.7,0.6c0.1,0.3,1.2,2.7,0.6,7.9c0,0-0.3,0.9-1.1,1c-0.8,0-1.9-0.1-1.9-0.1
			S565.8,220.7,566.1,219.9z"/>
		<path fill="none" stroke="#E4A224" stroke-width="1.5" stroke-miterlimit="10" d="M556.6,223.3c0,0-0.4,1.1-0.6,1.8
			c-0.3,0.6-1,2.6,0.2,3.9s2.1,0.8,2.4,0.2c0,0,0.1-0.7,0.1-0.9c0-0.2-0.4-0.7,0.6-1.9c1-1.2,0.9-1.4,1.8-2.2s1.9-1.9,2-2.4
			c0,0,0.7-0.8,0.8-0.7c0.2,0,0.8-0.1,1.2-1.3c0.3-1.2,0.1-5.9-1.1-7.1c-1.2-1.2-7-1.8-8-1.5s-2.6,0.5-2.6,2.2c0,0-1.1,1-1.2,2
			s0.2,1.1,0.2,1.7c0,0.6-1.4,0.7-0.2,2.7c0,0,0.2,0.1,0.1,1c-0.1,0.9,0.8,1.3,1.4,1.6c0.6,0.3,2.3,0.4,2.8,0.1
			C556.3,222.4,556.8,222.2,556.6,223.3z"/>
	</g>
	<g>
		<path fill="none" stroke="#E4A224" stroke-width="1.5" stroke-miterlimit="10" d="M462.8,219.9c0,0,0.6-3.9-0.7-7.5
			c0,0-0.4-0.8,0.2-1h2.5c0,0,0.6,0.3,0.7,0.6c0.1,0.3,1.2,2.7,0.6,7.9c0,0-0.3,0.9-1.1,1c-0.8,0-1.9-0.1-1.9-0.1
			S462.4,220.7,462.8,219.9z"/>
		<path fill="none" stroke="#E4A224" stroke-width="1.5" stroke-miterlimit="10" d="M453.3,223.3c0,0-0.4,1.1-0.6,1.8
			s-1,2.6,0.2,3.9c1.1,1.3,2.1,0.8,2.4,0.2c0,0,0.1-0.7,0.1-0.9c0-0.2-0.4-0.7,0.6-1.9c1-1.2,0.9-1.4,1.8-2.2c0.9-0.8,1.9-1.9,2-2.4
			c0,0,0.7-0.8,0.8-0.7c0.2,0,0.8-0.1,1.2-1.3c0.3-1.2,0.1-5.9-1.1-7.1s-7-1.8-8-1.5s-2.6,0.5-2.6,2.2c0,0-1.1,1-1.2,2
			s0.2,1.1,0.2,1.7c0,0.6-1.4,0.7-0.2,2.7c0,0,0.2,0.1,0.1,1c-0.1,0.9,0.8,1.3,1.4,1.6c0.6,0.3,2.3,0.4,2.8,0.1
			C453,222.4,453.5,222.2,453.3,223.3z"/>
	</g>
	<g>
		<path fill="none" stroke="#E4A224" stroke-width="1.5" stroke-miterlimit="10" d="M488.9,188.2c0,0,0.6-3.9-0.7-7.5
			c0,0-0.4-0.8,0.2-1h2.5c0,0,0.6,0.3,0.7,0.6c0.1,0.3,1.2,2.7,0.6,7.9c0,0-0.3,0.9-1.1,1c-0.8,0-1.9-0.1-1.9-0.1
			S488.6,188.9,488.9,188.2z"/>
		<path fill="none" stroke="#E4A224" stroke-width="1.5" stroke-miterlimit="10" d="M479.4,191.5c0,0-0.4,1.1-0.6,1.8
			c-0.3,0.6-1,2.6,0.2,3.9s2.1,0.8,2.4,0.2c0,0,0.1-0.7,0.1-0.9s-0.4-0.7,0.6-1.9c1-1.2,0.9-1.4,1.8-2.2c0.9-0.8,1.9-1.9,2-2.4
			c0,0,0.7-0.8,0.8-0.7c0.2,0,0.8-0.1,1.2-1.3c0.3-1.2,0.1-5.9-1.1-7.1c-1.2-1.2-7-1.8-8-1.5s-2.6,0.5-2.6,2.2c0,0-1.1,1-1.2,2
			c-0.1,0.9,0.2,1.1,0.2,1.7c0,0.6-1.4,0.7-0.2,2.7c0,0,0.2,0.1,0.1,1c-0.1,0.9,0.8,1.3,1.4,1.6c0.6,0.3,2.3,0.4,2.8,0.1
			C479.1,190.6,479.6,190.4,479.4,191.5z"/>
	</g>
	<g>
		<path fill="none" stroke="#E4A224" stroke-width="1.5" stroke-miterlimit="10" d="M461.5,153.7c0,0,0.6-3.9-0.7-7.5
			c0,0-0.4-0.8,0.2-1h2.5c0,0,0.6,0.3,0.7,0.6c0.1,0.3,1.2,2.7,0.6,7.9c0,0-0.3,0.9-1.1,1s-1.9-0.1-1.9-0.1S461.2,154.4,461.5,153.7
			z"/>
		<path fill="none" stroke="#E4A224" stroke-width="1.5" stroke-miterlimit="10" d="M452,157c0,0-0.4,1.1-0.6,1.8
			c-0.3,0.6-1,2.6,0.2,3.9s2.1,0.8,2.4,0.2c0,0,0.1-0.7,0.1-0.9s-0.4-0.7,0.6-1.9c1-1.2,0.9-1.4,1.8-2.2c0.9-0.8,1.9-1.9,2-2.4
			c0,0,0.7-0.8,0.8-0.7c0.2,0,0.8-0.1,1.2-1.3s0.1-5.9-1.1-7.1c-1.2-1.2-7-1.8-8-1.5s-2.6,0.5-2.6,2.2c0,0-1.1,1-1.2,2
			c-0.1,0.9,0.2,1.1,0.2,1.7c0,0.6-1.4,0.7-0.2,2.7c0,0,0.2,0.1,0.1,1c-0.1,0.9,0.8,1.3,1.4,1.6c0.6,0.3,2.3,0.4,2.8,0.1
			C451.7,156.1,452.2,155.9,452,157z"/>
	</g>
	<g>
		<path fill="none" stroke="#E4A224" stroke-width="1.5" stroke-miterlimit="10" d="M425.6,189.5c0,0,0.6-3.9-0.7-7.5
			c0,0-0.4-0.8,0.2-1h2.5c0,0,0.6,0.3,0.7,0.6c0.1,0.3,1.2,2.7,0.6,7.9c0,0-0.3,0.9-1.1,1c-0.8,0-1.9-0.1-1.9-0.1
			S425.3,190.3,425.6,189.5z"/>
		<path fill="none" stroke="#E4A224" stroke-width="1.5" stroke-miterlimit="10" d="M416.1,192.9c0,0-0.4,1.1-0.6,1.8
			c-0.3,0.6-1,2.6,0.2,3.9c1.1,1.3,2.1,0.8,2.4,0.2c0,0,0.1-0.7,0.1-0.9s-0.4-0.7,0.6-1.9s0.9-1.4,1.8-2.2c0.9-0.8,1.9-1.9,2-2.4
			c0,0,0.7-0.8,0.8-0.7c0.2,0,0.8-0.1,1.2-1.3s0.1-5.9-1.1-7.1c-1.2-1.2-7-1.8-8-1.5c-1.1,0.3-2.6,0.5-2.6,2.2c0,0-1.1,1-1.2,2
			c-0.1,0.9,0.2,1.1,0.2,1.7c0,0.6-1.4,0.7-0.2,2.7c0,0,0.2,0.1,0.1,1s0.8,1.3,1.4,1.6s2.3,0.4,2.8,0.1
			C415.8,192,416.3,191.8,416.1,192.9z"/>
	</g>
	<g>
		<path fill="none" stroke="#E4A224" stroke-width="1.5" stroke-miterlimit="10" d="M581.3,153.7c0,0,0.6-3.9-0.7-7.5
			c0,0-0.4-0.8,0.2-1h2.5c0,0,0.6,0.3,0.7,0.6s1.2,2.7,0.6,7.9c0,0-0.3,0.9-1.1,1s-1.9-0.1-1.9-0.1S581,154.4,581.3,153.7z"/>
		<path fill="none" stroke="#E4A224" stroke-width="1.5" stroke-miterlimit="10" d="M571.9,157c0,0-0.4,1.1-0.6,1.8
			c-0.3,0.6-1,2.6,0.2,3.9s2.1,0.8,2.4,0.2c0,0,0.1-0.7,0.1-0.9s-0.4-0.7,0.6-1.9c1-1.2,0.9-1.4,1.8-2.2s1.9-1.9,2-2.4
			c0,0,0.7-0.8,0.8-0.7c0.2,0,0.8-0.1,1.2-1.3c0.3-1.2,0.1-5.9-1.1-7.1c-1.2-1.2-7-1.8-8-1.5s-2.6,0.5-2.6,2.2c0,0-1.1,1-1.2,2
			s0.2,1.1,0.2,1.7c0,0.6-1.4,0.7-0.2,2.7c0,0,0.2,0.1,0.1,1c-0.1,0.9,0.8,1.3,1.4,1.6c0.6,0.3,2.3,0.4,2.8,0.1
			C571.5,156.1,572,155.9,571.9,157z"/>
	</g>
	<g>
		<path fill="none" stroke="#E4A224" stroke-width="1.5" stroke-miterlimit="10" d="M697.4,153.7c0,0,0.6-3.9-0.7-7.5
			c0,0-0.4-0.8,0.2-1h2.5c0,0,0.6,0.3,0.7,0.6s1.2,2.7,0.6,7.9c0,0-0.3,0.9-1.1,1s-1.9-0.1-1.9-0.1S697.1,154.4,697.4,153.7z"/>
		<path fill="none" stroke="#E4A224" stroke-width="1.5" stroke-miterlimit="10" d="M688,157c0,0-0.4,1.1-0.6,1.8
			c-0.3,0.6-1,2.6,0.2,3.9s2.1,0.8,2.4,0.2c0,0,0.1-0.7,0.1-0.9s-0.4-0.7,0.6-1.9c1-1.2,0.9-1.4,1.8-2.2s1.9-1.9,2-2.4
			c0,0,0.7-0.8,0.8-0.7c0.2,0,0.8-0.1,1.2-1.3s0.1-5.9-1.1-7.1c-1.2-1.2-7-1.8-8-1.5s-2.6,0.5-2.6,2.2c0,0-1.1,1-1.2,2
			c-0.1,0.9,0.2,1.1,0.2,1.7c0,0.6-1.4,0.7-0.2,2.7c0,0,0.2,0.1,0.1,1c-0.1,0.9,0.8,1.3,1.4,1.6s2.3,0.4,2.8,0.1
			C687.6,156.1,688.2,155.9,688,157z"/>
	</g>
	<g>
		<path fill="none" stroke="#E4A224" stroke-width="1.5" stroke-miterlimit="10" d="M697.4,222.7c0,0,0.6-3.9-0.7-7.5
			c0,0-0.4-0.8,0.2-1h2.5c0,0,0.6,0.3,0.7,0.6s1.2,2.7,0.6,7.9c0,0-0.3,0.9-1.1,1s-1.9-0.1-1.9-0.1S697.1,223.5,697.4,222.7z"/>
		<path fill="none" stroke="#E4A224" stroke-width="1.5" stroke-miterlimit="10" d="M688,226c0,0-0.4,1.1-0.6,1.8
			c-0.3,0.6-1,2.6,0.2,3.9s2.1,0.8,2.4,0.2c0,0,0.1-0.7,0.1-0.9s-0.4-0.7,0.6-1.9c1-1.2,0.9-1.4,1.8-2.2s1.9-1.9,2-2.4
			c0,0,0.7-0.8,0.8-0.7c0.2,0,0.8-0.1,1.2-1.3s0.1-5.9-1.1-7.1c-1.2-1.2-7-1.8-8-1.5s-2.6,0.5-2.6,2.2c0,0-1.1,1-1.2,2
			c-0.1,0.9,0.2,1.1,0.2,1.7c0,0.6-1.4,0.7-0.2,2.7c0,0,0.2,0.1,0.1,1c-0.1,0.9,0.8,1.3,1.4,1.6s2.3,0.4,2.8,0.1
			C687.6,225.1,688.2,225,688,226z"/>
	</g>
	<g>
		<path fill="none" stroke="#E4A224" stroke-width="1.5" stroke-miterlimit="10" d="M590.3,106.6c0,0,0.6-3.9-0.7-7.5
			c0,0-0.4-0.8,0.2-1h2.5c0,0,0.6,0.3,0.7,0.6c0.1,0.3,1.2,2.7,0.6,7.9c0,0-0.3,0.9-1.1,1c-0.8,0-1.9-0.1-1.9-0.1
			S590,107.4,590.3,106.6z"/>
		<path fill="none" stroke="#E4A224" stroke-width="1.5" stroke-miterlimit="10" d="M580.9,109.9c0,0-0.4,1.1-0.6,1.8
			s-1,2.6,0.2,3.9c1.1,1.3,2.1,0.8,2.4,0.2c0,0,0.1-0.7,0.1-0.9c0-0.2-0.4-0.7,0.6-1.9c1-1.2,0.9-1.4,1.8-2.2c0.9-0.8,1.9-1.9,2-2.4
			c0,0,0.7-0.8,0.8-0.7s0.8-0.1,1.2-1.3c0.3-1.2,0.1-5.9-1.1-7.1c-1.2-1.2-7-1.8-8-1.5c-1.1,0.3-2.6,0.5-2.6,2.2c0,0-1.1,1-1.2,2
			c-0.1,0.9,0.2,1.1,0.2,1.7c0,0.6-1.4,0.7-0.2,2.7c0,0,0.2,0.1,0.1,1c-0.1,0.9,0.8,1.3,1.4,1.6c0.6,0.3,2.3,0.4,2.8,0.1
			C580.5,109,581.1,108.9,580.9,109.9z"/>
	</g>
	<g>
		<path fill="none" stroke="#E4A224" stroke-width="1.5" stroke-miterlimit="10" d="M611.3,222.7c0,0,0.6-3.9-0.7-7.5
			c0,0-0.4-0.8,0.2-1h2.5c0,0,0.6,0.3,0.7,0.6c0.1,0.3,1.2,2.7,0.6,7.9c0,0-0.3,0.9-1.1,1s-1.9-0.1-1.9-0.1S611,223.5,611.3,222.7z"
			/>
		<path fill="none" stroke="#E4A224" stroke-width="1.5" stroke-miterlimit="10" d="M601.9,226c0,0-0.4,1.1-0.6,1.8
			c-0.3,0.6-1,2.6,0.2,3.9s2.1,0.8,2.4,0.2c0,0,0.1-0.7,0.1-0.9s-0.4-0.7,0.6-1.9c1-1.2,0.9-1.4,1.8-2.2c0.9-0.8,1.9-1.9,2-2.4
			c0,0,0.7-0.8,0.8-0.7c0.2,0,0.8-0.1,1.2-1.3c0.3-1.2,0.1-5.9-1.1-7.1c-1.2-1.2-7-1.8-8-1.5s-2.6,0.5-2.6,2.2c0,0-1.1,1-1.2,2
			s0.2,1.1,0.2,1.7c0,0.6-1.4,0.7-0.2,2.7c0,0,0.2,0.1,0.1,1c-0.1,0.9,0.8,1.3,1.4,1.6c0.6,0.3,2.3,0.4,2.8,0.1
			C601.5,225.1,602.1,225,601.9,226z"/>
	</g>
	<g>
		<path fill="none" stroke="#E4A224" stroke-width="1.5" stroke-miterlimit="10" d="M611.3,275.3c0,0,0.6-3.9-0.7-7.5
			c0,0-0.4-0.8,0.2-1h2.5c0,0,0.6,0.3,0.7,0.6c0.1,0.3,1.2,2.7,0.6,7.9c0,0-0.3,0.9-1.1,1c-0.8,0-1.9-0.1-1.9-0.1
			S611,276,611.3,275.3z"/>
		<path fill="none" stroke="#E4A224" stroke-width="1.5" stroke-miterlimit="10" d="M601.9,278.6c0,0-0.4,1.1-0.6,1.8
			c-0.3,0.6-1,2.6,0.2,3.9s2.1,0.8,2.4,0.2c0,0,0.1-0.7,0.1-0.9s-0.4-0.7,0.6-1.9s0.9-1.4,1.8-2.2c0.9-0.8,1.9-1.9,2-2.4
			c0,0,0.7-0.8,0.8-0.7s0.8-0.1,1.2-1.3c0.3-1.2,0.1-5.9-1.1-7.1c-1.2-1.2-7-1.8-8-1.5s-2.6,0.5-2.6,2.2c0,0-1.1,1-1.2,2
			s0.2,1.1,0.2,1.7c0,0.6-1.4,0.7-0.2,2.7c0,0,0.2,0.1,0.1,1s0.8,1.3,1.4,1.6c0.6,0.3,2.3,0.4,2.8,0.1
			C601.5,277.7,602.1,277.5,601.9,278.6z"/>
	</g>
	<g>
		<path fill="none" stroke="#E4A224" stroke-width="1.5" stroke-miterlimit="10" d="M142.1,248.9c0,0-0.6,3.9,0.7,7.5
			c0,0,0.4,0.8-0.2,1h-2.5c0,0-0.6-0.3-0.7-0.6c-0.1-0.3-1.2-2.7-0.6-7.9c0,0,0.3-0.9,1.1-1s1.9,0.1,1.9,0.1
			S142.4,248.1,142.1,248.9z"/>
		<path fill="none" stroke="#E4A224" stroke-width="1.5" stroke-miterlimit="10" d="M151.6,245.5c0,0,0.4-1.1,0.6-1.8
			c0.3-0.6,1-2.6-0.2-3.9c-1.1-1.3-2.1-0.8-2.4-0.2c0,0-0.1,0.7-0.1,0.9s0.4,0.7-0.6,1.9c-1,1.2-0.9,1.4-1.8,2.2
			c-0.9,0.8-1.9,1.9-2,2.4c0,0-0.7,0.8-0.8,0.7s-0.8,0.1-1.2,1.3s-0.1,5.9,1.1,7.1c1.2,1.2,7,1.8,8,1.5s2.6-0.5,2.6-2.2
			c0,0,1.1-1,1.2-2c0.1-0.9-0.2-1.1-0.2-1.7c0-0.6,1.4-0.7,0.2-2.7c0,0-0.2-0.1-0.1-1c0.1-0.9-0.8-1.3-1.4-1.6
			c-0.6-0.3-2.3-0.4-2.8-0.1C151.9,246.4,151.4,246.6,151.6,245.5z"/>
	</g>
	<g>
		<path fill="none" stroke="#E4A224" stroke-width="1.5" stroke-miterlimit="10" d="M98.7,162.6c0,0-0.6,3.9,0.7,7.5
			c0,0,0.4,0.8-0.2,1h-2.5c0,0-0.6-0.3-0.7-0.6c-0.1-0.3-1.2-2.7-0.6-7.9c0,0,0.3-0.9,1.1-1s1.9,0.1,1.9,0.1S99,161.8,98.7,162.6z"
			/>
		<path fill="none" stroke="#E4A224" stroke-width="1.5" stroke-miterlimit="10" d="M108.2,159.2c0,0,0.4-1.1,0.6-1.8
			c0.3-0.6,1-2.6-0.2-3.9c-1.1-1.3-2.1-0.8-2.4-0.2c0,0-0.1,0.7-0.1,0.9s0.4,0.7-0.6,1.9s-0.9,1.4-1.8,2.2c-0.9,0.8-1.9,1.9-2,2.4
			c0,0-0.7,0.8-0.8,0.7c-0.2,0-0.8,0.1-1.2,1.3c-0.3,1.2-0.1,5.9,1.1,7.1c1.2,1.2,7,1.8,8,1.5c1.1-0.3,2.6-0.5,2.6-2.2
			c0,0,1.1-1,1.2-2c0.1-0.9-0.2-1.1-0.2-1.7c0-0.6,1.4-0.7,0.2-2.7c0,0-0.2-0.1-0.1-1c0.1-0.9-0.8-1.3-1.4-1.6s-2.3-0.4-2.8-0.1
			C108.5,160.1,108,160.3,108.2,159.2z"/>
	</g>
	<g>
		<path fill="none" stroke="#E4A224" stroke-width="1.5" stroke-miterlimit="10" d="M48.1,126.3c0,0-0.6,3.9,0.7,7.5
			c0,0,0.4,0.8-0.2,1h-2.5c0,0-0.6-0.3-0.7-0.6c-0.1-0.3-1.2-2.7-0.6-7.9c0,0,0.3-0.9,1.1-1c0.8,0,1.9,0.1,1.9,0.1
			S48.4,125.6,48.1,126.3z"/>
		<path fill="none" stroke="#E4A224" stroke-width="1.5" stroke-miterlimit="10" d="M57.5,123c0,0,0.4-1.1,0.6-1.8
			c0.3-0.6,1-2.6-0.2-3.9s-2.1-0.8-2.4-0.2c0,0-0.1,0.7-0.1,0.9s0.4,0.7-0.6,1.9c-1,1.2-0.9,1.4-1.8,2.2c-0.9,0.8-1.9,1.9-2,2.4
			c0,0-0.7,0.8-0.8,0.7c-0.2,0-0.8,0.1-1.2,1.3c-0.3,1.2-0.1,5.9,1.1,7.1c1.2,1.2,7,1.8,8,1.5c1.1-0.3,2.6-0.5,2.6-2.2
			c0,0,1.1-1,1.2-2c0.1-0.9-0.2-1.1-0.2-1.7c0-0.6,1.4-0.7,0.2-2.7c0,0-0.2-0.1-0.1-1s-0.8-1.3-1.4-1.6c-0.6-0.3-2.3-0.4-2.8-0.1
			C57.9,123.9,57.3,124.1,57.5,123z"/>
	</g>
	<g>
		<path fill="none" stroke="#E4A224" stroke-width="1.5" stroke-miterlimit="10" d="M50.3,244.5c0,0-0.6,3.9,0.7,7.5
			c0,0,0.4,0.8-0.2,1h-2.5c0,0-0.6-0.3-0.7-0.6c-0.1-0.3-1.2-2.7-0.6-7.9c0,0,0.3-0.9,1.1-1c0.8,0,1.9,0.1,1.9,0.1
			S50.6,243.7,50.3,244.5z"/>
		<path fill="none" stroke="#E4A224" stroke-width="1.5" stroke-miterlimit="10" d="M59.8,241.1c0,0,0.4-1.1,0.6-1.8
			c0.3-0.6,1-2.6-0.2-3.9c-1.1-1.3-2.1-0.8-2.4-0.2c0,0-0.1,0.7-0.1,0.9s0.4,0.7-0.6,1.9s-0.9,1.4-1.8,2.2s-1.9,1.9-2,2.4
			c0,0-0.7,0.8-0.8,0.7s-0.8,0.1-1.2,1.3c-0.3,1.2-0.1,5.9,1.1,7.1c1.2,1.2,7,1.8,8,1.5c1.1-0.3,2.6-0.5,2.6-2.2c0,0,1.1-1,1.2-2
			c0.1-0.9-0.2-1.1-0.2-1.7c0-0.6,1.4-0.7,0.2-2.7c0,0-0.2-0.1-0.1-1c0.1-0.9-0.8-1.3-1.4-1.6c-0.6-0.3-2.3-0.4-2.8-0.1
			C60.1,242,59.6,242.2,59.8,241.1z"/>
	</g>
	<g>
		<path fill="none" stroke="#E4A224" stroke-width="1.5" stroke-miterlimit="10" d="M278.1,154.8c0,0-0.6,3.9,0.7,7.5
			c0,0,0.4,0.8-0.2,1h-2.5c0,0-0.6-0.3-0.7-0.6c-0.1-0.3-1.2-2.7-0.6-7.9c0,0,0.3-0.9,1.1-1c0.8,0,1.9,0.1,1.9,0.1
			S278.4,154.1,278.1,154.8z"/>
		<path fill="none" stroke="#E4A224" stroke-width="1.5" stroke-miterlimit="10" d="M287.6,151.5c0,0,0.4-1.1,0.6-1.8
			c0.3-0.6,1-2.6-0.2-3.9s-2.1-0.8-2.4-0.2c0,0-0.1,0.7-0.1,0.9c0,0.2,0.4,0.7-0.6,1.9c-1,1.2-0.9,1.4-1.8,2.2
			c-0.9,0.8-1.9,1.9-2,2.4c0,0-0.7,0.8-0.8,0.7c-0.2,0-0.8,0.1-1.2,1.3c-0.3,1.2-0.1,5.9,1.1,7.1c1.2,1.2,7,1.8,8,1.5
			s2.6-0.5,2.6-2.2c0,0,1.1-1,1.2-2s-0.2-1.1-0.2-1.7c0-0.6,1.4-0.7,0.2-2.7c0,0-0.2-0.1-0.1-1c0.1-0.9-0.8-1.3-1.4-1.6
			c-0.6-0.3-2.3-0.4-2.8-0.1C287.9,152.4,287.4,152.6,287.6,151.5z"/>
	</g>
	<g>
		<path fill="none" stroke="#E4A224" stroke-width="1.5" stroke-miterlimit="10" d="M165.5,219.4c0,0-0.6,3.9,0.7,7.5
			c0,0,0.4,0.8-0.2,1h-2.5c0,0-0.6-0.3-0.7-0.6c-0.1-0.3-1.2-2.7-0.6-7.9c0,0,0.3-0.9,1.1-1s1.9,0.1,1.9,0.1
			S165.8,218.6,165.5,219.4z"/>
		<path fill="none" stroke="#E4A224" stroke-width="1.5" stroke-miterlimit="10" d="M174.9,216c0,0,0.4-1.1,0.6-1.8
			c0.3-0.6,1-2.6-0.2-3.9s-2.1-0.8-2.4-0.2c0,0-0.1,0.7-0.1,0.9s0.4,0.7-0.6,1.9c-1,1.2-0.9,1.4-1.8,2.2s-1.9,1.9-2,2.4
			c0,0-0.7,0.8-0.8,0.7s-0.8,0.1-1.2,1.3s-0.1,5.9,1.1,7.1c1.2,1.2,7,1.8,8,1.5c1.1-0.3,2.6-0.5,2.6-2.2c0,0,1.1-1,1.2-2
			c0.1-0.9-0.2-1.1-0.2-1.7s1.4-0.7,0.2-2.7c0,0-0.2-0.1-0.1-1c0.1-0.9-0.8-1.3-1.4-1.6c-0.6-0.3-2.3-0.4-2.8-0.1
			C175.3,217,174.7,217.1,174.9,216z"/>
	</g>
	<g>
		<path fill="none" stroke="#E4A224" stroke-width="1.5" stroke-miterlimit="10" d="M156.4,189.9c0,0-0.6,3.9,0.7,7.5
			c0,0,0.4,0.8-0.2,1h-2.5c0,0-0.6-0.3-0.7-0.6c-0.1-0.3-1.2-2.7-0.6-7.9c0,0,0.3-0.9,1.1-1c0.8,0,1.9,0.1,1.9,0.1
			S156.8,189.1,156.4,189.9z"/>
		<path fill="none" stroke="#E4A224" stroke-width="1.5" stroke-miterlimit="10" d="M165.9,186.5c0,0,0.4-1.1,0.6-1.8
			c0.3-0.6,1-2.6-0.2-3.9c-1.1-1.3-2.1-0.8-2.4-0.2c0,0-0.1,0.7-0.1,0.9s0.4,0.7-0.6,1.9c-1,1.2-0.9,1.4-1.8,2.2
			c-0.9,0.8-1.9,1.9-2,2.4c0,0-0.7,0.8-0.8,0.7c-0.2,0-0.8,0.1-1.2,1.3c-0.3,1.2-0.1,5.9,1.1,7.1c1.2,1.2,7,1.8,8,1.5
			s2.6-0.5,2.6-2.2c0,0,1.1-1,1.2-2c0.1-0.9-0.2-1.1-0.2-1.7c0-0.6,1.4-0.7,0.2-2.7c0,0-0.2-0.1-0.1-1c0.1-0.9-0.8-1.3-1.4-1.6
			c-0.6-0.3-2.3-0.4-2.8-0.1C166.2,187.5,165.7,187.6,165.9,186.5z"/>
	</g>
	<g>
		<path fill="none" stroke="#E4A224" stroke-width="1.5" stroke-miterlimit="10" d="M174.1,160.1c0,0-0.6,3.9,0.7,7.5
			c0,0,0.4,0.8-0.2,1h-2.5c0,0-0.6-0.3-0.7-0.6c-0.1-0.3-1.2-2.7-0.6-7.9c0,0,0.3-0.9,1.1-1c0.8,0,1.9,0.1,1.9,0.1
			S174.5,159.3,174.1,160.1z"/>
		<path fill="none" stroke="#E4A224" stroke-width="1.5" stroke-miterlimit="10" d="M183.6,156.7c0,0,0.4-1.1,0.6-1.8
			c0.3-0.6,1-2.6-0.2-3.9c-1.1-1.3-2.1-0.8-2.4-0.2c0,0-0.1,0.7-0.1,0.9c0,0.2,0.4,0.7-0.6,1.9c-1,1.2-0.9,1.4-1.8,2.2
			s-1.9,1.9-2,2.4c0,0-0.7,0.8-0.8,0.7c-0.2,0-0.8,0.1-1.2,1.3s-0.1,5.9,1.1,7.1c1.2,1.2,7,1.8,8,1.5s2.6-0.5,2.6-2.2
			c0,0,1.1-1,1.2-2s-0.2-1.1-0.2-1.7c0-0.6,1.4-0.7,0.2-2.7c0,0-0.2-0.1-0.1-1c0.1-0.9-0.8-1.3-1.4-1.6c-0.6-0.3-2.3-0.4-2.8-0.1
			C183.9,157.6,183.4,157.8,183.6,156.7z"/>
	</g>
	<g>
		<path fill="none" stroke="#E4A224" stroke-width="1.5" stroke-miterlimit="10" d="M116.1,116.9c0,0-0.6,3.9,0.7,7.5
			c0,0,0.4,0.8-0.2,1h-2.5c0,0-0.6-0.3-0.7-0.6c-0.1-0.3-1.2-2.7-0.6-7.9c0,0,0.3-0.9,1.1-1c0.8,0,1.9,0.1,1.9,0.1
			S116.5,116.1,116.1,116.9z"/>
		<path fill="none" stroke="#E4A224" stroke-width="1.5" stroke-miterlimit="10" d="M125.6,113.6c0,0,0.4-1.1,0.6-1.8
			c0.3-0.6,1-2.6-0.2-3.9c-1.1-1.3-2.1-0.8-2.4-0.2c0,0-0.1,0.7-0.1,0.9c0,0.2,0.4,0.7-0.6,1.9c-1,1.2-0.9,1.4-1.8,2.2
			c-0.9,0.8-1.9,1.9-2,2.4c0,0-0.7,0.8-0.8,0.7c-0.2,0-0.8,0.1-1.2,1.3c-0.3,1.2-0.1,5.9,1.1,7.1c1.2,1.2,7,1.8,8,1.5
			c1.1-0.3,2.6-0.5,2.6-2.2c0,0,1.1-1,1.2-2c0.1-0.9-0.2-1.1-0.2-1.7s1.4-0.7,0.2-2.7c0,0-0.2-0.1-0.1-1c0.1-0.9-0.8-1.3-1.4-1.6
			c-0.6-0.3-2.3-0.4-2.8-0.1C125.9,114.5,125.4,114.6,125.6,113.6z"/>
	</g>
	<g>
		<path fill="none" stroke="#E4A224" stroke-width="1.5" stroke-miterlimit="10" d="M282,248.9c0,0-0.6,3.9,0.7,7.5
			c0,0,0.4,0.8-0.2,1H280c0,0-0.6-0.3-0.7-0.6c-0.1-0.3-1.2-2.7-0.6-7.9c0,0,0.3-0.9,1.1-1c0.8,0,1.9,0.1,1.9,0.1
			S282.3,248.1,282,248.9z"/>
		<path fill="none" stroke="#E4A224" stroke-width="1.5" stroke-miterlimit="10" d="M291.4,245.5c0,0,0.4-1.1,0.6-1.8
			c0.3-0.6,1-2.6-0.2-3.9s-2.1-0.8-2.4-0.2c0,0-0.1,0.7-0.1,0.9s0.4,0.7-0.6,1.9c-1,1.2-0.9,1.4-1.8,2.2c-0.9,0.8-1.9,1.9-2,2.4
			c0,0-0.7,0.8-0.8,0.7c-0.2,0-0.8,0.1-1.2,1.3c-0.3,1.2-0.1,5.9,1.1,7.1c1.2,1.2,7,1.8,8,1.5s2.6-0.5,2.6-2.2c0,0,1.1-1,1.2-2
			c0.1-0.9-0.2-1.1-0.2-1.7c0-0.6,1.4-0.7,0.2-2.7c0,0-0.2-0.1-0.1-1c0.1-0.9-0.8-1.3-1.4-1.6c-0.6-0.3-2.3-0.4-2.8-0.1
			C291.8,246.4,291.3,246.6,291.4,245.5z"/>
	</g>
	<g>
		<path fill="none" stroke="#E4A224" stroke-width="1.5" stroke-miterlimit="10" d="M339.5,228.8c0,0-0.6,3.9,0.7,7.5
			c0,0,0.4,0.8-0.2,1h-2.5c0,0-0.6-0.3-0.7-0.6c-0.1-0.3-1.2-2.7-0.6-7.9c0,0,0.3-0.9,1.1-1c0.8,0,1.9,0.1,1.9,0.1
			S339.9,228,339.5,228.8z"/>
		<path fill="none" stroke="#E4A224" stroke-width="1.5" stroke-miterlimit="10" d="M349,225.5c0,0,0.4-1.1,0.6-1.8s1-2.6-0.2-3.9
			s-2.1-0.8-2.4-0.2c0,0-0.1,0.7-0.1,0.9c0,0.2,0.4,0.7-0.6,1.9c-1,1.2-0.9,1.4-1.8,2.2c-0.9,0.8-1.9,1.9-2,2.4c0,0-0.7,0.8-0.8,0.7
			c-0.2,0-0.8,0.1-1.2,1.3c-0.3,1.2-0.1,5.9,1.1,7.1c1.2,1.2,7,1.8,8,1.5s2.6-0.5,2.6-2.2c0,0,1.1-1,1.2-2c0.1-0.9-0.2-1.1-0.2-1.7
			c0-0.6,1.4-0.7,0.2-2.7c0,0-0.2-0.1-0.1-1c0.1-0.9-0.8-1.3-1.4-1.6c-0.6-0.3-2.3-0.4-2.8-0.1C349.3,226.4,348.8,226.5,349,225.5z"
			/>
	</g>
	<g>
		<g>
			<g>
				<path fill="#FFFFFF" d="M169.4,160.8h11.8c2,0,3.9,0.2,5.5,0.7c1.6,0.5,3.1,1.1,4.3,1.9c1.3,0.8,2.3,1.8,3.2,2.9
					c0.9,1.1,1.6,2.3,2.2,3.6c0.6,1.3,1,2.7,1.3,4.1c0.3,1.4,0.4,2.9,0.4,4.3c0,1.3-0.1,2.7-0.4,4.1c-0.3,1.4-0.7,2.8-1.2,4.1
					c-0.6,1.3-1.3,2.5-2.2,3.7c-0.9,1.2-2,2.2-3.3,3c-1.3,0.9-2.8,1.5-4.4,2c-1.7,0.5-3.6,0.7-5.7,0.7h-11.6V160.8z M181.8,189.7
					c1.7,0,3.2-0.3,4.4-1c1.2-0.7,2.2-1.6,2.9-2.6c0.7-1.1,1.3-2.3,1.6-3.6c0.3-1.3,0.5-2.6,0.5-3.9c0-1.4-0.2-2.7-0.5-4.1
					c-0.3-1.3-0.9-2.5-1.6-3.6c-0.7-1.1-1.6-1.9-2.7-2.6s-2.4-1-4-1h-6.2v22.4H181.8z"/>
				<path fill="#FFFFFF" d="M220.1,196.7c-1.9,0-3.6-0.3-5.1-0.8c-1.5-0.5-2.8-1.2-4-2c-1.1-0.9-2.1-1.9-2.9-3.1
					c-0.8-1.2-1.5-2.4-2-3.8c-0.5-1.4-0.9-2.8-1.1-4.2c-0.2-1.5-0.4-2.9-0.4-4.4c0-1.4,0.1-2.9,0.4-4.4c0.2-1.5,0.6-2.9,1.1-4.2
					c0.5-1.4,1.2-2.6,2-3.8c0.8-1.2,1.8-2.2,2.9-3.1c1.1-0.9,2.5-1.5,4-2c1.5-0.5,3.2-0.8,5.1-0.8c1.9,0,3.6,0.3,5.1,0.8
					c1.5,0.5,2.8,1.2,3.9,2c1.1,0.9,2.1,1.9,2.9,3.1c0.8,1.2,1.5,2.4,2,3.8c0.5,1.4,0.9,2.8,1.1,4.2c0.2,1.5,0.4,2.9,0.4,4.4
					c0,1.5-0.1,2.9-0.4,4.4c-0.2,1.5-0.6,2.9-1.1,4.2c-0.5,1.4-1.2,2.6-2,3.8c-0.8,1.2-1.8,2.2-2.9,3.1c-1.1,0.9-2.5,1.5-3.9,2
					C223.7,196.5,222,196.7,220.1,196.7z M220.1,190.1c1.6,0,2.9-0.4,3.9-1.1s1.9-1.7,2.6-2.8c0.7-1.1,1.1-2.4,1.4-3.8
					s0.4-2.7,0.4-4c0-0.9-0.1-1.8-0.2-2.7c-0.1-0.9-0.3-1.8-0.6-2.7c-0.3-0.9-0.6-1.7-1.1-2.4c-0.4-0.8-1-1.4-1.6-2
					c-0.6-0.6-1.3-1-2.2-1.3c-0.8-0.3-1.8-0.5-2.8-0.5c-1.1,0-2,0.2-2.8,0.5c-0.8,0.3-1.5,0.8-2.2,1.4c-0.6,0.6-1.2,1.3-1.6,2
					c-0.4,0.8-0.8,1.6-1.1,2.5c-0.3,0.9-0.5,1.8-0.6,2.7c-0.1,0.9-0.2,1.8-0.2,2.6c0,1.3,0.1,2.7,0.4,4.1c0.3,1.4,0.8,2.6,1.4,3.8
					c0.7,1.1,1.5,2,2.6,2.8C217.2,189.8,218.5,190.1,220.1,190.1z"/>
				<path fill="#FFFFFF" d="M260.1,170.4c-0.2-0.5-0.5-1-0.9-1.5c-0.4-0.5-0.8-0.9-1.3-1.2c-0.5-0.3-1.1-0.6-1.7-0.8
					c-0.6-0.2-1.4-0.3-2.1-0.3c-1.5,0-2.6,0.3-3.4,0.9c-0.8,0.6-1.2,1.4-1.2,2.5c0,0.7,0.3,1.3,0.8,1.8c0.5,0.5,1.2,0.9,2.1,1.3
					c0.8,0.4,1.8,0.8,2.9,1.1c1.1,0.3,2.2,0.7,3.3,1.1c1.1,0.4,2.3,0.9,3.3,1.5c1.1,0.6,2,1.3,2.9,2.1c0.8,0.8,1.5,1.8,2.1,3
					c0.5,1.1,0.8,2.5,0.8,4.1c0,1.7-0.3,3.3-1,4.6c-0.7,1.3-1.5,2.5-2.7,3.4c-1.1,0.9-2.5,1.6-4,2.1c-1.5,0.5-3.2,0.7-5,0.7
					c-1.6,0-3.2-0.2-4.6-0.7c-1.4-0.5-2.7-1.1-3.9-1.9c-1.2-0.8-2.2-1.9-3-3.1s-1.5-2.5-2.1-4l6.2-2.3c0.4,0.8,0.8,1.6,1.4,2.3
					c0.5,0.7,1.1,1.3,1.8,1.8c0.7,0.5,1.4,0.9,2.1,1.1c0.8,0.3,1.6,0.4,2.4,0.4c0.8,0,1.6-0.1,2.3-0.3c0.7-0.2,1.3-0.5,1.8-0.8
					c0.5-0.4,0.9-0.8,1.1-1.3c0.3-0.5,0.4-1.2,0.4-1.9c0-0.9-0.3-1.6-0.8-2.2c-0.5-0.6-1.2-1.1-2.1-1.5c-0.8-0.4-1.8-0.8-2.9-1.2
					c-1.1-0.4-2.2-0.7-3.3-1.1c-1.1-0.4-2.2-0.9-3.3-1.4c-1.1-0.5-2-1.2-2.9-1.9c-0.8-0.8-1.5-1.7-2.1-2.8c-0.5-1.1-0.8-2.4-0.8-3.9
					c0-1.3,0.3-2.6,0.8-3.8c0.5-1.2,1.3-2.2,2.3-3.1c1-0.9,2.2-1.6,3.7-2.1c1.5-0.5,3.1-0.8,5-0.8c1.6,0,3,0.2,4.3,0.6
					c1.3,0.4,2.4,1,3.4,1.7c1,0.7,1.8,1.6,2.5,2.6c0.7,1,1.2,2.1,1.5,3.3L260.1,170.4z"/>
				<path fill="#FFFFFF" d="M310.1,196.1l-2.7-7.3h-13.5l-2.7,7.3h-7.3l13.4-35.3h6.6l13.4,35.3H310.1z M301.7,173.4
					c-0.2-0.4-0.4-0.9-0.6-1.5c-0.2-0.6-0.4-1.1-0.5-1.7c-0.1,0.5-0.3,1.1-0.5,1.7c-0.2,0.6-0.4,1.1-0.6,1.5l-3.5,9.2h9.1
					L301.7,173.4z"/>
				<path fill="#FFFFFF" d="M345.6,196.1l-13.9-20.6c-0.2-0.3-0.5-0.8-0.7-1.3c-0.3-0.5-0.5-1-0.7-1.4c0,0.4,0.1,0.8,0.1,1.3
					c0,0.5,0,1,0,1.3v20.6h-6.7v-35.3h6.4l13.6,20.4c0.2,0.3,0.5,0.7,0.7,1.2c0.3,0.5,0.5,1,0.7,1.4c0-0.5-0.1-1-0.1-1.4
					c0-0.5,0-0.9,0-1.2v-20.4h6.7v35.3H345.6z"/>
				<path fill="#FFFFFF" d="M360.6,160.8h11.8c2,0,3.9,0.2,5.5,0.7c1.6,0.5,3.1,1.1,4.3,1.9c1.3,0.8,2.3,1.8,3.2,2.9
					c0.9,1.1,1.6,2.3,2.2,3.6c0.6,1.3,1,2.7,1.3,4.1c0.3,1.4,0.4,2.9,0.4,4.3c0,1.3-0.1,2.7-0.4,4.1c-0.3,1.4-0.7,2.8-1.2,4.1
					c-0.6,1.3-1.3,2.5-2.2,3.7c-0.9,1.2-2,2.2-3.3,3c-1.3,0.9-2.8,1.5-4.4,2c-1.7,0.5-3.6,0.7-5.7,0.7h-11.6V160.8z M373,189.7
					c1.7,0,3.2-0.3,4.4-1c1.2-0.7,2.2-1.6,2.9-2.6c0.7-1.1,1.3-2.3,1.6-3.6c0.3-1.3,0.5-2.6,0.5-3.9c0-1.4-0.2-2.7-0.5-4.1
					c-0.3-1.3-0.9-2.5-1.6-3.6c-0.7-1.1-1.6-1.9-2.7-2.6c-1.1-0.6-2.4-1-4-1h-6.2v22.4H373z"/>
				<path fill="#FFFFFF" d="M408.7,160.8h11.8c2,0,3.9,0.2,5.5,0.7c1.6,0.5,3.1,1.1,4.3,1.9c1.3,0.8,2.3,1.8,3.2,2.9
					c0.9,1.1,1.6,2.3,2.2,3.6c0.6,1.3,1,2.7,1.3,4.1c0.3,1.4,0.4,2.9,0.4,4.3c0,1.3-0.1,2.7-0.4,4.1c-0.3,1.4-0.7,2.8-1.2,4.1
					c-0.6,1.3-1.3,2.5-2.2,3.7c-0.9,1.2-2,2.2-3.3,3c-1.3,0.9-2.8,1.5-4.4,2c-1.7,0.5-3.6,0.7-5.7,0.7h-11.6V160.8z M421.1,189.7
					c1.7,0,3.2-0.3,4.4-1c1.2-0.7,2.2-1.6,2.9-2.6c0.7-1.1,1.3-2.3,1.6-3.6c0.3-1.3,0.5-2.6,0.5-3.9c0-1.4-0.2-2.7-0.5-4.1
					c-0.3-1.3-0.9-2.5-1.6-3.6c-0.7-1.1-1.6-1.9-2.7-2.6c-1.1-0.6-2.4-1-4-1h-6.2v22.4H421.1z"/>
				<path fill="#FFFFFF" d="M459.4,196.7c-1.9,0-3.6-0.3-5.1-0.8c-1.5-0.5-2.8-1.2-4-2c-1.1-0.9-2.1-1.9-2.9-3.1
					c-0.8-1.2-1.5-2.4-2-3.8c-0.5-1.4-0.9-2.8-1.1-4.2c-0.2-1.5-0.4-2.9-0.4-4.4c0-1.4,0.1-2.9,0.4-4.4c0.2-1.5,0.6-2.9,1.1-4.2
					c0.5-1.4,1.2-2.6,2-3.8c0.8-1.2,1.8-2.2,2.9-3.1c1.1-0.9,2.5-1.5,4-2c1.5-0.5,3.2-0.8,5.1-0.8c1.9,0,3.6,0.3,5.1,0.8
					c1.5,0.5,2.8,1.2,3.9,2c1.1,0.9,2.1,1.9,2.9,3.1c0.8,1.2,1.5,2.4,2,3.8c0.5,1.4,0.9,2.8,1.1,4.2c0.2,1.5,0.4,2.9,0.4,4.4
					c0,1.5-0.1,2.9-0.4,4.4c-0.2,1.5-0.6,2.9-1.1,4.2c-0.5,1.4-1.2,2.6-2,3.8c-0.8,1.2-1.8,2.2-2.9,3.1c-1.1,0.9-2.5,1.5-3.9,2
					C463,196.5,461.3,196.7,459.4,196.7z M459.4,190.1c1.6,0,2.9-0.4,3.9-1.1c1.1-0.7,1.9-1.7,2.6-2.8c0.7-1.1,1.1-2.4,1.4-3.8
					s0.4-2.7,0.4-4c0-0.9-0.1-1.8-0.2-2.7c-0.1-0.9-0.3-1.8-0.6-2.7c-0.3-0.9-0.6-1.7-1.1-2.4c-0.4-0.8-1-1.4-1.6-2
					c-0.6-0.6-1.3-1-2.2-1.3c-0.8-0.3-1.8-0.5-2.8-0.5c-1.1,0-2,0.2-2.8,0.5c-0.8,0.3-1.5,0.8-2.2,1.4c-0.6,0.6-1.2,1.3-1.6,2
					c-0.4,0.8-0.8,1.6-1.1,2.5c-0.3,0.9-0.5,1.8-0.6,2.7c-0.1,0.9-0.2,1.8-0.2,2.6c0,1.3,0.1,2.7,0.4,4.1c0.3,1.4,0.8,2.6,1.4,3.8
					c0.7,1.1,1.5,2,2.6,2.8C456.5,189.8,457.8,190.1,459.4,190.1z"/>
				<path fill="#FFFFFF" d="M504.5,196.1l-13.9-20.6c-0.2-0.3-0.5-0.8-0.7-1.3c-0.3-0.5-0.5-1-0.7-1.4c0,0.4,0.1,0.8,0.1,1.3
					c0,0.5,0,1,0,1.3v20.6h-6.7v-35.3h6.4l13.6,20.4c0.2,0.3,0.5,0.7,0.7,1.2c0.3,0.5,0.5,1,0.7,1.4c0-0.5-0.1-1-0.1-1.4
					c0-0.5,0-0.9,0-1.2v-20.4h6.7v35.3H504.5z"/>
				<path fill="#FFFFFF" d="M516.8,172.9c0.2-0.2,0.5-0.5,0.8-0.8c0.3-0.4,0.6-0.8,0.9-1.2c0.3-0.4,0.6-0.9,0.9-1.3
					c0.3-0.5,0.5-0.9,0.6-1.3c-0.8-0.3-1.5-0.7-2-1.4c-0.5-0.7-0.8-1.5-0.8-2.6c0-0.6,0.1-1.2,0.3-1.7c0.2-0.5,0.5-0.9,0.9-1.3
					c0.4-0.4,0.8-0.7,1.3-0.9c0.5-0.2,1-0.3,1.6-0.3c0.6,0,1.1,0.1,1.6,0.3c0.5,0.2,1,0.5,1.4,0.9c0.4,0.4,0.7,0.9,0.9,1.5
					c0.2,0.6,0.3,1.3,0.3,2.1c0,1-0.2,2-0.5,2.9s-0.8,1.9-1.3,2.8c-0.6,0.9-1.2,1.7-1.9,2.4c-0.7,0.7-1.5,1.4-2.3,1.9L516.8,172.9z"
					/>
				<path fill="#FFFFFF" d="M546.4,167.3v28.8h-6.7v-28.8h-10v-6.6h26.8v6.6H546.4z"/>
				<path fill="#FFFFFF" d="M580,170.4c-0.2-0.5-0.5-1-0.9-1.5c-0.4-0.5-0.8-0.9-1.3-1.2c-0.5-0.3-1.1-0.6-1.7-0.8
					c-0.6-0.2-1.4-0.3-2.1-0.3c-1.5,0-2.6,0.3-3.4,0.9s-1.2,1.4-1.2,2.5c0,0.7,0.3,1.3,0.8,1.8c0.5,0.5,1.2,0.9,2.1,1.3
					c0.8,0.4,1.8,0.8,2.9,1.1c1.1,0.3,2.2,0.7,3.3,1.1c1.1,0.4,2.3,0.9,3.3,1.5c1.1,0.6,2,1.3,2.9,2.1c0.8,0.8,1.5,1.8,2.1,3
					c0.5,1.1,0.8,2.5,0.8,4.1c0,1.7-0.3,3.3-1,4.6c-0.7,1.3-1.5,2.5-2.7,3.4c-1.1,0.9-2.5,1.6-4,2.1c-1.5,0.5-3.2,0.7-5,0.7
					c-1.6,0-3.2-0.2-4.6-0.7c-1.4-0.5-2.7-1.1-3.9-1.9c-1.2-0.8-2.2-1.9-3-3.1s-1.5-2.5-2.1-4l6.2-2.3c0.4,0.8,0.8,1.6,1.4,2.3
					c0.5,0.7,1.1,1.3,1.8,1.8c0.7,0.5,1.4,0.9,2.1,1.1c0.8,0.3,1.6,0.4,2.4,0.4c0.8,0,1.6-0.1,2.3-0.3c0.7-0.2,1.3-0.5,1.8-0.8
					c0.5-0.4,0.9-0.8,1.1-1.3c0.3-0.5,0.4-1.2,0.4-1.9c0-0.9-0.3-1.6-0.8-2.2c-0.5-0.6-1.2-1.1-2.1-1.5c-0.8-0.4-1.8-0.8-2.9-1.2
					c-1.1-0.4-2.2-0.7-3.3-1.1c-1.1-0.4-2.2-0.9-3.3-1.4c-1.1-0.5-2-1.2-2.9-1.9c-0.8-0.8-1.5-1.7-2.1-2.8c-0.5-1.1-0.8-2.4-0.8-3.9
					c0-1.3,0.3-2.6,0.8-3.8c0.5-1.2,1.3-2.2,2.3-3.1c1-0.9,2.2-1.6,3.7-2.1c1.5-0.5,3.1-0.8,5-0.8c1.6,0,3,0.2,4.3,0.6
					c1.3,0.4,2.4,1,3.4,1.7c1,0.7,1.8,1.6,2.5,2.6c0.7,1,1.2,2.1,1.5,3.3L580,170.4z"/>
			</g>
		</g>
		<g>
			<g>
				<path fill="#FFFFFF" d="M170.1,229.6v-26.1h15.1v2.5h-12.5v8.9h8.5v2.5h-8.5v12.3H170.1z"/>
				<path fill="#FFFFFF" d="M199.3,230.1c-2,0-3.7-0.4-5-1.2c-1.4-0.8-2.5-1.8-3.3-3.1c-0.8-1.3-1.4-2.7-1.8-4.3s-0.6-3.2-0.6-4.8
					c0-1.6,0.2-3.2,0.6-4.8s1-3.1,1.8-4.3c0.8-1.3,1.9-2.3,3.3-3.1c1.4-0.8,3.1-1.2,5-1.2c2,0,3.7,0.4,5,1.2
					c1.4,0.8,2.5,1.8,3.3,3.1c0.8,1.3,1.4,2.7,1.8,4.3c0.4,1.6,0.6,3.2,0.6,4.8c0,1.6-0.2,3.2-0.6,4.8c-0.4,1.6-1,3.1-1.8,4.3
					c-0.8,1.3-1.9,2.3-3.3,3.1C203,229.7,201.3,230.1,199.3,230.1z M199.3,227.7c1.5,0,2.7-0.3,3.8-1c1-0.7,1.8-1.5,2.5-2.6
					c0.6-1.1,1.1-2.3,1.4-3.6c0.3-1.3,0.4-2.6,0.4-3.9c0-1.4-0.1-2.8-0.4-4.1c-0.3-1.3-0.7-2.5-1.4-3.6c-0.6-1-1.5-1.9-2.5-2.5
					c-1-0.6-2.3-1-3.8-1s-2.7,0.3-3.8,1c-1,0.7-1.8,1.5-2.5,2.6c-0.6,1.1-1.1,2.3-1.4,3.6c-0.3,1.3-0.4,2.6-0.4,3.9
					c0,1.4,0.1,2.8,0.4,4.1c0.3,1.3,0.7,2.5,1.4,3.6c0.6,1,1.5,1.9,2.5,2.5C196.6,227.4,197.8,227.7,199.3,227.7z"/>
				<path fill="#FFFFFF" d="M234,210.7c0,0.8-0.1,1.6-0.3,2.3c-0.2,0.8-0.6,1.5-1.1,2.1c-0.5,0.7-1.2,1.2-2,1.7
					c-0.8,0.5-1.8,0.8-3,1l5.7,11.8h-2.8l-5.5-11.7h-5.8v11.7h-2.6v-26.1h9.5c1.5,0,2.8,0.2,3.8,0.6c1,0.4,1.8,1,2.5,1.6
					c0.6,0.7,1.1,1.4,1.3,2.3C233.8,208.9,234,209.8,234,210.7z M226.1,215.6c1,0,1.9-0.1,2.6-0.4c0.7-0.3,1.3-0.7,1.7-1.1
					c0.4-0.4,0.7-1,0.9-1.5c0.2-0.6,0.3-1.2,0.3-1.8c0-0.5-0.1-1.1-0.3-1.6c-0.2-0.6-0.5-1.1-0.9-1.6c-0.4-0.5-1-0.9-1.7-1.2
					c-0.7-0.3-1.6-0.5-2.6-0.5h-7v9.7H226.1z"/>
				<path fill="#FFFFFF" d="M261,208c-0.3-0.7-0.9-1.3-1.7-1.8c-0.8-0.5-1.9-0.8-3.2-0.8c-1.5,0-2.7,0.3-3.6,1
					c-0.9,0.7-1.3,1.6-1.3,2.7c0,0.7,0.2,1.3,0.5,1.8c0.3,0.5,0.8,1,1.3,1.4c0.6,0.4,1.2,0.8,1.9,1.1c0.7,0.3,1.5,0.6,2.2,0.9
					c0.9,0.3,1.8,0.8,2.7,1.2c0.9,0.5,1.7,1,2.4,1.7c0.7,0.7,1.3,1.5,1.7,2.4c0.4,0.9,0.7,2,0.7,3.2c0,1.2-0.2,2.2-0.6,3.1
					c-0.4,0.9-1,1.6-1.7,2.3c-0.7,0.6-1.6,1.1-2.6,1.4c-1,0.3-2.1,0.5-3.3,0.5c-1.1,0-2.1-0.1-3-0.4c-0.9-0.3-1.8-0.7-2.5-1.2
					c-0.7-0.5-1.4-1-1.9-1.7s-0.9-1.3-1.2-2l2.4-0.9c0.5,1.1,1.3,2.1,2.4,2.8c1.1,0.7,2.3,1.1,3.8,1.1c1.7,0,3-0.4,4-1.2
					c1-0.8,1.5-2,1.5-3.6c0-0.8-0.2-1.5-0.5-2.1c-0.3-0.6-0.8-1.2-1.3-1.7c-0.5-0.5-1.2-0.9-1.9-1.3c-0.7-0.4-1.4-0.7-2.2-1
					c-0.9-0.3-1.8-0.7-2.7-1.2c-0.9-0.4-1.7-1-2.4-1.6c-0.7-0.6-1.3-1.3-1.8-2.1c-0.4-0.8-0.7-1.7-0.7-2.8c0-0.8,0.2-1.6,0.5-2.3
					c0.3-0.7,0.8-1.4,1.5-1.9c0.7-0.5,1.4-1,2.4-1.3c0.9-0.3,2-0.5,3.2-0.5c1.9,0,3.5,0.4,4.8,1.2c1.3,0.8,2.1,1.8,2.4,3L261,208z"
					/>
				<path fill="#FFFFFF" d="M280.7,230.1c-2,0-3.7-0.4-5-1.2c-1.4-0.8-2.5-1.8-3.3-3.1c-0.8-1.3-1.4-2.7-1.8-4.3
					c-0.4-1.6-0.6-3.2-0.6-4.8c0-1.6,0.2-3.2,0.6-4.8c0.4-1.6,1-3.1,1.8-4.3c0.8-1.3,1.9-2.3,3.3-3.1c1.4-0.8,3.1-1.2,5-1.2
					c2,0,3.7,0.4,5,1.2c1.4,0.8,2.5,1.8,3.3,3.1c0.8,1.3,1.4,2.7,1.8,4.3c0.4,1.6,0.6,3.2,0.6,4.8c0,1.6-0.2,3.2-0.6,4.8
					c-0.4,1.6-1,3.1-1.8,4.3c-0.8,1.3-1.9,2.3-3.3,3.1C284.4,229.7,282.7,230.1,280.7,230.1z M280.7,227.7c1.5,0,2.7-0.3,3.8-1
					c1-0.7,1.8-1.5,2.5-2.6c0.6-1.1,1.1-2.3,1.4-3.6c0.3-1.3,0.4-2.6,0.4-3.9c0-1.4-0.1-2.8-0.4-4.1c-0.3-1.3-0.7-2.5-1.4-3.6
					c-0.6-1-1.5-1.9-2.5-2.5c-1-0.6-2.3-1-3.8-1s-2.7,0.3-3.8,1c-1,0.7-1.8,1.5-2.5,2.6c-0.6,1.1-1.1,2.3-1.4,3.6
					c-0.3,1.3-0.4,2.6-0.4,3.9c0,1.4,0.1,2.8,0.4,4.1s0.7,2.5,1.4,3.6c0.6,1,1.5,1.9,2.5,2.5C278,227.4,279.2,227.7,280.7,227.7z"/>
				<path fill="#FFFFFF" d="M307.3,230.1c-1.9,0-3.6-0.4-4.9-1.2c-1.4-0.8-2.5-1.8-3.3-3c-0.9-1.3-1.5-2.7-1.9-4.3
					c-0.4-1.6-0.6-3.3-0.6-5c0-1.8,0.2-3.5,0.6-5.1c0.4-1.6,1.1-3.1,1.9-4.3c0.9-1.2,2-2.2,3.3-3c1.3-0.7,3-1.1,4.8-1.1
					c1.2,0,2.2,0.1,3,0.4c0.9,0.2,1.6,0.6,2.2,1c0.6,0.4,1.1,0.9,1.6,1.4c0.4,0.5,0.8,1,1.1,1.5l-2.3,1.3c-0.3-0.4-0.6-0.8-0.9-1.2
					c-0.3-0.4-0.7-0.7-1.2-1c-0.4-0.3-1-0.5-1.5-0.7c-0.6-0.2-1.2-0.3-2-0.3c-1.5,0-2.7,0.3-3.8,1c-1,0.7-1.8,1.5-2.5,2.6
					c-0.6,1.1-1.1,2.3-1.4,3.6c-0.3,1.3-0.4,2.6-0.4,3.9c0,1.4,0.2,2.8,0.5,4.2c0.3,1.3,0.8,2.5,1.4,3.6c0.6,1,1.5,1.9,2.5,2.5
					c1,0.6,2.2,0.9,3.6,0.9c1.6,0,2.8-0.3,3.7-0.9c0.9-0.6,1.7-1.4,2.3-2.4l2.3,0.9c-0.3,0.6-0.7,1.2-1.2,1.8
					c-0.5,0.6-1.1,1.1-1.7,1.5c-0.7,0.4-1.5,0.8-2.4,1.1C309.4,229.9,308.4,230.1,307.3,230.1z"/>
				<path fill="#FFFFFF" d="M321.7,229.6v-26.1h2.6v26.1H321.7z"/>
				<path fill="#FFFFFF" d="M347.1,229.6l-2.4-6.8h-10.1l-2.3,6.8h-2.7l9-26.1h2l9.1,26.1H347.1z M343.9,220.6l-3.5-10.4
					c-0.1-0.3-0.3-0.7-0.4-1.2c-0.2-0.5-0.3-0.9-0.3-1.1c-0.1,0.2-0.2,0.6-0.3,1.1c-0.1,0.5-0.3,0.9-0.4,1.2l-3.6,10.4H343.9z"/>
				<path fill="#FFFFFF" d="M355.1,229.6v-26.1h2.6v23.6h12.8v2.5H355.1z"/>
				<path fill="#FFFFFF" d="M402.9,229.6v-19.3l-8.7,19.8l-8.1-19.7v19.2h-2.6v-26.1h2.2l8.7,20.3l8.8-20.3h2.3v26.1H402.9z"/>
				<path fill="#FFFFFF" d="M413.3,229.6v-26.1H428v2.5h-12.2v8.9h8.2v2.5h-8.2v9.8h13v2.5H413.3z"/>
				<path fill="#FFFFFF" d="M435.3,203.5h6.9c2.2,0,4,0.4,5.5,1.1c1.5,0.8,2.7,1.8,3.6,3c0.9,1.2,1.6,2.6,2,4.2
					c0.4,1.6,0.6,3.1,0.6,4.8c0,1.5-0.2,3-0.5,4.6c-0.4,1.6-1,3-1.9,4.2c-0.9,1.3-2.1,2.3-3.7,3.1c-1.5,0.8-3.5,1.2-5.8,1.2h-6.7
					V203.5z M442.2,227.3c1.7,0,3.2-0.3,4.3-1c1.2-0.6,2.1-1.5,2.8-2.5c0.7-1,1.2-2.2,1.5-3.4c0.3-1.3,0.4-2.5,0.4-3.8
					c0-1.3-0.2-2.7-0.5-4c-0.3-1.3-0.8-2.4-1.5-3.4c-0.7-1-1.6-1.8-2.7-2.4c-1.1-0.6-2.4-0.9-3.9-0.9h-4.7v21.4H442.2z"/>
				<path fill="#FFFFFF" d="M460.4,229.6v-26.1h2.6v26.1H460.4z"/>
				<path fill="#FFFFFF" d="M485.7,229.6l-2.4-6.8h-10.1l-2.3,6.8h-2.7l9-26.1h2l9.1,26.1H485.7z M482.6,220.6l-3.5-10.4
					c-0.1-0.3-0.3-0.7-0.4-1.2c-0.2-0.5-0.3-0.9-0.3-1.1c-0.1,0.2-0.2,0.6-0.3,1.1c-0.1,0.5-0.3,0.9-0.4,1.2l-3.6,10.4H482.6z"/>
				<path fill="#FFFFFF" d="M501.5,229.6v-26.1h9.5c1.6,0,2.8,0.2,3.9,0.7c1,0.4,1.9,1,2.5,1.8c0.6,0.7,1.1,1.5,1.4,2.5
					c0.3,0.9,0.4,1.9,0.4,2.8c0,0.9-0.1,1.8-0.4,2.7c-0.3,0.9-0.8,1.7-1.4,2.5c-0.6,0.7-1.5,1.3-2.5,1.8c-1,0.5-2.3,0.7-3.8,0.7
					h-6.9v10.8H501.5z M511.2,216.5c1,0,1.9-0.2,2.6-0.5c0.7-0.3,1.3-0.7,1.7-1.2c0.4-0.5,0.7-1.1,0.9-1.7s0.3-1.3,0.3-1.9
					c0-0.6-0.1-1.2-0.2-1.8c-0.2-0.6-0.5-1.2-0.9-1.7c-0.4-0.5-1-1-1.7-1.3c-0.7-0.3-1.6-0.5-2.7-0.5h-7.1v10.6H511.2z"/>
				<path fill="#FFFFFF" d="M533.2,230.1c-2,0-3.7-0.4-5-1.2c-1.4-0.8-2.5-1.8-3.3-3.1c-0.8-1.3-1.4-2.7-1.8-4.3
					c-0.4-1.6-0.6-3.2-0.6-4.8c0-1.6,0.2-3.2,0.6-4.8c0.4-1.6,1-3.1,1.8-4.3c0.8-1.3,1.9-2.3,3.3-3.1c1.4-0.8,3.1-1.2,5-1.2
					c2,0,3.7,0.4,5,1.2c1.4,0.8,2.5,1.8,3.3,3.1c0.8,1.3,1.4,2.7,1.8,4.3c0.4,1.6,0.6,3.2,0.6,4.8c0,1.6-0.2,3.2-0.6,4.8
					c-0.4,1.6-1,3.1-1.8,4.3c-0.8,1.3-1.9,2.3-3.3,3.1C536.9,229.7,535.2,230.1,533.2,230.1z M533.2,227.7c1.5,0,2.7-0.3,3.8-1
					c1-0.7,1.8-1.5,2.5-2.6c0.6-1.1,1.1-2.3,1.4-3.6c0.3-1.3,0.4-2.6,0.4-3.9c0-1.4-0.1-2.8-0.4-4.1c-0.3-1.3-0.7-2.5-1.4-3.6
					c-0.6-1-1.5-1.9-2.5-2.5c-1-0.6-2.3-1-3.8-1c-1.5,0-2.7,0.3-3.8,1c-1,0.7-1.8,1.5-2.5,2.6c-0.6,1.1-1.1,2.3-1.4,3.6
					c-0.3,1.3-0.4,2.6-0.4,3.9c0,1.4,0.1,2.8,0.4,4.1s0.7,2.5,1.4,3.6c0.6,1,1.5,1.9,2.5,2.5C530.4,227.4,531.7,227.7,533.2,227.7z"
					/>
				<path fill="#FFFFFF" d="M562,208c-0.3-0.7-0.9-1.3-1.7-1.8c-0.8-0.5-1.9-0.8-3.2-0.8c-1.5,0-2.7,0.3-3.6,1
					c-0.9,0.7-1.3,1.6-1.3,2.7c0,0.7,0.2,1.3,0.5,1.8c0.3,0.5,0.8,1,1.3,1.4c0.6,0.4,1.2,0.8,1.9,1.1c0.7,0.3,1.5,0.6,2.2,0.9
					c0.9,0.3,1.8,0.8,2.7,1.2c0.9,0.5,1.7,1,2.4,1.7c0.7,0.7,1.3,1.5,1.7,2.4c0.4,0.9,0.7,2,0.7,3.2c0,1.2-0.2,2.2-0.6,3.1
					c-0.4,0.9-1,1.6-1.7,2.3c-0.7,0.6-1.6,1.1-2.6,1.4c-1,0.3-2.1,0.5-3.3,0.5c-1.1,0-2.1-0.1-3-0.4c-0.9-0.3-1.8-0.7-2.5-1.2
					c-0.7-0.5-1.4-1-1.9-1.7s-0.9-1.3-1.2-2l2.4-0.9c0.5,1.1,1.3,2.1,2.4,2.8c1.1,0.7,2.3,1.1,3.8,1.1c1.7,0,3-0.4,4-1.2
					c1-0.8,1.5-2,1.5-3.6c0-0.8-0.2-1.5-0.5-2.1c-0.3-0.6-0.8-1.2-1.3-1.7c-0.5-0.5-1.2-0.9-1.9-1.3c-0.7-0.4-1.4-0.7-2.2-1
					c-0.9-0.3-1.8-0.7-2.7-1.2c-0.9-0.4-1.7-1-2.4-1.6c-0.7-0.6-1.3-1.3-1.8-2.1c-0.4-0.8-0.7-1.7-0.7-2.8c0-0.8,0.2-1.6,0.5-2.3
					c0.3-0.7,0.8-1.4,1.5-1.9c0.7-0.5,1.4-1,2.4-1.3c0.9-0.3,2-0.5,3.2-0.5c1.9,0,3.5,0.4,4.8,1.2c1.3,0.8,2.1,1.8,2.4,3L562,208z"
					/>
				<path fill="#FFFFFF" d="M579.2,206v23.6h-2.6V206h-7.1v-2.5h16.8v2.5H579.2z"/>
			</g>
		</g>
		<path fill="#FFFFFF" d="M109.1,196.8c0,0-2.4,14.3,2.5,27.7c0,0,1.7,3.1-0.6,3.6h-9.2c0,0-2.1-1.1-2.6-2.1s-4.5-9.9-2.4-29.2
			c0,0,1.1-3.4,3.9-3.5c2.8-0.1,7.1,0.3,7.1,0.3S110.3,194.1,109.1,196.8z"/>
		<path fill="#FFFFFF" d="M144,184.6c0,0,1.4-4.2,2.4-6.5c0.9-2.4,3.5-9.7-0.6-14.5s-7.7-3-8.7-0.6c0,0-0.5,2.6-0.5,3.4
			c0,0.8,1.3,2.7-2.4,7c-3.7,4.3-3.2,5.3-6.6,8.2s-6.8,6.9-7.2,8.9c0,0-2.5,2.9-3.1,2.8s-3.1,0.3-4.2,4.6s-0.4,21.7,4.1,26.2
			c4.5,4.6,25.7,6.6,29.6,5.6c3.9-1,9.5-1.9,9.4-8c0,0,4.1-3.9,4.4-7.3c0.2-3.4-0.7-4-0.6-6.4c0.1-2.4,5.3-2.5,0.6-10
			c0,0-0.6-0.4-0.3-3.6s-2.8-4.9-5.1-6s-8.6-1.4-10.1-0.5C145.2,188,143.3,188.6,144,184.6z"/>
		<path fill="#FFFFFF" d="M650.3,193.8c0,0,2.4-14.3-2.5-27.7c0,0-1.7-3.1,0.6-3.6h9.2c0,0,2.1,1.1,2.6,2.1s4.5,9.9,2.4,29.2
			c0,0-1.1,3.4-3.9,3.5c-2.8,0.1-7.1-0.3-7.1-0.3S649.1,196.6,650.3,193.8z"/>
		<path fill="#FFFFFF" d="M615.4,206c0,0-1.4,4.2-2.4,6.5s-3.5,9.7,0.6,14.5c4.1,4.8,7.7,3,8.7,0.6c0,0,0.5-2.6,0.5-3.4
			c0-0.8-1.3-2.7,2.4-7c3.7-4.3,3.2-5.3,6.6-8.2c3.4-3,6.8-6.9,7.2-8.9c0,0,2.5-2.9,3.1-2.8c0.6,0.1,3.1-0.3,4.2-4.6
			c1.2-4.3,0.4-21.7-4.1-26.2c-4.5-4.6-25.7-6.6-29.6-5.6s-9.5,1.9-9.4,8c0,0-4.1,3.9-4.4,7.3c-0.2,3.4,0.7,4,0.6,6.4
			c-0.1,2.4-5.3,2.5-0.6,10c0,0,0.6,0.4,0.3,3.6c-0.4,3.2,2.8,4.9,5.1,6c2.2,1.1,8.6,1.4,10.1,0.5
			C614.2,202.7,616.1,202.1,615.4,206z"/>
	</g>
</g>
</svg>
