<?xml version="1.0" encoding="utf-8"?>
<!-- Generator: Adobe Illustrator 18.0.0, SVG Export Plug-In . SVG Version: 6.00 Build 0)  -->
<!DOCTYPE svg PUBLIC "-//W3C//DTD SVG 1.1//EN" "http://www.w3.org/Graphics/SVG/1.1/DTD/svg11.dtd">
<svg version="1.1" id="Layer_1" xmlns="http://www.w3.org/2000/svg" xmlns:xlink="http://www.w3.org/1999/xlink" x="0px" y="0px"
	 viewBox="0 0 419.6 329.3" enable-background="new 0 0 419.6 329.3" xml:space="preserve">
<g>
	<g>
		<path fill="#FFFFFF" stroke="#D2D2D2" stroke-width="0.5" stroke-miterlimit="10" d="M416.4,329.1H3.2c-1.7,0-3-1.3-3-3V3.3
			c0-1.7,1.3-3,3-3h413.2c1.7,0,3,1.3,3,3v322.8C419.4,327.7,418.1,329.1,416.4,329.1z"/>
		<g>
			<path fill="#AAB8C2" d="M31.8,171.6h-1.2v-7.8l-1.9,0v-0.9l3.1-0.3V171.6z"/>
			<path fill="#AAB8C2" d="M41.9,171.6H36v-0.8l3-3.3c0.5-0.6,0.9-1.1,1.1-1.4c0.2-0.3,0.3-0.7,0.3-1.1c0-0.5-0.1-0.8-0.4-1.1
				c-0.3-0.3-0.6-0.5-1-0.5c-0.6,0-1.1,0.2-1.4,0.5c-0.3,0.3-0.4,0.8-0.4,1.3h-1.2l0,0c0-0.8,0.2-1.4,0.8-2c0.5-0.5,1.3-0.8,2.2-0.8
				c0.8,0,1.5,0.2,1.9,0.7c0.5,0.5,0.7,1.1,0.7,1.8c0,0.5-0.1,1-0.4,1.5c-0.3,0.5-0.7,1-1.2,1.6l-2.4,2.6l0,0h4.3V171.6z"/>
			<path fill="#AAB8C2" d="M45.3,166.2h-1.2v-1.3h1.2V166.2z M45.3,171.6h-1.2v-1.3h1.2V171.6z"/>
			<path fill="#AAB8C2" d="M52.5,168.6h1.2v1h-1.2v2.1h-1.2v-2.1h-4.1v-0.7l4-6.3h1.3V168.6z M48.5,168.6h2.8v-4.2l0,0l-0.1,0.3
				L48.5,168.6z"/>
			<path fill="#AAB8C2" d="M57.1,166.5h1.1c0.5,0,0.9-0.1,1.2-0.4c0.2-0.3,0.3-0.6,0.3-1.1c0-0.5-0.1-0.9-0.4-1.2
				c-0.3-0.3-0.6-0.4-1.1-0.4c-0.5,0-0.9,0.1-1.1,0.4c-0.3,0.3-0.4,0.7-0.4,1.1h-1.2l0,0c0-0.7,0.2-1.3,0.7-1.7
				c0.5-0.5,1.2-0.7,2-0.7c0.8,0,1.5,0.2,2,0.7c0.5,0.4,0.7,1.1,0.7,1.9c0,0.4-0.1,0.7-0.3,1.1c-0.2,0.4-0.6,0.7-1,0.8
				c0.5,0.2,0.9,0.5,1.2,0.8c0.2,0.4,0.3,0.8,0.3,1.3c0,0.8-0.3,1.5-0.8,1.9c-0.5,0.5-1.2,0.7-2.1,0.7c-0.8,0-1.5-0.2-2-0.7
				c-0.5-0.4-0.8-1-0.8-1.8l0,0h1.2c0,0.5,0.1,0.9,0.4,1.1c0.3,0.3,0.7,0.4,1.2,0.4c0.5,0,0.9-0.1,1.2-0.4c0.3-0.3,0.4-0.7,0.4-1.2
				c0-0.6-0.1-1-0.4-1.2c-0.3-0.3-0.7-0.4-1.2-0.4h-1.1V166.5z"/>
			<path fill="#AAB8C2" d="M68.5,168v3.6h-1.2v-9h3.5c1,0,1.7,0.2,2.2,0.7c0.5,0.5,0.8,1.1,0.8,2c0,0.8-0.3,1.5-0.8,2
				c-0.5,0.5-1.3,0.7-2.2,0.7H68.5z M68.5,167h2.2c0.6,0,1.1-0.2,1.4-0.5c0.3-0.3,0.5-0.7,0.5-1.2s-0.2-0.9-0.5-1.3
				c-0.3-0.3-0.8-0.5-1.4-0.5h-2.2V167z"/>
			<path fill="#AAB8C2" d="M77.6,162.6l2.9,7.3h0l2.9-7.3H85v9h-1.2v-3.6l0.1-3.7l0,0l-2.9,7.3h-0.8l-2.9-7.2l0,0l0.1,3.7v3.6h-1.2
				v-9H77.6z"/>
			<path fill="#AAB8C2" d="M93.8,168.3h-3v-1h3V168.3z"/>
			<path fill="#AAB8C2" d="M105,171.6h-5.9v-0.8l3-3.3c0.5-0.6,0.9-1.1,1.1-1.4c0.2-0.3,0.3-0.7,0.3-1.1c0-0.5-0.1-0.8-0.4-1.1
				c-0.3-0.3-0.6-0.5-1-0.5c-0.6,0-1.1,0.2-1.4,0.5c-0.3,0.3-0.4,0.8-0.4,1.3H99l0,0c0-0.8,0.2-1.4,0.8-2c0.5-0.5,1.3-0.8,2.2-0.8
				c0.8,0,1.5,0.2,1.9,0.7c0.5,0.5,0.7,1.1,0.7,1.8c0,0.5-0.1,1-0.4,1.5c-0.3,0.5-0.7,1-1.2,1.6l-2.4,2.6l0,0h4.3V171.6z"/>
			<path fill="#AAB8C2" d="M112.6,168.2c0,1.2-0.3,2-0.8,2.7c-0.5,0.6-1.2,0.9-2.1,0.9s-1.6-0.3-2.1-0.9c-0.5-0.6-0.8-1.5-0.8-2.6
				V166c0-1.2,0.3-2,0.8-2.7c0.5-0.6,1.2-0.9,2.1-0.9c0.9,0,1.6,0.3,2.1,0.9c0.5,0.6,0.8,1.5,0.8,2.7V168.2z M111.4,165.8
				c0-0.8-0.1-1.4-0.4-1.8s-0.7-0.6-1.2-0.6s-0.9,0.2-1.2,0.6c-0.3,0.4-0.4,1-0.4,1.8v2.6c0,0.8,0.1,1.4,0.4,1.8
				c0.3,0.4,0.7,0.6,1.2,0.6s0.9-0.2,1.2-0.6c0.3-0.4,0.4-1,0.4-1.8V165.8z"/>
			<path fill="#AAB8C2" d="M120.4,162.6l2.9,7.3h0l2.9-7.3h1.6v9h-1.2v-3.6l0.1-3.7l0,0l-2.9,7.3h-0.8l-2.9-7.2l0,0l0.1,3.7v3.6
				h-1.2v-9H120.4z"/>
			<path fill="#AAB8C2" d="M134.5,171.6c0-0.2-0.1-0.4-0.1-0.5c0-0.2,0-0.3,0-0.5c-0.2,0.3-0.5,0.6-0.9,0.8
				c-0.4,0.2-0.8,0.3-1.2,0.3c-0.7,0-1.2-0.2-1.6-0.5c-0.4-0.4-0.5-0.9-0.5-1.5c0-0.6,0.3-1.1,0.8-1.5s1.2-0.5,2.1-0.5h1.3V167
				c0-0.4-0.1-0.7-0.4-0.9c-0.2-0.2-0.6-0.3-1-0.3c-0.4,0-0.7,0.1-1,0.3c-0.2,0.2-0.4,0.4-0.4,0.7h-1.2l0,0c0-0.5,0.2-0.9,0.7-1.3
				c0.5-0.4,1.1-0.6,1.9-0.6c0.8,0,1.4,0.2,1.8,0.6c0.5,0.4,0.7,0.9,0.7,1.7v3.2c0,0.2,0,0.5,0,0.7c0,0.2,0.1,0.4,0.1,0.7H134.5z
				 M132.4,170.7c0.4,0,0.8-0.1,1.2-0.3c0.4-0.2,0.6-0.5,0.7-0.8v-1.1H133c-0.5,0-0.9,0.1-1.2,0.4c-0.3,0.2-0.4,0.5-0.4,0.9
				c0,0.3,0.1,0.5,0.3,0.7C131.8,170.6,132.1,170.7,132.4,170.7z"/>
			<path fill="#AAB8C2" d="M141.1,166l-0.6,0c-0.3,0-0.6,0.1-0.8,0.2c-0.2,0.2-0.4,0.4-0.5,0.6v4.8h-1.2v-6.7h1.1l0.1,1
				c0.2-0.3,0.4-0.6,0.7-0.8c0.3-0.2,0.6-0.3,1-0.3c0.1,0,0.2,0,0.3,0c0.1,0,0.2,0,0.2,0L141.1,166z"/>
			<path fill="#AAB8C2" d="M152.4,171.6h-5.9v-0.8l3-3.3c0.5-0.6,0.9-1.1,1.1-1.4c0.2-0.3,0.3-0.7,0.3-1.1c0-0.5-0.1-0.8-0.4-1.1
				c-0.3-0.3-0.6-0.5-1-0.5c-0.6,0-1.1,0.2-1.4,0.5s-0.4,0.8-0.4,1.3h-1.2l0,0c0-0.8,0.2-1.4,0.8-2c0.5-0.5,1.3-0.8,2.2-0.8
				c0.8,0,1.5,0.2,1.9,0.7c0.5,0.5,0.7,1.1,0.7,1.8c0,0.5-0.1,1-0.4,1.5c-0.3,0.5-0.7,1-1.2,1.6l-2.4,2.6l0,0h4.3V171.6z"/>
			<path fill="#AAB8C2" d="M160,168.2c0,1.2-0.3,2-0.8,2.7c-0.5,0.6-1.2,0.9-2.1,0.9s-1.6-0.3-2.1-0.9c-0.5-0.6-0.8-1.5-0.8-2.6V166
				c0-1.2,0.3-2,0.8-2.7c0.5-0.6,1.2-0.9,2.1-0.9c0.9,0,1.6,0.3,2.1,0.9c0.5,0.6,0.8,1.5,0.8,2.7V168.2z M158.8,165.8
				c0-0.8-0.1-1.4-0.4-1.8s-0.7-0.6-1.2-0.6c-0.5,0-0.9,0.2-1.2,0.6s-0.4,1-0.4,1.8v2.6c0,0.8,0.1,1.4,0.4,1.8
				c0.3,0.4,0.7,0.6,1.2,0.6c0.5,0,0.9-0.2,1.2-0.6c0.3-0.4,0.4-1,0.4-1.8V165.8z"/>
			<path fill="#AAB8C2" d="M165.6,171.6h-1.2v-7.8l-1.9,0v-0.9l3.1-0.3V171.6z"/>
			<path fill="#AAB8C2" d="M175.7,163.6c-1.1,1.3-1.8,2.4-2.2,3.5c-0.4,1-0.7,2.2-0.8,3.6l-0.1,1h-1.2l0.1-1c0.2-1.4,0.5-2.7,1-3.8
				c0.5-1.1,1.2-2.2,2.1-3.3h-4.9v-1h6.1V163.6z"/>
		</g>
		<path fill="#23A9E1" d="M75.6,79.4H28.8c-2.2,0-4-1.8-4-4V29.1c0-2.2,1.8-4,4-4h46.7c2.2,0,4,1.8,4,4v46.3
			C79.6,77.6,77.8,79.4,75.6,79.4z"/>
		<path fill="#23A9E1" d="M388.3,278.8H31.2c-3.3,0-6-2.7-6-6v-77.3c0-3.3,2.7-6,6-6h357.1c3.3,0,6,2.7,6,6v77.3
			C394.3,276.1,391.6,278.8,388.3,278.8z"/>
		<g>
			<path fill="#FFFFFF" d="M161.5,204h3.7c0.6,0,1.2,0.1,1.7,0.2c0.5,0.1,1,0.3,1.3,0.6c0.4,0.3,0.7,0.6,1,0.9
				c0.3,0.3,0.5,0.7,0.7,1.1c0.2,0.4,0.3,0.8,0.4,1.3c0.1,0.4,0.1,0.9,0.1,1.3c0,0.4,0,0.8-0.1,1.3c-0.1,0.4-0.2,0.9-0.4,1.3
				c-0.2,0.4-0.4,0.8-0.7,1.1c-0.3,0.4-0.6,0.7-1,0.9c-0.4,0.3-0.9,0.5-1.4,0.6c-0.5,0.2-1.1,0.2-1.8,0.2h-3.6V204z M165.4,212.9
				c0.5,0,1-0.1,1.4-0.3c0.4-0.2,0.7-0.5,0.9-0.8c0.2-0.3,0.4-0.7,0.5-1.1c0.1-0.4,0.2-0.8,0.2-1.2c0-0.4-0.1-0.8-0.2-1.3
				c-0.1-0.4-0.3-0.8-0.5-1.1c-0.2-0.3-0.5-0.6-0.9-0.8c-0.3-0.2-0.8-0.3-1.2-0.3h-1.9v6.9H165.4z"/>
			<path fill="#FFFFFF" d="M179.4,214.9l-0.8-2.3h-4.2l-0.8,2.3h-2.3l4.2-10.9h2.1l4.2,10.9H179.4z M176.8,207.9
				c-0.1-0.1-0.1-0.3-0.2-0.5c-0.1-0.2-0.1-0.4-0.2-0.5c0,0.2-0.1,0.3-0.2,0.5c-0.1,0.2-0.1,0.3-0.2,0.5l-1.1,2.8h2.8L176.8,207.9z"
				/>
			<path fill="#FFFFFF" d="M190.5,214.9l-4.3-6.3c-0.1-0.1-0.1-0.2-0.2-0.4c-0.1-0.2-0.2-0.3-0.2-0.4c0,0.1,0,0.3,0,0.4
				c0,0.2,0,0.3,0,0.4v6.3h-2.1V204h2l4.2,6.3c0.1,0.1,0.1,0.2,0.2,0.4c0.1,0.2,0.2,0.3,0.2,0.4c0-0.1,0-0.3,0-0.4
				c0-0.1,0-0.3,0-0.4V204h2.1v10.9H190.5z"/>
			<path fill="#FFFFFF" d="M199.6,215.1c-0.6,0-1.1-0.1-1.5-0.2c-0.5-0.1-0.9-0.3-1.2-0.6c-0.4-0.3-0.7-0.6-0.9-0.9
				c-0.3-0.4-0.5-0.7-0.6-1.2c-0.2-0.4-0.3-0.9-0.4-1.3c-0.1-0.5-0.1-0.9-0.1-1.4c0-0.4,0-0.9,0.1-1.3c0.1-0.5,0.2-0.9,0.4-1.3
				c0.2-0.4,0.4-0.8,0.7-1.2c0.3-0.4,0.6-0.7,0.9-0.9c0.4-0.3,0.8-0.5,1.2-0.6c0.4-0.2,0.9-0.2,1.5-0.2c0.5,0,1,0.1,1.4,0.2
				c0.4,0.1,0.8,0.3,1.1,0.5c0.3,0.2,0.6,0.5,0.8,0.7c0.2,0.3,0.4,0.6,0.6,0.9l-1.9,1.1c-0.1-0.2-0.3-0.4-0.4-0.5
				c-0.1-0.2-0.3-0.3-0.5-0.4c-0.2-0.1-0.3-0.2-0.5-0.3c-0.2-0.1-0.4-0.1-0.7-0.1c-0.3,0-0.6,0.1-0.9,0.2c-0.3,0.1-0.5,0.2-0.7,0.4
				c-0.2,0.2-0.4,0.4-0.5,0.6c-0.1,0.2-0.2,0.5-0.3,0.8c-0.1,0.3-0.1,0.5-0.2,0.8c0,0.3-0.1,0.6-0.1,0.8c0,0.5,0,0.9,0.1,1.3
				c0.1,0.4,0.2,0.8,0.5,1.2c0.2,0.3,0.5,0.6,0.8,0.8c0.3,0.2,0.7,0.3,1.2,0.3c0.3,0,0.5,0,0.7-0.1c0.2-0.1,0.4-0.2,0.6-0.4
				c0.2-0.2,0.3-0.3,0.4-0.6c0.1-0.2,0.1-0.5,0.1-0.7v-0.1h-1.9v-2h4v1.6c0,0.7-0.1,1.3-0.3,1.8c-0.2,0.5-0.5,1-0.9,1.3
				c-0.4,0.4-0.8,0.6-1.3,0.8C200.7,215,200.1,215.1,199.6,215.1z"/>
			<path fill="#FFFFFF" d="M205.9,214.9V204h7.4v2H208v2.3h3.1v2H208v2.6h5.7v2H205.9z"/>
			<path fill="#FFFFFF" d="M216,214.9V204h5.1c0.7,0,1.3,0.1,1.7,0.3c0.5,0.2,0.8,0.4,1.1,0.8c0.3,0.3,0.5,0.7,0.6,1.1
				c0.1,0.4,0.2,0.8,0.2,1.3c0,0.3,0,0.6-0.1,0.9c-0.1,0.3-0.2,0.6-0.4,0.9c-0.2,0.3-0.4,0.5-0.7,0.8c-0.3,0.2-0.6,0.4-0.9,0.5
				l2.1,4.3h-2.4l-2-4.1h-2.2v4.1H216z M221.1,208.8c0.3,0,0.5,0,0.7-0.1c0.2-0.1,0.3-0.2,0.4-0.3c0.1-0.1,0.2-0.3,0.2-0.5
				c0-0.2,0.1-0.4,0.1-0.5c0-0.2,0-0.3-0.1-0.5c0-0.2-0.1-0.3-0.2-0.5c-0.1-0.1-0.3-0.2-0.4-0.3c-0.2-0.1-0.4-0.1-0.7-0.1h-3v2.8
				H221.1z"/>
			<path fill="#FFFFFF" d="M231.5,215.1c-0.6,0-1.1-0.1-1.6-0.2c-0.5-0.2-0.9-0.4-1.2-0.6c-0.4-0.3-0.7-0.6-0.9-0.9
				c-0.3-0.4-0.5-0.8-0.6-1.2c-0.2-0.4-0.3-0.9-0.3-1.3c-0.1-0.5-0.1-0.9-0.1-1.4c0-0.4,0-0.9,0.1-1.3c0.1-0.5,0.2-0.9,0.3-1.3
				c0.2-0.4,0.4-0.8,0.6-1.2c0.3-0.4,0.6-0.7,0.9-0.9c0.4-0.3,0.8-0.5,1.2-0.6c0.5-0.2,1-0.2,1.6-0.2c0.6,0,1.1,0.1,1.6,0.2
				c0.5,0.2,0.9,0.4,1.2,0.6c0.4,0.3,0.7,0.6,0.9,0.9c0.3,0.4,0.5,0.8,0.6,1.2c0.2,0.4,0.3,0.9,0.3,1.3c0.1,0.5,0.1,0.9,0.1,1.3
				c0,0.5,0,0.9-0.1,1.4c-0.1,0.5-0.2,0.9-0.3,1.3c-0.2,0.4-0.4,0.8-0.6,1.2c-0.3,0.4-0.6,0.7-0.9,0.9c-0.4,0.3-0.8,0.5-1.2,0.6
				C232.6,215,232.1,215.1,231.5,215.1z M231.5,213c0.5,0,0.9-0.1,1.2-0.3c0.3-0.2,0.6-0.5,0.8-0.9c0.2-0.4,0.4-0.7,0.4-1.2
				c0.1-0.4,0.1-0.8,0.1-1.2c0-0.3,0-0.6-0.1-0.8c0-0.3-0.1-0.6-0.2-0.8c-0.1-0.3-0.2-0.5-0.3-0.8c-0.1-0.2-0.3-0.4-0.5-0.6
				c-0.2-0.2-0.4-0.3-0.7-0.4c-0.3-0.1-0.5-0.2-0.9-0.2c-0.3,0-0.6,0.1-0.9,0.2c-0.3,0.1-0.5,0.2-0.7,0.4c-0.2,0.2-0.4,0.4-0.5,0.6
				c-0.1,0.2-0.2,0.5-0.3,0.8c-0.1,0.3-0.1,0.5-0.2,0.8c0,0.3-0.1,0.5-0.1,0.8c0,0.4,0,0.8,0.1,1.3c0.1,0.4,0.2,0.8,0.4,1.2
				c0.2,0.3,0.5,0.6,0.8,0.8C230.6,212.9,231,213,231.5,213z"/>
			<path fill="#FFFFFF" d="M243,215.1c-0.4,0-0.7,0-1.1-0.1c-0.4-0.1-0.7-0.2-1-0.3c-0.3-0.1-0.6-0.3-0.9-0.6
				c-0.3-0.2-0.5-0.5-0.7-0.8c-0.2-0.3-0.4-0.7-0.5-1.1c-0.1-0.4-0.2-0.9-0.2-1.5V204h2.1v6.7c0,0.5,0.1,0.8,0.2,1.1
				c0.1,0.3,0.3,0.5,0.5,0.7s0.4,0.3,0.7,0.4c0.3,0.1,0.6,0.1,1,0.1c0.3,0,0.7,0,0.9-0.1s0.5-0.2,0.7-0.4c0.2-0.2,0.4-0.4,0.5-0.7
				c0.1-0.3,0.2-0.7,0.2-1.1V204h2.1v6.7c0,0.8-0.1,1.5-0.4,2c-0.2,0.6-0.6,1-1,1.3c-0.4,0.3-0.9,0.6-1.4,0.7
				C244.1,215,243.6,215.1,243,215.1z"/>
			<path fill="#FFFFFF" d="M255.3,206.9c-0.1-0.2-0.2-0.3-0.3-0.5c-0.1-0.1-0.2-0.3-0.4-0.4c-0.2-0.1-0.3-0.2-0.5-0.2
				c-0.2-0.1-0.4-0.1-0.7-0.1c-0.5,0-0.8,0.1-1.1,0.3c-0.3,0.2-0.4,0.4-0.4,0.8c0,0.2,0.1,0.4,0.2,0.5c0.2,0.1,0.4,0.3,0.6,0.4
				c0.3,0.1,0.6,0.2,0.9,0.3c0.3,0.1,0.7,0.2,1,0.4c0.4,0.1,0.7,0.3,1,0.5c0.3,0.2,0.6,0.4,0.9,0.6c0.3,0.3,0.5,0.6,0.6,0.9
				c0.2,0.4,0.2,0.8,0.2,1.3c0,0.5-0.1,1-0.3,1.4c-0.2,0.4-0.5,0.8-0.8,1c-0.4,0.3-0.8,0.5-1.2,0.6c-0.5,0.1-1,0.2-1.6,0.2
				c-0.5,0-1-0.1-1.4-0.2c-0.4-0.1-0.8-0.3-1.2-0.6s-0.7-0.6-0.9-0.9c-0.3-0.4-0.5-0.8-0.6-1.2l1.9-0.7c0.1,0.3,0.3,0.5,0.4,0.7
				c0.2,0.2,0.3,0.4,0.6,0.5c0.2,0.1,0.4,0.3,0.7,0.3c0.2,0.1,0.5,0.1,0.8,0.1c0.3,0,0.5,0,0.7-0.1c0.2-0.1,0.4-0.1,0.6-0.3
				c0.2-0.1,0.3-0.2,0.4-0.4c0.1-0.2,0.1-0.4,0.1-0.6c0-0.3-0.1-0.5-0.2-0.7c-0.2-0.2-0.4-0.3-0.6-0.5c-0.3-0.1-0.6-0.3-0.9-0.4
				c-0.3-0.1-0.7-0.2-1-0.3c-0.4-0.1-0.7-0.3-1-0.4c-0.3-0.2-0.6-0.4-0.9-0.6c-0.3-0.2-0.5-0.5-0.6-0.9c-0.2-0.3-0.2-0.7-0.2-1.2
				c0-0.4,0.1-0.8,0.2-1.2c0.2-0.4,0.4-0.7,0.7-1c0.3-0.3,0.7-0.5,1.2-0.6c0.5-0.2,1-0.2,1.6-0.2c0.5,0,0.9,0.1,1.3,0.2
				c0.4,0.1,0.7,0.3,1.1,0.5c0.3,0.2,0.6,0.5,0.8,0.8c0.2,0.3,0.4,0.6,0.5,1L255.3,206.9z"/>
			<path fill="#FFFFFF" d="M161.6,244v-26.4h11.3c1.7,0,3.1,0.2,4.2,0.7c1.1,0.5,2.1,1.1,2.8,1.9c0.7,0.8,1.2,1.7,1.5,2.7
				s0.5,2,0.5,3c0,0.6-0.1,1.3-0.2,1.9c-0.1,0.7-0.4,1.3-0.7,1.9c-0.3,0.6-0.7,1.2-1.2,1.7c-0.5,0.5-1.1,1-1.7,1.4
				c-0.7,0.4-1.4,0.7-2.3,1c-0.9,0.2-1.8,0.4-2.9,0.4h-6.2v9.7H161.6z M173.2,229.4c0.7,0,1.2-0.1,1.6-0.3c0.4-0.2,0.8-0.5,1.1-0.8
				c0.3-0.3,0.5-0.7,0.6-1.1c0.1-0.4,0.2-0.8,0.2-1.3c0-0.4-0.1-0.8-0.2-1.2c-0.1-0.4-0.3-0.8-0.6-1.1c-0.3-0.3-0.6-0.6-1.1-0.8
				c-0.5-0.2-1-0.3-1.7-0.3h-6.5v7H173.2z"/>
			<path fill="#FFFFFF" d="M197.6,244.5c-1.4,0-2.7-0.2-3.8-0.6c-1.1-0.4-2.1-0.9-3-1.5c-0.9-0.6-1.6-1.4-2.2-2.3
				c-0.6-0.9-1.1-1.8-1.5-2.8c-0.4-1-0.7-2.1-0.8-3.2c-0.2-1.1-0.3-2.2-0.3-3.3c0-1.1,0.1-2.2,0.3-3.3c0.2-1.1,0.5-2.2,0.8-3.2
				c0.4-1,0.9-2,1.5-2.8c0.6-0.9,1.4-1.6,2.2-2.3c0.9-0.6,1.9-1.2,3-1.5c1.1-0.4,2.4-0.6,3.8-0.6c1.4,0,2.7,0.2,3.8,0.6
				c1.1,0.4,2.1,0.9,3,1.5c0.9,0.6,1.6,1.4,2.2,2.3c0.6,0.9,1.1,1.8,1.5,2.8c0.4,1,0.7,2.1,0.8,3.2c0.2,1.1,0.3,2.2,0.3,3.3
				c0,1.1-0.1,2.2-0.3,3.3c-0.2,1.1-0.5,2.2-0.8,3.2c-0.4,1-0.9,2-1.5,2.8c-0.6,0.9-1.4,1.6-2.2,2.3c-0.9,0.6-1.9,1.2-3,1.5
				C200.3,244.3,199,244.5,197.6,244.5z M197.6,239.6c1.2,0,2.2-0.3,3-0.8c0.8-0.6,1.5-1.3,2-2.1c0.5-0.9,0.9-1.8,1.1-2.8
				c0.2-1,0.3-2,0.3-3c0-0.7,0-1.4-0.1-2.1c-0.1-0.7-0.2-1.4-0.5-2c-0.2-0.6-0.5-1.3-0.8-1.8c-0.3-0.6-0.7-1.1-1.2-1.5
				c-0.5-0.4-1-0.8-1.6-1c-0.6-0.2-1.3-0.4-2.1-0.4c-0.8,0-1.5,0.1-2.1,0.4c-0.6,0.3-1.2,0.6-1.6,1c-0.5,0.4-0.9,0.9-1.2,1.5
				c-0.3,0.6-0.6,1.2-0.8,1.8c-0.2,0.7-0.4,1.3-0.5,2s-0.1,1.3-0.1,2c0,1,0.1,2,0.3,3.1c0.2,1,0.6,2,1.1,2.8c0.5,0.8,1.2,1.5,2,2.1
				C195.4,239.3,196.4,239.6,197.6,239.6z"/>
			<path fill="#FFFFFF" d="M227.8,224.8c-0.2-0.4-0.4-0.8-0.6-1.1c-0.3-0.3-0.6-0.6-1-0.9c-0.4-0.3-0.8-0.4-1.3-0.6
				c-0.5-0.1-1-0.2-1.6-0.2c-1.1,0-2,0.2-2.6,0.7c-0.6,0.4-0.9,1.1-0.9,1.9c0,0.5,0.2,1,0.6,1.3c0.4,0.4,0.9,0.7,1.5,1
				c0.6,0.3,1.4,0.6,2.2,0.8c0.8,0.3,1.7,0.5,2.5,0.9c0.9,0.3,1.7,0.7,2.5,1.1c0.8,0.4,1.5,0.9,2.2,1.6c0.6,0.6,1.2,1.4,1.5,2.2
				c0.4,0.9,0.6,1.9,0.6,3.1c0,1.3-0.2,2.4-0.7,3.4c-0.5,1-1.2,1.8-2,2.5c-0.9,0.7-1.9,1.2-3,1.6c-1.2,0.4-2.4,0.5-3.8,0.5
				c-1.2,0-2.4-0.2-3.5-0.5c-1.1-0.3-2.1-0.8-2.9-1.4c-0.9-0.6-1.6-1.4-2.3-2.3c-0.7-0.9-1.2-1.9-1.5-3l4.7-1.7
				c0.3,0.6,0.6,1.2,1,1.7c0.4,0.5,0.8,0.9,1.3,1.3c0.5,0.4,1,0.6,1.6,0.8c0.6,0.2,1.2,0.3,1.8,0.3c0.6,0,1.2-0.1,1.7-0.2
				c0.5-0.1,1-0.3,1.3-0.6c0.4-0.3,0.7-0.6,0.9-1c0.2-0.4,0.3-0.9,0.3-1.4c0-0.6-0.2-1.2-0.6-1.6c-0.4-0.4-0.9-0.8-1.6-1.1
				c-0.6-0.3-1.4-0.6-2.2-0.9c-0.8-0.3-1.7-0.5-2.5-0.8c-0.9-0.3-1.7-0.6-2.5-1c-0.8-0.4-1.5-0.9-2.2-1.5c-0.6-0.6-1.2-1.3-1.5-2.1
				c-0.4-0.8-0.6-1.8-0.6-2.9c0-1,0.2-1.9,0.6-2.8c0.4-0.9,1-1.6,1.7-2.3c0.8-0.7,1.7-1.2,2.8-1.6c1.1-0.4,2.4-0.6,3.8-0.6
				c1.2,0,2.3,0.2,3.2,0.5c1,0.3,1.8,0.7,2.6,1.3c0.7,0.5,1.4,1.2,1.9,1.9c0.5,0.7,0.9,1.6,1.1,2.4L227.8,224.8z"/>
			<path fill="#FFFFFF" d="M250,222.5V244H245v-21.5h-7.6v-4.9h20.2v4.9H250z"/>
			<path fill="#FFFFFF" d="M215.7,256.8c0,0,0.7-4.3-0.7-8.4c0,0-0.5-0.9,0.2-1.1h2.8c0,0,0.6,0.3,0.8,0.6s1.4,3,0.7,8.8
				c0,0-0.3,1-1.2,1.1c-0.9,0-2.1-0.1-2.1-0.1S215.4,257.6,215.7,256.8z"/>
			<path fill="#FFFFFF" d="M205.2,260.5c0,0-0.4,1.3-0.7,2c-0.3,0.7-1.1,2.9,0.2,4.4c1.2,1.4,2.3,0.9,2.6,0.2c0,0,0.1-0.8,0.1-1
				s-0.4-0.8,0.7-2.1c1.1-1.3,1-1.6,2-2.5c1-0.9,2.1-2.1,2.2-2.7c0,0,0.7-0.9,0.9-0.8c0.2,0,0.9-0.1,1.3-1.4
				c0.4-1.3,0.1-6.5-1.2-7.9c-1.4-1.4-7.8-2-8.9-1.7c-1.2,0.3-2.9,0.6-2.8,2.4c0,0-1.2,1.2-1.3,2.2c-0.1,1,0.2,1.2,0.2,1.9
				s-1.6,0.8-0.2,3c0,0,0.2,0.1,0.1,1.1c-0.1,1,0.9,1.5,1.5,1.8c0.7,0.3,2.6,0.4,3.1,0.2C204.8,259.5,205.4,259.3,205.2,260.5z"/>
			<g>
				<polygon fill="#FFFFFF" points="201.5,253.1 150.6,253.1 150.6,208.1 158.9,208.1 158.9,208.9 151.4,208.9 151.4,252.2 
					201.5,252.2 				"/>
			</g>
			<g>
				<polygon fill="#FFFFFF" points="268.9,253.1 218.4,253.1 218.4,252.2 268.1,252.2 268.1,208.9 260.6,208.9 260.6,208.1 
					268.9,208.1 				"/>
			</g>
		</g>
		<g>
			<path d="M93.4,48.9V33.3H99c1.8,0,3.4,0.6,4.6,1.8c1.2,1.2,1.9,2.7,1.9,4.6v2.8c0,1.9-0.6,3.4-1.9,4.6c-1.2,1.2-2.8,1.8-4.6,1.8
				H93.4z M97,36.1v10h1.8c1,0,1.7-0.3,2.3-1s0.8-1.5,0.8-2.6v-2.8c0-1.1-0.3-1.9-0.8-2.6c-0.5-0.7-1.3-1-2.3-1H97z"/>
			<path d="M114.2,48.9c-0.1-0.2-0.2-0.4-0.3-0.6c-0.1-0.2-0.2-0.5-0.2-0.7c-0.3,0.5-0.8,0.9-1.2,1.1c-0.5,0.3-1.1,0.4-1.8,0.4
				c-1.1,0-2-0.3-2.7-1c-0.7-0.6-1-1.5-1-2.5c0-1.1,0.4-2,1.3-2.7c0.9-0.6,2.2-0.9,3.9-0.9h1.3v-0.8c0-0.5-0.1-0.9-0.3-1.1
				c-0.2-0.3-0.6-0.4-1.1-0.4c-0.4,0-0.7,0.1-0.9,0.3c-0.2,0.2-0.3,0.5-0.3,0.9l-3.5,0l0-0.1c0-1.1,0.4-1.9,1.3-2.7
				c0.9-0.7,2.2-1.1,3.7-1.1c1.4,0,2.6,0.4,3.5,1.1c0.9,0.7,1.3,1.7,1.3,3.1v4.4c0,0.6,0.1,1.2,0.2,1.7c0.1,0.5,0.3,1.1,0.5,1.6
				L114.2,48.9z M111.8,46.6c0.4,0,0.7-0.1,1-0.2c0.3-0.1,0.5-0.3,0.7-0.6V44h-1.3c-0.6,0-1,0.1-1.2,0.4c-0.3,0.3-0.4,0.6-0.4,1.1
				c0,0.3,0.1,0.6,0.3,0.8C111.2,46.5,111.5,46.6,111.8,46.6z"/>
			<path d="M122.6,37.4l0.1,1.6c0.4-0.6,0.8-1,1.4-1.4c0.6-0.3,1.2-0.5,1.9-0.5c1.1,0,2,0.4,2.7,1.1c0.6,0.7,1,1.9,1,3.5v7.2H126
				v-7.2c0-0.7-0.1-1.1-0.4-1.4c-0.3-0.3-0.7-0.4-1.2-0.4c-0.3,0-0.6,0.1-0.9,0.2c-0.3,0.1-0.5,0.3-0.7,0.5v8.3h-3.6V37.4H122.6z"/>
			<path d="M131.1,43.2c0-1.8,0.4-3.3,1.2-4.4c0.8-1.1,1.9-1.7,3.3-1.7c0.6,0,1.2,0.1,1.6,0.4c0.5,0.3,0.9,0.7,1.2,1.2l0.2-1.5h3.2
				v11.1c0,1.5-0.5,2.8-1.6,3.7c-1.1,0.9-2.5,1.4-4.3,1.4c-0.6,0-1.2-0.1-1.9-0.2c-0.7-0.2-1.3-0.4-1.9-0.7l0.6-2.7
				c0.5,0.2,1,0.4,1.5,0.5c0.5,0.1,1,0.2,1.6,0.2c0.7,0,1.3-0.2,1.7-0.6c0.4-0.4,0.6-0.9,0.6-1.6v-0.6c-0.3,0.4-0.7,0.7-1.1,1
				c-0.4,0.2-0.9,0.3-1.5,0.3c-1.4,0-2.5-0.5-3.3-1.6c-0.8-1.1-1.2-2.5-1.2-4.2V43.2z M134.7,43.4c0,0.9,0.1,1.7,0.4,2.2
				c0.3,0.5,0.7,0.8,1.4,0.8c0.4,0,0.7-0.1,1-0.2c0.3-0.1,0.5-0.3,0.7-0.6v-4.9c-0.2-0.3-0.4-0.5-0.7-0.6c-0.3-0.1-0.6-0.2-1-0.2
				c-0.6,0-1.1,0.3-1.4,0.9c-0.3,0.6-0.4,1.4-0.4,2.4V43.4z"/>
			<path d="M149.2,49.2c-1.7,0-3.1-0.5-4.1-1.6c-1-1.1-1.5-2.4-1.5-4v-0.4c0-1.8,0.5-3.2,1.4-4.3s2.3-1.7,4-1.7
				c1.6,0,2.8,0.5,3.7,1.4c0.9,0.9,1.3,2.2,1.3,3.8v1.9h-6.6l0,0.1c0.1,0.6,0.3,1.1,0.7,1.5c0.4,0.4,1,0.6,1.6,0.6
				c0.7,0,1.2-0.1,1.6-0.2c0.4-0.1,0.9-0.3,1.6-0.6l0.9,2.2c-0.5,0.4-1.2,0.7-2,0.9C151,49,150.2,49.2,149.2,49.2z M149,39.9
				c-0.5,0-0.9,0.2-1.2,0.6c-0.3,0.4-0.4,0.9-0.5,1.5l0,0.1h3.1v-0.3c0-0.6-0.1-1-0.4-1.3C149.9,40.1,149.5,39.9,149,39.9z"/>
			<path d="M162.1,40.5l-1.3,0c-0.4,0-0.8,0.1-1,0.2c-0.3,0.1-0.5,0.3-0.6,0.6v7.6h-3.6V37.4h3.4l0.1,1.7c0.2-0.6,0.6-1.1,1-1.4
				c0.4-0.3,0.9-0.5,1.4-0.5c0.2,0,0.3,0,0.5,0c0.2,0,0.3,0.1,0.5,0.1L162.1,40.5z"/>
			<path d="M163,43c0-1.7,0.5-3.2,1.5-4.3s2.4-1.6,4.1-1.6c1.8,0,3.2,0.5,4.1,1.6c1,1.1,1.5,2.5,1.5,4.3v0.2c0,1.7-0.5,3.2-1.5,4.3
				c-1,1.1-2.4,1.6-4.1,1.6c-1.8,0-3.2-0.5-4.1-1.6S163,45,163,43.3V43z M166.6,43.3c0,1,0.2,1.7,0.5,2.3c0.3,0.6,0.8,0.8,1.5,0.8
				c0.7,0,1.2-0.3,1.5-0.8c0.3-0.6,0.5-1.3,0.5-2.3V43c0-0.9-0.2-1.7-0.5-2.3c-0.3-0.6-0.8-0.9-1.5-0.9c-0.7,0-1.2,0.3-1.5,0.9
				c-0.3,0.6-0.5,1.3-0.5,2.3V43.3z"/>
			<path d="M182.8,47.6c-0.4,0.5-0.8,0.9-1.4,1.2c-0.5,0.3-1.1,0.4-1.8,0.4c-1.2,0-2.1-0.4-2.8-1.2c-0.7-0.8-1-2-1-3.6v-7.1h3.6v7.1
				c0,0.6,0.1,1.1,0.4,1.5c0.2,0.3,0.6,0.5,1.1,0.5c0.4,0,0.7-0.1,1-0.2c0.3-0.1,0.5-0.3,0.7-0.5v-8.4h3.6v11.6h-3.2L182.8,47.6z"/>
			<path d="M194.3,45.7c0-0.3-0.2-0.5-0.5-0.8c-0.3-0.2-0.9-0.4-1.8-0.6c-1.4-0.3-2.4-0.7-3.1-1.2c-0.7-0.6-1-1.3-1-2.3
				c0-1,0.4-1.9,1.3-2.6c0.9-0.7,2-1.1,3.5-1.1c1.5,0,2.8,0.3,3.7,1c0.9,0.7,1.4,1.6,1.3,2.7l0,0.1h-3.5c0-0.5-0.1-0.8-0.3-1
				c-0.2-0.2-0.6-0.4-1.1-0.4c-0.4,0-0.7,0.1-1,0.3c-0.3,0.2-0.4,0.5-0.4,0.8c0,0.3,0.1,0.6,0.4,0.8c0.3,0.2,0.9,0.4,1.8,0.6
				c1.4,0.3,2.5,0.7,3.1,1.2c0.7,0.6,1,1.3,1,2.4c0,1-0.5,1.9-1.4,2.6c-0.9,0.7-2.2,1-3.7,1c-1.6,0-2.8-0.4-3.7-1.2
				c-0.9-0.8-1.4-1.7-1.3-2.7l0-0.1h3.3c0,0.6,0.2,0.9,0.5,1.2s0.8,0.4,1.4,0.4c0.5,0,0.9-0.1,1.1-0.3
				C194.2,46.3,194.3,46,194.3,45.7z"/>
			<path d="M203.3,43.6v5.3h-3.6V33.3h6.3c1.9,0,3.3,0.5,4.4,1.4c1.1,0.9,1.6,2.2,1.6,3.7c0,1.5-0.5,2.8-1.6,3.7s-2.6,1.4-4.4,1.4
				H203.3z M203.3,40.8h2.7c0.8,0,1.4-0.2,1.8-0.6c0.4-0.4,0.6-1,0.6-1.7c0-0.7-0.2-1.3-0.6-1.7c-0.4-0.4-1-0.7-1.8-0.7h-2.7V40.8z"
				/>
			<path d="M213.3,43c0-1.7,0.5-3.2,1.5-4.3s2.4-1.6,4.1-1.6c1.8,0,3.2,0.5,4.1,1.6s1.5,2.5,1.5,4.3v0.2c0,1.7-0.5,3.2-1.5,4.3
				s-2.4,1.6-4.1,1.6c-1.8,0-3.2-0.5-4.1-1.6s-1.5-2.5-1.5-4.3V43z M216.9,43.3c0,1,0.2,1.7,0.5,2.3c0.3,0.6,0.8,0.8,1.5,0.8
				c0.7,0,1.2-0.3,1.5-0.8c0.3-0.6,0.5-1.3,0.5-2.3V43c0-0.9-0.2-1.7-0.5-2.3c-0.3-0.6-0.8-0.9-1.5-0.9c-0.7,0-1.2,0.3-1.5,0.9
				c-0.3,0.6-0.5,1.3-0.5,2.3V43.3z"/>
			<path d="M232.2,45.7c0-0.3-0.2-0.5-0.5-0.8c-0.3-0.2-0.9-0.4-1.8-0.6c-1.4-0.3-2.4-0.7-3.1-1.2c-0.7-0.6-1-1.3-1-2.3
				c0-1,0.4-1.9,1.3-2.6c0.9-0.7,2-1.1,3.5-1.1c1.5,0,2.8,0.3,3.7,1c0.9,0.7,1.4,1.6,1.3,2.7l0,0.1h-3.5c0-0.5-0.1-0.8-0.3-1
				c-0.2-0.2-0.6-0.4-1.1-0.4c-0.4,0-0.7,0.1-1,0.3c-0.3,0.2-0.4,0.5-0.4,0.8c0,0.3,0.1,0.6,0.4,0.8c0.3,0.2,0.9,0.4,1.8,0.6
				c1.4,0.3,2.5,0.7,3.1,1.2c0.7,0.6,1,1.3,1,2.4c0,1-0.5,1.9-1.4,2.6c-0.9,0.7-2.2,1-3.7,1c-1.6,0-2.8-0.4-3.7-1.2
				c-0.9-0.8-1.4-1.7-1.3-2.7l0-0.1h3.3c0,0.6,0.2,0.9,0.5,1.2s0.8,0.4,1.4,0.4c0.5,0,0.9-0.1,1.1-0.3
				C232.1,46.3,232.2,46,232.2,45.7z"/>
			<path d="M241.7,34.5v2.9h2v2.5h-2v5.3c0,0.4,0.1,0.7,0.3,0.9c0.2,0.2,0.4,0.3,0.7,0.3c0.2,0,0.4,0,0.5,0c0.1,0,0.3,0,0.5-0.1
				l0.3,2.7c-0.4,0.1-0.8,0.2-1.1,0.2s-0.7,0.1-1.1,0.1c-1.2,0-2.1-0.3-2.7-1c-0.6-0.6-0.9-1.6-0.9-3v-5.3h-1.6v-2.5h1.6v-2.9H241.7
				z"/>
		</g>
		<g>
			<path fill="#AAB8C2" d="M105.5,65.1c0,1.1-0.4,2.1-0.9,2.8c-0.6,0.8-1.4,1.2-2.6,1.2c-0.4,0-0.7-0.1-1-0.3
				c-0.3-0.2-0.5-0.5-0.6-0.9c-0.3,0.4-0.6,0.7-0.9,0.9c-0.4,0.2-0.8,0.3-1.3,0.3c-0.6,0-1.1-0.3-1.5-0.9c-0.4-0.6-0.5-1.4-0.4-2.4
				c0.1-1.3,0.5-2.4,1.1-3.2c0.6-0.8,1.3-1.2,2.2-1.2c0.5,0,1,0.1,1.3,0.2c0.3,0.1,0.7,0.3,1.1,0.6l0,0h0l-0.4,4.5
				c0,0.6,0,1,0.2,1.2c0.2,0.2,0.4,0.3,0.6,0.3c0.6,0,1.1-0.3,1.5-0.9c0.4-0.6,0.6-1.3,0.6-2.2c0.1-2-0.3-3.5-1.1-4.6
				c-0.8-1.1-2.1-1.6-3.8-1.6c-1.6,0-2.9,0.6-3.8,1.8c-1,1.2-1.5,2.7-1.6,4.6c-0.1,1.9,0.3,3.5,1.2,4.6c0.9,1.1,2.1,1.7,3.7,1.7
				c0.5,0,0.9-0.1,1.4-0.2c0.5-0.1,0.9-0.3,1.2-0.4l0.3,0.8c-0.3,0.2-0.8,0.4-1.3,0.5c-0.5,0.1-1.1,0.2-1.6,0.2
				c-2,0-3.5-0.6-4.5-1.9c-1.1-1.3-1.6-3-1.5-5.3c0.1-2.2,0.7-3.9,1.9-5.3c1.2-1.4,2.7-2,4.7-2c2,0,3.5,0.6,4.5,1.9
				C105.2,61.1,105.6,62.9,105.5,65.1z M97.7,65.7c-0.1,0.7,0,1.3,0.2,1.7c0.2,0.4,0.4,0.6,0.8,0.6c0.3,0,0.6-0.1,0.9-0.2
				c0.3-0.1,0.5-0.4,0.8-0.7c0-0.1,0-0.1,0-0.2c0-0.1,0-0.1,0-0.2l0.4-4.2c-0.1-0.1-0.3-0.1-0.4-0.1c-0.1,0-0.3-0.1-0.5-0.1
				c-0.6,0-1.1,0.3-1.5,0.8C98,63.7,97.8,64.6,97.7,65.7z"/>
			<path fill="#AAB8C2" d="M107.7,68.9V57.7h3.5c1.5,0,2.7,0.5,3.5,1.4c0.9,0.9,1.3,2.1,1.3,3.5v1.5c0,1.4-0.4,2.6-1.3,3.5
				c-0.9,0.9-2.1,1.3-3.5,1.3H107.7z M109.2,58.9v8.9h1.9c1,0,1.9-0.3,2.5-1c0.6-0.7,0.9-1.6,0.9-2.6v-1.6c0-1.1-0.3-1.9-0.9-2.6
				c-0.6-0.7-1.4-1-2.5-1H109.2z"/>
			<path fill="#AAB8C2" d="M123,68.9c-0.1-0.3-0.1-0.5-0.1-0.7c0-0.2,0-0.4-0.1-0.6c-0.3,0.4-0.7,0.7-1.1,1
				c-0.5,0.3-0.9,0.4-1.5,0.4c-0.9,0-1.5-0.2-2-0.7c-0.5-0.4-0.7-1.1-0.7-1.8c0-0.8,0.3-1.4,1-1.9c0.6-0.5,1.5-0.7,2.6-0.7h1.7v-0.8
				c0-0.5-0.1-0.9-0.4-1.2c-0.3-0.3-0.7-0.4-1.3-0.4c-0.5,0-0.9,0.1-1.2,0.4c-0.3,0.3-0.5,0.6-0.5,0.9H118l0,0
				c0-0.6,0.3-1.2,0.9-1.7c0.6-0.5,1.4-0.8,2.3-0.8c0.9,0,1.7,0.2,2.3,0.7c0.6,0.5,0.9,1.2,0.9,2.1v4c0,0.3,0,0.6,0,0.9
				c0,0.3,0.1,0.6,0.2,0.8H123z M120.5,67.8c0.6,0,1-0.1,1.5-0.4s0.7-0.6,0.9-1v-1.4h-1.7c-0.6,0-1.1,0.2-1.5,0.5
				c-0.4,0.3-0.6,0.7-0.6,1.1c0,0.4,0.1,0.7,0.3,0.9C119.7,67.7,120,67.8,120.5,67.8z"/>
			<path fill="#AAB8C2" d="M127.9,60.6l0.1,1.2c0.3-0.4,0.6-0.8,1-1c0.4-0.2,0.9-0.4,1.4-0.4c0.9,0,1.6,0.3,2.1,0.8
				c0.5,0.5,0.7,1.3,0.7,2.4v5.3h-1.5v-5.2c0-0.7-0.1-1.3-0.4-1.6c-0.3-0.3-0.7-0.5-1.3-0.5c-0.4,0-0.8,0.1-1.2,0.3
				s-0.6,0.5-0.8,0.9v6.1h-1.5v-8.4H127.9z"/>
			<path fill="#AAB8C2" d="M135.2,64.9c0-1.3,0.3-2.4,0.9-3.3c0.6-0.8,1.4-1.2,2.4-1.2c0.5,0,1,0.1,1.4,0.3c0.4,0.2,0.7,0.5,1,0.9
				l0.2-1.1h1.2V69c0,1.1-0.3,1.9-0.9,2.5c-0.6,0.6-1.5,0.9-2.7,0.9c-0.4,0-0.8-0.1-1.3-0.2c-0.5-0.1-0.9-0.3-1.2-0.5l0.4-1.2
				c0.3,0.2,0.6,0.3,1,0.4c0.4,0.1,0.8,0.1,1.1,0.1c0.7,0,1.3-0.2,1.6-0.5c0.3-0.3,0.5-0.9,0.5-1.5V68c-0.3,0.4-0.6,0.6-1,0.8
				c-0.4,0.2-0.8,0.3-1.3,0.3c-1,0-1.8-0.4-2.4-1.1c-0.6-0.7-0.9-1.7-0.9-2.9V64.9z M136.8,65.1c0,0.8,0.2,1.5,0.5,2
				c0.4,0.5,0.9,0.8,1.6,0.8c0.5,0,0.8-0.1,1.2-0.3c0.3-0.2,0.6-0.5,0.8-0.9v-3.8c-0.2-0.4-0.5-0.6-0.8-0.8
				c-0.3-0.2-0.7-0.3-1.1-0.3c-0.7,0-1.3,0.3-1.6,0.9c-0.4,0.6-0.5,1.4-0.5,2.3V65.1z"/>
			<path fill="#AAB8C2" d="M148,69.1c-1.2,0-2.1-0.4-2.8-1.2c-0.7-0.8-1-1.8-1-3v-0.3c0-1.2,0.4-2.2,1.1-3c0.7-0.8,1.5-1.2,2.5-1.2
				c1.1,0,2,0.3,2.6,1c0.6,0.7,0.9,1.6,0.9,2.7v0.9h-5.4l0,0c0,0.8,0.2,1.5,0.6,2c0.4,0.5,0.9,0.8,1.6,0.8c0.5,0,1-0.1,1.4-0.2
				c0.4-0.1,0.7-0.3,1-0.6l0.6,1c-0.3,0.3-0.7,0.5-1.2,0.7C149.3,69,148.7,69.1,148,69.1z M147.8,61.6c-0.5,0-0.9,0.2-1.3,0.6
				c-0.4,0.4-0.6,1-0.7,1.6l0,0h3.9v-0.2c0-0.6-0.2-1.1-0.5-1.5C148.9,61.8,148.4,61.6,147.8,61.6z"/>
			<path fill="#AAB8C2" d="M156.9,61.9l-0.8,0c-0.4,0-0.7,0.1-1,0.3c-0.3,0.2-0.5,0.5-0.6,0.8v6h-1.5v-8.4h1.4l0.1,1.2
				c0.2-0.4,0.5-0.8,0.9-1c0.3-0.2,0.7-0.4,1.2-0.4c0.1,0,0.2,0,0.3,0c0.1,0,0.2,0,0.3,0.1L156.9,61.9z"/>
			<path fill="#AAB8C2" d="M157.9,64.7c0-1.2,0.3-2.3,1-3.1c0.7-0.8,1.6-1.2,2.7-1.2c1.2,0,2.1,0.4,2.7,1.2c0.7,0.8,1,1.8,1,3.1v0.2
				c0,1.2-0.3,2.3-1,3.1c-0.7,0.8-1.6,1.2-2.7,1.2c-1.2,0-2.1-0.4-2.7-1.2c-0.7-0.8-1-1.8-1-3.1V64.7z M159.4,64.9
				c0,0.9,0.2,1.6,0.6,2.2c0.4,0.6,0.9,0.9,1.7,0.9c0.7,0,1.3-0.3,1.7-0.9c0.4-0.6,0.6-1.3,0.6-2.2v-0.2c0-0.9-0.2-1.6-0.6-2.2
				c-0.4-0.6-0.9-0.9-1.7-0.9c-0.7,0-1.3,0.3-1.7,0.9c-0.4,0.6-0.6,1.3-0.6,2.2V64.9z"/>
			<path fill="#AAB8C2" d="M172.5,67.7c-0.3,0.4-0.6,0.8-1,1c-0.4,0.2-0.9,0.4-1.4,0.4c-0.9,0-1.6-0.3-2.1-0.9
				c-0.5-0.6-0.8-1.5-0.8-2.7v-4.9h1.5v4.9c0,0.9,0.1,1.5,0.4,1.8c0.3,0.3,0.7,0.5,1.2,0.5c0.5,0,1-0.1,1.3-0.3
				c0.4-0.2,0.6-0.5,0.8-0.9v-6h1.5v8.4h-1.4L172.5,67.7z"/>
			<path fill="#AAB8C2" d="M181.1,66.7c0-0.3-0.1-0.6-0.4-0.8c-0.3-0.2-0.7-0.4-1.4-0.6c-1-0.2-1.8-0.5-2.3-0.9
				c-0.5-0.4-0.8-0.9-0.8-1.5c0-0.7,0.3-1.3,0.9-1.7c0.6-0.5,1.3-0.7,2.3-0.7c1,0,1.7,0.3,2.3,0.7c0.6,0.5,0.8,1.1,0.8,1.8l0,0H181
				c0-0.4-0.2-0.7-0.5-1c-0.3-0.3-0.7-0.4-1.2-0.4c-0.5,0-0.9,0.1-1.2,0.4c-0.3,0.2-0.4,0.5-0.4,0.9c0,0.3,0.1,0.6,0.3,0.8
				c0.2,0.2,0.7,0.4,1.4,0.5c1.1,0.2,1.8,0.5,2.4,0.9c0.5,0.4,0.8,0.9,0.8,1.6c0,0.7-0.3,1.3-0.9,1.8c-0.6,0.5-1.4,0.7-2.4,0.7
				c-1.1,0-1.9-0.3-2.5-0.8c-0.6-0.5-0.9-1.2-0.9-1.9l0,0h1.5c0,0.5,0.2,0.9,0.6,1.2c0.4,0.2,0.8,0.4,1.3,0.4c0.5,0,1-0.1,1.3-0.3
				C180.9,67.4,181.1,67.1,181.1,66.7z"/>
			<path fill="#AAB8C2" d="M186.3,64.4v4.5h-1.5V57.7h4.3c1.2,0,2.1,0.3,2.8,0.9s1,1.4,1,2.4c0,1-0.3,1.8-1,2.5
				c-0.7,0.6-1.6,0.9-2.8,0.9H186.3z M186.3,63.2h2.8c0.8,0,1.3-0.2,1.7-0.6c0.4-0.4,0.6-0.9,0.6-1.5c0-0.6-0.2-1.1-0.6-1.6
				c-0.4-0.4-0.9-0.6-1.7-0.6h-2.8V63.2z"/>
			<path fill="#AAB8C2" d="M194.2,64.7c0-1.2,0.3-2.3,1-3.1c0.7-0.8,1.6-1.2,2.7-1.2c1.2,0,2.1,0.4,2.7,1.2c0.7,0.8,1,1.8,1,3.1v0.2
				c0,1.2-0.3,2.3-1,3.1c-0.7,0.8-1.6,1.2-2.7,1.2c-1.2,0-2.1-0.4-2.7-1.2c-0.7-0.8-1-1.8-1-3.1V64.7z M195.7,64.9
				c0,0.9,0.2,1.6,0.6,2.2c0.4,0.6,0.9,0.9,1.7,0.9c0.7,0,1.3-0.3,1.7-0.9c0.4-0.6,0.6-1.3,0.6-2.2v-0.2c0-0.9-0.2-1.6-0.6-2.2
				c-0.4-0.6-0.9-0.9-1.7-0.9c-0.7,0-1.3,0.3-1.7,0.9c-0.4,0.6-0.6,1.3-0.6,2.2V64.9z"/>
			<path fill="#AAB8C2" d="M208.4,66.7c0-0.3-0.1-0.6-0.4-0.8c-0.3-0.2-0.7-0.4-1.4-0.6c-1-0.2-1.8-0.5-2.3-0.9
				c-0.5-0.4-0.8-0.9-0.8-1.5c0-0.7,0.3-1.3,0.9-1.7c0.6-0.5,1.3-0.7,2.3-0.7c1,0,1.7,0.3,2.3,0.7s0.8,1.1,0.8,1.8l0,0h-1.5
				c0-0.4-0.2-0.7-0.5-1c-0.3-0.3-0.7-0.4-1.2-0.4c-0.5,0-0.9,0.1-1.2,0.4c-0.3,0.2-0.4,0.5-0.4,0.9c0,0.3,0.1,0.6,0.3,0.8
				c0.2,0.2,0.7,0.4,1.4,0.5c1.1,0.2,1.8,0.5,2.4,0.9c0.5,0.4,0.8,0.9,0.8,1.6c0,0.7-0.3,1.3-0.9,1.8c-0.6,0.5-1.4,0.7-2.4,0.7
				c-1.1,0-1.9-0.3-2.5-0.8c-0.6-0.5-0.9-1.2-0.9-1.9l0,0h1.5c0,0.5,0.2,0.9,0.6,1.2c0.4,0.2,0.8,0.4,1.3,0.4c0.5,0,1-0.1,1.3-0.3
				C208.2,67.4,208.4,67.1,208.4,66.7z"/>
			<path fill="#AAB8C2" d="M213.8,58.6v2h1.6v1.1h-1.6v5.1c0,0.4,0.1,0.7,0.2,0.8c0.2,0.2,0.4,0.2,0.6,0.2c0.1,0,0.2,0,0.3,0
				c0.1,0,0.2,0,0.3-0.1l0.2,1c-0.1,0.1-0.3,0.2-0.5,0.2c-0.2,0.1-0.4,0.1-0.7,0.1c-0.6,0-1.1-0.2-1.5-0.6c-0.4-0.4-0.5-1-0.5-1.8
				v-5.1H211v-1.1h1.3v-2H213.8z"/>
		</g>
		<g>
			<path d="M28.4,103.6l4.7,12h0.1l4.7-12h2.6v14.8h-2v-5.8l0.2-6l-0.1,0l-4.8,11.9h-1.3l-4.8-11.8l-0.1,0l0.2,6v5.8h-2v-14.8H28.4z
				"/>
			<path d="M47.1,114.3l0.4,1.4h0.1l2.7-8.3h2.2l-4.6,12.7c-0.3,0.7-0.7,1.4-1.2,1.9c-0.5,0.5-1.2,0.8-2.1,0.8c-0.2,0-0.4,0-0.6-0.1
				s-0.4-0.1-0.6-0.1l0.2-1.6c0,0,0.1,0,0.4,0c0.3,0,0.5,0,0.5,0c0.4,0,0.8-0.2,1-0.6s0.5-0.8,0.7-1.3l0.5-1.1l-4.1-10.8h2.2
				L47.1,114.3z"/>
			<path d="M60.2,118.4v-9.5h-1.7v-1.5h1.7V106c0-1.2,0.3-2.1,0.9-2.7c0.6-0.6,1.5-1,2.6-1c0.2,0,0.5,0,0.7,0.1
				c0.2,0,0.5,0.1,0.8,0.2l-0.2,1.5c-0.1,0-0.3,0-0.4-0.1c-0.2,0-0.4,0-0.5,0c-0.6,0-1,0.2-1.3,0.5c-0.3,0.3-0.4,0.9-0.4,1.5v1.4
				h2.3v1.5h-2.3v9.5H60.2z"/>
			<path d="M73.3,118.4c-0.1-0.3-0.1-0.6-0.2-0.9c0-0.3-0.1-0.5-0.1-0.8c-0.4,0.5-0.9,1-1.5,1.3c-0.6,0.4-1.2,0.5-1.9,0.5
				c-1.1,0-2-0.3-2.6-0.9c-0.6-0.6-0.9-1.4-0.9-2.4c0-1,0.4-1.9,1.3-2.5c0.8-0.6,2-0.9,3.5-0.9h2.2v-1.1c0-0.6-0.2-1.2-0.6-1.5
				c-0.4-0.4-0.9-0.6-1.7-0.6c-0.6,0-1.2,0.2-1.6,0.5c-0.4,0.3-0.6,0.7-0.6,1.2h-1.9l0-0.1c0-0.8,0.3-1.5,1.1-2.2
				c0.8-0.7,1.8-1,3.1-1c1.2,0,2.2,0.3,3,0.9c0.8,0.6,1.1,1.5,1.1,2.7v5.3c0,0.4,0,0.8,0.1,1.1c0,0.4,0.1,0.7,0.2,1.1H73.3z
				 M70,116.9c0.7,0,1.4-0.2,2-0.6c0.6-0.4,1-0.8,1.1-1.3v-1.8h-2.2c-0.8,0-1.5,0.2-1.9,0.6c-0.5,0.4-0.7,0.9-0.7,1.4
				c0,0.5,0.2,0.9,0.5,1.2C68.9,116.8,69.4,116.9,70,116.9z"/>
			<path d="M79.8,107.4l0.1,1.4c0.4-0.5,0.8-0.9,1.4-1.2c0.6-0.3,1.2-0.4,1.9-0.4s1.4,0.2,1.9,0.5c0.5,0.3,0.9,0.8,1.2,1.5
				c0.3-0.6,0.8-1.1,1.4-1.5c0.6-0.4,1.2-0.5,2-0.5c1.1,0,2,0.4,2.7,1.2c0.7,0.8,1,1.9,1,3.5v6.6h-2v-6.6c0-1.1-0.2-1.8-0.6-2.3
				c-0.4-0.4-0.9-0.7-1.7-0.7c-0.7,0-1.2,0.2-1.7,0.7c-0.4,0.5-0.7,1.1-0.7,1.8v0.1v7h-2v-6.6c0-1-0.2-1.8-0.6-2.3
				c-0.4-0.5-0.9-0.7-1.7-0.7c-0.6,0-1.1,0.1-1.5,0.4c-0.4,0.3-0.7,0.6-0.9,1.1v8.1h-2v-11H79.8z"/>
			<path d="M98.3,104.6h-2v-2h2V104.6z M98.3,118.4h-2v-11h2V118.4z"/>
			<path d="M103.6,118.4h-2v-15.8h2V118.4z"/>
			<path d="M110,114.3l0.4,1.4h0.1l2.7-8.3h2.2l-4.6,12.7c-0.3,0.7-0.7,1.4-1.2,1.9c-0.5,0.5-1.2,0.8-2.1,0.8c-0.2,0-0.4,0-0.6-0.1
				c-0.3,0-0.4-0.1-0.6-0.1l0.2-1.6c0,0,0.1,0,0.4,0c0.3,0,0.5,0,0.5,0c0.4,0,0.8-0.2,1-0.6c0.3-0.4,0.5-0.8,0.7-1.3l0.5-1.1
				l-4.1-10.8h2.2L110,114.3z"/>
			<path d="M124.4,104.6h-2v-2h2V104.6z M124.4,118.4h-2v-11h2V118.4z"/>
			<path d="M133.9,115.5c0-0.4-0.2-0.8-0.5-1.1c-0.3-0.3-1-0.5-1.9-0.7c-1.3-0.3-2.3-0.7-3-1.2c-0.7-0.5-1-1.2-1-2
				c0-0.9,0.4-1.7,1.1-2.3c0.8-0.6,1.7-0.9,3-0.9c1.3,0,2.3,0.3,3.1,1c0.8,0.7,1.1,1.5,1.1,2.4l0,0.1h-1.9c0-0.5-0.2-0.9-0.6-1.3
				c-0.4-0.4-0.9-0.6-1.6-0.6c-0.7,0-1.2,0.2-1.6,0.5c-0.3,0.3-0.5,0.7-0.5,1.1c0,0.4,0.2,0.8,0.5,1c0.3,0.3,0.9,0.5,1.9,0.7
				c1.4,0.3,2.4,0.7,3.1,1.2c0.7,0.5,1,1.2,1,2.1c0,1-0.4,1.8-1.2,2.4c-0.8,0.6-1.8,0.9-3.1,0.9c-1.4,0-2.5-0.4-3.3-1.1
				c-0.8-0.7-1.2-1.5-1.1-2.5l0-0.1h1.9c0,0.7,0.3,1.2,0.8,1.5c0.5,0.3,1.1,0.5,1.7,0.5c0.7,0,1.3-0.1,1.7-0.4
				C133.7,116.3,133.9,115.9,133.9,115.5z"/>
			<path d="M153,113.3c0,1.6-0.4,2.9-1.1,3.8c-0.8,1-1.8,1.5-3.1,1.5c-0.7,0-1.4-0.1-1.9-0.4c-0.5-0.3-1-0.7-1.3-1.2l-0.2,1.5h-1.6
				v-15.8h2v6.1c0.3-0.5,0.8-0.9,1.3-1.1s1.1-0.4,1.8-0.4c1.4,0,2.4,0.5,3.2,1.6c0.8,1.1,1.1,2.5,1.1,4.3V113.3z M151,113.1
				c0-1.3-0.2-2.3-0.7-3.1c-0.5-0.8-1.2-1.2-2.1-1.2c-0.6,0-1.1,0.2-1.6,0.5c-0.4,0.3-0.8,0.7-1,1.2v4.8c0.3,0.5,0.6,1,1,1.3
				c0.4,0.3,0.9,0.5,1.6,0.5c0.9,0,1.6-0.3,2.1-1c0.5-0.7,0.7-1.6,0.7-2.7V113.1z"/>
			<path d="M162.2,118.4c-0.1-0.3-0.1-0.6-0.2-0.9c0-0.3-0.1-0.5-0.1-0.8c-0.4,0.5-0.9,1-1.5,1.3c-0.6,0.4-1.2,0.5-1.9,0.5
				c-1.1,0-2-0.3-2.6-0.9c-0.6-0.6-0.9-1.4-0.9-2.4c0-1,0.4-1.9,1.3-2.5c0.8-0.6,2-0.9,3.5-0.9h2.2v-1.1c0-0.6-0.2-1.2-0.6-1.5
				c-0.4-0.4-0.9-0.6-1.7-0.6c-0.6,0-1.2,0.2-1.6,0.5c-0.4,0.3-0.6,0.7-0.6,1.2h-1.9l0-0.1c0-0.8,0.3-1.5,1.1-2.2
				c0.8-0.7,1.8-1,3.1-1c1.2,0,2.2,0.3,3,0.9c0.8,0.6,1.1,1.5,1.1,2.7v5.3c0,0.4,0,0.8,0.1,1.1c0,0.4,0.1,0.7,0.2,1.1H162.2z
				 M158.8,116.9c0.7,0,1.4-0.2,2-0.6c0.6-0.4,1-0.8,1.1-1.3v-1.8h-2.2c-0.8,0-1.5,0.2-1.9,0.6c-0.5,0.4-0.7,0.9-0.7,1.4
				c0,0.5,0.2,0.9,0.5,1.2C157.8,116.8,158.2,116.9,158.8,116.9z"/>
			<path d="M171.3,117c0.7,0,1.2-0.2,1.8-0.6c0.5-0.4,0.8-0.9,0.8-1.5h1.8l0,0.1c0,0.9-0.4,1.8-1.3,2.5c-0.9,0.7-1.9,1.1-3.1,1.1
				c-1.6,0-2.8-0.5-3.7-1.6c-0.8-1-1.3-2.4-1.3-3.9v-0.4c0-1.6,0.4-2.9,1.3-3.9c0.8-1,2.1-1.6,3.7-1.6c1.3,0,2.3,0.4,3.2,1.1
				c0.8,0.8,1.2,1.7,1.2,2.8l0,0.1h-1.8c0-0.7-0.2-1.2-0.7-1.7c-0.5-0.5-1.1-0.7-1.8-0.7c-1,0-1.8,0.4-2.2,1.1
				c-0.5,0.8-0.7,1.7-0.7,2.8v0.4c0,1.1,0.2,2.1,0.7,2.8C169.5,116.7,170.2,117,171.3,117z"/>
			<path d="M181.2,113.3h-1.3v5.1h-2v-15.8h2v9.2h1.3l3-4.3h2.4l-3.8,5l4.3,6h-2.4L181.2,113.3z"/>
			<path d="M195.9,104.6h-2v-2h2V104.6z M195.9,118.4h-2v-11h2V118.4z"/>
			<path d="M200.7,107.4l0.1,1.6c0.4-0.6,0.8-1,1.4-1.4c0.6-0.3,1.2-0.5,1.9-0.5c1.2,0,2.1,0.3,2.8,1s1,1.8,1,3.2v6.9h-2v-6.9
				c0-1-0.2-1.7-0.6-2.1c-0.4-0.4-1-0.6-1.8-0.6c-0.6,0-1.1,0.1-1.5,0.4c-0.4,0.3-0.8,0.7-1.1,1.1v8h-2v-11H200.7z"/>
			<path d="M225.1,111.5h-6.8v5.3h7.8v1.6h-9.8v-14.8h9.7v1.6h-7.7v4.8h6.8V111.5z"/>
			<path d="M227.5,113.1c0-1.8,0.4-3.2,1.1-4.3c0.8-1.1,1.8-1.6,3.2-1.6c0.6,0,1.2,0.1,1.7,0.4c0.5,0.2,0.9,0.6,1.3,1v-6h2v15.8
				h-1.6l-0.2-1.3c-0.4,0.5-0.8,0.9-1.3,1.2c-0.5,0.3-1.1,0.4-1.8,0.4c-1.3,0-2.4-0.5-3.1-1.5s-1.1-2.2-1.1-3.8V113.1z M229.5,113.3
				c0,1.1,0.2,2,0.7,2.7c0.5,0.7,1.2,1,2.1,1c0.6,0,1.1-0.1,1.5-0.4c0.4-0.3,0.7-0.6,1-1.1v-5.1c-0.3-0.5-0.6-0.8-1-1.1
				c-0.4-0.3-0.9-0.4-1.5-0.4c-1,0-1.7,0.4-2.1,1.2c-0.5,0.8-0.7,1.8-0.7,3.1V113.3z"/>
			<path d="M242.6,114.4l0.2,1.3h0.1l0.3-1.3l2.2-7h1.6l2.2,7l0.3,1.5h0.1l0.3-1.5l1.7-7h2l-3.2,11h-1.6l-2.1-6.7l-0.5-1.9l-0.1,0
				l-0.4,1.9l-2.1,6.7h-1.6l-3.2-11h2L242.6,114.4z"/>
			<path d="M262.2,118.4c-0.1-0.3-0.1-0.6-0.2-0.9c0-0.3-0.1-0.5-0.1-0.8c-0.4,0.5-0.9,1-1.5,1.3c-0.6,0.4-1.2,0.5-1.9,0.5
				c-1.1,0-2-0.3-2.6-0.9c-0.6-0.6-0.9-1.4-0.9-2.4c0-1,0.4-1.9,1.3-2.5c0.8-0.6,2-0.9,3.5-0.9h2.2v-1.1c0-0.6-0.2-1.2-0.6-1.5
				c-0.4-0.4-0.9-0.6-1.7-0.6c-0.6,0-1.2,0.2-1.6,0.5c-0.4,0.3-0.6,0.7-0.6,1.2h-1.9l0-0.1c0-0.8,0.3-1.5,1.1-2.2
				c0.8-0.7,1.8-1,3.1-1c1.2,0,2.2,0.3,3,0.9s1.1,1.5,1.1,2.7v5.3c0,0.4,0,0.8,0.1,1.1c0,0.4,0.1,0.7,0.2,1.1H262.2z M258.9,116.9
				c0.7,0,1.4-0.2,2-0.6c0.6-0.4,1-0.8,1.1-1.3v-1.8h-2.2c-0.8,0-1.5,0.2-1.9,0.6c-0.5,0.4-0.7,0.9-0.7,1.4c0,0.5,0.2,0.9,0.5,1.2
				C257.9,116.8,258.3,116.9,258.9,116.9z"/>
			<path d="M272.1,109.2l-1-0.1c-0.5,0-1,0.1-1.3,0.4s-0.6,0.6-0.8,1.1v7.8h-2v-11h1.8l0.2,1.6c0.3-0.6,0.7-1,1.2-1.3
				c0.5-0.3,1-0.5,1.6-0.5c0.1,0,0.3,0,0.4,0c0.1,0,0.2,0,0.3,0.1L272.1,109.2z"/>
			<path d="M273.4,113.1c0-1.8,0.4-3.2,1.1-4.3c0.8-1.1,1.8-1.6,3.2-1.6c0.6,0,1.2,0.1,1.7,0.4c0.5,0.2,0.9,0.6,1.3,1v-6h2v15.8
				h-1.6l-0.2-1.3c-0.4,0.5-0.8,0.9-1.3,1.2c-0.5,0.3-1.1,0.4-1.8,0.4c-1.3,0-2.4-0.5-3.1-1.5s-1.1-2.2-1.1-3.8V113.1z M275.4,113.3
				c0,1.1,0.2,2,0.7,2.7s1.2,1,2.1,1c0.6,0,1.1-0.1,1.5-0.4c0.4-0.3,0.7-0.6,1-1.1v-5.1c-0.3-0.5-0.6-0.8-1-1.1
				c-0.4-0.3-0.9-0.4-1.5-0.4c-1,0-1.7,0.4-2.1,1.2c-0.5,0.8-0.7,1.8-0.7,3.1V113.3z"/>
			<path d="M292.1,115.5c0-0.4-0.2-0.8-0.5-1.1c-0.3-0.3-1-0.5-1.9-0.7c-1.3-0.3-2.3-0.7-3-1.2c-0.7-0.5-1-1.2-1-2
				c0-0.9,0.4-1.7,1.1-2.3c0.8-0.6,1.7-0.9,3-0.9c1.3,0,2.3,0.3,3.1,1c0.8,0.7,1.1,1.5,1.1,2.4l0,0.1H292c0-0.5-0.2-0.9-0.6-1.3
				c-0.4-0.4-0.9-0.6-1.6-0.6c-0.7,0-1.2,0.2-1.6,0.5c-0.3,0.3-0.5,0.7-0.5,1.1c0,0.4,0.2,0.8,0.5,1s0.9,0.5,1.9,0.7
				c1.4,0.3,2.4,0.7,3.1,1.2c0.7,0.5,1,1.2,1,2.1c0,1-0.4,1.8-1.2,2.4c-0.8,0.6-1.8,0.9-3.1,0.9c-1.4,0-2.5-0.4-3.3-1.1
				c-0.8-0.7-1.2-1.5-1.1-2.5l0-0.1h1.9c0,0.7,0.3,1.2,0.8,1.5c0.5,0.3,1.1,0.5,1.7,0.5c0.7,0,1.3-0.1,1.7-0.4
				C291.9,116.3,292.1,115.9,292.1,115.5z"/>
			<path d="M300.2,115.1l0.2,0.8h0.1l0.2-0.8l2.5-7.7h2l-4,11h-1.5l-4.1-11h2.1L300.2,115.1z"/>
			<path d="M309.2,104.6h-2v-2h2V104.6z M309.2,118.4h-2v-11h2V118.4z"/>
			<path d="M314.4,118.4h-2v-15.8h2V118.4z"/>
			<path d="M319.7,118.4h-2v-15.8h2V118.4z"/>
			<path d="M327.3,118.6c-1.5,0-2.7-0.5-3.7-1.5c-0.9-1-1.4-2.3-1.4-4v-0.4c0-1.6,0.5-2.9,1.4-3.9s2-1.6,3.3-1.6
				c1.5,0,2.6,0.4,3.4,1.3c0.8,0.9,1.1,2.1,1.1,3.6v1.2h-7.1l0,0c0,1.1,0.3,1.9,0.8,2.6c0.5,0.7,1.2,1,2.2,1c0.7,0,1.3-0.1,1.8-0.3
				c0.5-0.2,1-0.5,1.3-0.8l0.8,1.3c-0.4,0.4-0.9,0.7-1.6,1C329,118.5,328.2,118.6,327.3,118.6z M327,108.8c-0.7,0-1.2,0.3-1.7,0.8
				c-0.5,0.6-0.8,1.3-0.9,2.1l0,0h5.1v-0.3c0-0.8-0.2-1.4-0.6-2C328.5,109,327.8,108.8,327,108.8z"/>
			<path d="M335.5,117.9L334,121h-1.2l0.7-3.2v-1.7h2V117.9z"/>
			<path d="M345.5,118.4h-2v-14.8h2V118.4z"/>
			<path d="M351.3,116.8h7v1.6h-9v-14.8h2V116.8z"/>
			<path d="M362.5,116.8h7v1.6h-9v-14.8h2V116.8z"/>
			<path d="M373.6,118.4h-2v-2.1h2V118.4z"/>
		</g>
		<g>
			<g>
				<path fill="#AAB8C2" d="M162.4,311h-5.9v-0.8l3-3.3c0.5-0.6,0.9-1.1,1.1-1.4c0.2-0.3,0.3-0.7,0.3-1.1c0-0.5-0.1-0.8-0.4-1.1
					c-0.3-0.3-0.6-0.5-1-0.5c-0.6,0-1.1,0.2-1.4,0.5s-0.4,0.8-0.4,1.3h-1.2l0,0c0-0.8,0.2-1.4,0.8-2c0.5-0.5,1.3-0.8,2.2-0.8
					c0.8,0,1.5,0.2,1.9,0.7c0.5,0.5,0.7,1.1,0.7,1.8c0,0.5-0.1,1-0.4,1.5c-0.3,0.5-0.7,1-1.2,1.6L158,310l0,0h4.3V311z"/>
				<path fill="#AAB8C2" d="M168.6,308h1.2v1h-1.2v2.1h-1.2v-2.1h-4.1v-0.7l4-6.3h1.3V308z M164.6,308h2.8v-4.2l0,0l-0.1,0.3
					L164.6,308z"/>
				<path fill="#AAB8C2" d="M176.7,311h-5.9v-0.8l3-3.3c0.5-0.6,0.9-1.1,1.1-1.4c0.2-0.3,0.3-0.7,0.3-1.1c0-0.5-0.1-0.8-0.4-1.1
					c-0.3-0.3-0.6-0.5-1-0.5c-0.6,0-1.1,0.2-1.4,0.5s-0.4,0.8-0.4,1.3h-1.2l0,0c0-0.8,0.2-1.4,0.8-2c0.5-0.5,1.3-0.8,2.2-0.8
					c0.8,0,1.5,0.2,1.9,0.7c0.5,0.5,0.7,1.1,0.7,1.8c0,0.5-0.1,1-0.4,1.5c-0.3,0.5-0.7,1-1.2,1.6l-2.4,2.6l0,0h4.3V311z"/>
			</g>
			<g>
				<path fill="#AAB8C2" d="M251.1,311h-5.9v-0.8l3-3.3c0.5-0.6,0.9-1.1,1.1-1.4c0.2-0.3,0.3-0.7,0.3-1.1c0-0.5-0.1-0.8-0.4-1.1
					c-0.3-0.3-0.6-0.5-1-0.5c-0.6,0-1.1,0.2-1.4,0.5c-0.3,0.3-0.4,0.8-0.4,1.3h-1.2l0,0c0-0.8,0.2-1.4,0.8-2
					c0.5-0.5,1.3-0.8,2.2-0.8c0.8,0,1.5,0.2,1.9,0.7s0.7,1.1,0.7,1.8c0,0.5-0.1,1-0.4,1.5c-0.3,0.5-0.7,1-1.2,1.6l-2.4,2.6l0,0h4.3
					V311z"/>
				<path fill="#AAB8C2" d="M257.3,308h1.2v1h-1.2v2.1H256v-2.1H252v-0.7l4-6.3h1.3V308z M253.3,308h2.8v-4.2l0,0l-0.1,0.3
					L253.3,308z"/>
				<path fill="#AAB8C2" d="M265.4,311h-5.9v-0.8l3-3.3c0.5-0.6,0.9-1.1,1.1-1.4c0.2-0.3,0.3-0.7,0.3-1.1c0-0.5-0.1-0.8-0.4-1.1
					c-0.3-0.3-0.6-0.5-1-0.5c-0.6,0-1.1,0.2-1.4,0.5s-0.4,0.8-0.4,1.3h-1.2l0,0c0-0.8,0.2-1.4,0.8-2c0.5-0.5,1.3-0.8,2.2-0.8
					c0.8,0,1.5,0.2,1.9,0.7c0.5,0.5,0.7,1.1,0.7,1.8c0,0.5-0.1,1-0.4,1.5c-0.3,0.5-0.7,1-1.2,1.6L261,310l0,0h4.3V311z"/>
			</g>
			<circle fill="#AAB8C2" cx="308.4" cy="307.5" r="3.2"/>
			<circle fill="#AAB8C2" cx="316.5" cy="307.5" r="3.2"/>
			<circle fill="#AAB8C2" cx="324.6" cy="307.5" r="3.2"/>
			<path fill="#AAB8C2" d="M222.9,313.7c0,0-8.2-5.8-8.2-12.1c0,0,0-3.8,4.1-3.8s4.1,2.6,4.1,2.6s1.7-2.6,4.9-2.6
				c3.2,0,3.5,2,3.6,3.3C231.6,302.4,232,306.7,222.9,313.7z"/>
			<g>
				<polygon fill="#AAB8C2" points="119.4,308 130.4,308 124.9,300.5 				"/>
				<rect x="122.6" y="307.3" fill="#AAB8C2" width="4.5" height="7.4"/>
				<rect x="124.2" y="311" fill="#AAB8C2" width="9.7" height="3.7"/>
			</g>
			<g>
				<polygon fill="#AAB8C2" points="144.6,307.2 133.6,307.2 139.1,314.7 				"/>
				<rect x="136.9" y="300.5" fill="#AAB8C2" width="4.5" height="7.4"/>
				<rect x="130.1" y="300.5" fill="#AAB8C2" width="9.7" height="3.7"/>
			</g>
			<g>
				<polygon fill="#AAB8C2" points="39.2,299.8 39.2,313.7 29.9,306.7 				"/>
				<path fill="#AAB8C2" d="M45.3,313.7h4c0,0,0.6-5.8-3.3-7.9c-3.9-2.2-8.1-1.4-8.1-1.4v3.8c0,0,3.8-0.5,5.7,0.9
					C45.6,310.4,45.3,313.7,45.3,313.7z"/>
			</g>
		</g>
	</g>
	<g>
		<g>
			<circle fill="#FFFFFF" cx="53" cy="51.8" r="19.7"/>
			<circle fill="none" stroke="#23A9E1" stroke-miterlimit="10" cx="53" cy="51.8" r="19.7"/>
		</g>
		<g>
			<path fill="#23A9E1" d="M52.7,35.3c-9.2,0-16.6,7.5-16.6,16.6s7.5,16.6,16.6,16.6s16.6-7.5,16.6-16.6S61.9,35.3,52.7,35.3z
				 M52.7,35.8c8.9,0,16.1,7.2,16.1,16.1c0,4.1-1.6,7.9-4.1,10.7L57.9,60c0,0-1.3-0.6-1.4-1.9c0-0.1-0.1-0.2-0.3-0.2h-0.7
				c0.5-0.6,1.2-1.5,1.2-1.9c0-0.4,0.1-1.1,0.1-1.3c0-0.1,0.1-0.1,0.2-0.1c0.1,0,0.2,0,0.3-0.1c0.1-0.1,1.5-1.5,1.1-3.5
				c0-0.1-0.1-0.2-0.2-0.3c-0.1-0.1-0.3-0.1-0.5-0.1c0-0.3,0.1-0.7,0.3-1.3c0.4-1,0.5-2.8,0-3.3c-0.1-0.1-0.2-0.3-0.4-0.5
				c-0.4-0.5-1-1.2-1.8-1.7c-1.1-0.8-2.2-1.1-4-1.1c-1.7,0-2.1,0.4-2.6,1c-0.4,0.2-2.1,1.3-2.4,2.3c-0.2,1,0.6,4,0.8,4.6
				c0,0.1-0.1,0.2-0.1,0.2c-0.4,0-0.6,0.2-0.7,0.7c-0.1,0.5-0.1,1.2,0,1.6c0.1,0.4,0.5,1.5,1.3,1.9c0.1,0,0.2,0.2,0.2,0.3
				c0,0.7,0,1.2,0.2,1.4c0.1,0.2,0.8,1.1,1.1,1.6h-0.6c-0.1,0-0.1,0-0.2,0.1c0,0.1-0.1,0.1-0.1,0.2c0,0.2,0,0.9-0.4,1.1
				c-0.4,0.2-5.1,2.1-7.7,3.1c-2.4-2.8-3.9-6.5-3.9-10.5C36.6,43,43.8,35.8,52.7,35.8z M52.7,68c-4.7,0-8.9-2-11.8-5.2
				c1.5-0.6,7.1-2.8,7.6-3c0.5-0.3,0.6-0.9,0.6-1.3H50c0.1,0,0.2-0.1,0.2-0.1c0-0.1,0-0.2,0-0.3L50.1,58c-0.1-0.1-1.1-1.6-1.2-1.8
				c0-0.1-0.1-0.3-0.1-1.1c0-0.5-0.4-0.7-0.5-0.8c0,0,0,0,0,0c-0.5-0.2-0.9-1-1-1.5c-0.1-0.4-0.1-1.1,0-1.4c0.1-0.2,0.1-0.2,0.3-0.3
				c0.5-0.1,0.6-0.7,0.6-0.7c0,0,0-0.1,0-0.1c-0.3-1-1-3.6-0.8-4.4c0.2-0.7,1.6-1.7,2.1-2c0,0,0.1,0,0.1-0.1l0,0
				c0.4-0.4,0.6-0.8,2.2-0.8c1.7,0,2.7,0.3,3.7,1c0.8,0.6,1.3,1.2,1.7,1.7c0.2,0.2,0.3,0.4,0.4,0.5c0.3,0.3,0.3,1.7-0.1,2.8
				c-0.4,1.1-0.3,1.8-0.3,1.8c0,0.1,0,0.2,0.1,0.2c0.1,0,0.1,0.1,0.2,0c0.3-0.1,0.4,0,0.4,0c0,0,0,0,0,0c0.3,1.5-0.5,2.6-0.8,2.9
				c-0.3,0-0.5,0.2-0.7,0.4c0,0,0,0.1,0,0.1c0,0-0.1,0.9-0.1,1.4c0,0.2-0.7,1.2-1.5,2c-0.1,0.1-0.1,0.2-0.1,0.3
				c0,0.1,0.1,0.2,0.2,0.2H56c0.3,1.5,1.6,2.1,1.7,2.1l6.6,2.6C61.4,66.1,57.3,68,52.7,68z"/>
		</g>
	</g>
</g>
</svg>
