<?xml version="1.0" encoding="utf-8"?>
<!-- Generator: Adobe Illustrator 18.0.0, SVG Export Plug-In . SVG Version: 6.00 Build 0)  -->
<!DOCTYPE svg PUBLIC "-//W3C//DTD SVG 1.1//EN" "http://www.w3.org/Graphics/SVG/1.1/DTD/svg11.dtd">
<svg version="1.1" id="Layer_1" xmlns="http://www.w3.org/2000/svg" xmlns:xlink="http://www.w3.org/1999/xlink" x="0px" y="0px"
	 viewBox="0 0 419.6 329.3" enable-background="new 0 0 419.6 329.3" xml:space="preserve">
<path fill="#FFFFFF" stroke="#D2D2D2" stroke-width="0.5" stroke-miterlimit="10" d="M416.4,329H3.3c-1.7,0-3-1.3-3-3V3.3
	c0-1.7,1.3-3,3-3h413.1c1.7,0,3,1.3,3,3V326C419.4,327.6,418,329,416.4,329z"/>
<g>
	<g>
		<path fill="#AAB8C2" d="M33,171.1h-1.2v-7.8l-1.8,0v-0.9l3.1-0.3V171.1z"/>
		<path fill="#AAB8C2" d="M43.1,171.1h-5.8v-0.8l3-3.3c0.5-0.6,0.9-1.1,1.1-1.4c0.2-0.3,0.3-0.7,0.3-1.1c0-0.5-0.1-0.8-0.4-1.1
			c-0.3-0.3-0.6-0.5-1-0.5c-0.6,0-1.1,0.2-1.4,0.5s-0.4,0.8-0.4,1.3h-1.2l0,0c0-0.8,0.2-1.4,0.8-2c0.5-0.5,1.3-0.8,2.2-0.8
			c0.8,0,1.5,0.2,1.9,0.7s0.7,1.1,0.7,1.8c0,0.5-0.1,1-0.4,1.5c-0.3,0.5-0.7,1-1.2,1.6l-2.4,2.6l0,0h4.3V171.1z"/>
		<path fill="#AAB8C2" d="M46.5,165.7h-1.2v-1.3h1.2V165.7z M46.5,171.1h-1.2v-1.3h1.2V171.1z"/>
		<path fill="#AAB8C2" d="M53.7,168h1.2v1h-1.2v2.1h-1.2V169h-4.1v-0.7l4-6.3h1.3V168z M49.7,168h2.7v-4.2l0,0l-0.1,0.3L49.7,168z"
			/>
		<path fill="#AAB8C2" d="M58.2,166h1.1c0.5,0,0.9-0.1,1.1-0.4c0.2-0.3,0.3-0.6,0.3-1.1c0-0.5-0.1-0.9-0.4-1.2
			c-0.3-0.3-0.6-0.4-1.1-0.4c-0.5,0-0.9,0.1-1.1,0.4c-0.3,0.3-0.4,0.6-0.4,1.1h-1.2l0,0c0-0.7,0.2-1.3,0.7-1.7
			c0.5-0.5,1.2-0.7,2-0.7c0.8,0,1.5,0.2,2,0.7c0.5,0.4,0.7,1.1,0.7,1.9c0,0.4-0.1,0.7-0.3,1.1c-0.2,0.4-0.6,0.7-1,0.8
			c0.5,0.2,0.9,0.5,1.1,0.8c0.2,0.4,0.3,0.8,0.3,1.3c0,0.8-0.3,1.5-0.8,1.9c-0.5,0.5-1.2,0.7-2.1,0.7c-0.8,0-1.5-0.2-2-0.7
			c-0.5-0.4-0.8-1-0.8-1.8l0,0h1.2c0,0.5,0.1,0.8,0.4,1.1c0.3,0.3,0.7,0.4,1.2,0.4c0.5,0,0.9-0.1,1.2-0.4c0.3-0.3,0.4-0.7,0.4-1.2
			c0-0.6-0.1-1-0.4-1.2c-0.3-0.3-0.7-0.4-1.2-0.4h-1.1V166z"/>
		<path fill="#AAB8C2" d="M69.7,167.5v3.6h-1.2v-9h3.4c1,0,1.7,0.2,2.2,0.7c0.5,0.5,0.8,1.1,0.8,2c0,0.8-0.3,1.5-0.8,2
			c-0.5,0.5-1.3,0.7-2.2,0.7H69.7z M69.7,166.5h2.2c0.6,0,1.1-0.2,1.4-0.5c0.3-0.3,0.5-0.7,0.5-1.2s-0.2-0.9-0.5-1.2
			c-0.3-0.3-0.8-0.5-1.4-0.5h-2.2V166.5z"/>
		<path fill="#AAB8C2" d="M78.8,162.1l2.9,7.3h0l2.9-7.3h1.6v9h-1.2v-3.6l0.1-3.7l0,0l-2.9,7.2h-0.8l-2.9-7.2l0,0l0.1,3.6v3.6h-1.2
			v-9H78.8z"/>
		<path fill="#AAB8C2" d="M94.8,167.7h-3v-1h3V167.7z"/>
		<path fill="#AAB8C2" d="M106,171.1h-5.8v-0.8l3-3.3c0.5-0.6,0.9-1.1,1.1-1.4c0.2-0.3,0.3-0.7,0.3-1.1c0-0.5-0.1-0.8-0.4-1.1
			c-0.3-0.3-0.6-0.5-1-0.5c-0.6,0-1.1,0.2-1.4,0.5s-0.4,0.8-0.4,1.3H100l0,0c0-0.8,0.2-1.4,0.8-2c0.5-0.5,1.3-0.8,2.2-0.8
			c0.8,0,1.5,0.2,1.9,0.7s0.7,1.1,0.7,1.8c0,0.5-0.1,1-0.4,1.5c-0.3,0.5-0.7,1-1.2,1.6l-2.4,2.6l0,0h4.3V171.1z"/>
		<path fill="#AAB8C2" d="M113.6,167.6c0,1.2-0.3,2-0.8,2.6c-0.5,0.6-1.2,0.9-2.1,0.9s-1.6-0.3-2.1-0.9c-0.5-0.6-0.8-1.5-0.8-2.6
			v-2.1c0-1.1,0.3-2,0.8-2.6c0.5-0.6,1.2-0.9,2.1-0.9c0.9,0,1.6,0.3,2.1,0.9c0.5,0.6,0.8,1.5,0.8,2.6V167.6z M112.4,165.2
			c0-0.8-0.1-1.4-0.4-1.8c-0.3-0.4-0.7-0.6-1.2-0.6c-0.5,0-0.9,0.2-1.2,0.6c-0.3,0.4-0.4,1-0.4,1.8v2.6c0,0.8,0.1,1.4,0.4,1.8
			c0.3,0.4,0.7,0.6,1.2,0.6s0.9-0.2,1.2-0.6c0.3-0.4,0.4-1,0.4-1.8V165.2z"/>
		<path fill="#AAB8C2" d="M121.4,162.1l2.9,7.3h0l2.9-7.3h1.6v9h-1.2v-3.6l0.1-3.7l0,0l-2.9,7.2h-0.8l-2.9-7.2l0,0l0.1,3.6v3.6h-1.2
			v-9H121.4z"/>
		<path fill="#AAB8C2" d="M135.4,171.1c0-0.2-0.1-0.4-0.1-0.5c0-0.2,0-0.3,0-0.5c-0.2,0.3-0.5,0.6-0.9,0.8c-0.4,0.2-0.8,0.3-1.2,0.3
			c-0.7,0-1.2-0.2-1.6-0.5c-0.4-0.4-0.5-0.8-0.5-1.5c0-0.6,0.3-1.1,0.8-1.5c0.5-0.4,1.2-0.5,2.1-0.5h1.3v-0.7c0-0.4-0.1-0.7-0.4-0.9
			c-0.2-0.2-0.6-0.3-1-0.3c-0.4,0-0.7,0.1-1,0.3c-0.2,0.2-0.4,0.4-0.4,0.7h-1.2l0,0c0-0.5,0.2-0.9,0.7-1.3c0.5-0.4,1.1-0.6,1.9-0.6
			c0.8,0,1.4,0.2,1.8,0.6c0.5,0.4,0.7,0.9,0.7,1.7v3.2c0,0.2,0,0.5,0,0.7c0,0.2,0.1,0.4,0.1,0.7H135.4z M133.4,170.2
			c0.4,0,0.8-0.1,1.2-0.3c0.4-0.2,0.6-0.5,0.7-0.8V168h-1.4c-0.5,0-0.9,0.1-1.2,0.4c-0.3,0.2-0.4,0.5-0.4,0.9c0,0.3,0.1,0.5,0.3,0.7
			C132.8,170.1,133.1,170.2,133.4,170.2z"/>
		<path fill="#AAB8C2" d="M142.1,165.5l-0.6,0c-0.3,0-0.6,0.1-0.8,0.2c-0.2,0.2-0.4,0.4-0.5,0.6v4.8h-1.2v-6.7h1.1l0.1,1
			c0.2-0.3,0.4-0.6,0.7-0.8c0.3-0.2,0.6-0.3,1-0.3c0.1,0,0.2,0,0.3,0c0.1,0,0.1,0,0.2,0L142.1,165.5z"/>
		<path fill="#AAB8C2" d="M153.3,171.1h-5.8v-0.8l3-3.3c0.5-0.6,0.9-1.1,1.1-1.4c0.2-0.3,0.3-0.7,0.3-1.1c0-0.5-0.1-0.8-0.4-1.1
			c-0.3-0.3-0.6-0.5-1-0.5c-0.6,0-1.1,0.2-1.4,0.5s-0.4,0.8-0.4,1.3h-1.2l0,0c0-0.8,0.2-1.4,0.8-2c0.5-0.5,1.3-0.8,2.2-0.8
			c0.8,0,1.5,0.2,1.9,0.7c0.5,0.5,0.7,1.1,0.7,1.8c0,0.5-0.1,1-0.4,1.5c-0.3,0.5-0.7,1-1.2,1.6l-2.4,2.6l0,0h4.3V171.1z"/>
		<path fill="#AAB8C2" d="M160.9,167.6c0,1.2-0.3,2-0.8,2.6c-0.5,0.6-1.2,0.9-2.1,0.9c-0.9,0-1.6-0.3-2.1-0.9
			c-0.5-0.6-0.8-1.5-0.8-2.6v-2.1c0-1.1,0.3-2,0.8-2.6c0.5-0.6,1.2-0.9,2.1-0.9c0.9,0,1.6,0.3,2.1,0.9c0.5,0.6,0.8,1.5,0.8,2.6
			V167.6z M159.7,165.2c0-0.8-0.1-1.4-0.4-1.8c-0.3-0.4-0.7-0.6-1.2-0.6c-0.5,0-0.9,0.2-1.2,0.6c-0.3,0.4-0.4,1-0.4,1.8v2.6
			c0,0.8,0.1,1.4,0.4,1.8c0.3,0.4,0.7,0.6,1.2,0.6c0.5,0,0.9-0.2,1.2-0.6c0.3-0.4,0.4-1,0.4-1.8V165.2z"/>
		<path fill="#AAB8C2" d="M166.5,171.1h-1.2v-7.8l-1.8,0v-0.9l3.1-0.3V171.1z"/>
		<path fill="#AAB8C2" d="M176.6,163c-1.1,1.3-1.8,2.4-2.2,3.4s-0.7,2.2-0.8,3.6l-0.1,1h-1.2l0.1-1c0.2-1.4,0.5-2.7,1-3.8
			c0.5-1.1,1.2-2.2,2.1-3.3h-4.9v-1h6.1V163z"/>
	</g>
</g>
<path fill="#23A9E1" d="M76.7,79H30.1c-2.2,0-4-1.8-4-4V28.8c0-2.2,1.8-4,4-4h46.6c2.2,0,4,1.8,4,4V75C80.7,77.2,78.9,79,76.7,79z"
	/>
<path fill="#23A9E1" d="M388.6,278.1H32.5c-3.3,0-6-2.7-6-6v-77.1c0-3.3,2.7-6,6-6h356.1c3.3,0,6,2.7,6,6v77.1
	C394.6,275.4,391.9,278.1,388.6,278.1z"/>
<g>
	<path d="M102.7,44.5c0-0.5-0.2-1-0.5-1.3c-0.4-0.3-1-0.6-2-1c-2-0.6-3.4-1.3-4.4-2c-0.9-0.7-1.4-1.7-1.4-3.1c0-1.3,0.6-2.4,1.7-3.2
		c1.1-0.8,2.6-1.2,4.3-1.2c1.7,0,3.1,0.4,4.2,1.3c1.1,0.9,1.6,2,1.6,3.4l0,0.1h-3.5c0-0.6-0.2-1.1-0.6-1.5c-0.4-0.4-1-0.6-1.7-0.6
		c-0.7,0-1.3,0.2-1.7,0.5c-0.4,0.3-0.6,0.7-0.6,1.2c0,0.5,0.2,0.8,0.6,1.1c0.4,0.3,1.2,0.6,2.3,1c1.8,0.5,3.1,1.2,4,1.9
		s1.3,1.8,1.3,3.2c0,1.4-0.5,2.4-1.6,3.2c-1.1,0.8-2.5,1.2-4.2,1.2c-1.8,0-3.3-0.4-4.6-1.3c-1.3-0.9-1.9-2.2-1.9-3.8l0-0.1h3.5
		c0,0.9,0.2,1.5,0.7,1.9c0.5,0.4,1.2,0.6,2.2,0.6c0.7,0,1.3-0.1,1.7-0.4C102.5,45.3,102.7,44.9,102.7,44.5z"/>
	<path d="M114.8,48.6c-0.1-0.2-0.2-0.4-0.3-0.6c-0.1-0.2-0.2-0.5-0.2-0.7c-0.3,0.5-0.8,0.9-1.2,1.1c-0.5,0.3-1.1,0.4-1.8,0.4
		c-1.1,0-2-0.3-2.7-1s-1-1.5-1-2.5c0-1.1,0.4-2,1.3-2.7c0.9-0.6,2.2-0.9,3.9-0.9h1.3v-0.8c0-0.5-0.1-0.9-0.3-1.1
		c-0.2-0.3-0.6-0.4-1.1-0.4c-0.4,0-0.7,0.1-0.9,0.3c-0.2,0.2-0.3,0.5-0.3,0.9l-3.5,0l0-0.1c0-1.1,0.4-1.9,1.3-2.6
		c0.9-0.7,2.2-1.1,3.7-1.1c1.4,0,2.6,0.4,3.5,1.1c0.9,0.7,1.3,1.7,1.3,3.1v4.4c0,0.6,0.1,1.2,0.2,1.7c0.1,0.5,0.3,1.1,0.5,1.6
		L114.8,48.6z M112.4,46.2c0.4,0,0.7-0.1,1-0.2c0.3-0.1,0.5-0.3,0.7-0.6v-1.8h-1.3c-0.6,0-1,0.1-1.2,0.4c-0.3,0.3-0.4,0.6-0.4,1.1
		c0,0.3,0.1,0.6,0.3,0.8C111.7,46.1,112,46.2,112.4,46.2z"/>
	<path d="M120.5,48.6v-9.1h-1.7V37h1.7v-1.2c0-1.3,0.4-2.4,1.2-3.1c0.8-0.7,1.9-1.1,3.4-1.1c0.3,0,0.5,0,0.8,0.1
		c0.3,0,0.6,0.1,1,0.2l-0.3,2.7c-0.2,0-0.4-0.1-0.5-0.1c-0.2,0-0.3,0-0.6,0c-0.4,0-0.8,0.1-1,0.4c-0.2,0.2-0.4,0.6-0.4,1V37h2.2v2.5
		h-2.2v9.1H120.5z"/>
	<path d="M132.7,48.8c-1.7,0-3.1-0.5-4.1-1.6c-1-1.1-1.5-2.4-1.5-4v-0.4c0-1.8,0.5-3.2,1.4-4.3c0.9-1.1,2.2-1.7,4-1.7
		c1.6,0,2.8,0.5,3.7,1.4c0.9,0.9,1.3,2.2,1.3,3.8v1.9h-6.6l0,0.1c0.1,0.6,0.3,1.1,0.7,1.5s0.9,0.6,1.6,0.6c0.7,0,1.2-0.1,1.6-0.2
		c0.4-0.1,0.9-0.3,1.6-0.6l0.9,2.2c-0.5,0.4-1.2,0.7-2,0.9C134.5,48.7,133.7,48.8,132.7,48.8z M132.5,39.6c-0.5,0-0.9,0.2-1.2,0.6
		c-0.3,0.4-0.4,0.9-0.5,1.5l0,0.1h3.1v-0.3c0-0.6-0.1-1-0.4-1.3C133.4,39.7,133,39.6,132.5,39.6z"/>
	<path d="M145.6,40.2l-1.3,0c-0.4,0-0.8,0.1-1,0.2c-0.3,0.1-0.5,0.3-0.6,0.6v7.6h-3.6V37h3.4l0.1,1.7c0.2-0.6,0.6-1.1,1-1.4
		c0.4-0.3,0.9-0.5,1.4-0.5c0.2,0,0.3,0,0.5,0c0.2,0,0.3,0.1,0.5,0.1L145.6,40.2z"/>
	<path d="M151,43.2v5.3h-3.6V33h6.3c1.8,0,3.3,0.5,4.4,1.4c1.1,0.9,1.6,2.2,1.6,3.7c0,1.5-0.5,2.8-1.6,3.7s-2.5,1.4-4.4,1.4H151z
		 M151,40.5h2.7c0.8,0,1.4-0.2,1.8-0.6c0.4-0.4,0.6-1,0.6-1.7c0-0.7-0.2-1.3-0.6-1.7c-0.4-0.4-1-0.7-1.8-0.7H151V40.5z"/>
	<path d="M161,42.7c0-1.7,0.5-3.2,1.5-4.3c1-1.1,2.4-1.6,4.1-1.6c1.8,0,3.1,0.5,4.1,1.6c1,1.1,1.5,2.5,1.5,4.3v0.2
		c0,1.7-0.5,3.2-1.5,4.3c-1,1.1-2.4,1.6-4.1,1.6c-1.8,0-3.2-0.5-4.1-1.6c-1-1.1-1.5-2.5-1.5-4.3V42.7z M164.6,42.9
		c0,1,0.2,1.7,0.5,2.3c0.3,0.6,0.8,0.8,1.5,0.8c0.7,0,1.2-0.3,1.5-0.8c0.3-0.6,0.5-1.3,0.5-2.3v-0.2c0-0.9-0.2-1.7-0.5-2.3
		c-0.3-0.6-0.8-0.8-1.5-0.8c-0.7,0-1.2,0.3-1.5,0.9c-0.3,0.6-0.5,1.3-0.5,2.3V42.9z"/>
	<path d="M179.8,45.3c0-0.3-0.2-0.5-0.5-0.8c-0.3-0.2-0.9-0.4-1.8-0.6c-1.3-0.3-2.4-0.7-3-1.2c-0.7-0.6-1-1.3-1-2.3
		c0-1,0.4-1.9,1.3-2.6c0.9-0.7,2-1.1,3.5-1.1c1.5,0,2.8,0.3,3.7,1c0.9,0.7,1.3,1.6,1.3,2.7l0,0.1h-3.5c0-0.5-0.1-0.8-0.3-1
		c-0.2-0.2-0.6-0.4-1.1-0.4c-0.4,0-0.7,0.1-1,0.3c-0.3,0.2-0.4,0.5-0.4,0.8c0,0.3,0.1,0.6,0.4,0.8c0.3,0.2,0.9,0.4,1.8,0.6
		c1.4,0.3,2.5,0.7,3.1,1.2c0.7,0.6,1,1.3,1,2.3c0,1-0.5,1.9-1.4,2.6c-0.9,0.7-2.1,1-3.7,1c-1.6,0-2.8-0.4-3.7-1.2
		c-0.9-0.8-1.4-1.7-1.3-2.7l0-0.1h3.3c0,0.5,0.2,0.9,0.5,1.2c0.3,0.2,0.8,0.4,1.4,0.4c0.5,0,0.9-0.1,1.1-0.3
		C179.7,46,179.8,45.7,179.8,45.3z"/>
	<path d="M189.3,34.1V37h2v2.5h-2v5.3c0,0.4,0.1,0.7,0.3,0.9c0.2,0.2,0.4,0.3,0.7,0.3c0.2,0,0.4,0,0.5,0c0.1,0,0.3,0,0.5-0.1
		l0.3,2.7c-0.4,0.1-0.8,0.2-1.1,0.2s-0.7,0.1-1.1,0.1c-1.2,0-2.1-0.3-2.7-1c-0.6-0.6-0.9-1.6-0.9-3v-5.3H184V37h1.6v-2.9H189.3z"/>
</g>
<g>
	<path fill="#AAB8C2" d="M106.6,64.7c0,1.1-0.4,2-0.9,2.8c-0.6,0.8-1.4,1.2-2.6,1.2c-0.4,0-0.7-0.1-1-0.3c-0.3-0.2-0.5-0.5-0.6-0.9
		c-0.3,0.4-0.6,0.7-0.9,0.9c-0.4,0.2-0.8,0.3-1.3,0.3c-0.6,0-1.1-0.3-1.5-0.9c-0.4-0.6-0.5-1.4-0.4-2.4c0.1-1.3,0.5-2.4,1.1-3.2
		c0.6-0.8,1.3-1.2,2.2-1.2c0.5,0,1,0.1,1.3,0.2c0.3,0.1,0.7,0.3,1.1,0.6l0,0h0l-0.4,4.5c0,0.6,0,1,0.2,1.2c0.2,0.2,0.4,0.3,0.6,0.3
		c0.6,0,1.1-0.3,1.5-0.9c0.4-0.6,0.6-1.3,0.6-2.2c0.1-2-0.3-3.5-1.1-4.6c-0.8-1.1-2.1-1.6-3.8-1.6c-1.6,0-2.9,0.6-3.8,1.8
		c-1,1.2-1.5,2.7-1.6,4.6c-0.1,1.9,0.3,3.5,1.2,4.6c0.9,1.1,2.1,1.7,3.7,1.7c0.5,0,0.9-0.1,1.4-0.2c0.5-0.1,0.9-0.3,1.2-0.4l0.3,0.8
		c-0.3,0.2-0.8,0.4-1.3,0.5c-0.5,0.1-1.1,0.2-1.6,0.2c-2,0-3.5-0.6-4.5-1.9c-1.1-1.3-1.6-3-1.5-5.3c0.1-2.2,0.7-3.9,1.9-5.3
		c1.2-1.4,2.7-2,4.6-2c1.9,0,3.4,0.6,4.5,1.9C106.2,60.7,106.7,62.5,106.6,64.7z M98.8,65.3c-0.1,0.7,0,1.3,0.2,1.7
		c0.2,0.4,0.4,0.6,0.8,0.6c0.3,0,0.6-0.1,0.9-0.2s0.5-0.4,0.7-0.7c0-0.1,0-0.1,0-0.2c0-0.1,0-0.1,0-0.2l0.4-4.1
		c-0.1-0.1-0.3-0.1-0.4-0.1c-0.1,0-0.3-0.1-0.5-0.1c-0.6,0-1.1,0.3-1.5,0.8C99.1,63.3,98.9,64.2,98.8,65.3z"/>
	<path fill="#AAB8C2" d="M114.9,65.7c0-0.5-0.2-0.9-0.6-1.3c-0.4-0.3-1.1-0.6-2.1-0.9c-1.2-0.3-2.1-0.7-2.8-1.3
		c-0.7-0.6-1-1.2-1-2.1c0-0.9,0.4-1.6,1.1-2.2c0.7-0.6,1.6-0.9,2.8-0.9c1.2,0,2.2,0.3,2.9,1c0.7,0.7,1.1,1.5,1.1,2.3l0,0h-1.4
		c0-0.7-0.2-1.2-0.7-1.6c-0.4-0.4-1.1-0.6-1.9-0.6c-0.8,0-1.3,0.2-1.7,0.5c-0.4,0.3-0.6,0.8-0.6,1.3c0,0.5,0.2,0.9,0.7,1.2
		c0.4,0.3,1.1,0.6,2.1,0.9c1.2,0.3,2.1,0.7,2.7,1.3c0.6,0.6,0.9,1.3,0.9,2.1c0,0.9-0.4,1.6-1.1,2.2c-0.7,0.5-1.7,0.8-2.9,0.8
		c-1.1,0-2.1-0.3-3-0.9s-1.3-1.4-1.3-2.4l0,0h1.4c0,0.7,0.3,1.3,0.8,1.6c0.5,0.4,1.2,0.6,2,0.6c0.8,0,1.4-0.2,1.8-0.5
		S114.9,66.3,114.9,65.7z"/>
	<path fill="#AAB8C2" d="M123.5,68.6c-0.1-0.3-0.1-0.5-0.1-0.7c0-0.2,0-0.4-0.1-0.6c-0.3,0.4-0.7,0.7-1.1,1
		c-0.5,0.3-0.9,0.4-1.5,0.4c-0.9,0-1.5-0.2-2-0.7c-0.5-0.4-0.7-1.1-0.7-1.8c0-0.8,0.3-1.4,1-1.9c0.6-0.5,1.5-0.7,2.6-0.7h1.7v-0.8
		c0-0.5-0.1-0.9-0.4-1.2c-0.3-0.3-0.7-0.4-1.3-0.4c-0.5,0-0.9,0.1-1.2,0.4c-0.3,0.2-0.5,0.5-0.5,0.9h-1.4l0,0c0-0.6,0.3-1.2,0.9-1.7
		c0.6-0.5,1.4-0.8,2.3-0.8c0.9,0,1.7,0.2,2.3,0.7c0.6,0.5,0.9,1.2,0.9,2.1v4c0,0.3,0,0.6,0,0.9c0,0.3,0.1,0.6,0.2,0.8H123.5z
		 M120.9,67.4c0.5,0,1-0.1,1.5-0.4c0.4-0.3,0.7-0.6,0.9-1v-1.4h-1.7c-0.6,0-1.1,0.2-1.5,0.5c-0.4,0.3-0.6,0.7-0.6,1.1
		c0,0.4,0.1,0.7,0.3,0.9C120.1,67.3,120.5,67.4,120.9,67.4z"/>
	<path fill="#AAB8C2" d="M127.6,68.6v-7.2h-1.3v-1.1h1.3v-1.1c0-0.9,0.2-1.6,0.7-2.1c0.5-0.5,1.1-0.7,1.9-0.7c0.2,0,0.4,0,0.5,0
		s0.4,0.1,0.6,0.1l-0.2,1.2c-0.1,0-0.2,0-0.3-0.1c-0.1,0-0.3,0-0.4,0c-0.4,0-0.8,0.1-1,0.4c-0.2,0.3-0.3,0.6-0.3,1.2v1.1h1.7v1.1
		h-1.7v7.2H127.6z"/>
	<path fill="#AAB8C2" d="M135.7,68.7c-1.2,0-2.1-0.4-2.8-1.2c-0.7-0.8-1-1.8-1-3v-0.3c0-1.2,0.4-2.2,1.1-3s1.5-1.2,2.5-1.2
		c1.1,0,2,0.3,2.6,1c0.6,0.7,0.9,1.6,0.9,2.7v0.9h-5.4l0,0c0,0.8,0.2,1.5,0.6,2c0.4,0.5,0.9,0.8,1.6,0.8c0.5,0,1-0.1,1.4-0.2
		c0.4-0.1,0.7-0.3,1-0.6l0.6,1c-0.3,0.3-0.7,0.5-1.2,0.7C137,68.6,136.4,68.7,135.7,68.7z M135.5,61.2c-0.5,0-0.9,0.2-1.3,0.6
		s-0.6,1-0.7,1.6l0,0h3.8v-0.2c0-0.6-0.2-1.1-0.5-1.5C136.6,61.4,136.1,61.2,135.5,61.2z"/>
	<path fill="#AAB8C2" d="M144.6,61.5l-0.8,0c-0.4,0-0.7,0.1-1,0.3c-0.3,0.2-0.5,0.5-0.6,0.8v6h-1.5v-8.3h1.4l0.1,1.2
		c0.2-0.4,0.5-0.8,0.9-1c0.3-0.2,0.7-0.4,1.2-0.4c0.1,0,0.2,0,0.3,0c0.1,0,0.2,0,0.3,0.1L144.6,61.5z"/>
	<path fill="#AAB8C2" d="M147.8,64v4.5h-1.5V57.3h4.3c1.2,0,2.1,0.3,2.8,0.9c0.7,0.6,1,1.4,1,2.4c0,1-0.3,1.8-1,2.4
		c-0.7,0.6-1.6,0.9-2.8,0.9H147.8z M147.8,62.9h2.8c0.8,0,1.3-0.2,1.7-0.6c0.4-0.4,0.6-0.9,0.6-1.5s-0.2-1.1-0.6-1.6
		c-0.4-0.4-0.9-0.6-1.7-0.6h-2.8V62.9z"/>
	<path fill="#AAB8C2" d="M155.7,64.3c0-1.2,0.3-2.2,1-3c0.7-0.8,1.6-1.2,2.7-1.2c1.2,0,2.1,0.4,2.7,1.2s1,1.8,1,3.1v0.2
		c0,1.2-0.3,2.3-1,3.1c-0.7,0.8-1.6,1.2-2.7,1.2c-1.2,0-2.1-0.4-2.7-1.2c-0.7-0.8-1-1.8-1-3V64.3z M157.2,64.5
		c0,0.9,0.2,1.6,0.6,2.2c0.4,0.6,0.9,0.9,1.7,0.9c0.7,0,1.3-0.3,1.7-0.9c0.4-0.6,0.6-1.3,0.6-2.2v-0.2c0-0.9-0.2-1.6-0.6-2.2
		c-0.4-0.6-0.9-0.9-1.7-0.9c-0.7,0-1.3,0.3-1.6,0.9c-0.4,0.6-0.6,1.3-0.6,2.2V64.5z"/>
	<path fill="#AAB8C2" d="M169.9,66.3c0-0.3-0.1-0.6-0.4-0.8c-0.3-0.2-0.7-0.4-1.4-0.6c-1-0.2-1.8-0.5-2.3-0.9
		c-0.5-0.4-0.8-0.9-0.8-1.5c0-0.7,0.3-1.3,0.9-1.7c0.6-0.5,1.3-0.7,2.3-0.7c1,0,1.7,0.2,2.3,0.7c0.6,0.5,0.8,1.1,0.8,1.8l0,0h-1.4
		c0-0.4-0.2-0.7-0.5-1c-0.3-0.3-0.7-0.4-1.2-0.4c-0.5,0-0.9,0.1-1.2,0.4c-0.3,0.2-0.4,0.5-0.4,0.9c0,0.3,0.1,0.6,0.3,0.8
		c0.2,0.2,0.7,0.4,1.4,0.5c1.1,0.2,1.8,0.5,2.4,0.9c0.5,0.4,0.8,0.9,0.8,1.6c0,0.7-0.3,1.3-0.9,1.8c-0.6,0.5-1.4,0.7-2.3,0.7
		c-1.1,0-1.9-0.3-2.5-0.8c-0.6-0.5-0.9-1.2-0.9-1.9l0,0h1.4c0,0.5,0.2,0.9,0.6,1.2c0.4,0.2,0.8,0.4,1.3,0.4c0.5,0,1-0.1,1.3-0.3
		C169.7,67,169.9,66.7,169.9,66.3z"/>
	<path fill="#AAB8C2" d="M175.3,58.2v2h1.6v1.1h-1.6v5.1c0,0.4,0.1,0.7,0.2,0.8c0.2,0.2,0.4,0.2,0.6,0.2c0.1,0,0.2,0,0.3,0
		c0.1,0,0.2,0,0.3-0.1l0.2,1c-0.1,0.1-0.3,0.2-0.5,0.2c-0.2,0.1-0.4,0.1-0.7,0.1c-0.6,0-1.1-0.2-1.5-0.6c-0.4-0.4-0.5-1-0.5-1.8
		v-5.1h-1.3v-1.1h1.3v-2H175.3z"/>
</g>
<g>
	<path d="M29.2,117.9h-2v-14.8h2V117.9z"/>
	<path d="M34.5,104.1l-1.6,3.5h-1l0.6-3.5v-2h2V104.1z"/>
	<path d="M38.4,107l0.1,1.4c0.4-0.5,0.8-0.9,1.4-1.2c0.5-0.3,1.2-0.4,1.9-0.4s1.4,0.2,1.9,0.5s0.9,0.8,1.2,1.5
		c0.3-0.6,0.8-1.1,1.4-1.5c0.6-0.4,1.2-0.5,2-0.5c1.1,0,2,0.4,2.6,1.2s1,1.9,1,3.5v6.6h-2v-6.6c0-1.1-0.2-1.8-0.6-2.3
		c-0.4-0.4-0.9-0.7-1.7-0.7c-0.7,0-1.2,0.2-1.7,0.7c-0.4,0.5-0.7,1.1-0.7,1.8v0.1v7h-2v-6.6c0-1-0.2-1.8-0.6-2.3
		c-0.4-0.5-0.9-0.7-1.6-0.7c-0.6,0-1.1,0.1-1.5,0.4c-0.4,0.2-0.7,0.6-0.9,1.1v8.1h-2v-11H38.4z"/>
	<path d="M60.7,117.9v-9.5H59V107h1.7v-1.4c0-1.2,0.3-2.1,0.9-2.7c0.6-0.6,1.5-1,2.6-1c0.2,0,0.5,0,0.7,0.1c0.2,0,0.5,0.1,0.8,0.2
		l-0.2,1.5c-0.1,0-0.3,0-0.4-0.1c-0.2,0-0.4,0-0.5,0c-0.6,0-1,0.2-1.3,0.5c-0.3,0.3-0.4,0.9-0.4,1.5v1.4H65v1.5h-2.3v9.5H60.7z"/>
	<path d="M72.2,108.7l-1-0.1c-0.5,0-1,0.1-1.3,0.4c-0.4,0.2-0.6,0.6-0.8,1.1v7.8h-2v-11h1.8l0.2,1.6c0.3-0.6,0.7-1,1.2-1.3
		c0.5-0.3,1-0.5,1.6-0.5c0.1,0,0.3,0,0.4,0c0.1,0,0.2,0,0.3,0.1L72.2,108.7z"/>
	<path d="M73.5,112.3c0-1.6,0.4-3,1.3-4c0.9-1.1,2.1-1.6,3.6-1.6c1.5,0,2.7,0.5,3.6,1.6c0.9,1,1.3,2.4,1.3,4v0.2c0,1.6-0.4,3-1.3,4
		c-0.9,1-2.1,1.6-3.6,1.6c-1.5,0-2.7-0.5-3.6-1.6c-0.9-1-1.3-2.4-1.3-4V112.3z M75.5,112.6c0,1.2,0.2,2.1,0.7,2.9
		c0.5,0.8,1.2,1.1,2.2,1.1c1,0,1.7-0.4,2.2-1.1c0.5-0.8,0.7-1.7,0.7-2.9v-0.2c0-1.1-0.2-2.1-0.7-2.9c-0.5-0.8-1.2-1.1-2.2-1.1
		c-1,0-1.7,0.4-2.2,1.1c-0.5,0.8-0.7,1.7-0.7,2.9V112.6z"/>
	<path d="M87.5,107l0.1,1.4c0.4-0.5,0.8-0.9,1.4-1.2c0.5-0.3,1.2-0.4,1.9-0.4s1.4,0.2,1.9,0.5s0.9,0.8,1.2,1.5
		c0.3-0.6,0.8-1.1,1.4-1.5c0.6-0.4,1.2-0.5,2-0.5c1.1,0,2,0.4,2.6,1.2s1,1.9,1,3.5v6.6h-2v-6.6c0-1.1-0.2-1.8-0.6-2.3
		c-0.4-0.4-0.9-0.7-1.7-0.7c-0.7,0-1.2,0.2-1.7,0.7c-0.4,0.5-0.7,1.1-0.7,1.8v0.1v7h-2v-6.6c0-1-0.2-1.8-0.6-2.3
		c-0.4-0.5-0.9-0.7-1.6-0.7c-0.6,0-1.1,0.1-1.5,0.4c-0.4,0.2-0.7,0.6-0.9,1.1v8.1h-2v-11H87.5z"/>
	<path d="M111.7,104.3v2.6h2.1v1.5h-2.1v6.7c0,0.5,0.1,0.9,0.3,1.1c0.2,0.2,0.5,0.3,0.8,0.3c0.1,0,0.2,0,0.4,0
		c0.1,0,0.3-0.1,0.4-0.1l0.3,1.4c-0.1,0.1-0.4,0.2-0.7,0.3c-0.3,0.1-0.6,0.1-0.9,0.1c-0.8,0-1.5-0.2-1.9-0.7s-0.7-1.3-0.7-2.3v-6.7
		H108V107h1.7v-2.6H111.7z"/>
	<path d="M118.2,108.4c0.4-0.5,0.8-0.9,1.4-1.2c0.5-0.3,1.2-0.4,1.8-0.4c1.2,0,2.1,0.4,2.7,1.1c0.7,0.7,1,1.8,1,3.2v6.9h-2V111
		c0-0.9-0.2-1.6-0.6-2c-0.4-0.4-1-0.6-1.7-0.6c-0.6,0-1.1,0.1-1.5,0.4c-0.5,0.3-0.8,0.6-1.1,1.1v8.1h-2v-15.8h2V108.4z"/>
	<path d="M132.6,118.1c-1.5,0-2.7-0.5-3.6-1.5c-0.9-1-1.4-2.3-1.4-4v-0.4c0-1.6,0.5-2.9,1.4-3.9c0.9-1,2-1.6,3.3-1.6
		c1.5,0,2.6,0.4,3.4,1.3c0.8,0.9,1.1,2.1,1.1,3.6v1.2h-7.1l0,0c0,1.1,0.3,1.9,0.8,2.6c0.5,0.7,1.2,1,2.2,1c0.7,0,1.3-0.1,1.8-0.3
		c0.5-0.2,1-0.5,1.3-0.8l0.8,1.3c-0.4,0.4-0.9,0.7-1.6,1C134.3,118,133.5,118.1,132.6,118.1z M132.3,108.3c-0.7,0-1.2,0.3-1.7,0.8
		c-0.5,0.6-0.8,1.3-0.9,2.1l0,0h5.1v-0.3c0-0.8-0.2-1.4-0.6-2C133.7,108.6,133.1,108.3,132.3,108.3z"/>
	<path d="M147.1,103.2l4.7,12h0.1l4.7-12h2.6v14.8h-2v-5.8l0.2-6l-0.1,0l-4.8,11.8h-1.3l-4.8-11.8l-0.1,0l0.2,6v5.8h-2v-14.8H147.1z
		"/>
	<path d="M164.5,104.1h-2v-2h2V104.1z M164.5,117.9h-2v-11h2V117.9z"/>
	<path d="M167.2,112.6c0-1.8,0.4-3.2,1.1-4.3c0.8-1.1,1.8-1.6,3.2-1.6c0.6,0,1.2,0.1,1.7,0.4c0.5,0.2,0.9,0.6,1.3,1v-6h2v15.8h-1.6
		l-0.2-1.3c-0.4,0.5-0.8,0.9-1.3,1.2c-0.5,0.3-1.1,0.4-1.8,0.4c-1.3,0-2.4-0.5-3.1-1.5c-0.8-1-1.1-2.2-1.1-3.8V112.6z M169.2,112.9
		c0,1.1,0.2,2,0.7,2.7c0.5,0.7,1.2,1,2.1,1c0.6,0,1.1-0.1,1.5-0.4c0.4-0.3,0.7-0.6,1-1.1v-5.1c-0.3-0.5-0.6-0.8-1-1.1
		c-0.4-0.3-0.9-0.4-1.5-0.4c-1,0-1.7,0.4-2.1,1.2c-0.5,0.8-0.7,1.8-0.7,3.1V112.9z"/>
	<path d="M182.2,113.9l0.2,1.3h0.1l0.3-1.3l2.2-7h1.6l2.2,7l0.3,1.5h0.1l0.3-1.5l1.7-7h2l-3.2,11h-1.6l-2.1-6.7l-0.5-1.9l-0.1,0
		l-0.4,1.9l-2.1,6.7h-1.6l-3.2-11h2L182.2,113.9z"/>
	<path d="M199.7,118.1c-1.5,0-2.7-0.5-3.6-1.5c-0.9-1-1.4-2.3-1.4-4v-0.4c0-1.6,0.5-2.9,1.4-3.9c0.9-1,2-1.6,3.3-1.6
		c1.5,0,2.6,0.4,3.4,1.3c0.8,0.9,1.1,2.1,1.1,3.6v1.2h-7.1l0,0c0,1.1,0.3,1.9,0.8,2.6c0.5,0.7,1.2,1,2.2,1c0.7,0,1.3-0.1,1.8-0.3
		c0.5-0.2,1-0.5,1.3-0.8l0.8,1.3c-0.4,0.4-0.9,0.7-1.6,1C201.3,118,200.6,118.1,199.7,118.1z M199.4,108.3c-0.7,0-1.2,0.3-1.7,0.8
		c-0.5,0.6-0.8,1.3-0.9,2.1l0,0h5.1v-0.3c0-0.8-0.2-1.4-0.6-2C200.8,108.6,200.2,108.3,199.4,108.3z"/>
	<path d="M212.5,115c0-0.4-0.2-0.8-0.5-1.1c-0.3-0.3-1-0.5-1.9-0.7c-1.3-0.3-2.3-0.7-3-1.2c-0.7-0.5-1-1.2-1-2
		c0-0.9,0.4-1.6,1.1-2.3c0.8-0.6,1.7-0.9,3-0.9c1.3,0,2.3,0.3,3,1c0.8,0.7,1.1,1.5,1.1,2.4l0,0.1h-1.9c0-0.5-0.2-0.9-0.6-1.3
		s-0.9-0.6-1.6-0.6c-0.7,0-1.2,0.2-1.6,0.5s-0.5,0.7-0.5,1.1c0,0.4,0.2,0.8,0.5,1c0.3,0.2,0.9,0.5,1.9,0.7c1.4,0.3,2.4,0.7,3.1,1.2
		s1,1.2,1,2.1c0,1-0.4,1.8-1.2,2.4s-1.8,0.9-3.1,0.9c-1.4,0-2.5-0.4-3.3-1.1s-1.2-1.5-1.1-2.5l0-0.1h1.9c0,0.7,0.3,1.2,0.8,1.5
		c0.5,0.3,1.1,0.5,1.7,0.5c0.7,0,1.3-0.1,1.7-0.4S212.5,115.5,212.5,115z"/>
	<path d="M219.6,104.3v2.6h2.1v1.5h-2.1v6.7c0,0.5,0.1,0.9,0.3,1.1c0.2,0.2,0.5,0.3,0.8,0.3c0.1,0,0.2,0,0.4,0
		c0.1,0,0.3-0.1,0.4-0.1l0.3,1.4c-0.1,0.1-0.4,0.2-0.7,0.3c-0.3,0.1-0.6,0.1-0.9,0.1c-0.8,0-1.5-0.2-1.9-0.7
		c-0.5-0.5-0.7-1.3-0.7-2.3v-6.7h-1.7V107h1.7v-2.6H219.6z"/>
	<path d="M226.3,117.9h-2v-2.1h2V117.9z"/>
</g>
<g>
	<g>
		<path fill="#AAB8C2" d="M163.3,310.2h-5.8v-0.8l3-3.3c0.5-0.6,0.9-1.1,1.1-1.4s0.3-0.7,0.3-1.1c0-0.5-0.1-0.8-0.4-1.1
			c-0.3-0.3-0.6-0.5-1-0.5c-0.6,0-1.1,0.2-1.4,0.5c-0.3,0.3-0.4,0.8-0.4,1.3h-1.2l0,0c0-0.8,0.2-1.4,0.8-2c0.5-0.5,1.3-0.8,2.2-0.8
			c0.8,0,1.5,0.2,1.9,0.7c0.5,0.5,0.7,1.1,0.7,1.8c0,0.5-0.1,1-0.4,1.5c-0.3,0.5-0.7,1-1.2,1.6l-2.4,2.6l0,0h4.3V310.2z"/>
		<path fill="#AAB8C2" d="M169.4,307.2h1.2v1h-1.2v2.1h-1.2v-2.1h-4.1v-0.7l4-6.3h1.3V307.2z M165.5,307.2h2.7V303l0,0l-0.1,0.3
			L165.5,307.2z"/>
		<path fill="#AAB8C2" d="M177.5,310.2h-5.8v-0.8l3-3.3c0.5-0.6,0.9-1.1,1.1-1.4s0.3-0.7,0.3-1.1c0-0.5-0.1-0.8-0.4-1.1
			c-0.3-0.3-0.6-0.5-1-0.5c-0.6,0-1.1,0.2-1.4,0.5s-0.4,0.8-0.4,1.3h-1.2l0,0c0-0.8,0.2-1.4,0.8-2c0.5-0.5,1.3-0.8,2.2-0.8
			c0.8,0,1.5,0.2,1.9,0.7c0.5,0.5,0.7,1.1,0.7,1.8c0,0.5-0.1,1-0.4,1.5c-0.3,0.5-0.7,1-1.2,1.6l-2.4,2.6l0,0h4.3V310.2z"/>
	</g>
</g>
<g>
	<g>
		<path fill="#AAB8C2" d="M251.7,310.2h-5.8v-0.8l3-3.3c0.5-0.6,0.9-1.1,1.1-1.4s0.3-0.7,0.3-1.1c0-0.5-0.1-0.8-0.4-1.1
			c-0.3-0.3-0.6-0.5-1-0.5c-0.6,0-1.1,0.2-1.4,0.5s-0.4,0.8-0.4,1.3h-1.2l0,0c0-0.8,0.2-1.4,0.8-2c0.5-0.5,1.3-0.8,2.2-0.8
			c0.8,0,1.5,0.2,1.9,0.7c0.5,0.5,0.7,1.1,0.7,1.8c0,0.5-0.1,1-0.4,1.5c-0.3,0.5-0.7,1-1.2,1.6l-2.4,2.6l0,0h4.3V310.2z"/>
		<path fill="#AAB8C2" d="M257.9,307.2h1.2v1h-1.2v2.1h-1.2v-2.1h-4.1v-0.7l4-6.3h1.3V307.2z M253.9,307.2h2.7V303l0,0l-0.1,0.3
			L253.9,307.2z"/>
		<path fill="#AAB8C2" d="M266,310.2h-5.8v-0.8l3-3.3c0.5-0.6,0.9-1.1,1.1-1.4c0.2-0.3,0.3-0.7,0.3-1.1c0-0.5-0.1-0.8-0.4-1.1
			c-0.3-0.3-0.6-0.5-1-0.5c-0.6,0-1.1,0.2-1.4,0.5s-0.4,0.8-0.4,1.3h-1.2l0,0c0-0.8,0.2-1.4,0.8-2c0.5-0.5,1.3-0.8,2.2-0.8
			c0.8,0,1.5,0.2,1.9,0.7c0.5,0.5,0.7,1.1,0.7,1.8c0,0.5-0.1,1-0.4,1.5c-0.3,0.5-0.7,1-1.2,1.6l-2.4,2.6l0,0h4.3V310.2z"/>
	</g>
</g>
<circle fill="#AAB8C2" cx="308.9" cy="306.7" r="3.2"/>
<circle fill="#AAB8C2" cx="317" cy="306.7" r="3.2"/>
<circle fill="#AAB8C2" cx="325.1" cy="306.7" r="3.2"/>
<path fill="#AAB8C2" d="M223.6,314.6c0,0-8.2-5.8-8.2-12.1c0,0,0-3.7,4.1-3.7s4.1,2.6,4.1,2.6s1.7-2.6,4.9-2.6s3.5,2,3.6,3.3
	C232.3,303.4,232.7,307.7,223.6,314.6z"/>
<g>
	<polygon fill="#AAB8C2" points="120.4,307.3 131.4,307.3 125.9,299.8 	"/>
	<rect x="123.6" y="306.6" fill="#AAB8C2" width="4.5" height="7.3"/>
	<rect x="125.2" y="310.2" fill="#AAB8C2" width="9.7" height="3.7"/>
</g>
<g>
	<polygon fill="#AAB8C2" points="145.5,306.4 134.6,306.4 140,313.9 	"/>
	<rect x="137.9" y="299.8" fill="#AAB8C2" width="4.5" height="7.3"/>
	<rect x="131.1" y="299.8" fill="#AAB8C2" width="9.7" height="3.7"/>
</g>
<g>
	<polygon fill="#AAB8C2" points="40.5,299.1 40.5,312.9 31.1,306 	"/>
	<path fill="#AAB8C2" d="M46.5,312.9h4c0,0,0.6-5.8-3.3-7.9c-3.9-2.2-8.1-1.4-8.1-1.4v3.7c0,0,3.8-0.5,5.7,0.9
		C46.8,309.6,46.5,312.9,46.5,312.9z"/>
</g>
<g>
	<g>
		<circle fill="#FFFFFF" cx="53.4" cy="52.6" r="19.7"/>
		<circle fill="none" stroke="#23A9E1" stroke-miterlimit="10" cx="53.4" cy="52.6" r="19.7"/>
	</g>
	<g>
		<path fill="#23A9E1" d="M53.2,36.1c-9.2,0-16.6,7.5-16.6,16.6S44,69.3,53.2,69.3s16.6-7.5,16.6-16.6S62.3,36.1,53.2,36.1z
			 M53.2,36.6c8.9,0,16.1,7.2,16.1,16.1c0,4.1-1.6,7.9-4.1,10.7l-6.8-2.6c0,0-1.3-0.6-1.4-1.9c0-0.1-0.1-0.2-0.3-0.2h-0.7
			c0.5-0.6,1.2-1.5,1.2-1.9c0-0.4,0.1-1.1,0.1-1.3c0-0.1,0.1-0.1,0.2-0.1c0.1,0,0.2,0,0.3,0c0.1-0.1,1.5-1.5,1.1-3.5
			c0-0.1-0.1-0.2-0.2-0.3c-0.1-0.1-0.3-0.1-0.5-0.1c0-0.3,0.1-0.7,0.3-1.3c0.4-1,0.5-2.7,0-3.3c-0.1-0.1-0.2-0.3-0.4-0.5
			c-0.4-0.5-1-1.2-1.8-1.7c-1.1-0.8-2.2-1.1-4-1.1c-1.7,0-2.1,0.4-2.6,0.9c-0.4,0.2-2.1,1.3-2.3,2.3c-0.2,1,0.6,4,0.8,4.6
			c0,0.1-0.1,0.2-0.1,0.2c-0.4,0-0.6,0.2-0.7,0.7c-0.1,0.5-0.1,1.2,0,1.6c0.1,0.4,0.5,1.5,1.3,1.9c0.1,0,0.2,0.2,0.2,0.3
			c0,0.7,0,1.2,0.2,1.4c0.1,0.2,0.8,1.1,1.1,1.6h-0.6c-0.1,0-0.1,0-0.2,0.1c0,0.1-0.1,0.1-0.1,0.2c0,0.2,0,0.9-0.4,1.1
			c-0.4,0.2-5.1,2.1-7.7,3.1c-2.4-2.8-3.9-6.5-3.9-10.5C37.1,43.8,44.3,36.6,53.2,36.6z M53.2,68.8c-4.7,0-8.9-2-11.8-5.2
			c1.5-0.6,7.1-2.8,7.6-3c0.5-0.3,0.6-0.9,0.6-1.3h0.9c0.1,0,0.2-0.1,0.2-0.1c0-0.1,0-0.2,0-0.3l-0.1-0.2c-0.1-0.1-1.1-1.6-1.2-1.8
			c0-0.1-0.1-0.3-0.1-1.1c0-0.5-0.4-0.7-0.5-0.8c0,0,0,0,0,0c-0.5-0.2-0.9-1-1-1.4c-0.1-0.4-0.1-1.1,0-1.4C47.8,52,47.8,52,48,52
			c0.5-0.1,0.6-0.6,0.6-0.7c0,0,0-0.1,0-0.1c-0.3-1-1-3.6-0.8-4.4c0.2-0.7,1.6-1.7,2.1-2c0,0,0.1,0,0.1-0.1l0,0
			c0.4-0.4,0.6-0.8,2.2-0.8c1.7,0,2.7,0.3,3.7,1c0.8,0.6,1.3,1.2,1.7,1.7c0.2,0.2,0.3,0.4,0.4,0.5c0.3,0.3,0.3,1.7-0.1,2.8
			c-0.4,1.1-0.3,1.8-0.3,1.8c0,0.1,0,0.2,0.1,0.2c0.1,0,0.1,0.1,0.2,0c0.3-0.1,0.4,0,0.4,0c0,0,0,0,0,0c0.3,1.5-0.5,2.6-0.8,2.9
			c-0.3,0-0.5,0.2-0.7,0.4c0,0,0,0.1,0,0.1c0,0-0.1,0.9-0.1,1.4c0,0.2-0.7,1.1-1.5,2c-0.1,0.1-0.1,0.2-0.1,0.3
			c0,0.1,0.1,0.2,0.2,0.2h1.1c0.3,1.5,1.6,2.1,1.7,2.1l6.6,2.6C61.8,66.9,57.7,68.8,53.2,68.8z"/>
	</g>
</g>
<g>
	<path fill="#FFFFFF" d="M162,249.8v-26.4h11.3c1.7,0,3.1,0.2,4.2,0.7c1.1,0.5,2.1,1.1,2.8,1.9c0.7,0.8,1.2,1.7,1.5,2.7
		c0.3,1,0.5,2,0.5,3c0,0.6-0.1,1.3-0.2,1.9c-0.1,0.7-0.4,1.3-0.7,1.9c-0.3,0.6-0.7,1.2-1.2,1.7c-0.5,0.5-1.1,1-1.7,1.4
		c-0.7,0.4-1.4,0.7-2.3,1c-0.9,0.2-1.8,0.3-2.9,0.3h-6.2v9.7H162z M173.5,235.2c0.7,0,1.2-0.1,1.6-0.3c0.4-0.2,0.8-0.5,1.1-0.8
		c0.3-0.3,0.5-0.7,0.6-1.1c0.1-0.4,0.2-0.8,0.2-1.3c0-0.4-0.1-0.8-0.2-1.2c-0.1-0.4-0.3-0.8-0.6-1.1c-0.3-0.3-0.6-0.6-1.1-0.8
		c-0.5-0.2-1-0.3-1.7-0.3h-6.4v7H173.5z"/>
	<path fill="#FFFFFF" d="M197.9,250.3c-1.4,0-2.7-0.2-3.8-0.6c-1.1-0.4-2.1-0.9-3-1.5c-0.9-0.6-1.6-1.4-2.2-2.3
		c-0.6-0.9-1.1-1.8-1.5-2.8c-0.4-1-0.7-2.1-0.8-3.2c-0.2-1.1-0.3-2.2-0.3-3.3c0-1.1,0.1-2.2,0.3-3.3c0.2-1.1,0.5-2.2,0.8-3.2
		c0.4-1,0.9-2,1.5-2.8c0.6-0.9,1.4-1.6,2.2-2.3c0.9-0.6,1.9-1.2,3-1.5c1.1-0.4,2.4-0.6,3.8-0.6c1.4,0,2.7,0.2,3.8,0.6
		c1.1,0.4,2.1,0.9,3,1.5c0.9,0.6,1.6,1.4,2.2,2.3c0.6,0.9,1.1,1.8,1.5,2.8c0.4,1,0.7,2.1,0.8,3.2c0.2,1.1,0.3,2.2,0.3,3.3
		c0,1.1-0.1,2.2-0.3,3.3c-0.2,1.1-0.5,2.2-0.8,3.2c-0.4,1-0.9,2-1.5,2.8c-0.6,0.9-1.3,1.6-2.2,2.3c-0.9,0.6-1.8,1.2-3,1.5
		C200.6,250.1,199.3,250.3,197.9,250.3z M197.9,245.4c1.2,0,2.2-0.3,3-0.8c0.8-0.6,1.5-1.3,2-2.1c0.5-0.9,0.9-1.8,1.1-2.8
		c0.2-1,0.3-2,0.3-3c0-0.7,0-1.4-0.1-2.1c-0.1-0.7-0.2-1.4-0.5-2c-0.2-0.6-0.5-1.3-0.8-1.8c-0.3-0.6-0.7-1.1-1.2-1.5
		c-0.5-0.4-1-0.8-1.6-1c-0.6-0.2-1.3-0.4-2.1-0.4c-0.8,0-1.5,0.1-2.1,0.4c-0.6,0.3-1.2,0.6-1.6,1c-0.5,0.4-0.9,0.9-1.2,1.5
		c-0.3,0.6-0.6,1.2-0.8,1.8c-0.2,0.7-0.4,1.3-0.5,2c-0.1,0.7-0.1,1.3-0.1,2c0,1,0.1,2,0.3,3.1c0.2,1,0.6,2,1.1,2.8
		c0.5,0.8,1.2,1.5,2,2.1C195.7,245.1,196.7,245.4,197.9,245.4z"/>
	<path fill="#FFFFFF" d="M228,230.6c-0.2-0.4-0.4-0.8-0.6-1.1c-0.3-0.3-0.6-0.6-1-0.9c-0.4-0.3-0.8-0.4-1.3-0.6
		c-0.5-0.1-1-0.2-1.6-0.2c-1.1,0-2,0.2-2.6,0.7c-0.6,0.4-0.9,1.1-0.9,1.9c0,0.5,0.2,1,0.6,1.3c0.4,0.4,0.9,0.7,1.5,1
		c0.6,0.3,1.4,0.6,2.2,0.8c0.8,0.3,1.7,0.5,2.5,0.9c0.9,0.3,1.7,0.7,2.5,1.1c0.8,0.4,1.5,0.9,2.2,1.6c0.6,0.6,1.2,1.4,1.5,2.2
		c0.4,0.9,0.6,1.9,0.6,3.1c0,1.3-0.2,2.4-0.7,3.4c-0.5,1-1.2,1.8-2,2.5c-0.9,0.7-1.9,1.2-3,1.6c-1.2,0.4-2.4,0.5-3.8,0.5
		c-1.2,0-2.4-0.2-3.5-0.5c-1.1-0.3-2.1-0.8-2.9-1.4c-0.9-0.6-1.6-1.4-2.3-2.3c-0.7-0.9-1.2-1.9-1.5-3l4.6-1.7c0.3,0.6,0.6,1.2,1,1.7
		c0.4,0.5,0.8,0.9,1.3,1.3c0.5,0.4,1,0.6,1.6,0.8c0.6,0.2,1.2,0.3,1.8,0.3c0.6,0,1.2-0.1,1.7-0.2c0.5-0.1,1-0.3,1.3-0.6
		c0.4-0.3,0.7-0.6,0.9-1c0.2-0.4,0.3-0.9,0.3-1.4c0-0.6-0.2-1.2-0.6-1.6c-0.4-0.4-0.9-0.8-1.5-1.1c-0.6-0.3-1.4-0.6-2.2-0.9
		c-0.8-0.3-1.7-0.5-2.5-0.8c-0.9-0.3-1.7-0.6-2.5-1c-0.8-0.4-1.5-0.9-2.2-1.5c-0.6-0.6-1.2-1.3-1.5-2.1c-0.4-0.8-0.6-1.8-0.6-2.9
		c0-1,0.2-1.9,0.6-2.8c0.4-0.9,1-1.6,1.7-2.3c0.8-0.7,1.7-1.2,2.8-1.6c1.1-0.4,2.4-0.6,3.8-0.6c1.2,0,2.3,0.2,3.2,0.5
		c1,0.3,1.8,0.7,2.5,1.3c0.7,0.5,1.4,1.2,1.9,1.9c0.5,0.7,0.9,1.6,1.1,2.4L228,230.6z"/>
	<path fill="#FFFFFF" d="M250.2,228.3v21.5h-5.1v-21.5h-7.5v-4.9h20.2v4.9H250.2z"/>
	<path fill="#FFFFFF" d="M203.7,257.7c0,0-0.7,4.3,0.7,8.4c0,0,0.5,0.9-0.2,1.1h-2.8c0,0-0.6-0.3-0.8-0.6c-0.1-0.3-1.3-3-0.7-8.8
		c0,0,0.3-1,1.2-1.1c0.9,0,2.1,0.1,2.1,0.1S204.1,256.9,203.7,257.7z"/>
	<path fill="#FFFFFF" d="M214.3,254c0,0,0.4-1.3,0.7-2s1.1-2.9-0.2-4.4c-1.2-1.4-2.3-0.9-2.6-0.2c0,0-0.1,0.8-0.1,1s0.4,0.8-0.7,2.1
		c-1.1,1.3-1,1.6-2,2.5s-2.1,2.1-2.2,2.7c0,0-0.7,0.9-0.9,0.8s-0.9,0.1-1.3,1.4s-0.1,6.5,1.2,7.9c1.3,1.4,7.7,2,8.9,1.7
		c1.2-0.3,2.9-0.6,2.8-2.4c0,0,1.2-1.2,1.3-2.2c0.1-1-0.2-1.2-0.2-1.9c0-0.7,1.6-0.8,0.2-3c0,0-0.2-0.1-0.1-1.1
		c0.1-1-0.9-1.5-1.5-1.8c-0.7-0.3-2.6-0.4-3.1-0.2C214.6,255,214,255.2,214.3,254z"/>
	<g>
		<polygon fill="#FFFFFF" points="201.8,258.8 151,258.8 151,208.1 159.3,208.1 159.3,209 151.8,209 151.8,258 201.8,258 		"/>
	</g>
	<g>
		<polygon fill="#FFFFFF" points="269,258.8 218.7,258.8 218.7,258 268.2,258 268.2,209 260.7,209 260.7,208.1 269,208.1 		"/>
	</g>
	<g>
		<path fill="#FFFFFF" d="M172.1,205.4c-0.1-0.3-0.3-0.6-0.5-0.9c-0.2-0.3-0.5-0.5-0.8-0.7s-0.6-0.4-1-0.5c-0.4-0.1-0.8-0.2-1.3-0.2
			c-0.9,0-1.6,0.2-2.1,0.5c-0.5,0.4-0.7,0.8-0.7,1.5c0,0.4,0.2,0.8,0.5,1.1c0.3,0.3,0.7,0.5,1.2,0.8c0.5,0.2,1.1,0.4,1.7,0.7
			c0.7,0.2,1.3,0.4,2,0.7c0.7,0.2,1.4,0.5,2,0.9c0.7,0.3,1.2,0.8,1.7,1.2c0.5,0.5,0.9,1.1,1.2,1.8c0.3,0.7,0.5,1.5,0.5,2.4
			c0,1-0.2,1.9-0.6,2.7c-0.4,0.8-0.9,1.5-1.6,2c-0.7,0.5-1.5,1-2.4,1.2s-1.9,0.4-3,0.4c-1,0-1.9-0.1-2.8-0.4
			c-0.9-0.3-1.6-0.7-2.3-1.2c-0.7-0.5-1.3-1.1-1.8-1.8c-0.5-0.7-0.9-1.5-1.2-2.4l3.7-1.4c0.2,0.5,0.5,0.9,0.8,1.3
			c0.3,0.4,0.7,0.8,1.1,1c0.4,0.3,0.8,0.5,1.3,0.7s0.9,0.2,1.5,0.2c0.5,0,1-0.1,1.4-0.2c0.4-0.1,0.8-0.3,1.1-0.5
			c0.3-0.2,0.5-0.5,0.7-0.8s0.2-0.7,0.2-1.1c0-0.5-0.2-0.9-0.5-1.3s-0.7-0.7-1.2-0.9c-0.5-0.3-1.1-0.5-1.7-0.7
			c-0.7-0.2-1.3-0.4-2-0.7c-0.7-0.2-1.3-0.5-2-0.8c-0.7-0.3-1.2-0.7-1.7-1.2c-0.5-0.5-0.9-1-1.2-1.7c-0.3-0.6-0.5-1.4-0.5-2.4
			c0-0.8,0.2-1.5,0.5-2.2c0.3-0.7,0.8-1.3,1.4-1.8c0.6-0.5,1.4-0.9,2.2-1.3c0.9-0.3,1.9-0.5,3-0.5c1,0,1.8,0.1,2.6,0.4
			c0.8,0.2,1.4,0.6,2,1c0.6,0.4,1.1,1,1.5,1.5c0.4,0.6,0.7,1.2,0.9,1.9L172.1,205.4z"/>
		<path fill="#FFFFFF" d="M195.3,220.8l-1.6-4.4h-8.1l-1.6,4.4h-4.4l8.1-21.1h4l8.1,21.1H195.3z M190.3,207.2
			c-0.1-0.3-0.2-0.6-0.3-0.9c-0.1-0.4-0.2-0.7-0.3-1c-0.1,0.3-0.2,0.6-0.3,1c-0.1,0.4-0.2,0.7-0.4,0.9l-2.1,5.5h5.5L190.3,207.2z"/>
		<path fill="#FFFFFF" d="M203.5,220.8v-21.1h14.1v3.9h-10.1v4.4h6.4v3.9h-6.4v8.9H203.5z"/>
		<path fill="#FFFFFF" d="M221.4,220.8v-21.1h14.4v3.9h-10.3v4.4h6.1v3.9h-6.1v5.1h11v3.9H221.4z"/>
		<path fill="#FFFFFF" d="M240.8,220.8v-21.1h9.8c1.3,0,2.4,0.2,3.3,0.6c0.9,0.4,1.6,0.9,2.2,1.5c0.5,0.6,0.9,1.3,1.2,2.1
			s0.4,1.6,0.4,2.5c0,0.6-0.1,1.2-0.3,1.8c-0.2,0.6-0.4,1.2-0.8,1.7c-0.3,0.5-0.8,1-1.3,1.5c-0.5,0.4-1.1,0.8-1.8,1l4.1,8.4H253
			l-3.9-7.9h-4.2v7.9H240.8z M250.6,209.1c0.5,0,1-0.1,1.3-0.2s0.6-0.4,0.9-0.6c0.2-0.3,0.4-0.5,0.5-0.9c0.1-0.3,0.1-0.7,0.1-1
			c0-0.3,0-0.7-0.1-1c-0.1-0.3-0.2-0.6-0.4-0.9c-0.2-0.3-0.5-0.5-0.8-0.6c-0.4-0.2-0.8-0.2-1.4-0.2h-5.8v5.5H250.6z"/>
	</g>
</g>
</svg>
