<?xml version="1.0" encoding="utf-8"?>
<!-- Generator: Adobe Illustrator 18.0.0, SVG Export Plug-In . SVG Version: 6.00 Build 0)  -->
<!DOCTYPE svg PUBLIC "-//W3C//DTD SVG 1.1//EN" "http://www.w3.org/Graphics/SVG/1.1/DTD/svg11.dtd">
<svg version="1.1" id="Layer_1" xmlns="http://www.w3.org/2000/svg" xmlns:xlink="http://www.w3.org/1999/xlink" x="0px" y="0px"
	 width="227.2px" height="77.5px" viewBox="0 0 227.2 77.5" enable-background="new 0 0 227.2 77.5" xml:space="preserve">
<g>
	<path fill="#A9B8C6" d="M38.6,39H3.2C1.3,39,0,40.5,0,42.4v20.7c0,1.9,1.3,3.4,3.2,3.4h35.5c1.9,0,3.4-1.5,3.4-3.4V42.4
		C42,40.5,40.5,39,38.6,39z M39.6,62.8c0,0.8-0.6,1.4-1.4,1.4H3.7c-0.8,0-1.4-0.6-1.4-1.4V42.7c0-0.8,0.6-1.4,1.4-1.4h34.5
		c0.8,0,1.4,0.6,1.4,1.4C39.6,42.7,39.6,62.8,39.6,62.8z"/>
	<path fill="#A9B8C6" d="M20.5,48.3c-0.4,0.5-6.5,6.5-6.5,6.5v6.3c0,0,0.1,0.5,0.4,0.5s3.6,0,3.6,0s0.5,0,0.5-0.6s0-4.2,0-4.2
		s0-0.7,0.7-0.7s3.4,0,3.4,0s0.5-0.2,0.6,0.5c0,0.7,0,4.2,0,4.2s0,0.8,0.5,0.8s3.7,0,3.7,0s0.5,0.1,0.5-0.6c0-0.6,0-6.2,0-6.2
		l-6.4-6.5C21.5,48.3,21,47.8,20.5,48.3z"/>
	<path fill="#A9B8C6" d="M29.5,52.2c0,0-7.1-7.1-7.8-7.9c-0.8-0.8-1.3,0-1.3,0l-7.9,7.9c-0.3,0.3-0.2,0.7-0.2,0.7s0.7,0.7,0.9,0.9
		s0.6-0.2,0.6-0.2s5.9-6,6.6-6.6c0.7-0.6,1.1,0,1.1,0s5.8,6,6.5,6.5c0.7,0.5,0.9-0.2,1.4-0.6C29.9,52.7,29.5,52.2,29.5,52.2z"/>
	<path fill="#A9B8C6" d="M26.7,48.2v-3.4c0,0-0.1-0.4-0.4-0.4s-1.7,0-1.7,0S24,44.5,24,44.9c0,0.3,0,0.8,0,0.8L26.7,48.2z"/>
	<path fill="#A9B8C6" d="M28.5,70.1h-2.6v-2.4h-9.7v2.4h-2.7c-0.7,0-1.3,0.6-1.3,1.3c0,0.7,0.6,1.3,1.3,1.3h15.1
		c0.7,0,1.3-0.6,1.3-1.3C29.7,70.7,29.2,70.1,28.5,70.1z"/>
</g>
<g>
	<path fill="#A9B8C6" d="M59.2,52.5h12.1v-2.6L66.7,48l0.1-1.4c0,0,1.2-0.9,1.3-2.1c0,0,0.6,0.5,0.6-0.8s-0.8-0.8-0.8-0.8
		s0.8-2.5-0.7-3.2s-3.7-1.5-4.7,1.2c0,0,0,1.4,0,2.1h-0.9c0,0-0.2,1.7,0.9,1.4c0,0,0.3,2.5,1.1,2.6l0.2,1.2l-4.6,1.9
		C59.2,50.1,59.2,52.5,59.2,52.5z"/>
	<path fill="#A9B8C6" d="M75.3,77.5h12.1v-2.6L82.8,73l0.1-1.4c0,0,1.2-0.9,1.3-2.1c0,0,0.6,0.5,0.6-0.8S84,67.9,84,67.9
		s0.8-2.5-0.7-3.2c-1.5-0.7-3.7-1.5-4.7,1.2c0,0,0,1.4,0,2.1l-0.9,0.1c0,0-0.2,1.7,0.9,1.4c0,0,0.3,2.5,1.1,2.6l0.2,1.2l-4.6,1.8
		V77.5z"/>
	<path fill="#A9B8C6" d="M43,77.5h12.1v-2.6L50.5,73l0.1-1.4c0,0,1.2-0.9,1.3-2.1c0,0,0.6,0.5,0.6-0.8s-0.8-0.8-0.8-0.8
		s0.8-2.5-0.7-3.2c-1.5-0.7-3.7-1.5-4.7,1.2c0,0,0,1.4,0,2.1l-0.9,0.1c0,0-0.2,1.7,0.9,1.4c0,0,0.3,2.5,1.1,2.6l0.2,1.2L43,75.1
		V77.5z"/>
	<path fill="#A9B8C6" d="M75,68.2l-8.6-5.7v-7c0-0.7-0.5-1.2-1.2-1.2c-0.7,0-1.2,0.5-1.2,1.2v7.1l-8.6,5.5c-0.6,0.4-0.7,1.1-0.4,1.6
		c0.2,0.4,0.6,0.5,1,0.5c0.2,0,0.4-0.1,0.6-0.2l8.6-5.5l8.4,5.5c0.5,0.4,1.3,0.2,1.6-0.3C75.7,69.3,75.5,68.5,75,68.2z"/>
</g>
<path fill="#A9B8C6" d="M144.9,42.8c-1.5,0.6-3,1.1-4.7,1.3c1.7-1,3-2.6,3.6-4.5c-1.6,0.9-3.3,1.6-5.2,2c-1.5-1.6-3.6-2.6-6-2.6
	c-4.5,0-8.2,3.7-8.2,8.2c0,0.6,0.1,1.3,0.2,1.9c-6.8-0.3-12.8-3.6-16.8-8.5c-0.7,1.2-1.1,2.6-1.1,4.1c0,2.8,1.4,5.3,3.6,6.8
	c-1.3,0-2.6-0.4-3.7-1v0.1c0,4,2.8,7.2,6.5,8c-0.7,0.2-1.4,0.3-2.2,0.3c-0.5,0-1-0.1-1.5-0.1c1,3.2,4,5.6,7.6,5.7
	c-2.8,2.2-6.3,3.5-10.1,3.5c-0.7,0-1.3,0-1.9-0.1c3.6,2.3,7.9,3.7,12.5,3.7c15,0,23.2-12.4,23.2-23.2c0-0.4,0-0.7,0-1.1
	C142.4,45.9,143.8,44.4,144.9,42.8L144.9,42.8z"/>
<path fill="#A9B8C6" d="M99.1,71.3V56.5h4.9l0.7-5.7H99v-3.7c0-1.7,0.5-2.8,2.8-2.8h3v-5.1c-0.5-0.1-2.3-0.2-4.4-0.2
	C96,39,93,41.7,93,46.6v4.2h-5v5.7h5v14.7h6.1V71.3z"/>
<path fill="#A9B8C6" d="M194.5,53.1h-5v-5h-4v5h-5v4h5v5h4v-5h5 M162.2,52.1v6.3h8.8c-0.7,3.8-4,6.6-8.8,6.6c-5.3,0-9.7-4.5-9.7-9.8
	s4.3-9.8,9.7-9.8c2.4,0,4.6,0.8,6.2,2.4l0,0l4.6-4.6c-2.8-2.6-6.4-4.2-10.8-4.2c-8.9,0-16.2,7.2-16.2,16.2c0,8.9,7.2,16.2,16.2,16.2
	c9.3,0,15.5-6.6,15.5-15.8c0-1.2-0.1-2.3-0.3-3.4L162.2,52.1L162.2,52.1z"/>
<path fill="#A9B8C6" d="M224.9,39h-27.5c-1.3,0-2.4,1-2.4,2.3v27.6c0,1.3,1.1,2.3,2.4,2.3h27.5c1.3,0,2.4-1,2.4-2.3V41.3
	C227.3,40,226.2,39,224.9,39z M204.5,66.5h-4.8V51.1h4.8V66.5z M202.1,49c-1.5,0-2.8-1.2-2.8-2.8c0-1.5,1.2-2.8,2.8-2.8
	c1.5,0,2.8,1.2,2.8,2.8C204.9,47.7,203.7,49,202.1,49z M222.5,66.5h-4.8V59c0-1.8,0-4.1-2.5-4.1s-2.9,1.9-2.9,4v7.6h-4.8V51.1h4.6
	v2.1h0.1c0.6-1.2,2.2-2.5,4.5-2.5c4.8,0,5.7,3.2,5.7,7.3L222.5,66.5L222.5,66.5z"/>
<g>
	<path fill="#FFC627" d="M38.6,0H3.2C1.3,0,0,1.6,0,3.4v20.7c0,1.9,1.3,3.4,3.2,3.4h35.5c1.9,0,3.4-1.5,3.4-3.4V3.4
		C42,1.6,40.5,0,38.6,0z M39.6,23.9c0,0.8-0.6,1.4-1.4,1.4H3.7c-0.8,0-1.4-0.6-1.4-1.4V3.8c0-0.8,0.6-1.4,1.4-1.4h34.5
		c0.8,0,1.4,0.6,1.4,1.4C39.6,3.8,39.6,23.9,39.6,23.9z"/>
	<path fill="#FFC627" d="M20.5,9.3c-0.4,0.5-6.5,6.5-6.5,6.5v6.3c0,0,0.1,0.5,0.4,0.5s3.6,0,3.6,0s0.5,0,0.5-0.6s0-4.2,0-4.2
		s0-0.7,0.7-0.7s3.4,0,3.4,0s0.5-0.2,0.6,0.5c0,0.7,0,4.2,0,4.2s0,0.8,0.5,0.8s3.7,0,3.7,0s0.5,0.1,0.5-0.6s0-6.2,0-6.2l-6.4-6.5
		C21.5,9.3,21,8.8,20.5,9.3z"/>
	<path fill="#FFC627" d="M29.5,13.3c0,0-7.1-7.1-7.8-7.9c-0.8-0.8-1.3,0-1.3,0l-7.9,7.9c-0.3,0.3-0.2,0.7-0.2,0.7s0.7,0.7,0.9,0.9
		c0.2,0.2,0.6-0.2,0.6-0.2s5.9-6,6.6-6.6s1.1,0,1.1,0s5.8,6,6.5,6.5c0.7,0.5,0.9-0.2,1.4-0.6C29.9,13.7,29.5,13.3,29.5,13.3z"/>
	<path fill="#FFC627" d="M26.7,9.2V5.8c0,0-0.1-0.4-0.4-0.4s-1.7,0-1.7,0S24,5.5,24,5.9c0,0.3,0,0.8,0,0.8L26.7,9.2z"/>
	<path fill="#FFC627" d="M28.5,31.1h-2.6v-2.4h-9.7v2.4h-2.7c-0.7,0-1.3,0.6-1.3,1.3c0,0.7,0.6,1.3,1.3,1.3h15.1
		c0.7,0,1.3-0.6,1.3-1.3C29.9,31.7,29.2,31.1,28.5,31.1z"/>
</g>
<g>
	<path fill="#FFC627" d="M59.2,13.6h12.1v-2.7L66.7,9l0.1-1.4c0,0,1.2-0.9,1.3-2.1c0,0,0.6,0.5,0.6-0.8s-0.8-0.8-0.8-0.8
		s0.8-2.5-0.7-3.2s-3.7-1.5-4.7,1.2c0,0,0,1.4,0,2.1l-0.9,0.1c0,0-0.2,1.7,0.9,1.4c0,0,0.3,2.5,1.1,2.6l0.2,1.2l-4.6,1.9
		C59.2,11.2,59.2,13.6,59.2,13.6z"/>
	<path fill="#FFC627" d="M75.3,38.5h12.1v-2.6L82.8,34l0.1-1.4c0,0,1.2-0.9,1.3-2.1c0,0,0.6,0.5,0.6-0.8S84,28.9,84,28.9
		s0.8-2.5-0.7-3.2s-3.7-1.5-4.7,1.2c0,0,0,1.4,0,2.1l-0.9,0.1c0,0-0.2,1.7,0.9,1.4c0,0,0.3,2.5,1.1,2.6l0.2,1.2l-4.6,1.9V38.5z"/>
	<path fill="#FFC627" d="M43,38.5h12.1v-2.6L50.5,34l0.1-1.4c0,0,1.2-0.9,1.3-2.1c0,0,0.6,0.5,0.6-0.8s-0.8-0.8-0.8-0.8
		s0.8-2.5-0.7-3.2s-3.7-1.5-4.7,1.2c0,0,0,1.4,0,2.1l-0.9,0.1c0,0-0.2,1.7,0.9,1.4c0,0,0.3,2.5,1.1,2.6l0.2,1.2L43,36.2
		C43,36.2,43,38.5,43,38.5z"/>
	<path fill="#FFC627" d="M75,29.2l-8.6-5.7v-7c0-0.7-0.5-1.2-1.2-1.2c-0.7,0-1.2,0.5-1.2,1.2v7.1l-8.6,5.5c-0.6,0.4-0.7,1.1-0.4,1.6
		c0.2,0.4,0.6,0.5,1,0.5c0.2,0,0.4-0.1,0.6-0.2l8.6-5.5l8.4,5.5c0.5,0.4,1.3,0.2,1.6-0.3C75.7,30.3,75.5,29.5,75,29.2z"/>
</g>
<path fill="#FFC627" d="M144.9,3.8c-1.5,0.6-3,1.1-4.7,1.3c1.7-1,3-2.6,3.6-4.5c-1.6,0.9-3.3,1.6-5.2,2C137.1,1,135,0,132.6,0
	c-4.5,0-8.2,3.7-8.2,8.2c0,0.6,0.1,1.3,0.2,1.9c-6.8-0.3-12.8-3.6-16.8-8.5c-0.7,1.2-1.1,2.6-1.1,4.1c0,2.8,1.4,5.3,3.6,6.8
	c-1.3,0-2.6-0.4-3.7-1v0.1c0,4,2.8,7.2,6.5,8c-0.7,0.2-1.4,0.3-2.2,0.3c-0.5,0-1-0.1-1.5-0.1c1,3.2,4,5.6,7.6,5.7
	c-2.8,2.2-6.3,3.5-10.1,3.5c-0.7,0-1.3,0-1.9-0.1c3.6,2.3,7.9,3.7,12.5,3.7c15,0,23.2-12.4,23.2-23.2c0-0.4,0-0.7,0-1.1
	C142.4,6.9,143.8,5.4,144.9,3.8L144.9,3.8z"/>
<path fill="#FFC627" d="M99.1,32.3V17.6h4.9l0.7-5.7H99V8.2c0-1.7,0.5-2.8,2.8-2.8h3V0.2c-0.5-0.1-2.3-0.2-4.4-0.2
	C96,0,93,2.7,93,7.6v4.2h-5v5.7h5v14.7L99.1,32.3L99.1,32.3z"/>
<path fill="#FFC627" d="M194.5,14.1h-5v-5h-4v5h-5v4h5v5h4v-5h5 M162.2,13.1v6.3h8.8c-0.7,3.8-4,6.6-8.8,6.6c-5.3,0-9.7-4.5-9.7-9.8
	s4.3-9.8,9.7-9.8c2.4,0,4.6,0.8,6.2,2.4l0,0l4.6-4.6c-2.8-2.6-6.4-4.2-10.8-4.2C153.3,0,146,7.2,146,16.2c0,8.9,7.2,16.2,16.2,16.2
	c9.3,0,15.5-6.6,15.5-15.8c0-1.2-0.1-2.3-0.3-3.4h-15.2V13.1z"/>
<path fill="#FFC627" d="M224.9,0h-27.5c-1.3,0-2.4,1-2.4,2.3v27.6c0,1.3,1.1,2.3,2.4,2.3h27.5c1.3,0,2.4-1,2.4-2.3V2.3
	C227.3,1,226.2,0,224.9,0z M204.5,27.5h-4.8V12.1h4.8V27.5z M202.1,10c-1.5,0-2.8-1.2-2.8-2.8c0-1.5,1.2-2.8,2.8-2.8
	c1.5,0,2.8,1.2,2.8,2.8C204.9,8.7,203.7,10,202.1,10z M222.5,27.5h-4.8V20c0-1.8,0-4.1-2.5-4.1s-2.9,1.9-2.9,4v7.6h-4.8V12.1h4.6
	v2.1h0.1c0.6-1.2,2.2-2.5,4.5-2.5c4.8,0,5.7,3.2,5.7,7.3L222.5,27.5L222.5,27.5z"/>
</svg>
