<?xml version="1.0" encoding="utf-8"?>
<!-- Generator: Adobe Illustrator 18.0.0, SVG Export Plug-In . SVG Version: 6.00 Build 0)  -->
<!DOCTYPE svg PUBLIC "-//W3C//DTD SVG 1.1//EN" "http://www.w3.org/Graphics/SVG/1.1/DTD/svg11.dtd">
<svg version="1.1" id="Layer_1" xmlns="http://www.w3.org/2000/svg" xmlns:xlink="http://www.w3.org/1999/xlink" x="0px" y="0px"
	 width="406.9px" height="134.9px" viewBox="0 0 406.9 134.9" enable-background="new 0 0 406.9 134.9" xml:space="preserve">
<g>
	<g>
		<g>
			<path fill="#FFC627" d="M33.5,0C51.9,0,67,15,67,33.5S52,67,33.5,67S0,52,0,33.5S15.1,0,33.5,0z M33.5,63.5
				c16.6,0,30.1-13.5,30.1-30.1S50.1,3.3,33.5,3.3S3.4,16.8,3.4,33.4S16.9,63.5,33.5,63.5z"/>
		</g>
	</g>
	<g>
		<path fill="#FFC627" d="M52.1,18.9H16.6c-1.9,0-3.2,1.5-3.2,3.4V43c0,1.9,1.3,3.4,3.2,3.4h35.5c1.9,0,3.4-1.5,3.4-3.4V22.3
			C55.5,20.4,54,18.9,52.1,18.9z M53,42.7c0,0.8-0.6,1.4-1.4,1.4H17.1c-0.8,0-1.4-0.6-1.4-1.4V22.6c0-0.8,0.6-1.4,1.4-1.4h34.5
			c0.8,0,1.4,0.6,1.4,1.4V42.7z"/>
		<path fill="#FFC627" d="M34,28.1c-0.4,0.5-6.5,6.5-6.5,6.5v6.3c0,0,0.1,0.5,0.4,0.5s3.6,0,3.6,0s0.5,0,0.5-0.6s0-4.2,0-4.2
			s0-0.7,0.7-0.7s3.4,0,3.4,0s0.5-0.2,0.6,0.5c0,0.7,0,4.2,0,4.2s0,0.8,0.5,0.8s3.7,0,3.7,0s0.5,0.1,0.5-0.6s0-6.2,0-6.2L35,28.1
			C34.9,28.1,34.4,27.7,34,28.1z"/>
		<path fill="#FFC627" d="M42.9,32.1c0,0-7.1-7.1-7.8-7.9c-0.8-0.8-1.3,0-1.3,0l-7.9,7.9c-0.3,0.3-0.2,0.7-0.2,0.7s0.7,0.7,0.9,0.9
			c0.2,0.2,0.6-0.2,0.6-0.2s5.9-6,6.6-6.6s1.1,0,1.1,0s5.8,6,6.5,6.5s0.9-0.2,1.4-0.6C43.4,32.6,42.9,32.1,42.9,32.1z"/>
		<path fill="#FFC627" d="M40.1,28.1v-3.4c0,0-0.1-0.4-0.4-0.4s-1.7,0-1.7,0s-0.5,0.2-0.5,0.5s0,0.8,0,0.8L40.1,28.1z"/>
		<path fill="#FFC627" d="M41.9,50h-2.6v-2.4h-9.7V50h-2.7c-0.7,0-1.3,0.6-1.3,1.3s0.6,1.3,1.3,1.3H42c0.7,0,1.3-0.6,1.3-1.3
			S42.6,50,41.9,50z"/>
	</g>
</g>
<g>
	<g>
		<g>
			<path fill="#A8B7C5" d="M33.5,68C51.9,68,67,83,67,101.5S52,135,33.5,135S0,120,0,101.5S15.1,68,33.5,68z M33.5,131.5
				c16.6,0,30.1-13.5,30.1-30.1S50.1,71.3,33.5,71.3S3.4,84.8,3.4,101.4S16.9,131.5,33.5,131.5z"/>
		</g>
	</g>
	<g>
		<path fill="#A8B7C5" d="M52.1,86.9H16.6c-1.9,0-3.2,1.5-3.2,3.4V111c0,1.9,1.3,3.4,3.2,3.4h35.5c1.9,0,3.4-1.5,3.4-3.4V90.3
			C55.5,88.4,54,86.9,52.1,86.9z M53,110.7c0,0.8-0.6,1.4-1.4,1.4H17.1c-0.8,0-1.4-0.6-1.4-1.4V90.6c0-0.8,0.6-1.4,1.4-1.4h34.5
			c0.8,0,1.4,0.6,1.4,1.4V110.7z"/>
		<path fill="#A8B7C5" d="M34,96.1c-0.4,0.5-6.5,6.5-6.5,6.5v6.3c0,0,0.1,0.5,0.4,0.5s3.6,0,3.6,0s0.5,0,0.5-0.6s0-4.2,0-4.2
			s0-0.7,0.7-0.7s3.4,0,3.4,0s0.5-0.2,0.6,0.5c0,0.7,0,4.2,0,4.2s0,0.8,0.5,0.8s3.7,0,3.7,0s0.5,0.1,0.5-0.6s0-6.2,0-6.2L35,96.1
			C34.9,96.1,34.4,95.7,34,96.1z"/>
		<path fill="#A8B7C5" d="M42.9,100.1c0,0-7.1-7.1-7.8-7.9s-1.3,0-1.3,0l-7.9,7.9c-0.3,0.3-0.2,0.7-0.2,0.7s0.7,0.7,0.9,0.9
			s0.6-0.2,0.6-0.2s5.9-6,6.6-6.6s1.1,0,1.1,0s5.8,6,6.5,6.5s0.9-0.2,1.4-0.6C43.4,100.6,42.9,100.1,42.9,100.1z"/>
		<path fill="#A8B7C5" d="M40.1,96.1v-3.4c0,0-0.1-0.4-0.4-0.4s-1.7,0-1.7,0s-0.5,0.2-0.5,0.5s0,0.8,0,0.8L40.1,96.1z"/>
		<path fill="#A8B7C5" d="M41.9,118h-2.6v-2.4h-9.7v2.4h-2.7c-0.7,0-1.3,0.6-1.3,1.3c0,0.7,0.6,1.3,1.3,1.3H42
			c0.7,0,1.3-0.6,1.3-1.3C43.2,118.5,42.6,118,41.9,118z"/>
	</g>
</g>
<g>
	<g>
		<g>
			<path fill="#FFC627" d="M101.5,0C119.9,0,135,15,135,33.5S120,67,101.5,67S68,52,68,33.5S83.1,0,101.5,0z M101.5,63.5
				c16.6,0,30.1-13.5,30.1-30.1S118.1,3.3,101.5,3.3S71.4,16.8,71.4,33.4S84.9,63.5,101.5,63.5z"/>
		</g>
	</g>
	<g>
		<path fill="#FFC627" d="M95.5,25.1h12.1v-2.6l-4.6-1.9l0.1-1.4c0,0,1.2-0.9,1.3-2.1c0,0,0.6,0.5,0.6-0.8s-0.8-0.8-0.8-0.8
			s0.8-2.5-0.7-3.2s-3.7-1.5-4.7,1.2c0,0,0,1.4,0,2.1l-0.9,0.1c0,0-0.2,1.7,0.9,1.4c0,0,0.3,2.5,1.1,2.6l0.2,1.2l-4.6,1.9V25.1z"/>
		<path fill="#FFC627" d="M111.6,50h12.1v-2.6l-4.6-1.9l0.1-1.4c0,0,1.2-0.9,1.3-2.1c0,0,0.6,0.5,0.6-0.8s-0.8-0.8-0.8-0.8
			s0.8-2.5-0.7-3.2s-3.7-1.5-4.7,1.2c0,0,0,1.4,0,2.1l-0.9,0.1c0,0-0.2,1.7,0.9,1.4c0,0,0.3,2.5,1.1,2.6l0.2,1.2l-4.6,1.9V50z"/>
		<path fill="#FFC627" d="M79.3,50h12.1v-2.6l-4.6-1.9l0.1-1.4c0,0,1.2-0.9,1.3-2.1c0,0,0.6,0.5,0.6-0.8S88,40.4,88,40.4
			s0.8-2.5-0.7-3.2s-3.7-1.5-4.7,1.2c0,0,0,1.4,0,2.1l-0.9,0.1c0,0-0.2,1.7,0.9,1.4c0,0,0.3,2.5,1.1,2.6l0.2,1.2l-4.6,1.9V50z"/>
		<path fill="#FFC627" d="M111.3,40.7l-8.6-5.7v-7c0-0.7-0.5-1.2-1.2-1.2s-1.2,0.5-1.2,1.2v7.1l-8.6,5.5c-0.6,0.4-0.7,1.1-0.4,1.6
			c0.2,0.4,0.6,0.5,1,0.5c0.2,0,0.4-0.1,0.6-0.2l8.6-5.5l8.4,5.5c0.5,0.4,1.3,0.2,1.6-0.3C112,41.8,111.8,41.1,111.3,40.7z"/>
	</g>
</g>
<g>
	<g>
		<g>
			<path fill="#A8B7C5" d="M101.5,68c18.4,0,33.5,15,33.5,33.5S120,135,101.5,135S68,120,68,101.5S83.1,68,101.5,68z M101.5,131.5
				c16.6,0,30.1-13.5,30.1-30.1s-13.5-30.1-30.1-30.1s-30.1,13.5-30.1,30.1S84.9,131.5,101.5,131.5z"/>
		</g>
	</g>
	<g>
		<path fill="#A8B7C5" d="M95.5,93.1h12.1v-2.6l-4.6-1.9l0.1-1.4c0,0,1.2-0.9,1.3-2.1c0,0,0.6,0.5,0.6-0.8s-0.8-0.8-0.8-0.8
			s0.8-2.5-0.7-3.2s-3.7-1.5-4.7,1.2c0,0,0,1.4,0,2.1l-0.9,0.1c0,0-0.2,1.7,0.9,1.4c0,0,0.3,2.5,1.1,2.6l0.2,1.2l-4.6,1.9V93.1z"/>
		<path fill="#A8B7C5" d="M111.6,118h12.1v-2.6l-4.6-1.9l0.1-1.4c0,0,1.2-0.9,1.3-2.1c0,0,0.6,0.5,0.6-0.8s-0.8-0.8-0.8-0.8
			s0.8-2.5-0.7-3.2s-3.7-1.5-4.7,1.2c0,0,0,1.4,0,2.1l-0.9,0.1c0,0-0.2,1.7,0.9,1.4c0,0,0.3,2.5,1.1,2.6l0.2,1.2l-4.6,1.9V118z"/>
		<path fill="#A8B7C5" d="M79.3,118h12.1v-2.6l-4.6-1.9l0.1-1.4c0,0,1.2-0.9,1.3-2.1c0,0,0.6,0.5,0.6-0.8s-0.8-0.8-0.8-0.8
			s0.8-2.5-0.7-3.2s-3.7-1.5-4.7,1.2c0,0,0,1.4,0,2.1l-0.9,0.1c0,0-0.2,1.7,0.9,1.4c0,0,0.3,2.5,1.1,2.6l0.2,1.2l-4.6,1.9V118z"/>
		<path fill="#A8B7C5" d="M111.3,108.7l-8.6-5.7v-7c0-0.7-0.5-1.2-1.2-1.2s-1.2,0.5-1.2,1.2v7.1l-8.6,5.5c-0.6,0.4-0.7,1.1-0.4,1.6
			c0.2,0.4,0.6,0.5,1,0.5c0.2,0,0.4-0.1,0.6-0.2l8.6-5.5l8.4,5.5c0.5,0.4,1.3,0.2,1.6-0.3C112,109.8,111.8,109.1,111.3,108.7z"/>
	</g>
</g>
<g>
	<g>
		<g>
			<path fill="#FFC627" d="M169.5,0C187.9,0,203,15,203,33.5S188,67,169.5,67S136,52,136,33.5S151.1,0,169.5,0z M169.5,63.5
				c16.6,0,30.1-13.5,30.1-30.1S186.1,3.3,169.5,3.3s-30.1,13.5-30.1,30.1S152.9,63.5,169.5,63.5z"/>
		</g>
	</g>
	<path fill="#FFC627" d="M172,49.6V34.8h4.9l0.7-5.7h-5.7v-3.7c0-1.7,0.5-2.8,2.8-2.8h3v-5.1c-0.5-0.1-2.3-0.2-4.4-0.2
		c-4.4,0-7.4,2.7-7.4,7.6v4.2h-5v5.7h5v14.7L172,49.6L172,49.6z"/>
</g>
<g>
	<g>
		<g>
			<path fill="#A8B7C5" d="M169.5,68c18.4,0,33.5,15,33.5,33.5S188,135,169.5,135S136,120,136,101.5S151.1,68,169.5,68z
				 M169.5,131.5c16.6,0,30.1-13.5,30.1-30.1s-13.5-30.1-30.1-30.1s-30.1,13.5-30.1,30.1S152.9,131.5,169.5,131.5z"/>
		</g>
	</g>
	<path fill="#A8B7C5" d="M172,117.6v-14.8h4.9l0.7-5.7h-5.7v-3.7c0-1.7,0.5-2.8,2.8-2.8h3v-5.1c-0.5-0.1-2.3-0.2-4.4-0.2
		c-4.4,0-7.4,2.7-7.4,7.6v4.2h-5v5.7h5v14.7h6.1V117.6z"/>
</g>
<g>
	<g>
		<g>
			<path fill="#FFC627" d="M237.5,0C255.9,0,271,15,271,33.5S256,67,237.5,67S204,52,204,33.5S219.1,0,237.5,0z M237.5,63.5
				c16.6,0,30.1-13.5,30.1-30.1S254.1,3.3,237.5,3.3s-30.1,13.5-30.1,30.1S220.9,63.5,237.5,63.5z"/>
		</g>
	</g>
	<g>
		<path fill="#FFC627" d="M257.4,21.1c-1.5,0.6-3,1.1-4.7,1.3c1.7-1,3-2.6,3.6-4.5c-1.6,0.9-3.3,1.6-5.2,2c-1.5-1.6-3.6-2.6-6-2.6
			c-4.5,0-8.2,3.7-8.2,8.2c0,0.6,0.1,1.3,0.2,1.9c-6.8-0.3-12.8-3.6-16.8-8.5c-0.7,1.2-1.1,2.6-1.1,4.1c0,2.8,1.4,5.3,3.6,6.8
			c-1.3,0-2.6-0.4-3.7-1v0.1c0,4,2.8,7.2,6.5,8c-0.7,0.2-1.4,0.3-2.2,0.3c-0.5,0-1-0.1-1.5-0.1c1,3.2,4,5.6,7.6,5.7
			c-2.8,2.2-6.3,3.5-10.1,3.5c-0.7,0-1.3,0-1.9-0.1c3.6,2.3,7.9,3.7,12.5,3.7c15,0,23.2-12.4,23.2-23.2c0-0.4,0-0.7,0-1.1
			C254.9,24.2,256.3,22.7,257.4,21.1L257.4,21.1z"/>
	</g>
</g>
<g>
	<g>
		<g>
			<path fill="#A8B7C5" d="M237.5,68c18.4,0,33.5,15,33.5,33.5S256,135,237.5,135S204,120,204,101.5S219.1,68,237.5,68z
				 M237.5,131.5c16.6,0,30.1-13.5,30.1-30.1s-13.5-30.1-30.1-30.1s-30.1,13.5-30.1,30.1S220.9,131.5,237.5,131.5z"/>
		</g>
	</g>
	<g>
		<path fill="#A8B7C5" d="M257.4,89.1c-1.5,0.6-3,1.1-4.7,1.3c1.7-1,3-2.6,3.6-4.5c-1.6,0.9-3.3,1.6-5.2,2c-1.5-1.6-3.6-2.6-6-2.6
			c-4.5,0-8.2,3.7-8.2,8.2c0,0.6,0.1,1.3,0.2,1.9c-6.8-0.3-12.8-3.6-16.8-8.5c-0.7,1.2-1.1,2.6-1.1,4.1c0,2.8,1.4,5.3,3.6,6.8
			c-1.3,0-2.6-0.4-3.7-1v0.1c0,4,2.8,7.2,6.5,8c-0.7,0.2-1.4,0.3-2.2,0.3c-0.5,0-1-0.1-1.5-0.1c1,3.2,4,5.6,7.6,5.7
			c-2.8,2.2-6.3,3.5-10.1,3.5c-0.7,0-1.3,0-1.9-0.1c3.6,2.3,7.9,3.7,12.5,3.7c15,0,23.2-12.4,23.2-23.2c0-0.4,0-0.7,0-1.1
			C254.9,92.2,256.3,90.7,257.4,89.1L257.4,89.1z"/>
	</g>
</g>
<g>
	<g>
		<g>
			<path fill="#FFC627" d="M305.5,0C323.9,0,339,15,339,33.5S324,67,305.5,67S272,52,272,33.5S287.1,0,305.5,0z M305.5,63.5
				c16.6,0,30.1-13.5,30.1-30.1S322.1,3.3,305.5,3.3c-16.6,0-30.1,13.5-30.1,30.1S288.9,63.5,305.5,63.5z"/>
		</g>
	</g>
	<path fill="#FFC627" d="M329.9,31.9h-5v-5h-4v5h-5v4h5v5h4v-5h5V31.9z M297.6,30.9v6.3h8.8c-0.7,3.8-4,6.6-8.8,6.6
		c-5.3,0-9.7-4.5-9.7-9.8s4.3-9.8,9.7-9.8c2.4,0,4.6,0.8,6.2,2.4l0,0l4.6-4.6c-2.8-2.6-6.4-4.2-10.8-4.2c-8.9,0-16.2,7.2-16.2,16.2
		c0,8.9,7.2,16.2,16.2,16.2c9.3,0,15.5-6.6,15.5-15.8c0-1.2-0.1-2.3-0.3-3.4h-15.2V30.9z"/>
</g>
<g>
	<g>
		<g>
			<path fill="#A8B7C5" d="M305.5,68c18.4,0,33.5,15,33.5,33.5S324,135,305.5,135S272,120,272,101.5S287.1,68,305.5,68z
				 M305.5,131.5c16.6,0,30.1-13.5,30.1-30.1s-13.5-30.1-30.1-30.1c-16.6,0-30.1,13.5-30.1,30.1S288.9,131.5,305.5,131.5z"/>
		</g>
	</g>
	<path fill="#A8B7C5" d="M329.9,99.9h-5v-5h-4v5h-5v4h5v5h4v-5h5V99.9z M297.6,98.9v6.3h8.8c-0.7,3.8-4,6.6-8.8,6.6
		c-5.3,0-9.7-4.5-9.7-9.8s4.3-9.8,9.7-9.8c2.4,0,4.6,0.8,6.2,2.4l0,0l4.6-4.6c-2.8-2.6-6.4-4.2-10.8-4.2c-8.9,0-16.2,7.2-16.2,16.2
		c0,8.9,7.2,16.2,16.2,16.2c9.3,0,15.5-6.6,15.5-15.8c0-1.2-0.1-2.3-0.3-3.4L297.6,98.9L297.6,98.9z"/>
</g>
<g>
	<g>
		<g>
			<path fill="#FFC627" d="M373.5,0C391.9,0,407,15,407,33.5S392,67,373.5,67S340,52,340,33.5S355.1,0,373.5,0z M373.5,63.5
				c16.6,0,30.1-13.5,30.1-30.1S390.1,3.3,373.5,3.3s-30.1,13.5-30.1,30.1S356.9,63.5,373.5,63.5z"/>
		</g>
	</g>
	<g>
		<g>
			<g>
				<path fill="#FFC627" d="M387.3,17.3h-27.5c-1.3,0-2.4,1-2.4,2.3v27.6c0,1.3,1.1,2.3,2.4,2.3h27.5c1.3,0,2.4-1,2.4-2.3V19.6
					C389.7,18.3,388.6,17.3,387.3,17.3z M367,44.8h-4.8V29.4h4.8V44.8z M364.6,27.3c-1.5,0-2.8-1.2-2.8-2.8c0-1.5,1.2-2.8,2.8-2.8
					c1.5,0,2.8,1.2,2.8,2.8C367.3,26,366.1,27.3,364.6,27.3z M384.9,44.8h-4.8v-7.5c0-1.8,0-4.1-2.5-4.1s-2.9,1.9-2.9,4v7.6h-4.8
					V29.4h4.6v2.1h0.1c0.6-1.2,2.2-2.5,4.5-2.5c4.8,0,5.7,3.2,5.7,7.3v8.5H384.9z"/>
			</g>
		</g>
	</g>
</g>
<g>
	<g>
		<g>
			<path fill="#A8B7C5" d="M373.5,68c18.4,0,33.5,15,33.5,33.5S392,135,373.5,135S340,120,340,101.5S355.1,68,373.5,68z
				 M373.5,131.5c16.6,0,30.1-13.5,30.1-30.1s-13.5-30.1-30.1-30.1s-30.1,13.5-30.1,30.1S356.9,131.5,373.5,131.5z"/>
		</g>
	</g>
	<g>
		<g>
			<g>
				<path fill="#A8B7C5" d="M387.3,85.3h-27.5c-1.3,0-2.4,1-2.4,2.3v27.6c0,1.3,1.1,2.3,2.4,2.3h27.5c1.3,0,2.4-1,2.4-2.3V87.6
					C389.7,86.3,388.6,85.3,387.3,85.3z M367,112.8h-4.8V97.4h4.8V112.8z M364.6,95.3c-1.5,0-2.8-1.2-2.8-2.8c0-1.5,1.2-2.8,2.8-2.8
					c1.5,0,2.8,1.2,2.8,2.8C367.3,94,366.1,95.3,364.6,95.3z M384.9,112.8h-4.8v-7.5c0-1.8,0-4.1-2.5-4.1s-2.9,1.9-2.9,4v7.6h-4.8
					V97.4h4.6v2.1h0.1c0.6-1.2,2.2-2.5,4.5-2.5c4.8,0,5.7,3.2,5.7,7.3v8.5H384.9z"/>
			</g>
		</g>
	</g>
</g>
</svg>
