<?xml version="1.0" encoding="utf-8"?>
<!-- Generator: Adobe Illustrator 18.0.0, SVG Export Plug-In . SVG Version: 6.00 Build 0)  -->
<!DOCTYPE svg PUBLIC "-//W3C//DTD SVG 1.1//EN" "http://www.w3.org/Graphics/SVG/1.1/DTD/svg11.dtd">
<svg version="1.1" id="Layer_1" xmlns="http://www.w3.org/2000/svg" xmlns:xlink="http://www.w3.org/1999/xlink" x="0px" y="0px"
	 viewBox="0 0 558 394.3" enable-background="new 0 0 558 394.3" xml:space="preserve">
<g>
	<path fill="#A9B8C6" d="M558,345.6H0V0h558V345.6z M4,341.6h550V4H4V341.6z"/>
</g>
<g>
	<path fill="#8D9EAA" d="M29.8,310H153c0,0,10.5,0,12.9-9v-27.2l-148.1-1.6l-0.5,30.7C17.4,302.9,22.8,310.1,29.8,310z"/>
</g>
<g>
	<rect x="31.4" y="294.4" fill="#A9B8C6" width="121.6" height="15.6"/>
</g>
<g>
	<polygon fill="#ECF0E5" points="37.2,108.4 147.1,108.4 152,263.8 31.4,263.8 	"/>
</g>
<g>
	<path fill="#FFFFFF" d="M25.9,98.4l-8.6,184.4c0,0,1.8,11.6,14.1,11.6s120.6,0,120.6,0s12.9,0,13.5-13.5
		c0.6-13.5-7.3-185.6-7.3-185.6s-4.3-8-8.6-8c-4.3,0-113.2,0-113.2,0S26.4,87.4,25.9,98.4z"/>
	<path fill="#8D9EAA" d="M152,294.9H31.4c-12.5,0-14.5-11.9-14.6-12l0-0.1l0-0.1l8.6-184.4C26,87,36.3,86.8,36.4,86.8h113.2
		c4.5,0,8.8,7.9,9,8.2l0.1,0.2c0.1,1.7,7.9,172.3,7.3,185.7C165.3,294.7,152.1,294.9,152,294.9z M17.9,282.7
		c0.2,0.9,2.2,11.2,13.6,11.2H152h0c0.5,0,12.4-0.2,13-13c0.6-13.1-7.1-180.2-7.3-185.5c-0.5-0.9-4.4-7.6-8.1-7.6H36.4
		c-0.4,0-9.4,0.2-9.9,10.5L17.9,282.7z"/>
</g>
<g>
	<ellipse fill="#9FBE78" cx="42.5" cy="193.3" rx="15.9" ry="12"/>
</g>
<g>
	<polygon fill="#9FBE78" points="98.1,194.7 98.1,215.6 115,215.6 117.4,194.7 	"/>
</g>
<g>
	<polygon fill="#D4CFC5" points="121.2,194.7 149.8,194.7 150.5,215.6 119,215.6 	"/>
</g>
<g>
	<path fill="#D4CFC5" d="M59.6,186.1l26-18.3l64.1,22v2.3H60.8C60.8,192.1,61.1,190.8,59.6,186.1z"/>
</g>
<g>
	<path fill="#C4BDAB" d="M46,178.5c0,0,5.4-1,11.2,5.3l24.2-16.7H46V178.5z"/>
</g>
<g>
	<path fill="#23AABE" d="M111.4,124.3c0,0,16.5,30.5,37.6,42.7l-0.4-13.1c0,0-14.8-10.3-19.3-20.7c-4.5-10.3-4.6-19.5-1.1-25h-18
		L111.4,124.3z"/>
</g>
<g>
	<polygon fill="#D4CFC5" points="45.9,164.1 86.4,164.1 104.6,150.2 45.9,142.7 	"/>
</g>
<g>
	<polygon fill="#9FBE78" points="45.9,140.6 45.9,119.8 76.2,123.9 89.4,145.7 	"/>
</g>
<g>
	<path fill="#D4CFC5" d="M92.8,145.7l14.9,2.4l11.3-8c0,0-5.9-6.5-10.4-16.3L92.8,145.7z"/>
</g>
<g>
	<path fill="#D4CFC5" d="M89.4,165.3l18.3,6.5l25.4-14.5c0,0-3.3-2.7-12.6-13.7L89.4,165.3z"/>
</g>
<g>
	<path fill="#D4CFC5" d="M111.3,172.9l38.3,14.3L149,170c0,0-8.6-3.9-14.2-10.2L111.3,172.9z"/>
</g>
<g>
	<polygon fill="#9FBE78" points="120.7,262.4 128,253.3 151.8,256.1 152,262.4 	"/>
</g>
<g>
	<polygon fill="#D4CFC5" points="116.4,262.4 124.3,252.2 98.1,249.8 84.8,262.4 	"/>
</g>
<g>
	<polygon fill="#C5BCAD" points="81.4,262.4 111.3,234.5 43.8,222.7 43.8,262.2 	"/>
</g>
<g>
	<polygon fill="#D4CFC5" points="43.8,216.9 114.3,218.8 114.3,232 43.8,220.6 	"/>
</g>
<g>
	<polygon fill="#D4CFC5" points="114.3,235.1 100.9,247.7 151.7,253.3 151.3,240.8 	"/>
</g>
<g>
	<polygon fill="#D4CFC5" points="117.4,219.2 117.4,232 138.4,236.1 150.8,224.5 150.8,219.2 	"/>
</g>
<g>
	<polygon fill="#D4CFC5" points="142.3,236.3 150.9,228.8 151.2,237.5 	"/>
</g>
<g>
	<path fill="#D4CFC5" d="M33.3,214.9l3.6-8.2c0,0,0.3,1.4,4.8,1.4l-2,54.3h-8.2L33.3,214.9z"/>
</g>
<g>
	<path fill="#D4CFC5" d="M130.4,108.4c0,0-5.7,13.3,1.9,24.4l15.2-12.2l-0.4-12.2L130.4,108.4z"/>
</g>
<g>
	<path fill="#D4CFC5" d="M147.5,124.7l-13.5,10.4c0,0,5.9,10.2,14.5,14.7L147.5,124.7z"/>
</g>
<g>
	<polygon fill="#D4CFC5" points="72.1,120.6 45.9,117.2 46,108.4 63.7,108.4 	"/>
</g>
<g>
	<rect x="76.6" y="194.7" fill="#D4CFC5" width="18.4" height="20.9"/>
</g>
<g>
	<rect x="38.7" y="108.4" fill="#D4CFC5" width="5.1" height="9"/>
</g>
<g>
	<polygon fill="#D4CFC5" points="36.6,120.6 43.8,119.8 43.8,140.4 35.9,144.7 	"/>
</g>
<g>
	<path fill="#D4CFC5" d="M35.7,148.2l8-4.5l-1.3,35.1c0,0-2-1-3.8,0l-3.8-6.9L35.7,148.2z"/>
</g>
<g>
	<path fill="#D4CFC5" d="M43.8,214.1l29.6,1.5v-20.9h-12c0,0-4.5,13.1-17.5,13.3V214.1z"/>
</g>
<g>
	<ellipse fill="#8D9EAA" cx="91.7" cy="278.3" rx="10.4" ry="8.2"/>
</g>
<g>
	<path fill="#A9B8C6" d="M88.5,23.4c-43.3,0-42,45.7-42,45.7c5.3,24.3,42,78.9,42,78.9c30.1-40.7,40.9-77.3,41.2-78.9
		C130.1,67.5,131.8,23.4,88.5,23.4z M88.4,85.8c-11.6,0-21-9.4-21-21s9.4-21,21-21s21,9.4,21,21S100,85.8,88.4,85.8z"/>
</g>
<g>
	<g>
		<circle fill-rule="evenodd" clip-rule="evenodd" fill="#FFFFFF" cx="396.6" cy="246.5" r="146"/>
	</g>
	<g>
		<path fill="#A9B8C6" d="M396.6,394.3c-81.5,0-147.8-66.3-147.8-147.8S315.1,98.7,396.6,98.7c81.5,0,147.8,66.3,147.8,147.8
			S478.1,394.3,396.6,394.3z M396.6,102.3c-79.5,0-144.1,64.7-144.1,144.1s64.7,144.1,144.1,144.1c79.5,0,144.1-64.7,144.1-144.1
			S476.1,102.3,396.6,102.3z"/>
	</g>
</g>
<g>
	<defs>
		<circle id="SVGID_1_" cx="396.6" cy="246.5" r="139.8"/>
	</defs>
	<clipPath id="SVGID_2_">
		<use xlink:href="#SVGID_1_"  overflow="visible"/>
	</clipPath>
	<g clip-path="url(#SVGID_2_)">
		<g>
			<path fill-rule="evenodd" clip-rule="evenodd" fill="#C6D1DB" d="M552.3,115.2c-1.4-0.2-1.7,0.9-2.6,0c0.3-1.5-0.6-1.7-0.4-3
				c-1.1,0-2.5,0.2-3-0.4c-0.7-4.6-2.5-8.1-3.4-12.5c-1.7,0-2.5-0.9-3.9-1.3c-1.1,0.9-1.9,2.1-3.4,2.6c-1.2-0.1-0.5-2-2.2-1.7
				c-1.7,4.2-4.7,10.7-2.6,15.9c-1.1,1.8-2.3,3.5-2.2,6.5c-1.5-0.4-2.1,1-3,0c-0.4,1.3-0.3,3.1-1.7,3.4c-4.5,0.8-9.5,2.8-14.2,3.9
				c-2.3,0.5-4.7,0.1-6.5,1.3c-2.1,1.3-2.8,4.4-4.3,6.5c-1,1.4-3.2,1.6-2.6,3.9c2,0.7,1.6,3,1.7,4.3c-4.1,5.9-11.6,3-18.1,6
				c0.1,2,1.4,2.9,2.2,4.3c-5.6,7.5-13.6,12.6-22.4,16.8c-1.4-1.8-5.7-0.6-6.5-3c2.2-2.1,1.8-8,5.2-7.8c-0.4-5.6-1.2-10.9-4.7-13.4
				c-2.8,0.3-2.4,3.9-4.7,4.7c-1.7,0.3-1.2-1.6-1.3-3c4.9-1.3,1.6-8.9,2.6-11.2c-1.1,0.1-1.1-0.9-1.3-1.7c-4.6,0-8.6-5.2-11.2-0.4
				c-0.4,1.4,1.4,0.6,1.3,1.7c-1.5-0.3-1.8,0.5-2.6,0.9c-0.3,2.6,1.2,4.4-1.3,4.7c-0.7-2.1,1.8-3.7,0-4.3c-4,4.3-4.2,8.9-4.7,16.4
				c4.8,4.6,3.4,16.3-3,18.1c-9-8.1-4-24.8-1.7-34c-1.7,2.1-3.6,6.5-5.6,6.9c1.4-4.2,4.1-7.1,5.2-11.6c3.7,0.9,5.8-1.8,10.3-3
				c3.8,0.6,7.2,0,9.9-0.4c-2-0.3-2.5-2.1-2.2-4.7c-2.3,0.1-4,1.8-6,0.9c0-0.9,0-1.7,0-2.6c-6.3,0.7-9.5,4.7-15.1,3.9
				c-0.7-3.5-5.7-4.2-6.9-2.6c0.7-2.8,2.9-4,4.3-6c-4.3,0.1-5.8,2.9-7.8,5.2c-2.9,1.6-6.4,2.8-9,4.7c-0.5-1.6-2.6,0-3-0.9
				c0.4-0.9,1.3-1.3,1.3-2.6c-2.2-0.8-5,3.5-8.2,1.7c3.1-1.7,4.4-5.7,7.3-7.8c2.4-1.8,6-1.4,7.8-4.3c-2.5-0.5-6.6-0.2-8.2-1.7
				c-2.2,2.3-6.7,2.1-7.3-0.9c-3.7,1.1-6.8-4.1-10.3-0.9c-1.8-0.7-3.1-1.8-5.6-1.7c-1.9-1.3-0.1-6.2-3.4-6c-1,0.4,0.2,3.1-0.9,3.4
				c-63.8,1.2-117.6-9.8-166.3-22.4c2,3.2,0.2,7,0.9,9.5c-2.1-1.6-1-3-0.9-4.3c-1.7-0.3-1.1,1.8-2.6,1.7c-4.4-0.7-6.9-3.5-10.3-5.2
				c-0.3,4-0.7,10.7,1.3,13.8c-0.8,0-1.3,0.1-1.7,0.4c-0.5,1.6,1.1,1.2,0.9,2.6c-1.8,1.1-2.4,3.4-0.4,4.3c-1.4-0.4-0.9,1.1-1.7,1.3
				c-3,9.8-6.5,19.1-12.1,26.3c0.1,2.6-0.5,4.4-0.9,6.5c2.6,6.7-3.1,11.9-5.2,16.8c4.9,3.1,0.3,8.8,0.9,12.9
				c0.2,1.8,3.3,4.5,3.4,7.3c0.1,2.7,0.4,3.6,2.2,5.2c-2.3,3.7-0.1,8.5,2.6,9.9c-0.2,1.5-2,1.5-2.2,3c0.2,5.7,5.7,10.2,6,15.1
				c0.2,2.3-2.1,3.9-0.4,6c7.5-0.2,8.4,6.3,13.8,8.2c0.3,1.4-0.8,1.3,0,2.2c5,1.2,6.8,5.5,6.5,12.1c5.3,1.9,12.5,1.8,18.5,3
				c0,0.9-1.2,0.5-0.9,1.7c6.8,3.3,13.1,8,19.4,11.6c8,4.7,17.5,5.9,29.7,7.3c0.2-1.5,0.2-3.3,0.9-4.3c4.2,0.7,8.3,1.4,12.9,1.7
				c3,3.8,5.3,8.2,9.9,10.3c2.4,2.6,1.7,5.4,2.6,9c1.2,4.8,7.3,5.9,11.2,8.6c3.1-1.9,2.7-7.4,7.3-7.8c9.1,1.1,13.6,6.8,15.1,15.5
				c3.1,1.6,3.9,5.6,6.9,7.3c-1.9,10.8,10.3,13.5,17.7,15.1c-1.4-5.7-1.1-11.4-0.4-17.7c7.3-4.9,16.1-8.3,22-14.6
				c6.1-5.1,16.9-1.3,23.3-1.3c-0.2-2.4-2.9-0.1-3.4-1.7c2.7-2.5,4.8,1.7,7.3,2.2c0.1,0.8-0.5,1-0.4,1.7c1.5,0.7,2.7,1.6,4.7,1.7
				c1.1-0.8,1.6-2.1,3.4-2.2c1.4,0.9-1.1,1.8,0,2.2c3.4-1.1,0.8-3.3,3.4-4.3c0.6,2,6.4,4.8,6.9,1.7c-1.2-1.7-4.8-1-5.6-3
				c1.4-1.1,3.1-1.5,2.2-4.7c-1.9-0.2-1.1,2.4-3.4,1.7c1.9-5.1,6.4-4.5,12.5-4.7c0.8-0.7,0.2-3,1.7-3c0.9,0.7,2.1,3.2,0.4,3.9
				c7.1-2.3,17.5-4.2,21.1,2.6c3.8-0.3,7.3-1.9,7.8-4.3c7.4-0.8,6.9,6.3,12.9,6.9c3.6,2.9-0.5,11,3,13.8c1.1-1.2-0.3-2.9,0-3
				c0.6,0.1,1.6-0.2,1.7,0.4c0.2,2-1.6,2.1-1.7,3.9c2.2,2.5,4.1,5.4,5.6,8.6c1.2,0.4,1.1-0.6,2.2-0.4c0.9,1.4,1.3,3.3,2.2,4.7
				c3.8-0.9,5.4,3.3,6.5,6.5c1.6-0.5,4.5-2.1,5.6-1.7c-0.6,2.6-4.9,3.7-4.7,5.6c3-2.2,5.8-4.6,6.5-9c-1.5-0.7-0.3,1.5-1.3,1.3
				c3.3-11.3-3-19-6.9-25.8c0-0.9,1.2-0.5,0.9-1.7c-6.5-5.8-13.4-17.5-9.5-28.9c0.9-2.6,3.8-4.1,3.9-6.9c4.1-1.4,5.2-5.7,8.6-7.8
				c-0.2-5.7,2.9-8.1,7.8-8.6c-0.4-8.5,10.5-6.9,10.8-12.5c-0.3,0.8-3.7,1.3-4.3,0c1.8,1.4,3-2.3,1.3-3c2.8,0.8,5.8-0.4,6-3.4
				c-0.7-1.2-2.6,1-3.4-0.4c1.5,0.1,2.6-0.3,3-1.3l-0.2-0.6l0.6,0.2c-1.8-2.8-3.3-5.9-4.7-9c-1,0-2.1-0.1-2.7,0.2
				c1.7-1.4-2-3.1-1.2-4.1c0.4,0,0.5,0.3,0.9,0.4c-0.2-3.2-1.2-5.7-3.4-6.9c1.2,0.3,0.8-0.9,1.3-1.3c-3-1.9-3.5-9.9-0.4-10.3
				c-2,1.8,1.2,4-0.9,6c1.9,0,0.7,0.6,0.9,3c2.3,0.1,1.8,3.1,3.4,3.9c0.6-1.5-1.4-2.6-0.4-3c4.5,1.6-0.8,7.9,2.6,10.3
				c0.9-5.6,4.8-10.8,2.6-16.8c-3-0.9-3.5-4.3-5.2-6.5c1.2,1.7,2.8,2.9,5.6,3c0.2,1-0.8,0.9-0.4,2.2c3.2-3.1,5.8-8.7,4.3-15.1
				c-0.5-1.1-1.6,0.9-2.2-0.4c0.9-0.1,0.8-1.2,1.7-1.3l-0.2-1.2l0.6-1c3-6.1,11.9-6.5,17.2-10.3c0.5-1.3-0.2-2.2,1.7-2.6
				c0.2,1.4-0.1,2.2-0.9,2.6c2-1.1,2.9-3.1,5.6-3.4c-0.1-2.2-0.7-3.9-3-3.9c0.2,1.4,2.2,1,2.2,2.6c-3.7,3.3-4.5-4-7.3-3
				c0.3-3.8-0.2-9,1.7-14.6c2.4,0.4,4-2.2,6-3.4c0.3-1.5-0.5-4.1,0-4.3c0.5,0.6,1.8,0.5,1.7,1.7c-1,0.6-1.6,0.7-0.9,2.2
				c2.2-0.5,1.2-3.5,2.6-4.7c-0.1,1.1-0.1,2.2,1.3,1.7c0.8-2.5-0.5-1.2-0.9-2.6C549.9,124.9,556.3,118.4,552.3,115.2z"/>
		</g>
	</g>
</g>
<g>
	<g>
		
			<rect x="423.1" y="202" transform="matrix(0.9894 0.1452 -0.1452 0.9894 39.6255 -64.4948)" fill="#FFFFFF" width="77.4" height="74.6"/>
	</g>
	<g>
		<path fill="#A9B8C6" d="M495,282.2l-0.4-0.1l-77-11.3l0.1-0.4l10.9-74.1l0.4,0.1l77,11.3l-0.1,0.4L495,282.2z M418.5,270.3
			l75.9,11.1l10.7-73l-75.9-11.1L418.5,270.3z"/>
	</g>
</g>
<g>
	<g>
		
			<rect x="423.1" y="202" transform="matrix(0.9887 -0.15 0.15 0.9887 -30.6761 71.9921)" fill="#FFFFFF" width="77.4" height="74.6"/>
	</g>
	<g>
		<path fill="#A9B8C6" d="M428.8,282.4l-0.1-0.4l-11.2-74.1l77.3-11.7l0.1,0.4l11.2,74.1l-0.4,0.1L428.8,282.4z M418.3,208.6
			l11.1,73l75.8-11.5l-11.1-73L418.3,208.6z"/>
	</g>
</g>
<g>
	<g>
		<g>
			<rect x="423.1" y="202" fill="#FFFFFF" width="77.4" height="74.6"/>
		</g>
		<g>
			<path fill="#A9B8C6" d="M422.7,277l0-75.3l78.2,0l0,75.3L422.7,277z M423.4,202.4l0,73.8l76.7,0l0-73.8L423.4,202.4z"/>
		</g>
	</g>
	<g>
		<rect x="429.1" y="207.4" fill="#D7DFE6" width="66" height="62.9"/>
	</g>
</g>
<g>
	<g>
		<rect x="91.5" y="150.8" transform="matrix(0.994 0.1091 -0.1091 0.994 17.0623 -9.1849)" fill="#A9B8C6" width="2" height="1"/>
	</g>
	<g>
		<path fill="#A9B8C6" d="M487.8,195.3l-3.9-0.4l0.1-1l3.9,0.4L487.8,195.3z M479.9,194.4L476,194l0.1-1l3.9,0.4L479.9,194.4z
			 M472.1,193.5l-3.9-0.4l0.1-1l3.9,0.4L472.1,193.5z M464.2,192.7l-3.9-0.4l0.1-1l3.9,0.4L464.2,192.7z M456.3,191.8l-3.9-0.4
			l0.1-1l3.9,0.4L456.3,191.8z M448.4,190.9l-3.9-0.4l0.1-1l3.9,0.4L448.4,190.9z M440.5,190.1l-3.9-0.4l0.1-1l3.9,0.4L440.5,190.1z
			 M432.6,189.2l-3.9-0.4l0.1-1l3.9,0.4L432.6,189.2z M424.7,188.3l-3.9-0.4l0.1-1l3.9,0.4L424.7,188.3z M416.8,187.5l-3.9-0.4
			l0.1-1l3.9,0.4L416.8,187.5z M408.9,186.6l-3.9-0.4l0.1-1l3.9,0.4L408.9,186.6z M401.1,185.7l-3.9-0.4l0.1-1l3.9,0.4L401.1,185.7z
			 M393.2,184.9l-3.9-0.4l0.1-1l3.9,0.4L393.2,184.9z M385.3,184l-3.9-0.4l0.1-1l3.9,0.4L385.3,184z M377.4,183.1l-3.9-0.4l0.1-1
			l3.9,0.4L377.4,183.1z M369.5,182.3l-3.9-0.4l0.1-1l3.9,0.4L369.5,182.3z M361.6,181.4l-3.9-0.4l0.1-1l3.9,0.4L361.6,181.4z
			 M353.7,180.5l-3.9-0.4l0.1-1l3.9,0.4L353.7,180.5z M345.8,179.7l-3.9-0.4l0.1-1l3.9,0.4L345.8,179.7z M337.9,178.8l-3.9-0.4
			l0.1-1l3.9,0.4L337.9,178.8z M330.1,177.9l-3.9-0.4l0.1-1l3.9,0.4L330.1,177.9z M322.2,177.1l-3.9-0.4l0.1-1l3.9,0.4L322.2,177.1z
			 M314.3,176.2l-3.9-0.4l0.1-1l3.9,0.4L314.3,176.2z M306.4,175.3l-3.9-0.4l0.1-1l3.9,0.4L306.4,175.3z M298.5,174.5l-3.9-0.4
			l0.1-1l3.9,0.4L298.5,174.5z M290.6,173.6l-3.9-0.4l0.1-1l3.9,0.4L290.6,173.6z M282.7,172.7l-3.9-0.4l0.1-1l3.9,0.4L282.7,172.7z
			 M274.8,171.8l-3.9-0.4l0.1-1l3.9,0.4L274.8,171.8z M266.9,171l-3.9-0.4l0.1-1l3.9,0.4L266.9,171z M259.1,170.1l-3.9-0.4l0.1-1
			l3.9,0.4L259.1,170.1z M251.2,169.2l-3.9-0.4l0.1-1l3.9,0.4L251.2,169.2z M243.3,168.4l-3.9-0.4l0.1-1l3.9,0.4L243.3,168.4z
			 M235.4,167.5l-3.9-0.4l0.1-1l3.9,0.4L235.4,167.5z M227.5,166.6l-3.9-0.4l0.1-1l3.9,0.4L227.5,166.6z M219.6,165.8l-3.9-0.4
			l0.1-1l3.9,0.4L219.6,165.8z M211.7,164.9l-3.9-0.4l0.1-1l3.9,0.4L211.7,164.9z M203.8,164l-3.9-0.4l0.1-1l3.9,0.4L203.8,164z
			 M195.9,163.2l-3.9-0.4l0.1-1l3.9,0.4L195.9,163.2z M188.1,162.3l-3.9-0.4l0.1-1l3.9,0.4L188.1,162.3z M180.2,161.4l-3.9-0.4
			l0.1-1l3.9,0.4L180.2,161.4z M172.3,160.6l-3.9-0.4l0.1-1l3.9,0.4L172.3,160.6z M164.4,159.7l-3.9-0.4l0.1-1l3.9,0.4L164.4,159.7z
			 M156.5,158.8l-3.9-0.4l0.1-1l3.9,0.4L156.5,158.8z M148.6,158l-3.9-0.4l0.1-1l3.9,0.4L148.6,158z M140.7,157.1l-3.9-0.4l0.1-1
			l3.9,0.4L140.7,157.1z M132.8,156.2l-3.9-0.4l0.1-1l3.9,0.4L132.8,156.2z M124.9,155.4l-3.9-0.4l0.1-1l3.9,0.4L124.9,155.4z
			 M117.1,154.5l-3.9-0.4l0.1-1l3.9,0.4L117.1,154.5z M109.2,153.6l-3.9-0.4l0.1-1l3.9,0.4L109.2,153.6z M101.3,152.8l-3.9-0.4
			l0.1-1l3.9,0.4L101.3,152.8z"/>
	</g>
	<g>
		<rect x="491.8" y="194.8" transform="matrix(0.994 0.1091 -0.1091 0.994 24.2536 -52.61)" fill="#A9B8C6" width="2" height="1"/>
	</g>
</g>
<g>
	<g>
		
			<rect x="91.4" y="150.9" transform="matrix(0.9862 0.1653 -0.1653 0.9862 26.2868 -13.197)" fill="#A9B8C6" width="2" height="1"/>
	</g>
	<g>
		<path fill="#A9B8C6" d="M487.8,218.2l-3.9-0.7l0.2-1l3.9,0.7L487.8,218.2z M479.9,216.8l-3.9-0.7l0.2-1l3.9,0.7L479.9,216.8z
			 M472,215.5l-3.9-0.7l0.2-1l3.9,0.7L472,215.5z M464.1,214.2l-3.9-0.7l0.2-1l3.9,0.7L464.1,214.2z M456.3,212.9l-3.9-0.7l0.2-1
			l3.9,0.7L456.3,212.9z M448.4,211.5l-3.9-0.7l0.2-1l3.9,0.7L448.4,211.5z M440.5,210.2l-3.9-0.7l0.2-1l3.9,0.7L440.5,210.2z
			 M432.6,208.9l-3.9-0.7l0.2-1l3.9,0.7L432.6,208.9z M424.7,207.6l-3.9-0.7l0.2-1l3.9,0.7L424.7,207.6z M416.8,206.3l-3.9-0.7
			l0.2-1l3.9,0.7L416.8,206.3z M408.9,204.9l-3.9-0.7l0.2-1l3.9,0.7L408.9,204.9z M401,203.6l-3.9-0.7l0.2-1l3.9,0.7L401,203.6z
			 M393.1,202.3l-3.9-0.7l0.2-1l3.9,0.7L393.1,202.3z M385.3,201l-3.9-0.7l0.2-1l3.9,0.7L385.3,201z M377.4,199.6l-3.9-0.7l0.2-1
			l3.9,0.7L377.4,199.6z M369.5,198.3l-3.9-0.7l0.2-1l3.9,0.7L369.5,198.3z M361.6,197l-3.9-0.7l0.2-1l3.9,0.7L361.6,197z
			 M353.7,195.7l-3.9-0.7l0.2-1l3.9,0.7L353.7,195.7z M345.8,194.4l-3.9-0.7l0.2-1l3.9,0.7L345.8,194.4z M337.9,193l-3.9-0.7l0.2-1
			l3.9,0.7L337.9,193z M330,191.7l-3.9-0.7l0.2-1l3.9,0.7L330,191.7z M322.1,190.4l-3.9-0.7l0.2-1l3.9,0.7L322.1,190.4z
			 M314.3,189.1l-3.9-0.7l0.2-1l3.9,0.7L314.3,189.1z M306.4,187.7l-3.9-0.7l0.2-1l3.9,0.7L306.4,187.7z M298.5,186.4l-3.9-0.7
			l0.2-1l3.9,0.7L298.5,186.4z M290.6,185.1l-3.9-0.7l0.2-1l3.9,0.7L290.6,185.1z M282.7,183.8l-3.9-0.7l0.2-1l3.9,0.7L282.7,183.8z
			 M274.8,182.4l-3.9-0.7l0.2-1l3.9,0.7L274.8,182.4z M266.9,181.1l-3.9-0.7l0.2-1l3.9,0.7L266.9,181.1z M259,179.8l-3.9-0.7l0.2-1
			l3.9,0.7L259,179.8z M251.1,178.5l-3.9-0.7l0.2-1l3.9,0.7L251.1,178.5z M243.2,177.2l-3.9-0.7l0.2-1l3.9,0.7L243.2,177.2z
			 M235.4,175.8l-3.9-0.7l0.2-1l3.9,0.7L235.4,175.8z M227.5,174.5l-3.9-0.7l0.2-1l3.9,0.7L227.5,174.5z M219.6,173.2l-3.9-0.7
			l0.2-1l3.9,0.7L219.6,173.2z M211.7,171.9l-3.9-0.7l0.2-1l3.9,0.7L211.7,171.9z M203.8,170.5l-3.9-0.7l0.2-1l3.9,0.7L203.8,170.5z
			 M195.9,169.2l-3.9-0.7l0.2-1l3.9,0.7L195.9,169.2z M188,167.9l-3.9-0.7l0.2-1l3.9,0.7L188,167.9z M180.1,166.6l-3.9-0.7l0.2-1
			l3.9,0.7L180.1,166.6z M172.2,165.2l-3.9-0.7l0.2-1l3.9,0.7L172.2,165.2z M164.4,163.9l-3.9-0.7l0.2-1l3.9,0.7L164.4,163.9z
			 M156.5,162.6l-3.9-0.7l0.2-1l3.9,0.7L156.5,162.6z M148.6,161.3l-3.9-0.7l0.2-1l3.9,0.7L148.6,161.3z M140.7,160l-3.9-0.7l0.2-1
			l3.9,0.7L140.7,160z M132.8,158.6l-3.9-0.7l0.2-1l3.9,0.7L132.8,158.6z M124.9,157.3l-3.9-0.7l0.2-1l3.9,0.7L124.9,157.3z
			 M117,156l-3.9-0.7l0.2-1l3.9,0.7L117,156z M109.1,154.7l-3.9-0.7l0.2-1l3.9,0.7L109.1,154.7z M101.2,153.3l-3.9-0.7l0.2-1
			l3.9,0.7L101.2,153.3z"/>
	</g>
	<g>
		
			<rect x="491.8" y="218" transform="matrix(0.9862 0.1653 -0.1653 0.9862 42.8882 -78.4454)" fill="#A9B8C6" width="2" height="1"/>
	</g>
</g>
<g>
	<g>
		<g>
			<g>
				<circle fill="#A9B8C6" cx="493.8" cy="206.8" r="11.9"/>
			</g>
		</g>
		<g>
			<g>
				<path fill="#FFFFFF" d="M493.8,219.2c-6.9,0-12.5-5.6-12.5-12.5s5.6-12.5,12.5-12.5c6.9,0,12.5,5.6,12.5,12.5
					S500.7,219.2,493.8,219.2z M493.8,195.4c-6.3,0-11.3,5.1-11.3,11.3c0,6.3,5.1,11.3,11.3,11.3s11.3-5.1,11.3-11.3
					C505.2,200.5,500.1,195.4,493.8,195.4z"/>
			</g>
		</g>
	</g>
	<g>
		<g>
			<path fill="#FFFFFF" d="M493.7,213.1c-0.5,0-1-0.1-1.4-0.2c-0.4-0.1-0.8-0.3-1.2-0.6c-0.4-0.2-0.7-0.5-0.9-0.9
				c-0.3-0.3-0.5-0.7-0.7-1.2l2.1-0.8c0.1,0.3,0.3,0.5,0.5,0.7c0.2,0.2,0.3,0.3,0.5,0.5c0.2,0.1,0.4,0.2,0.6,0.2
				c0.2,0.1,0.4,0.1,0.6,0.1c0.3,0,0.5,0,0.7-0.1c0.2-0.1,0.4-0.2,0.6-0.3s0.3-0.3,0.4-0.5c0.1-0.2,0.1-0.4,0.1-0.7
				c0-0.2,0-0.4-0.1-0.6s-0.2-0.4-0.3-0.5c-0.2-0.1-0.3-0.3-0.6-0.3c-0.2-0.1-0.5-0.1-0.8-0.1h-1.2v-2.2h1.2c0.4,0,0.8-0.1,1-0.4
				c0.3-0.2,0.4-0.6,0.4-1c0-0.2,0-0.4-0.1-0.5c-0.1-0.2-0.2-0.3-0.3-0.4s-0.3-0.2-0.5-0.3c-0.2-0.1-0.4-0.1-0.6-0.1
				c-0.2,0-0.4,0-0.6,0.1c-0.2,0.1-0.3,0.1-0.5,0.2c-0.1,0.1-0.3,0.2-0.4,0.3c-0.1,0.1-0.2,0.3-0.3,0.4l-2.1-0.8
				c0.2-0.4,0.4-0.7,0.6-1c0.3-0.3,0.5-0.6,0.9-0.8c0.3-0.2,0.7-0.4,1.1-0.5c0.4-0.1,0.8-0.2,1.3-0.2c0.6,0,1.1,0.1,1.5,0.3
				c0.5,0.2,0.9,0.4,1.2,0.7c0.3,0.3,0.6,0.6,0.8,1.1c0.2,0.4,0.3,0.8,0.3,1.3c0,0.6-0.1,1.1-0.4,1.5s-0.6,0.8-1.1,1
				c0.3,0.1,0.5,0.2,0.7,0.4c0.2,0.2,0.4,0.4,0.6,0.6c0.2,0.2,0.3,0.5,0.4,0.8s0.1,0.6,0.1,0.9c0,0.6-0.1,1.1-0.3,1.6
				c-0.2,0.5-0.5,0.9-0.9,1.2s-0.8,0.6-1.3,0.7S494.3,213.1,493.7,213.1z"/>
		</g>
	</g>
</g>
<g>
	<path fill="#A9B8C6" d="M198.8,80.8c-2.3,0-4.4-0.3-6.3-0.9c-1.9-0.6-3.6-1.4-5-2.5c-1.5-1.1-2.7-2.3-3.8-3.8
		c-1.1-1.5-2-3.1-2.6-4.8c-0.7-1.7-1.2-3.5-1.5-5.5c-0.3-1.9-0.5-3.9-0.5-5.8c0-1.8,0.2-3.7,0.5-5.5c0.3-1.9,0.9-3.7,1.6-5.4
		c0.7-1.7,1.6-3.4,2.7-4.9c1.1-1.5,2.4-2.8,3.8-3.9c1.5-1.1,3.1-2,5-2.6c1.9-0.6,3.9-1,6.2-1c2.2,0,4.1,0.3,5.8,0.8
		c1.7,0.5,3.1,1.3,4.4,2.2c1.3,0.9,2.4,1.9,3.4,3.1c1,1.2,1.8,2.4,2.6,3.6l-7.7,4.4c-0.5-0.8-1-1.5-1.6-2.2
		c-0.6-0.7-1.2-1.3-1.9-1.8c-0.7-0.5-1.4-0.9-2.2-1.2c-0.8-0.3-1.7-0.5-2.7-0.5c-1.4,0-2.6,0.2-3.7,0.6c-1.1,0.4-2,1-2.8,1.8
		c-0.8,0.7-1.5,1.6-2,2.6c-0.5,1-1,2-1.3,3.1c-0.3,1.1-0.6,2.3-0.7,3.4c-0.1,1.2-0.2,2.3-0.2,3.4c0,1.9,0.2,3.8,0.6,5.6
		c0.4,1.8,1,3.4,1.9,4.8c0.9,1.4,2,2.5,3.4,3.4c1.4,0.8,3,1.3,5,1.3c1.1,0,2.1-0.2,3.1-0.6c1-0.4,1.8-0.9,2.5-1.6
		c0.7-0.7,1.3-1.4,1.7-2.3c0.4-0.9,0.6-1.9,0.6-2.9v-0.4H199v-8.3h16.6V63c0,2.9-0.4,5.5-1.3,7.7c-0.9,2.2-2,4.1-3.5,5.6
		c-1.5,1.5-3.3,2.6-5.3,3.4C203.4,80.4,201.2,80.8,198.8,80.8z"/>
</g>
<g>
	<path fill="#A9B8C6" d="M220.4,80V34.9h30.8v8.3h-22.1v9.5h13v8.2h-13v10.9h23.4V80H220.4z"/>
</g>
<g>
	<path fill="#A9B8C6" d="M275.4,80.8c-2.4,0-4.6-0.3-6.5-1c-1.9-0.6-3.6-1.5-5.1-2.6c-1.5-1.1-2.7-2.4-3.8-3.9
		c-1-1.5-1.9-3.1-2.6-4.8c-0.7-1.7-1.1-3.5-1.4-5.4c-0.3-1.9-0.5-3.8-0.5-5.6c0-1.8,0.2-3.7,0.5-5.6c0.3-1.9,0.8-3.7,1.4-5.4
		c0.7-1.7,1.5-3.3,2.6-4.8c1-1.5,2.3-2.8,3.8-3.9c1.5-1.1,3.2-2,5.1-2.6c1.9-0.6,4.1-1,6.5-1s4.6,0.3,6.5,1c1.9,0.6,3.6,1.5,5.1,2.6
		c1.5,1.1,2.7,2.4,3.8,3.9c1,1.5,1.9,3.1,2.6,4.8c0.7,1.7,1.1,3.5,1.4,5.4c0.3,1.9,0.5,3.7,0.5,5.6c0,1.9-0.2,3.7-0.5,5.6
		c-0.3,1.9-0.8,3.7-1.4,5.4c-0.7,1.7-1.5,3.3-2.6,4.8c-1,1.5-2.3,2.8-3.8,3.9c-1.5,1.1-3.2,2-5.1,2.6
		C280,80.5,277.8,80.8,275.4,80.8z M275.4,72.4c2,0,3.7-0.5,5.1-1.4s2.5-2.2,3.3-3.6c0.9-1.5,1.5-3.1,1.8-4.8
		c0.4-1.8,0.6-3.4,0.6-5.1c0-1.2-0.1-2.3-0.2-3.5c-0.2-1.2-0.4-2.3-0.8-3.4c-0.4-1.1-0.8-2.1-1.4-3.1c-0.6-1-1.2-1.8-2-2.5
		c-0.8-0.7-1.7-1.3-2.8-1.7c-1.1-0.4-2.3-0.6-3.6-0.6c-1.4,0-2.6,0.2-3.6,0.7c-1.1,0.4-2,1-2.8,1.8c-0.8,0.7-1.5,1.6-2.1,2.6
		c-0.6,1-1,2-1.4,3.1c-0.4,1.1-0.6,2.2-0.8,3.4c-0.2,1.2-0.2,2.3-0.2,3.4c0,1.7,0.2,3.5,0.6,5.2c0.4,1.8,1,3.4,1.8,4.8
		c0.8,1.4,2,2.6,3.4,3.5C271.6,72,273.3,72.4,275.4,72.4z"/>
</g>
<g>
	<path fill="#A9B8C6" d="M317.5,43.3V80h-8.7V43.3h-12.9v-8.4h34.5v8.4H317.5z"/>
</g>
<g>
	<path fill="#A9B8C6" d="M359.4,80l-3.5-9.3h-17.4L335,80h-9.3L343,34.9h8.5L368.7,80H359.4z M348.6,51c-0.2-0.5-0.5-1.2-0.7-2
		c-0.3-0.8-0.5-1.5-0.7-2.1c-0.2,0.7-0.4,1.4-0.7,2.1c-0.3,0.8-0.5,1.4-0.8,2l-4.5,11.7h11.7L348.6,51z"/>
</g>
<g>
	<path fill="#A9B8C6" d="M387.2,80.8c-2.3,0-4.4-0.3-6.3-0.9c-1.9-0.6-3.6-1.4-5-2.5c-1.5-1.1-2.7-2.3-3.8-3.8
		c-1.1-1.5-2-3.1-2.6-4.8c-0.7-1.7-1.2-3.5-1.5-5.5c-0.3-1.9-0.5-3.9-0.5-5.8c0-1.8,0.2-3.7,0.5-5.5c0.3-1.9,0.9-3.7,1.6-5.4
		c0.7-1.7,1.6-3.4,2.7-4.9c1.1-1.5,2.4-2.8,3.8-3.9c1.5-1.1,3.1-2,5-2.6c1.9-0.6,3.9-1,6.2-1c2.2,0,4.1,0.3,5.8,0.8
		c1.7,0.5,3.1,1.3,4.4,2.2c1.3,0.9,2.4,1.9,3.4,3.1c1,1.2,1.8,2.4,2.6,3.6l-7.7,4.4c-0.5-0.8-1-1.5-1.6-2.2
		c-0.6-0.7-1.2-1.3-1.9-1.8s-1.4-0.9-2.2-1.2c-0.8-0.3-1.7-0.5-2.7-0.5c-1.4,0-2.6,0.2-3.7,0.6c-1.1,0.4-2,1-2.8,1.8
		c-0.8,0.7-1.5,1.6-2,2.6c-0.5,1-1,2-1.3,3.1c-0.3,1.1-0.6,2.3-0.7,3.4c-0.1,1.2-0.2,2.3-0.2,3.4c0,1.9,0.2,3.8,0.6,5.6
		c0.4,1.8,1,3.4,1.9,4.8c0.9,1.4,2,2.5,3.4,3.4c1.4,0.8,3,1.3,5,1.3c1.1,0,2.1-0.2,3.1-0.6c1-0.4,1.8-0.9,2.5-1.6
		c0.7-0.7,1.3-1.4,1.7-2.3c0.4-0.9,0.6-1.9,0.6-2.9v-0.4h-7.7v-8.3h16.6V63c0,2.9-0.4,5.5-1.3,7.7c-0.9,2.2-2,4.1-3.5,5.6
		c-1.5,1.5-3.3,2.6-5.3,3.4C391.8,80.4,389.6,80.8,387.2,80.8z"/>
</g>
<g>
	<path fill="#A9B8C6" d="M427,80.8c-2.3,0-4.4-0.3-6.3-0.9c-1.9-0.6-3.6-1.4-5-2.5s-2.7-2.3-3.8-3.8c-1.1-1.5-2-3.1-2.6-4.8
		c-0.7-1.7-1.2-3.5-1.5-5.5c-0.3-1.9-0.5-3.9-0.5-5.8c0-1.8,0.2-3.7,0.5-5.5c0.3-1.9,0.9-3.7,1.6-5.4c0.7-1.7,1.6-3.4,2.7-4.9
		c1.1-1.5,2.4-2.8,3.8-3.9c1.5-1.1,3.1-2,5-2.6c1.9-0.6,3.9-1,6.2-1c2.2,0,4.1,0.3,5.8,0.8c1.7,0.5,3.1,1.3,4.4,2.2
		c1.3,0.9,2.4,1.9,3.4,3.1c1,1.2,1.8,2.4,2.6,3.6l-7.7,4.4c-0.5-0.8-1-1.5-1.6-2.2c-0.6-0.7-1.2-1.3-1.9-1.8
		c-0.7-0.5-1.4-0.9-2.3-1.2c-0.8-0.3-1.7-0.5-2.7-0.5c-1.4,0-2.6,0.2-3.7,0.6c-1.1,0.4-2,1-2.8,1.8c-0.8,0.7-1.5,1.6-2,2.6
		c-0.5,1-1,2-1.3,3.1c-0.3,1.1-0.6,2.3-0.7,3.4c-0.1,1.2-0.2,2.3-0.2,3.4c0,1.9,0.2,3.8,0.6,5.6c0.4,1.8,1,3.4,1.9,4.8
		c0.9,1.4,2,2.5,3.4,3.4c1.4,0.8,3,1.3,5,1.3c1.1,0,2.1-0.2,3.1-0.6c1-0.4,1.8-0.9,2.5-1.6c0.7-0.7,1.3-1.4,1.7-2.3
		c0.4-0.9,0.6-1.9,0.6-2.9v-0.4h-7.7v-8.3h16.6V63c0,2.9-0.4,5.5-1.3,7.7c-0.9,2.2-2,4.1-3.5,5.6c-1.5,1.5-3.3,2.6-5.3,3.4
		C431.6,80.4,429.4,80.8,427,80.8z"/>
</g>
<g>
	<path fill="#A9B8C6" d="M448.9,80V34.9h8.7V80H448.9z"/>
</g>
<g>
	<path fill="#A9B8C6" d="M492.9,80L475,53.7c-0.3-0.4-0.6-1-1-1.6s-0.6-1.2-0.9-1.8c0.1,0.5,0.1,1,0.1,1.7c0,0.6,0,1.2,0,1.7V80
		h-8.7V34.9h8.2l17.5,26c0.3,0.4,0.6,0.9,0.9,1.6c0.4,0.6,0.7,1.2,0.9,1.8c-0.1-0.6-0.1-1.2-0.1-1.8c0-0.6,0-1.1,0-1.6v-26h8.6V80
		H492.9z"/>
</g>
<g>
	<path fill="#A9B8C6" d="M525.7,80.8c-2.3,0-4.4-0.3-6.3-0.9c-1.9-0.6-3.6-1.4-5-2.5c-1.5-1.1-2.7-2.3-3.8-3.8
		c-1.1-1.5-2-3.1-2.6-4.8c-0.7-1.7-1.2-3.5-1.5-5.5c-0.3-1.9-0.5-3.9-0.5-5.8c0-1.8,0.2-3.7,0.5-5.5c0.3-1.9,0.9-3.7,1.6-5.4
		c0.7-1.7,1.6-3.4,2.7-4.9c1.1-1.5,2.4-2.8,3.8-3.9c1.5-1.1,3.1-2,5-2.6c1.9-0.6,3.9-1,6.2-1c2.2,0,4.1,0.3,5.8,0.8
		c1.7,0.5,3.1,1.3,4.4,2.2c1.3,0.9,2.4,1.9,3.4,3.1c1,1.2,1.8,2.4,2.6,3.6l-7.7,4.4c-0.5-0.8-1-1.5-1.6-2.2
		c-0.6-0.7-1.2-1.3-1.9-1.8c-0.7-0.5-1.4-0.9-2.3-1.2c-0.8-0.3-1.7-0.5-2.7-0.5c-1.4,0-2.6,0.2-3.7,0.6c-1.1,0.4-2,1-2.8,1.8
		c-0.8,0.7-1.5,1.6-2,2.6c-0.5,1-1,2-1.3,3.1c-0.3,1.1-0.6,2.3-0.7,3.4c-0.1,1.2-0.2,2.3-0.2,3.4c0,1.9,0.2,3.8,0.6,5.6
		c0.4,1.8,1,3.4,1.9,4.8c0.9,1.4,2,2.5,3.4,3.4c1.4,0.8,3,1.3,5,1.3c1.1,0,2.1-0.2,3.1-0.6c1-0.4,1.8-0.9,2.5-1.6
		c0.7-0.7,1.3-1.4,1.7-2.3c0.4-0.9,0.6-1.9,0.6-2.9v-0.4h-7.7v-8.3h16.6V63c0,2.9-0.4,5.5-1.3,7.7c-0.9,2.2-2,4.1-3.5,5.6
		c-1.5,1.5-3.3,2.6-5.3,3.4C530.3,80.4,528.1,80.8,525.7,80.8z"/>
</g>
</svg>
