<?xml version="1.0" encoding="utf-8"?>
<!-- Generator: Adobe Illustrator 18.0.0, SVG Export Plug-In . SVG Version: 6.00 Build 0)  -->
<!DOCTYPE svg PUBLIC "-//W3C//DTD SVG 1.1//EN" "http://www.w3.org/Graphics/SVG/1.1/DTD/svg11.dtd">
<svg version="1.1" id="Layer_1" xmlns="http://www.w3.org/2000/svg" xmlns:xlink="http://www.w3.org/1999/xlink" x="0px" y="0px"
	 viewBox="0 0 208 273.5" enable-background="new 0 0 208 273.5" xml:space="preserve">
<rect x="24.6" y="433.5" fill="none" width="166.5" height="73.1"/>
<text transform="matrix(1 0 0 1 44.8585 440.7112)" display="none"><tspan x="0" y="0" display="inline" font-family="'Overpass-Bold'" font-size="10" text-decoration=" underline">Google</tspan><tspan x="32.6" y="0" display="inline" font-family="'Overpass-Reg'" font-size="10"> recommends filing a </tspan><tspan x="-13.1" y="19" display="inline" font-family="'Overpass-Reg'" font-size="10">complaint with the Internet Crime </tspan><tspan x="-13.8" y="38" display="inline" font-family="'Overpass-Reg'" font-size="10">Complaint Center. </tspan><tspan x="70.2" y="38" display="inline" font-family="'Overpass-Bold'" font-size="10" text-decoration=" underline">Report a Gmail </tspan><tspan x="12.4" y="57" display="inline" font-family="'Overpass-Bold'" font-size="10" text-decoration=" underline">terms of use violation</tspan></text>
<g>
	<rect x="0.5" y="0.5" fill="#FCFAFB" width="207" height="272.5"/>
	<path fill="#FDC328" d="M208,273.5H0V0h208V273.5z M1,272.5h206V1H1V272.5z"/>
</g>
<g>
	<rect x="0.5" y="0.7" fill="#FDC328" width="207" height="76"/>
</g>
<g>
	<path fill="#FDC328" d="M75.3,132.4c-0.5,0-1-0.1-1.4-0.2s-0.8-0.3-1.1-0.5c-0.3-0.2-0.6-0.5-0.8-0.8s-0.4-0.7-0.6-1
		s-0.3-0.8-0.3-1.2c-0.1-0.4-0.1-0.8-0.1-1.3c0-0.4,0-0.8,0.1-1.2s0.2-0.8,0.3-1.2s0.4-0.7,0.6-1.1c0.2-0.3,0.5-0.6,0.8-0.9
		s0.7-0.4,1.1-0.6s0.9-0.2,1.3-0.2c0.5,0,0.9,0.1,1.3,0.2s0.7,0.3,1,0.5s0.5,0.4,0.7,0.7c0.2,0.3,0.4,0.5,0.6,0.8l-1.7,1
		c-0.1-0.2-0.2-0.3-0.4-0.5c-0.1-0.1-0.3-0.3-0.4-0.4c-0.1-0.1-0.3-0.2-0.5-0.3s-0.4-0.1-0.6-0.1c-0.3,0-0.6,0-0.8,0.1
		s-0.4,0.2-0.6,0.4c-0.2,0.2-0.3,0.3-0.4,0.6c-0.1,0.2-0.2,0.4-0.3,0.7c-0.1,0.2-0.1,0.5-0.2,0.7c0,0.3,0,0.5,0,0.7
		c0,0.4,0,0.8,0.1,1.2c0.1,0.4,0.2,0.7,0.4,1c0.2,0.3,0.4,0.5,0.7,0.7c0.3,0.2,0.7,0.3,1.1,0.3c0.2,0,0.5,0,0.7-0.1
		c0.2-0.1,0.4-0.2,0.5-0.3c0.2-0.1,0.3-0.3,0.4-0.5s0.1-0.4,0.1-0.6v-0.1h-1.7v-1.8h3.6v1.4c0,0.6-0.1,1.2-0.3,1.7
		c-0.2,0.5-0.4,0.9-0.8,1.2c-0.3,0.3-0.7,0.6-1.2,0.7C76.3,132.3,75.8,132.4,75.3,132.4z"/>
	<path fill="#FDC328" d="M85,132.4c-0.5,0-1-0.1-1.4-0.2c-0.4-0.1-0.8-0.3-1.1-0.6s-0.6-0.5-0.8-0.8c-0.2-0.3-0.4-0.7-0.6-1.1
		s-0.2-0.8-0.3-1.2c-0.1-0.4-0.1-0.8-0.1-1.2c0-0.4,0-0.8,0.1-1.2c0.1-0.4,0.2-0.8,0.3-1.2s0.3-0.7,0.6-1.1c0.2-0.3,0.5-0.6,0.8-0.8
		s0.7-0.4,1.1-0.6c0.4-0.1,0.9-0.2,1.4-0.2c0.5,0,1,0.1,1.4,0.2s0.8,0.3,1.1,0.6c0.3,0.2,0.6,0.5,0.8,0.8c0.2,0.3,0.4,0.7,0.6,1.1
		s0.2,0.8,0.3,1.2c0.1,0.4,0.1,0.8,0.1,1.2c0,0.4,0,0.8-0.1,1.2c-0.1,0.4-0.2,0.8-0.3,1.2s-0.3,0.7-0.6,1.1
		c-0.2,0.3-0.5,0.6-0.8,0.8c-0.3,0.2-0.7,0.4-1.1,0.6S85.5,132.4,85,132.4z M85,130.6c0.4,0,0.8-0.1,1.1-0.3
		c0.3-0.2,0.5-0.5,0.7-0.8s0.3-0.7,0.4-1s0.1-0.7,0.1-1.1c0-0.3,0-0.5-0.1-0.8s-0.1-0.5-0.2-0.7c-0.1-0.2-0.2-0.5-0.3-0.7
		s-0.3-0.4-0.4-0.6c-0.2-0.2-0.4-0.3-0.6-0.4c-0.2-0.1-0.5-0.1-0.8-0.1c-0.3,0-0.6,0-0.8,0.1c-0.2,0.1-0.4,0.2-0.6,0.4
		c-0.2,0.2-0.3,0.3-0.4,0.6s-0.2,0.4-0.3,0.7c-0.1,0.2-0.1,0.5-0.2,0.7s-0.1,0.5-0.1,0.7c0,0.4,0,0.8,0.1,1.1s0.2,0.7,0.4,1
		s0.4,0.6,0.7,0.8S84.6,130.6,85,130.6z"/>
	<path fill="#FDC328" d="M95.5,132.4c-0.5,0-1-0.1-1.4-0.2c-0.4-0.1-0.8-0.3-1.1-0.6s-0.6-0.5-0.8-0.8c-0.2-0.3-0.4-0.7-0.6-1.1
		s-0.2-0.8-0.3-1.2c-0.1-0.4-0.1-0.8-0.1-1.2c0-0.4,0-0.8,0.1-1.2c0.1-0.4,0.2-0.8,0.3-1.2s0.3-0.7,0.6-1.1c0.2-0.3,0.5-0.6,0.8-0.8
		s0.7-0.4,1.1-0.6c0.4-0.1,0.9-0.2,1.4-0.2c0.5,0,1,0.1,1.4,0.2s0.8,0.3,1.1,0.6c0.3,0.2,0.6,0.5,0.8,0.8c0.2,0.3,0.4,0.7,0.6,1.1
		s0.2,0.8,0.3,1.2c0.1,0.4,0.1,0.8,0.1,1.2c0,0.4,0,0.8-0.1,1.2c-0.1,0.4-0.2,0.8-0.3,1.2s-0.3,0.7-0.6,1.1
		c-0.2,0.3-0.5,0.6-0.8,0.8c-0.3,0.2-0.7,0.4-1.1,0.6S96,132.4,95.5,132.4z M95.5,130.6c0.4,0,0.8-0.1,1.1-0.3
		c0.3-0.2,0.5-0.5,0.7-0.8s0.3-0.7,0.4-1s0.1-0.7,0.1-1.1c0-0.3,0-0.5-0.1-0.8s-0.1-0.5-0.2-0.7c-0.1-0.2-0.2-0.5-0.3-0.7
		s-0.3-0.4-0.4-0.6c-0.2-0.2-0.4-0.3-0.6-0.4c-0.2-0.1-0.5-0.1-0.8-0.1c-0.3,0-0.6,0-0.8,0.1c-0.2,0.1-0.4,0.2-0.6,0.4
		c-0.2,0.2-0.3,0.3-0.4,0.6s-0.2,0.4-0.3,0.7c-0.1,0.2-0.1,0.5-0.2,0.7s-0.1,0.5-0.1,0.7c0,0.4,0,0.8,0.1,1.1s0.2,0.7,0.4,1
		s0.4,0.6,0.7,0.8S95,130.6,95.5,130.6z"/>
	<path fill="#FDC328" d="M105.9,132.4c-0.5,0-1-0.1-1.4-0.2s-0.8-0.3-1.1-0.5c-0.3-0.2-0.6-0.5-0.8-0.8s-0.4-0.7-0.6-1
		s-0.3-0.8-0.3-1.2c-0.1-0.4-0.1-0.8-0.1-1.3c0-0.4,0-0.8,0.1-1.2s0.2-0.8,0.3-1.2s0.4-0.7,0.6-1.1c0.2-0.3,0.5-0.6,0.8-0.9
		s0.7-0.4,1.1-0.6s0.9-0.2,1.3-0.2c0.5,0,0.9,0.1,1.3,0.2s0.7,0.3,1,0.5s0.5,0.4,0.7,0.7c0.2,0.3,0.4,0.5,0.6,0.8l-1.7,1
		c-0.1-0.2-0.2-0.3-0.4-0.5c-0.1-0.1-0.3-0.3-0.4-0.4c-0.1-0.1-0.3-0.2-0.5-0.3s-0.4-0.1-0.6-0.1c-0.3,0-0.6,0-0.8,0.1
		s-0.4,0.2-0.6,0.4c-0.2,0.2-0.3,0.3-0.4,0.6c-0.1,0.2-0.2,0.4-0.3,0.7c-0.1,0.2-0.1,0.5-0.2,0.7c0,0.3,0,0.5,0,0.7
		c0,0.4,0,0.8,0.1,1.2c0.1,0.4,0.2,0.7,0.4,1c0.2,0.3,0.4,0.5,0.7,0.7c0.3,0.2,0.7,0.3,1.1,0.3c0.2,0,0.5,0,0.7-0.1
		c0.2-0.1,0.4-0.2,0.5-0.3c0.2-0.1,0.3-0.3,0.4-0.5s0.1-0.4,0.1-0.6v-0.1h-1.7v-1.8h3.6v1.4c0,0.6-0.1,1.2-0.3,1.7
		c-0.2,0.5-0.4,0.9-0.8,1.2c-0.3,0.3-0.7,0.6-1.2,0.7C106.9,132.3,106.4,132.4,105.9,132.4z"/>
	<path fill="#FDC328" d="M111.6,132.2v-9.8h1.9v8h4.7v1.8H111.6z"/>
	<path fill="#FDC328" d="M119.7,132.2v-9.8h6.7v1.8h-4.8v2.1h2.8v1.8h-2.8v2.4h5.1v1.8H119.7z"/>
	<path fill="#FDC328" d="M132.8,128.3v2.4H131v-2.4h-2.4v-1.8h2.4v-2.4h1.8v2.4h2.4v1.8H132.8z"/>
</g>
<g>
	<circle fill="#FFFFFF" cx="103.2" cy="75.7" r="38.3"/>
	<path fill="#FDC328" d="M103.2,115c-21.7,0-39.3-17.6-39.3-39.3s17.6-39.3,39.3-39.3c21.7,0,39.3,17.6,39.3,39.3
		S124.9,115,103.2,115z M103.2,38.4c-20.6,0-37.3,16.7-37.3,37.3c0,20.6,16.7,37.3,37.3,37.3c20.6,0,37.3-16.7,37.3-37.3
		C140.5,55.1,123.8,38.4,103.2,38.4z"/>
</g>
<g>
	<path fill="#FDC328" d="M102.7,43.5c-17.9,0-32.4,14.5-32.4,32.4s14.5,32.4,32.4,32.4s32.4-14.5,32.4-32.4S120.6,43.5,102.7,43.5z
		 M102.7,44.5c17.3,0,31.4,14.1,31.4,31.4c0,8-3,15.3-8,20.9l-13.3-5.2c0,0-2.5-1.1-2.8-3.7c0-0.3-0.2-0.5-0.5-0.5h-1.4
		c1-1.1,2.4-2.9,2.4-3.8c0-0.8,0.1-2.1,0.2-2.5c0.1-0.1,0.2-0.3,0.3-0.2c0.2,0.1,0.4,0,0.6-0.1c0.1-0.1,3-2.9,2.1-6.9
		c0-0.1-0.1-0.4-0.4-0.7c-0.2-0.2-0.6-0.3-0.9-0.3c0-0.5,0.2-1.5,0.6-2.6c0.7-2,1-5.4-0.1-6.4c-0.2-0.2-0.5-0.5-0.8-0.9
		c-0.8-1-1.9-2.3-3.5-3.4c-2.2-1.6-4.3-2.1-7.8-2.1c-3.3,0-4.1,0.7-5,1.9c-0.7,0.4-4.1,2.6-4.6,4.5c-0.4,1.9,1.2,7.8,1.6,8.9
		c0,0.2-0.2,0.4-0.2,0.4c-0.8,0.1-1.2,0.4-1.4,1.3c-0.2,0.9-0.1,2.3,0,3.1c0.1,0.9,0.9,3,2.5,3.6c0.1,0.1,0.4,0.3,0.4,0.6
		c0,1.4,0.1,2.4,0.3,2.8c0.2,0.3,1.5,2.1,2.1,3h-1.2c-0.1,0-0.3,0.1-0.4,0.2c-0.1,0.1-0.1,0.2-0.1,0.4c0,0.4,0,1.8-0.7,2.1
		c-0.8,0.4-10,4-15,6c-4.8-5.5-7.7-12.7-7.7-20.5C71.3,58.6,85.4,44.5,102.7,44.5z M102.7,107.3c-9.1,0-17.3-3.9-23-10
		c2.9-1.1,13.8-5.4,14.8-5.9c1-0.5,1.2-1.8,1.2-2.6h1.7c0.2,0,0.4-0.1,0.5-0.3c0.1-0.2,0.1-0.4-0.1-0.5l-0.2-0.3
		c-0.2-0.2-2.2-3.1-2.4-3.5C95.2,84,95,83.6,95,81.9c0-0.9-0.9-1.4-1-1.5c0,0,0,0-0.1,0c-1-0.4-1.7-2-1.9-2.8
		c-0.1-0.8-0.2-2.1,0-2.7c0.1-0.5,0.1-0.5,0.5-0.5c0.9-0.1,1.1-1.3,1.2-1.4c0-0.1,0-0.1,0-0.2c-0.6-1.9-1.9-7.1-1.6-8.5
		c0.3-1.4,3.1-3.3,4.2-3.9c0.1,0,0.1-0.1,0.1-0.1l0,0c0.7-0.9,1.2-1.5,4.3-1.5c3.3,0,5.2,0.5,7.2,2c1.5,1.1,2.5,2.3,3.3,3.2
		c0.3,0.4,0.6,0.7,0.8,0.9c0.6,0.6,0.6,3.3-0.2,5.4c-0.7,2.1-0.7,3.5-0.7,3.5c0,0.2,0.1,0.3,0.2,0.4c0.1,0.1,0.3,0.1,0.4,0.1
		c0.5-0.1,0.7,0,0.8,0c0,0,0,0,0,0c0.7,2.9-1.1,5.1-1.6,5.7c-0.6,0-1,0.4-1.3,0.8c0,0.1-0.1,0.1-0.1,0.2c0,0.1-0.2,1.7-0.2,2.7
		c0,0.4-1.3,2.2-2.9,3.9c-0.1,0.1-0.2,0.4-0.1,0.6c0.1,0.2,0.3,0.3,0.5,0.3h2.1c0.6,2.8,3.2,4,3.3,4.1l12.9,5
		C119.7,103.5,111.6,107.3,102.7,107.3z"/>
</g>
</svg>
