<?xml version="1.0" encoding="utf-8"?>
<!-- Generator: Adobe Illustrator 18.0.0, SVG Export Plug-In . SVG Version: 6.00 Build 0)  -->
<!DOCTYPE svg PUBLIC "-//W3C//DTD SVG 1.1//EN" "http://www.w3.org/Graphics/SVG/1.1/DTD/svg11.dtd">
<svg version="1.1" id="Layer_1" xmlns="http://www.w3.org/2000/svg" xmlns:xlink="http://www.w3.org/1999/xlink" x="0px" y="0px"
	 viewBox="0 0 96.1 132.9" enable-background="new 0 0 96.1 132.9" xml:space="preserve">
<g>
	<polygon fill="#3BB54A" points="6.3,6.4 90.6,6.4 90.2,125 48.5,113.7 6.3,125 	"/>
	<circle fill="none" stroke="#F7F7F7" stroke-width="3" stroke-miterlimit="10" cx="48.5" cy="57.7" r="32.7"/>
	<g>
		<g>
			<path fill="#FFFFFF" d="M36.6,67.6h-6.2V47h6.5c5.9,0,10.3,2.8,10.3,10.3C47.2,64.6,41.9,67.6,36.6,67.6z M36.8,51h-2.2v12.6h2
				c4.3,0,6.3-2.5,6.3-6.3C42.9,53.1,41.1,51,36.8,51z"/>
			<path fill="#FFFFFF" d="M59.2,68c-5.6,0-9-4.4-9-10.7s3.3-10.7,9-10.7c5.6,0,9,4.4,9,10.7S64.9,68,59.2,68z M59.2,50.7
				c-3.3,0-4.7,2.9-4.7,6.6c0,3.7,1.4,6.6,4.7,6.6c3.3,0,4.7-2.9,4.7-6.6C63.9,53.6,62.5,50.7,59.2,50.7z"/>
		</g>
	</g>
	<polygon fill="#169045" points="6.3,125 6.3,121.6 48.5,109.7 90.2,121.6 90.2,125 48.5,113.7 	"/>
</g>
<polygon fill="#C82039" points="404.7,6.4 489,6.4 488.6,125 446.9,113.7 404.7,125 "/>
<circle fill="none" stroke="#F7F7F7" stroke-width="3" stroke-miterlimit="10" cx="446.9" cy="57.7" r="32.7"/>
<polygon fill="#A01D21" points="404.7,125 404.7,121.6 446.9,109.7 488.6,121.6 488.6,125 446.9,113.7 "/>
<g>
	<path fill="#F7F7F7" d="M419.5,53.5h3.5c0.6,0,1.2,0.1,1.6,0.2c0.5,0.1,0.9,0.3,1.3,0.6s0.7,0.5,1,0.9c0.3,0.3,0.5,0.7,0.7,1.1
		c0.2,0.4,0.3,0.8,0.4,1.2c0.1,0.4,0.1,0.9,0.1,1.3c0,0.4,0,0.8-0.1,1.2c-0.1,0.4-0.2,0.8-0.4,1.2c-0.2,0.4-0.4,0.8-0.6,1.1
		c-0.3,0.3-0.6,0.6-1,0.9c-0.4,0.3-0.8,0.5-1.3,0.6c-0.5,0.1-1.1,0.2-1.7,0.2h-3.5V53.5z M423.3,62.1c0.5,0,1-0.1,1.3-0.3
		c0.4-0.2,0.6-0.5,0.9-0.8c0.2-0.3,0.4-0.7,0.5-1.1s0.1-0.8,0.1-1.2c0-0.4-0.1-0.8-0.2-1.2s-0.3-0.8-0.5-1.1
		c-0.2-0.3-0.5-0.6-0.8-0.8c-0.3-0.2-0.7-0.3-1.2-0.3h-1.9v6.7H423.3z"/>
	<path fill="#F7F7F7" d="M434.8,64.2c-0.6,0-1.1-0.1-1.5-0.2c-0.4-0.1-0.8-0.4-1.2-0.6s-0.6-0.6-0.9-0.9c-0.2-0.3-0.4-0.7-0.6-1.1
		s-0.3-0.8-0.3-1.3c-0.1-0.4-0.1-0.9-0.1-1.3c0-0.4,0-0.9,0.1-1.3c0.1-0.4,0.2-0.9,0.3-1.3s0.4-0.8,0.6-1.1c0.2-0.3,0.5-0.7,0.9-0.9
		s0.7-0.5,1.2-0.6s1-0.2,1.5-0.2s1.1,0.1,1.5,0.2s0.8,0.4,1.2,0.6s0.6,0.6,0.9,0.9c0.2,0.3,0.4,0.7,0.6,1.1c0.2,0.4,0.3,0.8,0.3,1.3
		c0.1,0.4,0.1,0.9,0.1,1.3c0,0.4,0,0.9-0.1,1.3c-0.1,0.4-0.2,0.9-0.3,1.3c-0.2,0.4-0.4,0.8-0.6,1.1c-0.2,0.3-0.5,0.7-0.9,0.9
		s-0.7,0.5-1.2,0.6C435.8,64.1,435.3,64.2,434.8,64.2z M434.8,62.2c0.5,0,0.9-0.1,1.2-0.3s0.6-0.5,0.8-0.8c0.2-0.3,0.3-0.7,0.4-1.1
		c0.1-0.4,0.1-0.8,0.1-1.2c0-0.3,0-0.5-0.1-0.8c0-0.3-0.1-0.5-0.2-0.8s-0.2-0.5-0.3-0.7s-0.3-0.4-0.5-0.6c-0.2-0.2-0.4-0.3-0.6-0.4
		c-0.2-0.1-0.5-0.1-0.8-0.1c-0.3,0-0.6,0.1-0.8,0.2c-0.2,0.1-0.5,0.2-0.7,0.4c-0.2,0.2-0.3,0.4-0.5,0.6s-0.2,0.5-0.3,0.7
		s-0.1,0.5-0.2,0.8c0,0.3-0.1,0.5-0.1,0.8c0,0.4,0,0.8,0.1,1.2s0.2,0.8,0.4,1.1c0.2,0.3,0.5,0.6,0.8,0.8
		C433.9,62.1,434.3,62.2,434.8,62.2z"/>
	<path fill="#F7F7F7" d="M448.3,64l-4.2-6.1c-0.1-0.1-0.1-0.2-0.2-0.4c-0.1-0.1-0.2-0.3-0.2-0.4c0,0.1,0,0.2,0,0.4
		c0,0.2,0,0.3,0,0.4V64h-2V53.5h1.9l4.1,6.1c0.1,0.1,0.1,0.2,0.2,0.4c0.1,0.1,0.2,0.3,0.2,0.4c0-0.1,0-0.3,0-0.4c0-0.1,0-0.3,0-0.4
		v-6.1h2V64H448.3z"/>
	<path fill="#F7F7F7" d="M452,57.1c0.1-0.1,0.1-0.1,0.2-0.2s0.2-0.2,0.3-0.4c0.1-0.1,0.2-0.3,0.3-0.4s0.1-0.3,0.2-0.4
		c-0.2-0.1-0.4-0.2-0.6-0.4c-0.2-0.2-0.2-0.5-0.2-0.8c0-0.2,0-0.4,0.1-0.5s0.2-0.3,0.3-0.4c0.1-0.1,0.3-0.2,0.4-0.3s0.3-0.1,0.5-0.1
		c0.2,0,0.3,0,0.5,0.1c0.2,0.1,0.3,0.2,0.4,0.3c0.1,0.1,0.2,0.3,0.3,0.4c0.1,0.2,0.1,0.4,0.1,0.6c0,0.3-0.1,0.6-0.2,0.9
		c-0.1,0.3-0.2,0.6-0.4,0.8c-0.2,0.3-0.4,0.5-0.6,0.7c-0.2,0.2-0.5,0.4-0.7,0.6L452,57.1z"/>
	<path fill="#F7F7F7" d="M460.8,55.4V64h-2v-8.6h-3v-2h8v2H460.8z"/>
	<path fill="#F7F7F7" d="M470.9,56.3c-0.1-0.2-0.1-0.3-0.3-0.4s-0.2-0.3-0.4-0.4c-0.1-0.1-0.3-0.2-0.5-0.2c-0.2-0.1-0.4-0.1-0.6-0.1
		c-0.4,0-0.8,0.1-1,0.3c-0.2,0.2-0.4,0.4-0.4,0.7c0,0.2,0.1,0.4,0.2,0.5s0.4,0.3,0.6,0.4c0.3,0.1,0.5,0.2,0.9,0.3
		c0.3,0.1,0.7,0.2,1,0.3c0.3,0.1,0.7,0.3,1,0.4c0.3,0.2,0.6,0.4,0.9,0.6c0.3,0.2,0.5,0.5,0.6,0.9c0.2,0.3,0.2,0.7,0.2,1.2
		c0,0.5-0.1,1-0.3,1.4c-0.2,0.4-0.5,0.7-0.8,1s-0.7,0.5-1.2,0.6c-0.5,0.1-1,0.2-1.5,0.2c-0.5,0-1-0.1-1.4-0.2
		c-0.4-0.1-0.8-0.3-1.2-0.6s-0.7-0.6-0.9-0.9s-0.5-0.8-0.6-1.2l1.8-0.7c0.1,0.2,0.2,0.5,0.4,0.7c0.2,0.2,0.3,0.4,0.5,0.5
		c0.2,0.1,0.4,0.3,0.6,0.3c0.2,0.1,0.5,0.1,0.7,0.1c0.3,0,0.5,0,0.7-0.1c0.2-0.1,0.4-0.1,0.5-0.2c0.1-0.1,0.3-0.2,0.3-0.4
		c0.1-0.2,0.1-0.3,0.1-0.6c0-0.3-0.1-0.5-0.2-0.6c-0.2-0.2-0.4-0.3-0.6-0.5c-0.3-0.1-0.5-0.2-0.9-0.4c-0.3-0.1-0.7-0.2-1-0.3
		s-0.7-0.3-1-0.4c-0.3-0.2-0.6-0.3-0.9-0.6s-0.5-0.5-0.6-0.8s-0.2-0.7-0.2-1.2c0-0.4,0.1-0.8,0.2-1.1c0.2-0.3,0.4-0.7,0.7-0.9
		c0.3-0.3,0.7-0.5,1.1-0.6c0.4-0.2,0.9-0.2,1.5-0.2c0.5,0,0.9,0.1,1.3,0.2s0.7,0.3,1,0.5c0.3,0.2,0.5,0.5,0.7,0.8
		c0.2,0.3,0.4,0.6,0.5,1L470.9,56.3z"/>
</g>
</svg>
