<?xml version="1.0" encoding="utf-8"?>
<!-- Generator: Adobe Illustrator 18.0.0, SVG Export Plug-In . SVG Version: 6.00 Build 0)  -->
<!DOCTYPE svg PUBLIC "-//W3C//DTD SVG 1.1//EN" "http://www.w3.org/Graphics/SVG/1.1/DTD/svg11.dtd">
<svg version="1.1" id="Layer_1" xmlns="http://www.w3.org/2000/svg" xmlns:xlink="http://www.w3.org/1999/xlink" x="0px" y="0px"
	 viewBox="0 0 208 273.5" enable-background="new 0 0 208 273.5" xml:space="preserve">
<rect x="24.6" y="433.5" fill="none" width="166.5" height="73.1"/>
<text transform="matrix(1 0 0 1 44.8585 440.7112)" display="none"><tspan x="0" y="0" display="inline" font-family="'Overpass-Bold'" font-size="10" text-decoration=" underline">Google</tspan><tspan x="32.6" y="0" display="inline" font-family="'Overpass-Reg'" font-size="10"> recommends filing a </tspan><tspan x="-13.1" y="19" display="inline" font-family="'Overpass-Reg'" font-size="10">complaint with the Internet Crime </tspan><tspan x="-13.8" y="38" display="inline" font-family="'Overpass-Reg'" font-size="10">Complaint Center. </tspan><tspan x="70.2" y="38" display="inline" font-family="'Overpass-Bold'" font-size="10" text-decoration=" underline">Report a Gmail </tspan><tspan x="12.4" y="57" display="inline" font-family="'Overpass-Bold'" font-size="10" text-decoration=" underline">terms of use violation</tspan></text>
<g>
	<rect x="0.5" y="0.5" fill="#FCFAFB" width="207" height="272.5"/>
	<path fill="#FDC328" d="M208,273.5H0V0h208V273.5z M1,272.5h206V1H1V272.5z"/>
</g>
<g>
	<rect x="0.5" y="0.7" fill="#FDC328" width="207" height="76"/>
</g>
<g>
	<path fill="#FDC328" d="M63.1,132.2v-9.8H65v9.8H63.1z"/>
	<path fill="#FDC328" d="M73.7,132.2l-3.9-5.7c-0.1-0.1-0.1-0.2-0.2-0.4c-0.1-0.1-0.1-0.3-0.2-0.4c0,0.1,0,0.2,0,0.4
		c0,0.1,0,0.3,0,0.4v5.7h-1.9v-9.8h1.8l3.8,5.6c0.1,0.1,0.1,0.2,0.2,0.3s0.1,0.3,0.2,0.4c0-0.1,0-0.3,0-0.4c0-0.1,0-0.2,0-0.3v-5.6
		h1.9v9.8H73.7z"/>
	<path fill="#FDC328" d="M82.6,125.1c-0.1-0.1-0.1-0.3-0.2-0.4c-0.1-0.1-0.2-0.2-0.4-0.3c-0.1-0.1-0.3-0.2-0.5-0.2
		c-0.2-0.1-0.4-0.1-0.6-0.1c-0.4,0-0.7,0.1-1,0.2c-0.2,0.2-0.3,0.4-0.3,0.7c0,0.2,0.1,0.4,0.2,0.5c0.1,0.1,0.3,0.3,0.6,0.4
		c0.2,0.1,0.5,0.2,0.8,0.3c0.3,0.1,0.6,0.2,0.9,0.3s0.6,0.3,0.9,0.4c0.3,0.2,0.6,0.4,0.8,0.6c0.2,0.2,0.4,0.5,0.6,0.8
		c0.1,0.3,0.2,0.7,0.2,1.1c0,0.5-0.1,0.9-0.3,1.3s-0.4,0.7-0.7,0.9c-0.3,0.3-0.7,0.4-1.1,0.6c-0.4,0.1-0.9,0.2-1.4,0.2
		c-0.5,0-0.9-0.1-1.3-0.2c-0.4-0.1-0.8-0.3-1.1-0.5c-0.3-0.2-0.6-0.5-0.9-0.8c-0.2-0.3-0.4-0.7-0.6-1.1l1.7-0.6
		c0.1,0.2,0.2,0.4,0.4,0.6c0.1,0.2,0.3,0.4,0.5,0.5c0.2,0.1,0.4,0.2,0.6,0.3c0.2,0.1,0.4,0.1,0.7,0.1c0.2,0,0.5,0,0.6-0.1
		c0.2-0.1,0.4-0.1,0.5-0.2c0.1-0.1,0.2-0.2,0.3-0.4c0.1-0.1,0.1-0.3,0.1-0.5c0-0.2-0.1-0.4-0.2-0.6c-0.1-0.2-0.3-0.3-0.6-0.4
		c-0.2-0.1-0.5-0.2-0.8-0.3c-0.3-0.1-0.6-0.2-0.9-0.3c-0.3-0.1-0.6-0.2-0.9-0.4c-0.3-0.1-0.6-0.3-0.8-0.5c-0.2-0.2-0.4-0.5-0.6-0.8
		s-0.2-0.7-0.2-1.1c0-0.4,0.1-0.7,0.2-1c0.1-0.3,0.4-0.6,0.6-0.9s0.6-0.4,1-0.6s0.9-0.2,1.4-0.2c0.4,0,0.8,0.1,1.2,0.2
		c0.4,0.1,0.7,0.3,0.9,0.5c0.3,0.2,0.5,0.4,0.7,0.7c0.2,0.3,0.3,0.6,0.4,0.9L82.6,125.1z"/>
	<path fill="#FDC328" d="M90.9,124.3v8H89v-8h-2.8v-1.8h7.5v1.8H90.9z"/>
	<path fill="#FDC328" d="M101,132.2l-0.8-2h-3.8l-0.8,2h-2l3.8-9.8h1.8l3.8,9.8H101z M98.7,125.9c-0.1-0.1-0.1-0.3-0.2-0.4
		c-0.1-0.2-0.1-0.3-0.1-0.5c0,0.1-0.1,0.3-0.1,0.5s-0.1,0.3-0.2,0.4l-1,2.5h2.5L98.7,125.9z"/>
	<path fill="#FDC328" d="M108.1,132.4c-0.5,0-1-0.1-1.4-0.2c-0.4-0.1-0.8-0.3-1.1-0.5s-0.6-0.5-0.8-0.8s-0.4-0.7-0.6-1
		c-0.2-0.4-0.3-0.8-0.3-1.2s-0.1-0.8-0.1-1.3c0-0.4,0-0.8,0.1-1.2c0.1-0.4,0.2-0.8,0.3-1.2c0.2-0.4,0.4-0.7,0.6-1.1
		c0.2-0.3,0.5-0.6,0.8-0.9c0.3-0.2,0.7-0.4,1.1-0.6c0.4-0.1,0.9-0.2,1.3-0.2c0.5,0,0.9,0.1,1.3,0.2c0.4,0.1,0.7,0.3,1,0.5
		c0.3,0.2,0.5,0.4,0.7,0.7c0.2,0.3,0.4,0.5,0.6,0.8l-1.7,1c-0.1-0.2-0.2-0.3-0.4-0.5c-0.1-0.1-0.3-0.3-0.4-0.4
		c-0.1-0.1-0.3-0.2-0.5-0.3c-0.2-0.1-0.4-0.1-0.6-0.1c-0.3,0-0.6,0-0.8,0.1c-0.2,0.1-0.4,0.2-0.6,0.4c-0.2,0.2-0.3,0.3-0.4,0.6
		c-0.1,0.2-0.2,0.4-0.3,0.7c-0.1,0.2-0.1,0.5-0.2,0.7s0,0.5,0,0.7c0,0.4,0,0.8,0.1,1.2s0.2,0.7,0.4,1c0.2,0.3,0.4,0.5,0.7,0.7
		c0.3,0.2,0.7,0.3,1.1,0.3c0.2,0,0.5,0,0.7-0.1c0.2-0.1,0.4-0.2,0.5-0.3s0.3-0.3,0.4-0.5c0.1-0.2,0.1-0.4,0.1-0.6v-0.1h-1.7v-1.8
		h3.6v1.4c0,0.6-0.1,1.2-0.3,1.7c-0.2,0.5-0.4,0.9-0.8,1.2c-0.3,0.3-0.7,0.6-1.2,0.7C109.1,132.3,108.6,132.4,108.1,132.4z"/>
	<path fill="#FDC328" d="M113.9,132.2v-9.8h4.6c0.6,0,1.1,0.1,1.6,0.3c0.4,0.2,0.8,0.4,1,0.7c0.3,0.3,0.4,0.6,0.5,1s0.2,0.8,0.2,1.2
		c0,0.3,0,0.6-0.1,0.8c-0.1,0.3-0.2,0.6-0.4,0.8c-0.2,0.3-0.4,0.5-0.6,0.7c-0.2,0.2-0.5,0.4-0.8,0.5l1.9,3.9h-2.1l-1.8-3.7h-2v3.7
		H113.9z M118.4,126.8c0.2,0,0.4,0,0.6-0.1c0.2-0.1,0.3-0.2,0.4-0.3c0.1-0.1,0.2-0.3,0.2-0.4c0-0.2,0.1-0.3,0.1-0.5
		c0-0.2,0-0.3-0.1-0.5c0-0.2-0.1-0.3-0.2-0.4c-0.1-0.1-0.2-0.2-0.4-0.3c-0.2-0.1-0.4-0.1-0.6-0.1h-2.7v2.6H118.4z"/>
	<path fill="#FDC328" d="M130.4,132.2l-0.8-2h-3.8l-0.8,2h-2l3.8-9.8h1.8l3.8,9.8H130.4z M128.1,125.9c0-0.1-0.1-0.3-0.2-0.4
		c-0.1-0.2-0.1-0.3-0.1-0.5c0,0.1-0.1,0.3-0.1,0.5s-0.1,0.3-0.2,0.4l-1,2.5h2.5L128.1,125.9z"/>
	<path fill="#FDC328" d="M141.4,132.2v-5c0-0.1,0-0.1,0-0.2c0-0.1,0-0.1,0-0.2c0-0.1,0-0.1,0-0.2c0-0.1,0-0.1,0-0.2
		c0,0.2-0.1,0.3-0.1,0.4c0,0.1-0.1,0.2-0.1,0.4l-2.4,5.2l-2.4-5.2c-0.1-0.1-0.1-0.2-0.1-0.4c0-0.1-0.1-0.3-0.1-0.4c0,0,0,0.1,0,0.2
		c0,0.1,0,0.1,0,0.2c0,0.1,0,0.1,0,0.2c0,0.1,0,0.1,0,0.2v5h-1.9v-9.8h1.9l2.4,5.4c0,0.1,0.1,0.2,0.1,0.3c0,0.1,0.1,0.2,0.1,0.3
		c0-0.1,0.1-0.2,0.1-0.3c0-0.1,0.1-0.2,0.1-0.3l2.4-5.4h1.8v9.8H141.4z"/>
</g>
<g>
	<circle fill="#FFFFFF" cx="103.2" cy="75.7" r="38.3"/>
	<path fill="#FDC328" d="M103.2,115c-21.7,0-39.3-17.6-39.3-39.3s17.6-39.3,39.3-39.3c21.7,0,39.3,17.6,39.3,39.3
		S124.9,115,103.2,115z M103.2,38.4c-20.6,0-37.3,16.7-37.3,37.3S82.6,113,103.2,113c20.6,0,37.3-16.7,37.3-37.3
		S123.8,38.4,103.2,38.4z"/>
</g>
<g>
	<path fill="#FDC328" d="M102.7,43.5c-17.9,0-32.4,14.5-32.4,32.4s14.5,32.4,32.4,32.4s32.4-14.5,32.4-32.4S120.6,43.5,102.7,43.5z
		 M102.7,44.5c17.3,0,31.4,14.1,31.4,31.4c0,8-3,15.3-8,20.9l-13.3-5.2c0,0-2.5-1.1-2.8-3.7c0-0.3-0.2-0.5-0.5-0.5h-1.4
		c1-1.1,2.4-2.9,2.4-3.8c0-0.8,0.1-2.1,0.2-2.5c0.1-0.1,0.2-0.3,0.3-0.2c0.2,0.1,0.4,0,0.6-0.1c0.1-0.1,3-2.9,2.1-6.9
		c0-0.1-0.1-0.4-0.4-0.7c-0.2-0.2-0.6-0.3-0.9-0.3c0-0.5,0.2-1.5,0.6-2.6c0.7-2,1-5.4-0.1-6.4c-0.2-0.2-0.5-0.5-0.8-0.9
		c-0.8-1-1.9-2.3-3.5-3.4c-2.2-1.6-4.3-2.1-7.8-2.1c-3.3,0-4.1,0.7-5,1.9c-0.7,0.4-4.1,2.6-4.6,4.5c-0.4,1.9,1.2,7.8,1.6,8.9
		c0,0.2-0.2,0.4-0.2,0.4c-0.8,0.1-1.2,0.4-1.4,1.3c-0.2,0.9-0.1,2.3,0,3.1c0.1,0.9,0.9,3,2.5,3.6c0.1,0.1,0.4,0.3,0.4,0.6
		c0,1.4,0.1,2.4,0.3,2.8c0.2,0.3,1.5,2.1,2.1,3h-1.2c-0.1,0-0.3,0.1-0.4,0.2c-0.1,0.1-0.1,0.2-0.1,0.4c0,0.4,0,1.8-0.7,2.1
		c-0.8,0.4-10,4-15,6c-4.8-5.5-7.7-12.7-7.7-20.5C71.3,58.6,85.4,44.5,102.7,44.5z M102.7,107.3c-9.1,0-17.3-3.9-23-10
		c2.9-1.1,13.8-5.4,14.8-5.9c1-0.5,1.2-1.8,1.2-2.6h1.7c0.2,0,0.4-0.1,0.5-0.3c0.1-0.2,0.1-0.4-0.1-0.5l-0.2-0.3
		c-0.2-0.2-2.2-3.1-2.4-3.5C95.2,84,95,83.6,95,81.9c0-0.9-0.9-1.4-1-1.5c0,0,0,0-0.1,0c-1-0.4-1.7-2-1.9-2.8
		c-0.1-0.8-0.2-2.1,0-2.7c0.1-0.5,0.1-0.5,0.5-0.5c0.9-0.1,1.1-1.3,1.2-1.4c0-0.1,0-0.1,0-0.2c-0.6-1.9-1.9-7.1-1.6-8.5
		c0.3-1.4,3.1-3.3,4.2-3.9c0.1,0,0.1-0.1,0.1-0.1l0,0c0.7-0.9,1.2-1.5,4.3-1.5c3.3,0,5.2,0.5,7.2,2c1.5,1.1,2.5,2.3,3.3,3.2
		c0.3,0.4,0.6,0.7,0.8,0.9c0.6,0.6,0.6,3.3-0.2,5.4c-0.7,2.1-0.7,3.5-0.7,3.5c0,0.2,0.1,0.3,0.2,0.4c0.1,0.1,0.3,0.1,0.4,0.1
		c0.5-0.1,0.7,0,0.8,0c0,0,0,0,0,0c0.7,2.9-1.1,5.1-1.6,5.7c-0.6,0-1,0.4-1.3,0.8c0,0.1-0.1,0.1-0.1,0.2c0,0.1-0.2,1.7-0.2,2.7
		c0,0.4-1.3,2.2-2.9,3.9c-0.1,0.1-0.2,0.4-0.1,0.6c0.1,0.2,0.3,0.3,0.5,0.3h2.1c0.6,2.8,3.2,4,3.3,4.1l12.9,5
		C119.7,103.5,111.6,107.3,102.7,107.3z"/>
</g>
<rect x="331.3" y="561.5" fill="#FCFAFB" stroke="#FDC328" stroke-miterlimit="10" width="207" height="272.5"/>
<rect x="331.3" y="561.7" fill="#FDC328" width="207" height="76"/>
<text transform="matrix(1 0 0 1 400.3271 693.2326)" fill="#FDC328" font-family="'Overpass-Bold'" font-size="14">linkedin</text>
<circle fill="#FFFFFF" stroke="#FDC328" stroke-width="2" stroke-miterlimit="10" cx="434" cy="636.7" r="38.3"/>
<path fill="#FDC328" d="M433.5,604.5c-17.9,0-32.4,14.5-32.4,32.4c0,17.9,14.5,32.4,32.4,32.4c17.9,0,32.4-14.5,32.4-32.4
	C466,619,451.4,604.5,433.5,604.5z M433.5,605.5c17.3,0,31.4,14.1,31.4,31.4c0,8-3,15.3-8,20.9l-13.3-5.2c0,0-2.5-1.1-2.8-3.7
	c0-0.3-0.2-0.5-0.5-0.5H439c1-1.1,2.4-2.9,2.4-3.8c0-0.8,0.1-2.1,0.2-2.5c0.1-0.1,0.2-0.3,0.3-0.2c0.2,0.1,0.4,0,0.6-0.1
	c0.1-0.1,3-2.9,2.1-6.9c0-0.1-0.1-0.4-0.4-0.7c-0.2-0.2-0.6-0.3-0.9-0.3c0-0.5,0.2-1.5,0.6-2.6c0.7-2,1-5.4-0.1-6.4
	c-0.2-0.2-0.5-0.5-0.8-0.9c-0.8-1-1.9-2.3-3.5-3.4c-2.2-1.6-4.3-2.1-7.8-2.1c-3.3,0-4.1,0.7-5,1.9c-0.7,0.4-4.1,2.6-4.6,4.5
	c-0.4,1.9,1.2,7.8,1.6,8.9c0,0.2-0.2,0.4-0.2,0.4c-0.8,0.1-1.2,0.4-1.4,1.3c-0.2,0.9-0.1,2.3,0,3.1c0.1,0.9,0.9,3,2.5,3.6
	c0.1,0.1,0.4,0.3,0.4,0.6c0,1.4,0.1,2.4,0.3,2.8c0.2,0.3,1.5,2.1,2.1,3h-1.2c-0.1,0-0.3,0.1-0.4,0.2c-0.1,0.1-0.1,0.2-0.1,0.4
	c0,0.4,0,1.8-0.7,2.1c-0.8,0.4-10,4-15,6c-4.8-5.5-7.7-12.7-7.7-20.5C402.2,619.6,416.2,605.5,433.5,605.5z M433.5,668.3
	c-9.1,0-17.3-3.9-23-10c2.9-1.1,13.8-5.4,14.8-5.9c1-0.5,1.2-1.8,1.2-2.6h1.7c0.2,0,0.4-0.1,0.5-0.3c0.1-0.2,0.1-0.4-0.1-0.5
	l-0.2-0.3c-0.2-0.2-2.2-3.1-2.4-3.5c-0.1-0.1-0.2-0.6-0.2-2.2c0-0.9-0.9-1.4-1-1.5c0,0,0,0-0.1,0c-1-0.4-1.7-2-1.9-2.8
	c-0.1-0.8-0.2-2.1,0-2.7c0.1-0.5,0.1-0.5,0.5-0.5c0.9-0.1,1.1-1.3,1.2-1.4c0-0.1,0-0.1,0-0.2c-0.6-1.9-1.9-7.1-1.6-8.5
	c0.3-1.4,3.1-3.3,4.2-3.9c0.1,0,0.1-0.1,0.1-0.1l0,0c0.7-0.9,1.2-1.5,4.3-1.5c3.3,0,5.2,0.5,7.2,2c1.5,1.1,2.5,2.3,3.3,3.2
	c0.3,0.4,0.6,0.7,0.8,0.9c0.6,0.6,0.6,3.3-0.2,5.4c-0.7,2.1-0.7,3.5-0.7,3.5c0,0.2,0.1,0.3,0.2,0.4c0.1,0.1,0.3,0.1,0.4,0.1
	c0.5-0.1,0.7,0,0.8,0c0,0,0,0,0,0c0.7,2.9-1.1,5.1-1.6,5.7c-0.6,0-1,0.4-1.3,0.8c0,0.1-0.1,0.1-0.1,0.2c0,0.1-0.2,1.7-0.2,2.7
	c0,0.4-1.3,2.2-2.9,3.9c-0.1,0.1-0.2,0.4-0.1,0.6c0.1,0.2,0.3,0.3,0.5,0.3h2.1c0.6,2.8,3.2,4,3.3,4.1l12.9,5
	C450.5,664.5,442.4,668.3,433.5,668.3z"/>
<rect x="351.6" y="718" fill="none" width="166.5" height="73.1"/>
<text transform="matrix(1 0 0 1 351.5616 725.1965)"><tspan x="0" y="0" font-family="'Overpass-Bold'" font-size="10" text-decoration=" underline">Report a LinkedIn imposter account</tspan><tspan x="0" y="38" font-family="'Overpass-Bold'" font-size="10" text-decoration=" underline">Report false information on LinkedIn</tspan></text>
</svg>
