<?xml version="1.0" encoding="utf-8"?>
<!-- Generator: Adobe Illustrator 18.0.0, SVG Export Plug-In . SVG Version: 6.00 Build 0)  -->
<!DOCTYPE svg PUBLIC "-//W3C//DTD SVG 1.1//EN" "http://www.w3.org/Graphics/SVG/1.1/DTD/svg11.dtd">
<svg version="1.1" id="Layer_1" xmlns="http://www.w3.org/2000/svg" xmlns:xlink="http://www.w3.org/1999/xlink" x="0px" y="0px"
	 viewBox="200.9 1.8 1498.2 1176.4" enable-background="new 200.9 1.8 1498.2 1176.4" xml:space="preserve">
<g>
	<g>
		<path fill="#FFFFFF" d="M211.7,1177.1c-5.4,0-10-4.3-10-10V12.5c0-5.4,4.3-10,10-10h1476.7c5.4,0,10,4.3,10,10v1154.9
			c0,5.4-4.3,10-10,10H211.7V1177.1z"/>
		<path fill="#D2D2D2" d="M1688.4,3.6c5,0,9,3.9,9,9v1154.9c0,5-3.9,9-9,9H211.7c-5,0-9-3.9-9-9V12.5c0-5,3.9-9,9-9H1688.4
			 M1688.4,1.8H211.7c-6.1,0-10.8,4.7-10.8,10.8v1154.9c0,6.1,4.7,10.8,10.8,10.8h1476.7c6.1,0,10.8-4.7,10.8-10.8V12.5
			C1699.1,6.5,1694.4,1.8,1688.4,1.8L1688.4,1.8z"/>
	</g>
	<g>
		<path fill="#AAB8C2" d="M313.8,614.9h-4.3v-28H303v-3.2l11.1-1.1v32.3H313.8z"/>
		<path fill="#AAB8C2" d="M350,614.9h-20.8V612l10.8-11.8c1.8-2.2,3.2-3.9,3.9-5c0.7-1.1,1.1-2.5,1.1-3.9s-0.4-2.9-1.4-3.9
			c-1.1-1.1-2.1-1.8-3.6-1.8c-2.2,0-3.9,0.7-5,1.8c-1.1,1.1-1.4,2.9-1.4,4.7h-4.3l0,0c0-2.9,0.7-5,2.9-7.2c1.8-1.8,4.7-2.9,7.9-2.9
			c2.9,0,5.4,0.7,6.8,2.5c1.8,1.8,2.5,3.9,2.5,6.5c0,1.8-0.4,3.6-1.4,5.4c-1.1,1.8-2.5,3.6-4.3,5.7l-8.6,9.3l0,0h15.4v3.6H350z"/>
		<path fill="#AAB8C2" d="M362.2,595.6h-4.3v-4.7h4.3V595.6z M362.2,614.9h-4.3v-4.7h4.3V614.9z"/>
		<path fill="#AAB8C2" d="M388,603.8h4.3v3.6H388v7.5h-4.3v-7.5H369v-2.5l14.3-22.6h4.7V603.8z M373.6,603.8h9.7v-15.1l0,0l-0.4,1.1
			L373.6,603.8z"/>
		<path fill="#AAB8C2" d="M404.1,596.6h3.9c1.8,0,3.2-0.4,3.9-1.4c0.7-1.1,1.1-2.2,1.1-3.9c0-1.8-0.4-3.2-1.4-4.3s-2.2-1.4-3.9-1.4
			c-1.8,0-3.2,0.4-3.9,1.4c-1.1,1.1-1.4,2.2-1.4,3.9H398l0,0c0-2.5,0.7-4.7,2.5-6.1c1.8-1.8,4.3-2.5,7.2-2.5c2.9,0,5.4,0.7,7.2,2.5
			c1.8,1.4,2.5,3.9,2.5,6.8c0,1.4-0.4,2.5-1.1,3.9s-2.1,2.5-3.6,2.9c1.8,0.7,3.2,1.8,3.9,2.9c0.7,1.4,1.1,2.9,1.1,4.7
			c0,2.9-1.1,5.4-2.9,6.8c-1.8,1.8-4.3,2.5-7.5,2.5c-2.9,0-5.4-0.7-7.2-2.5c-1.8-1.4-2.9-3.6-2.9-6.5l0,0h4.3c0,1.8,0.4,2.9,1.4,3.9
			c1.1,1.1,2.5,1.4,4.3,1.4s3.2-0.4,4.3-1.4c1.1-1.1,1.4-2.5,1.4-4.3c0-2.2-0.4-3.6-1.4-4.3c-1.1-1.1-2.5-1.4-4.3-1.4h-3.9v-3.6
			H404.1z"/>
		<path fill="#AAB8C2" d="M445.3,602v12.9H441v-32.3h12.2c3.6,0,6.1,0.7,7.9,2.5s2.9,3.9,2.9,7.2c0,2.9-1.1,5.4-2.9,7.2
			s-4.7,2.5-7.9,2.5H445.3z M445.3,598.4h7.9c2.1,0,3.9-0.7,5-1.8s1.8-2.5,1.8-4.3s-0.7-3.2-1.8-4.3s-2.9-1.8-5-1.8h-7.9V598.4z"/>
		<path fill="#AAB8C2" d="M477.5,582.7l10.4,26.2l0,0l10.4-26.2h5.7v32.3h-4.3V602l0.4-13.3l0,0l-10.4,25.8h-2.9l-10.4-25.8l0,0
			l0.4,12.9v12.9h-4.3v-32.3h5V582.7z"/>
		<path fill="#AAB8C2" d="M535.2,602.7h-10.8v-3.6h10.8V602.7z"/>
		<path fill="#AAB8C2" d="M575.4,614.9h-20.8V612l10.8-11.8c1.8-2.2,3.2-3.9,3.9-5c0.7-1.1,1.1-2.5,1.1-3.9s-0.4-2.9-1.4-3.9
			c-1.1-1.1-2.2-1.8-3.6-1.8c-2.2,0-3.9,0.7-5,1.8c-1.1,1.1-1.4,2.9-1.4,4.7h-5l0,0c0-2.9,0.7-5,2.9-7.2c1.8-1.8,4.7-2.9,7.9-2.9
			c2.9,0,5.4,0.7,6.8,2.5c1.8,1.8,2.5,3.9,2.5,6.5c0,1.8-0.4,3.6-1.4,5.4s-2.5,3.6-4.3,5.7l-8.6,9.3l0,0H575v3.6H575.4z"/>
		<path fill="#AAB8C2" d="M602.6,602.4c0,4.3-1.1,7.2-2.9,9.3s-4.3,3.2-7.5,3.2c-3.2,0-5.7-1.1-7.5-3.2c-1.8-2.2-2.9-5.4-2.9-9.3
			v-7.5c0-3.9,1.1-7.2,2.9-9.3c1.8-2.2,4.3-3.2,7.5-3.2c3.2,0,5.7,1.1,7.5,3.2s2.9,5.4,2.9,9.3V602.4z M598.3,593.8
			c0-2.9-0.4-5-1.4-6.5c-1.1-1.4-2.5-2.2-4.3-2.2s-3.2,0.7-4.3,2.2s-1.4,3.6-1.4,6.5v9.3c0,2.9,0.4,5,1.4,6.5
			c1.1,1.4,2.5,2.2,4.3,2.2s3.2-0.7,4.3-2.2c1.1-1.4,1.4-3.6,1.4-6.5V593.8z"/>
		<path fill="#AAB8C2" d="M630.5,582.7l10.4,26.2l0,0l10.4-26.2h5.7v32.3h-4.3V602l0.4-13.3l0,0l-10.4,25.8h-2.9l-10.4-25.8l0,0
			l0.4,12.9v12.9h-4.3v-32.3h5V582.7z"/>
		<path fill="#AAB8C2" d="M680.7,614.9c0-0.7-0.4-1.4-0.4-1.8c0-0.7,0-1.1,0-1.8c-0.7,1.1-1.8,2.2-3.2,2.9c-1.4,0.7-2.9,1.1-4.3,1.1
			c-2.5,0-4.3-0.7-5.7-1.8c-1.4-1.4-1.8-2.9-1.8-5.4c0-2.2,1.1-3.9,2.9-5.4c1.8-1.4,4.3-1.8,7.5-1.8h4.7v-2.5c0-1.4-0.4-2.5-1.4-3.2
			c-0.7-0.7-2.2-1.1-3.6-1.1c-1.4,0-2.5,0.4-3.6,1.1c-0.7,0.7-1.4,1.4-1.4,2.5H666l0,0c0-1.8,0.7-3.2,2.5-4.7
			c1.8-1.4,3.9-2.2,6.8-2.2c2.9,0,5,0.7,6.5,2.2c1.8,1.4,2.5,3.2,2.5,6.1v11.5c0,0.7,0,1.8,0,2.5c0,0.7,0.4,1.4,0.4,2.5h-3.9V614.9z
			 M673.5,611.7c1.4,0,2.9-0.4,4.3-1.1c1.4-0.7,2.2-1.8,2.5-2.9v-3.9h-5c-1.8,0-3.2,0.4-4.3,1.4c-1.1,0.7-1.4,1.8-1.4,3.2
			c0,1.1,0.4,1.8,1.1,2.5C671.4,611.3,672.5,611.7,673.5,611.7z"/>
		<path fill="#AAB8C2" d="M704.7,594.8h-2.2c-1.1,0-2.2,0.4-2.9,0.7c-0.7,0.7-1.4,1.4-1.8,2.2v17.2h-4.3v-24h3.9l0.4,3.6
			c0.7-1.1,1.4-2.2,2.5-2.9c1.1-0.7,2.2-1.1,3.6-1.1c0.4,0,0.7,0,1.1,0c0.4,0,0.4,0,0.7,0L704.7,594.8z"/>
		<path fill="#AAB8C2" d="M744.9,614.9h-20.8V612l10.8-11.8c1.8-2.2,3.2-3.9,3.9-5c0.7-1.1,1.1-2.5,1.1-3.9s-0.4-2.9-1.4-3.9
			c-1.1-1.1-2.2-1.8-3.6-1.8c-2.2,0-3.9,0.7-5,1.8c-1.1,1.1-1.4,2.9-1.4,4.7h-4.3l0,0c0-2.9,0.7-5,2.9-7.2c1.8-1.8,4.7-2.9,7.9-2.9
			c2.9,0,5.4,0.7,6.8,2.5c1.8,1.8,2.5,3.9,2.5,6.5c0,1.8-0.4,3.6-1.4,5.4c-1.1,1.8-2.5,3.6-4.3,5.7l-8.6,9.3l0,0h15.4v3.6H744.9z"/>
		<path fill="#AAB8C2" d="M772.1,602.4c0,4.3-1.1,7.2-2.9,9.3s-4.3,3.2-7.5,3.2s-5.7-1.1-7.5-3.2c-1.8-2.2-2.9-5.4-2.9-9.3v-7.5
			c0-3.9,1.1-7.2,2.9-9.3c1.8-2.2,4.3-3.2,7.5-3.2c3.2,0,5.7,1.1,7.5,3.2s2.9,5.4,2.9,9.3V602.4z M767.8,593.8c0-2.9-0.4-5-1.4-6.5
			c-1.1-1.4-2.5-2.2-4.3-2.2s-3.2,0.7-4.3,2.2c-1.1,1.4-1.4,3.6-1.4,6.5v9.3c0,2.9,0.4,5,1.4,6.5c1.1,1.4,2.5,2.2,4.3,2.2
			s3.2-0.7,4.3-2.2c1.1-1.4,1.4-3.6,1.4-6.5V593.8z"/>
		<path fill="#AAB8C2" d="M792.2,614.9h-4.3v-28h-6.5v-3.2l11.1-1.1v32.3H792.2z"/>
		<path fill="#AAB8C2" d="M828.3,585.9c-3.9,4.7-6.5,8.6-7.9,12.2c-1.4,3.6-2.5,7.9-2.9,12.9l-0.4,3.6h-4.3l0.4-3.6
			c0.7-5,1.8-9.7,3.6-13.6c1.8-3.9,4.3-7.9,7.5-11.8h-17.6v-3.6h21.9v3.9H828.3z"/>
	</g>
	<path fill="#23A9E1" d="M470.4,284.9h-167c-7.9,0-14.3-6.5-14.3-14.3V105c0-7.9,6.5-14.3,14.3-14.3h167c7.9,0,14.3,6.5,14.3,14.3
		v165.6C484.7,278.4,478.3,284.9,470.4,284.9z"/>
	<path fill="#23A9E1" d="M1588,998.3H312c-11.8,0-21.5-9.7-21.5-21.5V700.2c0-11.8,9.7-21.5,21.5-21.5h1276
		c11.8,0,21.5,9.7,21.5,21.5v276.6C1609.5,988.6,1599.8,998.3,1588,998.3z"/>
	<g>
		<path fill="#FFFFFF" d="M777.5,730.6h13.3c2.2,0,4.3,0.4,6.1,0.7c1.8,0.4,3.6,1.1,4.7,2.2c1.4,1.1,2.5,2.2,3.6,3.2
			c1.1,1.1,1.8,2.5,2.5,3.9c0.7,1.4,1.1,2.9,1.4,4.7c0.4,1.4,0.4,3.2,0.4,4.7c0,1.4,0,2.9-0.4,4.7c-0.4,1.4-0.7,2.9-1.4,4.7
			c-0.7,1.4-1.4,2.9-2.5,3.9c-1.1,1.4-2.2,2.5-3.6,3.2c-1.4,1.1-3.2,1.8-5,2.2c-1.8,0.7-3.9,0.7-6.5,0.7h-12.9v-38.7H777.5z
			 M791.4,762.5c1.8,0,3.6-0.4,5-1.1c1.4-0.7,2.5-1.8,3.2-2.9c0.7-1.1,1.4-2.5,1.8-3.9c0.4-1.4,0.7-2.9,0.7-4.3
			c0-1.4-0.4-2.9-0.7-4.7c-0.4-1.4-1.1-2.9-1.8-3.9c-0.7-1.1-1.8-2.2-2.9-2.9c-1.1-0.7-2.9-1.1-4.3-1.1h-6.8v24.7L791.4,762.5
			L791.4,762.5z"/>
		<path fill="#FFFFFF" d="M841.6,769.3l-2.9-8.2h-15.1l-2.9,8.2h-8.2l15.1-39.1h7.2l15.1,39.1H841.6z M832.3,744.6
			c-0.4-0.4-0.4-1.1-0.7-1.8c-0.4-0.7-0.4-1.4-0.7-1.8c0,0.7-0.4,1.1-0.7,1.8s-0.4,1.1-0.7,1.8l-3.9,10h10L832.3,744.6z"/>
		<path fill="#FFFFFF" d="M881,769.3l-15.4-22.6c-0.4-0.4-0.4-0.7-0.7-1.4c-0.4-0.7-0.7-1.1-0.7-1.4c0,0.4,0,1.1,0,1.4
			c0,0.7,0,1.1,0,1.4v22.6h-7.5v-39.1h7.2l15.1,22.6c0.4,0.4,0.4,0.7,0.7,1.4c0.4,0.7,0.7,1.1,0.7,1.4c0-0.4,0-1.1,0-1.4
			s0-1.1,0-1.4v-22.6h7.5v39.1H881z"/>
		<path fill="#FFFFFF" d="M913.6,770.1c-2.2,0-3.9-0.4-5.4-0.7c-1.8-0.4-3.2-1.1-4.3-2.2c-1.4-1.1-2.5-2.2-3.2-3.2
			c-1.1-1.4-1.8-2.5-2.2-4.3c-0.7-1.4-1.1-3.2-1.4-4.7c-0.4-1.8-0.4-3.2-0.4-5c0-1.4,0-3.2,0.4-4.7c0.4-1.4,0.7-3.2,1.4-4.7
			s1.4-2.9,2.5-4.3c1.1-1.4,2.2-2.5,3.2-3.2c1.4-1.1,2.9-1.8,4.3-2.2c1.4-0.7,3.2-0.7,5.4-0.7c1.8,0,3.6,0.4,5,0.7
			c1.4,0.4,2.9,1.1,3.9,1.8c1.1,0.7,2.2,1.8,2.9,2.5c0.7,1.1,1.4,2.2,2.2,3.2l-6.5,3.9c-0.4-0.7-1.1-1.4-1.4-1.8
			c-0.4-0.7-1.1-1.1-1.8-1.4c-0.7-0.4-1.1-0.7-1.8-1.1c-0.7-0.4-1.4-0.4-2.5-0.4s-2.2,0.4-3.2,0.7c-1.1,0.4-1.8,0.7-2.5,1.4
			c-0.7,0.7-1.4,1.4-1.8,2.2c-0.4,0.7-0.7,1.8-1.1,2.9c-0.4,1.1-0.4,1.8-0.7,2.9c0,1.1-0.4,2.2-0.4,2.9c0,1.8,0,3.2,0.4,4.7
			c0.4,1.4,0.7,2.9,1.8,4.3c0.7,1.1,1.8,2.2,2.9,2.9s2.5,1.1,4.3,1.1c1.1,0,1.8,0,2.5-0.4c0.7-0.4,1.4-0.7,2.2-1.4
			c0.7-0.7,1.1-1.1,1.4-2.2c0.4-0.7,0.4-1.4,0.4-2.5v-0.4h-6.5v-7.2H928v5.7c0,2.5-0.4,4.7-1.1,6.5c-0.7,1.8-1.8,3.6-3.2,4.7
			c-1.4,1.4-2.9,2.2-4.7,2.9C917.6,769.7,915.4,770.1,913.6,770.1z"/>
		<path fill="#FFFFFF" d="M936.2,769.3v-39.1h26.5v7.2h-19v8.2h11.1v7.2h-11.1v9.3h20.1v7.2L936.2,769.3L936.2,769.3z"/>
		<path fill="#FFFFFF" d="M972,769.3v-39.1H990c2.5,0,4.7,0.4,6.1,1.1c1.8,0.7,2.9,1.4,3.9,2.9c1.1,1.1,1.8,2.5,2.2,3.9
			c0.4,1.4,0.7,2.9,0.7,4.7c0,1.1,0,2.2-0.4,3.2c-0.4,1.1-0.7,2.2-1.4,3.2c-0.7,1.1-1.4,1.8-2.5,2.9c-1.1,0.7-2.2,1.4-3.2,1.8
			l7.5,15.4h-8.2l-7.2-14.7h-7.9v14.7L972,769.3L972,769.3z M990.3,747.8c1.1,0,1.8,0,2.5-0.4c0.7-0.4,1.1-0.7,1.4-1.1
			c0.4-0.4,0.7-1.1,0.7-1.8s0.4-1.4,0.4-1.8c0-0.7,0-1.1-0.4-1.8c0-0.7-0.4-1.1-0.7-1.8c-0.4-0.4-1.1-0.7-1.4-1.1
			c-0.7-0.4-1.4-0.4-2.5-0.4h-10.8v10H990.3L990.3,747.8z"/>
		<path fill="#FFFFFF" d="M1027.6,770.1c-2.2,0-3.9-0.4-5.7-0.7c-1.8-0.7-3.2-1.4-4.3-2.2c-1.4-1.1-2.5-2.2-3.2-3.2
			c-1.1-1.4-1.8-2.9-2.2-4.3c-0.7-1.4-1.1-3.2-1.1-4.7c-0.4-1.8-0.4-3.2-0.4-5c0-1.4,0-3.2,0.4-4.7c0.4-1.8,0.7-3.2,1.1-4.7
			c0.7-1.4,1.4-2.9,2.2-4.3c1.1-1.4,2.2-2.5,3.2-3.2c1.4-1.1,2.9-1.8,4.3-2.2c1.8-0.7,3.6-0.7,5.7-0.7s3.9,0.4,5.7,0.7
			c1.8,0.7,3.2,1.4,4.3,2.2c1.4,1.1,2.5,2.2,3.2,3.2c1.1,1.4,1.8,2.9,2.2,4.3c0.7,1.4,1.1,3.2,1.1,4.7c0.4,1.8,0.4,3.2,0.4,4.7
			c0,1.4,0,3.2-0.4,5c-0.4,1.8-0.7,3.2-1.1,4.7c-0.7,1.4-1.4,2.9-2.2,4.3c-1.1,1.4-2.2,2.5-3.2,3.2c-1.4,1.1-2.9,1.8-4.3,2.2
			C1031.5,770.1,1029.7,770.1,1027.6,770.1z M1027.6,762.9c1.8,0,3.2-0.4,4.3-1.1c1.1-0.7,2.2-1.8,2.9-3.2c0.7-1.4,1.4-2.5,1.4-4.3
			c0.4-1.4,0.4-2.9,0.4-4.3c0-1.1,0-2.2-0.4-2.9c0-1.1-0.4-2.2-0.7-2.9c-0.4-1.1-0.7-1.8-1.1-2.9c-0.4-0.7-1.1-1.4-1.8-2.2
			s-1.4-1.1-2.5-1.4c-1.1-0.4-1.8-0.7-3.2-0.7c-1.1,0-2.2,0.4-3.2,0.7c-1.1,0.4-1.8,0.7-2.5,1.4c-0.7,0.7-1.4,1.4-1.8,2.2
			c-0.4,0.7-0.7,1.8-1.1,2.9c-0.4,1.1-0.4,1.8-0.7,2.9c0,1.1-0.4,1.8-0.4,2.9c0,1.4,0,2.9,0.4,4.7c0.4,1.4,0.7,2.9,1.4,4.3
			c0.7,1.1,1.8,2.2,2.9,2.9C1024.4,762.5,1025.8,762.9,1027.6,762.9z"/>
		<path fill="#FFFFFF" d="M1068.8,770.1c-1.4,0-2.5,0-3.9-0.4c-1.4-0.4-2.5-0.7-3.6-1.1c-1.1-0.4-2.2-1.1-3.2-1.8
			c-1.1-0.7-1.8-1.8-2.5-2.9c-0.7-1.1-1.4-2.5-1.8-3.9c-0.4-1.4-0.7-3.2-0.7-5.4v-24h7.5v24c0,1.4,0.4,2.9,0.7,3.9
			c0.4,1.1,1.1,1.8,1.8,2.5c0.7,0.7,1.4,1.1,2.5,1.4c1.1,0.4,2.2,0.4,3.6,0.4c1.1,0,2.5,0,3.2-0.4c1.1-0.4,1.8-0.7,2.5-1.4
			c0.7-0.7,1.4-1.4,1.8-2.5c0.4-1.1,0.7-2.5,0.7-3.9v-24h7.5v24c0,2.9-0.4,5.4-1.4,7.2c-0.7,2.2-2.2,3.6-3.6,4.7
			c-1.4,1.1-3.2,2.2-5,2.5C1072.7,770.1,1070.9,770.1,1068.8,770.1z"/>
		<path fill="#FFFFFF" d="M1112.9,741c-0.4-0.7-0.7-1.1-1.1-1.8c-0.4-0.4-0.7-1.1-1.4-1.4c-0.7-0.4-1.1-0.7-1.8-0.7
			c-0.7-0.4-1.4-0.4-2.5-0.4c-1.8,0-2.9,0.4-3.9,1.1c-1.1,0.7-1.4,1.4-1.4,2.9c0,0.7,0.4,1.4,0.7,1.8c0.7,0.4,1.4,1.1,2.2,1.4
			c1.1,0.4,2.2,0.7,3.2,1.1c1.1,0.4,2.5,0.7,3.6,1.4c1.4,0.4,2.5,1.1,3.6,1.8s2.2,1.4,3.2,2.2c1.1,1.1,1.8,2.2,2.2,3.2
			c0.7,1.4,0.7,2.9,0.7,4.7s-0.4,3.6-1.1,5c-0.7,1.4-1.8,2.9-2.9,3.6c-1.4,1.1-2.9,1.8-4.3,2.2c-1.8,0.4-3.6,0.7-5.7,0.7
			c-1.8,0-3.6-0.4-5-0.7c-1.4-0.4-2.9-1.1-4.3-2.2s-2.5-2.2-3.2-3.2c-1.1-1.4-1.8-2.9-2.2-4.3l6.8-2.5c0.4,1.1,1.1,1.8,1.4,2.5
			c0.7,0.7,1.1,1.4,1.8,1.8c0.7,0.4,1.4,1.1,2.5,1.1c1.1,0,1.8,0.4,2.9,0.4c1.1,0,1.8,0,2.5-0.4c0.7-0.4,1.4-0.4,2.2-0.7
			c0.7-0.4,1.1-0.7,1.4-1.4s0.4-1.4,0.4-2.2c0-1.1-0.4-1.8-0.7-2.5c-0.7-0.7-1.4-1.1-2.2-1.8c-1.1-0.4-2.2-1.1-3.2-1.4
			c-1.1-0.4-2.5-0.7-3.6-1.1c-1.4-0.4-2.5-1.1-3.6-1.4c-1.1-0.7-2.2-1.4-3.2-2.2c-1.1-0.7-1.8-1.8-2.2-3.2c-0.7-1.1-0.7-2.5-0.7-4.3
			c0-1.4,0.4-2.9,0.7-4.3c0.7-1.4,1.4-2.5,2.5-3.6c1.1-1.1,2.5-1.8,4.3-2.2c1.8-0.7,3.6-0.7,5.7-0.7c1.8,0,3.2,0.4,4.7,0.7
			c1.4,0.4,2.5,1.1,3.6,1.8c1.1,0.7,2.2,1.8,2.9,2.9c0.7,1.1,1.4,2.2,1.8,3.6L1112.9,741z"/>
		<path fill="#FFFFFF" d="M777.8,874v-94.6h40.5c6.1,0,11.1,0.7,15.1,2.5c3.9,1.8,7.5,3.9,10,6.8c2.5,2.9,4.3,6.1,5.4,9.7
			c1.1,3.6,1.8,7.2,1.8,10.8c0,2.2-0.4,4.7-0.7,6.8c-0.4,2.5-1.4,4.7-2.5,6.8c-1.1,2.2-2.5,4.3-4.3,6.1s-3.9,3.6-6.1,5
			c-2.5,1.4-5,2.5-8.2,3.6c-3.2,0.7-6.5,1.1-10.4,1.1h-22.2v34.8h-18.3V874z M819,821.7c2.5,0,4.3-0.4,5.7-1.1
			c1.4-0.7,2.9-1.8,3.9-2.9c1.1-1.1,1.8-2.5,2.2-3.9c0.4-1.4,0.7-2.9,0.7-4.7c0-1.4-0.4-2.9-0.7-4.3c-0.4-1.4-1.1-2.9-2.2-3.9
			s-2.2-2.2-3.9-2.9s-3.6-1.1-6.1-1.1h-22.9V822H819V821.7z"/>
		<path fill="#FFFFFF" d="M906.5,875.4c-5,0-9.7-0.7-13.6-2.2s-7.5-3.2-10.8-5.4c-3.2-2.2-5.7-5-7.9-8.2c-2.2-3.2-3.9-6.5-5.4-10
			c-1.4-3.6-2.5-7.5-2.9-11.5c-0.7-3.9-1.1-7.9-1.1-11.8s0.4-7.9,1.1-11.8s1.8-7.9,2.9-11.5c1.4-3.6,3.2-7.2,5.4-10
			c2.2-3.2,5-5.7,7.9-8.2c3.2-2.2,6.8-4.3,10.8-5.4c3.9-1.4,8.6-2.2,13.6-2.2s9.7,0.7,13.6,2.2c3.9,1.4,7.5,3.2,10.8,5.4
			c3.2,2.2,5.7,5,7.9,8.2c2.2,3.2,3.9,6.5,5.4,10c1.4,3.6,2.5,7.5,2.9,11.5c0.7,3.9,1.1,7.9,1.1,11.8s-0.4,7.9-1.1,11.8
			c-0.7,3.9-1.8,7.9-2.9,11.5c-1.4,3.6-3.2,7.2-5.4,10c-2.2,3.2-4.7,5.7-7.9,8.2c-3.2,2.2-6.5,4.3-10.8,5.4
			C916.1,874.7,911.5,875.4,906.5,875.4z M906.5,857.9c4.3,0,7.9-1.1,10.8-2.9c2.9-2.2,5.4-4.7,7.2-7.5c1.8-3.2,3.2-6.5,3.9-10
			c0.7-3.6,1.1-7.2,1.1-10.8c0-2.5,0-5-0.4-7.5c-0.4-2.5-0.7-5-1.8-7.2c-0.7-2.2-1.8-4.7-2.9-6.5c-1.1-2.2-2.5-3.9-4.3-5.4
			c-1.8-1.4-3.6-2.9-5.7-3.6c-2.2-0.7-4.7-1.4-7.5-1.4s-5.4,0.4-7.5,1.4s-4.3,2.2-5.7,3.6c-1.8,1.4-3.2,3.2-4.3,5.4
			c-1.1,2.2-2.2,4.3-2.9,6.5c-0.7,2.5-1.4,4.7-1.8,7.2c-0.4,2.5-0.4,4.7-0.4,7.2c0,3.6,0.4,7.2,1.1,11.1c0.7,3.6,2.2,7.2,3.9,10
			c1.8,2.9,4.3,5.4,7.2,7.5C898.6,856.8,902.2,857.9,906.5,857.9z"/>
		<path fill="#FFFFFF" d="M1014.3,804.8c-0.7-1.4-1.4-2.9-2.2-3.9c-1.1-1.1-2.2-2.2-3.6-3.2c-1.4-1.1-2.9-1.4-4.7-2.2
			c-1.8-0.4-3.6-0.7-5.7-0.7c-3.9,0-7.2,0.7-9.3,2.5c-2.2,1.4-3.2,3.9-3.2,6.8c0,1.8,0.7,3.6,2.2,4.7c1.4,1.4,3.2,2.5,5.4,3.6
			s5,2.2,7.9,2.9c2.9,1.1,6.1,1.8,9,3.2c3.2,1.1,6.1,2.5,9,3.9s5.4,3.2,7.9,5.7c2.2,2.2,4.3,5,5.4,7.9c1.4,3.2,2.2,6.8,2.2,11.1
			c0,4.7-0.7,8.6-2.5,12.2c-1.8,3.6-4.3,6.5-7.2,9c-3.2,2.5-6.8,4.3-10.8,5.7c-4.3,1.4-8.6,1.8-13.6,1.8c-4.3,0-8.6-0.7-12.5-1.8
			c-3.9-1.1-7.5-2.9-10.4-5c-3.2-2.2-5.7-5-8.2-8.2c-2.5-3.2-4.3-6.8-5.4-10.8l16.5-6.1c1.1,2.2,2.2,4.3,3.6,6.1
			c1.4,1.8,2.9,3.2,4.7,4.7s3.6,2.2,5.7,2.9s4.3,1.1,6.5,1.1s4.3-0.4,6.1-0.7s3.6-1.1,4.7-2.2c1.4-1.1,2.5-2.2,3.2-3.6
			c0.7-1.4,1.1-3.2,1.1-5c0-2.2-0.7-4.3-2.2-5.7c-1.4-1.4-3.2-2.9-5.4-3.9s-5-2.2-7.9-3.2c-2.9-1.1-6.1-1.8-9-2.9
			c-3.2-1.1-6.1-2.2-9-3.6c-2.9-1.4-5.4-3.2-7.9-5.4c-2.2-2.2-4.3-4.7-5.4-7.5c-1.4-2.9-2.2-6.5-2.2-10.4c0-3.6,0.7-6.8,2.2-10
			c1.4-3.2,3.6-5.7,6.1-8.2c2.9-2.5,6.1-4.3,10-5.7s8.6-2.2,13.6-2.2c4.3,0,8.2,0.7,11.5,1.8c3.6,1.1,6.5,2.5,9,4.7
			c2.5,1.8,5,4.3,6.8,6.8c1.8,2.5,3.2,5.7,3.9,8.6L1014.3,804.8z"/>
		<path fill="#FFFFFF" d="M1093.9,796.9v77h-18.3v-77h-26.9v-17.6h72.4v17.6H1093.9z"/>
		<path fill="#FFFFFF" d="M971.3,919.5c0,0,2.5-15.4-2.5-30.1c0,0-1.8-3.2,0.7-3.9h10c0,0,2.2,1.1,2.9,2.2
			c0.7,1.1,4.7,10.8,2.5,31.5c0,0-1.1,3.6-4.3,3.9c-3.2,0-7.5-0.4-7.5-0.4S969.9,922.7,971.3,919.5z"/>
		<path fill="#FFFFFF" d="M933.7,932.7c0,0-1.4,4.7-2.5,7.2c-1.1,2.5-3.9,10.4,0.7,15.8c4.3,5,8.2,3.2,9.3,0.7c0,0,0.4-2.9,0.4-3.6
			c0-1.1-1.4-2.9,2.5-7.5c3.9-4.7,3.6-5.7,7.2-9c3.6-3.2,7.5-7.5,7.9-9.7c0,0,2.5-3.2,3.2-2.9c0.7,0.4,3.2-0.4,4.7-5
			c1.4-4.7,0.4-23.3-4.3-28.3c-4.7-5-27.6-7.2-31.9-6.1c-4.3,1.1-10.4,2.2-10,8.6c0,0-4.3,4.3-4.7,7.9c-0.4,3.6,0.7,4.3,0.7,6.8
			c0,2.5-5.7,2.9-0.7,10.8c0,0,0.7,0.4,0.4,3.9c-0.4,3.6,3.2,5.4,5.4,6.5s9.3,1.4,11.1,0.7C932.3,929.2,934.4,928.4,933.7,932.7z"/>
		<g>
			<polygon fill="#FFFFFF" points="920.4,906.2 738.4,906.2 738.4,745.3 768.1,745.3 768.1,748.2 741.6,748.2 741.6,903.4 
				920.4,903.4 			"/>
		</g>
		<g>
			<polygon fill="#FFFFFF" points="1161.6,906.2 981,906.2 981,903.4 1158.4,903.4 1158.4,748.2 1131.5,748.2 1131.5,745.3 
				1161.6,745.3 			"/>
		</g>
	</g>
	<g>
		<path d="M533.8,175.9V120h20.1c6.5,0,12.2,2.2,16.5,6.5c4.3,4.3,6.5,9.7,6.5,16.5v10c0,6.8-2.2,12.2-6.5,16.5
			c-4.3,4.3-10,6.5-16.5,6.5L533.8,175.9L533.8,175.9z M547.1,130.1v35.8h6.5c3.6,0,6.1-1.1,8.2-3.6c1.8-2.5,2.9-5.4,2.9-9.3v-10
			c0-3.9-1.1-6.8-2.9-9.3c-1.8-2.5-4.7-3.6-8.2-3.6L547.1,130.1L547.1,130.1z"/>
		<path d="M608.3,175.9c-0.4-0.7-0.7-1.4-1.1-2.2c-0.4-0.7-0.7-1.8-0.7-2.5c-1.1,1.8-2.9,3.2-4.3,3.9c-1.8,1.1-3.9,1.4-6.5,1.4
			c-3.9,0-7.2-1.1-9.7-3.6c-2.5-2.2-3.6-5.4-3.6-9c0-3.9,1.4-7.2,4.7-9.7c3.2-2.2,7.9-3.2,14-3.2h4.7v-2.9c0-1.8-0.4-3.2-1.1-3.9
			c-0.7-1.1-2.2-1.4-3.9-1.4c-1.4,0-2.5,0.4-3.2,1.1c-0.7,0.7-1.1,1.8-1.1,3.2H584v-0.4c0-3.9,1.4-6.8,4.7-9.3s7.9-3.9,13.3-3.9
			c5,0,9.3,1.4,12.5,3.9c3.2,2.5,4.7,6.1,4.7,11.1v15.8c0,2.2,0.4,4.3,0.7,6.1c0.4,1.8,1.1,3.9,1.8,5.7L608.3,175.9z M600.1,167.3
			c1.4,0,2.5-0.4,3.6-0.7s1.8-1.1,2.5-2.2V158h-4.7c-2.2,0-3.6,0.4-4.3,1.4c-1.1,1.1-1.4,2.2-1.4,3.9c0,1.1,0.4,2.2,1.1,2.9
			C597.6,167,598.7,167.3,600.1,167.3z"/>
		<path d="M638.4,134.4l0.4,5.7c1.4-2.2,2.9-3.6,5-5c2.2-1.1,4.3-1.8,6.8-1.8c3.9,0,7.2,1.4,9.7,3.9c2.2,2.5,3.6,6.8,3.6,12.5v25.8
			h-13.3v-25.8c0-2.5-0.4-3.9-1.4-5c-1.1-1.1-2.5-1.4-4.3-1.4c-1.1,0-2.2,0.4-3.2,0.7s-1.8,1.1-2.5,1.8v29.7h-12.9v-41.2H638.4z"/>
		<path d="M668.9,155.2c0-6.5,1.4-11.8,4.3-15.8s6.8-6.1,11.8-6.1c2.2,0,4.3,0.4,5.7,1.4c1.8,1.1,3.2,2.5,4.3,4.3l0.7-5.4h11.5v39.8
			c0,5.4-1.8,10-5.7,13.3c-3.9,3.2-9,5-15.4,5c-2.2,0-4.3-0.4-6.8-0.7c-2.5-0.4-4.7-1.4-6.8-2.5l2.2-9.7c1.8,0.7,3.6,1.4,5.4,1.8
			c1.8,0.4,3.6,0.7,5.7,0.7c2.5,0,4.7-0.7,6.1-2.2c1.4-1.4,2.2-3.2,2.2-5.7v-2.2c-1.1,1.4-2.5,2.5-3.9,3.6c-1.4,0.7-3.2,1.1-5.4,1.1
			c-5,0-9-1.8-11.8-5.7c-2.9-3.9-4.3-8.6-4.3-15.1v0H668.9z M681.8,155.9c0,3.2,0.4,6.1,1.4,7.9c1.1,1.8,2.5,2.9,5,2.9
			c1.4,0,2.5-0.4,3.6-0.7s1.8-1.1,2.5-2.2v-17.6c-0.7-1.1-1.4-1.8-2.5-2.2c-1.1-0.4-2.2-0.7-3.6-0.7c-2.2,0-3.9,1.1-5,3.2
			c-1.1,2.2-1.4,5-1.4,8.6V155.9z"/>
		<path d="M733.7,176.7c-6.1,0-11.1-1.8-14.7-5.7c-3.6-3.9-5.4-8.6-5.4-14.3v-1.4c0-6.5,1.8-11.5,5-15.4c3.2-3.9,7.9-6.1,14.3-6.1
			c5.7,0,10,1.8,13.3,5c3.2,3.2,4.7,7.9,4.7,13.6v6.8h-23.7v0.4c0.4,2.2,1.1,3.9,2.5,5.4c1.4,1.4,3.2,2.2,5.7,2.2s4.3-0.4,5.7-0.7
			c1.4-0.4,3.2-1.1,5.7-2.2l3.2,7.9c-1.8,1.4-4.3,2.5-7.2,3.2C740.2,176.3,737,176.7,733.7,176.7z M732.7,143.7
			c-1.8,0-3.2,0.7-4.3,2.2c-1.1,1.4-1.4,3.2-1.8,5.4v0.4h11.1v-1.1c0-2.2-0.4-3.6-1.4-4.7C735.9,144.1,734.5,143.7,732.7,143.7z"/>
		<path d="M779.6,145.8H775c-1.4,0-2.9,0.4-3.6,0.7c-1.1,0.4-1.8,1.1-2.2,2.2v27.2h-12.9v-41.6h12.2l0.4,6.1c0.7-2.2,2.2-3.9,3.6-5
			c1.4-1.1,3.2-1.8,5-1.8c0.7,0,1.1,0,1.8,0s1.1,0.4,1.8,0.4L779.6,145.8z"/>
		<path d="M782.8,154.8c0-6.1,1.8-11.5,5.4-15.4c3.6-3.9,8.6-5.7,14.7-5.7c6.5,0,11.1,1.8,14.7,5.7c3.6,3.9,5.4,9,5.4,15.4v0.7
			c0,6.1-1.8,11.5-5.4,15.4c-3.6,3.9-8.6,5.7-14.7,5.7c-6.5,0-11.5-1.8-14.7-5.7c-3.6-3.9-5.4-9-5.4-15.4V154.8z M795.7,155.5
			c0,3.6,0.7,6.1,1.8,8.2s2.9,2.9,5.4,2.9s4.3-1.1,5.4-2.9c1.1-2.2,1.8-4.7,1.8-8.2v-0.7c0-3.2-0.7-6.1-1.8-8.2
			c-1.1-2.2-2.9-2.9-5.4-2.9s-4.3,1.1-5.4,3.2c-1.1,2.2-1.8,4.7-1.8,8.2V155.5z"/>
		<path d="M853.8,170.9c-1.4,1.8-2.9,3.2-5,4.3c-1.8,1.1-3.9,1.4-6.5,1.4c-4.3,0-7.5-1.4-10-4.3c-2.5-2.9-3.6-7.2-3.6-12.9v-25.1
			h12.9v25.4c0,2.2,0.4,3.9,1.4,5.4c0.7,1.1,2.2,1.8,3.9,1.8c1.4,0,2.5-0.4,3.6-0.7c1.1-0.4,1.8-1.1,2.5-1.8v-30.1H866v41.6h-11.5
			L853.8,170.9z"/>
		<path d="M894.6,164.1c0-1.1-0.7-1.8-1.8-2.9c-1.1-0.7-3.2-1.4-6.5-2.2c-4.7-1.1-8.6-2.5-10.8-4.3c-2.2-1.8-3.6-4.7-3.6-8.2
			s1.4-6.8,4.7-9.3c3.2-2.5,7.2-3.9,12.5-3.9c5.4,0,10,1.1,13.3,3.6c3.2,2.5,4.7,5.7,4.7,9.7v0.4h-12.9c0-1.8-0.4-2.9-1.1-3.6
			c-0.7-0.7-2.2-1.4-3.9-1.4c-1.4,0-2.5,0.4-3.6,1.1c-1.1,0.7-1.4,1.8-1.4,2.9c0,1.1,0.4,2.2,1.4,2.9s3.2,1.4,6.5,2.2
			c5,1.1,9,2.5,11.1,4.3c2.5,2.2,3.6,4.7,3.6,8.2s-1.8,6.8-5,9.3c-3.2,2.5-7.5,3.6-13.3,3.6c-5.7,0-10-1.4-13.3-4.3
			c-3.2-2.9-5-6.1-4.7-9.7V162h11.8c0,1.8,0.7,3.2,1.8,4.3c1.1,0.7,2.9,1.4,5,1.4c1.8,0,3.2-0.4,3.9-1.1
			C894.3,166.6,894.6,165.6,894.6,164.1z"/>
		<path d="M926.9,156.6v19H914V120h22.6c6.5,0,11.8,1.8,15.8,5c3.9,3.2,5.7,7.9,5.7,13.3c0,5.4-1.8,10-5.7,13.3c-3.9,3.2-9,5-15.8,5
			L926.9,156.6L926.9,156.6z M926.9,146.9h9.7c2.9,0,5-0.7,6.5-2.2c1.4-1.4,2.2-3.6,2.2-6.1c0-2.5-0.7-4.7-2.2-6.1
			c-1.4-1.4-3.6-2.5-6.5-2.5h-9.7V146.9z"/>
		<path d="M962.7,154.8c0-6.1,1.8-11.5,5.4-15.4c3.6-3.9,8.6-5.7,14.7-5.7c6.5,0,11.1,1.8,14.7,5.7c3.6,3.9,5.4,9,5.4,15.4v0.7
			c0,6.1-1.8,11.5-5.4,15.4c-3.6,3.9-8.6,5.7-14.7,5.7c-6.5,0-11.5-1.8-14.7-5.7c-3.6-3.9-5.4-9-5.4-15.4V154.8z M975.6,155.5
			c0,3.6,0.7,6.1,1.8,8.2c1.1,2.2,2.9,2.9,5.4,2.9s4.3-1.1,5.4-2.9c1.1-1.8,1.8-4.7,1.8-8.2v-0.7c0-3.2-0.7-6.1-1.8-8.2
			s-2.9-2.9-5.4-2.9s-4.3,1.1-5.4,3.2c-1.1,2.2-1.8,4.7-1.8,8.2V155.5z"/>
		<path d="M1030.1,164.1c0-1.1-0.7-1.8-1.8-2.9c-1.1-0.7-3.2-1.4-6.5-2.2c-4.7-1.1-8.6-2.5-10.8-4.3c-2.2-1.8-3.6-4.7-3.6-8.2
			s1.4-6.8,4.7-9.3c3.2-2.5,7.2-3.9,12.5-3.9c5.4,0,10,1.1,13.3,3.6c3.2,2.5,4.7,5.7,4.7,9.7v0.4h-12.5c0-1.8-0.4-2.9-1.1-3.6
			s-2.2-1.4-3.9-1.4c-1.4,0-2.5,0.4-3.6,1.1s-1.8,2.2-1.8,3.2c0,1.1,0.4,2.2,1.4,2.9c1.1,0.7,3.2,1.4,6.5,2.2c5,1.1,9,2.5,11.1,4.3
			c2.2,1.8,3.6,4.7,3.6,8.2s-1.8,6.8-5,9.3c-3.2,2.5-7.5,3.6-13.3,3.6c-5.7,0-10-1.4-13.3-4.3c-3.2-2.9-5-6.1-4.7-9.7v-0.4h11.8
			c0,1.8,0.7,3.2,1.8,4.3c1.1,0.7,2.9,1.4,5,1.4c1.8,0,3.2-0.4,3.9-1.1C1029.7,166.6,1030.1,165.6,1030.1,164.1z"/>
		<path d="M1064.1,124v10.4h7.2v9h-7.2v19c0,1.4,0.4,2.5,1.1,3.2s1.4,1.1,2.5,1.1c0.7,0,1.4,0,1.8,0s1.1,0,1.8-0.4l1.1,9.7
			c-1.4,0.4-2.9,0.7-3.9,0.7c-1.1,0-2.5,0.4-3.9,0.4c-4.3,0-7.5-1.1-9.7-3.6c-2.2-2.2-3.2-5.7-3.2-10.8v-19h-5.7v-9.3h5.7V124
			H1064.1z"/>
	</g>
	<g>
		<path fill="#AAB8C2" d="M577.5,233.6c0,3.9-1.4,7.2-3.2,10c-2.2,2.9-5,4.3-9.3,4.3c-1.4,0-2.5-0.4-3.6-1.1
			c-1.1-0.7-1.8-1.8-2.2-3.2c-1.1,1.4-2.2,2.5-3.2,3.2c-1.4,0.7-2.9,1.1-4.7,1.1c-2.2,0-3.9-1.1-5.4-3.2s-1.8-5-1.4-8.6
			c0.4-4.7,1.8-8.6,3.9-11.5s4.7-4.3,7.9-4.3c1.8,0,3.6,0.4,4.7,0.7c1.1,0.4,2.5,1.1,3.9,2.2l0,0l0,0l-1.4,16.1c0,2.2,0,3.6,0.7,4.3
			c0.7,0.7,1.4,1.1,2.1,1.1c2.2,0,3.9-1.1,5.4-3.2s2.2-4.7,2.2-7.9c0.4-7.2-1.1-12.5-3.9-16.5c-2.9-3.9-7.5-5.7-13.6-5.7
			c-5.7,0-10.4,2.2-13.6,6.5c-3.6,4.3-5.4,9.7-5.7,16.5c-0.4,6.8,1.1,12.5,4.3,16.5c3.2,3.9,7.5,6.1,13.3,6.1c1.8,0,3.2-0.4,5-0.7
			c1.8-0.4,3.2-1.1,4.3-1.4l1.1,2.9c-1.1,0.7-2.9,1.4-4.7,1.8c-1.8,0.4-3.9,0.7-5.7,0.7c-7.2,0-12.5-2.1-16.1-6.8
			c-3.9-4.7-5.7-10.8-5.4-19c0.4-7.9,2.5-14,6.8-19c4.3-5,9.7-7.2,16.5-7.2c6.8,0,12.2,2.2,16.1,6.8
			C576.1,219.3,577.9,225.8,577.5,233.6z M549.6,235.8c-0.4,2.5,0,4.7,0.7,6.1c0.7,1.4,1.4,2.2,2.9,2.2c1.1,0,2.2-0.4,3.2-0.7
			c1.1-0.4,1.8-1.4,2.5-2.5c0-0.4,0-0.4,0-0.7s0-0.4,0-0.7l1.4-14.7c-0.4-0.4-1.1-0.4-1.4-0.4s-1.1-0.4-1.8-0.4
			c-2.2,0-3.9,1.1-5.4,2.9C550.6,229,549.9,231.8,549.6,235.8z"/>
		<path fill="#AAB8C2" d="M585.4,247.6v-40.5h12.2c5.4,0,9.7,1.8,12.5,5c3.2,3.2,4.7,7.5,4.7,12.5v5.4c0,5-1.4,9.3-4.7,12.5
			c-3.2,3.2-7.5,4.7-12.5,4.7h-12.2V247.6z M590.8,211.4V243h6.8c3.6,0,6.8-1.1,9-3.6c2.2-2.5,3.2-5.7,3.2-9.3v-5.4
			c0-3.9-1.1-6.8-3.2-9.3c-2.2-2.5-5-3.6-9-3.6h-6.8V211.4z"/>
		<path fill="#AAB8C2" d="M639.9,247.6c-0.4-1.1-0.4-1.8-0.4-2.5s0-1.4-0.4-2.2c-1.1,1.4-2.5,2.5-3.9,3.6c-1.8,1.1-3.2,1.4-5.4,1.4
			c-3.2,0-5.4-0.7-7.2-2.5c-1.8-1.4-2.5-3.9-2.5-6.5c0-2.9,1.1-5,3.6-6.8c2.2-1.8,5.4-2.5,9.3-2.5h6.1v-2.9c0-1.8-0.4-3.2-1.4-4.3
			c-1.1-1.1-2.5-1.4-4.7-1.4c-1.8,0-3.2,0.4-4.3,1.4c-1.1,0.7-1.8,1.8-1.8,3.2h-5l0,0c0-2.2,1.1-4.3,3.2-6.1c2.2-1.8,5-2.9,8.2-2.9
			s6.1,0.7,8.2,2.5c2.1,1.8,3.2,4.3,3.2,7.5v14.3c0,1.1,0,2.2,0,3.2c0,1.1,0.4,2.2,0.7,2.9h-5.7V247.6z M630.9,243.3
			c1.8,0,3.6-0.4,5.4-1.4c1.4-1.1,2.5-2.2,3.2-3.6v-5h-6.1c-2.2,0-3.9,0.7-5.4,1.8c-1.4,1.1-2.1,2.5-2.1,3.9s0.4,2.5,1.1,3.2
			C628,243,629.1,243.3,630.9,243.3z"/>
		<path fill="#AAB8C2" d="M657.4,217.5l0.4,4.3c1.1-1.4,2.2-2.9,3.6-3.6c1.4-0.7,3.2-1.4,5-1.4c3.2,0,5.7,1.1,7.5,2.9
			c1.8,1.8,2.5,4.7,2.5,8.6v19H671v-18.6c0-2.5-0.4-4.7-1.4-5.7c-1.1-1.1-2.5-1.8-4.7-1.8c-1.4,0-2.9,0.4-4.3,1.1
			c-1.1,0.7-2.2,1.8-2.9,3.2v21.9h-5.4v-29.7L657.4,217.5L657.4,217.5z"/>
		<path fill="#AAB8C2" d="M683.6,232.9c0-4.7,1.1-8.6,3.2-11.5c2.2-2.9,5-4.3,8.6-4.3c1.8,0,3.6,0.4,5,1.1c1.4,0.7,2.5,1.8,3.6,3.2
			l0.7-3.9h4.3v30.1c0,3.9-1.1,6.8-3.2,9c-2.2,2.1-5.4,3.2-9.7,3.2c-1.4,0-2.9-0.4-4.7-0.7c-1.8-0.4-3.2-1.1-4.3-1.8l1.4-4.3
			c1.1,0.7,2.2,1.1,3.6,1.4c1.4,0.4,2.9,0.4,3.9,0.4c2.5,0,4.7-0.7,5.7-1.8s1.8-2.9,1.8-5.4v-3.2c-1.1,1.1-2.2,2.2-3.6,2.9
			c-1.4,0.7-2.9,1.1-4.7,1.1c-3.6,0-6.5-1.4-8.6-3.9c-2.2-2.5-3.2-6.1-3.2-10.4V232.9z M689,233.6c0,2.9,0.7,5.4,1.8,7.2
			c1.4,1.8,3.2,2.9,5.7,2.9c1.8,0,2.9-0.4,3.9-1.1c1.1-0.7,2.2-1.8,2.9-3.2v-13.6c-0.7-1.4-1.4-2.2-2.9-2.9
			c-1.1-0.7-2.5-1.1-3.9-1.1c-2.5,0-4.7,1.1-5.7,3.2c-1.1,2.2-1.8,5-1.8,8.2V233.6z"/>
		<path fill="#AAB8C2" d="M729.4,248c-4.3,0-7.5-1.4-10-4.3c-2.5-2.9-3.6-6.5-3.6-10.8v-1.1c0-4.3,1.4-7.9,3.9-10.8
			c2.5-2.9,5.4-4.3,9-4.3c3.9,0,7.2,1.1,9.3,3.6c2.2,2.5,3.2,5.7,3.2,9.7v3.2h-19.4l0,0c0,2.9,0.7,5.4,2.2,7.2
			c1.4,1.8,3.2,2.9,5.7,2.9c1.8,0,3.6-0.4,5-0.7c1.4-0.4,2.5-1.1,3.6-2.2l2.2,3.6c-1.1,1.1-2.5,1.8-4.3,2.5
			C734.1,247.6,732,248,729.4,248z M728.4,221.1c-1.8,0-3.2,0.7-4.7,2.2c-1.4,1.4-2.2,3.6-2.5,5.7l0,0h13.6v-0.7
			c0-2.2-0.7-3.9-1.8-5.4C732.3,222.2,730.9,221.1,728.4,221.1z"/>
		<path fill="#AAB8C2" d="M761,222.5h-2.9c-1.4,0-2.5,0.4-3.6,1.1s-1.8,1.8-2.2,2.9V248H747v-29.7h5l0.4,4.3
			c0.7-1.4,1.8-2.9,3.2-3.6c1.1-0.7,2.5-1.4,4.3-1.4c0.4,0,0.7,0,1.1,0s0.7,0,1.1,0.4L761,222.5z"/>
		<path fill="#AAB8C2" d="M764.6,232.2c0-4.3,1.1-8.2,3.6-10.8c2.5-2.9,5.7-4.3,9.7-4.3c4.3,0,7.5,1.4,9.7,4.3
			c2.5,2.9,3.6,6.5,3.6,11.1v0.7c0,4.3-1.1,8.2-3.6,11.1c-2.5,2.9-5.7,4.3-9.7,4.3c-3.9,0-7.5-1.4-9.7-4.3
			c-2.5-2.9-3.6-6.5-3.6-10.8V232.2z M769.9,232.9c0,3.2,0.7,5.7,2.2,7.9c1.4,2.2,3.2,3.2,6.1,3.2c2.5,0,4.7-1.1,6.1-3.2
			c1.4-2.2,2.2-4.7,2.2-7.9v-0.7c0-3.2-0.7-5.7-2.2-7.9c-1.4-2.2-3.2-3.2-6.1-3.2c-2.5,0-4.7,1.1-5.7,3.2c-1.4,2.2-2.2,4.7-2.2,7.9
			v0.7H769.9z"/>
		<path fill="#AAB8C2" d="M816.9,243c-1.1,1.4-2.2,2.9-3.6,3.6c-1.4,0.7-3.2,1.4-5,1.4c-3.2,0-5.7-1.1-7.5-3.2s-2.9-5.4-2.9-9.7
			v-17.6h5.4v17.6c0,3.2,0.4,5.4,1.4,6.5c1.1,1.1,2.5,1.8,4.3,1.8s3.6-0.4,4.7-1.1c1.4-0.7,2.2-1.8,2.9-3.2v-21.5h5.4v29.7h-5V243z"
			/>
		<path fill="#AAB8C2" d="M847.3,239.4c0-1.1-0.4-2.2-1.4-2.9c-1.1-0.7-2.5-1.4-5-2.2c-3.6-0.7-6.5-1.8-8.2-3.2s-2.9-3.2-2.9-5.4
			c0-2.5,1.1-4.7,3.2-6.1c2.2-1.8,4.7-2.5,8.2-2.5s6.1,0.7,8.2,2.5c2.2,1.8,2.9,3.9,2.9,6.5l0,0H847c0-1.4-0.7-2.5-1.8-3.6
			c-1.1-1.1-2.5-1.4-4.3-1.4c-1.8,0-3.2,0.4-4.3,1.4c-1.1,0.7-1.4,1.8-1.4,3.2c0,1.1,0.4,2.2,1.1,2.9c0.7,0.7,2.5,1.4,5,1.8
			c3.9,0.7,6.5,1.8,8.6,3.2c1.8,1.4,2.9,3.2,2.9,5.7c0,2.5-1.1,4.7-3.2,6.5c-2.2,1.8-5,2.5-8.2,2.5c-3.9,0-6.8-1.1-9-2.9
			c-2.2-1.8-3.2-4.3-3.2-6.8l0,0h5.4c0,1.8,0.7,3.2,2.2,4.3c1.4,0.7,2.9,1.4,4.7,1.4s3.6-0.4,4.7-1.1
			C847,241.9,847.3,240.8,847.3,239.4z"/>
		<path fill="#AAB8C2" d="M866,231.1v16.1h-5.4v-40.1H876c4.3,0,7.5,1.1,10,3.2c2.5,2.2,3.6,5,3.6,8.6s-1.1,6.5-3.6,8.6
			c-2.5,2.2-5.7,3.2-10,3.2h-10V231.1z M866,227.2h10c2.9,0,4.7-0.7,6.1-2.2c1.4-1.4,2.2-3.2,2.2-5.4s-0.7-3.9-2.2-5.7
			c-1.4-1.4-3.2-2.2-6.1-2.2h-10V227.2z"/>
		<path fill="#AAB8C2" d="M894.3,232.2c0-4.3,1.1-8.2,3.6-10.8c2.5-2.5,5.7-4.3,9.7-4.3c4.3,0,7.5,1.4,9.7,4.3
			c2.5,2.9,3.6,6.5,3.6,11.1v0.7c0,4.3-1.1,8.2-3.6,11.1c-2.5,2.9-5.7,4.3-9.7,4.3c-3.9,0-7.5-1.4-9.7-4.3
			c-2.5-2.9-3.6-6.5-3.6-10.8V232.2z M899.7,232.9c0,3.2,0.7,5.7,2.2,7.9s3.2,3.2,6.1,3.2c2.5,0,4.7-1.1,6.1-3.2
			c1.4-2.2,2.2-4.7,2.2-7.9v-0.7c0-3.2-0.7-5.7-2.2-7.9c-1.4-2.2-3.2-3.2-6.1-3.2c-2.5,0-4.7,1.1-5.7,3.2c-1.4,2.2-2.2,4.7-2.2,7.9
			v0.7H899.7z"/>
		<path fill="#AAB8C2" d="M945.2,239.4c0-1.1-0.4-2.2-1.4-2.9c-1.1-0.7-2.5-1.4-5-2.2c-3.6-0.7-6.5-1.8-8.2-3.2s-2.9-3.2-2.9-5.4
			c0-2.5,1.1-4.7,3.2-6.1c2.2-1.8,4.7-2.5,8.2-2.5c3.6,0,6.1,0.7,8.2,2.5c2.2,1.8,2.9,3.9,2.9,6.5l0,0h-5.4c0-1.4-0.7-2.5-1.8-3.6
			c-1.1-1.1-2.5-1.4-4.3-1.4s-3.2,0.4-4.3,1.4c-1.1,0.7-1.4,1.8-1.4,3.2c0,1.1,0.4,2.2,1.1,2.9c0.7,0.7,2.5,1.4,5,1.8
			c3.9,0.7,6.5,1.8,8.6,3.2c1.8,1.4,2.9,3.2,2.9,5.7c0,2.5-1.1,4.7-3.2,6.5c-2.2,1.8-5,2.5-8.2,2.5c-3.9,0-6.8-1.1-9-2.9
			c-2.2-1.8-3.2-4.3-3.2-6.8l0,0h5.4c0,1.8,0.7,3.2,2.2,4.3c1.4,0.7,2.9,1.4,4.7,1.4s3.6-0.4,4.7-1.1
			C944.4,241.9,945.2,240.8,945.2,239.4z"/>
		<path fill="#AAB8C2" d="M964.5,210.3v7.2h5.7v3.9h-5.7v18.3c0,1.4,0.4,2.5,0.7,2.9c0.7,0.7,1.4,0.7,2.2,0.7c0.4,0,0.7,0,1.1,0
			s0.7,0,1.1-0.4l0.7,3.6c-0.4,0.4-1.1,0.7-1.8,0.7c-0.7,0.4-1.4,0.4-2.5,0.4c-2.2,0-3.9-0.7-5.4-2.2c-1.4-1.4-1.8-3.6-1.8-6.5
			v-18.3h-4.7v-3.9h4.7v-7.2h5.7V210.3z"/>
	</g>
	<g>
		<path d="M301.6,371.6l16.8,43h0.4l16.8-43h9.3v53h-7.2v-20.8l0.7-21.5h-0.4l-17.2,41.9h-4.7L299.1,382h-0.4l0.7,21.5v20.8h-7.2
			v-53h9.3V371.6z"/>
		<path d="M368.6,409.9l1.4,5h0.4l9.7-29.7h7.9l-16.8,45.2c-1.1,2.5-2.5,5-4.3,6.8c-1.8,1.8-4.3,2.9-7.5,2.9c-0.7,0-1.4,0-2.2-0.4
			c-0.7,0-1.4-0.4-2.1-0.4l0.7-5.7c0,0,0.4,0,1.4,0c1.1,0,1.8,0,1.8,0c1.4,0,2.9-0.7,3.6-2.2c1.1-1.4,1.8-2.9,2.5-4.7l1.8-3.9
			l-14.7-37.6h8.2L368.6,409.9z"/>
		<path d="M442.4,411c0-2.5-1.1-4.3-2.9-6.1s-5-2.9-9.7-3.9c-5.7-1.4-10-3.2-13.3-5.7c-3.2-2.5-4.7-5.7-4.7-9.7
			c0-4.3,1.8-7.5,5-10.4s7.9-4.3,13.3-4.3c5.7,0,10.4,1.4,14,4.7c3.6,3.2,5,6.8,5,11.1v0.4h-6.8c0-3.2-1.1-5.7-3.2-7.5
			c-2.1-1.8-5-2.9-9-2.9c-3.6,0-6.5,0.7-8.2,2.5c-1.8,1.4-2.9,3.6-2.9,6.5c0,2.1,1.1,4.3,3.2,5.7s5.4,2.9,10,3.9
			c5.7,1.4,9.7,3.6,12.5,6.1c2.9,2.5,4.3,6.1,4.3,10c0,4.3-1.8,7.5-5.4,10.4c-3.6,2.5-7.9,3.9-13.6,3.9c-5.4,0-10-1.4-14-4.3
			c-3.9-2.9-6.1-6.8-5.7-11.5v-0.4h7.2c0,3.2,1.1,6.1,3.6,7.9c2.5,1.8,5.7,2.5,9.3,2.5c3.6,0,6.5-0.7,8.6-2.2
			C441.3,415.7,442.4,413.5,442.4,411z"/>
		<path d="M457.1,404.2c0-5.7,1.4-10.8,4.7-14.3c3.2-3.9,7.5-5.7,12.9-5.7c5.4,0,9.7,1.8,12.9,5.7c3.2,3.6,4.7,8.6,4.7,14.3v0.7
			c0,5.7-1.4,10.8-4.7,14.3c-3.2,3.6-7.5,5.7-12.9,5.7c-5.4,0-9.7-1.8-12.9-5.7c-3.2-3.6-4.7-8.6-4.7-14.3V404.2z M464.3,405.3
			c0,4.3,0.7,7.5,2.5,10.4c1.8,2.9,4.3,3.9,7.9,3.9c3.6,0,6.1-1.4,7.9-3.9c1.8-2.9,2.5-6.1,2.5-10.4v-0.7c0-3.9-0.7-7.5-2.5-10.4
			c-1.8-2.9-4.3-3.9-7.9-3.9c-3.6,0-6.1,1.4-7.9,3.9c-1.8,2.9-2.5,6.1-2.5,10.4V405.3z"/>
		<path d="M508.7,424.3h-7.2v-56.6h7.2V424.3z"/>
		<path d="M518,405.3c0-6.5,1.4-11.5,3.9-15.4c2.9-3.9,6.5-5.7,11.5-5.7c2.2,0,4.3,0.4,6.1,1.4c1.8,0.7,3.2,2.1,4.7,3.6v-21.5h7.2
			v56.6h-5.7l-0.7-4.7c-1.4,1.8-2.9,3.2-4.7,4.3c-1.8,1.1-3.9,1.4-6.5,1.4c-4.7,0-8.6-1.8-11.1-5.4c-2.9-3.6-3.9-7.9-3.9-13.6v-1.1
			H518z M525.2,406.4c0,3.9,0.7,7.2,2.5,9.7c1.8,2.5,4.3,3.6,7.5,3.6c2.2,0,3.9-0.4,5.4-1.4s2.5-2.2,3.6-3.9V396
			c-1.1-1.8-2.2-2.9-3.6-3.9c-1.4-1.1-3.2-1.4-5.4-1.4c-3.6,0-6.1,1.4-7.5,4.3c-1.8,2.9-2.5,6.5-2.5,11.1V406.4z"/>
		<path d="M569.6,375.2h-7.2V368h7.2V375.2z M569.6,424.3h-7.2v-39.4h7.2V424.3z"/>
		<path d="M597.2,425c-5.4,0-9.7-1.8-12.9-5.4c-3.2-3.6-5-8.2-5-14.3v-1.4c0-5.7,1.8-10.4,5-14c3.2-3.6,7.2-5.7,11.8-5.7
			c5.4,0,9.3,1.4,12.2,4.7c2.9,3.2,3.9,7.5,3.9,12.9v4.3h-25.4v0.4c0,3.9,1.1,6.8,2.9,9.3c1.8,2.5,4.3,3.6,7.9,3.6
			c2.5,0,4.7-0.4,6.5-1.1s3.6-1.8,4.7-2.9l2.9,4.7c-1.4,1.4-3.2,2.5-5.7,3.6C603,424.6,600.4,425,597.2,425z M595.8,389.9
			c-2.5,0-4.3,1.1-6.1,2.9c-1.8,2.1-2.9,4.7-3.2,7.5v0.4h18.3v-1.1c0-2.9-0.7-5-2.2-7.2C601.2,390.9,599,389.9,595.8,389.9z"/>
		<path d="M638.8,391.3l-3.6-0.4c-1.8,0-3.6,0.4-4.7,1.4c-1.4,0.7-2.2,2.1-2.9,3.9v28h-7.2v-39.4h6.5l0.7,5.7
			c1.1-2.1,2.5-3.6,4.3-4.7c1.8-1.1,3.6-1.8,5.7-1.8c0.4,0,1.1,0,1.4,0c0.4,0,0.7,0,1.1,0.4L638.8,391.3z"/>
		<path d="M674.3,409.9l0.7,4.7h0.4l1.1-4.7l7.9-25.1h5.7l7.9,25.1l1.1,5.4h0.4l1.1-5.4l6.1-25.1h7.2l-11.5,39.4h-5.7l-7.5-24
			l-1.8-6.8h-0.4l-1.4,6.8l-7.5,24h-5.7l-11.5-39.4h7.2L674.3,409.9z"/>
		<path d="M728,375.2h-7.2V368h7.2V375.2z M728,424.3h-7.2v-39.4h7.2V424.3z"/>
		<path d="M746.6,424.3h-7.2v-56.6h7.2V424.3z"/>
		<path d="M765.6,424.3h-7.2v-56.6h7.2V424.3z"/>
		<path d="M828.7,406.4c0,5.7-1.4,10.4-3.9,13.6c-2.9,3.6-6.5,5.4-11.1,5.4c-2.5,0-5-0.4-6.8-1.4s-3.6-2.5-4.7-4.3l-0.7,5h-5.7V368
			h7.2v21.9c1.1-1.8,2.9-3.2,4.7-3.9c1.8-1.1,3.9-1.4,6.5-1.4c5,0,8.6,1.8,11.5,5.7c2.9,3.9,3.9,9,3.9,15.4v0.7H828.7z M821.5,405.3
			c0-4.7-0.7-8.2-2.5-11.1c-1.8-2.9-4.3-4.3-7.5-4.3c-2.2,0-3.9,0.4-5.7,1.8c-1.4,1.1-2.9,2.5-3.6,4.3v17.2c1.1,1.8,2.2,3.6,3.6,4.7
			c1.4,1.1,3.2,1.8,5.7,1.8c3.2,0,5.7-1.1,7.5-3.6c1.8-2.5,2.5-5.7,2.5-9.7V405.3z"/>
		<path d="M853.4,425c-5.4,0-9.7-1.8-12.9-5.4c-3.2-3.6-5-8.2-5-14.3v-1.4c0-5.7,1.8-10.4,5-14c3.2-3.6,7.2-5.7,11.8-5.7
			c5.4,0,9.3,1.4,12.2,4.7c2.9,3.2,3.9,7.5,3.9,12.9v4.3H843v0.4c0,3.9,1.1,6.8,2.9,9.3c1.8,2.5,4.3,3.6,7.9,3.6
			c2.5,0,4.7-0.4,6.5-1.1s3.6-1.8,4.7-2.9l2.9,4.7c-1.4,1.4-3.2,2.5-5.7,3.6C859.5,424.6,856.7,425,853.4,425z M852.4,389.9
			c-2.5,0-4.3,1.1-6.1,2.9c-1.8,2.1-2.9,4.7-3.2,7.5v0.4h18.3v-1.1c0-2.9-0.7-5-2.2-7.2C857.7,390.9,855.6,389.9,852.4,389.9z"/>
		<path d="M902.9,424.3h-7.2v-56.6h7.2V424.3z"/>
		<path d="M930.1,425c-5.4,0-9.7-1.8-12.9-5.4c-3.2-3.6-5-8.2-5-14.3v-1.4c0-5.7,1.8-10.4,5-14c3.2-3.6,7.2-5.7,11.8-5.7
			c5.4,0,9.3,1.4,12.2,4.7c2.9,3.2,3.9,7.5,3.9,12.9v4.3h-25.4v0.4c0,3.9,1.1,6.8,2.9,9.3c1.8,2.5,4.3,3.6,7.9,3.6
			c2.5,0,4.7-0.4,6.5-1.1s3.6-1.8,4.7-2.9l2.9,4.7c-1.4,1.4-3.2,2.5-5.7,3.6C936.2,424.6,933.3,425,930.1,425z M929,389.9
			c-2.5,0-4.3,1.1-6.1,2.9c-1.8,2.1-2.9,4.7-3.2,7.5v0.4H938v-1.1c0-2.9-0.7-5-2.2-7.2C934.1,390.9,931.9,389.9,929,389.9z"/>
		<path d="M977.4,424.3c-0.4-1.1-0.4-2.2-0.7-3.2c-0.4-1.1-0.4-1.8-0.4-2.9c-1.4,1.8-3.2,3.6-5.4,4.7c-2.2,1.4-4.3,1.8-6.8,1.8
			c-3.9,0-7.2-1.1-9.3-3.2c-2.2-2.2-3.2-5-3.2-8.6c0-3.6,1.4-6.8,4.7-9c2.9-2.2,7.2-3.2,12.2-3.2h7.9v-3.9c0-2.2-0.7-4.3-2.2-5.4
			c-1.4-1.4-3.2-2.2-6.1-2.2c-2.2,0-4.3,0.7-5.7,1.8s-2.2,2.5-2.2,4.3h-6.8v-0.4c0-2.9,1.1-5.4,3.9-7.9c2.9-2.5,6.5-3.6,11.1-3.6
			c4.3,0,7.9,1.1,10.8,3.2c2.9,2.1,3.9,5.4,3.9,9.7v19c0,1.4,0,2.9,0.4,3.9c0,1.4,0.4,2.5,0.7,3.9h-6.8V424.3z M965.2,419.3
			c2.5,0,5-0.7,7.2-2.1s3.6-2.9,3.9-4.7V406h-7.9c-2.9,0-5,0.7-6.8,2.2s-2.5,3.2-2.5,5c0,1.8,0.7,3.2,1.8,4.3
			C961.6,418.5,963.1,419.3,965.2,419.3z"/>
		<path d="M1006.4,412.8l0.7,2.9h0.4l0.7-2.9l9-27.6h7.2l-14.3,39.4h-5.4L990,385.2h7.2L1006.4,412.8z"/>
		<path d="M1038.7,375.2h-7.2V368h7.2V375.2z M1038.7,424.3h-7.2v-39.4h7.2V424.3z"/>
		<path d="M1055.9,385.2l0.4,5.7c1.4-2.2,2.9-3.6,5-5c2.2-1.1,4.3-1.8,6.8-1.8c4.3,0,7.5,1.1,9.7,3.6c2.2,2.5,3.6,6.5,3.6,11.5v24.7
			h-7.2v-24.4c0-3.6-0.7-6.1-2.2-7.5c-1.4-1.4-3.6-2.1-6.1-2.1c-2.2,0-3.9,0.4-5.4,1.4c-1.4,1.1-2.9,2.5-3.9,3.9v28.7h-7.2v-39.4
			h6.5V385.2z"/>
		<path d="M1090.3,405.3c0-6.5,1.4-11.5,4.3-15.4s6.5-5.7,11.5-5.7c2.5,0,4.7,0.4,6.4,1.4c1.8,1.1,3.6,2.5,4.7,4.3l0.7-5h5.7v39.4
			c0,5-1.4,9-4.3,11.5c-2.9,2.9-7.2,3.9-12.5,3.9c-1.8,0-3.9-0.4-6.1-0.7c-2.1-0.4-3.9-1.1-5.7-2.1l1.8-5.7c1.4,0.7,2.9,1.4,4.7,1.8
			c1.8,0.4,3.6,0.7,5.4,0.7c3.6,0,6.1-0.7,7.5-2.5s2.5-3.9,2.5-7.2v-4.3c-1.4,1.8-2.9,2.9-4.7,3.6c-1.8,0.7-3.9,1.4-6.1,1.4
			c-4.7,0-8.6-1.8-11.5-5.4c-2.9-3.6-4.3-7.9-4.3-13.6L1090.3,405.3L1090.3,405.3z M1097.5,406.4c0,3.9,0.7,7.2,2.5,9.7
			c1.8,2.5,4.3,3.6,7.5,3.6c2.2,0,3.9-0.4,5.4-1.4s2.5-2.5,3.6-4.3V396c-1.1-1.8-2.2-2.9-3.6-3.9s-3.2-1.4-5.4-1.4
			c-3.6,0-6.1,1.4-7.5,4.3c-1.8,2.9-2.5,6.5-2.5,11.1V406.4z"/>
		<path d="M1167.3,400.6h-6.1v24h-7.2v-53h7.2v23.3h5.4l19-23.3h7.9v0.4l-20.4,25.4l21.9,27.2v0.4h-8.6L1167.3,400.6z"/>
		<path d="M1224.7,418.5c-1.1,2.1-2.9,3.6-4.7,5c-1.8,1.4-4.3,1.8-6.8,1.8c-4.3,0-7.5-1.4-10-3.9c-2.5-2.9-3.6-7.2-3.6-12.9v-23.3
			h7.2v23.3c0,4.3,0.7,7.2,1.8,8.6c1.1,1.4,3.2,2.5,5.7,2.5c2.5,0,4.7-0.4,6.4-1.4c1.8-1.1,2.9-2.5,3.6-4.3v-28.7h7.2v39.4h-6.5
			L1224.7,418.5z"/>
		<path d="M1251.9,409.9l0.7,4.7h0.4l1.1-4.7l7.9-25.1h5.7l7.9,25.1l1.1,5.4h0.4l1.1-5.4l6.1-25.1h7.2l-11.5,39.4h-5.7l-7.5-24
			l-1.8-6.8h-0.4l-1.4,6.8l-7.5,24h-5.7l-11.5-39.4h7.2L1251.9,409.9z"/>
		<path d="M1322.1,424.3c-0.4-1.1-0.4-2.2-0.7-3.2c0-1.1-0.4-1.8-0.4-2.9c-1.4,1.8-3.2,3.6-5.4,4.7c-2.2,1.4-4.3,1.8-6.8,1.8
			c-3.9,0-7.2-1.1-9.3-3.2c-2.2-2.2-3.2-5-3.2-8.6c0-3.6,1.4-6.8,4.7-9c2.9-2.2,7.2-3.2,12.2-3.2h7.9v-3.9c0-2.2-0.7-4.3-2.2-5.4
			c-1.4-1.4-3.2-2.2-6.1-2.2c-2.2,0-4.3,0.7-5.7,1.8s-2.2,2.5-2.2,4.3h-6.8v-0.4c0-2.9,1.1-5.4,3.9-7.9c2.9-2.5,6.5-3.6,11.1-3.6
			c4.3,0,7.9,1.1,10.8,3.2c2.9,2.1,3.9,5.4,3.9,9.7v19c0,1.4,0,2.9,0.4,3.9c0,1.4,0.4,2.5,0.7,3.9h-6.8V424.3z M1310.3,419.3
			c2.5,0,5-0.7,7.2-2.1s3.6-2.9,3.9-4.7V406h-7.9c-2.9,0-5,0.7-6.8,2.2s-2.5,3.2-2.5,5c0,1.8,0.7,3.2,1.8,4.3
			C1306.7,418.5,1308.2,419.3,1310.3,419.3z"/>
		<path d="M1346.9,375.2h-7.2V368h7.2V375.2z M1346.9,424.3h-7.2v-39.4h7.2V424.3z"/>
		<path d="M1367.3,375.5v9.3h7.5v5.4h-7.5v24c0,1.8,0.4,3.2,1.1,3.9c0.7,0.7,1.8,1.1,2.9,1.1c0.4,0,0.7,0,1.4,0
			c0.4,0,1.1-0.4,1.4-0.4l1.1,5c-0.4,0.4-1.4,0.7-2.5,1.1c-1.1,0.4-2.2,0.4-3.2,0.4c-2.9,0-5.4-0.7-6.8-2.5
			c-1.8-1.8-2.5-4.7-2.5-8.2v-24h-6.1v-5.4h6.1v-9.3h7.2V375.5z"/>
		<path d="M1426.1,424.3c-0.4-1.1-0.4-2.2-0.7-3.2c0-1.1-0.4-1.8-0.4-2.9c-1.4,1.8-3.2,3.6-5.4,4.7c-2.2,1.4-4.3,1.8-6.8,1.8
			c-3.9,0-7.2-1.1-9.3-3.2c-2.2-2.2-3.2-5-3.2-8.6c0-3.6,1.4-6.8,4.7-9c2.9-2.2,7.2-3.2,12.2-3.2h7.9v-3.9c0-2.2-0.7-4.3-2.2-5.4
			c-1.4-1.4-3.2-2.2-6.1-2.2c-2.2,0-4.3,0.7-5.7,1.8c-1.4,1.1-2.2,2.5-2.2,4.3h-6.8v-0.4c0-2.9,1.1-5.4,3.9-7.9
			c2.9-2.5,6.4-3.6,11.1-3.6c4.3,0,7.9,1.1,10.8,3.2c2.9,2.1,3.9,5.4,3.9,9.7v19c0,1.4,0,2.9,0.4,3.9c0,1.4,0.4,2.5,0.7,3.9h-6.8
			V424.3z M1414.2,419.3c2.5,0,5-0.7,7.2-2.1s3.6-2.9,3.9-4.7V406h-7.9c-2.9,0-5,0.7-6.8,2.2c-1.8,1.4-2.5,3.2-2.5,5
			c0,1.8,0.7,3.2,1.8,4.3C1410.3,418.5,1412.1,419.3,1414.2,419.3z"/>
		<path d="M1449.3,385.2l0.4,5.7c1.4-2.2,2.9-3.6,5-5c2.2-1.1,4.3-1.8,6.8-1.8c4.3,0,7.5,1.1,9.7,3.6s3.6,6.5,3.6,11.5v24.7h-7.2
			v-24.4c0-3.6-0.7-6.1-2.2-7.5c-1.4-1.4-3.6-2.1-6.1-2.1c-2.2,0-3.9,0.4-5.4,1.4c-1.4,1.1-2.9,2.5-3.9,3.9v28.7h-7.2v-39.4h6.5
			V385.2z"/>
		<path d="M1483.4,405.3c0-6.5,1.4-11.5,3.9-15.4c2.9-3.9,6.4-5.7,11.5-5.7c2.2,0,4.3,0.4,6.1,1.4c1.8,0.7,3.2,2.1,4.7,3.6v-21.5
			h7.2v56.6h-6.1l-0.7-4.7c-1.4,1.8-2.9,3.2-4.7,4.3c-1.8,1.1-3.9,1.4-6.4,1.4c-4.7,0-8.6-1.8-11.1-5.4c-2.5-3.6-3.9-7.9-3.9-13.6
			v-1.1H1483.4z M1490.6,406.4c0,3.9,0.7,7.2,2.5,9.7c1.8,2.5,4.3,3.6,7.5,3.6c2.2,0,3.9-0.4,5.4-1.4s2.5-2.2,3.6-3.9V396
			c-1.1-1.8-2.2-2.9-3.6-3.9c-1.4-1.1-3.2-1.4-5.4-1.4c-3.6,0-6.1,1.4-7.5,4.3c-1.8,2.9-2.5,6.5-2.5,11.1V406.4z"/>
		<path d="M298.4,479.5c1.4-1.8,2.9-3.2,5-4.3c1.8-1.1,4.3-1.4,6.5-1.4c4.3,0,7.5,1.4,9.7,3.9c2.5,2.5,3.6,6.5,3.6,11.5v24.7h-7.2
			v-24.7c0-3.2-0.7-5.7-2.1-7.2c-1.4-1.4-3.6-2.2-6.1-2.2c-2.2,0-3.9,0.4-5.4,1.4c-1.8,1.1-2.9,2.2-3.9,3.9v29h-7.2v-57.3h7.2
			C298.4,456.9,298.4,479.5,298.4,479.5z"/>
		<path d="M349.6,514.2c-5.4,0-9.7-1.8-12.9-5.4c-3.2-3.6-5-8.2-5-14.3v-1.4c0-5.7,1.8-10.4,5-14c3.2-3.6,7.2-5.7,11.8-5.7
			c5.4,0,9.3,1.4,12.2,4.7s3.9,7.5,3.9,12.9v4.3h-25.4v0.4c0,3.9,1.1,6.8,2.9,9.3c1.8,2.5,4.3,3.6,7.9,3.6c2.5,0,4.7-0.4,6.5-1.1
			c1.8-0.7,3.6-1.8,4.7-2.9l2.9,4.7c-1.4,1.4-3.2,2.5-5.7,3.6C355.7,513.9,353.2,514.2,349.6,514.2z M348.5,479.1
			c-2.5,0-4.3,1.1-6.1,2.9c-1.8,2.2-2.9,4.7-3.2,7.5v0.4h18.3v-0.7c0-2.9-0.7-5-2.2-7.2C353.9,480.2,351.8,479.1,348.5,479.1z"/>
		<path d="M396.9,513.5c-0.4-1.1-0.4-2.2-0.7-3.2c0-1.1-0.4-1.8-0.4-2.9c-1.4,1.8-3.2,3.6-5.4,4.7c-2.1,1.4-4.3,1.8-6.8,1.8
			c-3.9,0-7.2-1.1-9.3-3.2c-2.2-2.2-3.2-5-3.2-8.6c0-3.6,1.4-6.8,4.7-9c2.9-2.2,7.2-3.2,12.2-3.2h8.2v-3.9c0-2.2-0.7-3.9-2.1-5.4
			c-1.4-1.4-3.2-2.2-6.1-2.2c-2.2,0-4.3,0.7-5.7,1.8c-1.4,1.1-2.2,2.5-2.2,4.3h-6.8v-0.4c0-2.9,1.1-5.4,3.9-7.9
			c2.9-2.5,6.5-3.6,11.1-3.6c4.3,0,7.9,1.1,10.8,3.2c2.9,2.2,3.9,5.4,3.9,9.7v19c0,1.4,0,2.9,0.4,3.9c0,1.4,0.4,2.5,0.7,3.9h-7.2
			V513.5z M385.1,508.5c2.5,0,5-0.7,7.2-2.2c2.2-1.4,3.6-2.9,3.9-4.7v-6.5h-7.9c-2.9,0-5,0.7-6.8,2.2c-1.8,1.4-2.5,3.2-2.5,5
			c0,1.8,0.7,3.2,1.8,4.3C381.1,507.8,382.9,508.5,385.1,508.5z"/>
		<path d="M412,494.5c0-6.5,1.4-11.5,3.9-15.4c2.9-3.9,6.5-5.7,11.5-5.7c2.1,0,4.3,0.4,6.1,1.4c1.8,0.7,3.2,2.2,4.7,3.6v-21.5h7.2
			v56.6h-5.7l-0.7-4.7c-1.4,1.8-2.9,3.2-4.7,4.3s-3.9,1.4-6.5,1.4c-4.7,0-8.6-1.8-11.1-5.4c-2.9-3.6-3.9-7.9-3.9-13.6v-1.1H412z
			 M419.1,495.6c0,3.9,0.7,7.2,2.5,9.7s4.3,3.6,7.5,3.6c2.2,0,3.9-0.4,5.4-1.4c1.4-1.1,2.5-2.2,3.6-3.9v-18.3
			c-1.1-1.8-2.1-2.9-3.6-3.9s-3.2-1.4-5.4-1.4c-3.6,0-6.1,1.4-7.5,4.3c-1.8,2.9-2.5,6.5-2.5,11.1L419.1,495.6L419.1,495.6z"/>
		<path d="M463.6,464.4h-7.2v-7.2h7.2V464.4z M463.6,513.5h-7.2v-39.4h7.2V513.5z"/>
		<path d="M481.1,474.4l0.4,5.7c1.4-2.2,2.9-3.6,5-5c2.1-1.1,4.3-1.8,6.8-1.8c4.3,0,7.5,1.1,9.7,3.6c2.2,2.5,3.6,6.5,3.6,11.5v24.7
			h-7.2v-24.7c0-3.6-0.7-6.1-2.2-7.5c-1.4-1.4-3.6-2.2-6.1-2.2c-2.1,0-3.9,0.4-5.4,1.4c-1.4,1.1-2.9,2.5-3.9,3.9v28.7h-7.2v-39.4
			h6.5V474.4z"/>
		<path d="M515.5,494.5c0-6.5,1.4-11.5,4.3-15.4c2.9-3.9,6.5-5.7,11.5-5.7c2.5,0,4.7,0.4,6.5,1.4c1.8,1.1,3.6,2.5,4.7,4.3l0.7-5h5.7
			v39.4c0,5-1.4,9-4.3,11.5c-2.9,2.9-7.2,3.9-12.5,3.9c-1.8,0-3.9-0.4-6.1-0.7c-2.1-0.4-3.9-1.1-5.7-2.2l1.8-5.7
			c1.4,0.7,2.9,1.4,4.7,1.8c1.8,0.4,3.6,0.7,5.4,0.7c3.6,0,6.1-0.7,7.5-2.5c1.4-1.4,2.5-3.9,2.5-7.2v-4.3c-1.4,1.8-2.9,2.9-4.7,3.6
			c-1.8,0.7-3.9,1.1-6.1,1.1c-4.7,0-8.6-1.8-11.5-5.4C517,504.5,515.5,500.2,515.5,494.5L515.5,494.5L515.5,494.5z M522.7,495.6
			c0,3.9,0.7,7.2,2.5,9.7s4.3,3.6,7.5,3.6c2.1,0,3.9-0.4,5.4-1.4c1.4-1.1,2.5-2.5,3.6-4.3v-17.9c-1.1-1.8-2.2-2.9-3.6-3.9
			s-3.2-1.4-5.4-1.4c-3.6,0-6.1,1.4-7.5,4.3s-2.5,6.5-2.5,11.1V495.6z"/>
		<path d="M587.2,464.8v9.3h7.5v5.4h-7.5v24c0,1.8,0.4,3.2,1.1,3.9c0.7,0.7,1.8,1.1,2.9,1.1c0.4,0,0.7,0,1.4,0
			c0.4,0,1.1-0.4,1.4-0.4l1.1,5c-0.4,0.4-1.4,0.7-2.5,1.1c-1.1,0.4-2.2,0.4-3.2,0.4c-2.9,0-5.4-0.7-6.8-2.5
			c-1.8-1.8-2.5-4.7-2.5-8.2v-24h-6.1v-5.4h6.1v-9.3h7.2V464.8z"/>
		<path d="M601.5,493.4c0-5.7,1.4-10.8,4.7-14.3c3.2-3.9,7.5-5.7,12.9-5.7s9.7,1.8,12.9,5.7c3.2,3.6,4.7,8.6,4.7,14.3v0.7
			c0,5.7-1.4,10.8-4.7,14.3s-7.5,5.7-12.9,5.7s-9.7-1.8-12.9-5.7c-3.2-3.6-4.7-8.6-4.7-14.3V493.4z M608.7,494.5
			c0,4.3,0.7,7.5,2.5,10.4c1.8,2.9,4.3,3.9,7.9,3.9c3.6,0,6.1-1.4,7.9-3.9c1.8-2.9,2.5-6.1,2.5-10.4v-0.7c0-3.9-0.7-7.5-2.5-10.4
			c-1.8-2.9-4.3-3.9-7.9-3.9c-3.6,0-6.1,1.4-7.9,3.9s-2.5,6.1-2.5,10.4V494.5z"/>
		<path d="M694,499.9h-21.9l-5,13.6h-7.2l20.4-53h6.1l20.1,53h-7.2L694,499.9z M674.3,493.8h17.9l-8.6-24h-0.7L674.3,493.8z"/>
		<path d="M715.1,513.5v-34H709v-5.4h6.1v-5c0-4.3,1.1-7.5,3.2-9.7c2.2-2.2,5.4-3.6,9.3-3.6c0.7,0,1.8,0,2.5,0.4
			c0.7,0,1.8,0.4,2.9,0.7l-0.7,5.4c-0.4,0-1.1-0.4-1.4-0.4c-0.7,0-1.4,0-1.8,0c-2.2,0-3.6,0.7-4.7,1.8s-1.4,3.2-1.4,5.4v5h8.2v5.4
			h-9v34H715.1z"/>
		<path d="M735.5,494.5c0-6.5,1.4-11.5,4.3-15.4c2.9-3.9,6.5-5.7,11.5-5.7c2.5,0,4.7,0.4,6.5,1.4c1.8,1.1,3.6,2.5,4.7,4.3l0.7-5h5.7
			v39.4c0,5-1.4,9-4.3,11.5c-2.9,2.9-7.2,3.9-12.5,3.9c-1.8,0-3.9-0.4-6.1-0.7c-2.2-0.4-3.9-1.1-5.7-2.2l1.8-5.7
			c1.4,0.7,2.9,1.4,4.7,1.8c1.8,0.4,3.6,0.7,5.4,0.7c3.6,0,6.1-0.7,7.5-2.5c1.4-1.4,2.5-3.9,2.5-7.2v-4.3c-1.4,1.8-2.9,2.9-4.7,3.6
			c-1.8,0.7-3.9,1.1-6.1,1.1c-4.7,0-8.6-1.8-11.5-5.4C737,504.5,735.5,500.2,735.5,494.5L735.5,494.5L735.5,494.5z M742.7,495.6
			c0,3.9,0.7,7.2,2.5,9.7c1.8,2.5,4.3,3.6,7.5,3.6c2.2,0,3.9-0.4,5.4-1.4c1.4-1.1,2.5-2.5,3.6-4.3v-17.9c-1.1-1.8-2.2-2.9-3.6-3.9
			s-3.2-1.4-5.4-1.4c-3.6,0-6.1,1.4-7.5,4.3c-1.8,2.9-2.5,6.5-2.5,11.1V495.6z"/>
		<path d="M786.4,479.5c1.4-1.8,2.9-3.2,5-4.3c1.8-1.1,4.3-1.4,6.5-1.4c4.3,0,7.5,1.4,9.7,3.9c2.5,2.5,3.6,6.5,3.6,11.5v24.7H804
			v-24.7c0-3.2-0.7-5.7-2.2-7.2s-3.6-2.2-6.1-2.2c-2.2,0-3.9,0.4-5.4,1.4c-1.8,1.1-2.9,2.2-3.9,3.9v29h-7.2v-57.3h7.2L786.4,479.5
			L786.4,479.5z"/>
		<path d="M845.5,513.5c-0.4-1.1-0.4-2.2-0.7-3.2c0-1.1-0.4-1.8-0.4-2.9c-1.4,1.8-3.2,3.6-5.4,4.7c-2.2,1.4-4.3,1.8-6.8,1.8
			c-3.9,0-7.2-1.1-9.3-3.2c-2.2-2.2-3.2-5-3.2-8.6c0-3.6,1.4-6.8,4.7-9c2.9-2.2,7.2-3.2,12.2-3.2h7.9v-3.9c0-2.2-0.7-3.9-2.2-5.4
			c-1.4-1.4-3.2-2.2-6.1-2.2c-2.2,0-4.3,0.7-5.7,1.8c-1.4,1.1-2.2,2.5-2.2,4.3h-6.8v-0.4c0-2.9,1.1-5.4,3.9-7.9
			c2.9-2.5,6.5-3.6,11.1-3.6c4.3,0,7.9,1.1,10.8,3.2c2.9,2.2,3.9,5.4,3.9,9.7v19c0,1.4,0,2.9,0.4,3.9c0,1.4,0.4,2.5,0.7,3.9h-6.8
			V513.5z M833.7,508.5c2.5,0,5-0.7,7.2-2.2c2.2-1.4,3.6-2.9,3.9-4.7v-6.5h-7.9c-2.9,0-5,0.7-6.8,2.2c-1.8,1.4-2.5,3.2-2.5,5
			c0,1.8,0.7,3.2,1.8,4.3C830.1,507.8,831.6,508.5,833.7,508.5z"/>
		<path d="M868.8,474.4l0.4,5.7c1.4-2.2,2.9-3.6,5-5c2.2-1.1,4.3-1.8,6.8-1.8c4.3,0,7.5,1.1,9.7,3.6c2.2,2.5,3.6,6.5,3.6,11.5v24.7
			h-7.2v-24.7c0-3.6-0.7-6.1-2.2-7.5c-1.4-1.4-3.6-2.2-6.1-2.2c-2.2,0-3.9,0.4-5.4,1.4c-1.4,1.1-2.9,2.5-3.9,3.9v28.7h-7.2v-39.4
			h6.5V474.4z"/>
		<path d="M912.6,464.4h-7.2v-7.2h7.2V464.4z M912.6,513.5h-7.2v-39.4h7.2V513.5z"/>
		<path d="M946.2,503.1c0-1.4-0.7-2.9-1.8-3.9c-1.1-1.1-3.6-1.8-6.8-2.5c-4.7-1.1-8.2-2.5-10.8-4.3c-2.5-1.8-3.6-4.3-3.6-7.2
			c0-3.2,1.4-5.7,3.9-8.2c2.9-2.2,6.1-3.2,10.8-3.2s8.2,1.1,10.8,3.6c2.9,2.5,3.9,5.4,3.9,8.6v0.4h-6.8c0-1.8-0.7-3.2-2.2-4.7
			c-1.4-1.4-3.2-2.2-5.7-2.2c-2.5,0-4.3,0.7-5.7,1.8c-1.1,1.1-1.8,2.5-1.8,3.9c0,1.4,0.7,2.9,1.8,3.6c1.1,0.7,3.2,1.8,6.8,2.5
			c5,1.1,8.6,2.5,11.1,4.3c2.5,1.8,3.6,4.3,3.6,7.5c0,3.6-1.4,6.5-4.3,8.6s-6.5,3.2-11.1,3.2c-5,0-9-1.4-11.8-3.9
			c-2.9-2.5-4.3-5.4-3.9-9v-0.4h6.8c0,2.5,1.1,4.3,2.9,5.4s3.9,1.8,6.1,1.8c2.5,0,4.7-0.4,6.1-1.4
			C945.5,506,946.2,504.9,946.2,503.1z"/>
		<path d="M971.7,464.8v9.3h7.5v5.4h-7.5v24c0,1.8,0.4,3.2,1.1,3.9c0.7,0.7,1.8,1.1,2.9,1.1c0.4,0,0.7,0,1.4,0
			c0.4,0,1.1-0.4,1.4-0.4l1.1,5c-0.4,0.4-1.4,0.7-2.5,1.1s-2.2,0.4-3.2,0.4c-2.9,0-5.4-0.7-6.8-2.5c-1.8-1.8-2.5-4.7-2.5-8.2v-24
			h-6.1v-5.4h6.1v-9.3h7.2V464.8z"/>
		<path d="M1012.2,513.5c-0.4-1.1-0.4-2.2-0.7-3.2c0-1.1-0.4-1.8-0.4-2.9c-1.4,1.8-3.2,3.6-5.4,4.7c-2.2,1.4-4.3,1.8-6.8,1.8
			c-3.9,0-7.2-1.1-9.3-3.2c-2.2-2.2-3.2-5-3.2-8.6c0-3.6,1.4-6.8,4.7-9c2.9-2.2,7.2-3.2,12.2-3.2h7.9v-3.9c0-2.2-0.7-3.9-2.2-5.4
			s-3.2-2.2-6.1-2.2c-2.2,0-4.3,0.7-5.7,1.8c-1.4,1.1-2.2,2.5-2.2,4.3h-6.8v-0.4c0-2.9,1.1-5.4,3.9-7.9c2.9-2.5,6.5-3.6,11.1-3.6
			c4.3,0,7.9,1.1,10.8,3.2c2.9,2.2,3.9,5.4,3.9,9.7v19c0,1.4,0,2.9,0.4,3.9c0,1.4,0.4,2.5,0.7,3.9h-6.8V513.5z M1000.3,508.5
			c2.5,0,5-0.7,7.2-2.2s3.6-2.9,3.9-4.7v-6.5h-7.9c-2.9,0-5,0.7-6.8,2.2c-1.8,1.4-2.5,3.2-2.5,5c0,1.8,0.7,3.2,1.8,4.3
			C996.4,507.8,998.2,508.5,1000.3,508.5z"/>
		<path d="M1035.5,474.4l0.4,5.7c1.4-2.2,2.9-3.6,5-5c2.2-1.1,4.3-1.8,6.8-1.8c4.3,0,7.5,1.1,9.7,3.6c2.2,2.5,3.6,6.5,3.6,11.5v24.7
			h-7.2v-24.7c0-3.6-0.7-6.1-2.2-7.5c-1.4-1.4-3.6-2.2-6.1-2.2c-2.2,0-3.9,0.4-5.4,1.4c-1.4,1.1-2.9,2.5-3.9,3.9v28.7h-7.2v-39.4
			h6.5V474.4z"/>
		<path d="M1097.5,464.4h-7.2v-7.2h7.2V464.4z M1097.5,513.5h-7.2v-39.4h7.2V513.5z"/>
		<path d="M1114.7,474.4l0.4,5.7c1.4-2.2,2.9-3.6,5-5c2.2-1.1,4.3-1.8,6.8-1.8c4.3,0,7.5,1.1,9.7,3.6c2.2,2.5,3.6,6.5,3.6,11.5v24.7
			h-7.2v-24.7c0-3.6-0.7-6.1-2.2-7.5c-1.4-1.4-3.6-2.2-6.1-2.2c-2.2,0-3.9,0.4-5.4,1.4c-1.4,1.1-2.9,2.5-3.9,3.9v28.7h-7.2v-39.4
			h6.5V474.4z"/>
		<path d="M1193.1,513.5c-0.4-1.1-0.4-2.2-0.7-3.2c0-1.1-0.4-1.8-0.4-2.9c-1.4,1.8-3.2,3.6-5.4,4.7c-2.2,1.4-4.3,1.8-6.8,1.8
			c-3.9,0-7.2-1.1-9.3-3.2c-2.2-2.2-3.2-5-3.2-8.6c0-3.6,1.4-6.8,4.7-9c2.9-2.2,7.2-3.2,12.2-3.2h7.9v-3.9c0-2.2-0.7-3.9-2.2-5.4
			s-3.2-2.2-6.1-2.2c-2.2,0-4.3,0.7-5.7,1.8c-1.4,1.1-2.2,2.5-2.2,4.3h-6.8v-0.4c0-2.9,1.1-5.4,3.9-7.9c2.9-2.5,6.4-3.6,11.1-3.6
			c4.3,0,7.9,1.1,10.8,3.2c2.9,2.2,3.9,5.4,3.9,9.7v19c0,1.4,0,2.9,0.4,3.9c0,1.4,0.4,2.5,0.7,3.9h-6.8V513.5z M1181.3,508.5
			c2.5,0,5-0.7,7.2-2.2s3.6-2.9,3.9-4.7v-6.5h-7.9c-2.9,0-5,0.7-6.8,2.2c-1.8,1.4-2.5,3.2-2.5,5c0,1.8,0.7,3.2,1.8,4.3
			C1177.7,507.8,1179.2,508.5,1181.3,508.5z"/>
		<path d="M1226.8,494.5c0-6.5,1.4-11.5,3.9-15.4c2.9-3.9,6.5-5.7,11.5-5.7c2.2,0,4.3,0.4,6.1,1.4c1.8,0.7,3.2,2.2,4.7,3.6v-21.5
			h7.2v56.6h-5.7l-0.7-4.7c-1.4,1.8-2.9,3.2-4.7,4.3c-1.8,1.1-3.9,1.4-6.4,1.4c-4.7,0-8.6-1.8-11.1-5.4c-2.9-3.6-3.9-7.9-3.9-13.6
			v-1.1H1226.8z M1234,495.6c0,3.9,0.7,7.2,2.5,9.7c1.8,2.5,4.3,3.6,7.5,3.6c2.2,0,3.9-0.4,5.4-1.4c1.4-1.1,2.5-2.2,3.6-3.9v-18.3
			c-1.1-1.8-2.2-2.9-3.6-3.9s-3.2-1.4-5.4-1.4c-3.6,0-6.1,1.4-7.5,4.3c-1.8,2.9-2.5,6.5-2.5,11.1V495.6z"/>
		<path d="M1294.9,513.5c-0.4-1.1-0.4-2.2-0.7-3.2c0-1.1-0.4-1.8-0.4-2.9c-1.4,1.8-3.2,3.6-5.4,4.7c-2.2,1.4-4.3,1.8-6.8,1.8
			c-3.9,0-7.2-1.1-9.3-3.2c-2.2-2.2-3.2-5-3.2-8.6c0-3.6,1.4-6.8,4.7-9c2.9-2.2,7.2-3.2,12.2-3.2h7.9v-3.9c0-2.2-0.7-3.9-2.2-5.4
			c-1.4-1.4-3.2-2.2-6.1-2.2c-2.2,0-4.3,0.7-5.7,1.8c-1.4,1.1-2.2,2.5-2.2,4.3h-6.8v-0.4c0-2.9,1.1-5.4,3.9-7.9
			c2.9-2.5,6.4-3.6,11.1-3.6c4.3,0,7.9,1.1,10.8,3.2c2.9,2.2,3.9,5.4,3.9,9.7v19c0,1.4,0,2.9,0.4,3.9c0,1.4,0.4,2.5,0.7,3.9h-6.8
			V513.5z M1283.1,508.5c2.5,0,5-0.7,7.2-2.2c2.2-1.4,3.6-2.9,3.9-4.7v-6.5h-7.9c-2.9,0-5,0.7-6.8,2.2c-1.8,1.4-2.5,3.2-2.5,5
			c0,1.8,0.7,3.2,1.8,4.3C1279.1,507.8,1280.9,508.5,1283.1,508.5z"/>
		<path d="M1323.2,499.2l1.4,5h0.4l9.7-29.7h7.9l-16.5,45.2c-1.1,2.5-2.5,5-4.3,6.8c-1.8,1.8-4.3,2.9-7.5,2.9c-0.7,0-1.4,0-2.2-0.4
			c-0.7,0-1.4-0.4-2.2-0.4l0.7-5.7c0,0,0.4,0,1.4,0s1.8,0,1.8,0c1.4,0,2.9-0.7,3.6-2.2c0.7-1.4,1.8-2.9,2.5-4.7l1.8-3.9l-14.7-38.3
			h7.9L1323.2,499.2z"/>
		<path d="M1350.4,513.5h-7.2V506h7.2V513.5z"/>
	</g>
	<g>
		<g>
			<path fill="#AAB8C2" d="M780.7,1113.4h-20.8v-2.9l10.8-11.8c1.8-2.2,3.2-3.9,3.9-5s1.1-2.5,1.1-3.9c0-1.8-0.4-2.9-1.4-3.9
				c-1.1-1.1-2.2-1.8-3.6-1.8c-2.2,0-3.9,0.7-5,1.8c-1.1,1.1-1.4,2.9-1.4,4.7h-4.3l0,0c0-2.9,0.7-5,2.9-7.2c1.8-1.8,4.7-2.9,7.9-2.9
				c2.9,0,5.4,0.7,6.8,2.5c1.8,1.8,2.5,3.9,2.5,6.5c0,1.8-0.4,3.6-1.4,5.4c-1.1,1.8-2.5,3.6-4.3,5.7l-8.6,9.3l0,0H781v3.6H780.7z"/>
			<path fill="#AAB8C2" d="M802.5,1102.6h4.3v3.6h-4.3v7.5h-4.3v-7.5h-14.7v-2.5l14.3-22.6h4.7V1102.6z M788.6,1102.6h9.7v-15.1l0,0
				l-0.4,1.1L788.6,1102.6z"/>
			<path fill="#AAB8C2" d="M831.6,1113.4h-20.8v-2.9l10.8-11.8c1.8-2.2,3.2-3.9,3.9-5s1.1-2.5,1.1-3.9c0-1.8-0.4-2.9-1.4-3.9
				c-1.1-1.1-2.2-1.8-3.6-1.8c-2.2,0-3.9,0.7-5,1.8c-1.1,1.1-1.4,2.9-1.4,4.7h-4.3l0,0c0-2.9,0.7-5,2.9-7.2c1.8-1.8,4.7-2.9,7.9-2.9
				c2.9,0,5.4,0.7,6.8,2.5c1.8,1.8,2.5,3.9,2.5,6.5c0,1.8-0.4,3.6-1.4,5.4c-1.1,1.8-2.5,3.6-4.3,5.7l-8.6,9.3l0,0h15.4v3.6H831.6z"
				/>
		</g>
		<g>
			<path fill="#AAB8C2" d="M1097.5,1113.4h-20.8v-2.9l10.8-11.8c1.8-2.2,3.2-3.9,3.9-5s1.1-2.5,1.1-3.9c0-1.8-0.4-2.9-1.4-3.9
				c-1.1-1.1-2.2-1.8-3.6-1.8c-2.2,0-3.9,0.7-5,1.8s-1.4,2.9-1.4,4.7h-4.3l0,0c0-2.9,0.7-5,2.9-7.2c1.8-1.8,4.7-2.9,7.9-2.9
				c2.9,0,5.4,0.7,6.8,2.5c1.8,1.8,2.5,3.9,2.5,6.5c0,1.8-0.4,3.6-1.4,5.4c-1.1,1.8-2.5,3.6-4.3,5.7l-8.6,9.3l0,0h15.4v3.6H1097.5z"
				/>
			<path fill="#AAB8C2" d="M1119.7,1102.6h4.3v3.6h-4.3v7.5h-4.3v-7.5h-14.7v-2.5l14.3-22.6h4.7L1119.7,1102.6L1119.7,1102.6z
				 M1105.3,1102.6h9.7v-15.1l0,0l-0.4,1.1L1105.3,1102.6z"/>
			<path fill="#AAB8C2" d="M1148.7,1113.4h-20.8v-2.9l10.8-11.8c1.8-2.2,3.2-3.9,3.9-5s1.1-2.5,1.1-3.9c0-1.8-0.4-2.9-1.4-3.9
				c-1.1-1.1-2.2-1.8-3.6-1.8c-2.2,0-3.9,0.7-5,1.8s-1.4,2.9-1.4,4.7h-4.3l0,0c0-2.9,0.7-5,2.9-7.2c1.8-1.8,4.7-2.9,7.9-2.9
				c2.9,0,5.4,0.7,6.8,2.5c1.8,1.8,2.5,3.9,2.5,6.5c0,1.8-0.4,3.6-1.4,5.4c-1.1,1.8-2.5,3.6-4.3,5.7l-8.6,9.3l0,0h15.4v3.6H1148.7z"
				/>
		</g>
		<circle fill="#AAB8C2" cx="1302.4" cy="1100.8" r="11.5"/>
		<circle fill="#AAB8C2" cx="1331.4" cy="1100.8" r="11.5"/>
		<circle fill="#AAB8C2" cx="1360.5" cy="1100.8" r="11.5"/>
		<path fill="#AAB8C2" d="M996.8,1123c0,0-29.4-20.8-29.4-43.4c0,0,0-13.3,14.7-13.3c14.7,0,14.7,9.3,14.7,9.3s6.1-9.3,17.6-9.3
			s12.5,7.2,12.9,11.8C1027.9,1082.9,1029.4,1098.3,996.8,1123z"/>
		<g>
			<polygon fill="#AAB8C2" points="627,1103 666.4,1103 646.7,1076.1 			"/>
			<rect x="638.4" y="1100.5" fill="#AAB8C2" width="16.1" height="26.2"/>
			<rect x="644.2" y="1113.4" fill="#AAB8C2" width="34.8" height="13.3"/>
		</g>
		<g>
			<polygon fill="#AAB8C2" points="716.9,1099.7 677.8,1099.7 697.2,1126.6 			"/>
			<rect x="689.7" y="1076.1" fill="#AAB8C2" width="16.1" height="26.2"/>
			<rect x="665.3" y="1076.1" fill="#AAB8C2" width="34.8" height="13.3"/>
		</g>
		<g>
			<polygon fill="#AAB8C2" points="340.7,1073.6 340.7,1123 307,1098.3 			"/>
			<path fill="#AAB8C2" d="M362.2,1123h14.3c0,0,2.2-20.8-11.8-28.3c-14-7.9-29-5-29-5v13.3c0,0,13.6-1.8,20.4,3.2
				C362.9,1111.2,362.2,1123,362.2,1123z"/>
		</g>
	</g>
	<g>
		<g>
			<circle fill="#FFFFFF" cx="386.9" cy="187.4" r="70.6"/>
			<circle fill="none" stroke="#23A9E1" stroke-miterlimit="10" cx="386.9" cy="187.4" r="70.6"/>
		</g>
		<g>
			<path fill="#23A9E1" d="M385.8,127.9c-33,0-59.5,26.9-59.5,59.5s26.9,59.8,59.5,59.8s59.8-26.9,59.8-59.5
				S418.8,127.9,385.8,127.9z M385.8,130.1c31.9,0,57.7,25.8,57.7,57.7c0,14.7-5.7,28.3-14.7,38.3l-24.4-9.3c0,0-4.7-2.2-5-6.8
				c0-0.4-0.4-0.7-1.1-0.7h-2.5c1.8-2.2,4.3-5.4,4.3-6.8s0.4-3.9,0.4-4.7c0-0.4,0.4-0.4,0.7-0.4s0.7,0,1.1,0
				c0.4-0.4,5.4-5.4,3.9-12.5c0-0.4-0.4-0.7-0.7-1.1c-0.4-0.4-1.1-0.4-1.8-0.4c0-1.1,0.4-2.5,1.1-4.7c1.4-3.6,1.8-9.7,0-11.8
				c-0.4-0.4-0.7-1.1-1.4-1.8c-1.4-1.8-3.6-4.3-6.5-6.1c-3.9-2.9-7.9-3.9-14.3-3.9c-6.1,0-7.5,1.4-9.3,3.2c-1.4,0.7-7.5,4.7-8.2,8.2
				s2.2,14.3,2.9,16.5c0,0.4-0.4,0.7-0.4,0.7c-1.4,0-2.2,0.7-2.5,2.5c-0.4,1.8-0.4,4.3,0,5.7c0.4,1.4,1.8,5.4,4.7,6.8
				c0.4,0,0.7,0.7,0.7,1.1c0,2.5,0,4.3,0.7,5c0.4,0.7,2.9,3.9,3.9,5.7h-2.2c-0.4,0-0.4,0-0.7,0.4c0,0.4-0.4,0.4-0.4,0.7
				c0,0.7,0,3.2-1.4,3.9c-1.4,0.7-18.3,7.5-27.6,11.1c-8.6-10-14-23.3-14-37.6C328.1,155.9,354.3,130.1,385.8,130.1z M385.8,245.5
				c-16.8,0-31.9-7.2-42.3-18.6c5.4-2.2,25.4-10,27.2-10.8c1.8-1.1,2.1-3.2,2.1-4.7h3.2c0.4,0,0.7-0.4,0.7-0.4c0-0.4,0-0.7,0-1.1
				l-0.4-0.7c-0.4-0.4-3.9-5.7-4.3-6.5c0-0.4-0.4-1.1-0.4-3.9c0-1.8-1.4-2.5-1.8-2.9l0,0c-1.8-0.7-3.2-3.6-3.6-5
				c-0.4-1.4-0.4-3.9,0-5c0.4-0.7,0.4-0.7,1.1-1.1c1.8-0.4,2.2-2.2,2.2-2.5V182c-1.1-3.6-3.6-12.9-2.9-15.8c0.7-2.5,5.7-6.1,7.5-7.2
				c0,0,0.4,0,0.4-0.4l0,0c1.4-1.4,2.2-2.9,7.9-2.9c6.1,0,9.7,1.1,13.3,3.6c2.9,2.2,4.7,4.3,6.1,6.1c0.7,0.7,1.1,1.4,1.4,1.8
				c1.1,1.1,1.1,6.1-0.4,10c-1.4,3.9-1.1,6.5-1.1,6.5c0,0.4,0,0.7,0.4,0.7c0.4,0,0.4,0.4,0.7,0c1.1-0.4,1.4,0,1.4,0l0,0
				c1.1,5.4-1.8,9.3-2.9,10.4c-1.1,0-1.8,0.7-2.5,1.4v0.4c0,0-0.4,3.2-0.4,5c0,0.7-2.5,3.9-5.4,7.2c-0.4,0.4-0.4,0.7-0.4,1.1
				c0,0.4,0.4,0.7,0.7,0.7h3.9c1.1,5.4,5.7,7.5,6.1,7.5l23.7,9.3C417,238.7,402.3,245.5,385.8,245.5z"/>
		</g>
	</g>
</g>
</svg>
