<?xml version="1.0" encoding="utf-8"?>
<!-- Generator: Adobe Illustrator 18.0.0, SVG Export Plug-In . SVG Version: 6.00 Build 0)  -->
<!DOCTYPE svg PUBLIC "-//W3C//DTD SVG 1.1//EN" "http://www.w3.org/Graphics/SVG/1.1/DTD/svg11.dtd">
<svg version="1.1" id="Layer_1" xmlns="http://www.w3.org/2000/svg" xmlns:xlink="http://www.w3.org/1999/xlink" x="0px" y="0px"
	 viewBox="0 0 419.6 329.3" enable-background="new 0 0 419.6 329.3" xml:space="preserve">
<g>
	<path fill="#FFFFFF" d="M3,329.1c-1.5,0-2.8-1.2-2.8-2.8V3c0-1.5,1.2-2.8,2.8-2.8h413.6c1.5,0,2.8,1.2,2.8,2.8v323.3
		c0,1.5-1.2,2.8-2.8,2.8H3z"/>
	<path fill="#D2D2D2" d="M416.6,0.5c1.4,0,2.5,1.1,2.5,2.5v323.3c0,1.4-1.1,2.5-2.5,2.5H3c-1.4,0-2.5-1.1-2.5-2.5V3
		c0-1.4,1.1-2.5,2.5-2.5H416.6 M416.6,0H3C1.4,0,0,1.4,0,3v323.3c0,1.7,1.3,3,3,3h413.6c1.7,0,3-1.3,3-3V3
		C419.6,1.4,418.3,0,416.6,0L416.6,0z"/>
</g>
<path fill="#AAB8C2" d="M31.6,171.7h-1.2v-7.9l-1.9,0V163l3.1-0.3V171.7z"/>
<path fill="#AAB8C2" d="M41.7,171.7h-5.9v-0.8l3-3.3c0.5-0.6,0.9-1.1,1.1-1.4c0.2-0.3,0.3-0.7,0.3-1.1c0-0.5-0.1-0.8-0.4-1.1
	c-0.3-0.3-0.6-0.5-1-0.5c-0.6,0-1.1,0.2-1.4,0.5c-0.3,0.3-0.4,0.8-0.4,1.4h-1.2l0,0c0-0.8,0.2-1.4,0.8-2c0.5-0.5,1.3-0.8,2.2-0.8
	c0.8,0,1.5,0.2,1.9,0.7c0.5,0.5,0.7,1.1,0.7,1.8c0,0.5-0.1,1-0.4,1.5c-0.3,0.5-0.7,1-1.2,1.6l-2.4,2.6l0,0h4.3V171.7z"/>
<path fill="#AAB8C2" d="M45.1,166.3h-1.2V165h1.2V166.3z M45.1,171.7h-1.2v-1.3h1.2V171.7z"/>
<path fill="#AAB8C2" d="M52.4,168.7h1.2v1h-1.2v2.1h-1.2v-2.1h-4.1V169l4-6.3h1.3V168.7z M48.4,168.7h2.8v-4.2l0,0l-0.1,0.3
	L48.4,168.7z"/>
<path fill="#AAB8C2" d="M56.9,166.6H58c0.5,0,0.9-0.1,1.2-0.4c0.2-0.3,0.3-0.6,0.3-1.1c0-0.5-0.1-0.9-0.4-1.2
	c-0.3-0.3-0.6-0.4-1.1-0.4c-0.5,0-0.9,0.1-1.1,0.4c-0.3,0.3-0.4,0.7-0.4,1.1h-1.2l0,0c0-0.7,0.2-1.3,0.7-1.7c0.5-0.5,1.2-0.7,2-0.7
	c0.8,0,1.5,0.2,2,0.7c0.5,0.4,0.7,1.1,0.7,1.9c0,0.4-0.1,0.7-0.3,1.1s-0.6,0.7-1,0.8c0.5,0.2,0.9,0.5,1.2,0.8
	c0.2,0.4,0.3,0.8,0.3,1.3c0,0.8-0.3,1.5-0.8,1.9c-0.5,0.5-1.2,0.7-2.1,0.7c-0.8,0-1.5-0.2-2-0.7c-0.5-0.4-0.8-1-0.8-1.8l0,0h1.2
	c0,0.5,0.1,0.9,0.4,1.1c0.3,0.3,0.7,0.4,1.2,0.4c0.5,0,0.9-0.1,1.2-0.4c0.3-0.3,0.4-0.7,0.4-1.2c0-0.6-0.1-1-0.4-1.2
	c-0.3-0.3-0.7-0.4-1.2-0.4h-1.1V166.6z"/>
<path fill="#AAB8C2" d="M68.4,168.1v3.6h-1.2v-9h3.5c1,0,1.7,0.2,2.2,0.7c0.5,0.5,0.8,1.2,0.8,2c0,0.8-0.3,1.5-0.8,2
	c-0.5,0.5-1.3,0.7-2.2,0.7H68.4z M68.4,167.1h2.2c0.6,0,1.1-0.2,1.4-0.5c0.3-0.3,0.5-0.7,0.5-1.2c0-0.5-0.2-0.9-0.5-1.3
	c-0.3-0.3-0.8-0.5-1.4-0.5h-2.2V167.1z"/>
<path fill="#AAB8C2" d="M77.5,162.7l2.9,7.4h0l2.9-7.4h1.6v9h-1.2v-3.6l0.1-3.7l0,0l-2.9,7.3H80l-2.9-7.2l0,0l0.1,3.7v3.6H76v-9
	H77.5z"/>
<path fill="#AAB8C2" d="M93.7,168.4h-3v-1h3V168.4z"/>
<path fill="#AAB8C2" d="M104.9,171.7H99v-0.8l3-3.3c0.5-0.6,0.9-1.1,1.1-1.4c0.2-0.3,0.3-0.7,0.3-1.1c0-0.5-0.1-0.8-0.4-1.1
	c-0.3-0.3-0.6-0.5-1-0.5c-0.6,0-1.1,0.2-1.4,0.5c-0.3,0.3-0.4,0.8-0.4,1.4h-1.2l0,0c0-0.8,0.2-1.4,0.8-2c0.5-0.5,1.3-0.8,2.2-0.8
	c0.8,0,1.5,0.2,1.9,0.7c0.5,0.5,0.7,1.1,0.7,1.8c0,0.5-0.1,1-0.4,1.5c-0.3,0.5-0.7,1-1.2,1.6l-2.4,2.6l0,0h4.3V171.7z"/>
<path fill="#AAB8C2" d="M112.5,168.3c0,1.2-0.3,2-0.8,2.7c-0.5,0.6-1.2,0.9-2.1,0.9c-0.9,0-1.6-0.3-2.1-0.9
	c-0.5-0.6-0.8-1.5-0.8-2.7v-2.1c0-1.2,0.3-2,0.8-2.7c0.5-0.6,1.2-0.9,2.1-0.9c0.9,0,1.6,0.3,2.1,0.9c0.5,0.6,0.8,1.5,0.8,2.7V168.3z
	 M111.3,165.9c0-0.8-0.1-1.4-0.4-1.8c-0.3-0.4-0.7-0.6-1.2-0.6c-0.5,0-0.9,0.2-1.2,0.6s-0.4,1-0.4,1.8v2.7c0,0.8,0.1,1.4,0.4,1.8
	c0.3,0.4,0.7,0.6,1.2,0.6c0.5,0,0.9-0.2,1.2-0.6c0.3-0.4,0.4-1,0.4-1.8V165.9z"/>
<path fill="#AAB8C2" d="M120.3,162.7l2.9,7.4h0l2.9-7.4h1.6v9h-1.2v-3.6l0.1-3.7l0,0l-2.9,7.3h-0.8l-2.9-7.2l0,0l0.1,3.7v3.6h-1.2
	v-9H120.3z"/>
<path fill="#AAB8C2" d="M134.4,171.7c0-0.2-0.1-0.4-0.1-0.5c0-0.2,0-0.3,0-0.5c-0.2,0.3-0.5,0.6-0.9,0.8c-0.4,0.2-0.8,0.3-1.2,0.3
	c-0.7,0-1.2-0.2-1.6-0.5c-0.4-0.4-0.6-0.9-0.6-1.5c0-0.6,0.3-1.1,0.8-1.5c0.5-0.4,1.2-0.5,2.1-0.5h1.3v-0.7c0-0.4-0.1-0.7-0.4-0.9
	c-0.2-0.2-0.6-0.3-1-0.3c-0.4,0-0.7,0.1-1,0.3c-0.2,0.2-0.4,0.4-0.4,0.7h-1.2l0,0c0-0.5,0.2-0.9,0.7-1.3c0.5-0.4,1.1-0.6,1.9-0.6
	c0.8,0,1.4,0.2,1.8,0.6c0.5,0.4,0.7,0.9,0.7,1.7v3.2c0,0.2,0,0.5,0,0.7c0,0.2,0.1,0.4,0.1,0.7H134.4z M132.4,170.8
	c0.4,0,0.8-0.1,1.2-0.3c0.4-0.2,0.6-0.5,0.7-0.8v-1.1h-1.4c-0.5,0-0.9,0.1-1.2,0.4c-0.3,0.2-0.4,0.5-0.4,0.9c0,0.3,0.1,0.5,0.3,0.7
	C131.7,170.7,132,170.8,132.4,170.8z"/>
<path fill="#AAB8C2" d="M141.1,166.1l-0.6,0c-0.3,0-0.6,0.1-0.8,0.2c-0.2,0.2-0.4,0.4-0.5,0.6v4.8h-1.2V165h1.1l0.1,1
	c0.2-0.3,0.4-0.6,0.7-0.8c0.3-0.2,0.6-0.3,1-0.3c0.1,0,0.2,0,0.3,0c0.1,0,0.2,0,0.2,0L141.1,166.1z"/>
<path fill="#AAB8C2" d="M152.3,171.7h-5.9v-0.8l3-3.3c0.5-0.6,0.9-1.1,1.1-1.4c0.2-0.3,0.3-0.7,0.3-1.1c0-0.5-0.1-0.8-0.4-1.1
	c-0.3-0.3-0.6-0.5-1-0.5c-0.6,0-1.1,0.2-1.4,0.5c-0.3,0.3-0.4,0.8-0.4,1.4h-1.2l0,0c0-0.8,0.2-1.4,0.8-2c0.5-0.5,1.3-0.8,2.2-0.8
	c0.8,0,1.5,0.2,1.9,0.7c0.5,0.5,0.7,1.1,0.7,1.8c0,0.5-0.1,1-0.4,1.5c-0.3,0.5-0.7,1-1.2,1.6l-2.4,2.6l0,0h4.3V171.7z"/>
<path fill="#AAB8C2" d="M160,168.3c0,1.2-0.3,2-0.8,2.7c-0.5,0.6-1.2,0.9-2.1,0.9c-0.9,0-1.6-0.3-2.1-0.9c-0.5-0.6-0.8-1.5-0.8-2.7
	v-2.1c0-1.2,0.3-2,0.8-2.7c0.5-0.6,1.2-0.9,2.1-0.9c0.9,0,1.6,0.3,2.1,0.9c0.5,0.6,0.8,1.5,0.8,2.7V168.3z M158.8,165.9
	c0-0.8-0.1-1.4-0.4-1.8c-0.3-0.4-0.7-0.6-1.2-0.6s-0.9,0.2-1.2,0.6c-0.3,0.4-0.4,1-0.4,1.8v2.7c0,0.8,0.1,1.4,0.4,1.8
	c0.3,0.4,0.7,0.6,1.2,0.6s0.9-0.2,1.2-0.6c0.3-0.4,0.4-1,0.4-1.8V165.9z"/>
<path fill="#AAB8C2" d="M165.5,171.7h-1.2v-7.9l-1.9,0V163l3.1-0.3V171.7z"/>
<path fill="#AAB8C2" d="M175.7,163.6c-1.1,1.3-1.8,2.5-2.2,3.5c-0.4,1-0.7,2.2-0.8,3.7l-0.1,1h-1.2l0.1-1c0.2-1.4,0.5-2.7,1-3.8
	c0.5-1.1,1.2-2.2,2.1-3.3h-4.9v-1h6.1V163.6z"/>
<path fill="#23A9E1" d="M75.4,79.3H28.7c-2.2,0-4-1.8-4-4V28.9c0-2.2,1.8-4,4-4h46.8c2.2,0,4,1.8,4,4v46.4
	C79.4,77.5,77.6,79.3,75.4,79.3z"/>
<path fill="#23A9E1" d="M388.5,279.1H31.1c-3.3,0-6-2.7-6-6v-77.5c0-3.3,2.7-6,6-6h357.5c3.3,0,6,2.7,6,6v77.5
	C394.5,276.4,391.8,279.1,388.5,279.1z"/>
<path d="M101.6,44.6c0-0.6-0.2-1-0.5-1.3c-0.4-0.3-1-0.6-2-1c-2-0.6-3.4-1.3-4.4-2c-1-0.7-1.4-1.7-1.4-3.1c0-1.3,0.6-2.4,1.7-3.2
	c1.1-0.8,2.6-1.2,4.3-1.2c1.7,0,3.2,0.4,4.3,1.3c1.1,0.9,1.6,2,1.6,3.4l0,0.1h-3.5c0-0.6-0.2-1.1-0.6-1.5c-0.4-0.4-1-0.6-1.8-0.6
	c-0.7,0-1.3,0.2-1.7,0.5c-0.4,0.3-0.6,0.7-0.6,1.2c0,0.5,0.2,0.8,0.6,1.1c0.4,0.3,1.2,0.6,2.4,1c1.8,0.5,3.1,1.2,4,2
	c0.9,0.8,1.3,1.8,1.3,3.2c0,1.4-0.5,2.4-1.6,3.2c-1.1,0.8-2.5,1.2-4.3,1.2c-1.8,0-3.3-0.4-4.6-1.3c-1.3-0.9-1.9-2.2-1.9-3.8l0-0.1
	h3.5c0,0.9,0.2,1.5,0.7,1.9c0.5,0.4,1.2,0.6,2.2,0.6c0.8,0,1.3-0.2,1.7-0.5S101.6,45.1,101.6,44.6z"/>
<path d="M113.7,48.8c-0.1-0.2-0.2-0.4-0.3-0.6c-0.1-0.2-0.2-0.5-0.2-0.7c-0.3,0.5-0.8,0.9-1.2,1.1c-0.5,0.3-1.1,0.4-1.8,0.4
	c-1.1,0-2-0.3-2.7-1c-0.7-0.6-1-1.5-1-2.5c0-1.2,0.4-2,1.3-2.7c0.9-0.6,2.2-0.9,3.9-0.9h1.3v-0.8c0-0.5-0.1-0.9-0.3-1.1
	c-0.2-0.3-0.6-0.4-1.1-0.4c-0.4,0-0.7,0.1-0.9,0.3c-0.2,0.2-0.3,0.5-0.3,0.9l-3.5,0l0-0.1c0-1.1,0.4-1.9,1.3-2.7
	c0.9-0.7,2.2-1.1,3.7-1.1c1.4,0,2.6,0.4,3.5,1.1c0.9,0.7,1.3,1.7,1.3,3.1v4.4c0,0.6,0.1,1.2,0.2,1.7c0.1,0.5,0.3,1.1,0.5,1.6
	L113.7,48.8z M111.3,46.4c0.4,0,0.7-0.1,1-0.2c0.3-0.1,0.5-0.3,0.7-0.6v-1.8h-1.3c-0.6,0-1,0.1-1.2,0.4c-0.3,0.3-0.4,0.6-0.4,1.1
	c0,0.3,0.1,0.6,0.3,0.8C110.6,46.3,110.9,46.4,111.3,46.4z"/>
<path d="M119.4,48.8v-9.1h-1.7v-2.5h1.7V36c0-1.3,0.4-2.4,1.2-3.1c0.8-0.7,1.9-1.1,3.4-1.1c0.3,0,0.6,0,0.8,0.1c0.3,0,0.6,0.1,1,0.2
	l-0.3,2.7c-0.2,0-0.4-0.1-0.5-0.1c-0.2,0-0.3,0-0.6,0c-0.5,0-0.8,0.1-1,0.4c-0.2,0.2-0.4,0.6-0.4,1v1.2h2.3v2.5h-2.3v9.1H119.4z"/>
<path d="M131.7,49c-1.7,0-3.1-0.5-4.1-1.6c-1-1.1-1.5-2.4-1.5-4V43c0-1.8,0.5-3.2,1.4-4.3c0.9-1.1,2.3-1.7,4-1.7
	c1.6,0,2.8,0.5,3.7,1.4c0.9,0.9,1.3,2.2,1.3,3.8v1.9h-6.6l0,0.1c0.1,0.6,0.3,1.1,0.7,1.5c0.4,0.4,1,0.6,1.6,0.6
	c0.7,0,1.2-0.1,1.6-0.2c0.4-0.1,0.9-0.3,1.6-0.6l0.9,2.2c-0.5,0.4-1.2,0.7-2,0.9C133.5,48.9,132.6,49,131.7,49z M131.4,39.8
	c-0.5,0-0.9,0.2-1.2,0.6c-0.3,0.4-0.4,0.9-0.5,1.5l0,0.1h3.1v-0.3c0-0.6-0.1-1-0.4-1.4C132.3,39.9,132,39.8,131.4,39.8z"/>
<path d="M144.6,40.4l-1.3,0c-0.4,0-0.8,0.1-1,0.2c-0.3,0.1-0.5,0.3-0.6,0.6v7.6H138V37.2h3.4l0.1,1.7c0.2-0.6,0.6-1.1,1-1.4
	c0.4-0.3,0.9-0.5,1.4-0.5c0.2,0,0.3,0,0.5,0c0.2,0,0.3,0.1,0.5,0.1L144.6,40.4z"/>
<path d="M150,43.4v5.4h-3.6V33.2h6.3c1.9,0,3.3,0.5,4.4,1.4c1.1,0.9,1.6,2.2,1.6,3.7c0,1.5-0.5,2.8-1.6,3.7
	c-1.1,0.9-2.6,1.4-4.4,1.4H150z M150,40.6h2.7c0.8,0,1.4-0.2,1.8-0.6c0.4-0.4,0.6-1,0.6-1.7c0-0.7-0.2-1.3-0.6-1.7
	c-0.4-0.4-1-0.7-1.8-0.7H150V40.6z"/>
<path d="M160,42.9c0-1.7,0.5-3.2,1.5-4.3c1-1.1,2.4-1.6,4.1-1.6c1.8,0,3.2,0.5,4.1,1.6c1,1.1,1.5,2.5,1.5,4.3v0.2
	c0,1.8-0.5,3.2-1.5,4.3c-1,1.1-2.4,1.6-4.1,1.6c-1.8,0-3.2-0.5-4.2-1.6s-1.5-2.5-1.5-4.3V42.9z M163.6,43.1c0,1,0.2,1.7,0.5,2.3
	c0.3,0.6,0.8,0.8,1.6,0.8c0.7,0,1.2-0.3,1.5-0.8s0.5-1.3,0.5-2.3v-0.2c0-0.9-0.2-1.7-0.5-2.3c-0.3-0.6-0.8-0.9-1.5-0.9
	c-0.7,0-1.2,0.3-1.5,0.9c-0.3,0.6-0.5,1.3-0.5,2.3V43.1z"/>
<path d="M178.9,45.5c0-0.3-0.2-0.5-0.5-0.8c-0.3-0.2-0.9-0.4-1.8-0.6c-1.4-0.3-2.4-0.7-3.1-1.2c-0.7-0.6-1-1.3-1-2.3
	c0-1,0.4-1.9,1.3-2.6c0.9-0.7,2-1.1,3.5-1.1c1.5,0,2.8,0.3,3.7,1c0.9,0.7,1.4,1.6,1.3,2.7l0,0.1h-3.5c0-0.5-0.1-0.8-0.3-1
	c-0.2-0.2-0.6-0.4-1.1-0.4c-0.4,0-0.7,0.1-1,0.3c-0.3,0.2-0.4,0.5-0.4,0.8c0,0.3,0.1,0.6,0.4,0.8c0.3,0.2,0.9,0.4,1.8,0.6
	c1.4,0.3,2.5,0.7,3.2,1.3s1,1.3,1,2.4c0,1-0.5,1.9-1.4,2.6c-0.9,0.7-2.2,1-3.7,1c-1.6,0-2.8-0.4-3.8-1.2c-0.9-0.8-1.4-1.7-1.3-2.7
	l0-0.1h3.3c0,0.6,0.2,0.9,0.5,1.2c0.3,0.2,0.8,0.4,1.4,0.4c0.5,0,0.9-0.1,1.1-0.3C178.8,46.2,178.9,45.9,178.9,45.5z"/>
<path d="M188.4,34.3v2.9h2v2.5h-2V45c0,0.4,0.1,0.7,0.3,0.9c0.2,0.2,0.4,0.3,0.7,0.3c0.2,0,0.4,0,0.5,0c0.1,0,0.3,0,0.5-0.1l0.3,2.7
	c-0.4,0.1-0.8,0.2-1.1,0.2c-0.3,0-0.7,0.1-1.1,0.1c-1.2,0-2.1-0.3-2.7-1c-0.6-0.6-0.9-1.6-0.9-3v-5.3h-1.6v-2.5h1.6v-2.9H188.4z"/>
<path fill="#AAB8C2" d="M105.5,64.9c0,1.1-0.4,2.1-0.9,2.9c-0.6,0.8-1.4,1.2-2.6,1.2c-0.4,0-0.7-0.1-1-0.3c-0.3-0.2-0.5-0.5-0.6-0.9
	c-0.3,0.4-0.6,0.7-0.9,0.9c-0.4,0.2-0.8,0.3-1.3,0.3c-0.6,0-1.1-0.3-1.5-0.9c-0.4-0.6-0.5-1.4-0.4-2.4c0.1-1.3,0.5-2.4,1.1-3.2
	c0.6-0.8,1.3-1.2,2.2-1.2c0.5,0,1,0.1,1.3,0.2c0.3,0.1,0.7,0.3,1.1,0.6l0,0h0l-0.4,4.5c0,0.6,0,1,0.2,1.2c0.2,0.2,0.4,0.3,0.6,0.3
	c0.6,0,1.1-0.3,1.5-0.9c0.4-0.6,0.6-1.3,0.6-2.2c0.1-2-0.3-3.5-1.1-4.6c-0.8-1.1-2.1-1.6-3.8-1.6c-1.6,0-2.9,0.6-3.8,1.8
	c-1,1.2-1.5,2.7-1.6,4.7c-0.1,1.9,0.3,3.5,1.2,4.6c0.9,1.1,2.1,1.7,3.7,1.7c0.5,0,0.9-0.1,1.4-0.2c0.5-0.1,0.9-0.3,1.2-0.4l0.3,0.8
	c-0.3,0.2-0.8,0.4-1.3,0.5c-0.5,0.1-1.1,0.2-1.6,0.2c-2,0-3.5-0.6-4.5-1.9c-1.1-1.3-1.6-3-1.5-5.3c0.1-2.2,0.7-4,1.9-5.3
	c1.2-1.4,2.7-2.1,4.7-2.1c2,0,3.5,0.6,4.5,1.9C105.1,61,105.5,62.7,105.5,64.9z M97.6,65.6c-0.1,0.7,0,1.3,0.2,1.7
	c0.2,0.4,0.4,0.6,0.8,0.6c0.3,0,0.6-0.1,0.9-0.2c0.3-0.1,0.5-0.4,0.8-0.7c0-0.1,0-0.1,0-0.2c0-0.1,0-0.1,0-0.2l0.4-4.2
	c-0.1-0.1-0.3-0.1-0.4-0.1s-0.3-0.1-0.5-0.1c-0.6,0-1.1,0.3-1.5,0.8C98,63.6,97.7,64.5,97.6,65.6z"/>
<path fill="#AAB8C2" d="M113.8,66c0-0.5-0.2-0.9-0.6-1.3c-0.4-0.3-1.1-0.6-2.1-0.9c-1.2-0.3-2.1-0.7-2.8-1.3c-0.7-0.6-1-1.2-1-2.1
	c0-0.9,0.4-1.6,1.1-2.2c0.7-0.6,1.7-0.9,2.8-0.9c1.2,0,2.2,0.3,2.9,1c0.7,0.7,1.1,1.5,1.1,2.4l0,0h-1.5c0-0.7-0.2-1.2-0.7-1.6
	c-0.4-0.4-1.1-0.6-1.9-0.6c-0.8,0-1.3,0.2-1.7,0.5c-0.4,0.3-0.6,0.8-0.6,1.3c0,0.5,0.2,0.9,0.7,1.2c0.4,0.3,1.2,0.6,2.1,0.9
	c1.2,0.3,2.1,0.7,2.7,1.3c0.6,0.6,0.9,1.3,0.9,2.1c0,0.9-0.4,1.6-1.1,2.2c-0.7,0.6-1.7,0.8-2.9,0.8c-1.1,0-2.1-0.3-3-0.9
	c-0.9-0.6-1.3-1.4-1.3-2.4l0,0h1.5c0,0.7,0.3,1.3,0.8,1.6c0.5,0.4,1.2,0.6,2,0.6c0.8,0,1.4-0.2,1.8-0.5
	C113.5,67,113.8,66.5,113.8,66z"/>
<path fill="#AAB8C2" d="M122.4,68.8c-0.1-0.3-0.1-0.5-0.1-0.7c0-0.2,0-0.4-0.1-0.6c-0.3,0.4-0.7,0.7-1.1,1c-0.5,0.3-0.9,0.4-1.5,0.4
	c-0.9,0-1.5-0.2-2-0.7c-0.5-0.4-0.7-1.1-0.7-1.8c0-0.8,0.3-1.4,1-1.9c0.6-0.5,1.5-0.7,2.6-0.7h1.7v-0.8c0-0.5-0.1-0.9-0.4-1.2
	c-0.3-0.3-0.7-0.4-1.3-0.4c-0.5,0-0.9,0.1-1.2,0.4c-0.3,0.2-0.5,0.6-0.5,0.9h-1.5l0,0c0-0.6,0.3-1.2,0.9-1.7
	c0.6-0.5,1.4-0.8,2.3-0.8c0.9,0,1.7,0.2,2.3,0.7c0.6,0.5,0.9,1.2,0.9,2.1v4c0,0.3,0,0.6,0,0.9c0,0.3,0.1,0.6,0.2,0.8H122.4z
	 M119.8,67.7c0.6,0,1-0.1,1.5-0.4c0.4-0.3,0.7-0.6,0.9-1V65h-1.7c-0.6,0-1.1,0.2-1.5,0.5c-0.4,0.3-0.6,0.7-0.6,1.1
	c0,0.4,0.1,0.7,0.3,0.9C119,67.6,119.4,67.7,119.8,67.7z"/>
<path fill="#AAB8C2" d="M126.6,68.8v-7.2h-1.3v-1.1h1.3v-1.1c0-0.9,0.2-1.6,0.7-2.1c0.5-0.5,1.1-0.7,2-0.7c0.2,0,0.4,0,0.5,0
	c0.2,0,0.4,0.1,0.6,0.1l-0.2,1.2c-0.1,0-0.2,0-0.3-0.1c-0.1,0-0.3,0-0.4,0c-0.4,0-0.8,0.1-1,0.4c-0.2,0.3-0.3,0.7-0.3,1.2v1.1h1.7
	v1.1h-1.7v7.2H126.6z"/>
<path fill="#AAB8C2" d="M134.7,69c-1.2,0-2.1-0.4-2.8-1.2c-0.7-0.8-1-1.8-1-3v-0.3c0-1.2,0.4-2.2,1.1-3c0.7-0.8,1.5-1.2,2.5-1.2
	c1.1,0,2,0.3,2.6,1c0.6,0.7,0.9,1.6,0.9,2.7v1h-5.4l0,0c0,0.8,0.2,1.5,0.6,2s0.9,0.8,1.6,0.8c0.5,0,1-0.1,1.4-0.2
	c0.4-0.1,0.7-0.3,1-0.6l0.6,1c-0.3,0.3-0.7,0.5-1.2,0.7C136,68.9,135.4,69,134.7,69z M134.5,61.5c-0.5,0-0.9,0.2-1.3,0.6
	c-0.4,0.4-0.6,1-0.7,1.6l0,0h3.9v-0.2c0-0.6-0.2-1.1-0.5-1.5C135.6,61.7,135.1,61.5,134.5,61.5z"/>
<path fill="#AAB8C2" d="M143.6,61.8l-0.8,0c-0.4,0-0.7,0.1-1,0.3c-0.3,0.2-0.5,0.5-0.6,0.8v6h-1.5v-8.4h1.4l0.1,1.2
	c0.2-0.4,0.5-0.8,0.9-1c0.3-0.2,0.7-0.4,1.2-0.4c0.1,0,0.2,0,0.3,0c0.1,0,0.2,0,0.3,0.1L143.6,61.8z"/>
<path fill="#AAB8C2" d="M146.9,64.3v4.5h-1.5V57.6h4.3c1.2,0,2.1,0.3,2.8,0.9c0.7,0.6,1,1.4,1,2.4c0,1-0.3,1.8-1,2.5
	c-0.7,0.6-1.6,0.9-2.8,0.9H146.9z M146.9,63.1h2.8c0.8,0,1.3-0.2,1.7-0.6c0.4-0.4,0.6-0.9,0.6-1.5c0-0.6-0.2-1.1-0.6-1.6
	c-0.4-0.4-0.9-0.6-1.7-0.6h-2.8V63.1z"/>
<path fill="#AAB8C2" d="M154.7,64.6c0-1.2,0.3-2.3,1-3.1c0.7-0.8,1.6-1.2,2.7-1.2c1.2,0,2.1,0.4,2.8,1.2c0.7,0.8,1,1.8,1,3.1v0.2
	c0,1.2-0.3,2.3-1,3.1c-0.7,0.8-1.6,1.2-2.7,1.2s-2.1-0.4-2.7-1.2c-0.7-0.8-1-1.8-1-3.1V64.6z M156.3,64.7c0,0.9,0.2,1.6,0.6,2.2
	c0.4,0.6,0.9,0.9,1.7,0.9c0.7,0,1.3-0.3,1.7-0.9c0.4-0.6,0.6-1.3,0.6-2.2v-0.2c0-0.9-0.2-1.6-0.6-2.2c-0.4-0.6-0.9-0.9-1.7-0.9
	c-0.7,0-1.3,0.3-1.7,0.9c-0.4,0.6-0.6,1.3-0.6,2.2V64.7z"/>
<path fill="#AAB8C2" d="M169,66.6c0-0.3-0.1-0.6-0.4-0.8c-0.3-0.2-0.7-0.4-1.5-0.6c-1-0.2-1.8-0.5-2.3-0.9c-0.5-0.4-0.8-0.9-0.8-1.6
	c0-0.7,0.3-1.3,0.9-1.7c0.6-0.5,1.3-0.7,2.3-0.7c1,0,1.8,0.2,2.3,0.8c0.6,0.5,0.8,1.1,0.8,1.8l0,0h-1.5c0-0.4-0.2-0.7-0.5-1
	c-0.3-0.3-0.7-0.4-1.2-0.4c-0.5,0-0.9,0.1-1.2,0.4c-0.3,0.2-0.4,0.5-0.4,0.9c0,0.3,0.1,0.6,0.3,0.8c0.2,0.2,0.7,0.4,1.4,0.5
	c1.1,0.2,1.8,0.5,2.4,0.9c0.5,0.4,0.8,0.9,0.8,1.6c0,0.7-0.3,1.3-0.9,1.8c-0.6,0.5-1.4,0.7-2.4,0.7c-1.1,0-1.9-0.3-2.5-0.8
	c-0.6-0.5-0.9-1.2-0.9-1.9l0,0h1.5c0,0.5,0.2,0.9,0.6,1.2c0.4,0.2,0.8,0.4,1.3,0.4c0.5,0,1-0.1,1.3-0.3C168.8,67.2,169,67,169,66.6z
	"/>
<path fill="#AAB8C2" d="M174.4,58.4v2h1.6v1.1h-1.6v5.1c0,0.4,0.1,0.7,0.2,0.8c0.2,0.2,0.4,0.2,0.6,0.2c0.1,0,0.2,0,0.3,0
	c0.1,0,0.2,0,0.3-0.1l0.2,1c-0.1,0.1-0.3,0.2-0.5,0.2c-0.2,0.1-0.4,0.1-0.7,0.1c-0.6,0-1.1-0.2-1.5-0.6c-0.4-0.4-0.5-1-0.5-1.8v-5.1
	h-1.3v-1.1h1.3v-2H174.4z"/>
<path d="M28.2,103.6l4.7,12H33l4.7-12h2.6v14.8h-2v-5.9l0.2-6l-0.1,0l-4.8,11.9h-1.3l-4.8-11.9l-0.1,0l0.2,6v5.9h-2v-14.8H28.2z"/>
<path d="M46.9,114.3l0.4,1.4h0.1l2.7-8.3h2.2l-4.6,12.7c-0.3,0.7-0.7,1.4-1.2,1.9c-0.5,0.5-1.2,0.8-2.1,0.8c-0.2,0-0.4,0-0.6-0.1
	s-0.4-0.1-0.6-0.1l0.2-1.6c0,0,0.1,0,0.4,0c0.3,0,0.5,0,0.5,0c0.4,0,0.8-0.2,1-0.6c0.3-0.4,0.5-0.8,0.7-1.3l0.5-1.1l-4.1-10.8h2.2
	L46.9,114.3z"/>
<path d="M67.7,114.7c0-0.7-0.3-1.2-0.8-1.7c-0.5-0.5-1.4-0.8-2.7-1.1c-1.6-0.4-2.8-0.9-3.7-1.7c-0.9-0.7-1.3-1.6-1.3-2.7
	c0-1.2,0.5-2.1,1.4-2.9c0.9-0.8,2.2-1.2,3.7-1.2c1.6,0,2.9,0.4,3.9,1.3c1,0.9,1.4,1.9,1.4,3.1l0,0.1h-1.9c0-0.9-0.3-1.6-0.9-2.1
	c-0.6-0.5-1.4-0.8-2.5-0.8c-1,0-1.8,0.2-2.3,0.7c-0.5,0.5-0.8,1-0.8,1.8c0,0.6,0.3,1.2,0.9,1.6c0.6,0.4,1.5,0.8,2.8,1.1
	c1.6,0.4,2.7,1,3.6,1.7c0.8,0.8,1.2,1.7,1.2,2.8c0,1.2-0.5,2.2-1.5,2.9c-1,0.7-2.3,1.1-3.8,1.1c-1.5,0-2.8-0.4-3.9-1.2
	c-1.1-0.8-1.7-1.9-1.7-3.2l0-0.1h1.9c0,0.9,0.3,1.7,1,2.2c0.7,0.5,1.6,0.7,2.6,0.7c1,0,1.8-0.2,2.4-0.6
	C67.4,116,67.7,115.4,67.7,114.7z"/>
<path d="M71.7,112.8c0-1.6,0.4-3,1.3-4s2.1-1.6,3.6-1.6c1.5,0,2.7,0.5,3.6,1.6c0.9,1.1,1.3,2.4,1.3,4v0.2c0,1.6-0.4,3-1.3,4
	c-0.9,1-2.1,1.6-3.6,1.6s-2.7-0.5-3.6-1.6c-0.9-1-1.3-2.4-1.3-4V112.8z M73.7,113c0,1.2,0.2,2.1,0.7,2.9s1.2,1.1,2.2,1.1
	c1,0,1.7-0.4,2.2-1.1c0.5-0.8,0.7-1.7,0.7-2.9v-0.2c0-1.2-0.2-2.1-0.7-2.9c-0.5-0.8-1.2-1.1-2.2-1.1c-1,0-1.7,0.4-2.2,1.1
	c-0.5,0.8-0.7,1.7-0.7,2.9V113z"/>
<path d="M86.2,118.4h-2v-15.9h2V118.4z"/>
<path d="M88.8,113.1c0-1.8,0.4-3.2,1.1-4.3c0.8-1.1,1.8-1.6,3.2-1.6c0.6,0,1.2,0.1,1.7,0.4c0.5,0.2,0.9,0.6,1.3,1v-6.1h2v15.9h-1.6
	l-0.2-1.4c-0.4,0.5-0.8,0.9-1.3,1.2c-0.5,0.3-1.1,0.4-1.8,0.4c-1.3,0-2.4-0.5-3.2-1.5c-0.8-1-1.1-2.3-1.1-3.8V113.1z M90.8,113.3
	c0,1.1,0.2,2,0.7,2.7c0.5,0.7,1.2,1,2.1,1c0.6,0,1.1-0.1,1.5-0.4s0.7-0.7,1-1.1v-5.1c-0.3-0.5-0.6-0.8-1-1.1
	c-0.4-0.3-0.9-0.4-1.5-0.4c-1,0-1.7,0.4-2.1,1.2c-0.5,0.8-0.7,1.8-0.7,3.1V113.3z"/>
<path d="M103.3,104.6h-2v-2h2V104.6z M103.3,118.4h-2v-11h2V118.4z"/>
<path d="M110.9,118.6c-1.5,0-2.8-0.5-3.7-1.5c-0.9-1-1.4-2.3-1.4-4v-0.4c0-1.6,0.5-2.9,1.4-3.9c0.9-1,2-1.6,3.3-1.6
	c1.5,0,2.6,0.4,3.4,1.3c0.8,0.9,1.1,2.1,1.1,3.6v1.3H108l0,0.1c0,1.1,0.3,1.9,0.8,2.6c0.5,0.7,1.2,1,2.2,1c0.7,0,1.3-0.1,1.8-0.3
	c0.5-0.2,1-0.5,1.3-0.8l0.8,1.3c-0.4,0.4-0.9,0.7-1.6,1C112.6,118.5,111.9,118.6,110.9,118.6z M110.6,108.7c-0.7,0-1.2,0.3-1.7,0.8
	c-0.5,0.6-0.8,1.3-0.9,2.1l0,0.1h5.1v-0.3c0-0.8-0.2-1.4-0.6-2C112.1,109,111.5,108.7,110.6,108.7z"/>
<path d="M122.6,109.1l-1-0.1c-0.5,0-1,0.1-1.3,0.4c-0.4,0.3-0.6,0.6-0.8,1.1v7.9h-2v-11h1.8l0.2,1.6c0.3-0.6,0.7-1,1.2-1.3
	c0.5-0.3,1-0.5,1.6-0.5c0.1,0,0.3,0,0.4,0s0.2,0,0.3,0.1L122.6,109.1z"/>
<path d="M129.2,113.1c0-1.8,0.4-3.2,1.1-4.3c0.8-1.1,1.8-1.6,3.2-1.6c0.6,0,1.2,0.1,1.7,0.4c0.5,0.2,0.9,0.6,1.3,1v-6.1h2v15.9h-1.6
	l-0.2-1.4c-0.4,0.5-0.8,0.9-1.3,1.2s-1.1,0.4-1.8,0.4c-1.3,0-2.4-0.5-3.2-1.5c-0.8-1-1.1-2.3-1.1-3.8V113.1z M131.2,113.3
	c0,1.1,0.2,2,0.7,2.7c0.5,0.7,1.2,1,2.1,1c0.6,0,1.1-0.1,1.5-0.4s0.7-0.7,1-1.1v-5.1c-0.3-0.5-0.6-0.8-1-1.1
	c-0.4-0.3-0.9-0.4-1.5-0.4c-1,0-1.7,0.4-2.1,1.2c-0.5,0.8-0.7,1.8-0.7,3.1V113.3z"/>
<path d="M146.1,118.6c-1.5,0-2.8-0.5-3.7-1.5c-0.9-1-1.4-2.3-1.4-4v-0.4c0-1.6,0.5-2.9,1.4-3.9s2-1.6,3.3-1.6c1.5,0,2.6,0.4,3.4,1.3
	c0.8,0.9,1.1,2.1,1.1,3.6v1.3h-7.1l0,0.1c0,1.1,0.3,1.9,0.8,2.6c0.5,0.7,1.2,1,2.2,1c0.7,0,1.3-0.1,1.8-0.3c0.5-0.2,1-0.5,1.3-0.8
	l0.8,1.3c-0.4,0.4-0.9,0.7-1.6,1C147.8,118.5,147,118.6,146.1,118.6z M145.8,108.7c-0.7,0-1.2,0.3-1.7,0.8c-0.5,0.6-0.8,1.3-0.9,2.1
	l0,0.1h5.1v-0.3c0-0.8-0.2-1.4-0.6-2C147.3,109,146.6,108.7,145.8,108.7z"/>
<path d="M161.9,113.3c0,1.6-0.4,2.9-1.1,3.8c-0.8,1-1.8,1.5-3.1,1.5c-0.7,0-1.3-0.1-1.8-0.3c-0.5-0.2-0.9-0.6-1.3-1v5.4h-2v-15.2
	h1.5l0.3,1.4c0.4-0.5,0.8-0.9,1.3-1.2c0.5-0.3,1.2-0.4,1.9-0.4c1.4,0,2.4,0.5,3.2,1.6c0.8,1.1,1.1,2.5,1.1,4.3V113.3z M159.9,113.1
	c0-1.2-0.2-2.3-0.7-3.1c-0.5-0.8-1.2-1.2-2.2-1.2c-0.6,0-1.1,0.1-1.5,0.4c-0.4,0.3-0.7,0.6-1,1.1v5.3c0.3,0.5,0.6,0.8,1,1.1
	c0.4,0.3,0.9,0.4,1.5,0.4c0.9,0,1.7-0.3,2.2-1c0.5-0.7,0.7-1.6,0.7-2.7V113.1z"/>
<path d="M166.6,118.4h-2v-15.9h2V118.4z"/>
<path d="M169.2,112.8c0-1.6,0.4-3,1.3-4s2.1-1.6,3.6-1.6c1.5,0,2.7,0.5,3.6,1.6c0.9,1.1,1.3,2.4,1.3,4v0.2c0,1.6-0.4,3-1.3,4
	c-0.9,1-2.1,1.6-3.6,1.6s-2.7-0.5-3.6-1.6c-0.9-1-1.3-2.4-1.3-4V112.8z M171.2,113c0,1.2,0.2,2.1,0.7,2.9s1.2,1.1,2.2,1.1
	c1,0,1.7-0.4,2.2-1.1s0.7-1.7,0.7-2.9v-0.2c0-1.2-0.2-2.1-0.7-2.9c-0.5-0.8-1.2-1.1-2.2-1.1c-1,0-1.7,0.4-2.2,1.1
	c-0.5,0.8-0.7,1.7-0.7,2.9V113z"/>
<path d="M184.7,114.3l0.4,1.4h0.1l2.7-8.3h2.2l-4.6,12.7c-0.3,0.7-0.7,1.4-1.2,1.9c-0.5,0.5-1.2,0.8-2.1,0.8c-0.2,0-0.4,0-0.6-0.1
	s-0.4-0.1-0.6-0.1l0.2-1.6c0,0,0.1,0,0.4,0c0.3,0,0.5,0,0.5,0c0.4,0,0.8-0.2,1-0.6s0.5-0.8,0.7-1.3l0.5-1.1l-4.1-10.8h2.2
	L184.7,114.3z"/>
<path d="M196.2,118.6c-1.5,0-2.8-0.5-3.7-1.5c-0.9-1-1.4-2.3-1.4-4v-0.4c0-1.6,0.5-2.9,1.4-3.9c0.9-1,2-1.6,3.3-1.6
	c1.5,0,2.6,0.4,3.4,1.3c0.8,0.9,1.1,2.1,1.1,3.6v1.3h-7.1l0,0.1c0,1.1,0.3,1.9,0.8,2.6c0.5,0.7,1.2,1,2.2,1c0.7,0,1.3-0.1,1.8-0.3
	c0.5-0.2,1-0.5,1.3-0.8l0.8,1.3c-0.4,0.4-0.9,0.7-1.6,1C197.9,118.5,197.1,118.6,196.2,118.6z M195.9,108.7c-0.7,0-1.2,0.3-1.7,0.8
	c-0.5,0.6-0.8,1.3-0.9,2.1l0,0.1h5.1v-0.3c0-0.8-0.2-1.4-0.6-2C197.4,109,196.7,108.7,195.9,108.7z"/>
<path d="M202.2,113.1c0-1.8,0.4-3.2,1.1-4.3c0.8-1.1,1.8-1.6,3.2-1.6c0.6,0,1.2,0.1,1.7,0.4c0.5,0.2,0.9,0.6,1.3,1v-6.1h2v15.9h-1.6
	l-0.2-1.4c-0.4,0.5-0.8,0.9-1.3,1.2s-1.1,0.4-1.8,0.4c-1.3,0-2.4-0.5-3.2-1.5c-0.8-1-1.1-2.3-1.1-3.8V113.1z M204.2,113.3
	c0,1.1,0.2,2,0.7,2.7c0.5,0.7,1.2,1,2.1,1c0.6,0,1.1-0.1,1.5-0.4s0.7-0.7,1-1.1v-5.1c-0.3-0.5-0.6-0.8-1-1.1
	c-0.4-0.3-0.9-0.4-1.5-0.4c-1,0-1.7,0.4-2.1,1.2c-0.5,0.8-0.7,1.8-0.7,3.1V113.3z"/>
<path d="M222.3,104.7v2.7h2.1v1.5h-2.1v6.7c0,0.5,0.1,0.9,0.3,1.1c0.2,0.2,0.5,0.3,0.8,0.3c0.1,0,0.2,0,0.4,0c0.1,0,0.3-0.1,0.4-0.1
	l0.3,1.4c-0.1,0.1-0.4,0.2-0.7,0.3c-0.3,0.1-0.6,0.1-0.9,0.1c-0.8,0-1.5-0.2-1.9-0.7s-0.7-1.3-0.7-2.3v-6.7h-1.7v-1.5h1.7v-2.7
	H222.3z"/>
<path d="M228.9,108.9c0.4-0.5,0.8-0.9,1.4-1.2c0.6-0.3,1.2-0.4,1.8-0.4c1.2,0,2.1,0.4,2.7,1.1c0.7,0.7,1,1.8,1,3.3v6.9h-2v-6.9
	c0-0.9-0.2-1.6-0.6-2c-0.4-0.4-1-0.7-1.7-0.7c-0.6,0-1.1,0.1-1.5,0.4c-0.5,0.3-0.8,0.6-1.1,1.1v8.1h-2v-15.9h2V108.9z"/>
<path d="M240.9,104.6h-2v-2h2V104.6z M240.9,118.4h-2v-11h2V118.4z"/>
<path d="M250.4,115.4c0-0.4-0.2-0.8-0.5-1.1c-0.3-0.3-1-0.5-1.9-0.7c-1.3-0.3-2.3-0.7-3-1.2c-0.7-0.5-1-1.2-1-2
	c0-0.9,0.4-1.7,1.1-2.3c0.8-0.6,1.7-0.9,3-0.9c1.3,0,2.3,0.3,3.1,1c0.8,0.7,1.1,1.5,1.1,2.4l0,0.1h-1.9c0-0.5-0.2-0.9-0.6-1.3
	c-0.4-0.4-0.9-0.6-1.6-0.6c-0.7,0-1.2,0.2-1.6,0.5c-0.3,0.3-0.5,0.7-0.5,1.1c0,0.4,0.2,0.8,0.5,1c0.3,0.3,0.9,0.5,1.9,0.7
	c1.4,0.3,2.4,0.7,3.1,1.2c0.7,0.5,1,1.2,1,2.1c0,1-0.4,1.8-1.2,2.4c-0.8,0.6-1.8,0.9-3.1,0.9c-1.4,0-2.5-0.4-3.3-1.1
	s-1.2-1.5-1.1-2.5l0-0.1h1.9c0,0.7,0.3,1.2,0.8,1.6c0.5,0.3,1.1,0.5,1.7,0.5c0.7,0,1.3-0.1,1.7-0.4
	C250.2,116.3,250.4,115.9,250.4,115.4z"/>
<path d="M262.9,114.4l0.2,1.3h0.1l0.3-1.3l2.2-7h1.6l2.2,7l0.3,1.5h0.1l0.3-1.5l1.7-7h2l-3.2,11H269l-2.1-6.7l-0.5-1.9l-0.1,0
	l-0.4,1.9l-2.1,6.7h-1.6l-3.2-11h2L262.9,114.4z"/>
<path d="M280.4,118.6c-1.5,0-2.8-0.5-3.7-1.5c-0.9-1-1.4-2.3-1.4-4v-0.4c0-1.6,0.5-2.9,1.4-3.9s2-1.6,3.3-1.6c1.5,0,2.6,0.4,3.4,1.3
	c0.8,0.9,1.1,2.1,1.1,3.6v1.3h-7.1l0,0.1c0,1.1,0.3,1.9,0.8,2.6c0.5,0.7,1.2,1,2.2,1c0.7,0,1.3-0.1,1.8-0.3c0.5-0.2,1-0.5,1.3-0.8
	l0.8,1.3c-0.4,0.4-0.9,0.7-1.6,1C282.1,118.5,281.3,118.6,280.4,118.6z M280.1,108.7c-0.7,0-1.2,0.3-1.7,0.8
	c-0.5,0.6-0.8,1.3-0.9,2.1l0,0.1h5.1v-0.3c0-0.8-0.2-1.4-0.6-2C281.5,109,280.9,108.7,280.1,108.7z"/>
<path d="M291.4,118.6c-1.5,0-2.8-0.5-3.7-1.5c-0.9-1-1.4-2.3-1.4-4v-0.4c0-1.6,0.5-2.9,1.4-3.9s2-1.6,3.3-1.6c1.5,0,2.6,0.4,3.4,1.3
	c0.8,0.9,1.1,2.1,1.1,3.6v1.3h-7.1l0,0.1c0,1.1,0.3,1.9,0.8,2.6c0.5,0.7,1.2,1,2.2,1c0.7,0,1.3-0.1,1.8-0.3c0.5-0.2,1-0.5,1.3-0.8
	l0.8,1.3c-0.4,0.4-0.9,0.7-1.6,1C293.1,118.5,292.3,118.6,291.4,118.6z M291.1,108.7c-0.7,0-1.2,0.3-1.7,0.8
	c-0.5,0.6-0.8,1.3-0.9,2.1l0,0.1h5.1v-0.3c0-0.8-0.2-1.4-0.6-2C292.5,109,291.9,108.7,291.1,108.7z"/>
<path d="M301.1,113.3h-1.3v5.1h-2v-15.9h2v9.2h1.3l3-4.3h2.4l-3.8,5l4.3,6h-2.4L301.1,113.3z"/>
<path d="M310.7,118.4h-2v-2.1h2V118.4z"/>
<path fill="#AAB8C2" d="M162.3,311.4h-5.9v-0.8l3-3.3c0.5-0.6,0.9-1.1,1.1-1.4c0.2-0.3,0.3-0.7,0.3-1.1c0-0.5-0.1-0.8-0.4-1.1
	c-0.3-0.3-0.6-0.5-1-0.5c-0.6,0-1.1,0.2-1.4,0.5c-0.3,0.3-0.4,0.8-0.4,1.4h-1.2l0,0c0-0.8,0.2-1.4,0.8-2c0.5-0.5,1.3-0.8,2.2-0.8
	c0.8,0,1.5,0.2,1.9,0.7c0.5,0.5,0.7,1.1,0.7,1.8c0,0.5-0.1,1-0.4,1.5c-0.3,0.5-0.7,1-1.2,1.6l-2.4,2.6l0,0h4.3V311.4z"/>
<path fill="#AAB8C2" d="M168.5,308.4h1.2v1h-1.2v2.1h-1.2v-2.1h-4.1v-0.7l4-6.3h1.3V308.4z M164.5,308.4h2.8v-4.2l0,0l-0.1,0.3
	L164.5,308.4z"/>
<path fill="#AAB8C2" d="M176.7,311.4h-5.9v-0.8l3-3.3c0.5-0.6,0.9-1.1,1.1-1.4c0.2-0.3,0.3-0.7,0.3-1.1c0-0.5-0.1-0.8-0.4-1.1
	c-0.3-0.3-0.6-0.5-1-0.5c-0.6,0-1.1,0.2-1.4,0.5c-0.3,0.3-0.4,0.8-0.4,1.4h-1.2l0,0c0-0.8,0.2-1.4,0.8-2c0.5-0.5,1.3-0.8,2.2-0.8
	c0.8,0,1.5,0.2,1.9,0.7c0.5,0.5,0.7,1.1,0.7,1.8c0,0.5-0.1,1-0.4,1.5c-0.3,0.5-0.7,1-1.2,1.6l-2.4,2.6l0,0h4.3V311.4z"/>
<path fill="#AAB8C2" d="M251.1,311.4h-5.9v-0.8l3-3.3c0.5-0.6,0.9-1.1,1.1-1.4c0.2-0.3,0.3-0.7,0.3-1.1c0-0.5-0.1-0.8-0.4-1.1
	c-0.3-0.3-0.6-0.5-1-0.5c-0.6,0-1.1,0.2-1.4,0.5c-0.3,0.3-0.4,0.8-0.4,1.4h-1.2l0,0c0-0.8,0.2-1.4,0.8-2c0.5-0.5,1.3-0.8,2.2-0.8
	c0.8,0,1.5,0.2,1.9,0.7c0.5,0.5,0.7,1.1,0.7,1.8c0,0.5-0.1,1-0.4,1.5c-0.3,0.5-0.7,1-1.2,1.6l-2.4,2.6l0,0h4.3V311.4z"/>
<path fill="#AAB8C2" d="M257.3,308.4h1.2v1h-1.2v2.1h-1.2v-2.1H252v-0.7l4-6.3h1.3V308.4z M253.3,308.4h2.8v-4.2l0,0l-0.1,0.3
	L253.3,308.4z"/>
<path fill="#AAB8C2" d="M265.5,311.4h-5.9v-0.8l3-3.3c0.5-0.6,0.9-1.1,1.1-1.4s0.3-0.7,0.3-1.1c0-0.5-0.1-0.8-0.4-1.1
	c-0.3-0.3-0.6-0.5-1-0.5c-0.6,0-1.1,0.2-1.4,0.5c-0.3,0.3-0.4,0.8-0.4,1.4h-1.2l0,0c0-0.8,0.2-1.4,0.8-2c0.5-0.5,1.3-0.8,2.2-0.8
	c0.8,0,1.5,0.2,1.9,0.7s0.7,1.1,0.7,1.8c0,0.5-0.1,1-0.4,1.5c-0.3,0.5-0.7,1-1.2,1.6l-2.4,2.6l0,0h4.3V311.4z"/>
<circle fill="#AAB8C2" cx="308.5" cy="307.9" r="3.2"/>
<circle fill="#AAB8C2" cx="316.6" cy="307.9" r="3.2"/>
<circle fill="#AAB8C2" cx="324.7" cy="307.9" r="3.2"/>
<path fill="#AAB8C2" d="M222.9,315.8c0,0-8.2-5.8-8.2-12.1c0,0,0-3.8,4.1-3.8c4.1,0,4.1,2.6,4.1,2.6s1.7-2.6,4.9-2.6s3.5,2,3.6,3.3
	C231.6,304.5,232,308.9,222.9,315.8z"/>
<polygon fill="#AAB8C2" points="119.4,308.4 130.4,308.4 124.9,300.9 "/>
<rect x="122.5" y="307.7" fill="#AAB8C2" width="4.5" height="7.4"/>
<rect x="124.1" y="311.4" fill="#AAB8C2" width="9.7" height="3.7"/>
<polygon fill="#AAB8C2" points="144.5,307.6 133.5,307.6 139,315.1 "/>
<rect x="136.9" y="300.9" fill="#AAB8C2" width="4.5" height="7.4"/>
<rect x="130.1" y="300.9" fill="#AAB8C2" width="9.7" height="3.7"/>
<polygon fill="#AAB8C2" points="39.1,300.2 39.1,314.1 29.7,307.1 "/>
<path fill="#AAB8C2" d="M45.2,314.1h4c0,0,0.6-5.8-3.3-8s-8.1-1.4-8.1-1.4v3.8c0,0,3.8-0.5,5.7,0.9S45.2,314.1,45.2,314.1z"/>
<g>
	<circle fill="#FFFFFF" cx="52.1" cy="52.8" r="19.7"/>
	<circle fill="none" stroke="#23A9E1" stroke-miterlimit="10" cx="52.1" cy="52.8" r="19.7"/>
</g>
<g>
	<path fill="#23A9E1" d="M51.8,36.2c-9.2,0-16.7,7.5-16.7,16.7s7.5,16.7,16.7,16.7s16.7-7.5,16.7-16.7S61,36.2,51.8,36.2z
		 M51.8,36.8C60.7,36.8,68,44,68,52.9c0,4.1-1.6,7.9-4.1,10.8L57,61c0,0-1.3-0.6-1.4-1.9c0-0.1-0.1-0.2-0.3-0.2h-0.7
		c0.5-0.6,1.2-1.5,1.2-1.9c0-0.4,0.1-1.1,0.1-1.3c0-0.1,0.1-0.1,0.2-0.1c0.1,0,0.2,0,0.3-0.1c0.1-0.1,1.6-1.5,1.1-3.5
		c0-0.1-0.1-0.2-0.2-0.3c-0.1-0.1-0.3-0.1-0.5-0.1c0-0.3,0.1-0.7,0.3-1.3c0.4-1,0.5-2.8,0-3.3c-0.1-0.1-0.2-0.3-0.4-0.5
		c-0.4-0.5-1-1.2-1.8-1.8c-1.1-0.8-2.2-1.1-4-1.1c-1.7,0-2.1,0.4-2.6,1c-0.4,0.2-2.1,1.3-2.4,2.3c-0.2,1,0.6,4,0.8,4.6
		c0,0.1-0.1,0.2-0.1,0.2c-0.4,0-0.6,0.2-0.7,0.7c-0.1,0.5-0.1,1.2,0,1.6c0.1,0.4,0.5,1.5,1.3,1.9c0.1,0,0.2,0.2,0.2,0.3
		c0,0.7,0,1.2,0.2,1.4c0.1,0.2,0.8,1.1,1.1,1.6H48c-0.1,0-0.1,0-0.2,0.1c0,0.1-0.1,0.1-0.1,0.2c0,0.2,0,0.9-0.4,1.1
		c-0.4,0.2-5.1,2.1-7.7,3.1c-2.5-2.8-3.9-6.5-3.9-10.6C35.7,44,42.9,36.8,51.8,36.8z M51.8,69.1c-4.7,0-8.9-2-11.8-5.2
		c1.5-0.6,7.1-2.8,7.6-3c0.5-0.3,0.6-0.9,0.6-1.3h0.9c0.1,0,0.2-0.1,0.2-0.1c0-0.1,0-0.2,0-0.3L49.2,59c-0.1-0.1-1.1-1.6-1.2-1.8
		c0-0.1-0.1-0.3-0.1-1.1c0-0.5-0.4-0.7-0.5-0.8c0,0,0,0,0,0c-0.5-0.2-0.9-1-1-1.5c-0.1-0.4-0.1-1.1,0-1.4c0.1-0.2,0.1-0.2,0.3-0.3
		c0.5-0.1,0.6-0.7,0.6-0.7c0,0,0-0.1,0-0.1c-0.3-1-1-3.7-0.8-4.4c0.2-0.7,1.6-1.7,2.2-2c0,0,0.1,0,0.1-0.1l0,0
		c0.4-0.4,0.6-0.8,2.2-0.8c1.7,0,2.7,0.3,3.7,1c0.8,0.6,1.3,1.2,1.7,1.7c0.2,0.2,0.3,0.4,0.4,0.5c0.3,0.3,0.3,1.7-0.1,2.8
		c-0.4,1.1-0.3,1.8-0.3,1.8c0,0.1,0,0.2,0.1,0.2c0.1,0,0.1,0.1,0.2,0c0.3-0.1,0.4,0,0.4,0c0,0,0,0,0,0c0.3,1.5-0.5,2.6-0.8,3
		c-0.3,0-0.5,0.2-0.7,0.4c0,0,0,0.1,0,0.1c0,0-0.1,0.9-0.1,1.4c0,0.2-0.7,1.2-1.5,2c-0.1,0.1-0.1,0.2-0.1,0.3c0,0.1,0.1,0.2,0.2,0.2
		h1.1c0.3,1.5,1.7,2.1,1.7,2.1l6.7,2.6C60.5,67.2,56.4,69.1,51.8,69.1z"/>
</g>
<path fill="#FFFFFF" d="M161,250.7v-26.5h11.4c1.7,0,3.1,0.2,4.2,0.7c1.1,0.5,2.1,1.1,2.8,1.9c0.7,0.8,1.2,1.7,1.5,2.7
	c0.3,1,0.5,2,0.5,3c0,0.6-0.1,1.3-0.2,1.9c-0.1,0.7-0.4,1.3-0.7,1.9c-0.3,0.6-0.7,1.2-1.2,1.7c-0.5,0.5-1.1,1-1.7,1.4
	c-0.7,0.4-1.4,0.7-2.3,1c-0.9,0.2-1.8,0.4-2.9,0.4h-6.2v9.8H161z M172.6,236.1c0.7,0,1.2-0.1,1.6-0.3s0.8-0.5,1.1-0.8
	c0.3-0.3,0.5-0.7,0.6-1.1c0.1-0.4,0.2-0.8,0.2-1.3c0-0.4-0.1-0.8-0.2-1.2c-0.1-0.4-0.3-0.8-0.6-1.1c-0.3-0.3-0.6-0.6-1.1-0.8
	c-0.5-0.2-1-0.3-1.7-0.3h-6.5v7H172.6z"/>
<path fill="#FFFFFF" d="M197.1,251.2c-1.4,0-2.7-0.2-3.8-0.6c-1.1-0.4-2.1-0.9-3-1.5c-0.9-0.6-1.6-1.4-2.2-2.3
	c-0.6-0.9-1.1-1.8-1.5-2.8c-0.4-1-0.7-2.1-0.8-3.2c-0.2-1.1-0.3-2.2-0.3-3.3c0-1.1,0.1-2.2,0.3-3.3c0.2-1.1,0.5-2.2,0.8-3.2
	c0.4-1,0.9-2,1.5-2.8c0.6-0.9,1.4-1.6,2.2-2.3c0.9-0.6,1.9-1.2,3-1.5c1.1-0.4,2.4-0.6,3.8-0.6c1.4,0,2.7,0.2,3.8,0.6
	c1.1,0.4,2.1,0.9,3,1.5c0.9,0.6,1.6,1.4,2.2,2.3c0.6,0.9,1.1,1.8,1.5,2.8c0.4,1,0.7,2.1,0.8,3.2c0.2,1.1,0.3,2.2,0.3,3.3
	c0,1.1-0.1,2.2-0.3,3.3c-0.2,1.1-0.5,2.2-0.8,3.2c-0.4,1-0.9,2-1.5,2.8c-0.6,0.9-1.4,1.6-2.2,2.3c-0.9,0.6-1.9,1.2-3,1.5
	C199.8,251,198.5,251.2,197.1,251.2z M197.1,246.3c1.2,0,2.2-0.3,3-0.8c0.8-0.6,1.5-1.3,2-2.1c0.5-0.9,0.9-1.8,1.1-2.8
	c0.2-1,0.3-2,0.3-3c0-0.7,0-1.4-0.1-2.1c-0.1-0.7-0.2-1.4-0.5-2c-0.2-0.6-0.5-1.3-0.8-1.8c-0.3-0.6-0.7-1.1-1.2-1.5
	c-0.5-0.4-1-0.8-1.6-1c-0.6-0.2-1.3-0.4-2.1-0.4c-0.8,0-1.5,0.1-2.1,0.4c-0.6,0.3-1.2,0.6-1.6,1c-0.5,0.4-0.9,0.9-1.2,1.5
	c-0.3,0.6-0.6,1.2-0.8,1.8c-0.2,0.7-0.4,1.3-0.5,2s-0.1,1.3-0.1,2c0,1,0.1,2,0.3,3.1c0.2,1,0.6,2,1.1,2.8c0.5,0.8,1.2,1.5,2,2.1
	C194.9,246,195.9,246.3,197.1,246.3z"/>
<path fill="#FFFFFF" d="M227.3,231.5c-0.2-0.4-0.4-0.8-0.6-1.1c-0.3-0.3-0.6-0.6-1-0.9c-0.4-0.3-0.8-0.4-1.3-0.6
	c-0.5-0.1-1-0.2-1.6-0.2c-1.1,0-2,0.2-2.6,0.7c-0.6,0.4-0.9,1.1-0.9,1.9c0,0.5,0.2,1,0.6,1.3c0.4,0.4,0.9,0.7,1.6,1
	c0.6,0.3,1.4,0.6,2.2,0.8c0.8,0.3,1.7,0.5,2.5,0.9c0.9,0.3,1.7,0.7,2.5,1.1c0.8,0.4,1.5,0.9,2.2,1.6c0.6,0.6,1.2,1.4,1.6,2.2
	c0.4,0.9,0.6,1.9,0.6,3.1c0,1.3-0.2,2.4-0.7,3.4c-0.5,1-1.2,1.8-2,2.5c-0.9,0.7-1.9,1.2-3,1.6c-1.2,0.4-2.4,0.5-3.8,0.5
	c-1.2,0-2.4-0.2-3.5-0.5c-1.1-0.3-2.1-0.8-2.9-1.4c-0.9-0.6-1.6-1.4-2.3-2.3c-0.7-0.9-1.2-1.9-1.6-3l4.7-1.7c0.3,0.6,0.6,1.2,1,1.7
	c0.4,0.5,0.8,0.9,1.3,1.3c0.5,0.4,1,0.6,1.6,0.8c0.6,0.2,1.2,0.3,1.8,0.3c0.6,0,1.2-0.1,1.7-0.2c0.5-0.1,1-0.3,1.3-0.6
	c0.4-0.3,0.7-0.6,0.9-1c0.2-0.4,0.3-0.9,0.3-1.4c0-0.6-0.2-1.2-0.6-1.6c-0.4-0.4-0.9-0.8-1.6-1.1c-0.6-0.3-1.4-0.6-2.2-0.9
	c-0.8-0.3-1.7-0.5-2.5-0.8c-0.9-0.3-1.7-0.6-2.5-1c-0.8-0.4-1.5-0.9-2.2-1.5c-0.6-0.6-1.2-1.3-1.6-2.1c-0.4-0.8-0.6-1.8-0.6-3
	c0-1,0.2-1.9,0.6-2.8c0.4-0.9,1-1.7,1.7-2.3c0.8-0.7,1.7-1.2,2.8-1.6c1.1-0.4,2.4-0.6,3.8-0.6c1.2,0,2.3,0.2,3.2,0.5
	c1,0.3,1.8,0.7,2.6,1.3c0.7,0.5,1.4,1.2,1.9,1.9c0.5,0.7,0.9,1.6,1.1,2.4L227.3,231.5z"/>
<path fill="#FFFFFF" d="M249.6,229.2v21.6h-5.1v-21.6h-7.6v-4.9h20.2v4.9H249.6z"/>
<path fill="#FFFFFF" d="M203,258.7c0,0-0.7,4.3,0.7,8.4c0,0,0.5,0.9-0.2,1.1h-2.8c0,0-0.6-0.3-0.8-0.6c-0.1-0.3-1.4-3-0.7-8.8
	c0,0,0.3-1,1.2-1.1c0.9,0,2.1,0.1,2.1,0.1S203.3,257.8,203,258.7z"/>
<path fill="#FFFFFF" d="M213.5,255c0,0,0.4-1.3,0.7-2c0.3-0.7,1.1-2.9-0.2-4.4s-2.3-0.9-2.6-0.2c0,0-0.1,0.8-0.1,1
	c0,0.3,0.4,0.8-0.7,2.1c-1.1,1.3-1,1.6-2,2.5s-2.1,2.1-2.2,2.7c0,0-0.7,0.9-0.9,0.8s-0.9,0.1-1.3,1.4c-0.4,1.3-0.1,6.6,1.2,7.9
	c1.4,1.4,7.8,2,8.9,1.7c1.2-0.3,2.9-0.6,2.9-2.4c0,0,1.2-1.2,1.3-2.2c0.1-1-0.2-1.2-0.2-1.9c0-0.7,1.6-0.8,0.2-3
	c0,0-0.2-0.1-0.1-1.1c0.1-1-0.9-1.5-1.5-1.8c-0.7-0.3-2.6-0.4-3.1-0.2C213.9,256,213.3,256.1,213.5,255z"/>
<g>
	<polygon fill="#FFFFFF" points="201,259.8 150,259.8 150,208.9 158.4,208.9 158.4,209.8 150.9,209.8 150.9,259 201,259 	"/>
</g>
<g>
	<polygon fill="#FFFFFF" points="268.5,259.8 217.9,259.8 217.9,259 267.7,259 267.7,209.8 260.2,209.8 260.2,208.9 268.5,208.9 	
		"/>
</g>
<g>
	<path fill="#FFFFFF" d="M171.2,206.2c-0.1-0.3-0.3-0.6-0.5-0.9c-0.2-0.3-0.5-0.5-0.8-0.7c-0.3-0.2-0.6-0.4-1-0.5
		c-0.4-0.1-0.8-0.2-1.3-0.2c-0.9,0-1.6,0.2-2.1,0.5c-0.5,0.4-0.7,0.9-0.7,1.5c0,0.4,0.2,0.8,0.5,1.1c0.3,0.3,0.7,0.5,1.2,0.8
		c0.5,0.2,1.1,0.5,1.7,0.7c0.7,0.2,1.3,0.4,2,0.7c0.7,0.3,1.4,0.5,2,0.9c0.7,0.3,1.2,0.8,1.7,1.3c0.5,0.5,0.9,1.1,1.2,1.8
		c0.3,0.7,0.5,1.5,0.5,2.5c0,1-0.2,1.9-0.6,2.7s-0.9,1.5-1.6,2c-0.7,0.6-1.5,1-2.4,1.3c-0.9,0.3-1.9,0.4-3,0.4c-1,0-1.9-0.1-2.8-0.4
		c-0.9-0.3-1.7-0.7-2.4-1.2s-1.3-1.1-1.8-1.8c-0.5-0.7-0.9-1.5-1.2-2.4l3.7-1.4c0.2,0.5,0.5,0.9,0.8,1.4s0.7,0.8,1.1,1
		c0.4,0.3,0.8,0.5,1.3,0.7c0.5,0.2,0.9,0.2,1.5,0.2c0.5,0,1-0.1,1.4-0.2c0.4-0.1,0.8-0.3,1.1-0.5c0.3-0.2,0.5-0.5,0.7-0.8
		c0.2-0.3,0.2-0.7,0.2-1.1c0-0.5-0.2-0.9-0.5-1.3c-0.3-0.3-0.7-0.7-1.2-0.9c-0.5-0.3-1.1-0.5-1.7-0.7c-0.7-0.2-1.3-0.4-2-0.7
		c-0.7-0.2-1.4-0.5-2-0.8c-0.7-0.3-1.2-0.7-1.7-1.2c-0.5-0.5-0.9-1-1.2-1.7c-0.3-0.6-0.5-1.4-0.5-2.4c0-0.8,0.2-1.5,0.5-2.3
		c0.3-0.7,0.8-1.3,1.4-1.9c0.6-0.5,1.4-1,2.2-1.3s1.9-0.5,3-0.5c1,0,1.8,0.1,2.6,0.4c0.8,0.2,1.5,0.6,2,1s1.1,1,1.5,1.5
		c0.4,0.6,0.7,1.2,0.9,2L171.2,206.2z"/>
	<path fill="#FFFFFF" d="M194.5,221.6l-1.6-4.4h-8.2l-1.6,4.4h-4.4l8.1-21.2h4l8.1,21.2H194.5z M189.4,208c-0.1-0.3-0.2-0.6-0.3-0.9
		s-0.2-0.7-0.3-1c-0.1,0.3-0.2,0.6-0.3,1s-0.2,0.7-0.4,0.9l-2.1,5.5h5.5L189.4,208z"/>
	<path fill="#FFFFFF" d="M202.7,221.6v-21.2h14.2v3.9h-10.1v4.4h6.4v3.9h-6.4v9H202.7z"/>
	<path fill="#FFFFFF" d="M220.7,221.6v-21.2h14.4v3.9h-10.4v4.4h6.1v3.9h-6.1v5.1h11v3.9H220.7z"/>
	<path fill="#FFFFFF" d="M240.1,221.6v-21.2h9.8c1.3,0,2.5,0.2,3.4,0.6c0.9,0.4,1.6,0.9,2.2,1.5s0.9,1.3,1.2,2.1
		c0.2,0.8,0.4,1.6,0.4,2.5c0,0.6-0.1,1.2-0.3,1.8c-0.2,0.6-0.4,1.2-0.8,1.7s-0.8,1.1-1.3,1.5s-1.1,0.8-1.8,1l4.1,8.4h-4.6l-4-7.9
		h-4.3v7.9H240.1z M250,209.9c0.5,0,1-0.1,1.3-0.2s0.6-0.4,0.9-0.6c0.2-0.3,0.4-0.6,0.5-0.9c0.1-0.3,0.1-0.7,0.1-1
		c0-0.3,0-0.7-0.1-1c-0.1-0.3-0.2-0.6-0.4-0.9c-0.2-0.3-0.5-0.5-0.8-0.6c-0.4-0.2-0.8-0.2-1.4-0.2h-5.8v5.5H250z"/>
</g>
</svg>
