<?xml version="1.0" encoding="utf-8"?>
<!-- Generator: Adobe Illustrator 18.0.0, SVG Export Plug-In . SVG Version: 6.00 Build 0)  -->
<!DOCTYPE svg PUBLIC "-//W3C//DTD SVG 1.1//EN" "http://www.w3.org/Graphics/SVG/1.1/DTD/svg11.dtd">
<svg version="1.1" id="Layer_1" xmlns="http://www.w3.org/2000/svg" xmlns:xlink="http://www.w3.org/1999/xlink" x="0px" y="0px"
	 viewBox="574.9 63 749.4 1053.9" enable-background="new 574.9 63 749.4 1053.9" xml:space="preserve">
<polygon fill="#C82039" points="574.9,63 1324.2,63 1324.2,1117 949.6,1015.7 574.9,1117 "/>
<g>
	<path fill="#F7F7F7" d="M951.3,817.7c-167.8,0-303.7-135.8-303.7-303.7s135.8-303.7,303.7-303.7c166.9,0,303.7,135.8,303.7,303.7
		S1118.3,817.7,951.3,817.7z M951.3,238c-152.7,0-277,124.3-277,276.1s124.3,277,277,277s277-124.3,277-277S1104,238,951.3,238z"/>
</g>
<polygon fill="#A01D21" points="574.9,1117 574.9,1085.9 949.6,980.2 1324.2,1085.9 1324.2,1117 949.6,1015.7 "/>
<g>
	<path fill="#FFFFFF" d="M699.5,451.1h43.1c7.4,0,14.1,0.8,20,2.5c5.9,1.7,11.2,4,15.8,7c4.6,3,8.5,6.5,11.8,10.5
		c3.3,4.1,5.9,8.5,8.1,13.2c2.1,4.7,3.6,9.7,4.6,14.9c1,5.2,1.5,10.4,1.5,15.7c0,4.9-0.5,9.8-1.4,14.9c-0.9,5.1-2.4,10-4.4,14.7
		c-2,4.7-4.6,9.2-7.9,13.3c-3.2,4.2-7.2,7.8-11.8,10.9c-4.7,3.1-10,5.6-16.2,7.3c-6.1,1.8-13.1,2.7-20.9,2.7h-42.3V451.1z
		 M744.8,555.4c6.3,0,11.7-1.2,16-3.7c4.3-2.5,7.8-5.6,10.5-9.5c2.7-3.9,4.6-8.2,5.8-13c1.2-4.8,1.8-9.6,1.8-14.2
		c0-5-0.6-9.9-1.9-14.7c-1.2-4.8-3.2-9.2-5.7-13c-2.6-3.8-5.9-6.9-10-9.2c-4.1-2.3-8.9-3.5-14.5-3.5h-22.6v80.9H744.8z"/>
	<path fill="#FFFFFF" d="M874.2,580.9c-6.9,0-13.1-0.9-18.5-2.7c-5.5-1.8-10.3-4.3-14.5-7.4s-7.8-6.8-10.7-11
		c-3-4.2-5.4-8.8-7.3-13.7c-1.9-4.9-3.2-10-4.1-15.3c-0.9-5.3-1.3-10.6-1.3-15.9c0-5.2,0.4-10.5,1.3-15.8c0.9-5.3,2.2-10.4,4.1-15.3
		c1.9-4.9,4.3-9.5,7.3-13.7c3-4.2,6.5-7.9,10.7-11c4.2-3.1,9-5.6,14.5-7.4c5.5-1.8,11.6-2.7,18.5-2.7c6.9,0,13,0.9,18.5,2.7
		c5.4,1.8,10.2,4.3,14.4,7.4c4.2,3.1,7.7,6.8,10.7,11c3,4.2,5.4,8.8,7.3,13.7c1.9,4.9,3.2,10,4.1,15.3c0.9,5.3,1.3,10.6,1.3,15.8
		c0,5.3-0.4,10.6-1.3,15.9c-0.9,5.3-2.2,10.4-4.1,15.3c-1.9,4.9-4.3,9.5-7.3,13.7c-3,4.2-6.5,7.9-10.7,11c-4.2,3.1-8.9,5.6-14.4,7.4
		C887.2,580,881.1,580.9,874.2,580.9z M874.2,557.2c5.7,0,10.5-1.3,14.4-4c3.9-2.7,7-6.1,9.4-10.2c2.4-4.2,4.1-8.7,5.2-13.7
		c1.1-5,1.6-9.7,1.6-14.4c0-3.3-0.2-6.6-0.7-9.9c-0.4-3.4-1.2-6.6-2.2-9.7c-1-3.1-2.3-6.1-3.9-8.8s-3.5-5.2-5.8-7.2
		c-2.3-2-4.9-3.7-7.9-4.9c-3-1.2-6.4-1.8-10.2-1.8c-3.9,0-7.3,0.6-10.3,1.9c-3,1.2-5.6,2.9-7.9,5c-2.3,2.1-4.2,4.6-5.8,7.3
		c-1.6,2.8-2.9,5.8-3.9,8.9c-1,3.1-1.7,6.4-2.2,9.6c-0.4,3.3-0.7,6.4-0.7,9.5c0,4.9,0.5,9.8,1.6,14.8c1.1,5,2.8,9.6,5.2,13.6
		c2.4,4.1,5.6,7.4,9.5,10C863.6,555.9,868.4,557.2,874.2,557.2z"/>
	<path fill="#FFFFFF" d="M1028.2,578.7l-50.6-74.4c-0.8-1.2-1.7-2.8-2.7-4.6c-1-1.8-1.8-3.5-2.5-5c0.2,1.4,0.3,3,0.4,4.8
		c0.1,1.8,0.1,3.4,0.1,4.8v74.4h-24.5V451.1h23.1l49.4,73.5c0.8,1.2,1.7,2.7,2.7,4.5c1,1.8,1.9,3.5,2.7,5.2
		c-0.2-1.7-0.3-3.5-0.4-5.2c-0.1-1.7-0.1-3.2-0.1-4.4v-73.5h24.4v127.6H1028.2z"/>
	<path fill="#FFFFFF" d="M1062.7,495c0.8-0.7,1.8-1.7,2.9-3c1.1-1.3,2.3-2.7,3.4-4.3c1.2-1.5,2.2-3.1,3.2-4.8c1-1.7,1.7-3.2,2.3-4.6
		c-3-0.9-5.4-2.6-7.4-5c-2-2.4-3-5.5-3-9.2c0-2.3,0.4-4.4,1.2-6.2c0.8-1.8,2-3.4,3.4-4.8c1.4-1.3,3.1-2.4,4.9-3.1
		c1.8-0.7,3.8-1.1,5.8-1.1c2.1,0,4.1,0.4,6,1.2c1.9,0.8,3.5,1.9,4.9,3.3c1.4,1.5,2.5,3.3,3.3,5.4c0.8,2.2,1.2,4.7,1.2,7.5
		c0,3.6-0.6,7.1-1.8,10.6c-1.2,3.5-2.8,6.8-4.9,10c-2,3.2-4.4,6.1-7.1,8.8c-2.7,2.7-5.5,4.9-8.5,6.8L1062.7,495z"/>
	<path fill="#FFFFFF" d="M1160.3,474.8v103.9h-24.6V474.8h-36.5v-23.8h97.5v23.8H1160.3z"/>
</g>
</svg>
