<?xml version="1.0" encoding="utf-8"?>
<!-- Generator: Adobe Illustrator 18.0.0, SVG Export Plug-In . SVG Version: 6.00 Build 0)  -->
<!DOCTYPE svg PUBLIC "-//W3C//DTD SVG 1.1//EN" "http://www.w3.org/Graphics/SVG/1.1/DTD/svg11.dtd">
<svg version="1.1" id="Layer_1" xmlns="http://www.w3.org/2000/svg" xmlns:xlink="http://www.w3.org/1999/xlink" x="0px" y="0px"
	 viewBox="24.4 140.7 1856.4 887.5" enable-background="new 24.4 140.7 1856.4 887.5" xml:space="preserve">
<rect x="24.4" y="140.7" fill="#FFC627" width="1856.4" height="886.2"/>
<rect x="24.4" y="1014.1" fill="#E4A224" width="1856.4" height="14.1"/>
<g>
	<path fill="none" stroke="#E4A224" stroke-width="1.5" stroke-miterlimit="10" d="M559.9,746.5c0,0-1.5,9.8,1.8,18.9
		c0,0,1,2-0.5,2.5h-6.3c0,0-1.5-0.8-1.8-1.5c-0.3-0.8-3-6.8-1.5-19.9c0,0,0.8-2.3,2.8-2.5c2,0,4.8,0.3,4.8,0.3
		S560.9,744.5,559.9,746.5z"/>
	<path fill="none" stroke="#E4A224" stroke-width="1.5" stroke-miterlimit="10" d="M583.9,738.2c0,0,1-2.8,1.5-4.5
		c0.8-1.5,2.5-6.6-0.5-9.8s-5.3-2-6-0.5c0,0-0.3,1.8-0.3,2.3s1,1.8-1.5,4.8s-2.3,3.5-4.5,5.5s-4.8,4.8-5,6c0,0-1.8,2-2,1.8
		s-2,0.3-3,3.3c-0.8,3-0.3,14.9,2.8,17.9c3,3,17.6,4.5,20.2,3.8c2.8-0.8,6.6-1.3,6.6-5.5c0,0,2.8-2.5,3-5c0.3-2.3-0.5-2.8-0.5-4.3
		c0-1.5,3.5-1.8,0.5-6.8c0,0-0.5-0.3-0.3-2.5c0.3-2.3-2-3.3-3.5-4c-1.5-0.8-5.8-1-7.1-0.3C584.6,740.4,583.4,740.7,583.9,738.2z"/>
</g>
<g>
	<path fill="none" stroke="#E4A224" stroke-width="1.5" stroke-miterlimit="10" d="M636.3,670.4c0,0-1.5,9.8,1.8,18.9
		c0,0,1,2-0.5,2.5h-6.3c0,0-1.5-0.8-1.8-1.5s-3-6.8-1.5-19.9c0,0,0.8-2.3,2.8-2.5c2,0,4.8,0.3,4.8,0.3S637,668.4,636.3,670.4z"/>
	<path fill="none" stroke="#E4A224" stroke-width="1.5" stroke-miterlimit="10" d="M660.2,661.8c0,0,1-2.8,1.5-4.5
		c0.5-1.8,2.5-6.6-0.5-9.8c-3-3.3-5.3-2-6-0.5c0,0-0.3,1.8-0.3,2.3s1,1.8-1.5,4.8s-2.3,3.5-4.5,5.5s-4.8,4.8-5,6c0,0-1.8,2-2,1.8
		c-0.5,0-2,0.3-3,3.3s-0.3,14.9,2.8,17.9c3,3,17.6,4.5,20.2,3.8c2.5-0.8,6.6-1.3,6.6-5.5c0,0,2.8-2.5,3-5s-0.5-2.8-0.5-4.3
		c0-1.5,3.5-1.8,0.5-6.8c0,0-0.5-0.3-0.3-2.5s-2-3.3-3.5-4c-1.5-0.8-5.8-1-7.1-0.3C661,664.3,659.7,664.6,660.2,661.8z"/>
</g>
<g>
	<path fill="none" stroke="#E4A224" stroke-width="1.5" stroke-miterlimit="10" d="M577.3,582.7c0,0-1.5,9.8,1.8,18.9
		c0,0,1,2-0.5,2.5h-6.3c0,0-1.5-0.8-1.8-1.5c-0.3-0.8-3-6.8-1.5-19.9c0,0,0.8-2.3,2.8-2.5c2-0.3,4.8,0.3,4.8,0.3
		S578.1,580.9,577.3,582.7z"/>
	<path fill="none" stroke="#E4A224" stroke-width="1.5" stroke-miterlimit="10" d="M601.2,574.4c0,0,1-2.8,1.5-4.5
		c0.8-1.5,2.5-6.6-0.5-9.8c-3-3.3-5.3-2-6-0.5c0,0-0.3,1.8-0.3,2.3s1,1.8-1.5,4.8s-2.3,3.5-4.5,5.5s-4.8,4.8-5,6c0,0-1.8,2-2,1.8
		c-0.5,0-2,0.3-3,3.3s-0.3,14.9,2.8,17.9c3,3,17.6,4.5,20.2,3.8s6.6-1.3,6.6-5.5c0,0,2.8-2.5,3-5c0.3-2.3-0.5-2.8-0.5-4.3
		c0-1.5,3.5-1.8,0.5-6.8c0,0-0.5-0.3-0.3-2.5c0.3-2.3-2-3.3-3.5-4c-1.5-0.8-5.8-1-7.1-0.3C602,576.6,600.7,577.1,601.2,574.4z"/>
</g>
<g>
	<path fill="none" stroke="#E4A224" stroke-width="1.5" stroke-miterlimit="10" d="M577.3,412.1c0,0-1.5,9.8,1.8,18.9
		c0,0,1,2-0.5,2.5h-6.3c0,0-1.5-0.8-1.8-1.5c-0.3-0.8-3-6.8-1.5-19.9c0,0,0.8-2.3,2.8-2.5c2,0,4.8,0.3,4.8,0.3
		S578.1,410.1,577.3,412.1z"/>
	<path fill="none" stroke="#E4A224" stroke-width="1.5" stroke-miterlimit="10" d="M601.2,403.8c0,0,1-2.8,1.5-4.5
		c0.8-1.5,2.5-6.6-0.5-9.8s-5.3-2-6-0.5c0,0-0.3,1.8-0.3,2.3c0,0.5,1,1.8-1.5,4.8s-2.3,3.5-4.5,5.5s-4.8,4.8-5,6c0,0-1.8,2-2,1.8
		c-0.3-0.3-2,0.3-3,3.3c-0.8,3-0.3,14.9,2.8,17.9c3,3,17.6,4.5,20.2,3.8c2.8-0.8,6.6-1.3,6.6-5.5c0,0,2.8-2.5,3-5
		c0.3-2.3-0.5-2.8-0.5-4.3s3.5-1.8,0.5-6.8c0,0-0.5-0.3-0.3-2.5c0.3-2.3-2-3.3-3.5-4c-1.5-0.8-5.8-1-7.1-0.3
		C602,406,600.7,406.3,601.2,403.8z"/>
</g>
<g>
	<path fill="none" stroke="#E4A224" stroke-width="1.5" stroke-miterlimit="10" d="M699,606.6c0,0-1.5,9.8,1.8,18.9c0,0,1,2-0.5,2.5
		H694c0,0-1.5-0.8-1.8-1.5c-0.3-0.8-3-6.8-1.5-19.9c0,0,0.8-2.3,2.8-2.5c2,0,4.8,0.3,4.8,0.3S699.8,604.6,699,606.6z"/>
	<path fill="none" stroke="#E4A224" stroke-width="1.5" stroke-miterlimit="10" d="M723,598.1c0,0,1-2.8,1.5-4.5
		c0.8-1.5,2.5-6.6-0.5-9.8c-2.8-3.3-5.3-2-6-0.5c0,0-0.3,1.8-0.3,2.3s1,1.8-1.5,4.8s-2.3,3.5-4.5,5.5s-4.8,4.8-5,6c0,0-1.8,2-2,1.8
		c-0.5,0-2,0.3-3,3.3c-0.8,3-0.3,14.9,2.8,17.9c3,3,17.6,4.5,20.2,3.8c2.5-0.8,6.6-1.3,6.6-5.5c0,0,2.8-2.5,3-5
		c0.3-2.3-0.5-2.8-0.5-4.3c0-1.5,3.5-1.8,0.5-6.8c0,0-0.5-0.3-0.3-2.5c0.3-2.3-2-3.3-3.5-4c-1.5-0.8-5.8-1-7.1-0.3
		C723.7,600.3,722.5,600.8,723,598.1z"/>
</g>
<g>
	<path fill="none" stroke="#E4A224" stroke-width="1.5" stroke-miterlimit="10" d="M1707.7,593c0,0,1.5-9.8-1.8-18.9
		c0,0-1-2,0.5-2.5h6.3c0,0,1.5,0.8,1.8,1.5c0.3,0.8,3,6.8,1.5,19.9c0,0-0.8,2.3-2.8,2.5c-2,0-4.8-0.3-4.8-0.3S1707,594.8,1707.7,593
		z"/>
	<path fill="none" stroke="#E4A224" stroke-width="1.5" stroke-miterlimit="10" d="M1683.8,601.3c0,0-1,2.8-1.5,4.5
		c-0.8,1.5-2.5,6.6,0.5,9.8c3,3.3,5.3,2,6,0.5c0,0,0.3-1.8,0.3-2.3c0-0.5-1-1.8,1.5-4.8s2.3-3.5,4.5-5.5c2.3-2,4.8-4.8,5-6
		c0,0,1.8-2,2-1.8c0.3,0.3,2-0.3,3-3.3c0.8-3,0.3-14.9-2.8-17.9c-3-3-17.6-4.5-20.2-3.8s-6.6,1.3-6.6,5.5c0,0-2.8,2.5-3,5
		s0.5,2.8,0.5,4.3c0,1.5-3.5,1.8-0.5,6.8c0,0,0.5,0.3,0.3,2.5c-0.3,2.3,2,3.3,3.5,4s5.8,1,7.1,0.3
		C1683,599.1,1684.3,598.8,1683.8,601.3z"/>
</g>
<g>
	<path fill="none" stroke="#E4A224" stroke-width="1.5" stroke-miterlimit="10" d="M1318.2,420.4c0,0,1.5-9.8-1.8-18.9
		c0,0-1-2,0.5-2.5h6.3c0,0,1.5,0.8,1.8,1.5c0.3,0.8,3,6.8,1.5,19.9c0,0-0.8,2.3-2.8,2.5c-2,0-4.8-0.3-4.8-0.3
		S1317.1,422.4,1318.2,420.4z"/>
	<path fill="none" stroke="#E4A224" stroke-width="1.5" stroke-miterlimit="10" d="M1294.2,429c0,0-1,2.8-1.5,4.5
		c-0.8,1.5-2.5,6.6,0.5,9.8c2.8,3.3,5.3,2,6,0.5c0,0,0.3-1.8,0.3-2.3s-1-1.8,1.5-4.8c2.5-3,2.3-3.5,4.5-5.5c2.3-2,4.8-4.8,5-6
		c0,0,1.8-2,2-1.8c0.5,0,2-0.3,3-3.3c0.8-3,0.3-14.9-2.8-17.9c-3-3-17.6-4.5-20.2-3.8c-2.8,0.8-6.6,1.3-6.6,5.5c0,0-2.8,2.5-3,5
		c-0.3,2.5,0.5,2.8,0.5,4.3s-3.5,1.8-0.5,6.8c0,0,0.5,0.3,0.3,2.5c-0.3,2.3,2,3.3,3.5,4c1.5,0.8,5.8,1,7.1,0.3
		C1293.5,426.7,1294.7,426.2,1294.2,429z"/>
</g>
<g>
	<path fill="none" stroke="#E4A224" stroke-width="1.5" stroke-miterlimit="10" d="M1295.2,671.6c0,0,1.5-9.8-1.8-18.9
		c0,0-1-2,0.5-2.5h6.3c0,0,1.5,0.8,1.8,1.5c0.3,0.8,3,6.8,1.5,19.9c0,0-0.8,2.3-2.8,2.5c-2,0-4.8-0.3-4.8-0.3
		S1294.5,673.7,1295.2,671.6z"/>
	<path fill="none" stroke="#E4A224" stroke-width="1.5" stroke-miterlimit="10" d="M1271.5,680.2c0,0-1,2.8-1.5,4.5
		s-2.5,6.6,0.5,9.8c3,3.3,5.3,2,6,0.5c0,0,0.3-1.8,0.3-2.3s-1-1.8,1.5-4.8s2.3-3.5,4.5-5.5c2.3-2,4.8-4.8,5-6c0,0,1.8-2,2-1.8
		c0.5,0,2-0.3,3-3.3c0.8-3,0.3-14.9-2.8-17.9c-3-3-17.6-4.5-20.2-3.8c-2.8,0.8-6.6,1.3-6.6,5.5c0,0-2.8,2.5-3,5s0.5,2.8,0.5,4.3
		c0,1.5-3.5,1.8-0.5,6.8c0,0,0.5,0.3,0.3,2.5c-0.3,2.3,2,3.3,3.5,4s5.8,1,7.1,0.3C1270.5,677.9,1272,677.4,1271.5,680.2z"/>
</g>
<g>
	<path fill="none" stroke="#E4A224" stroke-width="1.5" stroke-miterlimit="10" d="M1241.6,755.3c0,0,1.5-9.8-1.8-18.9
		c0,0-1-2,0.5-2.5h6.3c0,0,1.5,0.8,1.8,1.5c0.3,0.8,3,6.8,1.5,19.9c0,0-0.8,2.3-2.8,2.5c-2,0-4.8-0.3-4.8-0.3
		S1240.5,757.1,1241.6,755.3z"/>
	<path fill="none" stroke="#E4A224" stroke-width="1.5" stroke-miterlimit="10" d="M1217.6,763.6c0,0-1,2.8-1.5,4.5
		c-0.8,1.5-2.5,6.6,0.5,9.8c2.8,3.3,5.3,2,6,0.5c0,0,0.3-1.8,0.3-2.3c0-0.5-1-1.8,1.5-4.8s2.3-3.5,4.5-5.5c2.3-2,4.8-4.8,5-6
		c0,0,1.8-2,2-1.8c0.5,0,2-0.3,3-3.3c0.8-3,0.3-14.9-2.8-17.9c-3-3-17.6-4.5-20.2-3.8s-6.6,1.3-6.6,5.5c0,0-2.8,2.5-3,5
		c-0.3,2.5,0.5,2.8,0.5,4.3c0,1.5-3.5,1.8-0.5,6.8c0,0,0.5,0.3,0.3,2.5c-0.3,2.3,2,3.3,3.5,4c1.5,0.8,5.8,1,7.1,0.3
		C1216.9,761.4,1218.1,760.8,1217.6,763.6z"/>
</g>
<g>
	<path fill="none" stroke="#E4A224" stroke-width="1.5" stroke-miterlimit="10" d="M1371.8,765.6c0,0,1.5-9.8-1.8-18.9
		c0,0-1-2,0.5-2.5h6.3c0,0,1.5,0.8,1.8,1.5c0.3,0.8,3,6.8,1.5,19.9c0,0-0.8,2.3-2.8,2.5c-2,0-4.8-0.3-4.8-0.3
		S1371.1,767.7,1371.8,765.6z"/>
	<path fill="none" stroke="#E4A224" stroke-width="1.5" stroke-miterlimit="10" d="M1348.1,774.2c0,0-1,2.8-1.5,4.5
		c-0.8,1.5-2.5,6.6,0.5,9.8s5.3,2,6,0.5c0,0,0.3-1.8,0.3-2.3c0-0.5-1-1.8,1.5-4.8c2.5-3,2.3-3.5,4.5-5.5c2.3-2,4.8-4.8,5-6
		c0,0,1.8-2,2-1.8c0.3,0.3,2-0.3,3-3.3c0.8-3,0.3-14.9-2.8-17.9c-3-3-17.6-4.5-20.2-3.8c-2.5,0.8-6.6,1.3-6.6,5.5c0,0-2.8,2.5-3,5
		s0.5,2.8,0.5,4.3c0,1.5-3.5,1.8-0.5,6.8c0,0,0.5,0.3,0.3,2.5c-0.3,2.3,2,3.3,3.5,4c1.5,0.8,5.8,1,7.1,0.3
		C1347.1,771.9,1348.6,771.4,1348.1,774.2z"/>
</g>
<g>
	<path fill="none" stroke="#E4A224" stroke-width="1.5" stroke-miterlimit="10" d="M1426.5,671.6c0,0,1.5-9.8-1.8-18.9
		c0,0-1-2,0.5-2.5h6.3c0,0,1.5,0.8,1.8,1.5c0.3,0.8,3,6.8,1.5,19.9c0,0-0.8,2.3-2.8,2.5c-2,0-4.8-0.3-4.8-0.3
		S1425.8,673.7,1426.5,671.6z"/>
	<path fill="none" stroke="#E4A224" stroke-width="1.5" stroke-miterlimit="10" d="M1402.6,680.2c0,0-1,2.8-1.5,4.5
		c-0.8,1.5-2.5,6.6,0.5,9.8c3,3.3,5.3,2,6,0.5c0,0,0.3-1.8,0.3-2.3s-1-1.8,1.5-4.8s2.3-3.5,4.5-5.5s4.8-4.8,5-6c0,0,1.8-2,2-1.8
		c0.5,0,2-0.3,3-3.3c0.8-3,0.3-14.9-2.8-17.9c-3-3-17.6-4.5-20.2-3.8c-2.5,0.8-6.6,1.3-6.6,5.5c0,0-2.8,2.5-3,5s0.5,2.8,0.5,4.3
		c0,1.5-3.5,1.8-0.5,6.8c0,0,0.5,0.3,0.3,2.5c-0.3,2.3,2,3.3,3.5,4c1.5,0.8,5.8,1,7.1,0.3C1401.8,677.9,1403.1,677.4,1402.6,680.2z"
		/>
</g>
<g>
	<path fill="none" stroke="#E4A224" stroke-width="1.5" stroke-miterlimit="10" d="M1166.2,671.6c0,0,1.5-9.8-1.8-18.9
		c0,0-1-2,0.5-2.5h6.3c0,0,1.5,0.8,1.8,1.5c0.3,0.8,3,6.8,1.5,19.9c0,0-0.8,2.3-2.8,2.5c-2,0-4.8-0.3-4.8-0.3
		S1165.2,673.7,1166.2,671.6z"/>
	<path fill="none" stroke="#E4A224" stroke-width="1.5" stroke-miterlimit="10" d="M1142.3,680.2c0,0-1,2.8-1.5,4.5
		c-0.5,1.8-2.5,6.6,0.5,9.8c2.8,3.3,5.3,2,6,0.5c0,0,0.3-1.8,0.3-2.3s-1-1.8,1.5-4.8s2.3-3.5,4.5-5.5c2.3-2,4.8-4.8,5-6
		c0,0,1.8-2,2-1.8c0.5,0,2-0.3,3-3.3c0.8-3,0.3-14.9-2.8-17.9c-3-3-17.6-4.5-20.2-3.8c-2.5,0.8-6.6,1.3-6.6,5.5c0,0-2.8,2.5-3,5
		c-0.3,2.5,0.5,2.8,0.5,4.3c0,1.5-3.5,1.8-0.5,6.8c0,0,0.5,0.3,0.3,2.5c-0.3,2.3,2,3.3,3.5,4s5.8,1,7.1,0.3
		C1141.5,677.9,1142.8,677.4,1142.3,680.2z"/>
</g>
<g>
	<path fill="none" stroke="#E4A224" stroke-width="1.5" stroke-miterlimit="10" d="M1232,591.8c0,0,1.5-9.8-1.8-18.9
		c0,0-1-2,0.5-2.5h6.3c0,0,1.5,0.8,1.8,1.5c0.3,0.8,3,6.8,1.5,19.9c0,0-0.8,2.3-2.8,2.5c-2,0-4.8-0.3-4.8-0.3
		S1231.2,593.5,1232,591.8z"/>
	<path fill="none" stroke="#E4A224" stroke-width="1.5" stroke-miterlimit="10" d="M1208,600.1c0,0-1,2.8-1.5,4.5
		c-0.8,1.5-2.5,6.6,0.5,9.8c3,3.3,5.3,2,6,0.5c0,0,0.3-1.8,0.3-2.3s-1-1.8,1.5-4.8s2.3-3.5,4.5-5.5c2.3-2,4.8-4.8,5-6
		c0,0,1.8-2,2-1.8c0.5,0,2-0.3,3-3.3c0.8-3,0.3-14.9-2.8-17.9c-3-3-17.6-4.5-20.2-3.8s-6.6,1.3-6.6,5.5c0,0-2.8,2.5-3,5
		c-0.3,2.3,0.5,2.8,0.5,4.3c0,1.5-3.5,1.8-0.5,6.8c0,0,0.5,0.3,0.3,2.5c-0.3,2.3,2,3.3,3.5,4s5.8,1,7.1,0.3
		C1207.3,597.8,1208.5,597.3,1208,600.1z"/>
</g>
<g>
	<path fill="none" stroke="#E4A224" stroke-width="1.5" stroke-miterlimit="10" d="M1162.9,504.8c0,0,1.5-9.8-1.8-18.9
		c0,0-1-2,0.5-2.5h6.3c0,0,1.5,0.8,1.8,1.5c0.3,0.8,3,6.8,1.5,19.9c0,0-0.8,2.3-2.8,2.5c-2,0.3-4.8-0.3-4.8-0.3
		S1162.2,506.6,1162.9,504.8z"/>
	<path fill="none" stroke="#E4A224" stroke-width="1.5" stroke-miterlimit="10" d="M1139,513.1c0,0-1,2.8-1.5,4.5
		c-0.8,1.5-2.5,6.6,0.5,9.8c3,3.3,5.3,2,6,0.5c0,0,0.3-1.8,0.3-2.3s-1-1.8,1.5-4.8s2.3-3.5,4.5-5.5c2.3-2,4.8-4.8,5-6
		c0,0,1.8-2,2-1.8c0.5,0,2-0.3,3-3.3s0.3-14.9-2.8-17.9c-3-3-17.6-4.5-20.2-3.8s-6.6,1.3-6.6,5.5c0,0-2.8,2.5-3,5
		c-0.3,2.3,0.5,2.8,0.5,4.3c0,1.5-3.5,1.8-0.5,6.8c0,0,0.5,0.3,0.3,2.5c-0.3,2.3,2,3.3,3.5,4c1.5,0.8,5.8,1,7.1,0.3
		C1138.2,510.9,1139.5,510.4,1139,513.1z"/>
</g>
<g>
	<path fill="none" stroke="#E4A224" stroke-width="1.5" stroke-miterlimit="10" d="M1072.5,595c0,0,1.5-9.8-1.8-18.9
		c0,0-1-2,0.5-2.5h6.3c0,0,1.5,0.8,1.8,1.5c0.3,0.8,3,6.8,1.5,19.9c0,0-0.8,2.3-2.8,2.5c-2,0-4.8-0.3-4.8-0.3
		S1071.7,597.1,1072.5,595z"/>
	<path fill="none" stroke="#E4A224" stroke-width="1.5" stroke-miterlimit="10" d="M1048.5,603.6c0,0-1,2.8-1.5,4.5
		c-0.8,1.5-2.5,6.6,0.5,9.8c2.8,3.3,5.3,2,6,0.5c0,0,0.3-1.8,0.3-2.3s-1-1.8,1.5-4.8c2.5-3,2.3-3.5,4.5-5.5c2.3-2,4.8-4.8,5-6
		c0,0,1.8-2,2-1.8c0.5,0,2-0.3,3-3.3c1-3,0.3-14.9-2.8-17.9c-3-3-17.6-4.5-20.2-3.8c-2.8,0.8-6.6,1.3-6.6,5.5c0,0-2.8,2.5-3,5
		c-0.3,2.3,0.5,2.8,0.5,4.3c0,1.5-3.5,1.8-0.5,6.8c0,0,0.5,0.3,0.3,2.5c-0.3,2.3,2,3.3,3.5,4s5.8,1,7.1,0.3
		C1047.8,601.3,1049,600.8,1048.5,603.6z"/>
</g>
<g>
	<path fill="none" stroke="#E4A224" stroke-width="1.5" stroke-miterlimit="10" d="M1464.8,504.8c0,0,1.5-9.8-1.8-18.9
		c0,0-1-2,0.5-2.5h6.3c0,0,1.5,0.8,1.8,1.5s3,6.8,1.5,19.9c0,0-0.8,2.3-2.8,2.5c-2,0.3-4.8-0.3-4.8-0.3S1464.1,506.6,1464.8,504.8z"
		/>
	<path fill="none" stroke="#E4A224" stroke-width="1.5" stroke-miterlimit="10" d="M1441.1,513.1c0,0-1,2.8-1.5,4.5
		c-0.8,1.5-2.5,6.6,0.5,9.8c3,3.3,5.3,2,6,0.5c0,0,0.3-1.8,0.3-2.3s-1-1.8,1.5-4.8s2.3-3.5,4.5-5.5s4.8-4.8,5-6c0,0,1.8-2,2-1.8
		c0.5,0,2-0.3,3-3.3c0.8-3,0.3-14.9-2.8-17.9c-3-3-17.6-4.5-20.2-3.8s-6.6,1.3-6.6,5.5c0,0-2.8,2.5-3,5c-0.3,2.5,0.5,2.8,0.5,4.3
		c0,1.5-3.5,1.8-0.5,6.8c0,0,0.5,0.3,0.3,2.5c-0.3,2.3,2,3.3,3.5,4c1.5,0.8,5.8,1,7.1,0.3C1440.1,510.9,1441.4,510.4,1441.1,513.1z"
		/>
</g>
<g>
	<path fill="none" stroke="#E4A224" stroke-width="1.5" stroke-miterlimit="10" d="M1757.4,504.8c0,0,1.5-9.8-1.8-18.9
		c0,0-1-2,0.5-2.5h6.3c0,0,1.5,0.8,1.8,1.5c0.3,0.8,3,6.8,1.5,19.9c0,0-0.8,2.3-2.8,2.5c-2,0.3-4.8-0.3-4.8-0.3
		S1756.6,506.6,1757.4,504.8z"/>
	<path fill="none" stroke="#E4A224" stroke-width="1.5" stroke-miterlimit="10" d="M1733.7,513.1c0,0-1,2.8-1.5,4.5
		c-0.8,1.5-2.5,6.6,0.5,9.8c3,3.3,5.3,2,6,0.5c0,0,0.3-1.8,0.3-2.3s-1-1.8,1.5-4.8s2.3-3.5,4.5-5.5s4.8-4.8,5-6c0,0,1.8-2,2-1.8
		c0.5,0,2-0.3,3-3.3s0.3-14.9-2.8-17.9c-3-3-17.6-4.5-20.2-3.8s-6.6,1.3-6.6,5.5c0,0-2.8,2.5-3,5c-0.3,2.3,0.5,2.8,0.5,4.3
		c0,1.5-3.5,1.8-0.5,6.8c0,0,0.5,0.3,0.3,2.5c-0.3,2.3,2,3.3,3.5,4c1.5,0.8,5.8,1,7.1,0.3C1732.7,510.9,1734.2,510.4,1733.7,513.1z"
		/>
</g>
<g>
	<path fill="none" stroke="#E4A224" stroke-width="1.5" stroke-miterlimit="10" d="M1757.4,678.7c0,0,1.5-9.8-1.8-18.9
		c0,0-1-2,0.5-2.5h6.3c0,0,1.5,0.8,1.8,1.5c0.3,0.8,3,6.8,1.5,19.9c0,0-0.8,2.3-2.8,2.5s-4.8-0.3-4.8-0.3S1756.6,680.7,1757.4,678.7
		z"/>
	<path fill="none" stroke="#E4A224" stroke-width="1.5" stroke-miterlimit="10" d="M1733.7,687c0,0-1,2.8-1.5,4.5
		c-0.8,1.5-2.5,6.6,0.5,9.8c3,3.3,5.3,2,6,0.5c0,0,0.3-1.8,0.3-2.3c0-0.5-1-1.8,1.5-4.8s2.3-3.5,4.5-5.5c2.3-2,4.8-4.8,5-6
		c0,0,1.8-2,2-1.8c0.5,0,2-0.3,3-3.3s0.3-14.9-2.8-17.9c-3-3-17.6-4.5-20.2-3.8s-6.6,1.3-6.6,5.5c0,0-2.8,2.5-3,5
		c-0.3,2.3,0.5,2.8,0.5,4.3c0,1.5-3.5,1.8-0.5,6.8c0,0,0.5,0.3,0.3,2.5c-0.3,2.3,2,3.3,3.5,4s5.8,1,7.1,0.3
		C1732.7,684.7,1734.2,684.5,1733.7,687z"/>
</g>
<g>
	<path fill="none" stroke="#E4A224" stroke-width="1.5" stroke-miterlimit="10" d="M1487.5,386.1c0,0,1.5-9.8-1.8-18.9
		c0,0-1-2,0.5-2.5h6.3c0,0,1.5,0.8,1.8,1.5c0.3,0.8,3,6.8,1.5,19.9c0,0-0.8,2.3-2.8,2.5c-2,0-4.8-0.3-4.8-0.3
		S1486.7,388.2,1487.5,386.1z"/>
	<path fill="none" stroke="#E4A224" stroke-width="1.5" stroke-miterlimit="10" d="M1463.8,394.5c0,0-1,2.8-1.5,4.5
		c-0.5,1.8-2.5,6.6,0.5,9.8c2.8,3.3,5.3,2,6,0.5c0,0,0.3-1.8,0.3-2.3s-1-1.8,1.5-4.8c2.5-3,2.3-3.5,4.5-5.5c2.3-2,4.8-4.8,5-6
		c0,0,1.8-2,2-1.8c0.3,0.3,2-0.3,3-3.3c0.8-3,0.3-14.9-2.8-17.9c-3-3-17.6-4.5-20.2-3.8c-2.8,0.8-6.6,1.3-6.6,5.5c0,0-2.8,2.5-3,5
		c-0.3,2.3,0.5,2.8,0.5,4.3s-3.5,1.8-0.5,6.8c0,0,0.5,0.3,0.3,2.5c-0.3,2.3,2,3.3,3.5,4c1.5,0.8,5.8,1,7.1,0.3
		C1462.8,392.2,1464.3,391.9,1463.8,394.5z"/>
</g>
<g>
	<path fill="none" stroke="#E4A224" stroke-width="1.5" stroke-miterlimit="10" d="M1540.4,678.7c0,0,1.5-9.8-1.8-18.9
		c0,0-1-2,0.5-2.5h6.3c0,0,1.5,0.8,1.8,1.5c0.3,0.8,3,6.8,1.5,19.9c0,0-0.8,2.3-2.8,2.5c-2,0.3-4.8-0.3-4.8-0.3
		S1539.7,680.7,1540.4,678.7z"/>
	<path fill="none" stroke="#E4A224" stroke-width="1.5" stroke-miterlimit="10" d="M1516.7,687c0,0-1,2.8-1.5,4.5
		c-0.8,1.5-2.5,6.6,0.5,9.8c3,3.3,5.3,2,6,0.5c0,0,0.3-1.8,0.3-2.3c0-0.5-1-1.8,1.5-4.8s2.3-3.5,4.5-5.5c2.3-2,4.8-4.8,5-6
		c0,0,1.8-2,2-1.8c0.5,0,2-0.3,3-3.3c0.8-3,0.3-14.9-2.8-17.9c-3-3-17.6-4.5-20.2-3.8s-6.6,1.3-6.6,5.5c0,0-2.8,2.5-3,5
		s0.5,2.8,0.5,4.3c0,1.5-3.5,1.8-0.5,6.8c0,0,0.5,0.3,0.3,2.5c-0.3,2.3,2,3.3,3.5,4c1.5,0.8,5.8,1,7.1,0.3
		C1515.7,684.7,1517.2,684.5,1516.7,687z"/>
</g>
<g>
	<path fill="none" stroke="#E4A224" stroke-width="1.5" stroke-miterlimit="10" d="M1540.4,811.2c0,0,1.5-9.8-1.8-18.9
		c0,0-1-2,0.5-2.5h6.3c0,0,1.5,0.8,1.8,1.5c0.3,0.8,3,6.8,1.5,19.9c0,0-0.8,2.3-2.8,2.5c-2,0-4.8-0.3-4.8-0.3
		S1539.7,813,1540.4,811.2z"/>
	<path fill="none" stroke="#E4A224" stroke-width="1.5" stroke-miterlimit="10" d="M1516.7,819.6c0,0-1,2.8-1.5,4.5
		c-0.8,1.5-2.5,6.6,0.5,9.8s5.3,2,6,0.5c0,0,0.3-1.8,0.3-2.3c0-0.5-1-1.8,1.5-4.8c2.5-3,2.3-3.5,4.5-5.5c2.3-2,4.8-4.8,5-6
		c0,0,1.8-2,2-1.8s2-0.3,3-3.3c0.8-3,0.3-14.9-2.8-17.9c-3-3-17.6-4.5-20.2-3.8c-2.5,0.8-6.6,1.3-6.6,5.5c0,0-2.8,2.5-3,5
		s0.5,2.8,0.5,4.3c0,1.5-3.5,1.8-0.5,6.8c0,0,0.5,0.3,0.3,2.5s2,3.3,3.5,4c1.5,0.8,5.8,1,7.1,0.3
		C1515.7,817.3,1517.2,816.8,1516.7,819.6z"/>
</g>
<g>
	<path fill="none" stroke="#E4A224" stroke-width="1.5" stroke-miterlimit="10" d="M358.1,744.7c0,0-1.5,9.8,1.8,18.9
		c0,0,1,2-0.5,2.5H353c0,0-1.5-0.8-1.8-1.5c-0.3-0.8-3-6.8-1.5-19.9c0,0,0.8-2.3,2.8-2.5s4.8,0.3,4.8,0.3S358.8,742.7,358.1,744.7z"
		/>
	<path fill="none" stroke="#E4A224" stroke-width="1.5" stroke-miterlimit="10" d="M382,736.2c0,0,1-2.8,1.5-4.5
		c0.8-1.5,2.5-6.6-0.5-9.8c-2.8-3.3-5.3-2-6-0.5c0,0-0.3,1.8-0.3,2.3s1,1.8-1.5,4.8s-2.3,3.5-4.5,5.5c-2.3,2-4.8,4.8-5,6
		c0,0-1.8,2-2,1.8s-2,0.3-3,3.3s-0.3,14.9,2.8,17.9c3,3,17.6,4.5,20.2,3.8c2.5-0.8,6.6-1.3,6.6-5.5c0,0,2.8-2.5,3-5
		c0.3-2.3-0.5-2.8-0.5-4.3c0-1.5,3.5-1.8,0.5-6.8c0,0-0.5-0.3-0.3-2.5c0.3-2.3-2-3.3-3.5-4s-5.8-1-7.1-0.3
		C382.8,738.4,381.5,738.9,382,736.2z"/>
</g>
<g>
	<path fill="none" stroke="#E4A224" stroke-width="1.5" stroke-miterlimit="10" d="M248.7,527.3c0,0-1.5,9.8,1.8,18.9
		c0,0,1,2-0.5,2.5h-6.3c0,0-1.5-0.8-1.8-1.5c-0.3-0.8-3-6.8-1.5-19.9c0,0,0.8-2.3,2.8-2.5c2-0.3,4.8,0.3,4.8,0.3
		S249.5,525.2,248.7,527.3z"/>
	<path fill="none" stroke="#E4A224" stroke-width="1.5" stroke-miterlimit="10" d="M272.7,518.7c0,0,1-2.8,1.5-4.5
		c0.8-1.5,2.5-6.6-0.5-9.8c-2.8-3.3-5.3-2-6-0.5c0,0-0.3,1.8-0.3,2.3s1,1.8-1.5,4.8s-2.3,3.5-4.5,5.5s-4.8,4.8-5,6c0,0-1.8,2-2,1.8
		c-0.5,0-2,0.3-3,3.3c-0.8,3-0.3,14.9,2.8,17.9c3,3,17.6,4.5,20.2,3.8c2.8-0.8,6.6-1.3,6.6-5.5c0,0,2.8-2.5,3-5
		c0.3-2.3-0.5-2.8-0.5-4.3c0-1.5,3.5-1.8,0.5-6.8c0,0-0.5-0.3-0.3-2.5s-2-3.3-3.5-4s-5.8-1-7.1-0.3
		C273.4,521,272.1,521.5,272.7,518.7z"/>
</g>
<g>
	<path fill="none" stroke="#E4A224" stroke-width="1.5" stroke-miterlimit="10" d="M121.2,435.8c0,0-1.5,9.8,1.8,18.9
		c0,0,1,2-0.5,2.5h-6.3c0,0-1.5-0.8-1.8-1.5c-0.3-0.8-3-6.8-1.5-19.9c0,0,0.8-2.3,2.8-2.5c2,0,4.8,0.3,4.8,0.3S122,434,121.2,435.8z
		"/>
	<path fill="none" stroke="#E4A224" stroke-width="1.5" stroke-miterlimit="10" d="M144.9,427.5c0,0,1-2.8,1.5-4.5
		c0.8-1.5,2.5-6.6-0.5-9.8c-3-3.3-5.3-2-6-0.5c0,0-0.3,1.8-0.3,2.3c0,0.5,1,1.8-1.5,4.8c-2.5,3-2.3,3.5-4.5,5.5c-2.3,2-4.8,4.8-5,6
		c0,0-1.8,2-2,1.8c-0.5,0-2,0.3-3,3.3c-0.8,3-0.3,14.9,2.8,17.9c3,3,17.6,4.5,20.2,3.8c2.8-0.8,6.6-1.3,6.6-5.5c0,0,2.8-2.5,3-5
		c0.3-2.3-0.5-2.8-0.5-4.3s3.5-1.8,0.5-6.8c0,0-0.5-0.3-0.3-2.5c0.3-2.3-2-3.3-3.5-4c-1.5-0.8-5.8-1-7.1-0.3
		C145.9,429.7,144.4,430.2,144.9,427.5z"/>
</g>
<g>
	<path fill="none" stroke="#E4A224" stroke-width="1.5" stroke-miterlimit="10" d="M126.8,733.6c0,0-1.5,9.8,1.8,18.9
		c0,0,1,2-0.5,2.5h-6.3c0,0-1.5-0.8-1.8-1.5c-0.3-0.8-3-6.8-1.5-19.9c0,0,0.8-2.3,2.8-2.5c2,0,4.8,0.3,4.8,0.3
		S127.5,731.6,126.8,733.6z"/>
	<path fill="none" stroke="#E4A224" stroke-width="1.5" stroke-miterlimit="10" d="M150.7,725.1c0,0,1-2.8,1.5-4.5
		c0.8-1.5,2.5-6.6-0.5-9.8c-2.8-3.3-5.3-2-6-0.5c0,0-0.3,1.8-0.3,2.3s1,1.8-1.5,4.8s-2.3,3.5-4.5,5.5s-4.8,4.8-5,6c0,0-1.8,2-2,1.8
		s-2,0.3-3,3.3c-0.8,3-0.3,14.9,2.8,17.9c3,3,17.6,4.5,20.2,3.8c2.8-0.8,6.6-1.3,6.6-5.5c0,0,2.8-2.5,3-5c0.3-2.3-0.5-2.8-0.5-4.3
		c0-1.5,3.5-1.8,0.5-6.8c0,0-0.5-0.3-0.3-2.5c0.3-2.3-2-3.3-3.5-4s-5.8-1-7.1-0.3C151.4,727.3,150.2,727.8,150.7,725.1z"/>
</g>
<g>
	<path fill="none" stroke="#E4A224" stroke-width="1.5" stroke-miterlimit="10" d="M700.8,507.6c0,0-1.5,9.8,1.8,18.9
		c0,0,1,2-0.5,2.5h-6.3c0,0-1.5-0.8-1.8-1.5s-3-6.8-1.5-19.9c0,0,0.8-2.3,2.8-2.5c2,0,4.8,0.3,4.8,0.3S701.5,505.8,700.8,507.6z"/>
	<path fill="none" stroke="#E4A224" stroke-width="1.5" stroke-miterlimit="10" d="M724.7,499.3c0,0,1-2.8,1.5-4.5
		c0.8-1.5,2.5-6.6-0.5-9.8s-5.3-2-6-0.5c0,0-0.3,1.8-0.3,2.3s1,1.8-1.5,4.8c-2.5,3-2.3,3.5-4.5,5.5s-4.8,4.8-5,6c0,0-1.8,2-2,1.8
		c-0.5,0-2,0.3-3,3.3c-0.8,3-0.3,14.9,2.8,17.9c3,3,17.6,4.5,20.2,3.8s6.6-1.3,6.6-5.5c0,0,2.8-2.5,3-5s-0.5-2.8-0.5-4.3
		c0-1.5,3.5-1.8,0.5-6.8c0,0-0.5-0.3-0.3-2.5s-2-3.3-3.5-4c-1.5-0.8-5.8-1-7.1-0.3C725.5,501.6,724.2,502.1,724.7,499.3z"/>
</g>
<g>
	<path fill="none" stroke="#E4A224" stroke-width="1.5" stroke-miterlimit="10" d="M417,670.4c0,0-1.5,9.8,1.8,18.9c0,0,1,2-0.5,2.5
		H412c0,0-1.5-0.8-1.8-1.5c-0.3-0.8-3-6.8-1.5-19.9c0,0,0.8-2.3,2.8-2.5c2-0.3,4.8,0.3,4.8,0.3S417.8,668.4,417,670.4z"/>
	<path fill="none" stroke="#E4A224" stroke-width="1.5" stroke-miterlimit="10" d="M440.7,661.8c0,0,1-2.8,1.5-4.5
		c0.8-1.5,2.5-6.6-0.5-9.8c-3-3.3-5.3-2-6-0.5c0,0-0.3,1.8-0.3,2.3s1,1.8-1.5,4.8s-2.3,3.5-4.5,5.5c-2.3,2-4.8,4.8-5,6
		c0,0-1.8,2-2,1.8c-0.3-0.3-2,0.3-3,3.3s-0.3,14.9,2.8,17.9c3,3,17.6,4.5,20.2,3.8c2.8-0.8,6.6-1.3,6.6-5.5c0,0,2.8-2.5,3-5
		c0.3-2.3-0.5-2.8-0.5-4.3s3.5-1.8,0.5-6.8c0,0-0.5-0.3-0.3-2.5c0.3-2.3-2-3.3-3.5-4c-1.5-0.8-5.8-1-7.1-0.3
		C441.7,664.3,440.2,664.6,440.7,661.8z"/>
</g>
<g>
	<path fill="none" stroke="#E4A224" stroke-width="1.5" stroke-miterlimit="10" d="M394.1,596c0,0-1.5,9.8,1.8,18.9c0,0,1,2-0.5,2.5
		h-6.3c0,0-1.5-0.8-1.8-1.5c-0.3-0.8-3-6.8-1.5-19.9c0,0,0.8-2.3,2.8-2.5c2,0,4.8,0.3,4.8,0.3S395.1,594,394.1,596z"/>
	<path fill="none" stroke="#E4A224" stroke-width="1.5" stroke-miterlimit="10" d="M418.1,587.5c0,0,1-2.8,1.5-4.5
		c0.8-1.5,2.5-6.6-0.5-9.8c-2.8-3.3-5.3-2-6-0.5c0,0-0.3,1.8-0.3,2.3c0,0.5,1,1.8-1.5,4.8c-2.5,3-2.3,3.5-4.5,5.5
		c-2.3,2-4.8,4.8-5,6c0,0-1.8,2-2,1.8c-0.5,0-2,0.3-3,3.3c-0.8,3-0.3,14.9,2.8,17.9c3,3,17.6,4.5,20.2,3.8c2.5-0.8,6.6-1.3,6.6-5.5
		c0,0,2.8-2.5,3-5c0.3-2.3-0.5-2.8-0.5-4.3c0-1.5,3.5-1.8,0.5-6.8c0,0-0.5-0.3-0.3-2.5c0.3-2.3-2-3.3-3.5-4c-1.5-0.8-5.8-1-7.1-0.3
		C418.8,590,417.5,590.3,418.1,587.5z"/>
</g>
<g>
	<path fill="none" stroke="#E4A224" stroke-width="1.5" stroke-miterlimit="10" d="M438.7,521c0,0-1.5,9.8,1.8,18.9c0,0,1,2-0.5,2.5
		h-6.3c0,0-1.5-0.8-1.8-1.5s-3-6.8-1.5-19.9c0,0,0.8-2.3,2.8-2.5c2,0,4.8,0.3,4.8,0.3S439.7,518.9,438.7,521z"/>
	<path fill="none" stroke="#E4A224" stroke-width="1.5" stroke-miterlimit="10" d="M462.7,512.4c0,0,1-2.8,1.5-4.5
		c0.8-1.5,2.5-6.6-0.5-9.8c-2.8-3.3-5.3-2-6-0.5c0,0-0.3,1.8-0.3,2.3c0,0.5,1,1.8-1.5,4.8s-2.3,3.5-4.5,5.5c-2.3,2-4.8,4.8-5,6
		c0,0-1.8,2-2,1.8c-0.5,0-2,0.3-3,3.3s-0.3,14.9,2.8,17.9c3,3,17.6,4.5,20.2,3.8c2.5-0.8,6.6-1.3,6.6-5.5c0,0,2.8-2.5,3-5
		c0.3-2.5-0.5-2.8-0.5-4.3c0-1.5,3.5-1.8,0.5-6.8c0,0-0.5-0.3-0.3-2.5s-2-3.3-3.5-4s-5.8-1-7.1-0.3
		C463.4,514.7,462.1,515.2,462.7,512.4z"/>
</g>
<g>
	<path fill="none" stroke="#E4A224" stroke-width="1.5" stroke-miterlimit="10" d="M292.6,412.1c0,0-1.5,9.8,1.8,18.9
		c0,0,1,2-0.5,2.5h-6.3c0,0-1.5-0.8-1.8-1.5c-0.3-0.8-3-6.8-1.5-19.9c0,0,0.8-2.3,2.8-2.5c2,0,4.8,0.3,4.8,0.3
		S293.6,410.1,292.6,412.1z"/>
	<path fill="none" stroke="#E4A224" stroke-width="1.5" stroke-miterlimit="10" d="M316.5,403.8c0,0,1-2.8,1.5-4.5
		c0.8-1.5,2.5-6.6-0.5-9.8c-2.8-3.3-5.3-2-6-0.5c0,0-0.3,1.8-0.3,2.3c0,0.5,1,1.8-1.5,4.8c-2.5,3-2.3,3.5-4.5,5.5
		c-2.3,2-4.8,4.8-5,6c0,0-1.8,2-2,1.8c-0.5,0-2,0.3-3,3.3c-0.8,3-0.3,14.9,2.8,17.9s17.6,4.5,20.2,3.8c2.8-0.8,6.6-1.3,6.6-5.5
		c0,0,2.8-2.5,3-5c0.3-2.3-0.5-2.8-0.5-4.3s3.5-1.8,0.5-6.8c0,0-0.5-0.3-0.3-2.5c0.3-2.3-2-3.3-3.5-4c-1.5-0.8-5.8-1-7.1-0.3
		C317.3,406,316,406.3,316.5,403.8z"/>
</g>
<g>
	<path fill="none" stroke="#E4A224" stroke-width="1.5" stroke-miterlimit="10" d="M710.6,744.7c0,0-1.5,9.8,1.8,18.9
		c0,0,1,2-0.5,2.5h-6.3c0,0-1.5-0.8-1.8-1.5c-0.3-0.8-3-6.8-1.5-19.9c0,0,0.8-2.3,2.8-2.5c2,0,4.8,0.3,4.8,0.3
		S711.4,742.7,710.6,744.7z"/>
	<path fill="none" stroke="#E4A224" stroke-width="1.5" stroke-miterlimit="10" d="M734.3,736.2c0,0,1-2.8,1.5-4.5
		c0.8-1.5,2.5-6.6-0.5-9.8c-3-3.3-5.3-2-6-0.5c0,0-0.3,1.8-0.3,2.3s1,1.8-1.5,4.8c-2.5,3-2.3,3.5-4.5,5.5s-4.8,4.8-5,6
		c0,0-1.8,2-2,1.8c-0.5,0-2,0.3-3,3.3c-0.8,3-0.3,14.9,2.8,17.9c3,3,17.6,4.5,20.2,3.8c2.5-0.8,6.6-1.3,6.6-5.5c0,0,2.8-2.5,3-5
		c0.3-2.3-0.5-2.8-0.5-4.3c0-1.5,3.5-1.8,0.5-6.8c0,0-0.5-0.3-0.3-2.5c0.3-2.3-2-3.3-3.5-4s-5.8-1-7.1-0.3
		C735.3,738.4,734,738.9,734.3,736.2z"/>
</g>
<g>
	<path fill="none" stroke="#E4A224" stroke-width="1.5" stroke-miterlimit="10" d="M855.5,694.1c0,0-1.5,9.8,1.8,18.9
		c0,0,1,2-0.5,2.5h-6.3c0,0-1.5-0.8-1.8-1.5c-0.3-0.8-3-6.8-1.5-19.9c0,0,0.8-2.3,2.8-2.5c2,0,4.8,0.3,4.8,0.3
		S856.5,692.1,855.5,694.1z"/>
	<path fill="none" stroke="#E4A224" stroke-width="1.5" stroke-miterlimit="10" d="M879.4,685.8c0,0,1-2.8,1.5-4.5
		c0.5-1.8,2.5-6.6-0.5-9.8c-3-3.3-5.3-2-6-0.5c0,0-0.3,1.8-0.3,2.3s1,1.8-1.5,4.8s-2.3,3.5-4.5,5.5s-4.8,4.8-5,6c0,0-1.8,2-2,1.8
		c-0.5,0-2,0.3-3,3.3c-0.8,3-0.3,14.9,2.8,17.9c3,3,17.6,4.5,20.2,3.8s6.6-1.3,6.6-5.5c0,0,2.8-2.5,3-5c0.3-2.3-0.5-2.8-0.5-4.3
		c0-1.5,3.5-1.8,0.5-6.8c0,0-0.5-0.3-0.3-2.5s-2-3.3-3.5-4s-5.8-1-7.1-0.3C880.2,688,878.9,688.3,879.4,685.8z"/>
</g>
<path fill="#FFFFFF" d="M274.9,613.4c0,0-6,36,6.3,69.8c0,0,4.3,7.8-1.5,9.1h-23.2c0,0-5.3-2.8-6.6-5.3s-11.3-24.9-6-73.6
	c0,0,2.8-8.6,9.8-8.8c7.1-0.3,17.9,0.8,17.9,0.8S277.9,606.6,274.9,613.4z"/>
<path fill="#FFFFFF" d="M362.9,582.7c0,0,3.5-10.6,6-16.4c2.3-6,8.8-24.4-1.5-36.5c-10.3-12.1-19.4-7.6-21.9-1.5
	c0,0-1.3,6.6-1.3,8.6c0,2,3.3,6.8-6,17.6c-9.3,10.8-8.1,13.4-16.6,20.7c-8.6,7.3-17.1,17.4-18.1,22.4c0,0-6.3,7.3-7.8,7.1
	s-7.8,0.8-10.6,11.6c-2.8,10.8-1,54.7,10.3,66c11.3,11.6,64.8,16.6,74.6,14.1c9.8-2.5,23.9-4.8,23.7-20.2c0,0,10.3-9.8,11.1-18.4
	c0.5-8.6-1.8-10.1-1.5-16.1c0.3-6,13.4-6.3,1.5-25.2c0,0-1.5-1-0.8-9.1c0.8-8.1-7.1-12.3-12.9-15.1c-5.8-2.8-21.7-3.5-25.5-1.3
	C365.9,591.3,361.1,592.8,362.9,582.7z"/>
<path fill="#FFFFFF" d="M1638.7,605.9c0,0,6-36-6.3-69.8c0,0-4.3-7.8,1.5-9.1h23.2c0,0,5.3,2.8,6.6,5.3c1.3,2.5,11.3,24.9,6,73.6
	c0,0-2.8,8.6-9.8,8.8c-7.1,0.3-17.9-0.8-17.9-0.8S1635.7,612.9,1638.7,605.9z"/>
<path fill="#FFFFFF" d="M1550.7,636.6c0,0-3.5,10.6-6,16.4c-2.5,5.8-8.8,24.4,1.5,36.5c10.3,12.1,19.4,7.6,21.9,1.5
	c0,0,1.3-6.6,1.3-8.6c0-2-3.3-6.8,6-17.6c9.3-10.8,8.1-13.4,16.6-20.7c8.6-7.6,17.1-17.4,18.1-22.4c0,0,6.3-7.3,7.8-7.1
	c1.5,0.3,7.8-0.8,10.6-11.6c3-10.8,1-54.7-10.3-66c-11.3-11.6-64.8-16.6-74.6-14.1c-9.8,2.5-23.9,4.8-23.7,20.2
	c0,0-10.3,9.8-11.1,18.4c-0.5,8.6,1.8,10.1,1.5,16.1c-0.3,6-13.4,6.3-1.5,25.2c0,0,1.5,1,0.8,9.1c-1,8.1,7.1,12.3,12.9,15.1
	c5.5,2.8,21.7,3.5,25.5,1.3C1547.7,628.3,1552.5,626.8,1550.7,636.6z"/>
<g>
	<path fill="#FFFFFF" d="M427,693.2v-62.4h36.4v6h-30.2V658h20.4v5.9h-20.4v29.3H427z"/>
	<path fill="#FFFFFF" d="M497.3,694.3c-4.8,0-8.9-1-12.2-2.9c-3.3-1.9-6-4.4-8-7.5c-2-3.1-3.5-6.5-4.4-10.4
		c-0.9-3.8-1.3-7.7-1.3-11.5c0-3.9,0.4-7.7,1.3-11.5c0.9-3.8,2.3-7.3,4.4-10.4c2-3.1,4.7-5.6,8-7.5c3.3-1.9,7.4-2.9,12.2-2.9
		c4.8,0,8.9,1,12.2,2.9c3.3,1.9,6,4.4,8,7.5c2,3.1,3.5,6.5,4.4,10.4c0.9,3.8,1.3,7.7,1.3,11.5c0,3.9-0.4,7.7-1.3,11.5
		c-0.9,3.8-2.3,7.3-4.4,10.4c-2,3.1-4.7,5.6-8,7.5C506.2,693.3,502.1,694.3,497.3,694.3z M497.3,688.7c3.6,0,6.6-0.8,9-2.4
		c2.5-1.6,4.5-3.7,6-6.2c1.5-2.6,2.6-5.4,3.3-8.6c0.7-3.2,1-6.3,1-9.4c0-3.4-0.3-6.7-1-9.9c-0.7-3.2-1.8-6-3.3-8.5s-3.5-4.5-6-6
		c-2.5-1.5-5.5-2.3-9-2.3c-3.6,0-6.6,0.8-9,2.4c-2.5,1.6-4.5,3.7-6,6.2c-1.5,2.6-2.6,5.4-3.3,8.6c-0.7,3.2-1,6.3-1,9.4
		c0,3.4,0.3,6.7,1,9.9c0.7,3.2,1.8,6,3.3,8.5c1.5,2.5,3.5,4.5,6,6C490.7,687.9,493.7,688.7,497.3,688.7z"/>
	<path fill="#FFFFFF" d="M580.9,648c0,1.9-0.3,3.8-0.8,5.6c-0.5,1.8-1.4,3.5-2.6,5.1c-1.2,1.6-2.8,2.9-4.8,4.1
		c-2,1.1-4.4,1.9-7.2,2.3l13.8,28.2h-6.9L559,665.3H545v27.9h-6.2v-62.4h22.9c3.7,0,6.8,0.5,9.2,1.5c2.5,1,4.4,2.3,5.9,3.9
		c1.5,1.6,2.5,3.4,3.2,5.5C580.5,643.8,580.9,645.9,580.9,648z M561.8,659.7c2.4,0,4.5-0.3,6.1-1c1.7-0.7,3-1.6,4.1-2.6
		c1-1.1,1.8-2.3,2.2-3.7c0.4-1.4,0.7-2.8,0.7-4.2c0-1.2-0.2-2.6-0.6-3.9c-0.4-1.4-1.1-2.6-2.1-3.8s-2.3-2.1-4-2.9
		c-1.7-0.8-3.8-1.2-6.4-1.2H545v23.3H561.8z"/>
	<path fill="#FFFFFF" d="M645.9,641.6c-0.8-1.7-2.2-3.1-4.1-4.4c-2-1.2-4.6-1.9-7.7-1.9c-3.7,0-6.5,0.8-8.6,2.4
		c-2,1.6-3.1,3.7-3.1,6.4c0,1.7,0.4,3.1,1.2,4.3c0.8,1.2,1.9,2.3,3.2,3.3c1.3,1,2.9,1.9,4.6,2.6c1.7,0.8,3.5,1.5,5.3,2.2
		c2.1,0.8,4.3,1.8,6.4,2.9c2.1,1.1,4.1,2.5,5.8,4.1c1.7,1.6,3.1,3.5,4.2,5.7c1.1,2.2,1.6,4.7,1.6,7.6c0,2.8-0.5,5.3-1.5,7.4
		c-1,2.1-2.3,3.9-4.1,5.4c-1.7,1.5-3.8,2.6-6.2,3.3c-2.4,0.8-5.1,1.2-7.9,1.2c-2.6,0-5-0.3-7.3-1c-2.3-0.7-4.3-1.6-6.1-2.8
		c-1.8-1.2-3.3-2.5-4.6-4c-1.3-1.5-2.2-3.1-2.8-4.9l5.9-2.1c1.2,2.7,3.2,4.9,5.7,6.6c2.6,1.7,5.7,2.5,9.2,2.5c4.1,0,7.3-1,9.7-2.9
		c2.3-2,3.5-4.8,3.5-8.6c0-1.9-0.4-3.6-1.2-5.1c-0.8-1.5-1.8-2.9-3.1-4c-1.3-1.2-2.8-2.2-4.5-3c-1.7-0.9-3.5-1.6-5.3-2.4
		c-2.2-0.8-4.4-1.8-6.5-2.8c-2.2-1-4.1-2.3-5.9-3.7c-1.8-1.5-3.2-3.1-4.2-5c-1.1-1.9-1.6-4.2-1.6-6.8c0-2,0.4-3.8,1.2-5.6
		c0.8-1.8,2-3.3,3.6-4.6c1.6-1.3,3.5-2.3,5.7-3.1c2.3-0.8,4.8-1.2,7.8-1.2c4.6,0,8.4,0.9,11.5,2.8c3.1,1.9,5,4.2,5.9,7.1
		L645.9,641.6z"/>
	<path fill="#FFFFFF" d="M693.5,694.3c-4.8,0-8.9-1-12.2-2.9c-3.3-1.9-6-4.4-8-7.5c-2-3.1-3.5-6.5-4.4-10.4
		c-0.9-3.8-1.3-7.7-1.3-11.5c0-3.9,0.4-7.7,1.3-11.5c0.9-3.8,2.3-7.3,4.4-10.4c2-3.1,4.7-5.6,8-7.5c3.3-1.9,7.4-2.9,12.2-2.9
		c4.8,0,8.9,1,12.2,2.9c3.3,1.9,6,4.4,8,7.5c2,3.1,3.5,6.5,4.4,10.4c0.9,3.8,1.3,7.7,1.3,11.5c0,3.9-0.4,7.7-1.3,11.5
		c-0.9,3.8-2.3,7.3-4.4,10.4c-2,3.1-4.7,5.6-8,7.5C702.3,693.3,698.3,694.3,693.5,694.3z M693.5,688.7c3.6,0,6.6-0.8,9-2.4
		c2.5-1.6,4.5-3.7,6-6.2c1.5-2.6,2.6-5.4,3.3-8.6c0.7-3.2,1-6.3,1-9.4c0-3.4-0.3-6.7-1-9.9c-0.7-3.2-1.8-6-3.3-8.5s-3.5-4.5-6-6
		c-2.5-1.5-5.5-2.3-9-2.3c-3.6,0-6.6,0.8-9,2.4c-2.5,1.6-4.5,3.7-6,6.2c-1.5,2.6-2.6,5.4-3.3,8.6c-0.7,3.2-1,6.3-1,9.4
		c0,3.4,0.3,6.7,1,9.9c0.7,3.2,1.8,6,3.3,8.5c1.5,2.5,3.5,4.5,6,6C686.9,687.9,689.9,688.7,693.5,688.7z"/>
	<path fill="#FFFFFF" d="M757.6,694.3c-4.6,0-8.6-0.9-11.8-2.8c-3.3-1.8-5.9-4.3-8-7.3c-2.1-3-3.6-6.4-4.5-10.3
		c-1-3.9-1.4-7.8-1.4-11.9c0-4.3,0.5-8.4,1.5-12.3c1-3.9,2.6-7.3,4.7-10.3c2.1-3,4.8-5.3,8-7.1c3.2-1.8,7.1-2.6,11.6-2.6
		c2.8,0,5.2,0.3,7.3,0.8c2,0.6,3.8,1.3,5.3,2.3c1.5,1,2.7,2,3.8,3.3c1,1.2,1.9,2.5,2.7,3.7l-5.5,3.2c-0.7-1-1.5-2-2.3-2.9
		s-1.7-1.7-2.8-2.5c-1.1-0.7-2.3-1.3-3.7-1.7c-1.4-0.4-3-0.6-4.8-0.6c-3.6,0-6.6,0.8-9,2.4c-2.5,1.6-4.5,3.7-6,6.2
		c-1.5,2.6-2.6,5.4-3.3,8.6c-0.7,3.2-1,6.3-1,9.4c0,3.4,0.4,6.8,1.1,10c0.7,3.2,1.9,6,3.4,8.5c1.5,2.5,3.5,4.4,6,5.9
		c2.5,1.5,5.4,2.2,8.8,2.2c3.7,0,6.7-0.7,9-2.2c2.2-1.5,4.1-3.4,5.5-5.7l5.5,2.1c-0.7,1.4-1.6,2.8-2.8,4.2c-1.2,1.4-2.6,2.6-4.2,3.7
		c-1.6,1.1-3.5,1.9-5.7,2.6C762.7,694,760.3,694.3,757.6,694.3z"/>
	<path fill="#FFFFFF" d="M792.3,693.2v-62.4h6.2v62.4H792.3z"/>
	<path fill="#FFFFFF" d="M853.4,693.2l-5.7-16.1h-24.3l-5.4,16.1h-6.5l21.6-62.4h4.8l21.8,62.4H853.4z M845.8,671.6l-8.6-24.9
		c-0.3-0.8-0.6-1.8-1-2.9c-0.4-1.2-0.6-2.1-0.8-2.7c-0.2,0.6-0.4,1.5-0.8,2.7c-0.3,1.2-0.6,2.2-0.9,2.9l-8.6,24.9H845.8z"/>
	<path fill="#FFFFFF" d="M872.6,693.2v-62.4h6.2v56.4h30.9v6H872.6z"/>
	<path fill="#FFFFFF" d="M987.9,693.2v-46.1l-20.8,47.2l-19.4-47v45.9h-6.2v-62.4h5.3l20.8,48.6l21.1-48.6h5.4v62.4H987.9z"/>
	<path fill="#FFFFFF" d="M1012.8,693.2v-62.4h35.5v6h-29.3V658h19.8v5.9h-19.8v23.3h31.3v6H1012.8z"/>
	<path fill="#FFFFFF" d="M1065.9,630.9h16.6c5.3,0,9.7,0.9,13.3,2.7c3.6,1.8,6.5,4.2,8.7,7.1c2.2,2.9,3.8,6.3,4.8,10
		c0.9,3.7,1.4,7.5,1.4,11.4c0,3.6-0.4,7.2-1.3,10.9c-0.9,3.7-2.4,7.1-4.6,10.1c-2.2,3-5.1,5.5-8.8,7.4c-3.7,1.9-8.3,2.9-13.9,2.9
		h-16.2V630.9z M1082.6,687.6c4.2,0,7.6-0.8,10.4-2.3c2.8-1.5,5-3.5,6.7-6c1.7-2.5,2.8-5.2,3.5-8.2c0.7-3,1-6.1,1-9.1
		c0-3.2-0.4-6.4-1.2-9.4c-0.8-3.1-2-5.8-3.7-8.2c-1.7-2.4-3.8-4.3-6.4-5.7c-2.6-1.5-5.8-2.2-9.4-2.2h-11.4v51.1H1082.6z"/>
	<path fill="#FFFFFF" d="M1126.3,693.2v-62.4h6.2v62.4H1126.3z"/>
	<path fill="#FFFFFF" d="M1187.5,693.2l-5.7-16.1h-24.3l-5.4,16.1h-6.5l21.6-62.4h4.8l21.8,62.4H1187.5z M1179.9,671.6l-8.6-24.9
		c-0.3-0.8-0.6-1.8-1-2.9c-0.4-1.2-0.6-2.1-0.8-2.7c-0.2,0.6-0.4,1.5-0.8,2.7c-0.3,1.2-0.6,2.2-0.9,2.9l-8.6,24.9H1179.9z"/>
	<path fill="#FFFFFF" d="M1225.4,693.2v-62.4h22.8c3.7,0,6.9,0.5,9.4,1.6c2.5,1.1,4.5,2.5,6.1,4.2c1.5,1.7,2.6,3.7,3.3,5.9
		c0.7,2.2,1,4.4,1,6.7c0,2.1-0.4,4.2-1.1,6.4c-0.7,2.2-1.8,4.1-3.4,5.9c-1.5,1.8-3.6,3.2-6.1,4.3c-2.5,1.1-5.6,1.7-9.1,1.7h-16.6
		v25.7H1225.4z M1248.8,661.9c2.4,0,4.5-0.4,6.2-1.2c1.7-0.8,3.1-1.8,4.1-2.9c1-1.2,1.8-2.5,2.2-4.1s0.7-3,0.7-4.5
		c0-1.4-0.2-2.8-0.6-4.3c-0.4-1.5-1.1-2.9-2.1-4.1c-1-1.2-2.4-2.3-4.1-3.1c-1.7-0.8-3.8-1.2-6.5-1.2h-17.1v25.4H1248.8z"/>
	<path fill="#FFFFFF" d="M1301.8,694.3c-4.8,0-8.9-1-12.2-2.9c-3.3-1.9-6-4.4-8-7.5c-2-3.1-3.5-6.5-4.4-10.4
		c-0.9-3.8-1.3-7.7-1.3-11.5c0-3.9,0.4-7.7,1.3-11.5c0.9-3.8,2.3-7.3,4.4-10.4c2-3.1,4.7-5.6,8-7.5c3.3-1.9,7.4-2.9,12.2-2.9
		s8.9,1,12.2,2.9c3.3,1.9,6,4.4,8,7.5c2,3.1,3.5,6.5,4.4,10.4s1.3,7.7,1.3,11.5c0,3.9-0.4,7.7-1.3,11.5s-2.3,7.3-4.4,10.4
		c-2,3.1-4.7,5.6-8,7.5C1310.6,693.3,1306.6,694.3,1301.8,694.3z M1301.8,688.7c3.6,0,6.6-0.8,9-2.4c2.5-1.6,4.5-3.7,6-6.2
		c1.5-2.6,2.6-5.4,3.3-8.6c0.7-3.2,1-6.3,1-9.4c0-3.4-0.3-6.7-1-9.9c-0.7-3.2-1.8-6-3.3-8.5s-3.5-4.5-6-6c-2.5-1.5-5.5-2.3-9-2.3
		s-6.6,0.8-9,2.4s-4.5,3.7-6,6.2c-1.5,2.6-2.6,5.4-3.3,8.6c-0.7,3.2-1,6.3-1,9.4c0,3.4,0.3,6.7,1,9.9c0.7,3.2,1.8,6,3.3,8.5
		c1.5,2.5,3.5,4.5,6,6S1298.2,688.7,1301.8,688.7z"/>
	<path fill="#FFFFFF" d="M1371.3,641.6c-0.8-1.7-2.2-3.1-4.1-4.4c-2-1.2-4.6-1.9-7.7-1.9c-3.7,0-6.5,0.8-8.6,2.4s-3.1,3.7-3.1,6.4
		c0,1.7,0.4,3.1,1.2,4.3c0.8,1.2,1.9,2.3,3.2,3.3c1.3,1,2.9,1.9,4.6,2.6c1.7,0.8,3.5,1.5,5.3,2.2c2.1,0.8,4.3,1.8,6.4,2.9
		c2.1,1.1,4.1,2.5,5.8,4.1c1.7,1.6,3.1,3.5,4.2,5.7c1.1,2.2,1.6,4.7,1.6,7.6c0,2.8-0.5,5.3-1.5,7.4c-1,2.1-2.3,3.9-4.1,5.4
		c-1.7,1.5-3.8,2.6-6.2,3.3c-2.4,0.8-5.1,1.2-7.9,1.2c-2.6,0-5-0.3-7.3-1c-2.3-0.7-4.3-1.6-6.1-2.8c-1.8-1.2-3.3-2.5-4.6-4
		c-1.3-1.5-2.2-3.1-2.8-4.9l5.9-2.1c1.2,2.7,3.2,4.9,5.7,6.6c2.6,1.7,5.7,2.5,9.2,2.5c4.1,0,7.3-1,9.7-2.9c2.3-2,3.5-4.8,3.5-8.6
		c0-1.9-0.4-3.6-1.2-5.1c-0.8-1.5-1.8-2.9-3.1-4c-1.3-1.2-2.8-2.2-4.5-3c-1.7-0.9-3.5-1.6-5.3-2.4c-2.2-0.8-4.4-1.8-6.5-2.8
		c-2.2-1-4.1-2.3-5.9-3.7c-1.8-1.5-3.2-3.1-4.2-5c-1.1-1.9-1.6-4.2-1.6-6.8c0-2,0.4-3.8,1.2-5.6c0.8-1.8,2-3.3,3.6-4.6
		c1.6-1.3,3.5-2.3,5.7-3.1c2.3-0.8,4.8-1.2,7.8-1.2c4.6,0,8.4,0.9,11.5,2.8c3.1,1.9,5,4.2,5.9,7.1L1371.3,641.6z"/>
	<path fill="#FFFFFF" d="M1412.8,636.8v56.4h-6.2v-56.4h-17.1v-6h40.5v6H1412.8z"/>
	<path fill="#FFFFFF" d="M1470.5,641.6c-0.8-1.7-2.2-3.1-4.1-4.4c-2-1.2-4.6-1.9-7.7-1.9c-3.7,0-6.5,0.8-8.6,2.4s-3.1,3.7-3.1,6.4
		c0,1.7,0.4,3.1,1.2,4.3c0.8,1.2,1.9,2.3,3.2,3.3c1.3,1,2.9,1.9,4.6,2.6c1.7,0.8,3.5,1.5,5.3,2.2c2.1,0.8,4.3,1.8,6.4,2.9
		c2.1,1.1,4.1,2.5,5.8,4.1c1.7,1.6,3.1,3.5,4.2,5.7c1.1,2.2,1.6,4.7,1.6,7.6c0,2.8-0.5,5.3-1.5,7.4c-1,2.1-2.3,3.9-4.1,5.4
		c-1.7,1.5-3.8,2.6-6.2,3.3c-2.4,0.8-5.1,1.2-7.9,1.2c-2.6,0-5-0.3-7.3-1c-2.3-0.7-4.3-1.6-6.1-2.8c-1.8-1.2-3.3-2.5-4.6-4
		c-1.3-1.5-2.2-3.1-2.8-4.9l5.9-2.1c1.2,2.7,3.2,4.9,5.7,6.6c2.6,1.7,5.7,2.5,9.2,2.5c4.1,0,7.3-1,9.7-2.9c2.3-2,3.5-4.8,3.5-8.6
		c0-1.9-0.4-3.6-1.2-5.1c-0.8-1.5-1.8-2.9-3.1-4c-1.3-1.2-2.8-2.2-4.5-3c-1.7-0.9-3.5-1.6-5.3-2.4c-2.2-0.8-4.4-1.8-6.5-2.8
		c-2.2-1-4.1-2.3-5.9-3.7c-1.8-1.5-3.2-3.1-4.2-5c-1.1-1.9-1.6-4.2-1.6-6.8c0-2,0.4-3.8,1.2-5.6c0.8-1.8,2-3.3,3.6-4.6
		c1.6-1.3,3.5-2.3,5.7-3.1c2.3-0.8,4.8-1.2,7.8-1.2c4.6,0,8.4,0.9,11.5,2.8c3.1,1.9,5,4.2,5.9,7.1L1470.5,641.6z"/>
</g>
<g>
	<path fill="#FFFFFF" d="M425.6,523.9h29c5,0,9.5,0.6,13.5,1.7c4,1.1,7.5,2.7,10.6,4.7c3.1,2,5.7,4.4,7.9,7.1c2.2,2.7,4,5.7,5.4,8.9
		c1.4,3.2,2.5,6.5,3.1,10c0.7,3.5,1,7,1,10.5c0,3.3-0.3,6.6-0.9,10c-0.6,3.4-1.6,6.7-3,9.9c-1.4,3.2-3.1,6.2-5.3,8.9
		c-2.2,2.8-4.8,5.2-8,7.3c-3.1,2.1-6.8,3.7-10.9,4.9c-4.1,1.2-8.8,1.8-14.1,1.8h-28.4V523.9z M456,594.1c4.3,0,7.9-0.8,10.8-2.5
		c2.9-1.7,5.3-3.8,7.1-6.4c1.8-2.6,3.1-5.5,3.9-8.8c0.8-3.2,1.2-6.4,1.2-9.6c0-3.4-0.4-6.7-1.3-9.9c-0.8-3.3-2.1-6.2-3.9-8.7
		c-1.7-2.6-4-4.6-6.7-6.2c-2.7-1.6-6-2.4-9.7-2.4h-15.2v54.4H456z"/>
	<path fill="#FFFFFF" d="M550,611.2c-4.6,0-8.8-0.6-12.5-1.8c-3.7-1.2-6.9-2.9-9.7-5c-2.8-2.1-5.2-4.6-7.2-7.4
		c-2-2.9-3.6-5.9-4.9-9.2c-1.3-3.3-2.2-6.7-2.8-10.3c-0.6-3.6-0.9-7.1-0.9-10.7c0-3.5,0.3-7.1,0.9-10.6c0.6-3.6,1.5-7,2.8-10.3
		c1.3-3.3,2.9-6.4,4.9-9.2c2-2.9,4.4-5.3,7.2-7.4s6.1-3.8,9.7-5c3.7-1.2,7.8-1.8,12.5-1.8c4.6,0,8.8,0.6,12.4,1.8
		c3.7,1.2,6.9,2.9,9.7,5c2.8,2.1,5.2,4.6,7.2,7.4c2,2.9,3.6,5.9,4.9,9.2c1.3,3.3,2.2,6.7,2.8,10.3c0.6,3.6,0.9,7.1,0.9,10.6
		c0,3.6-0.3,7.1-0.9,10.7c-0.6,3.6-1.5,7-2.8,10.3c-1.3,3.3-2.9,6.4-4.9,9.2c-2,2.9-4.4,5.3-7.2,7.4c-2.8,2.1-6,3.8-9.7,5
		C558.7,610.6,554.6,611.2,550,611.2z M550,595.3c3.8,0,7.1-0.9,9.7-2.7c2.6-1.8,4.7-4.1,6.3-6.9c1.6-2.8,2.8-5.9,3.5-9.2
		c0.7-3.3,1.1-6.6,1.1-9.7c0-2.2-0.1-4.4-0.4-6.7c-0.3-2.3-0.8-4.4-1.5-6.5c-0.7-2.1-1.6-4.1-2.6-5.9c-1.1-1.9-2.4-3.5-3.9-4.8
		c-1.5-1.4-3.3-2.5-5.3-3.3c-2-0.8-4.3-1.2-6.9-1.2c-2.6,0-4.9,0.4-6.9,1.3c-2,0.8-3.8,2-5.3,3.4c-1.5,1.4-2.8,3.1-3.9,4.9
		c-1.1,1.9-2,3.9-2.6,6c-0.7,2.1-1.2,4.3-1.5,6.5c-0.3,2.2-0.4,4.3-0.4,6.4c0,3.3,0.4,6.6,1.1,10c0.7,3.4,1.9,6.4,3.5,9.2
		c1.6,2.7,3.7,5,6.4,6.7C542.8,594.4,546.1,595.3,550,595.3z"/>
	<path fill="#FFFFFF" d="M600,553.5c0.6-0.5,1.2-1.2,2-2c0.8-0.9,1.5-1.8,2.3-2.9c0.8-1,1.5-2.1,2.2-3.2c0.7-1.1,1.2-2.2,1.5-3.1
		c-2-0.6-3.7-1.8-5-3.4c-1.3-1.6-2-3.7-2-6.2c0-1.6,0.3-3,0.8-4.2c0.6-1.2,1.3-2.3,2.3-3.2c1-0.9,2.1-1.6,3.3-2.1
		c1.2-0.5,2.5-0.7,3.9-0.7c1.4,0,2.8,0.3,4,0.8c1.3,0.5,2.4,1.3,3.3,2.2c1,1,1.7,2.2,2.2,3.7c0.5,1.5,0.8,3.1,0.8,5.1
		c0,2.4-0.4,4.8-1.2,7.1c-0.8,2.4-1.9,4.6-3.3,6.7c-1.4,2.1-3,4.1-4.8,5.9c-1.8,1.8-3.7,3.3-5.7,4.5L600,553.5z"/>
	<path fill="#FFFFFF" d="M678.2,547.2c-0.5-1.3-1.2-2.5-2.1-3.6c-0.9-1.1-1.9-2.1-3.1-2.9c-1.2-0.8-2.6-1.5-4.2-1.9
		c-1.6-0.5-3.3-0.7-5.2-0.7c-3.6,0-6.4,0.7-8.4,2.2c-2,1.4-3,3.5-3,6c0,1.7,0.6,3.2,1.9,4.3c1.3,1.2,3,2.2,5,3.1
		c2.1,0.9,4.4,1.8,7.1,2.7c2.7,0.8,5.4,1.8,8.2,2.8c2.8,1,5.5,2.2,8.2,3.6c2.7,1.4,5,3.1,7.1,5.1c2.1,2,3.8,4.4,5,7.2
		c1.3,2.8,1.9,6.1,1.9,10c0,4.2-0.8,7.9-2.4,11.1c-1.6,3.2-3.8,6-6.6,8.2c-2.8,2.2-6.1,3.9-9.8,5.1c-3.8,1.2-7.9,1.7-12.3,1.7
		c-4,0-7.8-0.5-11.3-1.6c-3.5-1.1-6.7-2.7-9.5-4.7c-2.9-2-5.3-4.5-7.5-7.4c-2.1-2.9-3.8-6.2-5-9.8l15.1-5.6c0.9,2,2,3.8,3.3,5.5
		c1.3,1.7,2.7,3.1,4.3,4.3c1.6,1.2,3.3,2.1,5.2,2.8c1.9,0.7,3.8,1,6,1c2.1,0,4-0.2,5.7-0.7c1.7-0.4,3.2-1.1,4.4-2
		c1.2-0.9,2.2-2,2.8-3.3c0.7-1.3,1-2.8,1-4.5c0-2.1-0.6-3.8-1.9-5.2c-1.3-1.4-3-2.7-5-3.7c-2.1-1.1-4.4-2-7.1-2.9
		c-2.7-0.9-5.4-1.8-8.1-2.7c-2.8-1-5.5-2.1-8.1-3.4c-2.7-1.3-5-2.9-7.1-4.7c-2.1-1.9-3.8-4.1-5-6.8c-1.3-2.6-1.9-5.8-1.9-9.6
		c0-3.2,0.6-6.3,1.9-9.1c1.3-2.9,3.2-5.4,5.7-7.5c2.5-2.2,5.5-3.9,9.1-5.1c3.6-1.3,7.7-1.9,12.3-1.9c3.9,0,7.4,0.5,10.5,1.5
		c3.1,1,5.9,2.4,8.3,4.2c2.4,1.8,4.4,3.9,6,6.3c1.6,2.4,2.9,5.1,3.7,7.9L678.2,547.2z"/>
	<path fill="#FFFFFF" d="M800.7,609.7L794,592h-33.1l-6.6,17.8h-17.8l32.9-85.8h16.2l32.9,85.8H800.7z M780.2,554.5
		c-0.4-1-0.9-2.3-1.4-3.7c-0.5-1.4-0.9-2.8-1.3-4c-0.3,1.2-0.7,2.6-1.3,4c-0.5,1.4-1,2.7-1.4,3.7l-8.5,22.3h22.3L780.2,554.5z"/>
	<path fill="#FFFFFF" d="M887.7,609.7l-34.1-50c-0.6-0.8-1.2-1.9-1.8-3.1c-0.7-1.2-1.2-2.3-1.7-3.4c0.1,0.9,0.2,2,0.3,3.2
		c0.1,1.2,0.1,2.3,0.1,3.2v50H834v-85.8h15.6l33.2,49.4c0.5,0.8,1.1,1.8,1.8,3c0.7,1.2,1.3,2.4,1.8,3.5c-0.1-1.2-0.2-2.3-0.3-3.5
		c-0.1-1.2-0.1-2.2-0.1-3v-49.4h16.4v85.8H887.7z"/>
	<path fill="#FFFFFF" d="M924.5,523.9h29c5,0,9.5,0.6,13.5,1.7c4,1.1,7.5,2.7,10.6,4.7c3.1,2,5.7,4.4,7.9,7.1c2.2,2.7,4,5.7,5.4,8.9
		c1.4,3.2,2.5,6.5,3.1,10c0.7,3.5,1,7,1,10.5c0,3.3-0.3,6.6-0.9,10c-0.6,3.4-1.6,6.7-3,9.9c-1.4,3.2-3.1,6.2-5.3,8.9
		c-2.2,2.8-4.8,5.2-8,7.3c-3.1,2.1-6.8,3.7-10.9,4.9c-4.1,1.2-8.8,1.8-14.1,1.8h-28.4V523.9z M954.9,594.1c4.3,0,7.9-0.8,10.8-2.5
		c2.9-1.7,5.3-3.8,7.1-6.4c1.8-2.6,3.1-5.5,3.9-8.8c0.8-3.2,1.2-6.4,1.2-9.6c0-3.4-0.4-6.7-1.3-9.9c-0.8-3.3-2.1-6.2-3.9-8.7
		c-1.7-2.6-4-4.6-6.7-6.2c-2.7-1.6-6-2.4-9.7-2.4H941v54.4H954.9z"/>
	<path fill="#FFFFFF" d="M1042.1,523.9h29c5,0,9.5,0.6,13.5,1.7c4,1.1,7.5,2.7,10.6,4.7c3.1,2,5.7,4.4,7.9,7.1
		c2.2,2.7,4,5.7,5.4,8.9c1.4,3.2,2.5,6.5,3.1,10c0.7,3.5,1,7,1,10.5c0,3.3-0.3,6.6-0.9,10c-0.6,3.4-1.6,6.7-3,9.9
		c-1.4,3.2-3.1,6.2-5.3,8.9c-2.2,2.8-4.8,5.2-8,7.3c-3.1,2.1-6.8,3.7-10.9,4.9c-4.1,1.2-8.8,1.8-14.1,1.8h-28.4V523.9z
		 M1072.6,594.1c4.3,0,7.9-0.8,10.8-2.5c2.9-1.7,5.3-3.8,7.1-6.4c1.8-2.6,3.1-5.5,3.9-8.8c0.8-3.2,1.2-6.4,1.2-9.6
		c0-3.4-0.4-6.7-1.3-9.9c-0.8-3.3-2.1-6.2-3.9-8.7c-1.7-2.6-4-4.6-6.7-6.2c-2.7-1.6-6-2.4-9.7-2.4h-15.2v54.4H1072.6z"/>
	<path fill="#FFFFFF" d="M1166.5,611.2c-4.6,0-8.8-0.6-12.5-1.8s-6.9-2.9-9.7-5c-2.8-2.1-5.2-4.6-7.2-7.4c-2-2.9-3.6-5.9-4.9-9.2
		c-1.3-3.3-2.2-6.7-2.8-10.3c-0.6-3.6-0.9-7.1-0.9-10.7c0-3.5,0.3-7.1,0.9-10.6c0.6-3.6,1.5-7,2.8-10.3s2.9-6.4,4.9-9.2
		c2-2.9,4.4-5.3,7.2-7.4c2.8-2.1,6.1-3.8,9.7-5c3.7-1.2,7.8-1.8,12.5-1.8c4.6,0,8.8,0.6,12.4,1.8c3.7,1.2,6.9,2.9,9.7,5
		c2.8,2.1,5.2,4.6,7.2,7.4c2,2.9,3.6,5.9,4.9,9.2s2.2,6.7,2.8,10.3c0.6,3.6,0.9,7.1,0.9,10.6c0,3.6-0.3,7.1-0.9,10.7
		c-0.6,3.6-1.5,7-2.8,10.3c-1.3,3.3-2.9,6.4-4.9,9.2c-2,2.9-4.4,5.3-7.2,7.4c-2.8,2.1-6,3.8-9.7,5S1171.1,611.2,1166.5,611.2z
		 M1166.5,595.3c3.8,0,7.1-0.9,9.7-2.7c2.6-1.8,4.7-4.1,6.3-6.9c1.6-2.8,2.8-5.9,3.5-9.2c0.7-3.3,1.1-6.6,1.1-9.7
		c0-2.2-0.1-4.4-0.4-6.7c-0.3-2.3-0.8-4.4-1.5-6.5c-0.7-2.1-1.6-4.1-2.6-5.9c-1.1-1.9-2.4-3.5-3.9-4.8c-1.5-1.4-3.3-2.5-5.3-3.3
		c-2-0.8-4.3-1.2-6.9-1.2c-2.6,0-4.9,0.4-6.9,1.3c-2,0.8-3.8,2-5.3,3.4c-1.5,1.4-2.8,3.1-3.9,4.9c-1.1,1.9-2,3.9-2.6,6
		c-0.7,2.1-1.2,4.3-1.5,6.5c-0.3,2.2-0.4,4.3-0.4,6.4c0,3.3,0.4,6.6,1.1,10c0.7,3.4,1.9,6.4,3.5,9.2c1.6,2.7,3.7,5,6.4,6.7
		C1159.4,594.4,1162.6,595.3,1166.5,595.3z"/>
	<path fill="#FFFFFF" d="M1276.9,609.7l-34.1-50c-0.6-0.8-1.2-1.9-1.8-3.1c-0.7-1.2-1.2-2.3-1.7-3.4c0.1,0.9,0.2,2,0.3,3.2
		c0.1,1.2,0.1,2.3,0.1,3.2v50h-16.5v-85.8h15.6l33.2,49.4c0.5,0.8,1.1,1.8,1.8,3c0.7,1.2,1.3,2.4,1.8,3.5c-0.1-1.2-0.2-2.3-0.3-3.5
		c-0.1-1.2-0.1-2.2-0.1-3v-49.4h16.4v85.8H1276.9z"/>
	<path fill="#FFFFFF" d="M1307,553.5c0.6-0.5,1.2-1.2,2-2c0.8-0.9,1.5-1.8,2.3-2.9c0.8-1,1.5-2.1,2.2-3.2c0.7-1.1,1.2-2.2,1.5-3.1
		c-2-0.6-3.7-1.8-5-3.4c-1.3-1.6-2-3.7-2-6.2c0-1.6,0.3-3,0.8-4.2c0.6-1.2,1.3-2.3,2.3-3.2s2.1-1.6,3.3-2.1c1.2-0.5,2.5-0.7,3.9-0.7
		c1.4,0,2.8,0.3,4,0.8c1.3,0.5,2.4,1.3,3.3,2.2c1,1,1.7,2.2,2.2,3.7c0.5,1.5,0.8,3.1,0.8,5.1c0,2.4-0.4,4.8-1.2,7.1
		c-0.8,2.4-1.9,4.6-3.3,6.7c-1.4,2.1-3,4.1-4.8,5.9s-3.7,3.3-5.7,4.5L1307,553.5z"/>
	<path fill="#FFFFFF" d="M1379.5,539.9v69.9H1363v-69.9h-24.5v-16h65.6v16H1379.5z"/>
	<path fill="#FFFFFF" d="M1461.8,547.2c-0.5-1.3-1.2-2.5-2.1-3.6c-0.9-1.1-1.9-2.1-3.1-2.9c-1.2-0.8-2.6-1.5-4.2-1.9
		c-1.6-0.5-3.3-0.7-5.2-0.7c-3.6,0-6.4,0.7-8.4,2.2c-2,1.4-3,3.5-3,6c0,1.7,0.6,3.2,1.9,4.3c1.3,1.2,3,2.2,5,3.1
		c2.1,0.9,4.4,1.8,7.1,2.7c2.7,0.8,5.4,1.8,8.2,2.8c2.8,1,5.5,2.2,8.2,3.6c2.7,1.4,5,3.1,7.1,5.1c2.1,2,3.8,4.4,5,7.2
		c1.3,2.8,1.9,6.1,1.9,10c0,4.2-0.8,7.9-2.4,11.1c-1.6,3.2-3.8,6-6.6,8.2c-2.8,2.2-6.1,3.9-9.8,5.1c-3.8,1.2-7.9,1.7-12.3,1.7
		c-4,0-7.8-0.5-11.3-1.6c-3.5-1.1-6.7-2.7-9.5-4.7c-2.9-2-5.3-4.5-7.5-7.4s-3.8-6.2-5-9.8l15.1-5.6c0.9,2,2,3.8,3.3,5.5
		c1.3,1.7,2.7,3.1,4.3,4.3c1.6,1.2,3.3,2.1,5.2,2.8c1.9,0.7,3.8,1,6,1c2.1,0,4-0.2,5.7-0.7c1.7-0.4,3.2-1.1,4.4-2
		c1.2-0.9,2.2-2,2.8-3.3c0.7-1.3,1-2.8,1-4.5c0-2.1-0.6-3.8-1.9-5.2c-1.3-1.4-3-2.7-5-3.7c-2.1-1.1-4.4-2-7.1-2.9
		c-2.7-0.9-5.4-1.8-8.1-2.7c-2.8-1-5.5-2.1-8.1-3.4c-2.7-1.3-5-2.9-7.1-4.7c-2.1-1.9-3.8-4.1-5-6.8c-1.3-2.6-1.9-5.8-1.9-9.6
		c0-3.2,0.6-6.3,1.9-9.1c1.3-2.9,3.2-5.4,5.7-7.5c2.5-2.2,5.5-3.9,9.1-5.1c3.6-1.3,7.7-1.9,12.3-1.9c3.9,0,7.4,0.5,10.5,1.5
		c3.1,1,5.9,2.4,8.3,4.2c2.4,1.8,4.4,3.9,6,6.3c1.6,2.4,2.9,5.1,3.7,7.9L1461.8,547.2z"/>
</g>
</svg>
