<?xml version="1.0" encoding="utf-8"?>
<!-- Generator: Adobe Illustrator 18.0.0, SVG Export Plug-In . SVG Version: 6.00 Build 0)  -->
<!DOCTYPE svg PUBLIC "-//W3C//DTD SVG 1.1//EN" "http://www.w3.org/Graphics/SVG/1.1/DTD/svg11.dtd">
<svg version="1.1" id="Layer_1" xmlns="http://www.w3.org/2000/svg" xmlns:xlink="http://www.w3.org/1999/xlink" x="0px" y="0px"
	 viewBox="0 0 737.4 528.4" enable-background="new 0 0 737.4 528.4" xml:space="preserve">
<polygon fill="#A9B8C6" points="737.4,528.4 0,528.4 0,89.7 311.6,89.5 311.6,91.5 2,91.7 2,526.4 735.4,526.4 735.4,91.7 
	429.8,91.7 429.8,89.7 737.4,89.7 "/>
<g>
	<g>
		<path fill="#A9B8C6" d="M331.3,151.3l-1.3-3.7h-6l-1.3,3.7h-3.5l6.3-16.4h3.2l6.3,16.4H331.3z M327.9,141.5c-0.3-1-0.7-2-0.8-2.6
			c-0.2,0.6-0.5,1.6-0.8,2.6l-1.1,3h3.8L327.9,141.5z"/>
	</g>
	<g>
		<path fill="#A9B8C6" d="M345.5,151.3H338v-16.4h7.5c3.2,0,5.2,1.5,5.2,4.3c0,1.4-0.7,2.5-1.7,3.2c1.3,0.6,2.3,1.8,2.3,3.6
			C351.3,149.5,349,151.3,345.5,151.3z M345.4,137.9h-4.2v3.1h4.3c1.4,0,1.9-0.6,1.9-1.6C347.4,138.4,346.8,137.9,345.4,137.9z
			 M345.6,143.9h-4.4v4.3h4.4c1.6,0,2.3-0.8,2.3-2.1C348,144.6,347.2,143.9,345.6,143.9z"/>
	</g>
	<g>
		<path fill="#A9B8C6" d="M360.8,151.6c-4.5,0-7.1-3.5-7.1-8.5s2.7-8.5,7.1-8.5s7.1,3.5,7.1,8.5S365.3,151.6,360.8,151.6z
			 M360.8,137.9c-2.7,0-3.8,2.3-3.8,5.2s1.1,5.2,3.8,5.2s3.8-2.3,3.8-5.2S363.5,137.9,360.8,137.9z"/>
	</g>
	<g>
		<path fill="#A9B8C6" d="M377.8,151.6c-4,0-6.7-2.7-6.7-7.5v-9.2h3.3v9.2c0,2.6,1.3,4.3,3.4,4.3s3.4-1.6,3.4-4.3v-9.2h3.3v9.2
			C384.5,148.8,382,151.6,377.8,151.6z"/>
	</g>
	<g>
		<path fill="#A9B8C6" d="M395.6,138.1v13.2h-3.3v-13.2h-4.7v-3.2h12.7v3.2H395.6z"/>
	</g>
	<g>
		<path fill="#A9B8C6" d="M424.3,151.3h-3.2l-2-8.5c-0.2-1-0.5-2.2-0.6-2.8c-0.1,0.6-0.3,1.9-0.5,2.8l-2.1,8.5h-3.1l-3.4-16.4h3.4
			l1.4,8c0.1,0.8,0.3,2,0.4,2.7c0.1-0.7,0.4-1.9,0.6-2.7l1.9-8h2.9l2,8c0.2,0.8,0.4,2,0.6,2.7c0.1-0.7,0.3-1.9,0.4-2.7l1.4-8h3.4
			L424.3,151.3z"/>
	</g>
	<g>
		<path fill="#A9B8C6" d="M441,151.3v-6.9h-6.7v6.9H431v-16.4h3.3v6.3h6.7v-6.3h3.3v16.4H441z"/>
	</g>
	<g>
		<path fill="#A9B8C6" d="M459.5,151.3l-1.3-3.7h-6l-1.3,3.7h-3.5l6.3-16.4h3.2l6.3,16.4H459.5z M456,141.5c-0.3-1-0.7-2-0.8-2.6
			c-0.2,0.6-0.5,1.6-0.8,2.6l-1.1,3h3.8L456,141.5z"/>
	</g>
	<g>
		<path fill="#A9B8C6" d="M470.9,138.1v13.2h-3.3v-13.2h-4.7v-3.2h12.7v3.2H470.9z"/>
	</g>
	<g>
		<path fill="#A9B8C6" d="M497.7,151.3v-6c0-0.9,0-3,0-3.6c-0.2,0.6-0.7,1.8-1.2,2.7l-3.3,7.3l-3.3-7.3c-0.4-0.9-0.9-2.1-1.2-2.7
			c0,0.6,0,2.7,0,3.6v6h-3.2v-16.4h3.2l3.4,7.4c0.4,0.9,0.9,2.2,1.1,2.7c0.2-0.6,0.7-1.8,1.1-2.7l3.3-7.4h3.2v16.4H497.7z"/>
	</g>
	<g>
		<path fill="#A9B8C6" d="M505.2,151.3v-16.4h11.4v3.2h-8.1v2.8h4.7v3.2h-4.7v4h8.5v3.2H505.2z"/>
	</g>
	<g>
		<path fill="#A9B8C6" d="M525.7,151.6c-2.7,0-5.1-1.2-6.4-3l2.4-2.1c1.2,1.3,2.6,1.9,4.2,1.9c2,0,2.9-0.5,2.9-1.8
			c0-1.1-0.6-1.5-3.7-2.2c-3-0.7-5.1-1.7-5.1-4.9c0-3,2.6-4.8,5.9-4.8c2.6,0,4.4,1,6,2.6l-2.4,2.3c-1.1-1.1-2.2-1.7-3.7-1.7
			c-1.8,0-2.3,0.8-2.3,1.5c0,1,0.7,1.4,3.3,2c2.6,0.6,5.5,1.5,5.5,5.1C532.2,149.5,530.2,151.6,525.7,151.6z"/>
	</g>
	<g>
		<path fill="#A9B8C6" d="M540.9,151.6c-2.8,0-5.1-1.2-6.4-3l2.4-2.1c1.2,1.3,2.6,1.9,4.2,1.9c2,0,2.9-0.5,2.9-1.8
			c0-1.1-0.6-1.5-3.7-2.2c-3-0.7-5.1-1.7-5.1-4.9c0-3,2.6-4.8,5.9-4.8c2.6,0,4.4,1,6,2.6l-2.4,2.3c-1.1-1.1-2.2-1.7-3.7-1.7
			c-1.8,0-2.4,0.8-2.4,1.5c0,1,0.7,1.4,3.3,2c2.6,0.6,5.5,1.5,5.5,5.1C547.4,149.5,545.4,151.6,540.9,151.6z"/>
	</g>
	<g>
		<path fill="#A9B8C6" d="M561.2,151.3l-1.3-3.7h-6l-1.3,3.7h-3.5l6.3-16.4h3.2l6.3,16.4H561.2z M557.7,141.5c-0.3-1-0.7-2-0.8-2.6
			c-0.2,0.6-0.5,1.6-0.8,2.6l-1.1,3h3.8L557.7,141.5z"/>
	</g>
	<g>
		<path fill="#A9B8C6" d="M573.6,151.6c-4.3,0-7.2-3.3-7.2-8.5c0-5,3-8.5,7.3-8.5c3.4,0,5.1,1.6,6.2,4.1l-3.1,1.3
			c-0.6-1.2-1.4-2.1-3.1-2.1c-2.5,0-3.9,2.2-3.9,5.2c0,3,1.4,5.3,3.9,5.3c2.3,0,3-1.1,3.2-2.5h-2.6v-3.1h5.9v2.2
			C580.2,149.2,577.4,151.6,573.6,151.6z"/>
	</g>
	<g>
		<path fill="#A9B8C6" d="M583.7,151.3v-16.4h11.4v3.2H587v2.8h4.7v3.2H587v4h8.5v3.2H583.7z"/>
	</g>
	<g>
		<path fill="#A9B8C6" d="M606,151.3v-16.4h3.3v16.4H606z"/>
	</g>
	<g>
		<path fill="#A9B8C6" d="M619.4,151.6c-2.7,0-5.1-1.2-6.4-3l2.4-2.1c1.2,1.3,2.6,1.9,4.2,1.9c2,0,2.9-0.5,2.9-1.8
			c0-1.1-0.6-1.5-3.7-2.2c-3-0.7-5.1-1.7-5.1-4.9c0-3,2.6-4.8,5.9-4.8c2.6,0,4.4,1,6,2.6l-2.4,2.3c-1.1-1.1-2.2-1.7-3.7-1.7
			c-1.8,0-2.3,0.8-2.3,1.5c0,1,0.7,1.4,3.3,2c2.6,0.6,5.5,1.5,5.5,5.1C625.8,149.5,623.9,151.6,619.4,151.6z"/>
	</g>
	<g>
		<path fill="#A9B8C6" d="M643.6,151.3h-7.5v-16.4h7.5c3.2,0,5.2,1.5,5.2,4.3c0,1.4-0.7,2.5-1.7,3.2c1.3,0.6,2.3,1.8,2.3,3.6
			C649.5,149.5,647.1,151.3,643.6,151.3z M643.5,137.9h-4.2v3.1h4.3c1.4,0,1.9-0.6,1.9-1.6C645.6,138.4,645,137.9,643.5,137.9z
			 M643.7,143.9h-4.4v4.3h4.4c1.6,0,2.3-0.8,2.3-2.1C646.1,144.6,645.3,143.9,643.7,143.9z"/>
	</g>
	<g>
		<path fill="#A9B8C6" d="M652.8,151.3v-16.4h11.4v3.2h-8.1v2.8h4.7v3.2h-4.7v4h8.5v3.2H652.8z"/>
	</g>
	<g>
		<path fill="#A9B8C6" d="M668.3,151.3v-16.4h3.3v16.4H668.3z"/>
	</g>
	<g>
		<path fill="#A9B8C6" d="M686.5,151.3l-6-9c-0.4-0.6-0.9-1.4-1.2-1.9c0,0.6,0,2.7,0,3.6v7.2h-3.2v-16.4h3.1l5.8,8.7
			c0.4,0.6,0.9,1.4,1.2,1.9c0-0.6,0-2.7,0-3.6v-7h3.2v16.4H686.5z"/>
	</g>
	<g>
		<path fill="#A9B8C6" d="M699.9,151.6c-4.3,0-7.2-3.3-7.2-8.5c0-5,3-8.5,7.3-8.5c3.4,0,5.1,1.6,6.2,4.1l-3.1,1.3
			c-0.6-1.2-1.4-2.1-3.1-2.1c-2.5,0-3.9,2.2-3.9,5.2c0,3,1.4,5.3,3.9,5.3c2.3,0,3-1.1,3.2-2.5h-2.6v-3.1h5.9v2.2
			C706.6,149.2,703.8,151.6,699.9,151.6z"/>
	</g>
</g>
<g>
	<g>
		<path fill="#A9B8C6" d="M59.7,291.7v62.6H44.1v-62.6H21.7v-15.4h60.4v15.4H59.7z"/>
	</g>
	<g>
		<path fill="#A9B8C6" d="M134.7,323.5v30.9h-15.6v-30.5l-29.5-47.5h17.9l11,18.5c2.8,4.7,7,12.4,8.5,15.3
			c1.4-2.9,5.6-10.4,8.5-15.3l11-18.5h17.7L134.7,323.5z"/>
	</g>
	<g>
		<path fill="#A9B8C6" d="M209.5,326.7h-17.2v27.6h-15.6v-78h34.1c14.7,0,26.9,8.1,26.9,24.7C237.7,319.1,225.7,326.7,209.5,326.7z
			 M210.3,291.5h-17.9v20.1h18.2c7.2,0,11.1-3.3,11.1-10.1C221.7,294.6,217.2,291.5,210.3,291.5z"/>
	</g>
	<g>
		<path fill="#A9B8C6" d="M252.6,354.4v-78h54.2v15.3h-38.6v13.5h22.4v15.2h-22.4v18.8h40.2v15.3H252.6z"/>
	</g>
</g>
<g>
	<g>
		<path fill="#A9B8C6" d="M59.7,149.2v62.6H44.1v-62.6H21.7v-15.4h60.4v15.4H59.7z"/>
	</g>
	<g>
		<path fill="#A9B8C6" d="M131.4,211.8V179h-32v32.8H83.8v-78h15.6v29.9h32v-29.9H147v78H131.4z"/>
	</g>
	<g>
		<path fill="#A9B8C6" d="M154.8,211.8v-78h15.6v78H154.8z"/>
	</g>
	<g>
		<path fill="#A9B8C6" d="M227.5,211.8l-28.6-42.6c-1.9-2.9-4.5-6.8-5.5-8.8c0,2.9,0.2,12.7,0.2,17.1v34.3h-15.4v-78h14.9l27.6,41.2
			c1.9,2.9,4.5,6.8,5.5,8.8c0-2.9-0.2-12.7-0.2-17.1v-33h15.4v78H227.5z"/>
	</g>
	<g>
		<path fill="#A9B8C6" d="M297.4,211.8l-21.2-37.7l-12.5,14.7v23h-15.6v-78h15.6V156c0,2.9-0.1,9.9-0.2,12.4c1.1-1.8,4-5.4,6.1-7.9
			l21.8-26.6h18.8l-22.9,27l28.6,51H297.4z"/>
	</g>
</g>
<g>
	<g>
		<path fill="#A9B8C6" d="M57.5,458.7H40.3v27.6H24.7v-78h34.1c14.7,0,26.9,8.1,26.9,24.7C85.7,451.1,73.7,458.7,57.5,458.7z
			 M58.3,423.5H40.3v20.1h18.2c7.2,0,11.1-3.3,11.1-10.1C69.7,426.6,65.2,423.5,58.3,423.5z"/>
	</g>
	<g>
		<path fill="#A9B8C6" d="M130.3,487.6c-21.3,0-33.9-16.5-33.9-40.2s12.6-40.2,33.9-40.2c21.3,0,33.9,16.5,33.9,40.2
			S151.6,487.6,130.3,487.6z M130.3,422.6c-12.6,0-17.8,10.8-17.8,24.7c0,13.9,5.2,24.7,17.8,24.7c12.6,0,17.8-10.8,17.8-24.7
			C148.1,433.4,142.9,422.6,130.3,422.6z"/>
	</g>
	<g>
		<path fill="#A9B8C6" d="M205,487.6c-13,0-24.4-5.5-30.3-14.2l11.3-10c5.5,6.4,12.5,8.9,20,8.9c9.3,0,13.6-2.6,13.6-8.5
			c0-5-2.7-7.2-17.4-10.6c-14.4-3.3-24.4-7.9-24.4-23.3c0-14.2,12.5-22.9,27.9-22.9c12.1,0,21.1,4.6,28.4,12.3l-11.3,10.9
			c-5-5.1-10.6-8-17.7-8c-8.4,0-11.1,3.6-11.1,7c0,4.9,3.3,6.5,15.7,9.4c12.4,2.9,26.1,7.1,26.1,24.1
			C235.6,477.6,226.3,487.6,205,487.6z"/>
	</g>
	<g>
		<path fill="#A9B8C6" d="M282.2,423.7v62.6h-15.6v-62.6h-22.4v-15.4h60.4v15.4H282.2z"/>
	</g>
</g>
<g>
	<g>
		<path fill="#A9B8C6" d="M334.1,167.4c-0.7-1.4-1.9-2.2-3.8-2.2c-3.1,0-4.8,2.7-4.8,6.5c0,3.7,1.8,6.5,4.9,6.5c1.8,0,2.9-0.8,4-2.6
			l3.5,2.1c-1.4,2.9-3.9,4.6-7.6,4.6c-5.4,0-9-4.1-9-10.6c0-6.2,3.8-10.6,9.1-10.6c3.9,0,6.2,1.9,7.5,4.5L334.1,167.4z"/>
	</g>
	<g>
		<path fill="#A9B8C6" d="M349.2,182.3c-5.6,0-8.9-4.3-8.9-10.6s3.3-10.6,8.9-10.6s8.9,4.3,8.9,10.6S354.8,182.3,349.2,182.3z
			 M349.2,165.2c-3.3,0-4.7,2.8-4.7,6.5s1.4,6.5,4.7,6.5s4.7-2.8,4.7-6.5S352.5,165.2,349.2,165.2z"/>
	</g>
	<g>
		<path fill="#A9B8C6" d="M377.4,181.9v-7.5c0-1.1,0.1-3.7,0.1-4.5c-0.3,0.8-0.9,2.2-1.4,3.4l-4.2,9.1l-4.2-9.1
			c-0.5-1.2-1.1-2.6-1.4-3.4c0,0.8,0.1,3.4,0.1,4.5v7.5h-4v-20.5h4l4.3,9.3c0.5,1.1,1.1,2.7,1.4,3.4c0.3-0.8,0.8-2.3,1.4-3.4
			l4.1-9.3h4v20.5H377.4z"/>
	</g>
	<g>
		<path fill="#A9B8C6" d="M401.8,181.9v-7.5c0-1.1,0.1-3.7,0.1-4.5c-0.3,0.8-0.9,2.2-1.4,3.4l-4.2,9.1l-4.2-9.1
			c-0.5-1.2-1.1-2.6-1.4-3.4c0,0.8,0.1,3.4,0.1,4.5v7.5h-4v-20.5h4l4.3,9.3c0.5,1.1,1.1,2.7,1.4,3.4c0.3-0.8,0.8-2.3,1.4-3.4
			l4.1-9.3h4v20.5H401.8z"/>
	</g>
	<g>
		<path fill="#A9B8C6" d="M419.3,182.3c-5,0-8.3-3.3-8.3-9.3v-11.5h4.1v11.5c0,3.3,1.6,5.4,4.2,5.4s4.2-2,4.2-5.3v-11.5h4.1v11.5
			C427.7,178.8,424.6,182.3,419.3,182.3z"/>
	</g>
	<g>
		<path fill="#A9B8C6" d="M445.7,181.9l-7.5-11.2c-0.5-0.8-1.2-1.8-1.4-2.3c0,0.8,0.1,3.3,0.1,4.5v9h-4v-20.5h3.9l7.3,10.8
			c0.5,0.8,1.2,1.8,1.4,2.3c0-0.8-0.1-3.3-0.1-4.5v-8.7h4v20.5H445.7z"/>
	</g>
	<g>
		<path fill="#A9B8C6" d="M455,181.9v-20.5h4.1v20.5H455z"/>
	</g>
	<g>
		<path fill="#A9B8C6" d="M476.4,167.4c-0.7-1.4-1.9-2.2-3.8-2.2c-3.1,0-4.8,2.7-4.8,6.5c0,3.7,1.8,6.5,4.9,6.5c1.8,0,2.9-0.8,4-2.6
			l3.5,2.1c-1.4,2.9-3.9,4.6-7.6,4.6c-5.4,0-9-4.1-9-10.6c0-6.2,3.8-10.6,9.1-10.6c3.9,0,6.2,1.9,7.5,4.5L476.4,167.4z"/>
	</g>
	<g>
		<path fill="#A9B8C6" d="M497.4,181.9l-1.6-4.6h-7.5l-1.6,4.6h-4.4l7.9-20.5h4l7.8,20.5H497.4z M493.1,169.7
			c-0.4-1.2-0.8-2.4-1-3.2c-0.2,0.8-0.6,2-1,3.2l-1.3,3.7h4.7L493.1,169.7z"/>
	</g>
	<g>
		<path fill="#A9B8C6" d="M511.7,165.5v16.5h-4.1v-16.5h-5.9v-4h15.9v4H511.7z"/>
	</g>
	<g>
		<path fill="#A9B8C6" d="M521.5,181.9v-20.5h14.2v4h-10.1v3.5h5.9v4h-5.9v5h10.6v4H521.5z"/>
	</g>
	<g>
		<path fill="#A9B8C6" d="M546.7,181.9h-6.1v-20.5h6.4c5.9,0,10.2,2.8,10.2,10.3C557.2,178.9,551.9,181.9,546.7,181.9z M546.8,165.4
			h-2.2v12.5h2c4.3,0,6.3-2.5,6.3-6.3C552.9,167.5,551.2,165.4,546.8,165.4z"/>
	</g>
	<g>
		<path fill="#A9B8C6" d="M583.4,181.9l-1.6-4.6h-7.5l-1.6,4.6h-4.4l7.9-20.5h4l7.8,20.5H583.4z M579.1,169.7
			c-0.4-1.2-0.8-2.4-1-3.2c-0.2,0.8-0.6,2-1,3.2l-1.3,3.7h4.7L579.1,169.7z"/>
	</g>
	<g>
		<path fill="#A9B8C6" d="M604.7,181.9l-7.5-11.2c-0.5-0.8-1.2-1.8-1.4-2.3c0,0.8,0.1,3.3,0.1,4.5v9h-4v-20.5h3.9l7.3,10.8
			c0.5,0.8,1.2,1.8,1.4,2.3c0-0.8-0.1-3.3-0.1-4.5v-8.7h4v20.5H604.7z"/>
	</g>
	<g>
		<path fill="#A9B8C6" d="M619.8,181.9h-6.1v-20.5h6.4c5.9,0,10.2,2.8,10.2,10.3C630.2,178.9,625,181.9,619.8,181.9z M619.9,165.4
			h-2.2v12.5h2c4.3,0,6.3-2.5,6.3-6.3C626,167.5,624.2,165.4,619.9,165.4z"/>
	</g>
	<g>
		<path fill="#A9B8C6" d="M660.3,181.9h-4l-2.5-10.5c-0.3-1.2-0.6-2.8-0.7-3.5c-0.1,0.8-0.4,2.3-0.7,3.5l-2.6,10.5H646l-4.3-20.5
			h4.3l1.8,10c0.2,1,0.4,2.5,0.5,3.4c0.1-0.8,0.5-2.4,0.7-3.4l2.4-10h3.6l2.4,10c0.2,1,0.6,2.5,0.7,3.4c0.1-0.8,0.3-2.4,0.5-3.4
			l1.8-10h4.2L660.3,181.9z"/>
	</g>
	<g>
		<path fill="#A9B8C6" d="M681.2,181.9v-8.6h-8.4v8.6h-4.1v-20.5h4.1v7.9h8.4v-7.9h4.1v20.5H681.2z"/>
	</g>
	<g>
		<path fill="#A9B8C6" d="M698.4,182.3c-5.6,0-8.9-4.3-8.9-10.6s3.3-10.6,8.9-10.6s8.9,4.3,8.9,10.6S704,182.3,698.4,182.3z
			 M698.4,165.2c-3.3,0-4.7,2.8-4.7,6.5s1.4,6.5,4.7,6.5s4.7-2.8,4.7-6.5S701.7,165.2,698.4,165.2z"/>
	</g>
</g>
<g>
	<g>
		<path fill="#A9B8C6" d="M332.5,197.2c-0.6-1.2-1.7-2-3.3-2c-2.7,0-4.3,2.4-4.3,5.8c0,3.3,1.6,5.8,4.3,5.8c1.6,0,2.6-0.7,3.6-2.3
			l3.1,1.8c-1.2,2.6-3.4,4.1-6.7,4.1c-4.8,0-8-3.6-8-9.4c0-5.5,3.3-9.4,8.1-9.4c3.4,0,5.5,1.7,6.7,4L332.5,197.2z"/>
	</g>
	<g>
		<path fill="#A9B8C6" d="M345.9,210.4c-5,0-7.9-3.8-7.9-9.4s2.9-9.4,7.9-9.4s7.9,3.8,7.9,9.4S350.8,210.4,345.9,210.4z
			 M345.9,195.2c-2.9,0-4.2,2.5-4.2,5.8s1.2,5.8,4.2,5.8s4.2-2.5,4.2-5.8S348.8,195.2,345.9,195.2z"/>
	</g>
	<g>
		<path fill="#A9B8C6" d="M364.7,210.4c-4.4,0-7.4-3-7.4-8.3v-10.2h3.6v10.2c0,2.9,1.4,4.8,3.7,4.8s3.7-1.8,3.7-4.7v-10.2h3.6v10.2
			C372.1,207.3,369.3,210.4,364.7,210.4z"/>
	</g>
	<g>
		<path fill="#A9B8C6" d="M376.6,210.1v-18.2h3.6v14.6h9.1v3.6H376.6z"/>
	</g>
	<g>
		<path fill="#A9B8C6" d="M398.2,210.1h-5.4v-18.2h5.7c5.2,0,9,2.4,9,9.1C407.5,207.4,402.9,210.1,398.2,210.1z M398.3,195.4h-1.9
			v11.1h1.8c3.8,0,5.6-2.2,5.6-5.6C403.8,197.3,402.2,195.4,398.3,195.4z"/>
	</g>
	<g>
		<path fill="#A9B8C6" d="M426.3,203.6h-4v6.4h-3.6v-18.2h8c3.4,0,6.3,1.9,6.3,5.8C432.9,201.9,430.1,203.6,426.3,203.6z
			 M426.5,195.4h-4.2v4.7h4.2c1.7,0,2.6-0.8,2.6-2.4S428.1,195.4,426.5,195.4z"/>
	</g>
	<g>
		<path fill="#A9B8C6" d="M443.3,210.4c-5,0-7.9-3.8-7.9-9.4s2.9-9.4,7.9-9.4s7.9,3.8,7.9,9.4S448.3,210.4,443.3,210.4z
			 M443.3,195.2c-2.9,0-4.2,2.5-4.2,5.8s1.2,5.8,4.2,5.8s4.2-2.5,4.2-5.8S446.2,195.2,443.3,195.2z"/>
	</g>
	<g>
		<path fill="#A9B8C6" d="M461.7,195.5v14.6h-3.6v-14.6h-5.2v-3.6H467v3.6H461.7z"/>
	</g>
	<g>
		<path fill="#A9B8C6" d="M470.5,210.1v-18.2h12.6v3.6h-9v3.1h5.2v3.5h-5.2v4.4h9.4v3.6H470.5z"/>
	</g>
	<g>
		<path fill="#A9B8C6" d="M498.9,210.1l-6.7-9.9c-0.4-0.7-1-1.6-1.3-2.1c0,0.7,0.1,3,0.1,4v8h-3.6v-18.2h3.5l6.4,9.6
			c0.4,0.7,1,1.6,1.3,2.1c0-0.7-0.1-3-0.1-4v-7.7h3.6v18.2H498.9z"/>
	</g>
	<g>
		<path fill="#A9B8C6" d="M514.5,195.5v14.6h-3.6v-14.6h-5.2v-3.6h14.1v3.6H514.5z"/>
	</g>
	<g>
		<path fill="#A9B8C6" d="M523.5,210.1v-18.2h3.6v18.2H523.5z"/>
	</g>
	<g>
		<path fill="#A9B8C6" d="M544.2,210.1l-1.4-4.1h-6.7l-1.4,4.1h-3.9l7-18.2h3.5l6.9,18.2H544.2z M540.3,199.3
			c-0.4-1.1-0.7-2.2-0.9-2.8c-0.2,0.7-0.5,1.8-0.9,2.8l-1.2,3.3h4.2L540.3,199.3z"/>
	</g>
	<g>
		<path fill="#A9B8C6" d="M551.6,210.1v-18.2h3.6v14.6h9.1v3.6H551.6z"/>
	</g>
	<g>
		<path fill="#A9B8C6" d="M567.7,210.1v-18.2h3.6v14.6h9.1v3.6H567.7z"/>
	</g>
	<g>
		<path fill="#A9B8C6" d="M588.9,202.9v7.2h-3.6V203l-6.9-11.1h4.2l2.6,4.3c0.7,1.1,1.6,2.9,2,3.6c0.3-0.7,1.3-2.4,2-3.6l2.6-4.3
			h4.1L588.9,202.9z"/>
	</g>
	<g>
		<path fill="#A9B8C6" d="M615,210.1h-3.5l-6.5-18.2h4l3.4,10.5c0.3,1,0.7,2.3,0.9,3c0.2-0.7,0.5-1.9,0.8-3l3.4-10.5h4L615,210.1z"
			/>
	</g>
	<g>
		<path fill="#A9B8C6" d="M625.1,210.1v-18.2h3.6v18.2H625.1z"/>
	</g>
	<g>
		<path fill="#A9B8C6" d="M633.7,210.1v-18.2h12.6v3.6h-9v3.1h5.2v3.5h-5.2v4.4h9.4v3.6H633.7z"/>
	</g>
	<g>
		<path fill="#A9B8C6" d="M665.8,210.1h-3.6l-2.2-9.4c-0.3-1.1-0.5-2.4-0.6-3.1c-0.1,0.7-0.3,2.1-0.6,3.1l-2.3,9.4h-3.4l-3.8-18.2
			h3.8l1.6,8.9c0.2,0.9,0.4,2.2,0.4,3c0.1-0.8,0.4-2.1,0.6-3l2.1-8.9h3.2l2.2,8.9c0.2,0.9,0.5,2.2,0.6,3c0.1-0.8,0.3-2.1,0.4-3
			l1.6-8.9h3.7L665.8,210.1z"/>
	</g>
	<g>
		<path fill="#A9B8C6" d="M681,210.1v-18.2h3.6v18.2H681z"/>
	</g>
	<g>
		<path fill="#A9B8C6" d="M697.3,195.5v14.6h-3.6v-14.6h-5.2v-3.6h14.1v3.6H697.3z"/>
	</g>
	<g>
		<path fill="#A9B8C6" d="M703.9,210.4c-1.3,0-2.4-1.1-2.4-2.4s1.1-2.4,2.4-2.4s2.4,1.1,2.4,2.4S705.2,210.4,703.9,210.4z"/>
	</g>
</g>
<g>
	<g>
		<path fill="#A9B8C6" d="M340.1,301.1v-9.3c0-1.4,0.1-4.6,0.1-5.5c-0.4,0.9-1.1,2.7-1.8,4.2l-5.1,11.2l-5.1-11.2
			c-0.6-1.4-1.4-3.2-1.8-4.2c0,1,0.1,4.2,0.1,5.5v9.3h-4.9v-25.2h4.9l5.3,11.4c0.6,1.4,1.4,3.3,1.7,4.2c0.3-0.9,1-2.8,1.7-4.2
			l5.1-11.4h5v25.2H340.1z"/>
	</g>
	<g>
		<path fill="#A9B8C6" d="M351.6,301.1v-25.2h17.5v4.9h-12.5v4.4h7.2v4.9h-7.2v6.1h13v4.9H351.6z"/>
	</g>
	<g>
		<path fill="#A9B8C6" d="M383,301.5c-4.2,0-7.9-1.8-9.8-4.6l3.6-3.2c1.8,2.1,4,2.9,6.4,2.9c3,0,4.4-0.8,4.4-2.7
			c0-1.6-0.9-2.3-5.6-3.4c-4.6-1.1-7.9-2.6-7.9-7.5c0-4.6,4-7.4,9-7.4c3.9,0,6.8,1.5,9.2,4l-3.6,3.5c-1.6-1.7-3.4-2.6-5.7-2.6
			c-2.7,0-3.6,1.2-3.6,2.3c0,1.6,1.1,2.1,5.1,3c4,0.9,8.4,2.3,8.4,7.8C392.9,298.2,389.9,301.5,383,301.5z"/>
	</g>
	<g>
		<path fill="#A9B8C6" d="M406.3,301.5c-4.2,0-7.9-1.8-9.8-4.6l3.6-3.2c1.8,2.1,4,2.9,6.4,2.9c3,0,4.4-0.8,4.4-2.7
			c0-1.6-0.9-2.3-5.6-3.4c-4.6-1.1-7.9-2.6-7.9-7.5c0-4.6,4-7.4,9-7.4c3.9,0,6.8,1.5,9.2,4L412,283c-1.6-1.7-3.4-2.6-5.7-2.6
			c-2.7,0-3.6,1.2-3.6,2.3c0,1.6,1.1,2.1,5.1,3c4,0.9,8.4,2.3,8.4,7.8C416.2,298.2,413.1,301.5,406.3,301.5z"/>
	</g>
	<g>
		<path fill="#A9B8C6" d="M437.3,301.1l-2-5.6h-9.2l-2,5.6h-5.4l9.6-25.2h4.9l9.6,25.2H437.3z M432,286.1c-0.5-1.5-1-3-1.3-3.9
			c-0.3,0.9-0.8,2.4-1.3,3.9l-1.6,4.6h5.8L432,286.1z"/>
	</g>
	<g>
		<path fill="#A9B8C6" d="M456.3,301.5c-6.6,0-11-5-11-13c0-7.7,4.6-13,11.2-13c5.1,0,7.9,2.4,9.5,6.3l-4.8,2
			c-0.9-1.9-2.1-3.3-4.8-3.3c-3.8,0-5.9,3.3-5.9,8c0,4.6,2.2,8.1,6,8.1c3.5,0,4.6-1.6,4.9-3.8h-4V288h9v3.3
			C466.4,297.8,462.2,301.5,456.3,301.5z"/>
	</g>
	<g>
		<path fill="#A9B8C6" d="M471.8,301.1v-25.2h17.5v4.9h-12.5v4.4h7.2v4.9h-7.2v6.1h13v4.9H471.8z"/>
	</g>
	<g>
		<path fill="#A9B8C6" d="M503.2,301.5c-4.2,0-7.9-1.8-9.8-4.6l3.6-3.2c1.8,2.1,4,2.9,6.4,2.9c3,0,4.4-0.8,4.4-2.7
			c0-1.6-0.9-2.3-5.6-3.4c-4.6-1.1-7.9-2.6-7.9-7.5c0-4.6,4-7.4,9-7.4c3.9,0,6.8,1.5,9.2,4l-3.6,3.5c-1.6-1.7-3.4-2.6-5.7-2.6
			c-2.7,0-3.6,1.2-3.6,2.3c0,1.6,1.1,2.1,5.1,3c4,0.9,8.4,2.3,8.4,7.8C513.1,298.2,510.1,301.5,503.2,301.5z"/>
	</g>
	<g>
		<path fill="#A9B8C6" d="M539.5,280.8v20.2h-5v-20.2h-7.2v-5h19.5v5H539.5z"/>
	</g>
	<g>
		<path fill="#A9B8C6" d="M567,301.1v-10.6h-10.3v10.6h-5v-25.2h5v9.6H567v-9.6h5v25.2H567z"/>
	</g>
	<g>
		<path fill="#A9B8C6" d="M595.3,301.1l-2-5.6h-9.2l-2,5.6h-5.4l9.6-25.2h4.9l9.6,25.2H595.3z M590,286.1c-0.5-1.5-1-3-1.3-3.9
			c-0.3,0.9-0.8,2.4-1.3,3.9l-1.6,4.6h5.8L590,286.1z"/>
	</g>
	<g>
		<path fill="#A9B8C6" d="M612.7,280.8v20.2h-5v-20.2h-7.2v-5H620v5H612.7z"/>
	</g>
	<g>
		<path fill="#A9B8C6" d="M652.1,301.1l-2-5.6h-9.2l-2,5.6h-5.4l9.6-25.2h4.9l9.6,25.2H652.1z M646.7,286.1c-0.5-1.5-1-3-1.3-3.9
			c-0.3,0.9-0.8,2.4-1.3,3.9l-1.6,4.6h5.8L646.7,286.1z"/>
	</g>
	<g>
		<path fill="#A9B8C6" d="M676.9,301.1l-4.5-9.1h-5.1v9.1h-5v-25.2H674c4.8,0,8.7,2.6,8.7,8c0,3.8-1.6,6.2-4.8,7.4l4.8,9.8H676.9z
			 M673.9,280.8h-6.6v6.5h6.6c2.3,0,3.6-1.1,3.6-3.3C677.5,281.7,676.1,280.8,673.9,280.8z"/>
	</g>
	<g>
		<path fill="#A9B8C6" d="M688,301.1v-25.2h17.5v4.9H693v4.4h7.2v4.9H693v6.1h13v4.9H688z"/>
	</g>
</g>
<g>
	<g>
		<path fill="#A9B8C6" d="M320.6,425.5v-16.2h3.2v16.2H320.6z"/>
	</g>
	<g>
		<path fill="#A9B8C6" d="M331.4,412.5v3h4.9v3.1h-4.9v6.8h-3.2v-16.2h11.6v3.2H331.4z"/>
	</g>
	<g>
		<path fill="#A9B8C6" d="M356.1,412.5v13h-3.2v-13h-4.6v-3.2h12.5v3.2H356.1z"/>
	</g>
	<g>
		<path fill="#A9B8C6" d="M373.8,425.5v-6.8h-6.6v6.8h-3.2v-16.2h3.2v6.2h6.6v-6.2h3.2v16.2H373.8z"/>
	</g>
	<g>
		<path fill="#A9B8C6" d="M381.1,425.5v-16.2h11.2v3.2h-8v2.8h4.6v3.1h-4.6v3.9h8.3v3.2H381.1z"/>
	</g>
	<g>
		<path fill="#A9B8C6" d="M414.7,425.5v-5.9c0-0.9,0-2.9,0-3.6c-0.2,0.6-0.7,1.8-1.1,2.7l-3.3,7.2l-3.3-7.2
			c-0.4-0.9-0.9-2.1-1.1-2.7c0,0.6,0,2.7,0,3.6v5.9h-3.2v-16.2h3.1l3.4,7.3c0.4,0.9,0.9,2.1,1.1,2.7c0.2-0.6,0.7-1.8,1.1-2.7
			l3.3-7.3h3.2v16.2H414.7z"/>
	</g>
	<g>
		<path fill="#A9B8C6" d="M422.1,425.5v-16.2h11.2v3.2h-8v2.8h4.6v3.1h-4.6v3.9h8.3v3.2H422.1z"/>
	</g>
	<g>
		<path fill="#A9B8C6" d="M442.3,425.7c-2.7,0-5.1-1.1-6.3-2.9l2.3-2.1c1.1,1.3,2.6,1.8,4.1,1.8c1.9,0,2.8-0.5,2.8-1.8
			c0-1-0.6-1.5-3.6-2.2c-3-0.7-5.1-1.6-5.1-4.8c0-2.9,2.6-4.7,5.8-4.7c2.5,0,4.4,0.9,5.9,2.5l-2.3,2.3c-1-1.1-2.2-1.7-3.7-1.7
			c-1.7,0-2.3,0.7-2.3,1.5c0,1,0.7,1.3,3.3,1.9c2.6,0.6,5.4,1.5,5.4,5C448.6,423.6,446.7,425.7,442.3,425.7z"/>
	</g>
	<g>
		<path fill="#A9B8C6" d="M457.2,425.7c-2.7,0-5.1-1.1-6.3-2.9l2.3-2.1c1.1,1.3,2.6,1.8,4.1,1.8c1.9,0,2.8-0.5,2.8-1.8
			c0-1-0.6-1.5-3.6-2.2c-3-0.7-5.1-1.6-5.1-4.8c0-2.9,2.6-4.7,5.8-4.7c2.5,0,4.4,0.9,5.9,2.5l-2.3,2.3c-1-1.1-2.2-1.7-3.7-1.7
			c-1.7,0-2.3,0.7-2.3,1.5c0,1,0.7,1.3,3.3,1.9c2.6,0.6,5.4,1.5,5.4,5C463.5,423.6,461.6,425.7,457.2,425.7z"/>
	</g>
	<g>
		<path fill="#A9B8C6" d="M477.1,425.5l-1.3-3.6h-5.9l-1.3,3.6h-3.5l6.2-16.2h3.1l6.1,16.2H477.1z M473.7,415.9
			c-0.3-0.9-0.6-1.9-0.8-2.5c-0.2,0.6-0.5,1.6-0.8,2.5l-1,2.9h3.7L473.7,415.9z"/>
	</g>
	<g>
		<path fill="#A9B8C6" d="M489.3,425.7c-4.2,0-7.1-3.2-7.1-8.3c0-4.9,3-8.3,7.2-8.3c3.3,0,5.1,1.5,6.1,4l-3.1,1.3
			c-0.6-1.2-1.3-2.1-3.1-2.1c-2.4,0-3.8,2.1-3.8,5.1c0,3,1.4,5.2,3.8,5.2c2.2,0,3-1,3.2-2.4H490v-3h5.8v2.1
			C495.8,423.4,493,425.7,489.3,425.7z"/>
	</g>
	<g>
		<path fill="#A9B8C6" d="M499.2,425.5v-16.2h11.2v3.2h-8v2.8h4.6v3.1h-4.6v3.9h8.3v3.2H499.2z"/>
	</g>
	<g>
		<path fill="#A9B8C6" d="M525.7,425.5h-4.8v-16.2h5.1c4.6,0,8,2.2,8,8.1C533.9,423.1,529.8,425.5,525.7,425.5z M525.8,412.4h-1.7
			v9.9h1.6c3.4,0,4.9-2,4.9-4.9C530.6,414.1,529.2,412.4,525.8,412.4z"/>
	</g>
	<g>
		<path fill="#A9B8C6" d="M537.2,425.5v-16.2h11.2v3.2h-8v2.8h4.6v3.1h-4.6v3.9h8.3v3.2H537.2z"/>
	</g>
	<g>
		<path fill="#A9B8C6" d="M564.1,425.5v-5.9c0-0.9,0-2.9,0-3.6c-0.2,0.6-0.7,1.8-1.1,2.7l-3.3,7.2l-3.3-7.2
			c-0.4-0.9-0.9-2.1-1.1-2.7c0,0.6,0,2.7,0,3.6v5.9h-3.2v-16.2h3.1l3.4,7.3c0.4,0.9,0.9,2.1,1.1,2.7c0.2-0.6,0.7-1.8,1.1-2.7
			l3.3-7.3h3.2v16.2H564.1z"/>
	</g>
	<g>
		<path fill="#A9B8C6" d="M577.6,425.7c-4.4,0-7-3.4-7-8.3c0-4.9,2.6-8.3,7-8.3c4.4,0,7,3.4,7,8.3
			C584.6,422.3,582,425.7,577.6,425.7z M577.6,412.3c-2.6,0-3.7,2.2-3.7,5.1s1.1,5.1,3.7,5.1c2.6,0,3.7-2.2,3.7-5.1
			S580.2,412.3,577.6,412.3z"/>
	</g>
	<g>
		<path fill="#A9B8C6" d="M598.1,425.5l-5.9-8.8c-0.4-0.6-0.9-1.4-1.1-1.8c0,0.6,0,2.6,0,3.5v7.1h-3.2v-16.2h3.1l5.7,8.5
			c0.4,0.6,0.9,1.4,1.1,1.8c0-0.6,0-2.6,0-3.5v-6.8h3.2v16.2H598.1z"/>
	</g>
	<g>
		<path fill="#A9B8C6" d="M610.7,425.7c-2.7,0-5.1-1.1-6.3-2.9l2.3-2.1c1.1,1.3,2.6,1.8,4.1,1.8c1.9,0,2.8-0.5,2.8-1.8
			c0-1-0.6-1.5-3.6-2.2c-3-0.7-5.1-1.6-5.1-4.8c0-2.9,2.6-4.7,5.8-4.7c2.5,0,4.4,0.9,5.9,2.5l-2.3,2.3c-1-1.1-2.2-1.7-3.7-1.7
			c-1.7,0-2.3,0.7-2.3,1.5c0,1,0.7,1.3,3.3,1.9c2.6,0.6,5.4,1.5,5.4,5C617,423.6,615.1,425.7,610.7,425.7z"/>
	</g>
	<g>
		<path fill="#A9B8C6" d="M626.7,412.5v13h-3.2v-13h-4.6v-3.2h12.5v3.2H626.7z"/>
	</g>
	<g>
		<path fill="#A9B8C6" d="M643.8,425.5l-2.9-5.8h-3.3v5.8h-3.2v-16.2h7.5c3,0,5.6,1.7,5.6,5.1c0,2.4-1,3.9-3.1,4.8l3.1,6.3H643.8z
			 M641.9,412.4h-4.2v4.2h4.2c1.5,0,2.3-0.7,2.3-2.1C644.2,413,643.3,412.4,641.9,412.4z"/>
	</g>
	<g>
		<path fill="#A9B8C6" d="M661.3,425.5l-1.3-3.6h-5.9l-1.3,3.6h-3.5l6.2-16.2h3.1l6.1,16.2H661.3z M657.9,415.9
			c-0.3-0.9-0.6-1.9-0.8-2.5c-0.2,0.6-0.5,1.6-0.8,2.5l-1,2.9h3.7L657.9,415.9z"/>
	</g>
	<g>
		<path fill="#A9B8C6" d="M672.5,412.5v13h-3.2v-13h-4.6v-3.2h12.5v3.2H672.5z"/>
	</g>
	<g>
		<path fill="#A9B8C6" d="M680.2,425.5v-16.2h11.2v3.2h-8v2.8h4.6v3.1h-4.6v3.9h8.3v3.2H680.2z"/>
	</g>
	<g>
		<path fill="#A9B8C6" d="M700.4,425.7c-2.7,0-5.1-1.1-6.3-2.9l2.3-2.1c1.1,1.3,2.6,1.8,4.1,1.8c1.9,0,2.8-0.5,2.8-1.8
			c0-1-0.6-1.5-3.6-2.2c-3-0.7-5.1-1.6-5.1-4.8c0-2.9,2.6-4.7,5.8-4.7c2.5,0,4.4,0.9,5.9,2.5l-2.3,2.3c-1-1.1-2.2-1.7-3.7-1.7
			c-1.7,0-2.3,0.7-2.3,1.5c0,1,0.7,1.3,3.3,1.9c2.6,0.6,5.4,1.5,5.4,5C706.7,423.6,704.8,425.7,700.4,425.7z"/>
	</g>
</g>
<g>
	<g>
		<path fill="#A9B8C6" d="M327.3,456.2h-7v-23.6h7.4c6.7,0,11.7,3.2,11.7,11.8C339.4,452.7,333.4,456.2,327.3,456.2z M327.5,437.2
			H325v14.4h2.3c5,0,7.2-2.9,7.2-7.2C334.6,439.6,332.5,437.2,327.5,437.2z"/>
	</g>
	<g>
		<path fill="#A9B8C6" d="M344.5,456.2v-23.6h4.7v23.6H344.5z"/>
	</g>
	<g>
		<path fill="#A9B8C6" d="M364.6,456.5c-6.2,0-10.3-4.7-10.3-12.2c0-7.2,4.3-12.2,10.5-12.2c4.8,0,7.4,2.3,8.9,5.9l-4.5,1.9
			c-0.9-1.8-2-3.1-4.5-3.1c-3.5,0-5.6,3.1-5.6,7.5c0,4.3,2.1,7.5,5.6,7.5c3.2,0,4.3-1.5,4.6-3.6h-3.7v-4.4h8.5v3.1
			C374.1,453.1,370.1,456.5,364.6,456.5z"/>
	</g>
	<g>
		<path fill="#A9B8C6" d="M394,456.2l-8.7-12.9c-0.6-0.9-1.3-2.1-1.7-2.7c0,0.9,0.1,3.8,0.1,5.2v10.4h-4.6v-23.6h4.5l8.4,12.5
			c0.6,0.9,1.3,2.1,1.7,2.7c0-0.9-0.1-3.8-0.1-5.2v-10h4.7v23.6H394z"/>
	</g>
	<g>
		<path fill="#A9B8C6" d="M404.6,456.2v-23.6h4.7v23.6H404.6z"/>
	</g>
	<g>
		<path fill="#A9B8C6" d="M425.7,437.2v18.9H421v-18.9h-6.8v-4.6h18.3v4.6H425.7z"/>
	</g>
	<g>
		<path fill="#A9B8C6" d="M448.4,446.8v9.3h-4.7v-9.2l-8.9-14.4h5.4l3.3,5.6c0.8,1.4,2.1,3.7,2.6,4.6c0.4-0.9,1.7-3.1,2.6-4.6
			l3.3-5.6h5.4L448.4,446.8z"/>
	</g>
	<g>
		<path fill="#A9B8C6" d="M486.5,456.2l-1.9-5.3h-8.6l-1.9,5.3h-5.1l9-23.6h4.6l9,23.6H486.5z M481.6,442.2
			c-0.5-1.4-0.9-2.8-1.2-3.7c-0.2,0.9-0.7,2.3-1.2,3.7l-1.5,4.3h5.4L481.6,442.2z"/>
	</g>
	<g>
		<path fill="#A9B8C6" d="M511,456.2l-8.7-12.9c-0.6-0.9-1.3-2.1-1.7-2.7c0,0.9,0.1,3.8,0.1,5.2v10.4h-4.6v-23.6h4.5l8.4,12.5
			c0.6,0.9,1.3,2.1,1.7,2.7c0-0.9-0.1-3.8-0.1-5.2v-10h4.6v23.6H511z"/>
	</g>
	<g>
		<path fill="#A9B8C6" d="M528.3,456.2h-7v-23.6h7.4c6.7,0,11.7,3.2,11.7,11.8C540.4,452.7,534.4,456.2,528.3,456.2z M528.5,437.2
			H526v14.4h2.3c5,0,7.2-2.9,7.2-7.2C535.5,439.6,533.5,437.2,528.5,437.2z"/>
	</g>
	<g>
		<path fill="#A9B8C6" d="M568.6,456.2l-4.2-8.5h-4.8v8.5h-4.7v-23.6h11c4.4,0,8.1,2.5,8.1,7.5c0,3.5-1.5,5.8-4.5,6.9l4.5,9.2H568.6
			z M565.8,437.2h-6.2v6.1h6.2c2.2,0,3.4-1,3.4-3.1C569.1,438,567.9,437.2,565.8,437.2z"/>
	</g>
	<g>
		<path fill="#A9B8C6" d="M578.9,456.2v-23.6h16.4v4.6h-11.7v4.1h6.8v4.6h-6.8v5.7h12.2v4.6H578.9z"/>
	</g>
	<g>
		<path fill="#A9B8C6" d="M608.4,456.5c-3.9,0-7.4-1.7-9.2-4.3l3.4-3c1.7,1.9,3.8,2.7,6,2.7c2.8,0,4.1-0.8,4.1-2.6
			c0-1.5-0.8-2.2-5.3-3.2c-4.3-1-7.4-2.4-7.4-7c0-4.3,3.8-6.9,8.4-6.9c3.7,0,6.4,1.4,8.6,3.7l-3.4,3.3c-1.5-1.5-3.2-2.4-5.4-2.4
			c-2.5,0-3.4,1.1-3.4,2.1c0,1.5,1,2,4.8,2.8c3.7,0.9,7.9,2.2,7.9,7.3C617.6,453.5,614.8,456.5,608.4,456.5z"/>
	</g>
	<g>
		<path fill="#A9B8C6" d="M632.5,447.8h-5.2v8.4h-4.7v-23.6h10.3c4.4,0,8.1,2.5,8.1,7.5C641,445.5,637.4,447.8,632.5,447.8z
			 M632.7,437.2h-5.4v6.1h5.5c2.2,0,3.4-1,3.4-3.1C636.2,438.1,634.8,437.2,632.7,437.2z"/>
	</g>
	<g>
		<path fill="#A9B8C6" d="M645.5,456.2v-23.6h16.4v4.6h-11.7v4.1h6.8v4.6h-6.8v5.7h12.2v4.6H645.5z"/>
	</g>
	<g>
		<path fill="#A9B8C6" d="M679.7,439.5c-0.8-1.6-2.2-2.6-4.3-2.6c-3.5,0-5.6,3.1-5.6,7.5c0,4.2,2.1,7.5,5.6,7.5c2.1,0,3.4-0.9,4.6-3
			l4,2.4c-1.6,3.3-4.4,5.3-8.7,5.3c-6.2,0-10.3-4.7-10.3-12.2c0-7.2,4.3-12.2,10.5-12.2c4.4,0,7.1,2.2,8.6,5.2L679.7,439.5z"/>
	</g>
	<g>
		<path fill="#A9B8C6" d="M698.3,437.2v18.9h-4.7v-18.9h-6.8v-4.6h18.3v4.6H698.3z"/>
	</g>
</g>
<g>
	<g>
		<path fill="#A9B8C6" d="M324.3,467.8v4.2h6.6v4.3h-6.6v9.3h-4.4v-22h15.8v4.3H324.3z"/>
	</g>
	<g>
		<path fill="#A9B8C6" d="M347.6,485.9c-6,0-9.6-4.7-9.6-11.4c0-6.7,3.6-11.4,9.6-11.4s9.6,4.7,9.6,11.4
			C357.1,481.3,353.6,485.9,347.6,485.9z M347.6,467.6c-3.6,0-5,3.1-5,7c0,3.9,1.5,7,5,7s5-3.1,5-7
			C352.6,470.6,351.1,467.6,347.6,467.6z"/>
	</g>
	<g>
		<path fill="#A9B8C6" d="M375.1,485.6l-3.9-7.9h-4.4v7.9h-4.4v-22h10.3c4.2,0,7.6,2.3,7.6,7c0,3.3-1.4,5.4-4.2,6.5l4.2,8.6H375.1z
			 M372.5,467.8h-5.8v5.7h5.8c2,0,3.1-0.9,3.1-2.9C375.6,468.6,374.4,467.8,372.5,467.8z"/>
	</g>
	<g>
		<path fill="#A9B8C6" d="M402.7,485.9c-3.7,0-6.9-1.5-8.6-4l3.2-2.8c1.5,1.8,3.5,2.5,5.6,2.5c2.6,0,3.8-0.7,3.8-2.4
			c0-1.4-0.8-2-4.9-3c-4.1-0.9-6.9-2.2-6.9-6.6c0-4,3.5-6.5,7.9-6.5c3.4,0,6,1.3,8,3.5l-3.2,3.1c-1.4-1.4-3-2.3-5-2.3
			c-2.4,0-3.1,1-3.1,2c0,1.4,0.9,1.8,4.4,2.6c3.5,0.8,7.4,2,7.4,6.8C411.4,483.1,408.8,485.9,402.7,485.9z"/>
	</g>
	<g>
		<path fill="#A9B8C6" d="M416.7,485.6v-22H432v4.3h-10.9v3.8h6.3v4.3h-6.3v5.3h11.4v4.3H416.7z"/>
	</g>
	<g>
		<path fill="#A9B8C6" d="M437.9,485.6v-22h4.4v17.7h11.1v4.3H437.9z"/>
	</g>
	<g>
		<path fill="#A9B8C6" d="M462.5,467.8v4.2h6.6v4.3h-6.6v9.3h-4.4v-22h15.8v4.3H462.5z"/>
	</g>
	<g>
		<path fill="#A9B8C6" d="M502.9,485.6l-1.7-4.9h-8.1l-1.7,4.9h-4.7l8.4-22h4.3l8.4,22H502.9z M498.2,472.5
			c-0.4-1.3-0.9-2.6-1.1-3.4c-0.2,0.8-0.7,2.1-1.1,3.4l-1.4,4h5L498.2,472.5z"/>
	</g>
	<g>
		<path fill="#A9B8C6" d="M526.4,485.6l-8.1-12c-0.5-0.8-1.3-1.9-1.5-2.5c0,0.8,0.1,3.6,0.1,4.8v9.7h-4.3v-22h4.2l7.8,11.7
			c0.5,0.8,1.3,1.9,1.5,2.5c0-0.8-0.1-3.6-0.1-4.8v-9.3h4.3v22H526.4z"/>
	</g>
	<g>
		<path fill="#A9B8C6" d="M543.3,485.6h-6.6v-22h6.9c6.3,0,11,3,11,11C554.5,482.3,548.9,485.6,543.3,485.6z M543.4,467.8h-2.3v13.5
			h2.2c4.6,0,6.7-2.7,6.7-6.7C550,470.1,548.1,467.8,543.4,467.8z"/>
	</g>
	<g>
		<path fill="#A9B8C6" d="M577.8,485.9c-6,0-9.6-4.7-9.6-11.4c0-6.7,3.6-11.4,9.6-11.4c6,0,9.6,4.7,9.6,11.4
			C587.4,481.3,583.8,485.9,577.8,485.9z M577.8,467.6c-3.6,0-5,3.1-5,7c0,3.9,1.5,7,5,7c3.6,0,5-3.1,5-7
			C582.9,470.6,581.4,467.6,577.8,467.6z"/>
	</g>
	<g>
		<path fill="#A9B8C6" d="M600.8,467.9v17.7h-4.4v-17.7h-6.3v-4.3h17.1v4.3H600.8z"/>
	</g>
	<g>
		<path fill="#A9B8C6" d="M625.5,485.6v-9.3h-9v9.3h-4.4v-22h4.4v8.4h9v-8.4h4.4v22H625.5z"/>
	</g>
	<g>
		<path fill="#A9B8C6" d="M636.3,485.6v-22h15.3v4.3h-10.9v3.8h6.3v4.3h-6.3v5.3H652v4.3H636.3z"/>
	</g>
	<g>
		<path fill="#A9B8C6" d="M670.2,485.6l-3.9-7.9h-4.4v7.9h-4.4v-22h10.3c4.2,0,7.6,2.3,7.6,7c0,3.3-1.4,5.4-4.2,6.5l4.2,8.6H670.2z
			 M667.6,467.8h-5.8v5.7h5.8c2,0,3.1-0.9,3.1-2.9C670.7,468.6,669.5,467.8,667.6,467.8z"/>
	</g>
	<g>
		<path fill="#A9B8C6" d="M688,485.9c-3.7,0-6.9-1.5-8.6-4l3.2-2.8c1.5,1.8,3.5,2.5,5.6,2.5c2.6,0,3.8-0.7,3.8-2.4
			c0-1.4-0.8-2-4.9-3c-4.1-0.9-6.9-2.2-6.9-6.6c0-4,3.5-6.5,7.9-6.5c3.4,0,6,1.3,8,3.5l-3.2,3.1c-1.4-1.4-3-2.3-5-2.3
			c-2.4,0-3.1,1-3.1,2c0,1.4,0.9,1.8,4.4,2.6c3.5,0.8,7.4,2,7.4,6.8C696.7,483.1,694.1,485.9,688,485.9z"/>
	</g>
	<g>
		<path fill="#A9B8C6" d="M703,485.9c-1.6,0-3-1.4-3-3s1.4-3,3-3s3,1.4,3,3S704.6,485.9,703,485.9z"/>
	</g>
</g>
<g>
	<g>
		<path fill="#A9B8C6" d="M333.9,314.5c-0.8-1.6-2.1-2.5-4.2-2.5c-3.5,0-5.4,3-5.4,7.3c0,4.2,2,7.3,5.5,7.3c2.1,0,3.3-0.9,4.5-2.9
			l3.9,2.3c-1.6,3.3-4.4,5.2-8.5,5.2c-6,0-10.1-4.6-10.1-11.9c0-7,4.2-11.9,10.3-11.9c4.4,0,7,2.1,8.4,5.1L333.9,314.5z"/>
	</g>
	<g>
		<path fill="#A9B8C6" d="M351,331.2c-6.3,0-10-4.9-10-11.9s3.7-11.9,10-11.9c6.3,0,10,4.9,10,11.9S357.3,331.2,351,331.2z
			 M351,311.9c-3.7,0-5.3,3.2-5.3,7.3s1.6,7.3,5.3,7.3c3.7,0,5.3-3.2,5.3-7.3S354.7,311.9,351,311.9z"/>
	</g>
	<g>
		<path fill="#A9B8C6" d="M380.4,330.8l-8.5-12.6c-0.6-0.9-1.3-2-1.6-2.6c0,0.9,0.1,3.8,0.1,5v10.2h-4.6v-23.1h4.4l8.2,12.2
			c0.6,0.9,1.3,2,1.6,2.6c0-0.9-0.1-3.8-0.1-5v-9.8h4.6v23.1H380.4z"/>
	</g>
	<g>
		<path fill="#A9B8C6" d="M398.4,331.2c-3.9,0-7.2-1.6-9-4.2l3.3-3c1.6,1.9,3.7,2.6,5.9,2.6c2.7,0,4-0.8,4-2.5
			c0-1.5-0.8-2.1-5.1-3.1c-4.3-1-7.2-2.3-7.2-6.9c0-4.2,3.7-6.8,8.3-6.8c3.6,0,6.2,1.4,8.4,3.6l-3.3,3.2c-1.5-1.5-3.1-2.4-5.2-2.4
			c-2.5,0-3.3,1.1-3.3,2.1c0,1.5,1,1.9,4.7,2.8s7.7,2.1,7.7,7.1C407.5,328.2,404.7,331.2,398.4,331.2z"/>
	</g>
	<g>
		<path fill="#A9B8C6" d="M412.8,330.8v-23.1h4.6v23.1H412.8z"/>
	</g>
	<g>
		<path fill="#A9B8C6" d="M431.7,331.2c-3.9,0-7.2-1.6-9-4.2l3.3-3c1.6,1.9,3.7,2.6,5.9,2.6c2.7,0,4-0.8,4-2.5
			c0-1.5-0.8-2.1-5.1-3.1c-4.3-1-7.2-2.3-7.2-6.9c0-4.2,3.7-6.8,8.3-6.8c3.6,0,6.2,1.4,8.4,3.6l-3.3,3.2c-1.5-1.5-3.1-2.4-5.2-2.4
			c-2.5,0-3.3,1.1-3.3,2.1c0,1.5,1,1.9,4.7,2.8s7.7,2.1,7.7,7.1C440.7,328.2,438,331.2,431.7,331.2z"/>
	</g>
	<g>
		<path fill="#A9B8C6" d="M454.6,312.3v18.5H450v-18.5h-6.6v-4.6h17.9v4.6H454.6z"/>
	</g>
	<g>
		<path fill="#A9B8C6" d="M465.8,330.8v-23.1h16v4.5h-11.4v4h6.6v4.5h-6.6v5.6h11.9v4.5H465.8z"/>
	</g>
	<g>
		<path fill="#A9B8C6" d="M501.9,330.8l-8.5-12.6c-0.6-0.9-1.3-2-1.6-2.6c0,0.9,0.1,3.8,0.1,5v10.2h-4.6v-23.1h4.4l8.2,12.2
			c0.6,0.9,1.3,2,1.6,2.6c0-0.9-0.1-3.8-0.1-5v-9.8h4.6v23.1H501.9z"/>
	</g>
	<g>
		<path fill="#A9B8C6" d="M521.9,312.3v18.5h-4.6v-18.5h-6.6v-4.6h17.9v4.6H521.9z"/>
	</g>
	<g>
		<path fill="#A9B8C6" d="M562.4,330.8h-4.5l-2.8-11.9c-0.3-1.4-0.7-3.1-0.8-4c-0.1,0.9-0.4,2.6-0.8,4l-2.9,11.9h-4.3l-4.8-23.1h4.8
			l2,11.3c0.2,1.1,0.5,2.8,0.6,3.8c0.2-1,0.5-2.7,0.8-3.8l2.7-11.3h4l2.7,11.3c0.3,1.1,0.6,2.8,0.8,3.8c0.1-1,0.4-2.7,0.6-3.8
			l2-11.3h4.8L562.4,330.8z"/>
	</g>
	<g>
		<path fill="#A9B8C6" d="M572.2,330.8v-23.1h4.6v23.1H572.2z"/>
	</g>
	<g>
		<path fill="#A9B8C6" d="M593,312.3v18.5h-4.6v-18.5h-6.6v-4.6h17.9v4.6H593z"/>
	</g>
	<g>
		<path fill="#A9B8C6" d="M618.3,330.8v-9.7h-9.5v9.7h-4.6v-23.1h4.6v8.8h9.5v-8.8h4.6v23.1H618.3z"/>
	</g>
	<g>
		<path fill="#A9B8C6" d="M647.4,331.2c-6.3,0-10-4.9-10-11.9s3.7-11.9,10-11.9c6.3,0,10,4.9,10,11.9S653.7,331.2,647.4,331.2z
			 M647.4,311.9c-3.7,0-5.3,3.2-5.3,7.3s1.6,7.3,5.3,7.3c3.7,0,5.3-3.2,5.3-7.3S651.1,311.9,647.4,311.9z"/>
	</g>
	<g>
		<path fill="#A9B8C6" d="M671.4,331.2c-5.6,0-9.3-3.8-9.3-10.5v-13h4.6v12.9c0,3.7,1.8,6,4.7,6s4.8-2.3,4.8-6v-13h4.6v12.9
			C680.8,327.3,677.3,331.2,671.4,331.2z"/>
	</g>
	<g>
		<path fill="#A9B8C6" d="M700.1,330.8l-4.1-8.3h-4.7v8.3h-4.6v-23.1h10.8c4.4,0,8,2.4,8,7.3c0,3.5-1.5,5.6-4.4,6.8l4.4,9H700.1z
			 M697.3,312.2h-6v5.9h6c2.1,0,3.3-1,3.3-3C700.6,313.1,699.4,312.2,697.3,312.2z"/>
	</g>
</g>
<g>
	<g>
		<path fill="#A9B8C6" d="M327.7,355.6c-4.6,0-7.6-3.1-7.6-8.6v-10.6h3.8V347c0,3,1.5,4.9,3.9,4.9s3.9-1.9,3.9-4.9v-10.6h3.8V347
			C335.4,352.5,332.5,355.6,327.7,355.6z"/>
	</g>
	<g>
		<path fill="#A9B8C6" d="M348.6,355.6c-1.4,0-2.5-1.2-2.5-2.5s1.2-2.5,2.5-2.5s2.5,1.2,2.5,2.5S350,355.6,348.6,355.6z"/>
	</g>
	<g>
		<path fill="#A9B8C6" d="M369.1,355.6c-3.2,0-5.9-1.3-7.3-3.4l2.7-2.4c1.3,1.5,3,2.2,4.8,2.2c2.2,0,3.3-0.6,3.3-2.1
			c0-1.2-0.6-1.8-4.2-2.6c-3.5-0.8-5.9-1.9-5.9-5.6c0-3.4,3-5.5,6.7-5.5c2.9,0,5.1,1.1,6.9,3l-2.7,2.6c-1.2-1.2-2.6-1.9-4.3-1.9
			c-2,0-2.7,0.9-2.7,1.7c0,1.2,0.8,1.6,3.8,2.3c3,0.7,6.3,1.7,6.3,5.8C376.5,353.2,374.3,355.6,369.1,355.6z"/>
	</g>
	<g>
		<path fill="#A9B8C6" d="M389.3,355.6c-1.4,0-2.5-1.2-2.5-2.5s1.2-2.5,2.5-2.5s2.5,1.2,2.5,2.5S390.7,355.6,389.3,355.6z"/>
	</g>
	<g>
		<path fill="#A9B8C6" d="M431.8,355.3l-1.5-4.2h-6.9l-1.5,4.2h-4l7.2-18.9h3.7l7.2,18.9H431.8z M427.8,344.1
			c-0.4-1.1-0.8-2.2-0.9-2.9c-0.2,0.7-0.6,1.8-0.9,2.9l-1.2,3.4h4.3L427.8,344.1z"/>
	</g>
	<g>
		<path fill="#A9B8C6" d="M458.4,355.3l-3.4-6.8h-3.8v6.8h-3.8v-18.9h8.8c3.6,0,6.5,2,6.5,6c0,2.8-1.2,4.6-3.6,5.6l3.6,7.3H458.4z
			 M456.1,340.1h-4.9v4.9h4.9c1.8,0,2.7-0.8,2.7-2.5C458.8,340.8,457.8,340.1,456.1,340.1z"/>
	</g>
	<g>
		<path fill="#A9B8C6" d="M488.5,355.3v-6.9c0-1,0.1-3.4,0.1-4.2c-0.3,0.7-0.8,2.1-1.3,3.1l-3.8,8.4l-3.8-8.4
			c-0.5-1.1-1.1-2.4-1.3-3.1c0,0.7,0.1,3.1,0.1,4.2v6.9h-3.7v-18.9h3.6l3.9,8.6c0.5,1.1,1.1,2.5,1.3,3.2c0.2-0.7,0.8-2.1,1.3-3.2
			l3.8-8.6h3.7v18.9H488.5z"/>
	</g>
	<g>
		<path fill="#A9B8C6" d="M514.2,347.8v7.5h-3.8v-7.4l-7.2-11.5h4.3l2.7,4.5c0.7,1.1,1.7,3,2.1,3.7c0.4-0.7,1.3-2.5,2.1-3.7l2.7-4.5
			h4.3L514.2,347.8z"/>
	</g>
	<g>
		<path fill="#A9B8C6" d="M557.2,355.3h-3.7l-6.7-18.9h4.2l3.6,10.9c0.4,1.1,0.7,2.4,0.9,3.1c0.2-0.7,0.5-2,0.9-3.1l3.5-10.9h4.1
			L557.2,355.3z"/>
	</g>
	<g>
		<path fill="#A9B8C6" d="M585,355.3l-1.5-4.2h-6.9l-1.5,4.2h-4l7.2-18.9h3.7l7.2,18.9H585z M581,344.1c-0.4-1.1-0.8-2.2-0.9-2.9
			c-0.2,0.7-0.6,1.8-0.9,2.9l-1.2,3.4h4.3L581,344.1z"/>
	</g>
	<g>
		<path fill="#A9B8C6" d="M600.6,355.3v-18.9h3.8v15.2h9.5v3.7H600.6z"/>
	</g>
	<g>
		<path fill="#A9B8C6" d="M631.9,355.6c-4.6,0-7.6-3.1-7.6-8.6v-10.6h3.8V347c0,3,1.5,4.9,3.9,4.9s3.9-1.9,3.9-4.9v-10.6h3.8V347
			C639.5,352.5,636.7,355.6,631.9,355.6z"/>
	</g>
	<g>
		<path fill="#A9B8C6" d="M652.2,355.3v-18.9h13.1v3.7H656v3.3h5.4v3.7H656v4.6h9.7v3.7H652.2z"/>
	</g>
	<g>
		<path fill="#A9B8C6" d="M683.8,355.6c-3.2,0-5.9-1.3-7.3-3.4l2.7-2.4c1.3,1.5,3,2.2,4.8,2.2c2.2,0,3.3-0.6,3.3-2.1
			c0-1.2-0.6-1.8-4.2-2.6c-3.5-0.8-5.9-1.9-5.9-5.6c0-3.4,3-5.5,6.7-5.5c2.9,0,5.1,1.1,6.9,3l-2.7,2.6c-1.2-1.2-2.6-1.9-4.3-1.9
			c-2,0-2.7,0.9-2.7,1.7c0,1.2,0.8,1.6,3.8,2.3c3,0.7,6.3,1.7,6.3,5.8C691.2,353.2,688.9,355.6,683.8,355.6z"/>
	</g>
	<g>
		<path fill="#A9B8C6" d="M704,355.6c-1.4,0-2.5-1.2-2.5-2.5s1.2-2.5,2.5-2.5s2.5,1.2,2.5,2.5S705.4,355.6,704,355.6z"/>
	</g>
</g>
<g>
	<g>
		<g>
			<path fill="#A9B8C6" d="M358.9,87.3c-0.7,0-1.3-0.4-1.5-1.1c-0.3-0.8,0.2-1.7,1-2l21.4-6.8c0.6-3.5,3.3-8.4,3.7-9l0.1-0.3
				l0.2-0.2c7.2-5.8,10.7-12.7,10.6-20.6c-0.1-7-3.2-12.3-3.8-13.3c-2.4-3.9-9.6-10.6-21-10.6c-12.1,0-17.6,6.3-21.9,13.1
				c-4.2,6.7-1.3,22.9,4.9,27.4c7.3,5.4,7.8,16.5,7.8,16.9c0,0.9-0.7,1.6-1.5,1.7c0,0,0,0-0.1,0c-0.9,0-1.6-0.7-1.6-1.5l0,0
				c0-0.1-0.4-10-6.5-14.4c-7.5-5.5-10.8-23.6-5.8-31.7c4.5-7.2,10.9-14.7,24.6-14.7c15.8,0,23,10.8,23.8,12.1
				c4.9,7.9,8.9,24.7-7.2,37.9c-1.3,2.3-3.2,6.4-3.2,8.3v1.2l-23.6,7.5C359.2,87.3,359,87.3,358.9,87.3z"/>
		</g>
	</g>
	<g>
		<g>
			<path fill="#A9B8C6" d="M359.2,94.8c-0.7,0-1.4-0.5-1.6-1.2c-0.2-0.9,0.3-1.7,1.2-1.9l21.7-5.3c0.9-0.2,1.7,0.3,1.9,1.2
				c0.2,0.9-0.3,1.7-1.2,1.9l-21.7,5.3C359.5,94.7,359.4,94.8,359.2,94.8z"/>
		</g>
	</g>
	<g>
		<g>
			<path fill="#A9B8C6" d="M359.2,102.3c-0.7,0-1.4-0.5-1.6-1.2c-0.2-0.9,0.3-1.7,1.2-1.9l21.7-5.3c0.9-0.2,1.7,0.3,1.9,1.2
				c0.2,0.9-0.3,1.7-1.2,1.9l-21.7,5.3C359.5,102.2,359.4,102.3,359.2,102.3z"/>
		</g>
	</g>
	<g>
		<g>
			<path fill="#A9B8C6" d="M369.5,108.4c-3.3,0-6-1.4-7.4-2.6c-0.7-0.6-0.7-1.6-0.2-2.3c0.6-0.7,1.6-0.7,2.3-0.2
				c0.2,0.2,4.9,4.1,10.9-0.1c0.7-0.5,1.7-0.3,2.2,0.4c0.5,0.7,0.3,1.7-0.4,2.2C374.3,107.7,371.7,108.4,369.5,108.4z"/>
		</g>
	</g>
	<g>
		<g>
			<path fill="#A9B8C6" d="M331.3,77.8c-0.4,0-0.9-0.2-1.2-0.6c-0.6-0.7-0.5-1.7,0.2-2.3l10.7-9.3c0.7-0.6,1.7-0.5,2.3,0.2
				c0.6,0.7,0.5,1.7-0.2,2.3l-10.7,9.3C332,77.7,331.6,77.8,331.3,77.8z"/>
		</g>
	</g>
	<g>
		<g>
			<path fill="#A9B8C6" d="M393,26.1c-0.4,0-0.9-0.2-1.2-0.6c-0.6-0.7-0.5-1.7,0.2-2.3l10.7-9.3c0.7-0.6,1.7-0.5,2.3,0.2
				c0.6,0.7,0.5,1.7-0.2,2.3l-10.7,9.3C393.8,25.9,393.4,26.1,393,26.1z"/>
		</g>
	</g>
	<g>
		<g>
			<path fill="#A9B8C6" d="M402.1,44.9c-0.9,0-1.6-0.7-1.6-1.6c0-0.9,0.7-1.6,1.6-1.6l14.1-0.1h0c0.9,0,1.6,0.7,1.6,1.6
				c0,0.9-0.7,1.6-1.6,1.6L402.1,44.9C402.2,44.9,402.2,44.9,402.1,44.9z"/>
		</g>
	</g>
	<g>
		<g>
			<path fill="#A9B8C6" d="M321.6,44.9c-0.9,0-1.6-0.7-1.6-1.6c0-0.9,0.7-1.6,1.6-1.6l14.1-0.1h0c0.9,0,1.6,0.7,1.6,1.6
				c0,0.9-0.7,1.6-1.6,1.6L321.6,44.9C321.6,44.9,321.6,44.9,321.6,44.9z"/>
		</g>
	</g>
	<g>
		<g>
			<path fill="#A9B8C6" d="M347.4,25.9c-0.4,0-0.7-0.1-1-0.4l-10.9-9c-0.7-0.6-0.8-1.6-0.2-2.3c0.6-0.7,1.6-0.8,2.3-0.2l10.9,9
				c0.7,0.6,0.8,1.6,0.2,2.3C348.3,25.7,347.9,25.9,347.4,25.9z"/>
		</g>
	</g>
	<g>
		<g>
			<path fill="#A9B8C6" d="M407.6,77.8c-0.4,0-0.7-0.1-1-0.4l-10.9-9c-0.7-0.6-0.8-1.6-0.2-2.3c0.6-0.7,1.6-0.8,2.3-0.2l10.9,9
				c0.7,0.6,0.8,1.6,0.2,2.3C408.5,77.6,408.1,77.8,407.6,77.8z"/>
		</g>
	</g>
	<g>
		<g>
			<path fill="#A9B8C6" d="M370.1,17.4L370.1,17.4c-0.9,0-1.6-0.7-1.6-1.6l0-14.1c0-0.9,0.7-1.6,1.6-1.6h0c0.9,0,1.6,0.7,1.6,1.6
				l0,14.1C371.7,16.6,371,17.4,370.1,17.4z"/>
		</g>
	</g>
	<g>
		<g>
			<path fill="#A9B8C6" d="M373.1,77.8c-0.9,0-1.6-0.7-1.6-1.5c-0.3-5.5,1.2-12.5,2.1-16.3l-3.6,1.2h-1l-2.7-0.9
				c1.3,4.8,1.4,12.2,1.3,16c0,0.9-0.7,1.6-1.6,1.6c0,0,0,0,0,0c-0.9,0-1.6-0.8-1.6-1.6c0.2-8.4-0.8-16.5-2.1-17.3l1.4-2.9l5.9,2
				l5.9-2l2,2c0,0.1-3.1,10.9-2.8,18.2C374.8,77,374.1,77.8,373.1,77.8C373.2,77.8,373.2,77.8,373.1,77.8z"/>
		</g>
	</g>
</g>
</svg>
