<?xml version="1.0" encoding="utf-8"?>
<!-- Generator: Adobe Illustrator 18.0.0, SVG Export Plug-In . SVG Version: 6.00 Build 0)  -->
<!DOCTYPE svg PUBLIC "-//W3C//DTD SVG 1.1//EN" "http://www.w3.org/Graphics/SVG/1.1/DTD/svg11.dtd">
<svg version="1.1" id="Layer_1" xmlns="http://www.w3.org/2000/svg" xmlns:xlink="http://www.w3.org/1999/xlink" x="0px" y="0px"
	 viewBox="0 0 419.6 374.2" enable-background="new 0 0 419.6 374.2" xml:space="preserve">
<g>
	<rect x="0" y="0.3" fill="#3C5A99" width="419.7" height="131.9"/>
	<rect x="0.3" y="132.1" fill="#FFFFFF" stroke="#D2D2D2" stroke-width="0.5" stroke-miterlimit="10" width="419" height="241.8"/>
	<line fill="none" stroke="#D2D2D2" stroke-miterlimit="10" x1="0.3" y1="325.9" x2="418.8" y2="325.9"/>
	<g>
		<path d="M18.1,218.6l4.1,10.5h0.1l4.1-10.5h2.2v12.9h-1.8v-5.1l0.2-5.3l0,0l-4.2,10.4h-1.2l-4.2-10.3l0,0l0.2,5.2v5.1h-1.8v-12.9
			H18.1z"/>
		<path d="M34.5,228l0.3,1.2h0.1l2.4-7.3h1.9l-4,11.1c-0.2,0.6-0.6,1.2-1,1.7c-0.5,0.5-1.1,0.7-1.8,0.7c-0.1,0-0.3,0-0.5,0
			c-0.2,0-0.4-0.1-0.5-0.1l0.2-1.4c0,0,0.1,0,0.3,0c0.2,0,0.4,0,0.5,0c0.4,0,0.7-0.2,0.9-0.5c0.2-0.3,0.4-0.7,0.6-1.1l0.4-1
			l-3.6-9.4h2L34.5,228z"/>
		<path d="M52.6,228.3c0-0.6-0.2-1.1-0.7-1.5c-0.4-0.4-1.2-0.7-2.4-1c-1.4-0.3-2.4-0.8-3.2-1.4c-0.8-0.6-1.2-1.4-1.2-2.4
			c0-1,0.4-1.9,1.2-2.5c0.8-0.7,1.9-1,3.2-1c1.4,0,2.5,0.4,3.4,1.2c0.8,0.8,1.2,1.7,1.2,2.7l0,0.1h-1.7c0-0.8-0.3-1.4-0.8-1.8
			c-0.5-0.5-1.2-0.7-2.2-0.7c-0.9,0-1.5,0.2-2,0.6c-0.5,0.4-0.7,0.9-0.7,1.5c0,0.6,0.3,1,0.8,1.4c0.5,0.4,1.3,0.7,2.5,1
			c1.4,0.3,2.4,0.8,3.1,1.5c0.7,0.7,1.1,1.5,1.1,2.4c0,1-0.4,1.9-1.3,2.5c-0.9,0.6-2,0.9-3.3,0.9c-1.3,0-2.4-0.3-3.4-1.1
			c-1-0.7-1.5-1.6-1.4-2.8l0-0.1h1.7c0,0.8,0.3,1.5,0.9,1.9c0.6,0.4,1.4,0.6,2.3,0.6c0.9,0,1.6-0.2,2.1-0.6
			C52.3,229.4,52.6,228.9,52.6,228.3z"/>
		<path d="M56.2,226.7c0-1.4,0.4-2.6,1.2-3.5c0.8-0.9,1.8-1.4,3.1-1.4c1.3,0,2.4,0.5,3.2,1.4c0.8,0.9,1.2,2.1,1.2,3.5v0.2
			c0,1.4-0.4,2.6-1.2,3.5c-0.8,0.9-1.8,1.4-3.1,1.4c-1.3,0-2.4-0.5-3.2-1.4c-0.8-0.9-1.2-2.1-1.2-3.5V226.7z M57.9,226.9
			c0,1,0.2,1.9,0.6,2.5c0.4,0.7,1.1,1,1.9,1c0.8,0,1.5-0.3,1.9-1c0.4-0.7,0.6-1.5,0.6-2.5v-0.2c0-1-0.2-1.8-0.7-2.5
			c-0.4-0.7-1.1-1-1.9-1c-0.8,0-1.5,0.3-1.9,1s-0.6,1.5-0.6,2.5V226.9z"/>
		<path d="M68.8,231.6h-1.8v-13.8h1.8V231.6z"/>
		<path d="M71.1,226.9c0-1.5,0.3-2.8,1-3.7c0.7-0.9,1.6-1.4,2.8-1.4c0.6,0,1.1,0.1,1.5,0.3c0.4,0.2,0.8,0.5,1.1,0.9v-5.3h1.8v13.8
			h-1.4l-0.2-1.2c-0.3,0.4-0.7,0.8-1.2,1c-0.5,0.2-1,0.3-1.6,0.3c-1.2,0-2.1-0.4-2.8-1.3c-0.7-0.8-1-2-1-3.4V226.9z M72.8,227.1
			c0,1,0.2,1.7,0.6,2.3c0.4,0.6,1,0.9,1.8,0.9c0.5,0,1-0.1,1.3-0.4c0.4-0.2,0.6-0.6,0.9-1v-4.5c-0.2-0.4-0.5-0.7-0.9-0.9
			c-0.4-0.2-0.8-0.4-1.3-0.4c-0.8,0-1.5,0.3-1.9,1c-0.4,0.7-0.6,1.6-0.6,2.7V227.1z"/>
		<path d="M83.7,219.5H82v-1.8h1.8V219.5z M83.7,231.6H82v-9.6h1.8V231.6z"/>
		<path d="M90.4,231.7c-1.3,0-2.4-0.4-3.2-1.3c-0.8-0.9-1.2-2-1.2-3.5v-0.4c0-1.4,0.4-2.5,1.2-3.4s1.8-1.4,2.9-1.4
			c1.3,0,2.3,0.4,2.9,1.2c0.7,0.8,1,1.8,1,3.1v1.1h-6.2l0,0c0,0.9,0.3,1.7,0.7,2.3c0.5,0.6,1.1,0.9,1.9,0.9c0.6,0,1.1-0.1,1.6-0.3
			c0.4-0.2,0.8-0.4,1.2-0.7l0.7,1.1c-0.3,0.3-0.8,0.6-1.4,0.8C91.9,231.6,91.2,231.7,90.4,231.7z M90.1,223.1
			c-0.6,0-1.1,0.2-1.5,0.7c-0.4,0.5-0.7,1.1-0.8,1.9l0,0h4.4v-0.2c0-0.7-0.2-1.3-0.6-1.7C91.4,223.4,90.9,223.1,90.1,223.1z"/>
		<path d="M100.6,223.5l-0.9-0.1c-0.5,0-0.9,0.1-1.2,0.3c-0.3,0.2-0.6,0.5-0.7,0.9v6.9H96v-9.6h1.6l0.2,1.4c0.3-0.5,0.6-0.9,1-1.2
			c0.4-0.3,0.9-0.4,1.4-0.4c0.1,0,0.3,0,0.4,0c0.1,0,0.2,0,0.3,0.1L100.6,223.5z"/>
		<path d="M108.7,219.5H107v-1.8h1.8V219.5z M108.7,231.6H107v-9.6h1.8V231.6z"/>
		<path d="M117,229c0-0.4-0.1-0.7-0.4-1c-0.3-0.2-0.8-0.5-1.7-0.6c-1.2-0.3-2-0.6-2.6-1c-0.6-0.4-0.9-1-0.9-1.8c0-0.8,0.3-1.4,1-2
			c0.7-0.6,1.5-0.8,2.6-0.8c1.1,0,2,0.3,2.7,0.9c0.7,0.6,1,1.3,0.9,2.1l0,0.1h-1.7c0-0.4-0.2-0.8-0.5-1.1c-0.4-0.3-0.8-0.5-1.4-0.5
			c-0.6,0-1.1,0.1-1.4,0.4c-0.3,0.3-0.5,0.6-0.5,1c0,0.4,0.1,0.7,0.4,0.9c0.3,0.2,0.8,0.4,1.6,0.6c1.2,0.3,2.1,0.6,2.7,1.1
			c0.6,0.4,0.9,1,0.9,1.8c0,0.9-0.3,1.5-1,2.1c-0.7,0.5-1.6,0.8-2.7,0.8c-1.2,0-2.2-0.3-2.9-0.9c-0.7-0.6-1-1.3-1-2.2l0-0.1h1.7
			c0,0.6,0.3,1.1,0.7,1.4c0.4,0.3,0.9,0.4,1.5,0.4c0.6,0,1.1-0.1,1.5-0.4C116.8,229.7,117,229.4,117,229z"/>
		<path d="M129.3,230.4c0.6,0,1.1-0.2,1.5-0.5c0.4-0.4,0.7-0.8,0.7-1.3h1.6l0,0.1c0,0.8-0.3,1.6-1.1,2.2s-1.7,1-2.7,1
			c-1.4,0-2.5-0.5-3.2-1.4c-0.7-0.9-1.1-2.1-1.1-3.4v-0.4c0-1.4,0.4-2.5,1.1-3.4c0.7-0.9,1.8-1.4,3.2-1.4c1.1,0,2,0.3,2.8,1
			c0.7,0.7,1.1,1.5,1,2.4l0,0.1h-1.6c0-0.6-0.2-1.1-0.6-1.5c-0.4-0.4-0.9-0.6-1.6-0.6c-0.9,0-1.6,0.3-2,1c-0.4,0.7-0.6,1.5-0.6,2.4
			v0.4c0,1,0.2,1.8,0.6,2.5C127.8,230,128.4,230.4,129.3,230.4z"/>
		<path d="M134.7,226.7c0-1.4,0.4-2.6,1.2-3.5c0.8-0.9,1.8-1.4,3.1-1.4c1.3,0,2.4,0.5,3.2,1.4c0.8,0.9,1.2,2.1,1.2,3.5v0.2
			c0,1.4-0.4,2.6-1.2,3.5c-0.8,0.9-1.8,1.4-3.1,1.4s-2.4-0.5-3.2-1.4c-0.8-0.9-1.2-2.1-1.2-3.5V226.7z M136.4,226.9
			c0,1,0.2,1.9,0.6,2.5c0.4,0.7,1.1,1,1.9,1c0.8,0,1.5-0.3,1.9-1c0.4-0.7,0.6-1.5,0.6-2.5v-0.2c0-1-0.2-1.8-0.7-2.5
			c-0.4-0.7-1.1-1-1.9-1c-0.8,0-1.5,0.3-1.9,1s-0.6,1.5-0.6,2.5V226.9z"/>
		<path d="M147,221.9l0.1,1.3c0.3-0.5,0.7-0.8,1.2-1.1c0.5-0.3,1-0.4,1.7-0.4c0.6,0,1.2,0.1,1.6,0.4c0.5,0.3,0.8,0.7,1,1.3
			c0.3-0.5,0.7-1,1.2-1.3c0.5-0.3,1.1-0.5,1.7-0.5c1,0,1.8,0.3,2.3,1c0.6,0.7,0.9,1.7,0.9,3v5.7h-1.8v-5.8c0-0.9-0.2-1.6-0.5-2
			c-0.3-0.4-0.8-0.6-1.5-0.6c-0.6,0-1.1,0.2-1.5,0.6c-0.4,0.4-0.6,0.9-0.7,1.6v0.1v6.1h-1.8v-5.8c0-0.9-0.2-1.6-0.5-2
			c-0.3-0.4-0.8-0.6-1.4-0.6c-0.5,0-1,0.1-1.3,0.3c-0.3,0.2-0.6,0.5-0.8,0.9v7.1h-1.8v-9.6H147z"/>
		<path d="M163.2,219.5h-1.8v-1.8h1.8V219.5z M163.2,231.6h-1.8v-9.6h1.8V231.6z"/>
		<path d="M167.5,221.9l0.1,1.4c0.3-0.5,0.7-0.9,1.2-1.2c0.5-0.3,1-0.4,1.6-0.4c1,0,1.8,0.3,2.4,0.9c0.6,0.6,0.9,1.5,0.9,2.8v6.1
			H172v-6c0-0.8-0.2-1.4-0.5-1.8c-0.3-0.4-0.8-0.5-1.5-0.5c-0.5,0-0.9,0.1-1.3,0.4c-0.4,0.2-0.7,0.6-0.9,1v7h-1.8v-9.6H167.5z"/>
		<path d="M175.9,226.9c0-1.5,0.3-2.8,1-3.7c0.7-0.9,1.6-1.4,2.8-1.4c0.6,0,1.1,0.1,1.6,0.4c0.5,0.2,0.8,0.6,1.2,1.1l0.2-1.3h1.4
			v9.7c0,1.2-0.4,2.2-1.1,2.8c-0.7,0.7-1.8,1-3.1,1c-0.5,0-1-0.1-1.5-0.2c-0.5-0.1-1-0.3-1.4-0.5l0.4-1.4c0.3,0.2,0.7,0.3,1.1,0.4
			c0.4,0.1,0.9,0.2,1.3,0.2c0.9,0,1.5-0.2,1.9-0.6c0.4-0.4,0.6-1,0.6-1.8v-1.1c-0.3,0.4-0.7,0.7-1.1,0.9c-0.4,0.2-0.9,0.3-1.5,0.3
			c-1.2,0-2.1-0.4-2.8-1.3c-0.7-0.9-1-2-1-3.3V226.9z M177.6,227.1c0,1,0.2,1.7,0.6,2.3c0.4,0.6,1,0.9,1.9,0.9c0.5,0,1-0.1,1.3-0.4
			c0.4-0.2,0.6-0.6,0.9-1v-4.4c-0.2-0.4-0.5-0.7-0.9-1c-0.4-0.2-0.8-0.4-1.3-0.4c-0.8,0-1.5,0.3-1.9,1c-0.4,0.7-0.6,1.6-0.6,2.7
			V227.1z"/>
		<path d="M199.4,227.1c0,1.4-0.3,2.5-1,3.4s-1.6,1.3-2.8,1.3c-0.6,0-1.2-0.1-1.7-0.4c-0.5-0.2-0.9-0.6-1.2-1.1l-0.2,1.3h-1.4v-13.8
			h1.8v5.4c0.3-0.4,0.7-0.8,1.1-1c0.4-0.2,1-0.3,1.6-0.3c1.2,0,2.1,0.5,2.8,1.4c0.7,0.9,1,2.2,1,3.7V227.1z M197.6,226.9
			c0-1.1-0.2-2-0.6-2.7c-0.4-0.7-1-1-1.9-1c-0.5,0-1,0.1-1.4,0.4c-0.4,0.3-0.7,0.6-0.9,1.1v4.2c0.2,0.5,0.5,0.8,0.9,1.1
			c0.4,0.3,0.8,0.4,1.4,0.4c0.8,0,1.4-0.3,1.8-0.9c0.4-0.6,0.6-1.4,0.6-2.3V226.9z"/>
		<path d="M207.4,231.6c-0.1-0.3-0.1-0.5-0.1-0.8c0-0.2-0.1-0.4-0.1-0.7c-0.3,0.5-0.8,0.8-1.3,1.2c-0.5,0.3-1.1,0.5-1.7,0.5
			c-1,0-1.8-0.3-2.3-0.8c-0.5-0.5-0.8-1.2-0.8-2.1c0-0.9,0.4-1.6,1.1-2.2c0.7-0.5,1.8-0.8,3-0.8h1.9v-1c0-0.6-0.2-1-0.5-1.3
			c-0.3-0.3-0.8-0.5-1.5-0.5c-0.6,0-1,0.1-1.4,0.4c-0.4,0.3-0.5,0.6-0.5,1h-1.7l0-0.1c0-0.7,0.3-1.3,1-1.9c0.7-0.6,1.6-0.9,2.7-0.9
			c1.1,0,2,0.3,2.6,0.8c0.7,0.6,1,1.4,1,2.4v4.6c0,0.3,0,0.7,0.1,1c0,0.3,0.1,0.6,0.2,0.9H207.4z M204.5,230.3
			c0.6,0,1.2-0.2,1.7-0.5c0.5-0.3,0.8-0.7,1-1.1v-1.6h-2c-0.7,0-1.3,0.2-1.7,0.5c-0.4,0.4-0.6,0.8-0.6,1.2c0,0.4,0.1,0.8,0.4,1
			C203.6,230.1,204,230.3,204.5,230.3z"/>
		<path d="M215.4,230.4c0.6,0,1.1-0.2,1.5-0.5c0.4-0.4,0.7-0.8,0.7-1.3h1.6l0,0.1c0,0.8-0.3,1.6-1.1,2.2c-0.8,0.6-1.7,1-2.7,1
			c-1.4,0-2.5-0.5-3.2-1.4c-0.7-0.9-1.1-2.1-1.1-3.4v-0.4c0-1.4,0.4-2.5,1.1-3.4c0.7-0.9,1.8-1.4,3.2-1.4c1.1,0,2,0.3,2.8,1
			c0.7,0.7,1.1,1.5,1,2.4l0,0.1h-1.6c0-0.6-0.2-1.1-0.6-1.5c-0.4-0.4-0.9-0.6-1.6-0.6c-0.9,0-1.6,0.3-2,1c-0.4,0.7-0.6,1.5-0.6,2.4
			v0.4c0,1,0.2,1.8,0.6,2.5C213.8,230,214.5,230.4,215.4,230.4z"/>
		<path d="M224.1,227.1h-1.1v4.4h-1.8v-13.8h1.8v8h1.1l2.6-3.8h2.1l-3.3,4.4l3.8,5.2h-2.1L224.1,227.1z"/>
		<path d="M240.9,231.6c-0.1-0.3-0.1-0.5-0.1-0.8c0-0.2-0.1-0.4-0.1-0.7c-0.3,0.5-0.8,0.8-1.3,1.2c-0.5,0.3-1.1,0.5-1.7,0.5
			c-1,0-1.8-0.3-2.3-0.8c-0.5-0.5-0.8-1.2-0.8-2.1c0-0.9,0.4-1.6,1.1-2.2c0.7-0.5,1.8-0.8,3-0.8h1.9v-1c0-0.6-0.2-1-0.5-1.3
			c-0.3-0.3-0.8-0.5-1.5-0.5c-0.6,0-1,0.1-1.4,0.4c-0.4,0.3-0.5,0.6-0.5,1h-1.7l0-0.1c0-0.7,0.3-1.3,1-1.9c0.7-0.6,1.6-0.9,2.7-0.9
			c1.1,0,2,0.3,2.6,0.8s1,1.4,1,2.4v4.6c0,0.3,0,0.7,0.1,1c0,0.3,0.1,0.6,0.2,0.9H240.9z M238,230.3c0.6,0,1.2-0.2,1.7-0.5
			c0.5-0.3,0.8-0.7,1-1.1v-1.6h-2c-0.7,0-1.3,0.2-1.7,0.5c-0.4,0.4-0.6,0.8-0.6,1.2c0,0.4,0.1,0.8,0.4,1
			C237.1,230.1,237.5,230.3,238,230.3z"/>
		<path d="M247.3,219.6v2.3h1.8v1.3h-1.8v5.8c0,0.4,0.1,0.8,0.3,1c0.2,0.2,0.4,0.3,0.7,0.3c0.1,0,0.2,0,0.3,0c0.1,0,0.2-0.1,0.3-0.1
			l0.2,1.2c-0.1,0.1-0.3,0.2-0.6,0.3c-0.3,0.1-0.5,0.1-0.8,0.1c-0.7,0-1.3-0.2-1.7-0.6c-0.4-0.4-0.6-1.1-0.6-2v-5.8h-1.5v-1.3h1.5
			v-2.3H247.3z"/>
		<path d="M257.4,221.9l0.1,1.4c0.3-0.5,0.7-0.9,1.2-1.2c0.5-0.3,1-0.4,1.6-0.4c1,0,1.8,0.3,2.4,0.9c0.6,0.6,0.9,1.5,0.9,2.8v6.1
			h-1.8v-6c0-0.8-0.2-1.4-0.5-1.8s-0.8-0.5-1.5-0.5c-0.5,0-0.9,0.1-1.3,0.4c-0.4,0.2-0.7,0.6-0.9,1v7h-1.8v-9.6H257.4z"/>
		<path d="M265.8,226.7c0-1.4,0.4-2.6,1.2-3.5c0.8-0.9,1.8-1.4,3.1-1.4c1.3,0,2.4,0.5,3.2,1.4c0.8,0.9,1.2,2.1,1.2,3.5v0.2
			c0,1.4-0.4,2.6-1.2,3.5c-0.8,0.9-1.8,1.4-3.1,1.4c-1.3,0-2.4-0.5-3.2-1.4c-0.8-0.9-1.2-2.1-1.2-3.5V226.7z M267.5,226.9
			c0,1,0.2,1.9,0.6,2.5c0.4,0.7,1.1,1,1.9,1c0.8,0,1.5-0.3,1.9-1c0.4-0.7,0.6-1.5,0.6-2.5v-0.2c0-1-0.2-1.8-0.7-2.5
			c-0.4-0.7-1.1-1-1.9-1c-0.8,0-1.5,0.3-1.9,1c-0.4,0.7-0.6,1.5-0.6,2.5V226.9z"/>
		<path d="M276.1,226.7c0-1.4,0.4-2.6,1.2-3.5c0.8-0.9,1.8-1.4,3.1-1.4c1.3,0,2.4,0.5,3.2,1.4c0.8,0.9,1.2,2.1,1.2,3.5v0.2
			c0,1.4-0.4,2.6-1.2,3.5c-0.8,0.9-1.8,1.4-3.1,1.4c-1.3,0-2.4-0.5-3.2-1.4c-0.8-0.9-1.2-2.1-1.2-3.5V226.7z M277.9,226.9
			c0,1,0.2,1.9,0.6,2.5c0.4,0.7,1.1,1,1.9,1c0.8,0,1.5-0.3,1.9-1c0.4-0.7,0.6-1.5,0.6-2.5v-0.2c0-1-0.2-1.8-0.7-2.5
			c-0.4-0.7-1.1-1-1.9-1c-0.8,0-1.5,0.3-1.9,1c-0.4,0.7-0.6,1.5-0.6,2.5V226.9z"/>
		<path d="M288.4,221.9l0.1,1.4c0.3-0.5,0.7-0.9,1.2-1.2c0.5-0.3,1-0.4,1.6-0.4c1,0,1.8,0.3,2.4,0.9c0.6,0.6,0.9,1.5,0.9,2.8v6.1
			h-1.8v-6c0-0.8-0.2-1.4-0.5-1.8s-0.8-0.5-1.5-0.5c-0.5,0-0.9,0.1-1.3,0.4c-0.4,0.2-0.7,0.6-0.9,1v7h-1.8v-9.6H288.4z"/>
		<path d="M301.3,226.7c0-1.4,0.4-2.6,1.2-3.5c0.8-0.9,1.8-1.4,3.1-1.4c1.3,0,2.4,0.5,3.2,1.4c0.8,0.9,1.2,2.1,1.2,3.5v0.2
			c0,1.4-0.4,2.6-1.2,3.5c-0.8,0.9-1.8,1.4-3.1,1.4c-1.3,0-2.4-0.5-3.2-1.4c-0.8-0.9-1.2-2.1-1.2-3.5V226.7z M303.1,226.9
			c0,1,0.2,1.9,0.6,2.5c0.4,0.7,1.1,1,1.9,1c0.8,0,1.5-0.3,1.9-1c0.4-0.7,0.6-1.5,0.6-2.5v-0.2c0-1-0.2-1.8-0.7-2.5
			c-0.4-0.7-1.1-1-1.9-1c-0.8,0-1.5,0.3-1.9,1c-0.4,0.7-0.6,1.5-0.6,2.5V226.9z"/>
		<path d="M313.7,221.9l0.1,1.4c0.3-0.5,0.7-0.9,1.2-1.2c0.5-0.3,1-0.4,1.6-0.4c1,0,1.8,0.3,2.4,0.9c0.6,0.6,0.9,1.5,0.9,2.8v6.1
			h-1.8v-6c0-0.8-0.2-1.4-0.5-1.8s-0.8-0.5-1.5-0.5c-0.5,0-0.9,0.1-1.3,0.4c-0.4,0.2-0.7,0.6-0.9,1v7h-1.8v-9.6H313.7z"/>
		<path d="M327.3,231.6v-12.9h4c1.7,0,3.1,0.5,4.1,1.6c1,1,1.5,2.4,1.5,4v1.8c0,1.7-0.5,3-1.5,4c-1,1-2.4,1.5-4.1,1.5H327.3z
			 M329,220v10.2h2.2c1.2,0,2.1-0.4,2.8-1.2c0.7-0.8,1-1.8,1-3v-1.8c0-1.2-0.3-2.2-1-3c-0.7-0.8-1.6-1.2-2.8-1.2H329z"/>
		<path d="M342.9,231.7c-1.3,0-2.4-0.4-3.2-1.3c-0.8-0.9-1.2-2-1.2-3.5v-0.4c0-1.4,0.4-2.5,1.2-3.4c0.8-0.9,1.8-1.4,2.9-1.4
			c1.3,0,2.3,0.4,2.9,1.2c0.7,0.8,1,1.8,1,3.1v1.1h-6.2l0,0c0,0.9,0.3,1.7,0.7,2.3c0.5,0.6,1.1,0.9,1.9,0.9c0.6,0,1.1-0.1,1.6-0.3
			c0.4-0.2,0.8-0.4,1.2-0.7l0.7,1.1c-0.3,0.3-0.8,0.6-1.4,0.8C344.4,231.6,343.7,231.7,342.9,231.7z M342.7,223.1
			c-0.6,0-1.1,0.2-1.5,0.7c-0.4,0.5-0.7,1.1-0.8,1.9l0,0h4.4v-0.2c0-0.7-0.2-1.3-0.6-1.7C343.9,223.4,343.4,223.1,342.7,223.1z"/>
		<path d="M352.5,230.4c0.6,0,1.1-0.2,1.5-0.5c0.4-0.4,0.7-0.8,0.7-1.3h1.6l0,0.1c0,0.8-0.3,1.6-1.1,2.2s-1.7,1-2.7,1
			c-1.4,0-2.5-0.5-3.2-1.4c-0.7-0.9-1.1-2.1-1.1-3.4v-0.4c0-1.4,0.4-2.5,1.1-3.4c0.7-0.9,1.8-1.4,3.2-1.4c1.1,0,2,0.3,2.8,1
			c0.7,0.7,1.1,1.5,1,2.4l0,0.1h-1.6c0-0.6-0.2-1.1-0.6-1.5c-0.4-0.4-0.9-0.6-1.6-0.6c-0.9,0-1.6,0.3-2,1c-0.4,0.7-0.6,1.5-0.6,2.4
			v0.4c0,1,0.2,1.8,0.6,2.5C350.9,230,351.6,230.4,352.5,230.4z"/>
		<path d="M360.1,231.6h-1.8v-1.8h1.8V231.6z"/>
		<path d="M20.3,253.4h-1.8v-11.2l-2.6,0v-1.3l4.4-0.5V253.4z"/>
		<path d="M34,253.4h-8.4v-1.2l4.2-4.7c0.8-0.8,1.3-1.5,1.5-2c0.3-0.5,0.4-1,0.4-1.5c0-0.6-0.2-1.2-0.6-1.6
			c-0.4-0.4-0.9-0.7-1.5-0.7c-0.9,0-1.6,0.2-2,0.7c-0.4,0.5-0.6,1.1-0.6,1.9h-1.7l0-0.1c0-1.1,0.3-2,1.1-2.8
			c0.8-0.8,1.8-1.1,3.2-1.1c1.2,0,2.1,0.3,2.8,1c0.7,0.7,1,1.5,1,2.6c0,0.7-0.2,1.4-0.6,2.1c-0.4,0.7-1,1.5-1.8,2.3l-3.4,3.7l0,0H34
			V253.4z"/>
		<path d="M37.6,252.9l-1.3,2.7h-1l0.6-2.8v-1.4h1.8V252.9z"/>
		<path d="M52.3,253.4h-8.4v-1.2l4.2-4.7c0.8-0.8,1.3-1.5,1.5-2c0.3-0.5,0.4-1,0.4-1.5c0-0.6-0.2-1.2-0.6-1.6
			c-0.4-0.4-0.9-0.7-1.5-0.7c-0.9,0-1.6,0.2-2,0.7c-0.4,0.5-0.6,1.1-0.6,1.9h-1.7l0-0.1c0-1.1,0.3-2,1.1-2.8
			c0.8-0.8,1.8-1.1,3.2-1.1c1.2,0,2.1,0.3,2.8,1c0.7,0.7,1,1.5,1,2.6c0,0.7-0.2,1.4-0.6,2.1c-0.4,0.7-1,1.5-1.8,2.3l-3.4,3.7l0,0
			h6.2V253.4z"/>
		<path d="M62.4,248.4c0,1.7-0.4,2.9-1.1,3.8c-0.7,0.9-1.7,1.3-3,1.3c-1.3,0-2.3-0.4-3-1.3c-0.7-0.9-1.1-2.1-1.1-3.8v-3.1
			c0-1.6,0.4-2.9,1.1-3.8c0.7-0.9,1.7-1.3,3-1.3c1.3,0,2.3,0.4,3,1.3c0.7,0.9,1.1,2.1,1.1,3.8V248.4z M60.6,245c0-1.1-0.2-2-0.6-2.5
			c-0.4-0.6-1-0.8-1.8-0.8s-1.4,0.3-1.8,0.8c-0.4,0.6-0.6,1.4-0.6,2.5v3.8c0,1.1,0.2,2,0.6,2.5c0.4,0.6,1,0.9,1.8,0.9
			s1.4-0.3,1.8-0.9c0.4-0.6,0.6-1.4,0.6-2.5V245z"/>
		<path d="M69.4,253.4h-1.8v-11.2l-2.6,0v-1.3l4.4-0.5V253.4z"/>
		<path d="M75.2,247.5l0.7-7.1h6.5v1.6h-5l-0.4,3.6c0.3-0.2,0.6-0.4,0.9-0.5c0.3-0.1,0.7-0.2,1.2-0.2c1.2,0,2.1,0.4,2.8,1.2
			c0.7,0.8,1,1.8,1,3.2c0,1.3-0.3,2.3-1,3.1c-0.7,0.8-1.7,1.2-3,1.2c-1.1,0-2-0.3-2.7-0.9c-0.7-0.6-1.1-1.5-1-2.6l0-0.1h1.6
			c0,0.7,0.2,1.2,0.6,1.6c0.4,0.4,0.9,0.6,1.6,0.6c0.7,0,1.3-0.3,1.7-0.8c0.4-0.5,0.6-1.2,0.6-2.1c0-0.8-0.2-1.5-0.6-2
			s-1-0.8-1.7-0.8c-0.7,0-1.2,0.1-1.5,0.3c-0.3,0.2-0.5,0.5-0.7,0.9L75.2,247.5z"/>
		<path d="M87.1,253.4h-1.8v-1.8h1.8V253.4z"/>
	</g>
	<g>
		<path fill="#8A909D" d="M220.6,302.2H214v-1l3.4-3.7c0.6-0.7,1-1.2,1.2-1.6c0.2-0.4,0.3-0.8,0.3-1.2c0-0.5-0.1-0.9-0.4-1.3
			s-0.7-0.5-1.2-0.5c-0.7,0-1.2,0.2-1.6,0.5c-0.3,0.4-0.5,0.9-0.5,1.5h-1.3l0,0c0-0.9,0.3-1.6,0.9-2.2c0.6-0.6,1.5-0.9,2.5-0.9
			c0.9,0,1.7,0.3,2.2,0.8c0.5,0.5,0.8,1.2,0.8,2c0,0.6-0.2,1.1-0.5,1.7c-0.3,0.6-0.8,1.2-1.4,1.8l-2.7,2.9l0,0h4.9V302.2z"/>
		<path fill="#8A909D" d="M227.6,298.7h1.4v1.1h-1.4v2.4h-1.4v-2.4h-4.6V299l4.5-7.1h1.5V298.7z M223.1,298.7h3.1v-4.8l0,0l-0.1,0.4
			L223.1,298.7z"/>
		<path fill="#8A909D" d="M236.9,302.2h-6.6v-1l3.4-3.7c0.6-0.7,1-1.2,1.2-1.6c0.2-0.4,0.3-0.8,0.3-1.2c0-0.5-0.1-0.9-0.4-1.3
			c-0.3-0.3-0.7-0.5-1.2-0.5c-0.7,0-1.2,0.2-1.6,0.5c-0.3,0.4-0.5,0.9-0.5,1.5h-1.3l0,0c0-0.9,0.3-1.6,0.9-2.2
			c0.6-0.6,1.5-0.9,2.5-0.9c0.9,0,1.7,0.3,2.2,0.8c0.5,0.5,0.8,1.2,0.8,2c0,0.6-0.2,1.1-0.5,1.7c-0.3,0.6-0.8,1.2-1.4,1.8l-2.7,2.9
			l0,0h4.9V302.2z"/>
		<path fill="#8A909D" d="M249.6,298.9L249.6,298.9c0,1-0.3,1.8-1,2.5c-0.7,0.6-1.6,1-2.7,1c-1.2,0-2.1-0.4-2.8-1.2
			c-0.7-0.8-1.1-1.9-1.1-3.1v-1.8c0-1.3,0.4-2.3,1.1-3.1c0.7-0.8,1.7-1.2,2.8-1.2c1.2,0,2.1,0.3,2.8,0.9c0.7,0.6,1,1.4,1,2.4l0,0
			h-1.3c0-0.7-0.2-1.3-0.6-1.7c-0.4-0.4-1-0.6-1.8-0.6c-0.8,0-1.4,0.3-1.8,0.9c-0.5,0.6-0.7,1.4-0.7,2.3v1.8c0,0.9,0.2,1.7,0.7,2.3
			c0.5,0.6,1.1,0.9,1.8,0.9c0.8,0,1.4-0.2,1.8-0.6c0.4-0.4,0.6-1,0.6-1.7H249.6z"/>
		<path fill="#8A909D" d="M250.9,298.3c0-1.1,0.3-2,0.9-2.8c0.6-0.7,1.4-1.1,2.5-1.1c1.1,0,1.9,0.4,2.5,1.1c0.6,0.7,0.9,1.7,0.9,2.8
			v0.2c0,1.1-0.3,2.1-0.9,2.8c-0.6,0.7-1.4,1.1-2.5,1.1s-1.9-0.4-2.5-1.1c-0.6-0.7-0.9-1.7-0.9-2.8V298.3z M252.3,298.4
			c0,0.8,0.2,1.5,0.5,2c0.3,0.5,0.8,0.8,1.5,0.8c0.7,0,1.2-0.3,1.5-0.8c0.3-0.5,0.5-1.2,0.5-2v-0.2c0-0.8-0.2-1.5-0.5-2
			c-0.3-0.5-0.8-0.8-1.5-0.8c-0.7,0-1.2,0.3-1.5,0.8c-0.3,0.5-0.5,1.2-0.5,2V298.4z"/>
		<path fill="#8A909D" d="M260.6,294.6l0.1,1c0.2-0.4,0.6-0.6,0.9-0.8c0.4-0.2,0.8-0.3,1.3-0.3c0.5,0,0.9,0.1,1.3,0.4
			c0.4,0.2,0.6,0.6,0.8,1.1c0.2-0.4,0.6-0.8,1-1c0.4-0.3,0.9-0.4,1.4-0.4c0.8,0,1.4,0.3,1.8,0.8c0.5,0.5,0.7,1.3,0.7,2.4v4.5h-1.4
			v-4.6c0-0.7-0.1-1.3-0.4-1.6c-0.3-0.3-0.6-0.5-1.2-0.5c-0.5,0-0.9,0.2-1.1,0.5c-0.3,0.3-0.5,0.7-0.5,1.2v0.1v4.8H264v-4.6
			c0-0.7-0.1-1.2-0.4-1.6c-0.3-0.3-0.6-0.5-1.1-0.5c-0.4,0-0.8,0.1-1,0.3c-0.3,0.2-0.5,0.4-0.6,0.7v5.6h-1.4v-7.6H260.6z"/>
		<path fill="#8A909D" d="M273.2,294.6l0.1,1c0.2-0.4,0.6-0.6,0.9-0.8c0.4-0.2,0.8-0.3,1.3-0.3c0.5,0,0.9,0.1,1.3,0.4
			c0.4,0.2,0.6,0.6,0.8,1.1c0.2-0.4,0.6-0.8,1-1c0.4-0.3,0.9-0.4,1.4-0.4c0.8,0,1.4,0.3,1.8,0.8c0.5,0.5,0.7,1.3,0.7,2.4v4.5h-1.4
			v-4.6c0-0.7-0.1-1.3-0.4-1.6c-0.3-0.3-0.6-0.5-1.2-0.5c-0.5,0-0.9,0.2-1.1,0.5c-0.3,0.3-0.5,0.7-0.5,1.2v0.1v4.8h-1.4v-4.6
			c0-0.7-0.1-1.2-0.4-1.6c-0.3-0.3-0.6-0.5-1.1-0.5c-0.4,0-0.8,0.1-1,0.3c-0.3,0.2-0.5,0.4-0.6,0.7v5.6H272v-7.6H273.2z"/>
		<path fill="#8A909D" d="M287.7,302.3c-1.1,0-1.9-0.4-2.5-1.1c-0.6-0.7-0.9-1.6-0.9-2.7v-0.3c0-1.1,0.3-2,1-2.7
			c0.6-0.7,1.4-1.1,2.3-1.1c1,0,1.8,0.3,2.3,0.9c0.5,0.6,0.8,1.4,0.8,2.5v0.9h-4.9l0,0c0,0.7,0.2,1.3,0.6,1.8
			c0.4,0.5,0.9,0.7,1.5,0.7c0.5,0,0.9-0.1,1.2-0.2c0.4-0.1,0.7-0.3,0.9-0.6l0.5,0.9c-0.3,0.3-0.6,0.5-1.1,0.7
			C288.9,302.2,288.4,302.3,287.7,302.3z M287.5,295.5c-0.5,0-0.9,0.2-1.2,0.6c-0.3,0.4-0.5,0.9-0.6,1.5l0,0h3.5v-0.2
			c0-0.5-0.1-1-0.4-1.4C288.5,295.7,288.1,295.5,287.5,295.5z"/>
		<path fill="#8A909D" d="M293.4,294.6l0.1,1.1c0.3-0.4,0.6-0.7,1-0.9c0.4-0.2,0.8-0.3,1.3-0.3c0.8,0,1.5,0.2,1.9,0.7
			c0.5,0.5,0.7,1.2,0.7,2.2v4.8H297v-4.8c0-0.7-0.1-1.1-0.4-1.4c-0.3-0.3-0.7-0.4-1.2-0.4c-0.4,0-0.8,0.1-1.1,0.3
			c-0.3,0.2-0.6,0.5-0.7,0.8v5.5h-1.4v-7.6H293.4z"/>
		<path fill="#8A909D" d="M302.2,292.7v1.8h1.4v1h-1.4v4.6c0,0.4,0.1,0.6,0.2,0.8c0.1,0.1,0.3,0.2,0.6,0.2c0.1,0,0.2,0,0.3,0
			c0.1,0,0.2,0,0.3-0.1l0.2,0.9c-0.1,0.1-0.3,0.2-0.5,0.2c-0.2,0.1-0.4,0.1-0.6,0.1c-0.6,0-1-0.2-1.3-0.5c-0.3-0.3-0.5-0.9-0.5-1.6
			v-4.6h-1.2v-1h1.2v-1.8H302.2z"/>
		<path fill="#8A909D" d="M309.8,300.1c0-0.3-0.1-0.6-0.3-0.8c-0.2-0.2-0.7-0.4-1.3-0.5c-0.9-0.2-1.6-0.5-2.1-0.8
			c-0.5-0.3-0.7-0.8-0.7-1.4c0-0.6,0.3-1.1,0.8-1.6c0.5-0.4,1.2-0.7,2.1-0.7c0.9,0,1.6,0.2,2.1,0.7c0.5,0.5,0.8,1,0.7,1.7l0,0h-1.3
			c0-0.3-0.1-0.6-0.4-0.9c-0.3-0.3-0.6-0.4-1.1-0.4c-0.5,0-0.9,0.1-1.1,0.3c-0.2,0.2-0.4,0.5-0.4,0.8c0,0.3,0.1,0.5,0.3,0.7
			c0.2,0.2,0.6,0.3,1.3,0.5c1,0.2,1.7,0.5,2.1,0.8c0.5,0.4,0.7,0.8,0.7,1.4c0,0.7-0.3,1.2-0.8,1.6c-0.5,0.4-1.3,0.6-2.1,0.6
			c-1,0-1.7-0.2-2.3-0.7c-0.6-0.5-0.8-1.1-0.8-1.7l0,0h1.3c0,0.5,0.2,0.8,0.5,1.1c0.3,0.2,0.7,0.3,1.2,0.3c0.5,0,0.9-0.1,1.2-0.3
			C309.6,300.7,309.8,300.5,309.8,300.1z"/>
	</g>
	<g>
		<path fill="#D2D2D2" d="M85.9,184.3c0-0.5-0.2-0.9-0.6-1.3c-0.4-0.3-1.1-0.6-2-0.9c-1.2-0.3-2.1-0.7-2.8-1.2c-0.7-0.5-1-1.2-1-2.1
			c0-0.9,0.4-1.6,1.1-2.2c0.7-0.6,1.6-0.9,2.8-0.9c1.2,0,2.2,0.3,2.9,1c0.7,0.7,1.1,1.4,1,2.3l0,0h-1.4c0-0.7-0.2-1.2-0.6-1.6
			c-0.4-0.4-1.1-0.6-1.9-0.6c-0.8,0-1.3,0.2-1.7,0.5s-0.6,0.8-0.6,1.3c0,0.5,0.2,0.9,0.7,1.2c0.4,0.3,1.1,0.6,2.1,0.9
			c1.2,0.3,2.1,0.7,2.7,1.3c0.6,0.6,0.9,1.3,0.9,2.1c0,0.9-0.4,1.6-1.1,2.2c-0.7,0.5-1.7,0.8-2.9,0.8c-1.1,0-2.1-0.3-3-0.9
			c-0.9-0.6-1.3-1.4-1.2-2.4l0,0h1.4c0,0.7,0.3,1.3,0.8,1.6c0.5,0.4,1.2,0.6,2,0.6c0.8,0,1.4-0.2,1.8-0.5
			C85.7,185.3,85.9,184.8,85.9,184.3z"/>
		<path fill="#D2D2D2" d="M96.4,183.3c0,1.2-0.3,2.2-0.9,2.9c-0.6,0.7-1.4,1.1-2.4,1.1c-0.5,0-1-0.1-1.3-0.3c-0.4-0.2-0.7-0.4-1-0.8
			v4.1h-1.5v-11.5h1.2l0.2,1.1c0.3-0.4,0.6-0.7,1-0.9s0.9-0.3,1.4-0.3c1,0,1.8,0.4,2.4,1.2c0.6,0.8,0.9,1.9,0.9,3.2V183.3z
			 M94.9,183.1c0-0.9-0.2-1.7-0.6-2.3c-0.4-0.6-0.9-0.9-1.6-0.9c-0.4,0-0.8,0.1-1.1,0.3c-0.3,0.2-0.6,0.5-0.7,0.8v4
			c0.2,0.3,0.4,0.6,0.7,0.8c0.3,0.2,0.7,0.3,1.1,0.3c0.7,0,1.3-0.3,1.6-0.8c0.4-0.5,0.6-1.2,0.6-2V183.1z"/>
		<path fill="#D2D2D2" d="M97.9,182.9c0-1.2,0.3-2.2,1-3c0.7-0.8,1.6-1.2,2.7-1.2c1.2,0,2.1,0.4,2.7,1.2c0.7,0.8,1,1.8,1,3v0.2
			c0,1.2-0.3,2.2-1,3c-0.7,0.8-1.6,1.2-2.7,1.2c-1.1,0-2.1-0.4-2.7-1.2c-0.7-0.8-1-1.8-1-3V182.9z M99.4,183c0,0.9,0.2,1.6,0.6,2.2
			c0.4,0.6,0.9,0.9,1.7,0.9c0.7,0,1.3-0.3,1.6-0.9c0.4-0.6,0.6-1.3,0.6-2.2v-0.2c0-0.9-0.2-1.6-0.6-2.2c-0.4-0.6-0.9-0.9-1.7-0.9
			c-0.7,0-1.3,0.3-1.6,0.9c-0.4,0.6-0.6,1.3-0.6,2.2V183z"/>
		<path fill="#D2D2D2" d="M108.5,178.8l0.1,1.2c0.3-0.4,0.6-0.8,1-1s0.9-0.4,1.4-0.4c0.9,0,1.6,0.3,2.1,0.8s0.7,1.3,0.7,2.4v5.2
			h-1.5v-5.2c0-0.7-0.1-1.2-0.4-1.6c-0.3-0.3-0.7-0.5-1.3-0.5c-0.4,0-0.8,0.1-1.2,0.3c-0.3,0.2-0.6,0.5-0.8,0.9v6h-1.5v-8.3H108.5z"
			/>
		<path fill="#D2D2D2" d="M121,184.9c0-0.3-0.1-0.6-0.4-0.8c-0.3-0.2-0.7-0.4-1.4-0.6c-1-0.2-1.8-0.5-2.3-0.9
			c-0.5-0.4-0.8-0.9-0.8-1.5c0-0.7,0.3-1.2,0.9-1.7c0.6-0.5,1.3-0.7,2.2-0.7c1,0,1.7,0.2,2.3,0.7s0.8,1.1,0.8,1.8l0,0h-1.4
			c0-0.4-0.2-0.7-0.5-1c-0.3-0.3-0.7-0.4-1.2-0.4c-0.5,0-0.9,0.1-1.2,0.4c-0.3,0.2-0.4,0.5-0.4,0.9c0,0.3,0.1,0.6,0.3,0.8
			c0.2,0.2,0.7,0.4,1.4,0.5c1,0.2,1.8,0.5,2.3,0.9c0.5,0.4,0.8,0.9,0.8,1.6c0,0.7-0.3,1.3-0.9,1.8s-1.4,0.7-2.3,0.7
			c-1.1,0-1.9-0.3-2.5-0.8c-0.6-0.5-0.9-1.2-0.9-1.9l0,0h1.4c0,0.5,0.2,0.9,0.6,1.2s0.8,0.4,1.3,0.4c0.5,0,1-0.1,1.3-0.3
			C120.8,185.5,121,185.2,121,184.9z"/>
		<path fill="#D2D2D2" d="M124,182.9c0-1.2,0.3-2.2,1-3c0.7-0.8,1.6-1.2,2.7-1.2c1.2,0,2.1,0.4,2.7,1.2c0.7,0.8,1,1.8,1,3v0.2
			c0,1.2-0.3,2.2-1,3c-0.7,0.8-1.6,1.2-2.7,1.2c-1.1,0-2.1-0.4-2.7-1.2s-1-1.8-1-3V182.9z M125.5,183c0,0.9,0.2,1.6,0.6,2.2
			c0.4,0.6,0.9,0.9,1.7,0.9c0.7,0,1.3-0.3,1.6-0.9c0.4-0.6,0.6-1.3,0.6-2.2v-0.2c0-0.9-0.2-1.6-0.6-2.2c-0.4-0.6-0.9-0.9-1.7-0.9
			c-0.7,0-1.3,0.3-1.6,0.9c-0.4,0.6-0.6,1.3-0.6,2.2V183z"/>
		<path fill="#D2D2D2" d="M137.2,180.1l-0.8,0c-0.4,0-0.7,0.1-1,0.3c-0.3,0.2-0.5,0.5-0.6,0.8v5.9h-1.5v-8.3h1.4l0.1,1.2
			c0.2-0.4,0.5-0.8,0.9-1c0.3-0.2,0.7-0.4,1.2-0.4c0.1,0,0.2,0,0.3,0c0.1,0,0.2,0,0.3,0.1L137.2,180.1z"/>
		<path fill="#D2D2D2" d="M142,187.3c-1.2,0-2.1-0.4-2.8-1.2c-0.7-0.8-1-1.8-1-3v-0.3c0-1.2,0.4-2.2,1.1-2.9
			c0.7-0.8,1.5-1.2,2.5-1.2c1.1,0,2,0.3,2.5,1c0.6,0.7,0.9,1.6,0.9,2.7v0.9h-5.4l0,0c0,0.8,0.2,1.4,0.6,2c0.4,0.5,0.9,0.8,1.6,0.8
			c0.5,0,1-0.1,1.3-0.2c0.4-0.1,0.7-0.3,1-0.6l0.6,1c-0.3,0.3-0.7,0.5-1.2,0.7C143.2,187.2,142.6,187.3,142,187.3z M141.7,179.8
			c-0.5,0-0.9,0.2-1.3,0.6c-0.4,0.4-0.6,1-0.7,1.6l0,0h3.8v-0.2c0-0.6-0.2-1.1-0.5-1.5C142.8,180,142.4,179.8,141.7,179.8z"/>
		<path fill="#D2D2D2" d="M146.5,183.1c0-1.3,0.3-2.4,0.9-3.2c0.6-0.8,1.4-1.2,2.4-1.2c0.5,0,0.9,0.1,1.3,0.3c0.4,0.2,0.7,0.4,1,0.8
			v-4.6h1.5v12h-1.2l-0.2-1c-0.3,0.4-0.6,0.7-1,0.9c-0.4,0.2-0.9,0.3-1.4,0.3c-1,0-1.8-0.4-2.4-1.1s-0.9-1.7-0.9-2.9V183.1z
			 M148,183.3c0,0.8,0.2,1.5,0.5,2c0.3,0.5,0.9,0.8,1.6,0.8c0.5,0,0.8-0.1,1.1-0.3s0.6-0.5,0.8-0.9V181c-0.2-0.3-0.4-0.6-0.8-0.8
			c-0.3-0.2-0.7-0.3-1.1-0.3c-0.7,0-1.3,0.3-1.6,0.9c-0.3,0.6-0.5,1.4-0.5,2.3V183.3z"/>
	</g>
	<g>
		<path fill="#8A909D" d="M50.9,302.2h-6.6v-1l3.4-3.7c0.6-0.7,1-1.2,1.2-1.6c0.2-0.4,0.3-0.8,0.3-1.2c0-0.5-0.1-0.9-0.4-1.3
			s-0.7-0.5-1.2-0.5c-0.7,0-1.2,0.2-1.6,0.5c-0.3,0.4-0.5,0.9-0.5,1.5h-1.3l0,0c0-0.9,0.3-1.6,0.9-2.2c0.6-0.6,1.5-0.9,2.5-0.9
			c0.9,0,1.7,0.3,2.2,0.8c0.5,0.5,0.8,1.2,0.8,2c0,0.6-0.2,1.1-0.5,1.7c-0.3,0.6-0.8,1.2-1.4,1.8l-2.7,2.9l0,0h4.9V302.2z"/>
		<path fill="#8A909D" d="M57.9,298.7h1.4v1.1h-1.4v2.4h-1.4v-2.4h-4.6V299l4.5-7.1h1.5V298.7z M53.4,298.7h3.1v-4.8l0,0l-0.1,0.4
			L53.4,298.7z"/>
		<path fill="#8A909D" d="M67.1,302.2h-6.6v-1l3.4-3.7c0.6-0.7,1-1.2,1.2-1.6c0.2-0.4,0.3-0.8,0.3-1.2c0-0.5-0.1-0.9-0.4-1.3
			s-0.7-0.5-1.2-0.5c-0.7,0-1.2,0.2-1.6,0.5c-0.3,0.4-0.5,0.9-0.5,1.5h-1.3l0,0c0-0.9,0.3-1.6,0.9-2.2c0.6-0.6,1.5-0.9,2.5-0.9
			c0.9,0,1.7,0.3,2.2,0.8c0.5,0.5,0.8,1.2,0.8,2c0,0.6-0.2,1.1-0.5,1.7c-0.3,0.6-0.8,1.2-1.4,1.8l-2.7,2.9l0,0h4.9V302.2z"/>
	</g>
	<g>
		<path fill="#8A909D" d="M336.6,302.2h-6.6v-1l3.4-3.7c0.6-0.7,1-1.2,1.2-1.6c0.2-0.4,0.3-0.8,0.3-1.2c0-0.5-0.1-0.9-0.4-1.3
			c-0.3-0.3-0.7-0.5-1.2-0.5c-0.7,0-1.2,0.2-1.6,0.5c-0.3,0.4-0.5,0.9-0.5,1.5h-1.3l0,0c0-0.9,0.3-1.6,0.9-2.2
			c0.6-0.6,1.5-0.9,2.5-0.9c0.9,0,1.7,0.3,2.2,0.8c0.5,0.5,0.8,1.2,0.8,2c0,0.6-0.2,1.1-0.5,1.7c-0.3,0.6-0.8,1.2-1.4,1.8l-2.7,2.9
			l0,0h4.9V302.2z"/>
		<path fill="#8A909D" d="M343.6,298.7h1.4v1.1h-1.4v2.4h-1.4v-2.4h-4.6V299l4.5-7.1h1.5V298.7z M339.1,298.7h3.1v-4.8l0,0l-0.1,0.4
			L339.1,298.7z"/>
		<path fill="#8A909D" d="M352.8,302.2h-6.6v-1l3.4-3.7c0.6-0.7,1-1.2,1.2-1.6c0.2-0.4,0.3-0.8,0.3-1.2c0-0.5-0.1-0.9-0.4-1.3
			s-0.7-0.5-1.2-0.5c-0.7,0-1.2,0.2-1.6,0.5c-0.3,0.4-0.5,0.9-0.5,1.5H346l0,0c0-0.9,0.3-1.6,0.9-2.2c0.6-0.6,1.5-0.9,2.5-0.9
			c0.9,0,1.7,0.3,2.2,0.8c0.5,0.5,0.8,1.2,0.8,2c0,0.6-0.2,1.1-0.5,1.7c-0.3,0.6-0.8,1.2-1.4,1.8l-2.7,2.9l0,0h4.9V302.2z"/>
		<path fill="#8A909D" d="M363.9,299.6c0-0.5-0.2-0.9-0.5-1.2c-0.4-0.3-1-0.6-1.9-0.8c-1.1-0.3-1.9-0.6-2.5-1.1
			c-0.6-0.5-0.9-1.1-0.9-1.9c0-0.8,0.3-1.5,1-2c0.7-0.5,1.5-0.8,2.5-0.8c1.1,0,2,0.3,2.7,0.9c0.7,0.6,1,1.3,1,2.1l0,0h-1.3
			c0-0.6-0.2-1.1-0.6-1.5c-0.4-0.4-1-0.6-1.7-0.6c-0.7,0-1.2,0.2-1.6,0.5c-0.4,0.3-0.6,0.7-0.6,1.2c0,0.4,0.2,0.8,0.6,1.1
			s1,0.6,1.9,0.8c1.1,0.3,1.9,0.7,2.5,1.2c0.6,0.5,0.8,1.2,0.8,1.9c0,0.8-0.3,1.5-1,2c-0.7,0.5-1.6,0.8-2.6,0.8
			c-1,0-1.9-0.3-2.7-0.8c-0.8-0.6-1.2-1.3-1.1-2.2l0,0h1.3c0,0.7,0.2,1.2,0.7,1.5c0.5,0.3,1.1,0.5,1.8,0.5c0.7,0,1.3-0.1,1.7-0.4
			C363.7,300.5,363.9,300.1,363.9,299.6z"/>
		<path fill="#8A909D" d="M368.4,295.6c0.3-0.4,0.6-0.7,1-0.9c0.4-0.2,0.8-0.3,1.3-0.3c0.8,0,1.4,0.2,1.9,0.7
			c0.5,0.5,0.7,1.2,0.7,2.2v4.8h-1.4v-4.8c0-0.6-0.1-1.1-0.4-1.4c-0.3-0.3-0.7-0.4-1.2-0.4c-0.4,0-0.7,0.1-1,0.3
			c-0.3,0.2-0.6,0.4-0.8,0.7v5.6H367v-11h1.4V295.6z"/>
		<path fill="#8A909D" d="M379.9,302.2c0-0.2-0.1-0.4-0.1-0.6c0-0.2,0-0.4,0-0.5c-0.3,0.4-0.6,0.7-1,0.9c-0.4,0.2-0.9,0.4-1.3,0.4
			c-0.8,0-1.4-0.2-1.8-0.6c-0.4-0.4-0.6-1-0.6-1.7c0-0.7,0.3-1.3,0.9-1.7c0.6-0.4,1.4-0.6,2.4-0.6h1.5V297c0-0.4-0.1-0.8-0.4-1.1
			c-0.3-0.3-0.7-0.4-1.2-0.4c-0.4,0-0.8,0.1-1.1,0.3c-0.3,0.2-0.4,0.5-0.4,0.8h-1.3l0,0c0-0.6,0.2-1.1,0.8-1.5
			c0.6-0.5,1.3-0.7,2.1-0.7c0.9,0,1.6,0.2,2.1,0.7c0.5,0.4,0.8,1.1,0.8,1.9v3.7c0,0.3,0,0.5,0,0.8c0,0.3,0.1,0.5,0.2,0.7H379.9z
			 M377.6,301.1c0.5,0,1-0.1,1.4-0.4c0.4-0.3,0.7-0.6,0.8-0.9v-1.2h-1.6c-0.6,0-1,0.1-1.3,0.4c-0.3,0.3-0.5,0.6-0.5,1
			c0,0.3,0.1,0.6,0.3,0.8C376.9,301,377.2,301.1,377.6,301.1z"/>
		<path fill="#8A909D" d="M386.7,295.8l-0.7,0c-0.4,0-0.7,0.1-0.9,0.3c-0.3,0.2-0.4,0.4-0.6,0.7v5.4h-1.4v-7.6h1.2l0.1,1.1
			c0.2-0.4,0.5-0.7,0.8-0.9c0.3-0.2,0.7-0.3,1.1-0.3c0.1,0,0.2,0,0.3,0c0.1,0,0.2,0,0.2,0.1L386.7,295.8z"/>
		<path fill="#8A909D" d="M391.1,302.3c-1.1,0-1.9-0.4-2.5-1.1c-0.6-0.7-0.9-1.6-0.9-2.7v-0.3c0-1.1,0.3-2,1-2.7
			c0.6-0.7,1.4-1.1,2.3-1.1c1,0,1.8,0.3,2.3,0.9c0.5,0.6,0.8,1.4,0.8,2.5v0.9H389l0,0c0,0.7,0.2,1.3,0.6,1.8
			c0.4,0.5,0.9,0.7,1.5,0.7c0.5,0,0.9-0.1,1.2-0.2c0.4-0.1,0.7-0.3,0.9-0.6l0.5,0.9c-0.3,0.3-0.6,0.5-1.1,0.7
			C392.3,302.2,391.7,302.3,391.1,302.3z M390.9,295.5c-0.5,0-0.9,0.2-1.2,0.6c-0.3,0.4-0.5,0.9-0.6,1.5l0,0h3.5v-0.2
			c0-0.5-0.1-1-0.4-1.4C391.9,295.7,391.4,295.5,390.9,295.5z"/>
		<path fill="#8A909D" d="M400,300.1c0-0.3-0.1-0.6-0.3-0.8c-0.2-0.2-0.7-0.4-1.3-0.5c-0.9-0.2-1.6-0.5-2.1-0.8
			c-0.5-0.3-0.7-0.8-0.7-1.4c0-0.6,0.3-1.1,0.8-1.6c0.5-0.4,1.2-0.7,2.1-0.7c0.9,0,1.6,0.2,2.1,0.7c0.5,0.5,0.8,1,0.7,1.7l0,0h-1.3
			c0-0.3-0.1-0.6-0.4-0.9c-0.3-0.3-0.6-0.4-1.1-0.4c-0.5,0-0.9,0.1-1.1,0.3c-0.2,0.2-0.4,0.5-0.4,0.8c0,0.3,0.1,0.5,0.3,0.7
			c0.2,0.2,0.6,0.3,1.3,0.5c1,0.2,1.7,0.5,2.1,0.8c0.5,0.4,0.7,0.8,0.7,1.4c0,0.7-0.3,1.2-0.8,1.6c-0.5,0.4-1.3,0.6-2.1,0.6
			c-1,0-1.7-0.2-2.3-0.7c-0.6-0.5-0.8-1.1-0.8-1.7l0,0h1.3c0,0.5,0.2,0.8,0.5,1.1c0.3,0.2,0.7,0.3,1.2,0.3c0.5,0,0.9-0.1,1.2-0.3
			C399.8,300.7,400,300.5,400,300.1z"/>
	</g>
	<g>
		<path d="M79.6,162.7v-12.9h4.4c1.6,0,2.9,0.5,3.9,1.5c1,1,1.5,2.3,1.5,3.9v2.1c0,1.6-0.5,2.9-1.5,3.9c-1,1-2.3,1.5-3.9,1.5H79.6z
			 M82.2,151.8v8.9H84c0.9,0,1.7-0.3,2.2-0.9c0.5-0.6,0.8-1.4,0.8-2.5v-2.2c0-1-0.3-1.8-0.8-2.4c-0.5-0.6-1.3-0.9-2.2-0.9H82.2z"/>
		<path d="M97.7,162.7c-0.1-0.2-0.2-0.4-0.2-0.7c-0.1-0.2-0.1-0.5-0.1-0.7c-0.3,0.5-0.6,0.9-1.1,1.2c-0.4,0.3-1,0.5-1.6,0.5
			c-1,0-1.8-0.3-2.3-0.8c-0.5-0.5-0.8-1.2-0.8-2.1c0-0.9,0.4-1.7,1.1-2.2c0.7-0.5,1.8-0.8,3.2-0.8h1.4v-0.8c0-0.5-0.1-0.8-0.4-1.1
			c-0.2-0.3-0.6-0.4-1.1-0.4c-0.4,0-0.7,0.1-1,0.3c-0.2,0.2-0.3,0.5-0.3,0.8l-2.5,0l0-0.1c0-0.8,0.3-1.5,1.1-2.1
			c0.7-0.6,1.7-0.9,2.9-0.9c1.1,0,2.1,0.3,2.8,0.9c0.7,0.6,1.1,1.4,1.1,2.5v4c0,0.4,0,0.9,0.1,1.3c0.1,0.4,0.2,0.8,0.3,1.2H97.7z
			 M95.3,161c0.5,0,0.9-0.1,1.2-0.3c0.4-0.2,0.6-0.5,0.7-0.8v-1.4h-1.4c-0.6,0-1,0.1-1.3,0.4c-0.3,0.3-0.4,0.6-0.4,1
			c0,0.3,0.1,0.6,0.3,0.8C94.7,160.9,95,161,95.3,161z"/>
		<path d="M104.9,153.1l0.1,1.4c0.3-0.5,0.7-0.9,1.2-1.1s1-0.4,1.6-0.4c1,0,1.7,0.3,2.3,0.9s0.8,1.6,0.8,2.9v6h-2.6v-6
			c0-0.6-0.1-1.1-0.4-1.4c-0.3-0.3-0.7-0.4-1.2-0.4c-0.3,0-0.7,0.1-0.9,0.2c-0.3,0.1-0.5,0.3-0.7,0.6v7h-2.6v-9.6H104.9z"/>
		<path d="M113.1,158c0-1.5,0.3-2.7,1-3.7c0.7-0.9,1.6-1.4,2.8-1.4c0.5,0,1,0.1,1.4,0.4c0.4,0.2,0.8,0.6,1,1l0.2-1.2h2.2v9.6
			c0,1.2-0.4,2.2-1.2,2.9c-0.8,0.7-2,1-3.4,1c-0.5,0-1-0.1-1.5-0.2c-0.5-0.1-1-0.3-1.5-0.5l0.5-1.9c0.4,0.2,0.8,0.3,1.2,0.4
			c0.4,0.1,0.9,0.1,1.3,0.1c0.7,0,1.2-0.1,1.6-0.4c0.3-0.3,0.5-0.8,0.5-1.4v-0.9c-0.3,0.4-0.6,0.6-1,0.8c-0.4,0.2-0.8,0.3-1.3,0.3
			c-1.2,0-2.1-0.4-2.8-1.3c-0.7-0.9-1-2-1-3.4V158z M115.7,158.2c0,0.8,0.1,1.5,0.4,2c0.3,0.5,0.7,0.7,1.4,0.7c0.4,0,0.7-0.1,1-0.2
			c0.3-0.1,0.5-0.4,0.7-0.6v-4.2c-0.2-0.3-0.4-0.5-0.7-0.7c-0.3-0.2-0.6-0.2-1-0.2c-0.6,0-1.1,0.3-1.4,0.8c-0.3,0.6-0.4,1.3-0.4,2.2
			V158.2z"/>
		<path d="M128.8,162.9c-1.4,0-2.5-0.4-3.3-1.3c-0.8-0.9-1.2-2-1.2-3.4v-0.4c0-1.4,0.4-2.6,1.2-3.5c0.8-0.9,1.8-1.4,3.2-1.4
			c1.3,0,2.3,0.4,3,1.2c0.7,0.8,1.1,1.8,1.1,3.2v1.4h-5.7l0,0.1c0,0.6,0.3,1.1,0.6,1.6c0.4,0.4,0.9,0.6,1.5,0.6
			c0.6,0,1.1-0.1,1.4-0.2c0.4-0.1,0.8-0.3,1.2-0.5l0.7,1.6c-0.4,0.3-0.9,0.6-1.5,0.8C130.3,162.8,129.6,162.9,128.8,162.9z
			 M128.5,155c-0.5,0-0.9,0.2-1.1,0.6c-0.3,0.4-0.5,0.8-0.5,1.4l0,0h3.2v-0.2c0-0.5-0.1-1-0.4-1.3C129.5,155.1,129.1,155,128.5,155z
			"/>
		<path d="M139.9,155.4l-1,0c-0.4,0-0.7,0.1-1,0.2c-0.2,0.2-0.4,0.4-0.6,0.7v6.5h-2.6v-9.6h2.4l0.1,1.4c0.2-0.5,0.5-0.9,0.9-1.2
			c0.4-0.3,0.8-0.4,1.2-0.4c0.1,0,0.3,0,0.4,0c0.1,0,0.2,0,0.3,0.1L139.9,155.4z"/>
		<path d="M141.5,157.9c0-1.4,0.4-2.6,1.2-3.5c0.8-0.9,1.9-1.4,3.3-1.4c1.4,0,2.5,0.5,3.3,1.4c0.8,0.9,1.2,2.1,1.2,3.5v0.2
			c0,1.4-0.4,2.6-1.2,3.5c-0.8,0.9-1.9,1.4-3.3,1.4c-1.4,0-2.5-0.5-3.3-1.4c-0.8-0.9-1.2-2.1-1.2-3.5V157.9z M144.1,158
			c0,0.9,0.2,1.6,0.5,2.1c0.3,0.5,0.8,0.8,1.5,0.8c0.7,0,1.2-0.3,1.5-0.8c0.3-0.5,0.5-1.2,0.5-2.1v-0.2c0-0.9-0.2-1.5-0.5-2.1
			c-0.3-0.5-0.8-0.8-1.5-0.8c-0.7,0-1.2,0.3-1.5,0.8c-0.3,0.5-0.5,1.2-0.5,2.1V158z"/>
		<path d="M158.8,161.4c-0.3,0.5-0.7,0.9-1.1,1.2c-0.5,0.3-1,0.4-1.6,0.4c-1,0-1.8-0.3-2.4-1c-0.6-0.6-0.9-1.7-0.9-3v-5.8h2.6v5.8
			c0,0.7,0.1,1.2,0.4,1.5c0.2,0.3,0.6,0.5,1,0.5c0.4,0,0.8-0.1,1.1-0.2c0.3-0.1,0.5-0.3,0.7-0.6v-7h2.6v9.6H159L158.8,161.4z"/>
		<path d="M169.1,160.1c0-0.3-0.1-0.5-0.4-0.7c-0.3-0.2-0.8-0.4-1.5-0.6c-1.1-0.2-2-0.6-2.6-1c-0.6-0.5-0.9-1.1-0.9-1.8
			c0-0.8,0.3-1.5,1-2.1c0.7-0.6,1.6-0.9,2.8-0.9c1.2,0,2.2,0.3,2.9,0.9c0.7,0.6,1.1,1.3,1,2.2l0,0.1H169c0-0.4-0.1-0.7-0.4-0.9
			c-0.2-0.2-0.6-0.4-1.1-0.4c-0.4,0-0.8,0.1-1,0.3c-0.2,0.2-0.4,0.5-0.4,0.8c0,0.3,0.1,0.5,0.4,0.7c0.3,0.2,0.8,0.4,1.5,0.5
			c1.2,0.2,2.1,0.6,2.6,1c0.6,0.5,0.9,1.1,0.9,1.9c0,0.9-0.4,1.6-1.1,2.1c-0.7,0.5-1.7,0.8-2.9,0.8c-1.3,0-2.3-0.3-3-1
			c-0.7-0.6-1.1-1.4-1.1-2.2l0-0.1h2.4c0,0.5,0.2,0.9,0.5,1.1c0.3,0.2,0.7,0.3,1.3,0.3c0.5,0,0.8-0.1,1.1-0.3
			C169,160.7,169.1,160.4,169.1,160.1z"/>
		<path d="M182.1,158.1v4.7h-2.6v-12.9h5.2c1.5,0,2.7,0.4,3.5,1.1c0.9,0.8,1.3,1.8,1.3,3c0,1.2-0.4,2.2-1.3,3
			c-0.9,0.8-2,1.1-3.5,1.1H182.1z M182.1,156.1h2.6c0.7,0,1.3-0.2,1.6-0.6c0.4-0.4,0.6-0.9,0.6-1.5c0-0.6-0.2-1.1-0.6-1.5
			c-0.4-0.4-0.9-0.6-1.6-0.6h-2.6V156.1z"/>
		<path d="M191.3,157.9c0-1.4,0.4-2.6,1.2-3.5c0.8-0.9,1.9-1.4,3.3-1.4c1.4,0,2.5,0.5,3.3,1.4c0.8,0.9,1.2,2.1,1.2,3.5v0.2
			c0,1.4-0.4,2.6-1.2,3.5c-0.8,0.9-1.9,1.4-3.3,1.4c-1.4,0-2.5-0.5-3.3-1.4c-0.8-0.9-1.2-2.1-1.2-3.5V157.9z M193.9,158
			c0,0.9,0.2,1.6,0.5,2.1c0.3,0.5,0.8,0.8,1.5,0.8c0.7,0,1.2-0.3,1.5-0.8c0.3-0.5,0.5-1.2,0.5-2.1v-0.2c0-0.9-0.2-1.5-0.5-2.1
			c-0.3-0.5-0.8-0.8-1.5-0.8c-0.7,0-1.2,0.3-1.5,0.8c-0.3,0.5-0.5,1.2-0.5,2.1V158z"/>
		<path d="M207.9,160.1c0-0.3-0.1-0.5-0.4-0.7c-0.3-0.2-0.8-0.4-1.5-0.6c-1.1-0.2-2-0.6-2.6-1c-0.6-0.5-0.9-1.1-0.9-1.8
			c0-0.8,0.3-1.5,1-2.1c0.7-0.6,1.6-0.9,2.8-0.9c1.2,0,2.2,0.3,2.9,0.9c0.7,0.6,1.1,1.3,1,2.2l0,0.1h-2.5c0-0.4-0.1-0.7-0.4-0.9
			c-0.2-0.2-0.6-0.4-1.1-0.4c-0.4,0-0.8,0.1-1,0.3c-0.2,0.2-0.4,0.5-0.4,0.8c0,0.3,0.1,0.5,0.4,0.7c0.3,0.2,0.8,0.4,1.5,0.5
			c1.2,0.2,2.1,0.6,2.6,1c0.6,0.5,0.9,1.1,0.9,1.9c0,0.9-0.4,1.6-1.1,2.1c-0.7,0.5-1.7,0.8-2.9,0.8c-1.3,0-2.3-0.3-3-1
			c-0.7-0.6-1.1-1.4-1.1-2.2l0-0.1h2.4c0,0.5,0.2,0.9,0.5,1.1c0.3,0.2,0.7,0.3,1.3,0.3c0.5,0,0.8-0.1,1.1-0.3
			C207.7,160.7,207.9,160.4,207.9,160.1z"/>
		<path d="M215.8,150.8v2.4h1.6v1.8h-1.6v4.9c0,0.4,0.1,0.6,0.2,0.8c0.2,0.2,0.4,0.2,0.6,0.2c0.1,0,0.3,0,0.4,0c0.1,0,0.2,0,0.3-0.1
			l0.2,1.9c-0.3,0.1-0.5,0.2-0.8,0.2c-0.2,0-0.5,0.1-0.8,0.1c-0.9,0-1.6-0.2-2.1-0.7c-0.5-0.5-0.7-1.3-0.7-2.3V155h-1.4v-1.8h1.4
			v-2.4H215.8z"/>
	</g>
	<rect x="14.4" y="144.8" fill="#3C5A99" width="54.4" height="53.7"/>
	<g>
		<g>
			<ellipse fill="#FFFFFF" cx="41.6" cy="171.7" rx="22.3" ry="22.3"/>
			<ellipse fill="none" stroke="#3C5A99" stroke-miterlimit="10" cx="41.6" cy="171.7" rx="22.3" ry="22.3"/>
		</g>
		<g>
			<path fill="#3C5A99" d="M41.3,152.9c-10.4,0-18.9,8.5-18.9,18.9c0,10.4,8.5,18.9,18.9,18.9s18.9-8.5,18.9-18.9
				C60.2,161.4,51.7,152.9,41.3,152.9z M41.3,153.5c10.1,0,18.3,8.2,18.3,18.3c0,4.7-1.8,8.9-4.7,12.2l-7.7-3c0,0-1.5-0.6-1.6-2.1
				c0-0.2-0.1-0.3-0.3-0.3h-0.8c0.6-0.7,1.4-1.7,1.4-2.2c0-0.5,0.1-1.2,0.1-1.4c0-0.1,0.1-0.2,0.2-0.1c0.1,0,0.2,0,0.3-0.1
				c0.1-0.1,1.8-1.7,1.2-4c0-0.1-0.1-0.3-0.2-0.4c-0.1-0.1-0.3-0.2-0.6-0.1c0-0.3,0.1-0.8,0.3-1.5c0.4-1.1,0.6-3.1,0-3.7
				c-0.1-0.1-0.3-0.3-0.5-0.5c-0.5-0.6-1.1-1.3-2-2c-1.3-0.9-2.5-1.3-4.5-1.3c-1.9,0-2.4,0.4-2.9,1.1c-0.4,0.2-2.4,1.5-2.7,2.6
				c-0.3,1.1,0.7,4.5,0.9,5.2c0,0.1-0.1,0.2-0.1,0.2c-0.5,0.1-0.7,0.2-0.8,0.7c-0.1,0.5-0.1,1.4,0,1.8c0.1,0.5,0.5,1.7,1.4,2.1
				c0.1,0,0.2,0.2,0.2,0.3c0,0.8,0,1.4,0.2,1.6c0.1,0.2,0.9,1.3,1.2,1.8h-0.7c-0.1,0-0.2,0-0.2,0.1c-0.1,0.1-0.1,0.1-0.1,0.2
				c0,0.3,0,1-0.4,1.2c-0.5,0.3-5.8,2.3-8.8,3.5c-2.8-3.2-4.5-7.4-4.5-11.9C23,161.7,31.2,153.5,41.3,153.5z M41.3,190
				c-5.3,0-10.1-2.3-13.4-5.8c1.7-0.7,8-3.1,8.6-3.4c0.6-0.3,0.7-1.1,0.7-1.5h1c0.1,0,0.2-0.1,0.3-0.2c0-0.1,0-0.2,0-0.3l-0.1-0.2
				c-0.1-0.1-1.3-1.8-1.4-2c0-0.1-0.1-0.3-0.1-1.3c0-0.5-0.5-0.8-0.6-0.9c0,0,0,0,0,0c-0.6-0.2-1-1.2-1.1-1.6
				c-0.1-0.5-0.1-1.2,0-1.5c0.1-0.3,0.1-0.3,0.3-0.3c0.6-0.1,0.7-0.7,0.7-0.8c0,0,0-0.1,0-0.1c-0.3-1.1-1.1-4.1-0.9-5
				c0.2-0.8,1.8-1.9,2.4-2.3c0,0,0.1,0,0.1-0.1l0,0c0.4-0.5,0.7-0.9,2.5-0.9c1.9,0,3,0.3,4.2,1.1c0.9,0.6,1.5,1.4,1.9,1.9
				c0.2,0.2,0.3,0.4,0.5,0.5c0.3,0.3,0.3,1.9-0.1,3.1c-0.4,1.2-0.4,2-0.4,2.1c0,0.1,0,0.2,0.1,0.2c0.1,0.1,0.2,0.1,0.2,0.1
				c0.3-0.1,0.4,0,0.4,0c0,0,0,0,0,0c0.4,1.7-0.6,3-1,3.3c-0.3,0-0.6,0.2-0.8,0.5c0,0,0,0.1,0,0.1c0,0-0.1,1-0.1,1.6
				c0,0.3-0.8,1.3-1.7,2.3c-0.1,0.1-0.1,0.2-0.1,0.3c0,0.1,0.2,0.2,0.3,0.2H45c0.3,1.6,1.9,2.3,1.9,2.4l7.5,2.9
				C51.2,187.9,46.5,190,41.3,190z"/>
		</g>
	</g>
	<g>
		<path fill="#FFFFFF" d="M154.1,30.2h4.2c0.7,0,1.4,0.1,1.9,0.2c0.6,0.2,1.1,0.4,1.5,0.7c0.4,0.3,0.8,0.6,1.1,1
			c0.3,0.4,0.6,0.8,0.8,1.3c0.2,0.5,0.4,0.9,0.4,1.4c0.1,0.5,0.1,1,0.1,1.5c0,0.5,0,1-0.1,1.4c-0.1,0.5-0.2,1-0.4,1.4
			c-0.2,0.5-0.4,0.9-0.8,1.3c-0.3,0.4-0.7,0.8-1.1,1.1c-0.5,0.3-1,0.5-1.6,0.7c-0.6,0.2-1.3,0.3-2,0.3h-4.1V30.2z M158.5,40.3
			c0.6,0,1.1-0.1,1.5-0.4c0.4-0.2,0.8-0.5,1-0.9c0.3-0.4,0.4-0.8,0.6-1.3c0.1-0.5,0.2-0.9,0.2-1.4c0-0.5-0.1-1-0.2-1.4
			c-0.1-0.5-0.3-0.9-0.6-1.3c-0.2-0.4-0.6-0.7-1-0.9c-0.4-0.2-0.9-0.3-1.4-0.3h-2.2v7.8H158.5z"/>
		<path fill="#FFFFFF" d="M174.4,42.6l-1-2.6h-4.8l-0.9,2.6h-2.6l4.7-12.3h2.3l4.7,12.3H174.4z M171.5,34.6
			c-0.1-0.1-0.1-0.3-0.2-0.5c-0.1-0.2-0.1-0.4-0.2-0.6c0,0.2-0.1,0.4-0.2,0.6c-0.1,0.2-0.1,0.4-0.2,0.5l-1.2,3.2h3.2L171.5,34.6z"/>
		<path fill="#FFFFFF" d="M186.9,42.6l-4.9-7.2c-0.1-0.1-0.2-0.3-0.3-0.4c-0.1-0.2-0.2-0.3-0.2-0.5c0,0.1,0,0.3,0,0.5
			c0,0.2,0,0.3,0,0.5v7.2h-2.4V30.2h2.2l4.8,7.1c0.1,0.1,0.2,0.3,0.3,0.4c0.1,0.2,0.2,0.3,0.3,0.5c0-0.2,0-0.3,0-0.5
			c0-0.2,0-0.3,0-0.4v-7.1h2.4v12.3H186.9z"/>
		<path fill="#FFFFFF" d="M197.2,42.8c-0.6,0-1.2-0.1-1.7-0.2c-0.5-0.2-1-0.4-1.4-0.7c-0.4-0.3-0.7-0.6-1-1
			c-0.3-0.4-0.5-0.8-0.7-1.3c-0.2-0.5-0.3-1-0.4-1.5c-0.1-0.5-0.1-1.1-0.1-1.6c0-0.5,0-1,0.1-1.5c0.1-0.5,0.2-1,0.4-1.5
			c0.2-0.5,0.4-0.9,0.7-1.3c0.3-0.4,0.6-0.8,1.1-1.1c0.4-0.3,0.9-0.5,1.4-0.7c0.5-0.2,1.1-0.3,1.7-0.3c0.6,0,1.1,0.1,1.6,0.2
			c0.5,0.1,0.9,0.3,1.2,0.6c0.4,0.2,0.7,0.5,0.9,0.8c0.3,0.3,0.5,0.6,0.7,1l-2.1,1.2c-0.1-0.2-0.3-0.4-0.4-0.6
			c-0.2-0.2-0.3-0.4-0.5-0.5c-0.2-0.1-0.4-0.3-0.6-0.3c-0.2-0.1-0.5-0.1-0.7-0.1c-0.4,0-0.7,0.1-1,0.2c-0.3,0.1-0.5,0.3-0.8,0.5
			c-0.2,0.2-0.4,0.4-0.6,0.7c-0.1,0.3-0.3,0.6-0.4,0.9c-0.1,0.3-0.2,0.6-0.2,0.9c0,0.3-0.1,0.6-0.1,0.9c0,0.5,0.1,1,0.2,1.5
			c0.1,0.5,0.3,0.9,0.5,1.3c0.2,0.4,0.5,0.7,0.9,0.9c0.4,0.2,0.8,0.3,1.4,0.3c0.3,0,0.6-0.1,0.8-0.2c0.3-0.1,0.5-0.2,0.7-0.4
			c0.2-0.2,0.3-0.4,0.5-0.6c0.1-0.2,0.2-0.5,0.2-0.8v-0.1h-2.1v-2.3h4.5v1.8c0,0.8-0.1,1.5-0.4,2.1c-0.2,0.6-0.6,1.1-1,1.5
			c-0.4,0.4-0.9,0.7-1.5,0.9C198.4,42.7,197.8,42.8,197.2,42.8z"/>
		<path fill="#FFFFFF" d="M204.4,42.6V30.2h8.4v2.3h-6v2.6h3.6v2.3h-3.6v3h6.4v2.3H204.4z"/>
		<path fill="#FFFFFF" d="M215.8,42.6V30.2h5.7c0.8,0,1.4,0.1,2,0.3c0.5,0.2,0.9,0.5,1.3,0.9c0.3,0.4,0.6,0.8,0.7,1.2
			c0.1,0.5,0.2,0.9,0.2,1.5c0,0.3-0.1,0.7-0.2,1.1c-0.1,0.4-0.3,0.7-0.5,1c-0.2,0.3-0.5,0.6-0.7,0.9c-0.3,0.3-0.6,0.5-1,0.6l2.4,4.9
			h-2.7l-2.3-4.6h-2.5v4.6H215.8z M221.5,35.7c0.3,0,0.6,0,0.8-0.1c0.2-0.1,0.4-0.2,0.5-0.4c0.1-0.1,0.2-0.3,0.3-0.5
			c0.1-0.2,0.1-0.4,0.1-0.6c0-0.2,0-0.4-0.1-0.6c0-0.2-0.1-0.4-0.3-0.5c-0.1-0.2-0.3-0.3-0.5-0.4c-0.2-0.1-0.5-0.1-0.8-0.1h-3.4v3.2
			H221.5z"/>
		<path fill="#FFFFFF" d="M233.4,42.8c-0.7,0-1.3-0.1-1.8-0.3c-0.5-0.2-1-0.4-1.4-0.7s-0.8-0.7-1-1.1c-0.3-0.4-0.5-0.9-0.7-1.3
			c-0.2-0.5-0.3-1-0.4-1.5c-0.1-0.5-0.1-1-0.1-1.5c0-0.5,0-1,0.1-1.5c0.1-0.5,0.2-1,0.4-1.5c0.2-0.5,0.4-0.9,0.7-1.3
			c0.3-0.4,0.6-0.8,1-1.1s0.9-0.5,1.4-0.7c0.5-0.2,1.1-0.3,1.8-0.3c0.7,0,1.3,0.1,1.8,0.3c0.5,0.2,1,0.4,1.4,0.7
			c0.4,0.3,0.7,0.7,1,1.1c0.3,0.4,0.5,0.9,0.7,1.3c0.2,0.5,0.3,1,0.4,1.5c0.1,0.5,0.1,1,0.1,1.5c0,0.5,0,1-0.1,1.5
			c-0.1,0.5-0.2,1-0.4,1.5c-0.2,0.5-0.4,0.9-0.7,1.3c-0.3,0.4-0.6,0.8-1,1.1c-0.4,0.3-0.9,0.5-1.4,0.7
			C234.6,42.7,234,42.8,233.4,42.8z M233.4,40.5c0.6,0,1-0.1,1.4-0.4c0.4-0.3,0.7-0.6,0.9-1c0.2-0.4,0.4-0.8,0.5-1.3
			c0.1-0.5,0.2-0.9,0.2-1.4c0-0.3,0-0.6-0.1-1c0-0.3-0.1-0.6-0.2-0.9c-0.1-0.3-0.2-0.6-0.4-0.9c-0.2-0.3-0.3-0.5-0.6-0.7
			c-0.2-0.2-0.5-0.4-0.8-0.5c-0.3-0.1-0.6-0.2-1-0.2c-0.4,0-0.7,0.1-1,0.2c-0.3,0.1-0.5,0.3-0.8,0.5c-0.2,0.2-0.4,0.4-0.6,0.7
			c-0.2,0.3-0.3,0.6-0.4,0.9c-0.1,0.3-0.2,0.6-0.2,0.9c0,0.3-0.1,0.6-0.1,0.9c0,0.5,0.1,0.9,0.2,1.4c0.1,0.5,0.3,0.9,0.5,1.3
			c0.2,0.4,0.5,0.7,0.9,1C232.3,40.4,232.8,40.5,233.4,40.5z"/>
		<path fill="#FFFFFF" d="M246.4,42.8c-0.4,0-0.8,0-1.2-0.1c-0.4-0.1-0.8-0.2-1.2-0.3c-0.4-0.2-0.7-0.4-1-0.6
			c-0.3-0.3-0.6-0.6-0.8-0.9c-0.2-0.4-0.4-0.8-0.5-1.3c-0.1-0.5-0.2-1-0.2-1.7v-7.6h2.4v7.6c0,0.5,0.1,0.9,0.2,1.3
			c0.1,0.3,0.3,0.6,0.5,0.8c0.2,0.2,0.5,0.3,0.8,0.4c0.3,0.1,0.7,0.1,1.1,0.1c0.4,0,0.8,0,1.1-0.1c0.3-0.1,0.6-0.2,0.8-0.4
			c0.2-0.2,0.4-0.5,0.5-0.8c0.1-0.3,0.2-0.8,0.2-1.3v-7.6h2.4v7.6c0,0.9-0.1,1.7-0.4,2.3c-0.3,0.6-0.6,1.1-1.1,1.5
			c-0.5,0.4-1,0.7-1.6,0.8C247.7,42.7,247.1,42.8,246.4,42.8z"/>
		<path fill="#FFFFFF" d="M260.4,33.6c-0.1-0.2-0.2-0.4-0.3-0.5c-0.1-0.2-0.3-0.3-0.5-0.4c-0.2-0.1-0.4-0.2-0.6-0.3
			c-0.2-0.1-0.5-0.1-0.8-0.1c-0.5,0-0.9,0.1-1.2,0.3c-0.3,0.2-0.4,0.5-0.4,0.9c0,0.2,0.1,0.5,0.3,0.6c0.2,0.2,0.4,0.3,0.7,0.5
			c0.3,0.1,0.6,0.3,1,0.4c0.4,0.1,0.8,0.3,1.2,0.4c0.4,0.1,0.8,0.3,1.2,0.5c0.4,0.2,0.7,0.4,1,0.7c0.3,0.3,0.5,0.6,0.7,1
			c0.2,0.4,0.3,0.9,0.3,1.4c0,0.6-0.1,1.1-0.3,1.6c-0.2,0.5-0.5,0.9-0.9,1.2c-0.4,0.3-0.9,0.6-1.4,0.7c-0.5,0.2-1.1,0.2-1.8,0.2
			c-0.6,0-1.1-0.1-1.6-0.2c-0.5-0.2-1-0.4-1.4-0.7c-0.4-0.3-0.8-0.6-1.1-1.1c-0.3-0.4-0.5-0.9-0.7-1.4l2.2-0.8
			c0.1,0.3,0.3,0.5,0.5,0.8c0.2,0.2,0.4,0.4,0.6,0.6c0.2,0.2,0.5,0.3,0.7,0.4c0.3,0.1,0.6,0.1,0.9,0.1c0.3,0,0.6,0,0.8-0.1
			c0.2-0.1,0.5-0.2,0.6-0.3c0.2-0.1,0.3-0.3,0.4-0.5c0.1-0.2,0.1-0.4,0.1-0.6c0-0.3-0.1-0.5-0.3-0.8c-0.2-0.2-0.4-0.4-0.7-0.5
			c-0.3-0.2-0.6-0.3-1-0.4c-0.4-0.1-0.8-0.3-1.2-0.4c-0.4-0.1-0.8-0.3-1.2-0.5c-0.4-0.2-0.7-0.4-1-0.7c-0.3-0.3-0.5-0.6-0.7-1
			c-0.2-0.4-0.3-0.8-0.3-1.4c0-0.5,0.1-0.9,0.3-1.3c0.2-0.4,0.5-0.8,0.8-1.1c0.4-0.3,0.8-0.6,1.3-0.7c0.5-0.2,1.1-0.3,1.8-0.3
			c0.6,0,1.1,0.1,1.5,0.2c0.5,0.1,0.8,0.3,1.2,0.6c0.3,0.3,0.6,0.6,0.9,0.9c0.2,0.3,0.4,0.7,0.5,1.1L260.4,33.6z"/>
		<path fill="#FFFFFF" d="M154.2,75.6V45.6H167c1.9,0,3.5,0.3,4.8,0.8c1.3,0.5,2.3,1.3,3.2,2.2c0.8,0.9,1.4,1.9,1.7,3
			s0.5,2.3,0.5,3.4c0,0.7-0.1,1.5-0.3,2.2c-0.2,0.7-0.4,1.5-0.8,2.2c-0.3,0.7-0.8,1.4-1.3,2c-0.5,0.6-1.2,1.2-2,1.6
			c-0.8,0.5-1.6,0.8-2.6,1.1c-1,0.3-2.1,0.4-3.3,0.4H160v11H154.2z M167.3,59.1c0.7,0,1.4-0.1,1.9-0.4c0.5-0.2,0.9-0.5,1.2-0.9
			c0.3-0.4,0.5-0.8,0.7-1.3c0.1-0.5,0.2-0.9,0.2-1.4c0-0.4-0.1-0.9-0.2-1.3c-0.1-0.5-0.3-0.9-0.6-1.3c-0.3-0.4-0.7-0.7-1.2-1
			c-0.5-0.3-1.2-0.4-1.9-0.4H160v7.9H167.3z"/>
		<path fill="#FFFFFF" d="M195,76.1c-1.6,0-3.1-0.2-4.3-0.6c-1.3-0.4-2.4-1-3.4-1.7c-1-0.7-1.8-1.6-2.5-2.6c-0.7-1-1.3-2.1-1.7-3.2
			c-0.4-1.1-0.8-2.3-1-3.6c-0.2-1.2-0.3-2.5-0.3-3.7c0-1.2,0.1-2.5,0.3-3.7c0.2-1.2,0.5-2.4,1-3.6c0.4-1.1,1-2.2,1.7-3.2
			c0.7-1,1.5-1.9,2.5-2.6c1-0.7,2.1-1.3,3.4-1.7c1.3-0.4,2.7-0.6,4.3-0.6c1.6,0,3.1,0.2,4.3,0.6c1.3,0.4,2.4,1,3.4,1.7
			c1,0.7,1.8,1.6,2.5,2.6c0.7,1,1.3,2.1,1.7,3.2c0.4,1.1,0.8,2.3,1,3.6c0.2,1.2,0.3,2.5,0.3,3.7c0,1.2-0.1,2.5-0.3,3.7
			c-0.2,1.2-0.5,2.4-1,3.6c-0.4,1.1-1,2.2-1.7,3.2c-0.7,1-1.5,1.9-2.5,2.6c-1,0.7-2.1,1.3-3.4,1.7C198,75.9,196.6,76.1,195,76.1z
			 M195,70.5c1.3,0,2.5-0.3,3.4-0.9c0.9-0.6,1.7-1.4,2.2-2.4c0.6-1,1-2,1.2-3.2c0.3-1.2,0.4-2.3,0.4-3.4c0-0.8-0.1-1.5-0.2-2.3
			c-0.1-0.8-0.3-1.5-0.5-2.3c-0.2-0.7-0.5-1.4-0.9-2.1c-0.4-0.6-0.8-1.2-1.4-1.7c-0.5-0.5-1.1-0.9-1.8-1.1c-0.7-0.3-1.5-0.4-2.4-0.4
			c-0.9,0-1.7,0.1-2.4,0.4c-0.7,0.3-1.3,0.7-1.9,1.2c-0.5,0.5-1,1.1-1.4,1.7s-0.7,1.3-0.9,2.1c-0.2,0.7-0.4,1.5-0.5,2.3
			c-0.1,0.8-0.2,1.5-0.2,2.2c0,1.1,0.1,2.3,0.4,3.5c0.3,1.2,0.7,2.2,1.2,3.2c0.6,1,1.3,1.7,2.2,2.3C192.5,70.2,193.6,70.5,195,70.5z
			"/>
		<path fill="#FFFFFF" d="M229.2,53.8c-0.2-0.4-0.4-0.9-0.7-1.3c-0.3-0.4-0.7-0.7-1.1-1c-0.4-0.3-0.9-0.5-1.5-0.7
			c-0.6-0.2-1.2-0.2-1.8-0.2c-1.3,0-2.2,0.3-2.9,0.8c-0.7,0.5-1.1,1.2-1.1,2.1c0,0.6,0.2,1.1,0.7,1.5c0.4,0.4,1,0.8,1.8,1.1
			c0.7,0.3,1.6,0.6,2.5,0.9c0.9,0.3,1.9,0.6,2.9,1c1,0.4,1.9,0.8,2.9,1.3c0.9,0.5,1.8,1.1,2.5,1.8c0.7,0.7,1.3,1.5,1.8,2.5
			c0.4,1,0.7,2.1,0.7,3.5c0,1.5-0.3,2.8-0.8,3.9c-0.6,1.1-1.3,2.1-2.3,2.9c-1,0.8-2.1,1.4-3.4,1.8c-1.3,0.4-2.8,0.6-4.3,0.6
			c-1.4,0-2.7-0.2-4-0.6c-1.2-0.4-2.3-0.9-3.3-1.6c-1-0.7-1.9-1.6-2.6-2.6c-0.7-1-1.3-2.2-1.8-3.4l5.3-2c0.3,0.7,0.7,1.3,1.2,1.9
			c0.5,0.6,1,1.1,1.5,1.5c0.6,0.4,1.2,0.7,1.8,1c0.6,0.2,1.3,0.3,2.1,0.3c0.7,0,1.4-0.1,2-0.2c0.6-0.2,1.1-0.4,1.5-0.7
			c0.4-0.3,0.8-0.7,1-1.1c0.2-0.5,0.3-1,0.3-1.6c0-0.7-0.2-1.3-0.7-1.8c-0.4-0.5-1-0.9-1.8-1.3c-0.7-0.4-1.6-0.7-2.5-1
			c-0.9-0.3-1.9-0.6-2.8-0.9c-1-0.3-1.9-0.7-2.8-1.2c-0.9-0.4-1.8-1-2.5-1.6c-0.7-0.7-1.3-1.4-1.8-2.4c-0.4-0.9-0.7-2-0.7-3.3
			c0-1.1,0.2-2.2,0.7-3.2c0.5-1,1.1-1.9,2-2.6c0.9-0.8,1.9-1.3,3.2-1.8c1.3-0.4,2.7-0.7,4.3-0.7c1.4,0,2.6,0.2,3.7,0.5
			c1.1,0.3,2.1,0.8,2.9,1.5c0.8,0.6,1.5,1.4,2.1,2.2c0.6,0.8,1,1.8,1.3,2.8L229.2,53.8z"/>
		<path fill="#FFFFFF" d="M254.4,51.2v24.4h-5.8V51.2H240v-5.6h22.9v5.6H254.4z"/>
		<path fill="#FFFFFF" d="M215.5,90.1c0,0,0.8-4.9-0.8-9.5c0,0-0.6-1.1,0.2-1.2h3.1c0,0,0.7,0.4,0.9,0.7c0.2,0.4,1.5,3.4,0.8,10
			c0,0-0.4,1.2-1.3,1.2c-1,0-2.4-0.1-2.4-0.1S215.1,91,215.5,90.1z"/>
		<path fill="#FFFFFF" d="M203.6,94.2c0,0-0.5,1.4-0.8,2.2c-0.3,0.8-1.2,3.3,0.2,5c1.4,1.6,2.6,1,3,0.2c0,0,0.2-0.9,0.2-1.2
			c0-0.3-0.4-0.9,0.8-2.4c1.3-1.5,1.1-1.8,2.3-2.8s2.3-2.4,2.5-3c0,0,0.8-1,1-0.9c0.2,0,1-0.1,1.5-1.6c0.4-1.5,0.1-7.4-1.4-9
			c-1.5-1.6-8.8-2.2-10.1-1.9c-1.3,0.3-3.3,0.7-3.2,2.7c0,0-1.4,1.3-1.5,2.5c-0.1,1.2,0.2,1.4,0.2,2.2c0,0.8-1.8,0.9-0.2,3.4
			c0,0,0.2,0.1,0.1,1.2c-0.1,1.1,1,1.7,1.7,2.1c0.8,0.4,2.9,0.5,3.5,0.2C203.2,93.1,203.8,92.9,203.6,94.2z"/>
		<g>
			<polygon fill="#FFFFFF" points="199.4,85.8 141.7,85.8 141.7,34.9 151.2,34.9 151.2,35.8 142.7,35.8 142.7,84.9 199.4,84.9 			
				"/>
		</g>
		<g>
			<polygon fill="#FFFFFF" points="275.8,85.8 218.6,85.8 218.6,84.9 274.8,84.9 274.8,35.8 266.3,35.8 266.3,34.9 275.8,34.9 			
				"/>
		</g>
	</g>
	<rect x="0.3" y="325.9" fill="#EEF1F4" width="419" height="48"/>
	<g>
		<line fill="none" stroke="#D2D2D2" stroke-width="0.5" stroke-miterlimit="10" x1="140.9" y1="363.7" x2="140.9" y2="335.2"/>
		<line fill="none" stroke="#D2D2D2" stroke-width="0.5" stroke-miterlimit="10" x1="279.2" y1="363.7" x2="279.2" y2="335.2"/>
		<g>
			<path fill="#5E5F60" d="M198.6,349.5L198.6,349.5c0,1.1-0.3,2-1.1,2.7s-1.8,1.1-3,1.1c-1.3,0-2.3-0.4-3.1-1.3s-1.2-2-1.2-3.4v-2
				c0-1.4,0.4-2.5,1.2-3.4c0.8-0.9,1.8-1.3,3.1-1.3s2.3,0.3,3,1s1.1,1.6,1.1,2.7l0,0h-1.5c0-0.8-0.2-1.4-0.7-1.9
				c-0.5-0.5-1.1-0.7-1.9-0.7c-0.8,0-1.5,0.3-2,1c-0.5,0.7-0.8,1.5-0.8,2.5v2c0,1,0.3,1.9,0.8,2.5c0.5,0.7,1.2,1,2,1
				c0.8,0,1.5-0.2,1.9-0.7s0.7-1.1,0.7-1.9H198.6z"/>
			<path fill="#5E5F60" d="M200,348.8c0-1.2,0.3-2.2,1-3c0.7-0.8,1.6-1.2,2.7-1.2c1.2,0,2.1,0.4,2.7,1.2c0.7,0.8,1,1.8,1,3v0.2
				c0,1.2-0.3,2.2-1,3c-0.7,0.8-1.6,1.2-2.7,1.2s-2.1-0.4-2.7-1.2c-0.7-0.8-1-1.8-1-3V348.8z M201.5,349c0,0.9,0.2,1.6,0.6,2.2
				c0.4,0.6,0.9,0.9,1.7,0.9c0.7,0,1.3-0.3,1.6-0.9c0.4-0.6,0.6-1.3,0.6-2.2v-0.2c0-0.9-0.2-1.6-0.6-2.2c-0.4-0.6-0.9-0.9-1.7-0.9
				c-0.7,0-1.3,0.3-1.6,0.9c-0.4,0.6-0.6,1.3-0.6,2.2V349z"/>
			<path fill="#5E5F60" d="M210.6,344.7l0.1,1.1c0.3-0.4,0.6-0.7,1-0.9c0.4-0.2,0.9-0.3,1.5-0.3s1,0.1,1.4,0.4s0.7,0.6,0.9,1.1
				c0.3-0.5,0.6-0.8,1-1.1c0.4-0.3,0.9-0.4,1.5-0.4c0.8,0,1.5,0.3,2,0.9c0.5,0.6,0.7,1.5,0.7,2.6v5h-1.5v-5c0-0.8-0.1-1.4-0.4-1.7
				s-0.7-0.5-1.3-0.5c-0.5,0-0.9,0.2-1.3,0.5s-0.5,0.8-0.6,1.4v0.1v5.3h-1.5v-5c0-0.8-0.1-1.3-0.4-1.7c-0.3-0.4-0.7-0.5-1.2-0.5
				c-0.5,0-0.8,0.1-1.1,0.3c-0.3,0.2-0.5,0.5-0.7,0.8v6.1h-1.5v-8.3H210.6z"/>
			<path fill="#5E5F60" d="M224.4,344.7l0.1,1.1c0.3-0.4,0.6-0.7,1-0.9c0.4-0.2,0.9-0.3,1.5-0.3c0.6,0,1,0.1,1.4,0.4
				c0.4,0.3,0.7,0.6,0.9,1.1c0.3-0.5,0.6-0.8,1-1.1c0.4-0.3,0.9-0.4,1.5-0.4c0.8,0,1.5,0.3,2,0.9s0.7,1.5,0.7,2.6v5H233v-5
				c0-0.8-0.1-1.4-0.4-1.7s-0.7-0.5-1.3-0.5c-0.5,0-0.9,0.2-1.3,0.5c-0.3,0.4-0.5,0.8-0.6,1.4v0.1v5.3H228v-5c0-0.8-0.1-1.3-0.4-1.7
				c-0.3-0.4-0.7-0.5-1.2-0.5c-0.5,0-0.8,0.1-1.1,0.3c-0.3,0.2-0.5,0.5-0.7,0.8v6.1H223v-8.3H224.4z"/>
			<path fill="#5E5F60" d="M240.2,353.2c-1.2,0-2.1-0.4-2.8-1.2c-0.7-0.8-1-1.8-1-3v-0.3c0-1.2,0.4-2.2,1.1-2.9
				c0.7-0.8,1.5-1.2,2.5-1.2c1.1,0,2,0.3,2.5,1s0.9,1.6,0.9,2.7v0.9H238l0,0c0,0.8,0.2,1.4,0.6,2c0.4,0.5,0.9,0.8,1.6,0.8
				c0.5,0,1-0.1,1.3-0.2s0.7-0.3,1-0.6l0.6,1c-0.3,0.3-0.7,0.5-1.2,0.7C241.5,353.1,240.9,353.2,240.2,353.2z M240,345.8
				c-0.5,0-0.9,0.2-1.3,0.6c-0.4,0.4-0.6,1-0.7,1.6l0,0h3.8v-0.2c0-0.6-0.2-1.1-0.5-1.5C241.1,346,240.6,345.8,240,345.8z"/>
			<path fill="#5E5F60" d="M246.4,344.7l0.1,1.2c0.3-0.4,0.6-0.8,1-1c0.4-0.2,0.9-0.4,1.4-0.4c0.9,0,1.6,0.3,2.1,0.8
				c0.5,0.5,0.7,1.3,0.7,2.4v5.2h-1.5v-5.2c0-0.7-0.1-1.2-0.4-1.6c-0.3-0.3-0.7-0.5-1.3-0.5c-0.4,0-0.8,0.1-1.2,0.3
				c-0.3,0.2-0.6,0.5-0.8,0.9v6h-1.5v-8.3H246.4z"/>
			<path fill="#5E5F60" d="M256,342.7v2h1.6v1.1H256v5c0,0.4,0.1,0.7,0.2,0.8c0.2,0.2,0.4,0.2,0.6,0.2c0.1,0,0.2,0,0.3,0
				s0.2,0,0.3-0.1l0.2,1c-0.1,0.1-0.3,0.2-0.5,0.2s-0.4,0.1-0.7,0.1c-0.6,0-1.1-0.2-1.5-0.6c-0.4-0.4-0.5-1-0.5-1.7v-5h-1.3v-1.1
				h1.3v-2H256z"/>
		</g>
		<g>
			<path fill="#5E5F60" d="M347.8,350.2c0-0.5-0.2-0.9-0.6-1.3c-0.4-0.3-1.1-0.6-2-0.9c-1.2-0.3-2.1-0.7-2.8-1.2
				c-0.7-0.5-1-1.2-1-2.1c0-0.9,0.4-1.6,1.1-2.2c0.7-0.6,1.6-0.9,2.8-0.9c1.2,0,2.2,0.3,2.9,1c0.7,0.7,1.1,1.4,1,2.3l0,0h-1.4
				c0-0.7-0.2-1.2-0.6-1.6c-0.4-0.4-1.1-0.6-1.9-0.6c-0.8,0-1.3,0.2-1.7,0.5c-0.4,0.3-0.6,0.8-0.6,1.3c0,0.5,0.2,0.9,0.7,1.2
				c0.4,0.3,1.1,0.6,2.1,0.9c1.2,0.3,2.1,0.7,2.7,1.3s0.9,1.3,0.9,2.1c0,0.9-0.4,1.6-1.1,2.2c-0.7,0.5-1.7,0.8-2.9,0.8
				c-1.1,0-2.1-0.3-3-0.9s-1.3-1.4-1.2-2.4l0,0h1.4c0,0.7,0.3,1.3,0.8,1.6s1.2,0.6,2,0.6c0.8,0,1.4-0.2,1.8-0.5
				C347.6,351.2,347.8,350.8,347.8,350.2z"/>
			<path fill="#5E5F60" d="M352.7,345.8c0.3-0.4,0.6-0.7,1.1-0.9c0.4-0.2,0.9-0.3,1.4-0.3c0.9,0,1.6,0.3,2.1,0.8
				c0.5,0.5,0.7,1.3,0.7,2.5v5.2h-1.5v-5.2c0-0.7-0.1-1.2-0.4-1.5c-0.3-0.3-0.7-0.5-1.3-0.5c-0.4,0-0.8,0.1-1.1,0.3
				c-0.3,0.2-0.6,0.5-0.8,0.8v6.1h-1.5v-12h1.5V345.8z"/>
			<path fill="#5E5F60" d="M365.2,353c-0.1-0.3-0.1-0.5-0.1-0.7c0-0.2,0-0.4,0-0.6c-0.3,0.4-0.6,0.7-1.1,1c-0.5,0.3-0.9,0.4-1.5,0.4
				c-0.9,0-1.5-0.2-2-0.7c-0.5-0.4-0.7-1.1-0.7-1.8c0-0.8,0.3-1.4,1-1.9c0.6-0.4,1.5-0.7,2.6-0.7h1.6v-0.8c0-0.5-0.1-0.9-0.4-1.2
				c-0.3-0.3-0.7-0.4-1.3-0.4c-0.5,0-0.9,0.1-1.2,0.4c-0.3,0.2-0.5,0.5-0.5,0.9h-1.4l0,0c0-0.6,0.3-1.2,0.9-1.7
				c0.6-0.5,1.4-0.8,2.3-0.8c0.9,0,1.7,0.2,2.3,0.7s0.9,1.2,0.9,2.1v4c0,0.3,0,0.6,0,0.9c0,0.3,0.1,0.5,0.2,0.8H365.2z M362.7,351.9
				c0.5,0,1-0.1,1.5-0.4s0.7-0.6,0.9-1v-1.3h-1.7c-0.6,0-1.1,0.2-1.5,0.5s-0.5,0.7-0.5,1.1c0,0.4,0.1,0.7,0.3,0.9
				C361.9,351.8,362.3,351.9,362.7,351.9z"/>
			<path fill="#5E5F60" d="M372.7,346.1l-0.8,0c-0.4,0-0.7,0.1-1,0.3c-0.3,0.2-0.5,0.5-0.6,0.8v5.9h-1.5v-8.3h1.4l0.1,1.2
				c0.2-0.4,0.5-0.8,0.9-1c0.3-0.2,0.7-0.4,1.2-0.4c0.1,0,0.2,0,0.3,0s0.2,0,0.3,0.1L372.7,346.1z"/>
			<path fill="#5E5F60" d="M377.5,353.2c-1.2,0-2.1-0.4-2.8-1.2c-0.7-0.8-1-1.8-1-3v-0.3c0-1.2,0.4-2.2,1.1-2.9
				c0.7-0.8,1.5-1.2,2.5-1.2c1.1,0,2,0.3,2.5,1c0.6,0.7,0.9,1.6,0.9,2.7v0.9h-5.4l0,0c0,0.8,0.2,1.4,0.6,2c0.4,0.5,0.9,0.8,1.6,0.8
				c0.5,0,1-0.1,1.3-0.2s0.7-0.3,1-0.6l0.6,1c-0.3,0.3-0.7,0.5-1.2,0.7C378.7,353.1,378.2,353.2,377.5,353.2z M377.2,345.8
				c-0.5,0-0.9,0.2-1.3,0.6c-0.4,0.4-0.6,1-0.7,1.6l0,0h3.8v-0.2c0-0.6-0.2-1.1-0.5-1.5C378.3,346,377.9,345.8,377.2,345.8z"/>
		</g>
		<g>
			<path fill="#5E5F60" d="M73.5,351.8h5.3v1.2H72v-11.2h1.5V351.8z"/>
			<path fill="#5E5F60" d="M81.8,342.6h-1.5v-1.5h1.5V342.6z M81.8,353h-1.5v-8.3h1.5V353z"/>
			<path fill="#5E5F60" d="M86.6,349.2h-1v3.8h-1.5v-12h1.5v6.9h1l2.3-3.3h1.8l-2.8,3.8l3.2,4.5h-1.8L86.6,349.2z"/>
			<path fill="#5E5F60" d="M95.5,353.2c-1.2,0-2.1-0.4-2.8-1.2c-0.7-0.8-1-1.8-1-3v-0.3c0-1.2,0.4-2.2,1.1-2.9
				c0.7-0.8,1.5-1.2,2.5-1.2c1.1,0,2,0.3,2.5,1c0.6,0.7,0.9,1.6,0.9,2.7v0.9h-5.4l0,0c0,0.8,0.2,1.4,0.6,2c0.4,0.5,0.9,0.8,1.6,0.8
				c0.5,0,1-0.1,1.3-0.2s0.7-0.3,1-0.6l0.6,1c-0.3,0.3-0.7,0.5-1.2,0.7C96.7,353.1,96.2,353.2,95.5,353.2z M95.2,345.8
				c-0.5,0-0.9,0.2-1.3,0.6c-0.4,0.4-0.6,1-0.7,1.6l0,0h3.8v-0.2c0-0.6-0.2-1.1-0.5-1.5C96.3,346,95.9,345.8,95.2,345.8z"/>
		</g>
		<polyline fill="#9A9DA2" points="163.3,353.1 163.3,357.6 168.6,353.1 174.9,353.1 174.9,341.9 160.5,341.9 160.5,353.1 
			163.3,353.1 		"/>
		<path fill="#9A9DA2" d="M311.7,356.3c0,0,0.2-9.8,8.7-10v-4.4l8.9,7.2l-8.8,7.2V352C320.6,352,315.7,349.4,311.7,356.3z"/>
		<g>
			<rect x="41.6" y="346.8" fill="#9A9DA2" width="4.5" height="9.2"/>
			<path fill="#9A9DA2" d="M49.9,341.1c0,0-0.4,4-2.2,4.9v10h7.4c0,0,2.2-1,1.3-4.6c0,0,2.4-1.2,2.3-3.9s-6.5-2.1-6.5-2.1
				s1.3-1.6,1-4.4s-2.1-2.2-2.1-2.2S49.2,339.2,49.9,341.1z"/>
		</g>
	</g>
	<g>
		<ellipse fill="#FED971" cx="29.9" cy="297.8" rx="8.8" ry="8.8"/>
		<g>
			<ellipse fill="#252C38" cx="29.5" cy="301.7" rx="3.3" ry="3.8"/>
			
				<ellipse transform="matrix(0.9593 0.2825 -0.2825 0.9593 84.5544 4.8106)" fill="#252C38" cx="25.6" cy="295.6" rx="1.5" ry="2.2"/>
			
				<ellipse transform="matrix(-0.9947 0.1025 -0.1025 -0.9947 98.805 586.2211)" fill="#252C38" cx="34.3" cy="295.6" rx="1.5" ry="2.2"/>
			<g>
				<path fill="#252C38" d="M25,292.3l-0.9-0.1c0,0,0.2-1.2,1.2-1.7c0.8-0.4,1.8-0.4,3,0.1l-0.3,0.9c-0.9-0.4-1.7-0.4-2.2-0.1
					C25.1,291.6,25,292.3,25,292.3z"/>
			</g>
			<g>
				<path fill="#252C38" d="M34.9,292.3l0.9-0.1c0,0-0.2-1.2-1.2-1.7c-0.8-0.4-1.8-0.4-3,0.1l0.3,0.9c0.9-0.4,1.7-0.4,2.2-0.1
					C34.8,291.6,34.9,292.3,34.9,292.3z"/>
			</g>
		</g>
	</g>
</g>
</svg>
