<?xml version="1.0" encoding="utf-8"?>
<!-- Generator: Adobe Illustrator 18.0.0, SVG Export Plug-In . SVG Version: 6.00 Build 0)  -->
<!DOCTYPE svg PUBLIC "-//W3C//DTD SVG 1.1//EN" "http://www.w3.org/Graphics/SVG/1.1/DTD/svg11.dtd">
<svg version="1.1" id="Layer_1" xmlns="http://www.w3.org/2000/svg" xmlns:xlink="http://www.w3.org/1999/xlink" x="0px" y="0px"
	 viewBox="0 0 419.6 374.2" enable-background="new 0 0 419.6 374.2" xml:space="preserve">
<g>
	<rect x="0" y="0" fill="#3C5A99" width="419.6" height="131.9"/>
	<rect x="0.3" y="131.9" fill="#FFFFFF" stroke="#D2D2D2" stroke-width="0.5" stroke-miterlimit="10" width="419" height="242"/>
	<line fill="none" stroke="#D2D2D2" stroke-miterlimit="10" x1="0.4" y1="325.9" x2="418.8" y2="325.9"/>
	<g>
		<path d="M18.2,218.5l4.1,10.5h0.1l4.1-10.5h2.2v12.9H27v-5.1l0.2-5.3l0,0l-4.2,10.4h-1.2l-4.2-10.4l0,0l0.2,5.2v5.1h-1.8v-12.9
			H18.2z"/>
		<path d="M34.5,227.9l0.3,1.2h0.1l2.4-7.3h1.9l-4,11.1c-0.2,0.6-0.6,1.2-1,1.7c-0.5,0.5-1.1,0.7-1.8,0.7c-0.1,0-0.3,0-0.5,0
			c-0.2,0-0.4-0.1-0.5-0.1l0.2-1.4c0,0,0.1,0,0.3,0c0.2,0,0.4,0,0.5,0c0.4,0,0.7-0.2,0.9-0.5c0.2-0.3,0.4-0.7,0.6-1.1l0.4-1
			l-3.6-9.4h2L34.5,227.9z"/>
		<path d="M52.6,228.2c0-0.6-0.2-1.1-0.7-1.5c-0.4-0.4-1.2-0.7-2.4-1c-1.4-0.3-2.4-0.8-3.2-1.4s-1.2-1.4-1.2-2.4
			c0-1,0.4-1.9,1.2-2.5c0.8-0.7,1.9-1,3.2-1c1.4,0,2.5,0.4,3.4,1.2c0.8,0.8,1.2,1.7,1.2,2.7l0,0.1h-1.7c0-0.8-0.3-1.4-0.8-1.8
			c-0.5-0.5-1.2-0.7-2.2-0.7c-0.9,0-1.5,0.2-2,0.6c-0.5,0.4-0.7,0.9-0.7,1.5c0,0.6,0.3,1,0.8,1.4s1.3,0.7,2.5,1
			c1.4,0.3,2.4,0.8,3.1,1.5c0.7,0.7,1.1,1.5,1.1,2.4c0,1-0.4,1.9-1.3,2.5c-0.9,0.6-2,0.9-3.3,0.9c-1.3,0-2.4-0.4-3.4-1.1
			c-1-0.7-1.5-1.6-1.4-2.8l0-0.1h1.7c0,0.8,0.3,1.5,0.9,1.9c0.6,0.4,1.4,0.6,2.3,0.6c0.9,0,1.6-0.2,2.1-0.6
			C52.4,229.3,52.6,228.8,52.6,228.2z"/>
		<path d="M56.2,226.5c0-1.4,0.4-2.6,1.2-3.5c0.8-0.9,1.8-1.4,3.1-1.4c1.3,0,2.4,0.5,3.2,1.4c0.8,0.9,1.2,2.1,1.2,3.5v0.2
			c0,1.4-0.4,2.6-1.2,3.5c-0.8,0.9-1.8,1.4-3.1,1.4c-1.3,0-2.4-0.5-3.2-1.4c-0.8-0.9-1.2-2.1-1.2-3.5V226.5z M57.9,226.7
			c0,1,0.2,1.9,0.6,2.5c0.4,0.7,1.1,1,1.9,1c0.8,0,1.5-0.3,1.9-1c0.4-0.7,0.6-1.5,0.6-2.5v-0.2c0-1-0.2-1.8-0.7-2.5
			c-0.4-0.7-1.1-1-1.9-1c-0.8,0-1.5,0.3-1.9,1s-0.6,1.5-0.6,2.5V226.7z"/>
		<path d="M68.8,231.4h-1.8v-13.9h1.8V231.4z"/>
		<path d="M71.1,226.8c0-1.5,0.3-2.8,1-3.7c0.7-0.9,1.6-1.4,2.8-1.4c0.6,0,1.1,0.1,1.5,0.3c0.4,0.2,0.8,0.5,1.1,0.9v-5.3h1.8v13.9
			h-1.4l-0.2-1.2c-0.3,0.4-0.7,0.8-1.2,1c-0.5,0.2-1,0.3-1.6,0.3c-1.2,0-2.1-0.4-2.8-1.3c-0.7-0.8-1-2-1-3.4V226.8z M72.9,227
			c0,1,0.2,1.7,0.6,2.3c0.4,0.6,1,0.9,1.8,0.9c0.5,0,1-0.1,1.3-0.4c0.4-0.2,0.6-0.6,0.9-1v-4.5c-0.2-0.4-0.5-0.7-0.9-0.9
			c-0.4-0.2-0.8-0.4-1.3-0.4c-0.8,0-1.5,0.3-1.9,1c-0.4,0.7-0.6,1.6-0.6,2.7V227z"/>
		<path d="M83.8,219.4H82v-1.8h1.8V219.4z M83.8,231.4H82v-9.6h1.8V231.4z"/>
		<path d="M90.4,231.6c-1.3,0-2.4-0.4-3.2-1.3c-0.8-0.9-1.2-2-1.2-3.5v-0.4c0-1.4,0.4-2.5,1.2-3.4c0.8-0.9,1.8-1.4,2.9-1.4
			c1.3,0,2.3,0.4,2.9,1.2c0.7,0.8,1,1.8,1,3.1v1.1h-6.2l0,0c0,0.9,0.3,1.7,0.7,2.3c0.5,0.6,1.1,0.9,1.9,0.9c0.6,0,1.1-0.1,1.6-0.3
			c0.4-0.2,0.8-0.4,1.2-0.7l0.7,1.1c-0.3,0.3-0.8,0.6-1.4,0.8C91.9,231.5,91.2,231.6,90.4,231.6z M90.2,223c-0.6,0-1.1,0.2-1.5,0.7
			c-0.4,0.5-0.7,1.1-0.8,1.9l0,0h4.4v-0.2c0-0.7-0.2-1.3-0.6-1.7C91.5,223.3,90.9,223,90.2,223z"/>
		<path d="M100.6,223.4l-0.9-0.1c-0.5,0-0.9,0.1-1.2,0.3c-0.3,0.2-0.6,0.5-0.7,0.9v6.9h-1.8v-9.6h1.6l0.2,1.4c0.3-0.5,0.6-0.9,1-1.2
			c0.4-0.3,0.9-0.4,1.4-0.4c0.1,0,0.3,0,0.4,0c0.1,0,0.2,0,0.3,0.1L100.6,223.4z"/>
		<path d="M109.3,227.9l0.2,1.2h0.1l0.2-1.2l1.9-6.1h1.4l1.9,6.1l0.3,1.3h0.1l0.3-1.3l1.5-6.1h1.7l-2.8,9.6h-1.4l-1.9-5.9l-0.4-1.6
			l-0.1,0l-0.4,1.6l-1.8,5.9h-1.4l-2.8-9.6h1.7L109.3,227.9z"/>
		<path d="M122.5,219.4h-1.8v-1.8h1.8V219.4z M122.5,231.4h-1.8v-9.6h1.8V231.4z"/>
		<path d="M127.1,231.4h-1.8v-13.9h1.8V231.4z"/>
		<path d="M131.7,231.4h-1.8v-13.9h1.8V231.4z"/>
		<path d="M147.1,227c0,1.4-0.3,2.5-1,3.4c-0.7,0.8-1.6,1.3-2.8,1.3c-0.6,0-1.2-0.1-1.7-0.4c-0.5-0.2-0.9-0.6-1.2-1.1l-0.2,1.3h-1.4
			v-13.9h1.8v5.4c0.3-0.4,0.7-0.8,1.1-1c0.4-0.2,1-0.3,1.6-0.3c1.2,0,2.1,0.5,2.8,1.4c0.7,0.9,1,2.2,1,3.7V227z M145.4,226.8
			c0-1.1-0.2-2-0.6-2.7c-0.4-0.7-1-1-1.9-1c-0.5,0-1,0.1-1.4,0.4c-0.4,0.3-0.7,0.6-0.9,1.1v4.2c0.2,0.5,0.5,0.8,0.9,1.1
			c0.4,0.3,0.8,0.4,1.4,0.4c0.8,0,1.4-0.3,1.8-0.9s0.6-1.4,0.6-2.3V226.8z"/>
		<path d="M153.2,231.6c-1.3,0-2.4-0.4-3.2-1.3c-0.8-0.9-1.2-2-1.2-3.5v-0.4c0-1.4,0.4-2.5,1.2-3.4c0.8-0.9,1.8-1.4,2.9-1.4
			c1.3,0,2.3,0.4,2.9,1.2c0.7,0.8,1,1.8,1,3.1v1.1h-6.2l0,0c0,0.9,0.3,1.7,0.7,2.3c0.5,0.6,1.1,0.9,1.9,0.9c0.6,0,1.1-0.1,1.6-0.3
			c0.4-0.2,0.8-0.4,1.2-0.7l0.7,1.1c-0.3,0.3-0.8,0.6-1.4,0.8C154.7,231.5,154,231.6,153.2,231.6z M153,223c-0.6,0-1.1,0.2-1.5,0.7
			c-0.4,0.5-0.7,1.1-0.8,1.9l0,0h4.4v-0.2c0-0.7-0.2-1.3-0.6-1.7C154.2,223.3,153.7,223,153,223z"/>
		<path d="M165.1,223.1c0.3-0.5,0.7-0.8,1.2-1.1c0.5-0.3,1-0.4,1.6-0.4c1,0,1.8,0.3,2.4,0.9s0.9,1.6,0.9,2.8v6h-1.8v-6
			c0-0.8-0.2-1.4-0.5-1.8c-0.3-0.4-0.8-0.6-1.5-0.6c-0.5,0-0.9,0.1-1.3,0.3s-0.7,0.5-1,0.9v7.1h-1.8v-13.9h1.8V223.1z"/>
		<path d="M173.3,226.5c0-1.4,0.4-2.6,1.2-3.5c0.8-0.9,1.8-1.4,3.1-1.4c1.3,0,2.4,0.5,3.2,1.4c0.8,0.9,1.2,2.1,1.2,3.5v0.2
			c0,1.4-0.4,2.6-1.2,3.5c-0.8,0.9-1.8,1.4-3.1,1.4s-2.4-0.5-3.2-1.4c-0.8-0.9-1.2-2.1-1.2-3.5V226.5z M175.1,226.7
			c0,1,0.2,1.9,0.6,2.5c0.4,0.7,1.1,1,1.9,1c0.8,0,1.5-0.3,1.9-1c0.4-0.7,0.6-1.5,0.6-2.5v-0.2c0-1-0.2-1.8-0.7-2.5
			c-0.4-0.7-1.1-1-1.9-1c-0.8,0-1.5,0.3-1.9,1s-0.6,1.5-0.6,2.5V226.7z"/>
		<path d="M185.6,221.8l0.1,1.3c0.3-0.5,0.7-0.8,1.2-1.1s1-0.4,1.7-0.4c0.6,0,1.2,0.1,1.6,0.4c0.5,0.3,0.8,0.7,1,1.3
			c0.3-0.5,0.7-1,1.2-1.3c0.5-0.3,1.1-0.5,1.7-0.5c1,0,1.8,0.3,2.3,1c0.6,0.7,0.9,1.7,0.9,3v5.7h-1.8v-5.8c0-0.9-0.2-1.6-0.5-2
			c-0.3-0.4-0.8-0.6-1.5-0.6c-0.6,0-1.1,0.2-1.5,0.6c-0.4,0.4-0.6,0.9-0.7,1.6v0.1v6.1h-1.8v-5.8c0-0.9-0.2-1.6-0.5-2
			c-0.3-0.4-0.8-0.6-1.4-0.6c-0.5,0-1,0.1-1.3,0.3c-0.3,0.2-0.6,0.5-0.8,0.9v7.1h-1.8v-9.6H185.6z"/>
		<path d="M204,231.6c-1.3,0-2.4-0.4-3.2-1.3c-0.8-0.9-1.2-2-1.2-3.5v-0.4c0-1.4,0.4-2.5,1.2-3.4c0.8-0.9,1.8-1.4,2.9-1.4
			c1.3,0,2.3,0.4,2.9,1.2c0.7,0.8,1,1.8,1,3.1v1.1h-6.2l0,0c0,0.9,0.3,1.7,0.7,2.3c0.5,0.6,1.1,0.9,1.9,0.9c0.6,0,1.1-0.1,1.6-0.3
			c0.4-0.2,0.8-0.4,1.2-0.7l0.7,1.1c-0.3,0.3-0.8,0.6-1.4,0.8C205.5,231.5,204.8,231.6,204,231.6z M203.7,223
			c-0.6,0-1.1,0.2-1.5,0.7c-0.4,0.5-0.7,1.1-0.8,1.9l0,0h4.4v-0.2c0-0.7-0.2-1.3-0.6-1.7C205,223.3,204.4,223,203.7,223z"/>
		<path d="M216.4,219.5v2.3h1.8v1.3h-1.8v5.8c0,0.4,0.1,0.8,0.3,1s0.4,0.3,0.7,0.3c0.1,0,0.2,0,0.3,0c0.1,0,0.2-0.1,0.3-0.1l0.2,1.2
			c-0.1,0.1-0.3,0.2-0.6,0.3c-0.3,0.1-0.5,0.1-0.8,0.1c-0.7,0-1.3-0.2-1.7-0.6c-0.4-0.4-0.6-1.1-0.6-2v-5.8h-1.5v-1.3h1.5v-2.3
			H216.4z"/>
		<path d="M222.2,223.1c0.3-0.5,0.7-0.8,1.2-1.1c0.5-0.3,1-0.4,1.6-0.4c1,0,1.8,0.3,2.4,0.9s0.9,1.6,0.9,2.8v6h-1.8v-6
			c0-0.8-0.2-1.4-0.5-1.8c-0.3-0.4-0.8-0.6-1.5-0.6c-0.5,0-0.9,0.1-1.3,0.3s-0.7,0.5-1,0.9v7.1h-1.8v-13.9h1.8V223.1z"/>
		<path d="M232.7,219.4h-1.8v-1.8h1.8V219.4z M232.7,231.4h-1.8v-9.6h1.8V231.4z"/>
		<path d="M240.9,228.9c0-0.4-0.1-0.7-0.4-1c-0.3-0.2-0.8-0.5-1.7-0.6c-1.2-0.3-2-0.6-2.6-1c-0.6-0.4-0.9-1-0.9-1.8
			c0-0.8,0.3-1.4,1-2c0.7-0.6,1.5-0.8,2.6-0.8c1.1,0,2,0.3,2.7,0.9c0.7,0.6,1,1.3,0.9,2.1l0,0.1h-1.7c0-0.4-0.2-0.8-0.5-1.1
			c-0.4-0.3-0.8-0.5-1.4-0.5c-0.6,0-1.1,0.1-1.4,0.4c-0.3,0.3-0.5,0.6-0.5,1c0,0.4,0.1,0.7,0.4,0.9c0.3,0.2,0.8,0.4,1.6,0.6
			c1.2,0.3,2.1,0.6,2.7,1.1c0.6,0.4,0.9,1,0.9,1.8c0,0.9-0.3,1.5-1,2.1c-0.7,0.5-1.6,0.8-2.7,0.8c-1.2,0-2.2-0.3-2.9-0.9
			c-0.7-0.6-1-1.3-1-2.2l0-0.1h1.7c0,0.6,0.3,1.1,0.7,1.4c0.4,0.3,0.9,0.4,1.5,0.4c0.6,0,1.1-0.1,1.5-0.4
			C240.8,229.6,240.9,229.3,240.9,228.9z"/>
		<path d="M251.8,227.9l0.2,1.2h0.1l0.2-1.2l1.9-6.1h1.4l1.9,6.1l0.3,1.3h0.1l0.3-1.3l1.5-6.1h1.7l-2.8,9.6h-1.4l-1.9-5.9L255,224
			l-0.1,0l-0.4,1.6l-1.8,5.9h-1.4l-2.8-9.6h1.7L251.8,227.9z"/>
		<path d="M265.1,219.4h-1.8v-1.8h1.8V219.4z M265.1,231.4h-1.8v-9.6h1.8V231.4z"/>
		<path d="M269.3,221.8l0.1,1.4c0.3-0.5,0.7-0.9,1.2-1.2c0.5-0.3,1-0.4,1.6-0.4c1,0,1.8,0.3,2.4,0.9c0.6,0.6,0.9,1.5,0.9,2.8v6.1
			h-1.8v-6c0-0.8-0.2-1.4-0.5-1.8s-0.8-0.5-1.5-0.5c-0.5,0-0.9,0.1-1.3,0.4c-0.4,0.2-0.7,0.6-0.9,1v7h-1.8v-9.6H269.3z"/>
		<path d="M280.4,219.5v2.3h1.8v1.3h-1.8v5.8c0,0.4,0.1,0.8,0.3,1c0.2,0.2,0.4,0.3,0.7,0.3c0.1,0,0.2,0,0.3,0c0.1,0,0.2-0.1,0.3-0.1
			l0.2,1.2c-0.1,0.1-0.3,0.2-0.6,0.3c-0.3,0.1-0.5,0.1-0.8,0.1c-0.7,0-1.3-0.2-1.7-0.6c-0.4-0.4-0.6-1.1-0.6-2v-5.8h-1.5v-1.3h1.5
			v-2.3H280.4z"/>
		<path d="M288.4,231.6c-1.3,0-2.4-0.4-3.2-1.3c-0.8-0.9-1.2-2-1.2-3.5v-0.4c0-1.4,0.4-2.5,1.2-3.4c0.8-0.9,1.8-1.4,2.9-1.4
			c1.3,0,2.3,0.4,2.9,1.2c0.7,0.8,1,1.8,1,3.1v1.1h-6.2l0,0c0,0.9,0.3,1.7,0.7,2.3c0.5,0.6,1.1,0.9,1.9,0.9c0.6,0,1.1-0.1,1.6-0.3
			c0.4-0.2,0.8-0.4,1.2-0.7l0.7,1.1c-0.3,0.3-0.8,0.6-1.4,0.8C289.9,231.5,289.2,231.6,288.4,231.6z M288.1,223
			c-0.6,0-1.1,0.2-1.5,0.7c-0.4,0.5-0.7,1.1-0.8,1.9l0,0h4.4v-0.2c0-0.7-0.2-1.3-0.6-1.7C289.4,223.3,288.8,223,288.1,223z"/>
		<path d="M298.6,223.4l-0.9-0.1c-0.5,0-0.9,0.1-1.2,0.3c-0.3,0.2-0.6,0.5-0.7,0.9v6.9H294v-9.6h1.6l0.2,1.4c0.3-0.5,0.6-0.9,1-1.2
			c0.4-0.3,0.9-0.4,1.4-0.4c0.1,0,0.3,0,0.4,0c0.1,0,0.2,0,0.3,0.1L298.6,223.4z"/>
		<path d="M300.6,231.4h-1.8v-1.8h1.8V231.4z"/>
	</g>
	<g>
		<path fill="#8A909D" d="M220.7,302.1H214v-1l3.4-3.7c0.6-0.7,1-1.2,1.2-1.6c0.2-0.4,0.3-0.8,0.3-1.2c0-0.5-0.1-0.9-0.4-1.3
			c-0.3-0.3-0.7-0.5-1.2-0.5c-0.7,0-1.2,0.2-1.6,0.5c-0.3,0.4-0.5,0.9-0.5,1.5h-1.3l0,0c0-0.9,0.3-1.6,0.9-2.2
			c0.6-0.6,1.5-0.9,2.5-0.9c0.9,0,1.7,0.3,2.2,0.8c0.5,0.5,0.8,1.2,0.8,2.1c0,0.6-0.2,1.1-0.5,1.7c-0.3,0.6-0.8,1.2-1.4,1.8
			l-2.7,2.9l0,0h4.9V302.1z"/>
		<path fill="#8A909D" d="M227.7,298.7h1.4v1.1h-1.4v2.4h-1.4v-2.4h-4.6V299l4.5-7.1h1.5V298.7z M223.2,298.7h3.1v-4.8l0,0l-0.1,0.4
			L223.2,298.7z"/>
		<path fill="#8A909D" d="M236.9,302.1h-6.6v-1l3.4-3.7c0.6-0.7,1-1.2,1.2-1.6c0.2-0.4,0.3-0.8,0.3-1.2c0-0.5-0.1-0.9-0.4-1.3
			c-0.3-0.3-0.7-0.5-1.2-0.5c-0.7,0-1.2,0.2-1.6,0.5c-0.3,0.4-0.5,0.9-0.5,1.5h-1.3l0,0c0-0.9,0.3-1.6,0.9-2.2
			c0.6-0.6,1.5-0.9,2.5-0.9c0.9,0,1.7,0.3,2.2,0.8c0.5,0.5,0.8,1.2,0.8,2.1c0,0.6-0.2,1.1-0.5,1.7c-0.3,0.6-0.8,1.2-1.4,1.8
			l-2.7,2.9l0,0h4.9V302.1z"/>
		<path fill="#8A909D" d="M249.6,298.8L249.6,298.8c0,1-0.3,1.8-1,2.5c-0.7,0.6-1.6,1-2.7,1c-1.2,0-2.1-0.4-2.8-1.2
			c-0.7-0.8-1.1-1.9-1.1-3.1v-1.8c0-1.3,0.4-2.3,1.1-3.1c0.7-0.8,1.7-1.2,2.8-1.2c1.2,0,2.1,0.3,2.8,0.9c0.7,0.6,1,1.4,1,2.5l0,0
			h-1.3c0-0.7-0.2-1.3-0.6-1.7c-0.4-0.4-1-0.6-1.8-0.6c-0.8,0-1.4,0.3-1.8,0.9c-0.5,0.6-0.7,1.4-0.7,2.3v1.8c0,0.9,0.2,1.7,0.7,2.3
			c0.5,0.6,1.1,0.9,1.8,0.9c0.8,0,1.4-0.2,1.8-0.6c0.4-0.4,0.6-1,0.6-1.7H249.6z"/>
		<path fill="#8A909D" d="M250.9,298.2c0-1.1,0.3-2.1,0.9-2.8c0.6-0.7,1.4-1.1,2.5-1.1c1.1,0,1.9,0.4,2.5,1.1
			c0.6,0.7,0.9,1.7,0.9,2.8v0.2c0,1.1-0.3,2.1-0.9,2.8c-0.6,0.7-1.4,1.1-2.5,1.1s-1.9-0.4-2.5-1.1c-0.6-0.7-0.9-1.7-0.9-2.8V298.2z
			 M252.3,298.4c0,0.8,0.2,1.5,0.5,2c0.3,0.5,0.8,0.8,1.5,0.8c0.7,0,1.2-0.3,1.5-0.8c0.3-0.5,0.5-1.2,0.5-2v-0.2
			c0-0.8-0.2-1.5-0.5-2c-0.3-0.5-0.8-0.8-1.5-0.8c-0.7,0-1.2,0.3-1.5,0.8c-0.3,0.5-0.5,1.2-0.5,2V298.4z"/>
		<path fill="#8A909D" d="M260.6,294.5l0.1,1c0.2-0.4,0.6-0.6,0.9-0.8c0.4-0.2,0.8-0.3,1.3-0.3s0.9,0.1,1.3,0.4
			c0.4,0.2,0.6,0.6,0.8,1.1c0.2-0.4,0.6-0.8,0.9-1s0.9-0.4,1.4-0.4c0.8,0,1.4,0.3,1.8,0.8c0.5,0.5,0.7,1.3,0.7,2.4v4.5h-1.4v-4.6
			c0-0.8-0.1-1.3-0.4-1.6c-0.3-0.3-0.6-0.5-1.2-0.5c-0.5,0-0.9,0.2-1.1,0.5c-0.3,0.3-0.5,0.7-0.5,1.2v0.1v4.8H264v-4.6
			c0-0.7-0.1-1.2-0.4-1.6c-0.3-0.3-0.6-0.5-1.1-0.5c-0.4,0-0.8,0.1-1,0.3c-0.3,0.2-0.5,0.4-0.6,0.7v5.6h-1.4v-7.6H260.6z"/>
		<path fill="#8A909D" d="M273.2,294.5l0.1,1c0.2-0.4,0.6-0.6,0.9-0.8c0.4-0.2,0.8-0.3,1.3-0.3s0.9,0.1,1.3,0.4
			c0.4,0.2,0.6,0.6,0.8,1.1c0.2-0.4,0.6-0.8,0.9-1s0.9-0.4,1.4-0.4c0.8,0,1.4,0.3,1.8,0.8c0.5,0.5,0.7,1.3,0.7,2.4v4.5h-1.4v-4.6
			c0-0.8-0.1-1.3-0.4-1.6c-0.3-0.3-0.6-0.5-1.2-0.5c-0.5,0-0.9,0.2-1.1,0.5c-0.3,0.3-0.5,0.7-0.5,1.2v0.1v4.8h-1.4v-4.6
			c0-0.7-0.1-1.2-0.4-1.6c-0.3-0.3-0.6-0.5-1.1-0.5c-0.4,0-0.8,0.1-1,0.3c-0.3,0.2-0.5,0.4-0.6,0.7v5.6H272v-7.6H273.2z"/>
		<path fill="#8A909D" d="M287.7,302.3c-1.1,0-1.9-0.4-2.5-1.1c-0.6-0.7-0.9-1.6-0.9-2.7v-0.3c0-1.1,0.3-2,1-2.7
			c0.6-0.7,1.4-1.1,2.3-1.1c1,0,1.8,0.3,2.3,0.9c0.5,0.6,0.8,1.4,0.8,2.5v0.9h-4.9l0,0c0,0.7,0.2,1.3,0.6,1.8
			c0.4,0.5,0.9,0.7,1.5,0.7c0.5,0,0.9-0.1,1.2-0.2c0.4-0.1,0.7-0.3,0.9-0.6l0.5,0.9c-0.3,0.3-0.6,0.5-1.1,0.7
			C288.9,302.2,288.4,302.3,287.7,302.3z M287.5,295.4c-0.5,0-0.9,0.2-1.2,0.6c-0.3,0.4-0.5,0.9-0.6,1.5l0,0h3.5v-0.2
			c0-0.5-0.1-1-0.4-1.4C288.5,295.6,288.1,295.4,287.5,295.4z"/>
		<path fill="#8A909D" d="M293.4,294.5l0.1,1.1c0.3-0.4,0.6-0.7,1-0.9c0.4-0.2,0.8-0.3,1.3-0.3c0.8,0,1.5,0.2,1.9,0.7
			c0.5,0.5,0.7,1.2,0.7,2.2v4.8H297v-4.8c0-0.7-0.1-1.1-0.4-1.4c-0.3-0.3-0.7-0.4-1.2-0.4c-0.4,0-0.8,0.1-1.1,0.3
			c-0.3,0.2-0.6,0.5-0.7,0.8v5.5h-1.4v-7.6H293.4z"/>
		<path fill="#8A909D" d="M302.2,292.7v1.8h1.4v1h-1.4v4.6c0,0.4,0.1,0.6,0.2,0.8c0.1,0.1,0.3,0.2,0.6,0.2c0.1,0,0.2,0,0.3,0
			c0.1,0,0.2,0,0.3-0.1l0.2,0.9c-0.1,0.1-0.3,0.2-0.5,0.2c-0.2,0.1-0.4,0.1-0.6,0.1c-0.6,0-1-0.2-1.3-0.5c-0.3-0.3-0.5-0.9-0.5-1.6
			v-4.6h-1.2v-1h1.2v-1.8H302.2z"/>
		<path fill="#8A909D" d="M309.8,300.1c0-0.3-0.1-0.6-0.3-0.8c-0.2-0.2-0.7-0.4-1.3-0.5c-0.9-0.2-1.6-0.5-2.1-0.8
			c-0.5-0.3-0.7-0.8-0.7-1.4c0-0.6,0.3-1.1,0.8-1.6c0.5-0.4,1.2-0.7,2.1-0.7c0.9,0,1.6,0.2,2.1,0.7c0.5,0.5,0.8,1,0.7,1.7l0,0h-1.3
			c0-0.3-0.1-0.6-0.4-0.9c-0.3-0.3-0.6-0.4-1.1-0.4c-0.5,0-0.9,0.1-1.1,0.3c-0.2,0.2-0.4,0.5-0.4,0.8c0,0.3,0.1,0.5,0.3,0.7
			c0.2,0.2,0.6,0.3,1.3,0.5c1,0.2,1.7,0.5,2.1,0.8c0.5,0.4,0.7,0.8,0.7,1.4c0,0.7-0.3,1.2-0.8,1.6c-0.5,0.4-1.3,0.6-2.1,0.6
			c-1,0-1.7-0.2-2.3-0.7c-0.6-0.5-0.8-1.1-0.8-1.7l0,0h1.3c0,0.5,0.2,0.8,0.5,1.1c0.3,0.2,0.7,0.3,1.2,0.3c0.5,0,0.9-0.1,1.2-0.3
			C309.6,300.7,309.8,300.4,309.8,300.1z"/>
	</g>
	<g>
		<path fill="#D2D2D2" d="M85.9,184.1c0-0.5-0.2-0.9-0.6-1.3c-0.4-0.3-1.1-0.6-2-0.9c-1.2-0.3-2.1-0.7-2.8-1.2c-0.7-0.5-1-1.2-1-2.1
			c0-0.9,0.4-1.6,1.1-2.2c0.7-0.6,1.6-0.9,2.8-0.9c1.2,0,2.2,0.3,2.9,1c0.7,0.7,1.1,1.4,1,2.3l0,0h-1.4c0-0.7-0.2-1.2-0.6-1.6
			c-0.4-0.4-1.1-0.6-1.9-0.6c-0.8,0-1.3,0.2-1.7,0.5c-0.4,0.3-0.6,0.8-0.6,1.3c0,0.5,0.2,0.9,0.7,1.2c0.4,0.3,1.1,0.6,2.1,0.9
			c1.2,0.3,2.1,0.7,2.7,1.3c0.6,0.6,0.9,1.3,0.9,2.1c0,0.9-0.4,1.6-1.1,2.2c-0.7,0.5-1.7,0.8-2.9,0.8c-1.1,0-2.1-0.3-3-0.9
			c-0.9-0.6-1.3-1.4-1.2-2.4l0,0h1.4c0,0.7,0.3,1.3,0.8,1.6c0.5,0.4,1.2,0.6,2,0.6c0.8,0,1.4-0.2,1.8-0.5
			C85.7,185.1,85.9,184.7,85.9,184.1z"/>
		<path fill="#D2D2D2" d="M96.4,183.1c0,1.2-0.3,2.2-0.9,2.9c-0.6,0.7-1.4,1.1-2.4,1.1c-0.5,0-1-0.1-1.3-0.3c-0.4-0.2-0.7-0.4-1-0.8
			v4.1h-1.5v-11.5h1.2l0.2,1.1c0.3-0.4,0.6-0.7,1-0.9c0.4-0.2,0.9-0.3,1.4-0.3c1,0,1.8,0.4,2.4,1.2c0.6,0.8,0.9,1.9,0.9,3.2V183.1z
			 M94.9,182.9c0-0.9-0.2-1.7-0.6-2.3c-0.4-0.6-0.9-0.9-1.6-0.9c-0.4,0-0.8,0.1-1.1,0.3c-0.3,0.2-0.6,0.5-0.7,0.8v4
			c0.2,0.3,0.4,0.6,0.7,0.8c0.3,0.2,0.7,0.3,1.1,0.3c0.7,0,1.3-0.3,1.6-0.8c0.4-0.5,0.6-1.2,0.6-2V182.9z"/>
		<path fill="#D2D2D2" d="M97.9,182.7c0-1.2,0.3-2.2,1-3c0.7-0.8,1.6-1.2,2.7-1.2c1.2,0,2.1,0.4,2.7,1.2c0.7,0.8,1,1.8,1,3v0.2
			c0,1.2-0.3,2.2-1,3c-0.7,0.8-1.6,1.2-2.7,1.2s-2.1-0.4-2.7-1.2c-0.7-0.8-1-1.8-1-3V182.7z M99.5,182.9c0,0.9,0.2,1.6,0.6,2.2
			c0.4,0.6,0.9,0.9,1.7,0.9c0.7,0,1.3-0.3,1.6-0.9c0.4-0.6,0.6-1.3,0.6-2.2v-0.2c0-0.9-0.2-1.6-0.6-2.2c-0.4-0.6-0.9-0.9-1.7-0.9
			c-0.7,0-1.3,0.3-1.6,0.9c-0.4,0.6-0.6,1.3-0.6,2.2V182.9z"/>
		<path fill="#D2D2D2" d="M108.6,178.7l0.1,1.2c0.3-0.4,0.6-0.8,1-1c0.4-0.2,0.9-0.4,1.4-0.4c0.9,0,1.6,0.3,2.1,0.8
			c0.5,0.5,0.7,1.3,0.7,2.4v5.2h-1.5v-5.2c0-0.7-0.1-1.3-0.4-1.6s-0.7-0.5-1.3-0.5c-0.4,0-0.8,0.1-1.2,0.3s-0.6,0.5-0.8,0.9v6.1
			h-1.5v-8.3H108.6z"/>
		<path fill="#D2D2D2" d="M121,184.7c0-0.3-0.1-0.6-0.4-0.8c-0.3-0.2-0.7-0.4-1.4-0.6c-1-0.2-1.8-0.5-2.3-0.9
			c-0.5-0.4-0.8-0.9-0.8-1.5c0-0.7,0.3-1.2,0.9-1.7c0.6-0.5,1.3-0.7,2.2-0.7c1,0,1.7,0.2,2.3,0.7c0.6,0.5,0.8,1.1,0.8,1.8l0,0h-1.4
			c0-0.4-0.2-0.7-0.5-1c-0.3-0.3-0.7-0.4-1.2-0.4c-0.5,0-0.9,0.1-1.2,0.4c-0.3,0.2-0.4,0.5-0.4,0.9c0,0.3,0.1,0.6,0.3,0.8
			s0.7,0.4,1.4,0.5c1,0.2,1.8,0.5,2.3,0.9c0.5,0.4,0.8,0.9,0.8,1.6c0,0.7-0.3,1.3-0.9,1.8c-0.6,0.5-1.4,0.7-2.3,0.7
			c-1.1,0-1.9-0.3-2.5-0.8c-0.6-0.5-0.9-1.2-0.9-1.9l0,0h1.4c0,0.5,0.2,0.9,0.6,1.2c0.4,0.2,0.8,0.4,1.3,0.4c0.5,0,1-0.1,1.3-0.3
			C120.8,185.4,121,185.1,121,184.7z"/>
		<path fill="#D2D2D2" d="M124,182.7c0-1.2,0.3-2.2,1-3c0.7-0.8,1.6-1.2,2.7-1.2c1.2,0,2.1,0.4,2.7,1.2c0.7,0.8,1,1.8,1,3v0.2
			c0,1.2-0.3,2.2-1,3c-0.7,0.8-1.6,1.2-2.7,1.2c-1.1,0-2.1-0.4-2.7-1.2c-0.7-0.8-1-1.8-1-3V182.7z M125.5,182.9
			c0,0.9,0.2,1.6,0.6,2.2c0.4,0.6,0.9,0.9,1.7,0.9c0.7,0,1.3-0.3,1.6-0.9c0.4-0.6,0.6-1.3,0.6-2.2v-0.2c0-0.9-0.2-1.6-0.6-2.2
			s-0.9-0.9-1.7-0.9c-0.7,0-1.3,0.3-1.6,0.9s-0.6,1.3-0.6,2.2V182.9z"/>
		<path fill="#D2D2D2" d="M137.2,180l-0.8,0c-0.4,0-0.7,0.1-1,0.3s-0.5,0.5-0.6,0.8v5.9h-1.5v-8.3h1.4l0.1,1.2
			c0.2-0.4,0.5-0.8,0.9-1c0.3-0.2,0.7-0.4,1.2-0.4c0.1,0,0.2,0,0.3,0c0.1,0,0.2,0,0.3,0.1L137.2,180z"/>
		<path fill="#D2D2D2" d="M142,187.1c-1.2,0-2.1-0.4-2.8-1.2c-0.7-0.8-1-1.8-1-3v-0.3c0-1.2,0.4-2.2,1.1-2.9
			c0.7-0.8,1.5-1.2,2.5-1.2c1.1,0,2,0.3,2.5,1c0.6,0.7,0.9,1.6,0.9,2.7v0.9h-5.4l0,0c0,0.8,0.2,1.4,0.6,2c0.4,0.5,0.9,0.8,1.6,0.8
			c0.5,0,1-0.1,1.3-0.2s0.7-0.3,1-0.6l0.6,1c-0.3,0.3-0.7,0.5-1.2,0.7C143.3,187,142.7,187.1,142,187.1z M141.8,179.7
			c-0.5,0-0.9,0.2-1.3,0.6c-0.4,0.4-0.6,1-0.7,1.6l0,0h3.8v-0.2c0-0.6-0.2-1.1-0.5-1.5C142.9,179.9,142.4,179.7,141.8,179.7z"/>
		<path fill="#D2D2D2" d="M146.5,183c0-1.3,0.3-2.4,0.9-3.2s1.4-1.2,2.4-1.2c0.5,0,0.9,0.1,1.3,0.3c0.4,0.2,0.7,0.4,1,0.8V175h1.5
			v12h-1.2l-0.2-1c-0.3,0.4-0.6,0.7-1,0.9c-0.4,0.2-0.9,0.3-1.4,0.3c-1,0-1.8-0.4-2.4-1.1c-0.6-0.7-0.9-1.7-0.9-2.9V183z M148,183.1
			c0,0.8,0.2,1.5,0.5,2c0.3,0.5,0.9,0.8,1.6,0.8c0.5,0,0.8-0.1,1.1-0.3s0.6-0.5,0.8-0.9v-3.9c-0.2-0.3-0.4-0.6-0.8-0.8
			c-0.3-0.2-0.7-0.3-1.1-0.3c-0.7,0-1.3,0.3-1.6,0.9S148,182,148,183V183.1z"/>
	</g>
	<g>
		<path fill="#8A909D" d="M50.9,302.1h-6.6v-1l3.4-3.7c0.6-0.7,1-1.2,1.2-1.6c0.2-0.4,0.3-0.8,0.3-1.2c0-0.5-0.1-0.9-0.4-1.3
			c-0.3-0.3-0.7-0.5-1.2-0.5c-0.7,0-1.2,0.2-1.6,0.5c-0.3,0.4-0.5,0.9-0.5,1.5h-1.3l0,0c0-0.9,0.3-1.6,0.9-2.2
			c0.6-0.6,1.5-0.9,2.5-0.9c0.9,0,1.7,0.3,2.2,0.8c0.5,0.5,0.8,1.2,0.8,2.1c0,0.6-0.2,1.1-0.5,1.7c-0.3,0.6-0.8,1.2-1.4,1.8L46,301
			l0,0h4.9V302.1z"/>
		<path fill="#8A909D" d="M57.9,298.7h1.4v1.1h-1.4v2.4h-1.4v-2.4h-4.6V299l4.5-7.1h1.5V298.7z M53.4,298.7h3.1v-4.8l0,0l-0.1,0.4
			L53.4,298.7z"/>
		<path fill="#8A909D" d="M67.1,302.1h-6.6v-1l3.4-3.7c0.6-0.7,1-1.2,1.2-1.6c0.2-0.4,0.3-0.8,0.3-1.2c0-0.5-0.1-0.9-0.4-1.3
			c-0.3-0.3-0.7-0.5-1.2-0.5c-0.7,0-1.2,0.2-1.6,0.5c-0.3,0.4-0.5,0.9-0.5,1.5h-1.3l0,0c0-0.9,0.3-1.6,0.9-2.2
			c0.6-0.6,1.5-0.9,2.5-0.9c0.9,0,1.7,0.3,2.2,0.8c0.5,0.5,0.8,1.2,0.8,2.1c0,0.6-0.2,1.1-0.5,1.7c-0.3,0.6-0.8,1.2-1.4,1.8
			l-2.7,2.9l0,0h4.9V302.1z"/>
	</g>
	<g>
		<path fill="#8A909D" d="M336.6,302.1H330v-1l3.4-3.7c0.6-0.7,1-1.2,1.2-1.6c0.2-0.4,0.3-0.8,0.3-1.2c0-0.5-0.1-0.9-0.4-1.3
			c-0.3-0.3-0.7-0.5-1.2-0.5c-0.7,0-1.2,0.2-1.6,0.5c-0.3,0.4-0.5,0.9-0.5,1.5h-1.3l0,0c0-0.9,0.3-1.6,0.9-2.2
			c0.6-0.6,1.5-0.9,2.5-0.9c0.9,0,1.7,0.3,2.2,0.8c0.5,0.5,0.8,1.2,0.8,2.1c0,0.6-0.2,1.1-0.5,1.7c-0.3,0.6-0.8,1.2-1.4,1.8
			l-2.7,2.9l0,0h4.9V302.1z"/>
		<path fill="#8A909D" d="M343.6,298.7h1.4v1.1h-1.4v2.4h-1.4v-2.4h-4.6V299l4.5-7.1h1.5V298.7z M339.1,298.7h3.1v-4.8l0,0l-0.1,0.4
			L339.1,298.7z"/>
		<path fill="#8A909D" d="M352.8,302.1h-6.6v-1l3.4-3.7c0.6-0.7,1-1.2,1.2-1.6c0.2-0.4,0.3-0.8,0.3-1.2c0-0.5-0.1-0.9-0.4-1.3
			c-0.3-0.3-0.7-0.5-1.2-0.5c-0.7,0-1.2,0.2-1.6,0.5c-0.3,0.4-0.5,0.9-0.5,1.5H346l0,0c0-0.9,0.3-1.6,0.9-2.2
			c0.6-0.6,1.5-0.9,2.5-0.9c0.9,0,1.7,0.3,2.2,0.8c0.5,0.5,0.8,1.2,0.8,2.1c0,0.6-0.2,1.1-0.5,1.7c-0.3,0.6-0.8,1.2-1.4,1.8
			l-2.7,2.9l0,0h4.9V302.1z"/>
		<path fill="#8A909D" d="M363.9,299.5c0-0.5-0.2-0.9-0.5-1.2c-0.4-0.3-1-0.6-1.9-0.8c-1.1-0.3-1.9-0.6-2.5-1.1
			c-0.6-0.5-0.9-1.1-0.9-1.9c0-0.8,0.3-1.5,1-2c0.7-0.5,1.5-0.8,2.5-0.8c1.1,0,2,0.3,2.7,0.9c0.7,0.6,1,1.3,1,2.1l0,0h-1.3
			c0-0.6-0.2-1.1-0.6-1.5c-0.4-0.4-1-0.6-1.7-0.6c-0.7,0-1.2,0.2-1.6,0.5s-0.6,0.7-0.6,1.2c0,0.4,0.2,0.8,0.6,1.1
			c0.4,0.3,1,0.6,1.9,0.8c1.1,0.3,1.9,0.7,2.5,1.2c0.6,0.5,0.8,1.2,0.8,1.9c0,0.8-0.3,1.5-1,2c-0.7,0.5-1.6,0.8-2.6,0.8
			c-1,0-1.9-0.3-2.7-0.8c-0.8-0.6-1.2-1.3-1.1-2.2l0,0h1.3c0,0.7,0.2,1.2,0.7,1.5c0.5,0.3,1.1,0.5,1.8,0.5c0.7,0,1.3-0.1,1.7-0.4
			C363.7,300.4,363.9,300,363.9,299.5z"/>
		<path fill="#8A909D" d="M368.4,295.5c0.3-0.4,0.6-0.7,1-0.9c0.4-0.2,0.8-0.3,1.3-0.3c0.8,0,1.4,0.2,1.9,0.7
			c0.5,0.5,0.7,1.2,0.7,2.2v4.8h-1.4v-4.8c0-0.6-0.1-1.1-0.4-1.4c-0.3-0.3-0.7-0.4-1.2-0.4c-0.4,0-0.7,0.1-1,0.3
			c-0.3,0.2-0.6,0.4-0.8,0.7v5.6H367v-11h1.4V295.5z"/>
		<path fill="#8A909D" d="M379.9,302.1c0-0.2-0.1-0.4-0.1-0.6c0-0.2,0-0.4,0-0.5c-0.3,0.4-0.6,0.7-1,0.9c-0.4,0.2-0.9,0.4-1.3,0.4
			c-0.8,0-1.4-0.2-1.8-0.6c-0.4-0.4-0.6-1-0.6-1.7c0-0.7,0.3-1.3,0.9-1.7c0.6-0.4,1.4-0.6,2.4-0.6h1.5v-0.8c0-0.4-0.1-0.8-0.4-1.1
			c-0.3-0.3-0.7-0.4-1.2-0.4c-0.4,0-0.8,0.1-1.1,0.3c-0.3,0.2-0.4,0.5-0.4,0.8h-1.3l0,0c0-0.6,0.2-1.1,0.8-1.5
			c0.6-0.5,1.3-0.7,2.1-0.7c0.9,0,1.6,0.2,2.1,0.7c0.5,0.4,0.8,1.1,0.8,1.9v3.7c0,0.3,0,0.5,0,0.8c0,0.3,0.1,0.5,0.2,0.7H379.9z
			 M377.6,301.1c0.5,0,1-0.1,1.4-0.4s0.7-0.6,0.8-0.9v-1.2h-1.6c-0.6,0-1,0.1-1.3,0.4c-0.3,0.3-0.5,0.6-0.5,1c0,0.3,0.1,0.6,0.3,0.8
			C376.9,301,377.2,301.1,377.6,301.1z"/>
		<path fill="#8A909D" d="M386.7,295.7l-0.7,0c-0.4,0-0.7,0.1-0.9,0.3c-0.3,0.2-0.4,0.4-0.6,0.7v5.4h-1.4v-7.6h1.2l0.1,1.1
			c0.2-0.4,0.5-0.7,0.8-0.9c0.3-0.2,0.7-0.3,1.1-0.3c0.1,0,0.2,0,0.3,0c0.1,0,0.2,0,0.2,0.1L386.7,295.7z"/>
		<path fill="#8A909D" d="M391.1,302.3c-1.1,0-1.9-0.4-2.5-1.1c-0.6-0.7-0.9-1.6-0.9-2.7v-0.3c0-1.1,0.3-2,1-2.7
			c0.6-0.7,1.4-1.1,2.3-1.1c1,0,1.8,0.3,2.3,0.9c0.5,0.6,0.8,1.4,0.8,2.5v0.9h-4.9l0,0c0,0.7,0.2,1.3,0.6,1.8
			c0.4,0.5,0.9,0.7,1.5,0.7c0.5,0,0.9-0.1,1.2-0.2c0.4-0.1,0.7-0.3,0.9-0.6l0.5,0.9c-0.3,0.3-0.6,0.5-1.1,0.7
			C392.3,302.2,391.7,302.3,391.1,302.3z M390.9,295.4c-0.5,0-0.9,0.2-1.2,0.6c-0.3,0.4-0.5,0.9-0.6,1.5l0,0h3.5v-0.2
			c0-0.5-0.1-1-0.4-1.4C391.9,295.6,391.4,295.4,390.9,295.4z"/>
		<path fill="#8A909D" d="M400,300.1c0-0.3-0.1-0.6-0.3-0.8c-0.2-0.2-0.7-0.4-1.3-0.5c-0.9-0.2-1.6-0.5-2.1-0.8
			c-0.5-0.3-0.7-0.8-0.7-1.4c0-0.6,0.3-1.1,0.8-1.6c0.5-0.4,1.2-0.7,2.1-0.7c0.9,0,1.6,0.2,2.1,0.7c0.5,0.5,0.8,1,0.7,1.7l0,0h-1.3
			c0-0.3-0.1-0.6-0.4-0.9c-0.3-0.3-0.6-0.4-1.1-0.4c-0.5,0-0.9,0.1-1.1,0.3c-0.2,0.2-0.4,0.5-0.4,0.8c0,0.3,0.1,0.5,0.3,0.7
			c0.2,0.2,0.6,0.3,1.3,0.5c1,0.2,1.7,0.5,2.1,0.8c0.5,0.4,0.7,0.8,0.7,1.4c0,0.7-0.3,1.2-0.8,1.6c-0.5,0.4-1.3,0.6-2.1,0.6
			c-1,0-1.7-0.2-2.3-0.7c-0.6-0.5-0.8-1.1-0.8-1.7l0,0h1.3c0,0.5,0.2,0.8,0.5,1.1c0.3,0.2,0.7,0.3,1.2,0.3c0.5,0,0.9-0.1,1.2-0.3
			C399.8,300.7,400,300.4,400,300.1z"/>
	</g>
	<g>
		<path d="M86.7,159.2c0-0.5-0.2-0.9-0.5-1.2c-0.4-0.3-1-0.6-1.9-0.9c-1.5-0.4-2.7-1-3.5-1.6c-0.8-0.6-1.2-1.4-1.2-2.5
			c0-1.1,0.5-1.9,1.4-2.6c0.9-0.7,2.1-1,3.5-1c1.4,0,2.6,0.4,3.5,1.1c0.9,0.8,1.3,1.7,1.3,2.8l0,0.1h-2.5c0-0.6-0.2-1.1-0.6-1.5
			c-0.4-0.4-1-0.6-1.7-0.6c-0.7,0-1.2,0.2-1.6,0.5c-0.4,0.3-0.6,0.7-0.6,1.2c0,0.4,0.2,0.8,0.6,1.1c0.4,0.3,1.1,0.6,2.1,0.9
			c1.4,0.4,2.5,0.9,3.2,1.6c0.7,0.7,1.1,1.5,1.1,2.6c0,1.1-0.4,2-1.3,2.6c-0.9,0.6-2,1-3.5,1c-1.4,0-2.6-0.4-3.7-1.1
			c-1-0.7-1.6-1.7-1.5-3.1l0-0.1h2.5c0,0.8,0.2,1.3,0.7,1.7c0.5,0.4,1.1,0.5,2,0.5c0.7,0,1.2-0.1,1.6-0.4
			C86.5,160.1,86.7,159.7,86.7,159.2z"/>
		<path d="M97.4,162.6c-0.1-0.2-0.2-0.4-0.2-0.7c-0.1-0.2-0.1-0.5-0.1-0.7c-0.3,0.5-0.6,0.9-1.1,1.2c-0.4,0.3-1,0.5-1.6,0.5
			c-1,0-1.8-0.3-2.3-0.8c-0.5-0.5-0.8-1.2-0.8-2.1c0-0.9,0.4-1.7,1.1-2.2c0.7-0.5,1.8-0.8,3.2-0.8h1.4v-0.8c0-0.5-0.1-0.8-0.4-1.1
			c-0.2-0.3-0.6-0.4-1.1-0.4c-0.4,0-0.7,0.1-1,0.3c-0.2,0.2-0.3,0.5-0.3,0.8l-2.5,0l0-0.1c0-0.8,0.3-1.5,1.1-2.1
			c0.7-0.6,1.7-0.9,2.9-0.9c1.1,0,2.1,0.3,2.8,0.9c0.7,0.6,1.1,1.4,1.1,2.5v4c0,0.4,0,0.9,0.1,1.3c0.1,0.4,0.2,0.8,0.3,1.2H97.4z
			 M95,160.8c0.5,0,0.9-0.1,1.2-0.3s0.6-0.5,0.7-0.8v-1.4h-1.4c-0.6,0-1,0.1-1.3,0.4c-0.3,0.3-0.4,0.6-0.4,1c0,0.3,0.1,0.6,0.3,0.8
			C94.3,160.7,94.6,160.8,95,160.8z"/>
		<path d="M102.9,162.6v-7.8h-1.4V153h1.4v-1.1c0-1.1,0.3-1.9,0.9-2.5c0.6-0.6,1.5-0.9,2.6-0.9c0.2,0,0.4,0,0.7,0
			c0.2,0,0.5,0.1,0.8,0.1l-0.2,1.9c-0.1,0-0.3,0-0.4-0.1c-0.1,0-0.3,0-0.5,0c-0.4,0-0.7,0.1-1,0.3c-0.2,0.2-0.3,0.6-0.3,1v1.1h1.9
			v1.8h-1.9v7.8H102.9z"/>
		<path d="M113.7,162.8c-1.4,0-2.5-0.4-3.3-1.3c-0.8-0.9-1.2-2-1.2-3.4v-0.4c0-1.4,0.4-2.6,1.2-3.5c0.8-0.9,1.8-1.4,3.2-1.4
			c1.3,0,2.3,0.4,3,1.2c0.7,0.8,1.1,1.8,1.1,3.2v1.4h-5.7l0,0.1c0,0.6,0.3,1.2,0.6,1.6c0.4,0.4,0.9,0.6,1.5,0.6
			c0.6,0,1.1-0.1,1.4-0.2c0.4-0.1,0.8-0.3,1.2-0.5l0.7,1.6c-0.4,0.3-0.9,0.6-1.5,0.8C115.2,162.7,114.5,162.8,113.7,162.8z
			 M113.4,154.8c-0.5,0-0.9,0.2-1.1,0.6c-0.3,0.4-0.5,0.8-0.5,1.4l0,0h3.2v-0.2c0-0.6-0.1-1-0.4-1.3
			C114.4,155,114,154.8,113.4,154.8z"/>
		<path d="M124.8,155.2l-1,0c-0.4,0-0.7,0.1-0.9,0.2c-0.2,0.2-0.4,0.4-0.6,0.7v6.5h-2.6V153h2.4l0.1,1.4c0.2-0.5,0.5-0.9,0.9-1.2
			c0.4-0.3,0.8-0.4,1.2-0.4c0.1,0,0.3,0,0.4,0c0.1,0,0.2,0,0.3,0.1L124.8,155.2z"/>
		<path d="M134.9,157.9v4.7h-2.6v-12.9h5.2c1.5,0,2.7,0.4,3.5,1.1c0.9,0.8,1.3,1.8,1.3,3c0,1.2-0.4,2.2-1.3,3
			c-0.9,0.8-2,1.1-3.5,1.1H134.9z M134.9,155.9h2.6c0.7,0,1.3-0.2,1.6-0.6c0.4-0.4,0.6-0.9,0.6-1.5c0-0.6-0.2-1.1-0.6-1.5
			c-0.4-0.4-0.9-0.6-1.6-0.6h-2.6V155.9z"/>
		<path d="M144.1,157.7c0-1.4,0.4-2.6,1.2-3.5c0.8-0.9,1.9-1.4,3.3-1.4c1.4,0,2.5,0.5,3.3,1.4c0.8,0.9,1.2,2.1,1.2,3.5v0.2
			c0,1.4-0.4,2.6-1.2,3.5c-0.8,0.9-1.9,1.4-3.3,1.4c-1.4,0-2.5-0.5-3.3-1.4c-0.8-0.9-1.2-2.1-1.2-3.5V157.7z M146.7,157.9
			c0,0.9,0.2,1.6,0.5,2.1c0.3,0.5,0.8,0.8,1.5,0.8c0.7,0,1.2-0.3,1.5-0.8c0.3-0.5,0.5-1.2,0.5-2.1v-0.2c0-0.9-0.2-1.5-0.5-2.1
			c-0.3-0.5-0.8-0.8-1.5-0.8c-0.7,0-1.2,0.3-1.5,0.8c-0.3,0.5-0.5,1.2-0.5,2.1V157.9z"/>
		<path d="M160.7,159.9c0-0.3-0.1-0.5-0.4-0.7c-0.3-0.2-0.8-0.4-1.5-0.6c-1.1-0.2-2-0.6-2.6-1c-0.6-0.5-0.9-1.1-0.9-1.9
			c0-0.8,0.3-1.5,1-2.1c0.7-0.6,1.6-0.9,2.8-0.9c1.2,0,2.2,0.3,2.9,0.9c0.7,0.6,1.1,1.3,1,2.2l0,0.1h-2.5c0-0.4-0.1-0.7-0.4-0.9
			s-0.6-0.4-1.1-0.4c-0.4,0-0.8,0.1-1,0.3c-0.2,0.2-0.4,0.5-0.4,0.8c0,0.3,0.1,0.5,0.4,0.7c0.3,0.2,0.8,0.4,1.5,0.5
			c1.2,0.2,2.1,0.6,2.6,1c0.6,0.5,0.9,1.1,0.9,1.9c0,0.9-0.4,1.6-1.1,2.1c-0.7,0.5-1.7,0.8-2.9,0.8c-1.3,0-2.3-0.3-3-1
			c-0.7-0.6-1.1-1.4-1.1-2.2l0-0.1h2.4c0,0.5,0.2,0.9,0.5,1.1c0.3,0.2,0.7,0.3,1.3,0.3c0.5,0,0.8-0.1,1.1-0.3
			S160.7,160.3,160.7,159.9z"/>
		<path d="M168.7,150.6v2.4h1.6v1.8h-1.6v4.9c0,0.4,0.1,0.6,0.2,0.8c0.2,0.2,0.4,0.2,0.6,0.2c0.1,0,0.3,0,0.4,0c0.1,0,0.2,0,0.3-0.1
			l0.2,1.9c-0.3,0.1-0.5,0.2-0.8,0.2c-0.2,0-0.5,0.1-0.8,0.1c-0.9,0-1.6-0.2-2.1-0.7c-0.5-0.5-0.7-1.3-0.7-2.3v-4.9h-1.4V153h1.4
			v-2.4H168.7z"/>
	</g>
	<g>
		<rect x="14.4" y="144.6" fill="#3C5A99" width="54.4" height="53.7"/>
		<g>
			<g>
				<ellipse fill="#FFFFFF" cx="41.6" cy="171.5" rx="22.3" ry="22.3"/>
				<ellipse fill="none" stroke="#3C5A99" stroke-miterlimit="10" cx="41.6" cy="171.5" rx="22.3" ry="22.3"/>
			</g>
			<g>
				<path fill="#3C5A99" d="M41.3,152.7c-10.4,0-18.9,8.5-18.9,18.9s8.5,18.9,18.9,18.9s18.9-8.5,18.9-18.9S51.7,152.7,41.3,152.7z
					 M41.3,153.3c10.1,0,18.3,8.2,18.3,18.3c0,4.7-1.8,8.9-4.7,12.2l-7.7-3c0,0-1.5-0.6-1.6-2.1c0-0.2-0.1-0.3-0.3-0.3h-0.8
					c0.6-0.7,1.4-1.7,1.4-2.2c0-0.5,0.1-1.2,0.1-1.4c0-0.1,0.1-0.2,0.2-0.1c0.1,0,0.2,0,0.3-0.1c0.1-0.1,1.8-1.7,1.2-4
					c0-0.1-0.1-0.3-0.2-0.4c-0.1-0.1-0.3-0.2-0.6-0.1c0-0.3,0.1-0.8,0.3-1.5c0.4-1.1,0.6-3.1,0-3.7c-0.1-0.1-0.3-0.3-0.5-0.5
					c-0.5-0.6-1.1-1.3-2-2c-1.3-0.9-2.5-1.3-4.5-1.3c-1.9,0-2.4,0.4-2.9,1.1c-0.4,0.2-2.4,1.5-2.7,2.6c-0.3,1.1,0.7,4.5,0.9,5.2
					c0,0.1-0.1,0.2-0.1,0.2c-0.5,0.1-0.7,0.2-0.8,0.7c-0.1,0.5-0.1,1.4,0,1.8c0.1,0.5,0.5,1.7,1.4,2.1c0.1,0,0.2,0.2,0.2,0.3
					c0,0.8,0,1.4,0.2,1.6c0.1,0.2,0.9,1.3,1.2,1.8H37c-0.1,0-0.2,0-0.2,0.1c-0.1,0.1-0.1,0.1-0.1,0.2c0,0.3,0,1-0.4,1.2
					c-0.5,0.3-5.8,2.3-8.8,3.5c-2.8-3.2-4.5-7.4-4.5-12C23,161.5,31.2,153.3,41.3,153.3z M41.3,189.9c-5.3,0-10.1-2.3-13.4-5.9
					c1.7-0.7,8-3.1,8.6-3.4c0.6-0.3,0.7-1.1,0.7-1.5h1c0.1,0,0.2-0.1,0.3-0.2c0-0.1,0-0.2,0-0.3l-0.1-0.2c-0.1-0.1-1.3-1.8-1.4-2
					c0-0.1-0.1-0.3-0.1-1.3c0-0.5-0.5-0.8-0.6-0.9c0,0,0,0,0,0c-0.6-0.2-1-1.2-1.1-1.6c-0.1-0.5-0.1-1.2,0-1.5
					c0.1-0.3,0.1-0.3,0.3-0.3c0.6-0.1,0.7-0.7,0.7-0.8c0,0,0-0.1,0-0.1c-0.3-1.1-1.1-4.1-0.9-5c0.2-0.8,1.8-1.9,2.4-2.3
					c0,0,0.1,0,0.1-0.1l0,0c0.4-0.5,0.7-0.9,2.5-0.9c1.9,0,3,0.3,4.2,1.1c0.9,0.6,1.5,1.4,1.9,1.9c0.2,0.2,0.3,0.4,0.5,0.5
					c0.3,0.3,0.3,1.9-0.1,3.1c-0.4,1.2-0.4,2-0.4,2.1c0,0.1,0,0.2,0.1,0.2c0.1,0.1,0.2,0.1,0.2,0.1c0.3-0.1,0.4,0,0.4,0c0,0,0,0,0,0
					c0.4,1.7-0.6,3-1,3.3c-0.3,0-0.6,0.2-0.8,0.5c0,0,0,0.1,0,0.1c0,0-0.1,1-0.1,1.6c0,0.3-0.8,1.3-1.7,2.3
					c-0.1,0.1-0.1,0.2-0.1,0.3c0,0.1,0.2,0.2,0.3,0.2H45c0.3,1.6,1.9,2.3,1.9,2.4l7.5,2.9C51.2,187.7,46.5,189.9,41.3,189.9z"/>
			</g>
		</g>
	</g>
	<rect x="0.4" y="325.9" fill="#EEF1F4" width="418.9" height="48"/>
	<g>
		<line fill="none" stroke="#D2D2D2" stroke-width="0.5" stroke-miterlimit="10" x1="141" y1="363.7" x2="141" y2="335.2"/>
		<line fill="none" stroke="#D2D2D2" stroke-width="0.5" stroke-miterlimit="10" x1="279.2" y1="363.7" x2="279.2" y2="335.2"/>
		<g>
			<path fill="#5E5F60" d="M198.6,349.4L198.6,349.4c0,1.1-0.3,2-1.1,2.7c-0.8,0.7-1.8,1.1-3,1.1c-1.3,0-2.3-0.4-3.1-1.3
				c-0.8-0.9-1.2-2-1.2-3.4v-2c0-1.4,0.4-2.5,1.2-3.4c0.8-0.9,1.8-1.3,3.1-1.3s2.3,0.3,3,1c0.7,0.7,1.1,1.6,1.1,2.7l0,0h-1.4
				c0-0.8-0.2-1.4-0.7-1.9s-1.1-0.7-1.9-0.7c-0.8,0-1.5,0.3-2,1c-0.5,0.7-0.8,1.5-0.8,2.5v2c0,1,0.3,1.9,0.8,2.5c0.5,0.7,1.2,1,2,1
				c0.8,0,1.5-0.2,1.9-0.7s0.7-1.1,0.7-1.9H198.6z"/>
			<path fill="#5E5F60" d="M200,348.8c0-1.2,0.3-2.2,1-3c0.7-0.8,1.6-1.2,2.7-1.2c1.2,0,2.1,0.4,2.7,1.2c0.7,0.8,1,1.8,1,3v0.2
				c0,1.2-0.3,2.2-1,3s-1.6,1.2-2.7,1.2c-1.1,0-2.1-0.4-2.7-1.2c-0.7-0.8-1-1.8-1-3V348.8z M201.5,348.9c0,0.9,0.2,1.6,0.6,2.2
				c0.4,0.6,0.9,0.9,1.7,0.9c0.7,0,1.3-0.3,1.6-0.9c0.4-0.6,0.6-1.3,0.6-2.2v-0.2c0-0.9-0.2-1.6-0.6-2.2c-0.4-0.6-0.9-0.9-1.7-0.9
				c-0.7,0-1.3,0.3-1.6,0.9c-0.4,0.6-0.6,1.3-0.6,2.2V348.9z"/>
			<path fill="#5E5F60" d="M210.7,344.7l0.1,1.1c0.3-0.4,0.6-0.7,1-0.9s0.9-0.3,1.5-0.3s1,0.1,1.4,0.4c0.4,0.3,0.7,0.6,0.9,1.2
				c0.3-0.5,0.6-0.8,1-1.1c0.4-0.3,0.9-0.4,1.5-0.4c0.8,0,1.5,0.3,2,0.9s0.7,1.5,0.7,2.6v5h-1.5v-5c0-0.8-0.1-1.4-0.4-1.7
				c-0.3-0.3-0.7-0.5-1.3-0.5c-0.5,0-0.9,0.2-1.3,0.5s-0.5,0.8-0.6,1.4v0.1v5.3h-1.5v-5c0-0.8-0.1-1.3-0.4-1.7
				c-0.3-0.4-0.7-0.5-1.2-0.5c-0.5,0-0.8,0.1-1.1,0.3c-0.3,0.2-0.5,0.5-0.7,0.8v6.1h-1.5v-8.3H210.7z"/>
			<path fill="#5E5F60" d="M224.4,344.7l0.1,1.1c0.3-0.4,0.6-0.7,1-0.9s0.9-0.3,1.5-0.3s1,0.1,1.4,0.4c0.4,0.3,0.7,0.6,0.9,1.2
				c0.3-0.5,0.6-0.8,1-1.1c0.4-0.3,0.9-0.4,1.5-0.4c0.8,0,1.5,0.3,2,0.9c0.5,0.6,0.7,1.5,0.7,2.6v5h-1.5v-5c0-0.8-0.1-1.4-0.4-1.7
				c-0.3-0.3-0.7-0.5-1.3-0.5c-0.5,0-0.9,0.2-1.3,0.5c-0.3,0.4-0.5,0.8-0.6,1.4v0.1v5.3H228v-5c0-0.8-0.1-1.3-0.4-1.7
				c-0.3-0.4-0.7-0.5-1.2-0.5c-0.5,0-0.8,0.1-1.1,0.3c-0.3,0.2-0.5,0.5-0.7,0.8v6.1H223v-8.3H224.4z"/>
			<path fill="#5E5F60" d="M240.2,353.2c-1.2,0-2.1-0.4-2.8-1.2c-0.7-0.8-1-1.8-1-3v-0.3c0-1.2,0.4-2.2,1.1-2.9
				c0.7-0.8,1.5-1.2,2.5-1.2c1.1,0,2,0.3,2.5,1c0.6,0.7,0.9,1.6,0.9,2.7v0.9H238l0,0c0,0.8,0.2,1.4,0.6,2c0.4,0.5,0.9,0.8,1.6,0.8
				c0.5,0,1-0.1,1.3-0.2c0.4-0.1,0.7-0.3,1-0.6l0.6,1c-0.3,0.3-0.7,0.5-1.2,0.7C241.5,353.1,240.9,353.2,240.2,353.2z M240,345.7
				c-0.5,0-0.9,0.2-1.3,0.6c-0.4,0.4-0.6,1-0.7,1.6l0,0h3.8v-0.2c0-0.6-0.2-1.1-0.5-1.5C241.1,345.9,240.6,345.7,240,345.7z"/>
			<path fill="#5E5F60" d="M246.4,344.7l0.1,1.2c0.3-0.4,0.6-0.8,1-1c0.4-0.2,0.9-0.4,1.4-0.4c0.9,0,1.6,0.3,2.1,0.8
				c0.5,0.5,0.7,1.3,0.7,2.4v5.2h-1.5v-5.2c0-0.7-0.1-1.3-0.4-1.6c-0.3-0.3-0.7-0.5-1.3-0.5c-0.4,0-0.8,0.1-1.2,0.3
				c-0.3,0.2-0.6,0.5-0.8,0.9v6.1h-1.5v-8.3H246.4z"/>
			<path fill="#5E5F60" d="M256,342.7v2h1.6v1.1H256v5c0,0.4,0.1,0.7,0.2,0.8c0.2,0.2,0.4,0.2,0.6,0.2c0.1,0,0.2,0,0.3,0
				s0.2,0,0.3-0.1l0.2,1c-0.1,0.1-0.3,0.2-0.5,0.2c-0.2,0.1-0.4,0.1-0.7,0.1c-0.6,0-1.1-0.2-1.5-0.6c-0.4-0.4-0.5-1-0.5-1.7v-5h-1.3
				v-1.1h1.3v-2H256z"/>
		</g>
		<g>
			<path fill="#5E5F60" d="M347.8,350.2c0-0.5-0.2-0.9-0.6-1.3c-0.4-0.3-1.1-0.6-2-0.9c-1.2-0.3-2.1-0.7-2.8-1.2s-1-1.2-1-2.1
				c0-0.9,0.4-1.6,1.1-2.2c0.7-0.6,1.6-0.9,2.8-0.9c1.2,0,2.2,0.3,2.9,1c0.7,0.7,1.1,1.4,1,2.3l0,0h-1.4c0-0.7-0.2-1.2-0.6-1.6
				c-0.4-0.4-1.1-0.6-1.9-0.6c-0.8,0-1.3,0.2-1.7,0.5c-0.4,0.3-0.6,0.8-0.6,1.3c0,0.5,0.2,0.9,0.7,1.2c0.4,0.3,1.1,0.6,2.1,0.9
				c1.2,0.3,2.1,0.7,2.7,1.3s0.9,1.3,0.9,2.1c0,0.9-0.4,1.6-1.1,2.2s-1.7,0.8-2.9,0.8c-1.1,0-2.1-0.3-3-0.9s-1.3-1.4-1.2-2.4l0,0
				h1.4c0,0.7,0.3,1.3,0.8,1.6c0.5,0.4,1.2,0.6,2,0.6c0.8,0,1.4-0.2,1.8-0.5C347.6,351.2,347.8,350.7,347.8,350.2z"/>
			<path fill="#5E5F60" d="M352.7,345.8c0.3-0.4,0.6-0.7,1.1-0.9s0.9-0.3,1.4-0.3c0.9,0,1.6,0.3,2.1,0.8s0.7,1.3,0.7,2.5v5.2h-1.5
				v-5.2c0-0.7-0.1-1.2-0.4-1.5c-0.3-0.3-0.7-0.5-1.3-0.5c-0.4,0-0.8,0.1-1.1,0.3c-0.3,0.2-0.6,0.5-0.8,0.8v6.1h-1.5v-12h1.5V345.8z
				"/>
			<path fill="#5E5F60" d="M365.2,353c-0.1-0.3-0.1-0.5-0.1-0.7c0-0.2,0-0.4,0-0.6c-0.3,0.4-0.6,0.7-1.1,1s-0.9,0.4-1.5,0.4
				c-0.9,0-1.5-0.2-2-0.7s-0.7-1.1-0.7-1.8c0-0.8,0.3-1.4,1-1.9c0.6-0.4,1.5-0.7,2.6-0.7h1.6v-0.8c0-0.5-0.1-0.9-0.4-1.2
				s-0.7-0.4-1.3-0.4c-0.5,0-0.9,0.1-1.2,0.4s-0.5,0.5-0.5,0.9h-1.4l0,0c0-0.6,0.3-1.2,0.9-1.7c0.6-0.5,1.4-0.8,2.3-0.8
				c0.9,0,1.7,0.2,2.3,0.7c0.6,0.5,0.9,1.2,0.9,2.1v4c0,0.3,0,0.6,0,0.9c0,0.3,0.1,0.5,0.2,0.8H365.2z M362.7,351.9
				c0.5,0,1-0.1,1.5-0.4c0.4-0.3,0.7-0.6,0.9-1v-1.3h-1.7c-0.6,0-1.1,0.2-1.5,0.5c-0.4,0.3-0.5,0.7-0.5,1.1c0,0.4,0.1,0.7,0.3,0.9
				C362,351.8,362.3,351.9,362.7,351.9z"/>
			<path fill="#5E5F60" d="M372.7,346l-0.8,0c-0.4,0-0.7,0.1-1,0.3c-0.3,0.2-0.5,0.5-0.6,0.8v5.9h-1.5v-8.3h1.4l0.1,1.2
				c0.2-0.4,0.5-0.8,0.9-1c0.3-0.2,0.7-0.4,1.2-0.4c0.1,0,0.2,0,0.3,0c0.1,0,0.2,0,0.3,0.1L372.7,346z"/>
			<path fill="#5E5F60" d="M377.5,353.2c-1.2,0-2.1-0.4-2.8-1.2c-0.7-0.8-1-1.8-1-3v-0.3c0-1.2,0.4-2.2,1.1-2.9s1.5-1.2,2.5-1.2
				c1.1,0,2,0.3,2.5,1c0.6,0.7,0.9,1.6,0.9,2.7v0.9h-5.4l0,0c0,0.8,0.2,1.4,0.6,2c0.4,0.5,0.9,0.8,1.6,0.8c0.5,0,1-0.1,1.3-0.2
				c0.4-0.1,0.7-0.3,1-0.6l0.6,1c-0.3,0.3-0.7,0.5-1.2,0.7C378.7,353.1,378.2,353.2,377.5,353.2z M377.2,345.7
				c-0.5,0-0.9,0.2-1.3,0.6c-0.4,0.4-0.6,1-0.7,1.6l0,0h3.8v-0.2c0-0.6-0.2-1.1-0.5-1.5C378.3,345.9,377.9,345.7,377.2,345.7z"/>
		</g>
		<g>
			<path fill="#5E5F60" d="M73.5,351.8h5.3v1.2H72v-11.2h1.5V351.8z"/>
			<path fill="#5E5F60" d="M81.8,342.6h-1.5V341h1.5V342.6z M81.8,353h-1.5v-8.3h1.5V353z"/>
			<path fill="#5E5F60" d="M86.7,349.2h-1v3.8h-1.5v-12h1.5v6.9h1l2.3-3.3h1.8l-2.8,3.8l3.2,4.5h-1.8L86.7,349.2z"/>
			<path fill="#5E5F60" d="M95.5,353.2c-1.2,0-2.1-0.4-2.8-1.2c-0.7-0.8-1-1.8-1-3v-0.3c0-1.2,0.4-2.2,1.1-2.9s1.5-1.2,2.5-1.2
				c1.1,0,2,0.3,2.5,1c0.6,0.7,0.9,1.6,0.9,2.7v0.9h-5.4l0,0c0,0.8,0.2,1.4,0.6,2c0.4,0.5,0.9,0.8,1.6,0.8c0.5,0,1-0.1,1.3-0.2
				c0.4-0.1,0.7-0.3,1-0.6l0.6,1c-0.3,0.3-0.7,0.5-1.2,0.7C96.8,353.1,96.2,353.2,95.5,353.2z M95.3,345.7c-0.5,0-0.9,0.2-1.3,0.6
				c-0.4,0.4-0.6,1-0.7,1.6l0,0h3.8v-0.2c0-0.6-0.2-1.1-0.5-1.5C96.4,345.9,95.9,345.7,95.3,345.7z"/>
		</g>
		<polyline fill="#9A9DA2" points="163.4,353 163.4,357.6 168.6,353 174.9,353 174.9,341.9 160.5,341.9 160.5,353 163.4,353 		"/>
		<path fill="#9A9DA2" d="M311.7,356.3c0,0,0.2-9.8,8.7-10v-4.4l8.9,7.2l-8.8,7.2v-4.4C320.6,351.9,315.7,349.3,311.7,356.3z"/>
		<g>
			<rect x="41.6" y="346.8" fill="#9A9DA2" width="4.5" height="9.2"/>
			<path fill="#9A9DA2" d="M49.9,341c0,0-0.4,4-2.2,4.9v10h7.4c0,0,2.2-1,1.3-4.6c0,0,2.4-1.2,2.3-3.9s-6.5-2.1-6.5-2.1
				s1.3-1.6,1-4.4c-0.3-2.7-2.1-2.2-2.1-2.2S49.2,339.2,49.9,341z"/>
		</g>
	</g>
	<g>
		<circle fill="#FED971" cx="30" cy="297.8" r="8.8"/>
		<g>
			<ellipse fill="#252C38" cx="29.6" cy="301.6" rx="3.3" ry="3.8"/>
			
				<ellipse transform="matrix(0.9592 0.2827 -0.2827 0.9592 84.6064 4.8099)" fill="#252C38" cx="25.6" cy="295.6" rx="1.5" ry="2.2"/>
			
				<ellipse transform="matrix(-0.9947 0.1026 -0.1026 -0.9947 98.9068 586.0858)" fill="#252C38" cx="34.4" cy="295.6" rx="1.5" ry="2.2"/>
			<g>
				<path fill="#252C38" d="M25,292.2l-0.9-0.1c0,0,0.2-1.2,1.2-1.7c0.8-0.4,1.8-0.4,3,0.1l-0.3,0.9c-0.9-0.4-1.7-0.4-2.2-0.1
					C25.2,291.5,25,292.2,25,292.2z"/>
			</g>
			<g>
				<path fill="#252C38" d="M35,292.2l0.9-0.1c0,0-0.2-1.2-1.2-1.7c-0.8-0.4-1.8-0.4-3,0.1l0.3,0.9c0.9-0.4,1.7-0.4,2.2-0.1
					C34.8,291.5,35,292.2,35,292.2z"/>
			</g>
		</g>
	</g>
	<g>
		<path fill="#FFFFFF" d="M155,85.8v-30h12.9c1.9,0,3.5,0.3,4.8,0.8c1.3,0.6,2.3,1.3,3.2,2.2c0.8,0.9,1.4,1.9,1.7,3
			c0.4,1.1,0.5,2.3,0.5,3.4c0,0.7-0.1,1.5-0.3,2.2c-0.2,0.7-0.4,1.5-0.8,2.2c-0.3,0.7-0.8,1.4-1.3,2c-0.5,0.6-1.2,1.2-2,1.6
			c-0.8,0.5-1.6,0.8-2.6,1.1c-1,0.3-2.1,0.4-3.3,0.4h-7.1v11H155z M168.1,69.3c0.7,0,1.4-0.1,1.9-0.4c0.5-0.2,0.9-0.5,1.2-0.9
			c0.3-0.4,0.5-0.8,0.7-1.3c0.1-0.5,0.2-0.9,0.2-1.4c0-0.4-0.1-0.9-0.2-1.3c-0.1-0.5-0.3-0.9-0.6-1.3c-0.3-0.4-0.7-0.7-1.2-1
			c-0.5-0.3-1.2-0.4-1.9-0.4h-7.3v7.9H168.1z"/>
		<path fill="#FFFFFF" d="M195.8,86.3c-1.6,0-3.1-0.2-4.3-0.6c-1.3-0.4-2.4-1-3.4-1.7c-1-0.7-1.8-1.6-2.5-2.6
			c-0.7-1-1.3-2.1-1.7-3.2c-0.4-1.1-0.8-2.3-1-3.6c-0.2-1.2-0.3-2.5-0.3-3.7c0-1.2,0.1-2.5,0.3-3.7c0.2-1.2,0.5-2.4,1-3.6
			c0.4-1.1,1-2.2,1.7-3.2c0.7-1,1.5-1.9,2.5-2.6c1-0.7,2.1-1.3,3.4-1.7c1.3-0.4,2.7-0.6,4.3-0.6c1.6,0,3.1,0.2,4.3,0.6
			c1.3,0.4,2.4,1,3.4,1.7c1,0.7,1.8,1.6,2.5,2.6c0.7,1,1.3,2.1,1.7,3.2c0.4,1.1,0.8,2.3,1,3.6c0.2,1.2,0.3,2.5,0.3,3.7
			c0,1.2-0.1,2.5-0.3,3.7c-0.2,1.2-0.5,2.4-1,3.6c-0.4,1.1-1,2.2-1.7,3.2c-0.7,1-1.5,1.9-2.5,2.6c-1,0.7-2.1,1.3-3.4,1.7
			C198.8,86.1,197.4,86.3,195.8,86.3z M195.8,80.7c1.3,0,2.5-0.3,3.4-0.9c0.9-0.6,1.7-1.4,2.2-2.4c0.6-1,1-2,1.2-3.2
			c0.3-1.2,0.4-2.3,0.4-3.4c0-0.8-0.1-1.5-0.2-2.3c-0.1-0.8-0.3-1.5-0.5-2.3c-0.2-0.7-0.5-1.4-0.9-2.1c-0.4-0.6-0.8-1.2-1.4-1.7
			c-0.5-0.5-1.1-0.9-1.8-1.1c-0.7-0.3-1.5-0.4-2.4-0.4c-0.9,0-1.7,0.1-2.4,0.4c-0.7,0.3-1.3,0.7-1.9,1.2c-0.5,0.5-1,1.1-1.4,1.7
			c-0.4,0.7-0.7,1.4-0.9,2.1c-0.2,0.7-0.4,1.5-0.5,2.3c-0.1,0.8-0.2,1.5-0.2,2.2c0,1.1,0.1,2.3,0.4,3.5c0.3,1.2,0.7,2.2,1.2,3.2
			c0.6,1,1.3,1.7,2.2,2.3C193.3,80.4,194.4,80.7,195.8,80.7z"/>
		<path fill="#FFFFFF" d="M230,64c-0.2-0.4-0.4-0.9-0.7-1.3c-0.3-0.4-0.7-0.7-1.1-1c-0.4-0.3-0.9-0.5-1.5-0.7
			c-0.6-0.2-1.2-0.2-1.8-0.2c-1.3,0-2.2,0.3-2.9,0.8c-0.7,0.5-1.1,1.2-1.1,2.1c0,0.6,0.2,1.1,0.7,1.5c0.4,0.4,1,0.8,1.8,1.1
			c0.7,0.3,1.5,0.6,2.5,0.9c0.9,0.3,1.9,0.6,2.9,1c1,0.4,1.9,0.8,2.9,1.3c0.9,0.5,1.8,1.1,2.5,1.8c0.7,0.7,1.3,1.5,1.8,2.5
			c0.4,1,0.7,2.1,0.7,3.5c0,1.5-0.3,2.8-0.8,3.9c-0.6,1.1-1.3,2.1-2.3,2.9c-1,0.8-2.1,1.4-3.4,1.8c-1.3,0.4-2.8,0.6-4.3,0.6
			c-1.4,0-2.7-0.2-4-0.6c-1.2-0.4-2.3-0.9-3.3-1.6c-1-0.7-1.9-1.6-2.6-2.6c-0.7-1-1.3-2.2-1.8-3.4l5.3-2c0.3,0.7,0.7,1.3,1.2,1.9
			c0.5,0.6,1,1.1,1.5,1.5c0.6,0.4,1.2,0.7,1.8,1c0.6,0.2,1.3,0.3,2.1,0.3c0.7,0,1.4-0.1,2-0.2c0.6-0.2,1.1-0.4,1.5-0.7
			c0.4-0.3,0.8-0.7,1-1.1s0.3-1,0.3-1.6c0-0.7-0.2-1.3-0.7-1.8c-0.4-0.5-1-0.9-1.8-1.3c-0.7-0.4-1.6-0.7-2.5-1
			c-0.9-0.3-1.9-0.6-2.8-1c-1-0.3-1.9-0.7-2.8-1.2c-0.9-0.4-1.8-1-2.5-1.7c-0.7-0.7-1.3-1.4-1.8-2.4c-0.4-0.9-0.7-2-0.7-3.3
			c0-1.1,0.2-2.2,0.7-3.2c0.5-1,1.1-1.9,2-2.6c0.9-0.8,1.9-1.3,3.2-1.8c1.3-0.4,2.7-0.7,4.3-0.7c1.4,0,2.6,0.2,3.7,0.5
			c1.1,0.3,2.1,0.8,2.9,1.5c0.8,0.6,1.5,1.4,2.1,2.2c0.6,0.8,1,1.8,1.3,2.8L230,64z"/>
		<path fill="#FFFFFF" d="M255.2,61.4v24.4h-5.8V61.4h-8.6v-5.6h22.9v5.6H255.2z"/>
		<path fill="#FFFFFF" d="M202.4,94.7c0,0-0.8,4.9,0.8,9.5c0,0,0.6,1.1-0.2,1.2h-3.1c0,0-0.7-0.4-0.9-0.7c-0.2-0.4-1.5-3.4-0.8-10
			c0,0,0.4-1.2,1.3-1.2c1,0,2.4,0.1,2.4,0.1S202.8,93.8,202.4,94.7z"/>
		<path fill="#FFFFFF" d="M214.4,90.5c0,0,0.5-1.4,0.8-2.2s1.2-3.3-0.2-5c-1.4-1.6-2.6-1-3-0.2c0,0-0.2,0.9-0.2,1.2s0.4,0.9-0.8,2.4
			c-1.3,1.5-1.1,1.8-2.3,2.8c-1.2,1-2.3,2.4-2.5,3c0,0-0.8,1-1,0.9s-1,0.1-1.5,1.6c-0.4,1.5-0.1,7.4,1.4,9s8.8,2.3,10.1,1.9
			c1.3-0.3,3.3-0.7,3.2-2.7c0,0,1.4-1.3,1.5-2.5s-0.2-1.4-0.2-2.2c0-0.8,1.8-0.9,0.2-3.4c0,0-0.2-0.1-0.1-1.2c0.1-1.1-1-1.7-1.7-2.1
			s-2.9-0.5-3.5-0.2C214.8,91.7,214.1,91.9,214.4,90.5z"/>
		<g>
			<polygon fill="#FFFFFF" points="200.2,96 142.5,96 142.5,38.5 152,38.5 152,39.4 143.5,39.4 143.5,95.1 200.2,95.1 			"/>
		</g>
		<g>
			<polygon fill="#FFFFFF" points="276.6,96 219.4,96 219.4,95.1 275.6,95.1 275.6,39.4 267.2,39.4 267.2,38.5 276.6,38.5 			"/>
		</g>
		<g>
			<path fill="#FFFFFF" d="M166.5,35.4c-0.1-0.4-0.3-0.7-0.6-1c-0.2-0.3-0.5-0.6-0.9-0.8c-0.3-0.2-0.7-0.4-1.2-0.5
				c-0.4-0.1-0.9-0.2-1.5-0.2c-1,0-1.8,0.2-2.3,0.6s-0.8,1-0.8,1.7c0,0.5,0.2,0.9,0.5,1.2c0.4,0.3,0.8,0.6,1.4,0.9
				c0.6,0.3,1.2,0.5,2,0.7s1.5,0.5,2.3,0.8c0.8,0.3,1.5,0.6,2.3,1s1.4,0.9,2,1.4c0.6,0.6,1,1.2,1.4,2c0.4,0.8,0.5,1.7,0.5,2.8
				c0,1.2-0.2,2.2-0.7,3.1c-0.4,0.9-1.1,1.7-1.8,2.3s-1.7,1.1-2.7,1.4c-1.1,0.3-2.2,0.5-3.4,0.5c-1.1,0-2.2-0.2-3.2-0.5
				c-1-0.3-1.9-0.7-2.7-1.3s-1.5-1.3-2.1-2.1c-0.6-0.8-1.1-1.7-1.4-2.7l4.2-1.6c0.3,0.6,0.6,1.1,0.9,1.5c0.4,0.5,0.8,0.9,1.2,1.2
				s0.9,0.6,1.4,0.8c0.5,0.2,1.1,0.3,1.7,0.3c0.6,0,1.1-0.1,1.6-0.2s0.9-0.3,1.2-0.6s0.6-0.5,0.8-0.9c0.2-0.4,0.3-0.8,0.3-1.3
				c0-0.6-0.2-1.1-0.5-1.5c-0.4-0.4-0.8-0.7-1.4-1c-0.6-0.3-1.2-0.6-2-0.8s-1.5-0.5-2.3-0.8c-0.8-0.3-1.5-0.6-2.3-0.9
				s-1.4-0.8-2-1.3c-0.6-0.5-1-1.2-1.4-1.9s-0.5-1.6-0.5-2.7c0-0.9,0.2-1.7,0.5-2.5c0.4-0.8,0.9-1.5,1.6-2.1s1.5-1.1,2.5-1.4
				c1-0.4,2.1-0.5,3.4-0.5c1.1,0,2.1,0.1,2.9,0.4c0.9,0.3,1.6,0.7,2.3,1.2c0.7,0.5,1.2,1.1,1.7,1.8c0.5,0.7,0.8,1.4,1,2.2
				L166.5,35.4z"/>
			<path fill="#FFFFFF" d="M192.8,52.8l-1.9-5h-9.2l-1.8,5h-5l9.2-23.9h4.5l9.2,23.9H192.8z M187.1,37.5c-0.1-0.3-0.3-0.6-0.4-1
				c-0.1-0.4-0.3-0.8-0.4-1.1c-0.1,0.3-0.2,0.7-0.4,1.1s-0.3,0.7-0.4,1l-2.4,6.2h6.2L187.1,37.5z"/>
			<path fill="#FFFFFF" d="M202.1,52.8V28.9h16v4.4h-11.4v5h7.2v4.4h-7.2v10.1H202.1z"/>
			<path fill="#FFFFFF" d="M222.5,52.8V28.9h16.3v4.4h-11.7v5h6.9v4.4h-6.9v5.8h12.4v4.4H222.5z"/>
			<path fill="#FFFFFF" d="M244.5,52.8V28.9h11.1c1.5,0,2.8,0.2,3.8,0.6c1,0.4,1.8,1,2.5,1.7c0.6,0.7,1.1,1.5,1.3,2.4
				c0.3,0.9,0.4,1.8,0.4,2.8c0,0.7-0.1,1.4-0.3,2.1c-0.2,0.7-0.5,1.4-0.9,2s-0.9,1.2-1.5,1.7c-0.6,0.5-1.3,0.9-2,1.2l4.6,9.5h-5.2
				l-4.5-8.9h-4.8v8.9H244.5z M255.7,39.5c0.6,0,1.1-0.1,1.5-0.3c0.4-0.2,0.7-0.4,1-0.7s0.4-0.6,0.5-1c0.1-0.4,0.2-0.8,0.2-1.2
				c0-0.4,0-0.8-0.1-1.1c-0.1-0.4-0.3-0.7-0.5-1c-0.2-0.3-0.6-0.5-1-0.7c-0.4-0.2-0.9-0.3-1.5-0.3h-6.6v6.2H255.7z"/>
		</g>
	</g>
</g>
</svg>
