<?xml version="1.0" encoding="utf-8"?>
<!-- Generator: Adobe Illustrator 16.0.0, SVG Export Plug-In . SVG Version: 6.00 Build 0)  -->
<!DOCTYPE svg PUBLIC "-//W3C//DTD SVG 1.1//EN" "http://www.w3.org/Graphics/SVG/1.1/DTD/svg11.dtd">
<svg version="1.1" id="USARMY_x5F_2D_x5F_2C_x5F_A4_x5F_NS_x5F_NG"
	 xmlns="http://www.w3.org/2000/svg" xmlns:xlink="http://www.w3.org/1999/xlink" x="0px" y="0px" width="100px" height="126.432px"
	 viewBox="0 0 100 126.432" enable-background="new 0 0 100 126.432" xml:space="preserve">
<g>
	<g>
		<path fill="#231F20" d="M95.247,94.506c0-1.409,1.119-2.329,2.374-2.329c1.261,0,2.379,0.92,2.379,2.329s-1.119,2.316-2.379,2.316
			C96.366,96.823,95.247,95.915,95.247,94.506z M97.621,92.672c-0.993,0-1.765,0.759-1.765,1.834c0,1.062,0.772,1.828,1.765,1.828
			c0.983,0,1.771-0.766,1.771-1.828C99.392,93.432,98.604,92.672,97.621,92.672z M97.211,95.795h-0.517v-2.594h0.99
			c0.643,0,1.005,0.208,1.005,0.766c0,0.476-0.296,0.665-0.633,0.703l0.633,1.125h-0.571l-0.589-1.109h-0.318V95.795z
			 M97.211,94.286h0.444c0.369,0,0.507-0.11,0.507-0.362c0-0.24-0.164-0.328-0.529-0.328h-0.422V94.286z"/>
	</g>
	<path d="M7.839,92.712C3.516,92.712,0,96.228,0,100.55v18.043c0,4.322,3.516,7.838,7.839,7.838H87.2
		c4.323,0,7.838-3.516,7.838-7.838V100.55c0-4.322-3.515-7.838-7.838-7.838H7.839z"/>
	<g>
		<path fill="#FFC425" d="M87.2,95.214H7.839c-2.943,0-5.337,2.394-5.337,5.336v18.043c0,2.943,2.394,5.336,5.337,5.336H87.2
			c2.943,0,5.337-2.394,5.337-5.336V100.55C92.537,97.607,90.143,95.214,87.2,95.214z M90.034,118.594
			c0,1.56-1.275,2.835-2.834,2.835H7.839c-1.559,0-2.834-1.275-2.834-2.835V100.55c0-1.559,1.275-2.835,2.834-2.835H87.2
			c1.559,0,2.834,1.276,2.834,2.835V118.594z"/>
	</g>
	<path d="M7.839,0C3.516,0,0,3.517,0,7.839v74.634c0,4.322,3.516,7.838,7.839,7.838H87.2c4.323,0,7.838-3.516,7.838-7.838V7.839
		C95.038,3.517,91.522,0,87.2,0H7.839z"/>
	<g>
		<path fill="#FFC425" d="M87.2,2.502H7.839c-2.943,0-5.337,2.394-5.337,5.337v74.634c0,2.942,2.394,5.336,5.337,5.336H87.2
			c2.943,0,5.337-2.394,5.337-5.336V7.839C92.537,4.896,90.143,2.502,87.2,2.502z M90.034,82.474c0,1.56-1.275,2.835-2.834,2.835
			H7.839c-1.559,0-2.834-1.275-2.834-2.835V7.839c0-1.56,1.275-2.835,2.834-2.835H87.2c1.559,0,2.834,1.275,2.834,2.835V82.474z"/>
	</g>
	<g>
		<path fill="#FFFFFF" d="M19.519,115.102l-2.324,2.258h-4.019l-2.39-2.258v-13.317h3.585v12.643h1.564v-12.643h3.583V115.102z"/>
		<path fill="#FFFFFF" d="M24.32,117.36h-3.585v-2.997h3.585V117.36z"/>
		<path fill="#FFFFFF" d="M31.969,101.784l2.521,2.26v2.759h-3.585v-2.086h-1.477v3.172l2.608,0.217l2.454,2.259v4.737l-2.346,2.258
			h-3.975l-2.325-2.258v-2.738h3.584v2.063h1.477v-3.259l-2.563-0.194l-2.499-2.26v-4.67l2.346-2.26H31.969z"/>
		<path fill="#FFFFFF" d="M39.313,117.36h-3.585v-2.997h3.585V117.36z"/>
		<path fill="#FFFFFF" d="M46.461,111.56h-1.564l0.543-6.473h0.348L46.461,111.56z M48.221,101.784h-5.191l-2.193,15.576h3.497
			l0.304-2.867h2.086l0.304,2.867h3.519L48.221,101.784z"/>
		<path fill="#FFFFFF" d="M57.066,104.716v3.498h-1.5v-3.498H57.066z M60.542,104.044l-2.411-2.26h-6.148v15.576h3.585v-6.212h1.5
			v6.212h3.475v-6.212l-1.803-1.521l1.803-1.499V104.044z"/>
		<path fill="#FFFFFF" d="M73.557,117.36h-3.281v-9.884h-0.152l-1.499,9.884h-1.326l-1.499-9.884h-0.15v9.884h-3.281v-15.576h4.215
			l1.26,7.539h0.326l1.173-7.539h4.215V117.36z"/>
		<path fill="#FFFFFF" d="M81.684,110.844v6.516h-3.585v-6.516l-3.084-9.06h3.584l1.281,5.627h0.043l1.282-5.627h3.584
			L81.684,110.844z"/>
	</g>
	<polygon fill="#FFC425" points="69.66,79.187 47.52,63.087 25.375,79.187 33.842,53.15 11.682,37.072 39.066,37.072 47.52,11.024 
		55.973,37.072 83.357,37.072 61.197,53.152 69.66,79.187 	"/>
	<polygon points="64.717,72.381 47.519,59.877 30.318,72.381 36.896,52.157 19.685,39.669 40.954,39.669 47.519,19.439 
		54.085,39.669 75.354,39.669 58.143,52.159 64.717,72.381 	"/>
	<polygon fill="#FFFFFF" points="47.519,27.545 52.267,42.171 67.645,42.171 55.201,51.202 59.956,65.824 47.519,56.783 
		35.082,65.824 39.837,51.202 27.394,42.171 42.771,42.171 	"/>
</g>
</svg>
