<?xml version="1.0" encoding="utf-8"?>
<!-- Generator: Adobe Illustrator 15.1.0, SVG Export Plug-In . SVG Version: 6.00 Build 0)  -->
<!DOCTYPE svg PUBLIC "-//W3C//DTD SVG 1.1//EN" "http://www.w3.org/Graphics/SVG/1.1/DTD/svg11.dtd">
<svg version="1.1" id="Layer_1" xmlns="http://www.w3.org/2000/svg" xmlns:xlink="http://www.w3.org/1999/xlink" x="0px" y="0px"
	 width="20px" height="20px" viewBox="0 0 20 20" enable-background="new 0 0 20 20" xml:space="preserve">
<g>
	<g>
		<path fill="#FFFFFF" d="M10,2c4.411,0,8,3.589,8,8s-3.589,8-8,8s-8-3.589-8-8S5.589,2,10,2 M10,0C4.478,0,0,4.477,0,10
			c0,5.522,4.478,10,10,10s10-4.478,10-10C20,4.477,15.522,0,10,0L10,0z"/>
	</g>
	<path fill="#FFFFFF" d="M14.045,12.419l-2.526-2.526l2.525-2.525c0.349-0.349,0.349-0.914,0-1.263
		c-0.348-0.349-0.913-0.349-1.262,0l-2.525,2.525L7.731,6.106c-0.349-0.349-0.914-0.349-1.263,0c-0.35,0.349-0.35,0.914,0,1.262
		l2.525,2.525l-2.526,2.525c-0.349,0.349-0.349,0.915,0,1.263c0.35,0.349,0.915,0.349,1.263,0l2.526-2.525l2.525,2.525
		c0.349,0.348,0.914,0.348,1.263,0C14.394,13.333,14.394,12.768,14.045,12.419z"/>
</g>
</svg>
