<?xml version="1.0" encoding="utf-8"?>
<!-- Generator: Adobe Illustrator 16.0.0, SVG Export Plug-In . SVG Version: 6.00 Build 0)  -->
<!DOCTYPE svg PUBLIC "-//W3C//DTD SVG 1.1//EN" "http://www.w3.org/Graphics/SVG/1.1/DTD/svg11.dtd">
<svg version="1.1" id="Layer_1" xmlns="http://www.w3.org/2000/svg" xmlns:xlink="http://www.w3.org/1999/xlink" x="0px" y="0px"
	 width="100px" height="100px" viewBox="0 0 100 100" enable-background="new 0 0 100 100" xml:space="preserve">
<g>
	<path fill="#6A6962" d="M50,6.25C25.836,6.25,6.25,25.839,6.25,50c0,24.165,19.586,43.75,43.75,43.75S93.75,74.164,93.75,50
		C93.75,25.839,74.164,6.25,50,6.25z M67.981,52.984l-25.977,15c-2.387,1.391-4.34,0.268-4.355-2.502l-0.134-30.305
		c-0.013-2.759,1.916-3.872,4.297-2.478l26.181,15.265C70.386,49.356,70.374,51.605,67.981,52.984z"/>
	<path fill="#FFFFFF" d="M50,0C22.385,0,0,22.385,0,50c0,27.616,22.385,49.999,50,49.999c27.612,0,50-22.383,50-49.999
		C100,22.385,77.612,0,50,0z M50,93.75C25.836,93.75,6.25,74.164,6.25,50C6.25,25.839,25.836,6.25,50,6.25S93.75,25.839,93.75,50
		C93.75,74.164,74.164,93.75,50,93.75z"/>
	<path fill="#FFFFFF" d="M67.993,47.964L41.813,32.7c-2.381-1.395-4.31-0.281-4.297,2.478l0.134,30.305
		c0.016,2.77,1.969,3.893,4.355,2.502l25.977-15C70.374,51.605,70.386,49.356,67.993,47.964z"/>
</g>
</svg>
