<?xml version="1.0" encoding="utf-8"?>
<!-- Generator: Adobe Illustrator 18.0.0, SVG Export Plug-In . SVG Version: 6.00 Build 0)  -->
<!DOCTYPE svg PUBLIC "-//W3C//DTD SVG 1.1//EN" "http://www.w3.org/Graphics/SVG/1.1/DTD/svg11.dtd">
<svg version="1.1" id="Layer_1" xmlns="http://www.w3.org/2000/svg" xmlns:xlink="http://www.w3.org/1999/xlink" x="0px" y="0px"
	 width="200px" height="100px" viewBox="0 0 200 100" enable-background="new 0 0 200 100" xml:space="preserve">
<g>
	<path fill="none" d="M50,6.3C25.8,6.3,6.3,25.8,6.3,50c0,24.2,19.6,43.8,43.8,43.8c24.2,0,43.8-19.6,43.8-43.8
		C93.8,25.8,74.2,6.3,50,6.3z M68,53L42,68c-2.4,1.4-4.3,0.3-4.4-2.5l-0.1-30.3c0-2.8,1.9-3.9,4.3-2.5L68,48
		C70.4,49.4,70.4,51.6,68,53z"/>
	<path fill="#FFFFFF" d="M50,0C22.4,0,0,22.4,0,50c0,27.6,22.4,50,50,50c27.6,0,50-22.4,50-50C100,22.4,77.6,0,50,0z M50,93.8
		C25.8,93.8,6.3,74.2,6.3,50C6.3,25.8,25.8,6.3,50,6.3c24.2,0,43.8,19.6,43.8,43.8C93.8,74.2,74.2,93.8,50,93.8z"/>
	<path fill="#FFFFFF" d="M68,48L41.8,32.7c-2.4-1.4-4.3-0.3-4.3,2.5l0.1,30.3c0,2.8,2,3.9,4.4,2.5l26-15C70.4,51.6,70.4,49.4,68,48z
		"/>
</g>
<g>
	<path fill="#B3B3B3" d="M150,6.3c-24.2,0-43.8,19.6-43.8,43.8c0,24.2,19.6,43.8,43.8,43.8c24.2,0,43.8-19.6,43.8-43.8
		C193.8,25.8,174.2,6.3,150,6.3z M168,53l-26,15c-2.4,1.4-4.3,0.3-4.4-2.5l-0.1-30.3c0-2.8,1.9-3.9,4.3-2.5L168,48
		C170.4,49.4,170.4,51.6,168,53z"/>
	<path fill="#FFFFFF" d="M150,0c-27.6,0-50,22.4-50,50c0,27.6,22.4,50,50,50c27.6,0,50-22.4,50-50C200,22.4,177.6,0,150,0z
		 M150,93.8c-24.2,0-43.8-19.6-43.8-43.8c0-24.2,19.6-43.8,43.8-43.8c24.2,0,43.8,19.6,43.8,43.8C193.8,74.2,174.2,93.8,150,93.8z"
		/>
	<path fill="#FFFFFF" d="M168,48l-26.2-15.3c-2.4-1.4-4.3-0.3-4.3,2.5l0.1,30.3c0,2.8,2,3.9,4.4,2.5l26-15
		C170.4,51.6,170.4,49.4,168,48z"/>
</g>
</svg>
