<?xml version="1.0" encoding="utf-8"?>
<!-- Generator: Adobe Illustrator 18.0.0, SVG Export Plug-In . SVG Version: 6.00 Build 0)  -->
<!DOCTYPE svg PUBLIC "-//W3C//DTD SVG 1.1//EN" "http://www.w3.org/Graphics/SVG/1.1/DTD/svg11.dtd">
<svg version="1.1" id="Layer_1" xmlns="http://www.w3.org/2000/svg" xmlns:xlink="http://www.w3.org/1999/xlink" x="0px" y="0px"
	 width="245px" height="61px" viewBox="0 0 245 61" enable-background="new 0 0 245 61" xml:space="preserve">
<g>
	<path fill="#A8CE68" d="M115.1,13h-3.768l5.2-5.2H106V5.2h10.532l-5.2-5.2h3.768l6.632,6.632L115.1,13z"/>
</g>
<g>
	<path fill="#363640" d="M29.533,2.841c-1.087,0.481-2.254,0.808-3.48,0.954c1.251-0.75,2.212-1.938,2.664-3.352
		c-1.171,0.692-2.468,1.197-3.848,1.47C23.764,0.734,22.189,0,20.446,0c-3.346,0-6.059,2.713-6.059,6.059
		c0,0.476,0.053,0.938,0.157,1.381c-5.035-0.252-9.5-2.664-12.488-6.33c-0.522,0.896-0.82,1.937-0.82,3.047
		c0,2.102,1.07,3.955,2.695,5.043C2.938,9.167,2.003,8.895,1.187,8.44c0,0.025,0,0.052,0,0.076c0,2.937,2.089,5.384,4.861,5.941
		c-0.51,0.139-1.045,0.213-1.598,0.213c-0.391,0-0.771-0.038-1.14-0.109c0.771,2.408,3.009,4.16,5.66,4.209
		c-2.073,1.625-4.686,2.598-7.525,2.598c-0.489,0-0.972-0.028-1.445-0.084C2.681,22.997,5.866,24,9.288,24
		c11.145,0,17.239-9.232,17.239-17.239c0-0.263-0.006-0.521-0.017-0.782C27.693,5.123,28.72,4.057,29.533,2.841L29.533,2.841z"/>
</g>
<path fill="#363640" d="M105,10.5h-3.75V6.75h-3v3.75H94.5v3h3.75v3.75h3V13.5H105 M81,9.75v4.68h6.541
	c-0.503,2.82-2.948,4.875-6.541,4.875c-3.959,0-7.177-3.353-7.177-7.312c0-3.959,3.218-7.306,7.177-7.306
	c1.784,0,3.383,0.615,4.642,1.814V6.51l3.383-3.383C86.948,1.191,84.24,0,81,0c-6.63,0-12,5.37-12,12c0,6.63,5.37,12,12,12
	c6.93,0,11.52-4.875,11.52-11.73c0-0.877-0.082-1.717-0.232-2.52H81z"/>
<g>
	<path fill="#363640" d="M42,0c-6.628,0-12,5.373-12,12c0,5.084,3.163,9.426,7.626,11.174c-0.104-0.949-0.2-2.404,0.042-3.441
		c0.218-0.938,1.407-5.965,1.407-5.965s-0.359-0.719-0.359-1.781c0-1.668,0.967-2.914,2.171-2.914c1.023,0,1.519,0.769,1.519,1.687
		c0,1.029-0.655,2.568-0.994,3.995c-0.283,1.194,0.598,2.169,1.776,2.169c2.133,0,3.773-2.249,3.773-5.494
		c0-2.873-2.065-4.883-5.014-4.883c-3.414,0-5.418,2.561-5.418,5.207c0,1.031,0.398,2.142,0.893,2.738
		c0.099,0.118,0.113,0.223,0.083,0.345c-0.091,0.379-0.293,1.194-0.333,1.361c-0.052,0.22-0.173,0.266-0.401,0.156
		c-1.499-0.694-2.436-2.891-2.436-4.646c0-3.785,2.751-7.262,7.93-7.262c4.163,0,7.397,2.967,7.397,6.931
		c0,4.14-2.607,7.465-6.227,7.465c-1.216,0-2.359-0.632-2.75-1.378c0,0-0.602,2.291-0.748,2.854
		c-0.271,1.043-1.002,2.351-1.492,3.146C39.57,23.813,40.763,24,42,24c6.627,0,12-5.373,12-12C54,5.373,48.628,0,42,0z"/>
</g>
<path fill="#363640" d="M63.091,24V13.053h3.673l0.55-4.269H63.09v-2.72c0-1.234,0.342-2.078,2.114-2.078h2.258V0.167
	C67.07,0.117,65.732,0,64.172,0c-3.259,0-5.49,1.986-5.49,5.639v3.146H55v4.271h3.682V24H63.091z"/>
<g>
	<path fill="#A8CE68" d="M29.533,27.841c-1.087,0.482-2.254,0.808-3.48,0.954c1.251-0.75,2.212-1.938,2.664-3.352
		c-1.171,0.692-2.468,1.197-3.848,1.47C23.764,25.734,22.189,25,20.446,25c-3.346,0-6.059,2.713-6.059,6.059
		c0,0.476,0.053,0.938,0.157,1.381c-5.035-0.252-9.5-2.664-12.488-6.33c-0.522,0.896-0.82,1.937-0.82,3.047
		c0,2.102,1.07,3.955,2.695,5.043c-0.993-0.033-1.928-0.305-2.744-0.76c0,0.025,0,0.052,0,0.076c0,2.937,2.089,5.384,4.861,5.941
		c-0.51,0.139-1.045,0.213-1.598,0.213c-0.391,0-0.771-0.038-1.14-0.109c0.771,2.408,3.009,4.16,5.66,4.209
		c-2.073,1.625-4.686,2.598-7.525,2.598c-0.489,0-0.972-0.028-1.445-0.084C2.681,47.997,5.866,49,9.288,49
		c11.145,0,17.239-9.232,17.239-17.239c0-0.263-0.006-0.521-0.017-0.782C27.693,30.123,28.72,29.057,29.533,27.841L29.533,27.841z"
		/>
</g>
<path fill="#A8CE68" d="M105,35.5h-3.75v-3.75h-3v3.75H94.5v3h3.75v3.75h3V38.5H105 M81,34.75v4.68h6.541
	c-0.503,2.82-2.948,4.875-6.541,4.875c-3.959,0-7.177-3.353-7.177-7.312c0-3.959,3.218-7.306,7.177-7.306
	c1.784,0,3.383,0.615,4.642,1.814v0.009l3.383-3.383C86.948,26.191,84.24,25,81,25c-6.63,0-12,5.37-12,12s5.37,12,12,12
	c6.93,0,11.52-4.875,11.52-11.73c0-0.877-0.082-1.717-0.232-2.52H81z"/>
<g>
	<path fill="#A8CE68" d="M42,25c-6.628,0-12,5.373-12,12c0,5.084,3.163,9.426,7.626,11.174c-0.104-0.949-0.2-2.404,0.042-3.441
		c0.218-0.938,1.407-5.965,1.407-5.965s-0.359-0.719-0.359-1.781c0-1.668,0.967-2.914,2.171-2.914c1.023,0,1.519,0.769,1.519,1.688
		c0,1.029-0.655,2.568-0.994,3.995c-0.283,1.194,0.598,2.169,1.776,2.169c2.133,0,3.773-2.249,3.773-5.494
		c0-2.873-2.065-4.883-5.014-4.883c-3.414,0-5.418,2.561-5.418,5.207c0,1.031,0.398,2.142,0.893,2.738
		c0.099,0.118,0.113,0.223,0.083,0.345c-0.091,0.379-0.293,1.194-0.333,1.361c-0.052,0.22-0.173,0.266-0.401,0.156
		c-1.499-0.694-2.436-2.891-2.436-4.646c0-3.785,2.751-7.262,7.93-7.262c4.163,0,7.397,2.967,7.397,6.931
		c0,4.14-2.607,7.465-6.227,7.465c-1.216,0-2.359-0.632-2.75-1.378c0,0-0.602,2.291-0.748,2.854
		c-0.271,1.043-1.002,2.351-1.492,3.146C39.57,48.813,40.763,49,42,49c6.627,0,12-5.373,12-12S48.628,25,42,25z"/>
</g>
<path fill="#A8CE68" d="M63.091,49V38.053h3.673l0.55-4.27H63.09v-2.72c0-1.234,0.342-2.078,2.114-2.078h2.258v-3.818
	C67.07,25.117,65.732,25,64.172,25c-3.259,0-5.49,1.986-5.49,5.639v3.146H55v4.271h3.682V49H63.091z"/>
<g>
	
		<rect x="120.781" y="8.261" transform="matrix(0.7071 -0.7071 0.7071 0.7071 31.7815 97.2499)" fill="#FFFFFF" width="24.998" height="4.001"/>
	
		<rect x="120.753" y="8.253" transform="matrix(0.7071 0.7071 -0.7071 0.7071 46.2782 -91.2208)" fill="#FFFFFF" width="24.999" height="4"/>
</g>
<g>
	<g>
		<path fill="#FFFFFF" d="M226.684,7.682v4.559h-3.289V7.682H219V4.561h4.394V0h3.289v4.561h4.391v3.121H226.684z"/>
	</g>
</g>
<g>
	<path fill="#FFFFFF" d="M232,3.288V0h12.143v3.288H232z"/>
</g>
<g>
	<g>
		<path fill="#A8CE68" d="M226.684,20.682v4.559h-3.289v-4.559H219v-3.121h4.394V13h3.289v4.561h4.391v3.121H226.684z"/>
	</g>
</g>
<g>
	<path fill="#A8CE68" d="M232,16.288V13h12.143v3.288H232z"/>
</g>
<g>
	<g>
		<path fill="#FFC627" d="M189.201,44.849c0-0.668,0.531-1.105,1.125-1.105c0.599,0,1.13,0.437,1.13,1.105
			c0,0.669-0.531,1.099-1.13,1.099C189.732,45.948,189.201,45.518,189.201,44.849z M190.326,43.979
			c-0.471,0-0.837,0.361-0.837,0.871c0,0.504,0.366,0.867,0.837,0.867c0.467,0,0.841-0.363,0.841-0.867
			C191.167,44.339,190.793,43.979,190.326,43.979z M190.132,45.461h-0.244V44.23h0.469c0.305,0,0.478,0.099,0.478,0.363
			c0,0.227-0.141,0.315-0.301,0.333l0.301,0.535h-0.271l-0.28-0.527h-0.151V45.461z M190.132,44.744h0.211
			c0.176,0,0.241-0.052,0.241-0.171c0-0.114-0.078-0.156-0.251-0.156h-0.201V44.744z"/>
	</g>
	<path fill="#231F20" d="M147.72,43.998c-2.051,0-3.72,1.668-3.72,3.719v8.563c0,2.052,1.669,3.72,3.72,3.72h37.661
		c2.052,0,3.72-1.668,3.72-3.72v-8.563c0-2.051-1.669-3.719-3.72-3.719H147.72z"/>
	<g>
		<path fill="#FFC627" d="M185.381,45.185H147.72c-1.397,0-2.533,1.136-2.533,2.532v8.563c0,1.397,1.136,2.532,2.533,2.532h37.661
			c1.396,0,2.533-1.135,2.533-2.532v-8.563C187.914,46.321,186.778,45.185,185.381,45.185z M186.726,56.28
			c0,0.741-0.605,1.345-1.345,1.345H147.72c-0.74,0-1.345-0.604-1.345-1.345v-8.563c0-0.74,0.605-1.345,1.345-1.345h37.661
			c0.74,0,1.345,0.605,1.345,1.345V56.28z"/>
	</g>
	<path fill="#231F20" d="M147.72,0C145.669,0,144,1.669,144,3.72v35.419c0,2.051,1.669,3.719,3.72,3.719h37.661
		c2.052,0,3.72-1.668,3.72-3.719V3.72c0-2.051-1.669-3.72-3.72-3.72H147.72z"/>
	<g>
		<path fill="#FFC627" d="M185.381,1.187H147.72c-1.397,0-2.533,1.137-2.533,2.533v35.419c0,1.396,1.136,2.532,2.533,2.532h37.661
			c1.396,0,2.533-1.135,2.533-2.532V3.72C187.914,2.324,186.778,1.187,185.381,1.187z M186.726,39.139
			c0,0.741-0.605,1.346-1.345,1.346H147.72c-0.74,0-1.345-0.605-1.345-1.346V3.72c0-0.74,0.605-1.345,1.345-1.345h37.661
			c0.74,0,1.345,0.605,1.345,1.345V39.139z"/>
	</g>
	<g>
		<path fill="#FFFFFF" d="M153.263,54.623l-1.104,1.071h-1.907l-1.134-1.071v-6.32h1.702v6h0.742v-6h1.701V54.623z"/>
		<path fill="#FFFFFF" d="M155.541,55.693h-1.701v-1.421h1.701V55.693z"/>
		<path fill="#FFFFFF" d="M159.171,48.303l1.195,1.073v1.31h-1.701v-0.99h-0.701V51.2l1.238,0.103l1.164,1.073v2.247l-1.112,1.071
			h-1.887l-1.104-1.071v-1.299h1.701v0.979h0.701v-1.546l-1.216-0.092l-1.186-1.072v-2.217l1.114-1.073H159.171z"/>
		<path fill="#FFFFFF" d="M162.656,55.693h-1.701v-1.421h1.701V55.693z"/>
		<path fill="#FFFFFF" d="M166.048,52.942h-0.742l0.258-3.072h0.165L166.048,52.942z M166.884,48.303h-2.463l-1.041,7.391h1.659
			l0.145-1.359h0.99l0.145,1.359h1.669L166.884,48.303z"/>
		<path fill="#FFFFFF" d="M171.081,49.695v1.659h-0.712v-1.659H171.081z M172.73,49.375l-1.145-1.073h-2.917v7.391h1.701v-2.947
			h0.712v2.947h1.649v-2.947l-0.855-0.722l0.855-0.711V49.375z"/>
		<path fill="#FFFFFF" d="M178.908,55.693h-1.558v-4.69h-0.071l-0.711,4.69h-0.629l-0.712-4.69h-0.071v4.69h-1.557v-7.391h2
			l0.599,3.577h0.153l0.557-3.577h2.001V55.693z"/>
		<path fill="#FFFFFF" d="M182.764,52.602v3.091h-1.701v-3.091l-1.463-4.299h1.701l0.608,2.67h0.021l0.608-2.67h1.701
			L182.764,52.602z"/>
	</g>
	<polygon fill="#FFC627" points="177.057,37.58 166.551,29.94 156.042,37.58 160.06,25.224 149.544,17.593 162.54,17.593 
		166.551,5.231 170.562,17.593 183.558,17.593 173.041,25.224 177.057,37.58 	"/>
	<polygon fill="#231F20" points="174.711,34.349 166.55,28.416 158.388,34.349 161.509,24.752 153.342,18.825 163.435,18.825 
		166.55,9.225 169.666,18.825 179.76,18.825 171.592,24.753 174.711,34.349 	"/>
	<polygon fill="#FFFFFF" points="166.55,13.072 168.803,20.013 176.102,20.013 170.197,24.298 172.453,31.237 166.55,26.947 
		160.648,31.237 162.906,24.298 157,20.013 164.298,20.013 	"/>
</g>
<g>
	<g>
		<rect x="193" fill="#FFFFFF" width="25.02" height="4.003"/>
		<rect x="193" y="8" fill="#FFFFFF" width="25" height="4"/>
		<rect x="193" y="16" fill="#FFFFFF" width="25" height="4"/>
	</g>
</g>
<path fill="#A8CE68" d="M124,46.5c0-3.238-1.979-6.17-5.029-7.447c-0.089-0.032-0.185-0.053-0.283-0.053
	c-0.377,0-0.689,0.306-0.689,0.675c0,0.306,0.162,0.475,0.422,0.623c0.15,0.084,0.324,0.137,0.487,0.221
	c0.303,0.158,0.604,0.338,0.888,0.539c1.771,1.276,2.821,3.291,2.821,5.442c0,2.15-1.05,4.167-2.821,5.443
	c-0.283,0.201-0.585,0.38-0.888,0.539c-0.163,0.084-0.337,0.137-0.487,0.221c-0.26,0.149-0.422,0.316-0.422,0.623
	c0,0.369,0.312,0.675,0.689,0.675c0.1,0,0.194-0.021,0.283-0.053C122.021,52.671,124,49.739,124,46.5 M121.23,46.5
	c0-2.141-1.318-4.134-3.353-4.968c-0.088-0.031-0.185-0.053-0.282-0.053c-0.38,0-0.693,0.307-0.693,0.676
	c0,0.295,0.176,0.496,0.424,0.622c0.292,0.147,0.563,0.274,0.822,0.464c1.07,0.759,1.697,1.972,1.697,3.259
	c0,1.288-0.627,2.5-1.697,3.26c-0.26,0.19-0.529,0.316-0.821,0.465c-0.248,0.127-0.423,0.327-0.423,0.621
	c0,0.369,0.313,0.676,0.703,0.676c0.088,0,0.185-0.021,0.271-0.054C119.912,50.635,121.23,48.643,121.23,46.5 M118.462,46.5
	c0-1.055-0.661-2.088-1.677-2.479c-0.087-0.042-0.186-0.053-0.271-0.053c-0.377,0-0.69,0.295-0.69,0.676
	c0,0.801,1.256,0.58,1.256,1.855c0,1.276-1.256,1.056-1.256,1.856c0,0.379,0.313,0.676,0.69,0.676c0.088,0,0.186-0.012,0.271-0.053
	C117.801,48.578,118.462,47.555,118.462,46.5 M114.308,40.762c0-0.369-0.314-0.675-0.691-0.675c-0.185,0-0.358,0.074-0.487,0.2
	l-3.603,3.512h-2.834c-0.379,0-0.693,0.306-0.693,0.676v4.05c0,0.369,0.314,0.675,0.693,0.675h2.834l3.602,3.513
	c0.129,0.127,0.303,0.201,0.487,0.201c0.377,0,0.691-0.307,0.691-0.676L114.308,40.762L114.308,40.762z"/>
<g id="Layer_1_1_">
	<path fill="#A8CE68" d="M125,48.461c0-2.041,0-6.984,0-8.929c0-0.555,0.196-0.666,0.769-0.377c1.928,0.972,6.689,3.397,8.734,4.427
		c0.656,0.331,0.666,0.518,0.01,0.849c-2.203,1.11-6.769,3.405-8.667,4.362C125.175,49.13,125,49.081,125,48.461z"/>
</g>
<g id="Layer_2">
</g>
<polygon fill="#A8CE68" points="143,29.766 141.071,28 134,34.471 126.929,28 125,29.766 134,38 "/>
<polygon fill="#A8CE68" points="106,36.234 107.929,38 115,31.529 122.071,38 124,36.234 115,28 "/>
</svg>
